<?xml version="1.0" encoding="UTF-8"?>
<svg width="212px" height="212px" viewBox="0 0 212 212" version="1.1" xmlns="http://www.w3.org/2000/svg" xmlns:xlink="http://www.w3.org/1999/xlink">
    <!-- Generator: Sketch 51.2 (57519) - http://www.bohemiancoding.com/sketch -->
    <title>Logos-Hover</title>
    <desc>Created with Sketch.</desc>
    <defs></defs>
    <g id="Logos-Hover" stroke="none" stroke-width="1" fill="none" fill-rule="evenodd">
        <g id="arrivo">
            <rect id="Rectangle-Copy-2" fill="#FD7802" x="0" y="0" width="216" height="214"></rect>
            <path d="M153.000704,119.870849 C151.676691,119.870849 150.351164,119.846638 149.025638,119.876901 C147.341493,119.91473 146.598533,120.631967 146.541033,122.313086 C146.492612,123.739993 146.513796,125.166901 146.525901,126.593809 C146.528928,126.999336 146.569783,127.409401 146.64998,127.805849 C146.85123,128.799993 147.359651,129.267559 148.37498,129.434007 C148.635243,129.477888 148.900046,129.523283 149.163336,129.524796 C151.691822,129.532362 154.220309,129.553546 156.747283,129.520257 C158.628138,129.494533 159.339322,128.781836 159.387743,126.914599 C159.424059,125.407493 159.424059,123.897362 159.383204,122.390257 C159.334783,120.622888 158.606954,119.911704 156.854717,119.875388 C155.570046,119.846638 154.286888,119.869336 153.000704,119.870849 M153.011296,116.761309 C154.783204,116.761309 156.57327,116.599401 158.323993,116.799138 C161.388138,117.145651 162.669783,118.486309 162.861954,121.559533 C163.002678,123.811112 162.957283,126.088414 162.792349,128.339993 C162.603204,130.918414 161.091559,132.333217 158.491954,132.588941 C157.319257,132.703941 156.131428,132.716046 154.949651,132.716046 C152.60577,132.717559 150.252809,132.809862 147.921033,132.620717 C144.620836,132.354401 143.313467,131.060651 143.074388,127.775586 C142.909454,125.508875 142.96998,123.205849 143.145507,120.936112 C143.330112,118.564993 144.817546,117.100257 147.209849,116.84302 C149.128533,116.63723 151.074454,116.662954 153.00827,116.58427 C153.00827,116.643283 153.009783,116.702296 153.011296,116.761309" id="Fill-1" fill="#FFFFFF"></path>
            <path d="M80.947,124.855039 L80.947,124.799053 C82.5161447,124.799053 84.0868026,124.847474 85.6529211,124.780895 C86.6576579,124.738526 87.1312763,124.158987 87.1918026,123.146684 C87.2175263,122.741158 87.2084474,122.332605 87.2069342,121.924053 C87.1963421,120.409382 86.6637105,119.825303 85.1596316,119.810171 C82.4071974,119.782934 79.6547632,119.807145 76.9008158,119.795039 C76.4574605,119.793526 76.2864737,119.937276 76.2955526,120.397276 C76.3167368,121.701618 76.31825,123.007474 76.2940395,124.313329 C76.2849605,124.744579 76.4256842,124.871684 76.8493684,124.864118 C78.2142368,124.841421 79.5821316,124.855039 80.947,124.855039 M72.7865395,124.7355 C72.7865395,122.391618 72.7850263,120.046224 72.7880526,117.700829 C72.7895658,116.783855 72.9030526,116.667342 73.7943026,116.667342 C77.7905526,116.665829 81.7883158,116.661289 85.7830526,116.673395 C86.3504868,116.674908 86.9239737,116.720303 87.4838421,116.817145 C89.2421316,117.119776 90.3800263,118.183526 90.5797632,119.961487 C90.7310789,121.303658 90.7204868,122.686684 90.5948947,124.036421 C90.4435789,125.675171 89.4781842,126.763132 87.8485132,127.156553 C87.3567368,127.276092 87.4127237,127.407737 87.6714737,127.723987 C88.79575,129.096421 89.9109474,130.476421 91.0079868,131.867013 C91.1547632,132.053132 91.1925921,132.322474 91.2818684,132.552474 C91.0579211,132.609974 90.8324605,132.709842 90.607,132.715895 C89.7929211,132.735566 88.9758158,132.703789 88.1617368,132.731026 C87.7274605,132.746158 87.4414737,132.593329 87.18575,132.246816 C86.1673947,130.871355 85.1172632,129.518592 84.0989079,128.141618 C83.8462105,127.799645 83.5798947,127.643789 83.1395658,127.649842 C81.0604868,127.672539 78.9798947,127.674053 76.9008158,127.649842 C76.4120658,127.643789 76.2804211,127.799645 76.2925263,128.274776 C76.3212763,129.517079 76.2879868,130.760895 76.3091711,132.006224 C76.3167368,132.523724 76.1306184,132.753724 75.5949605,132.731026 C74.9427895,132.703789 74.2906184,132.724974 73.6384474,132.723461 C72.8652237,132.720434 72.7895658,132.652342 72.7880526,131.891224 C72.7850263,129.506487 72.7865395,127.120237 72.7865395,124.7355" id="Fill-3" fill="#FFFFFF"></path>
            <path d="M101.865197,124.855039 L101.865197,124.785434 C103.432829,124.785434 105.003487,124.830829 106.569605,124.767276 C107.435132,124.733987 107.890592,124.213461 107.987434,123.357013 C108.043421,122.853132 108.0525,122.338658 108.037368,121.830237 C107.998026,120.39425 107.460855,119.826816 106.01125,119.811684 C103.239145,119.779908 100.465526,119.807145 97.6919079,119.796553 C97.2757895,119.793526 97.1093421,119.944842 97.1138816,120.368526 C97.1305263,121.694053 97.1335526,123.019579 97.1108553,124.343592 C97.1048026,124.755171 97.2530921,124.867145 97.6434868,124.862605 C99.0507237,124.844447 100.457961,124.855039 101.865197,124.855039 Z M93.6184868,124.712803 C93.6184868,122.368921 93.6169737,120.025039 93.62,117.681158 C93.6215132,116.759645 93.7183553,116.667342 94.6444079,116.667342 C98.6179605,116.665829 102.593026,116.662803 106.568092,116.670368 C107.056842,116.671882 107.551645,116.682474 108.028289,116.764184 C110.164868,117.134908 111.237697,118.147211 111.466184,120.283789 C111.603882,121.566947 111.544868,122.893987 111.395066,124.180171 C111.211974,125.74175 110.255658,126.761618 108.706184,127.147474 C108.256776,127.259447 108.194737,127.363855 108.503421,127.737605 C109.620132,129.088855 110.715658,130.45675 111.803618,131.830697 C111.954934,132.022868 112.018487,132.284645 112.122895,132.514645 C111.886842,132.582737 111.652303,132.705303 111.413224,132.714382 C110.64,132.740105 109.862237,132.700763 109.089013,132.732539 C108.592697,132.753724 108.259803,132.594842 107.958684,132.186289 C106.946382,130.806289 105.888684,129.458066 104.868816,128.084118 C104.638816,127.773921 104.395197,127.648329 104.004803,127.651355 C101.904539,127.668 99.8057895,127.669513 97.7055263,127.651355 C97.2621711,127.646816 97.09875,127.761816 97.1078289,128.230895 C97.1396053,129.494382 97.1048026,130.759382 97.1259868,132.022868 C97.1350658,132.558526 96.9217105,132.75675 96.3996711,132.729513 C95.8292105,132.703789 95.2572368,132.723461 94.6867763,132.723461 C93.62,132.723461 93.6184868,132.723461 93.6184868,131.624908 L93.6184868,124.712803 Z" id="Fill-5" fill="#FFFFFF"></path>
            <path d="M108.170526,103.823053 C112.127434,103.823053 116.082829,103.817 120.039737,103.833645 C120.460395,103.835158 120.710066,103.723184 120.90375,103.340355 C121.223026,102.710882 121.24875,102.721474 120.514868,102.721474 C112.646447,102.721474 104.778026,102.727526 96.9096053,102.709368 C96.3769737,102.707855 96.0713158,102.860684 95.8488816,103.337329 C95.6158553,103.836671 95.5840789,103.823053 96.1257895,103.823053 C100.140197,103.824566 104.156118,103.823053 108.170526,103.823053 M119.328553,96.3995 C120.38625,98.2168026 121.451513,100.029566 122.489539,101.858974 C122.586382,102.029961 122.598487,102.344697 122.507697,102.515684 C122.040132,103.381211 121.524145,104.221013 121.024803,105.069895 C120.704013,104.755158 120.339342,104.862592 119.976184,104.963974 C119.826382,104.926145 119.676579,104.853513 119.526776,104.853513 C111.481316,104.848974 103.437368,104.848974 95.3934211,104.853513 C95.2254605,104.853513 95.0590132,104.926145 94.8925658,104.967 C94.5384868,104.935224 94.1874342,104.906474 93.8333553,104.876211 C94.9863816,102.875816 96.1394079,100.873908 97.2909211,98.8735132 C97.6419737,98.9098289 97.9915132,98.9461447 98.3425658,98.9839737 C97.9173684,99.7390395 97.4906579,100.495618 97.0639474,101.249171 C96.8142763,101.692526 96.8157895,101.701605 97.2969737,101.701605 C102.665658,101.703118 108.034342,101.703118 113.403026,101.701605 C113.867566,101.701605 113.873618,101.686474 113.642105,101.277921 C113.068618,100.267132 112.495132,99.2578553 111.921645,98.2485789 C112.16375,97.8718026 112.546579,98.0200921 112.880987,97.9898289 C113.531645,99.1035132 114.183816,100.215684 114.834474,101.330882 C115.011513,101.632 116.019276,101.914961 116.156974,101.66075 C116.240197,101.507921 116.011711,101.161408 115.887632,100.920816 C115.692434,100.542526 115.463947,100.182395 115.255132,99.8131842 C114.814803,99.0354211 114.3775,98.2576579 113.940197,97.4829211 C114.177763,96.9971974 114.577237,97.3043684 114.911645,97.2831842 C115.640987,98.5209474 116.399079,99.7420658 117.083026,101.005553 C117.372039,101.539697 117.692829,101.790882 118.310197,101.712197 C118.785329,101.653184 118.794408,101.697066 118.541711,101.256737 C118.030263,100.365487 117.512763,99.4772632 117.002829,98.5845 C116.626053,97.9247632 116.256842,97.2589737 115.883092,96.5962105 C116.135789,96.1468026 116.538289,96.4509474 116.869671,96.3964737 C117.779079,97.9550263 118.706645,99.5029868 119.584276,101.076671 C119.844539,101.542724 120.121447,101.769697 120.676776,101.713711 C121.245724,101.656211 121.250263,101.700092 120.964276,101.202263 C120.09875,99.6875921 119.234737,98.1714079 118.367697,96.6567368 C118.581053,96.1710132 118.986579,96.4040395 119.328553,96.3995" id="Fill-7" fill="#FFFFFF"></path>
            <path d="M68.794375,132.723763 C66.6124013,132.676855 67.2494408,133.085408 66.1796382,131.148566 C64.2216118,127.603237 62.3059539,124.033697 60.3600329,120.479289 C60.2435197,120.265934 60.0241118,120.107053 59.853125,119.923961 C59.6670066,120.116132 59.4264145,120.276526 59.3038487,120.5035 C57.2217434,124.354487 55.1456908,128.2085 53.0923355,132.073105 C52.838125,132.551263 52.5445724,132.764618 51.9968092,132.734355 C51.2659539,132.691987 50.5305592,132.725276 49.7966776,132.723763 C48.8872697,132.723763 48.8312829,132.634487 49.2564803,131.853697 C50.6591776,129.279816 52.0649013,126.705934 53.4691118,124.132053 C54.4723355,122.292053 55.5149013,120.470211 56.4681908,118.602974 C57.1733224,117.221461 58.1508224,116.439158 59.766875,116.652513 C60.0679934,116.691855 60.3781908,116.670671 60.6838487,116.678237 C61.4222697,116.700934 62.0245066,117.005079 62.4648355,117.595211 C62.7084539,117.920539 62.9324013,118.262513 63.1291118,118.618105 C65.5577303,123.021395 67.9802961,127.427711 70.4028618,131.834026 C70.8401645,132.625408 70.7811513,132.72225 69.8959539,132.723763 C69.5282566,132.725276 69.1620724,132.723763 68.794375,132.723763" id="Fill-9" fill="#FFFFFF"></path>
            <path d="M121.976579,116.665678 C123.379276,116.257125 123.989079,117.036401 124.58375,118.175809 C126.466118,121.78923 128.452895,125.346664 130.412434,128.91923 C130.525921,129.12502 130.757434,129.26877 130.932961,129.439757 C131.105461,129.262717 131.332434,129.114428 131.445921,128.904099 C133.508355,125.086401 135.570789,121.270217 137.595395,117.432849 C137.908618,116.839691 138.270263,116.602125 138.93,116.653572 C139.660855,116.709559 140.397763,116.662651 141.131645,116.667191 C141.832237,116.673243 141.903355,116.78673 141.567434,117.407125 C140.285789,119.772191 138.995066,122.131204 137.707368,124.49173 C136.548289,126.620743 135.355921,128.733112 134.239211,130.883309 C133.565855,132.178572 132.642829,132.910941 131.126645,132.727849 C130.845197,132.696072 130.556184,132.723309 130.270197,132.721796 C129.344145,132.71423 128.617829,132.341993 128.123026,131.546072 C127.982303,131.322125 127.838553,131.098178 127.709934,130.868178 C125.258618,126.427059 122.807303,121.985941 120.359013,117.543309 C119.920197,116.748901 119.968618,116.668704 120.875,116.665678 L121.976579,116.665678 Z" id="Fill-11" fill="#FFFFFF"></path>
            <path d="M110.064849,107.038513 C109.886296,106.993118 109.70623,106.909895 109.527678,106.909895 C104.435901,106.902329 99.3471513,106.902329 94.2568882,106.906868 C94.082875,106.906868 93.910375,106.953776 93.737875,106.9795 C93.5910987,107.248842 93.4473487,107.518184 93.2945197,107.786013 C93.1734671,108.000882 93.2566908,108.079566 93.4760987,108.079566 C93.622875,108.079566 93.7696513,108.082592 93.9164276,108.082592 C98.7479408,108.082592 103.58248,108.065947 108.413993,108.10075 C109.146362,108.106803 109.662349,107.979697 109.908993,107.247329 C109.93623,107.168645 110.011888,107.106605 110.064849,107.038513 M119.976033,104.963974 C120.339191,104.862592 120.703862,104.755158 121.024651,105.069895 C120.761362,105.525355 120.507151,105.989895 120.22873,106.436276 C120.116757,106.613316 119.947283,106.755553 119.805046,106.914434 C117.073796,106.911408 114.342546,106.906868 111.611296,106.906868 C111.482678,106.906868 111.354059,106.947724 111.225441,106.970421 C110.924322,107.489434 110.600507,107.996342 110.335704,108.533513 C110.122349,108.966276 109.816691,109.100947 109.352151,109.099434 C105.207612,109.087329 101.064586,109.093382 96.9200461,109.093382 C95.4659013,109.093382 94.0117566,109.082789 92.5576118,109.099434 C92.1203092,109.105487 91.8570197,108.948118 91.6421513,108.566803 C90.9309671,107.300289 90.1880066,106.051934 89.4632039,104.7945 C89.3996513,104.682526 89.3724145,104.550882 89.3300461,104.429829 C89.6826118,104.373842 90.0351776,104.316342 90.3877434,104.258842 C90.5541908,104.594763 90.719125,104.930684 90.9007039,105.259039 C90.9143224,105.284763 91.0913618,105.269632 91.121625,105.224237 C91.3198487,104.936737 91.4968882,104.635618 91.6830066,104.339039 C92.0537303,104.345092 92.4229408,104.351145 92.7921513,104.358711 C92.5334013,104.799039 92.3139934,105.269632 92.0068224,105.675158 C91.6058355,106.206276 91.6073487,106.661737 92.0053092,107.197395 C92.2368224,107.507592 92.3049145,107.509105 92.4849803,107.188316 C92.9207697,106.410553 93.3837961,105.646408 93.8332039,104.876211 C94.1872829,104.906474 94.5383355,104.935224 94.8924145,104.967 C94.7123487,105.275684 94.5292566,105.584368 94.3491908,105.893053 C94.5443882,105.935421 94.7380724,106.018645 94.9332697,106.018645 C102.912151,106.026211 110.892546,106.024697 118.871428,106.020158 C119.056033,106.020158 119.239125,105.955092 119.425243,105.921803 C119.608336,105.602526 119.792941,105.28325 119.976033,104.963974" id="Fill-13" fill="#FFFFFF"></path>
            <path d="M98.7443092,83.5889539 C99.5538487,82.1726382 100.352796,80.7502697 101.188059,79.3490855 C101.292467,79.1750724 101.587533,79.0237566 101.796349,79.0192171 C103.338257,78.9934934 104.884704,78.9934934 106.426612,79.0192171 C106.636941,79.0237566 106.936546,79.1690197 107.037928,79.3415197 C108.178849,81.279875 109.289507,83.2363882 110.406217,85.1868487 C110.065757,85.1974408 109.699572,85.1157303 109.448388,85.448625 C108.523849,83.8628355 107.56602,82.2936908 106.689901,80.6776382 C106.378191,80.101125 106.002928,79.9195461 105.397664,79.986125 C105.107138,80.0194145 105.019375,80.0814539 105.185822,80.3538224 C105.443059,80.7820461 105.689704,81.2178355 105.937862,81.6505987 C106.812467,83.1819145 107.685559,84.7132303 108.558651,86.2460592 C108.201546,86.1855329 107.805099,85.9782303 107.599309,86.4972434 C107.517599,86.3746776 107.428322,86.2581645 107.355691,86.1310592 C106.304046,84.3092171 105.226678,82.5009934 104.220428,80.6564539 C103.923849,80.1117171 103.578849,79.9407303 103.000822,79.9815855 C102.622533,80.0103355 102.571086,80.0875066 102.761743,80.4098092 C103.261086,81.2602039 103.739243,82.1211908 104.223454,82.9791513 C103.872401,83.0094145 103.519836,83.0411908 103.168783,83.0699408 C102.869178,82.6825724 102.872204,82.6855987 102.61648,83.119875 C102.223059,83.7886908 101.825099,84.4514539 101.430164,85.1172434 C101.107862,84.7858618 100.732599,84.9961908 100.377007,85.0098092 C100.892993,84.1064539 101.369638,83.177375 101.940099,82.3073092 C102.277533,81.7928355 102.251809,81.3979013 101.911349,80.9288224 C101.640493,80.5580987 101.651086,80.5399408 101.41352,80.9454671 C100.856678,81.8927039 100.296809,82.8399408 99.7399671,83.7871776 C99.4085855,83.7221118 99.0772039,83.6555329 98.7443092,83.5889539" id="Fill-15" fill="#FFFFFF"></path>
            <path d="M117.954303,124.708717 C117.955816,127.091941 117.957329,129.475164 117.954303,131.859901 C117.952789,132.664901 117.889237,132.722401 117.084237,132.723914 C116.410882,132.725428 115.739039,132.716349 115.067197,132.726941 C114.628382,132.734507 114.446803,132.537796 114.446803,132.09898 C114.452855,127.170625 114.454368,122.240757 114.445289,117.310888 C114.443776,116.834243 114.643513,116.649638 115.100487,116.657204 C115.792,116.667796 116.486539,116.682928 117.178053,116.649638 C117.763645,116.622401 117.967921,116.859967 117.963382,117.43648 C117.943711,119.860559 117.954303,122.284638 117.954303,124.708717" id="Fill-17" fill="#FFFFFF"></path>
            <path d="M109.448691,85.4493816 C109.699875,85.1149737 110.066059,85.1981974 110.40652,85.1860921 C110.616849,85.5401711 110.845336,85.8836579 111.03448,86.2483289 C111.169151,86.5070789 111.349217,86.5978684 111.632178,86.5887895 C112.176914,86.5721447 112.723164,86.5539868 113.263362,86.6008947 C113.476717,86.6175395 113.767243,86.7522105 113.868625,86.9262237 C115.693493,90.0478684 117.495664,93.1831316 119.302375,96.3168816 C119.315993,96.3410921 119.31902,96.3713553 119.328099,96.3985921 C118.987638,96.4031316 118.580599,96.1716184 118.368757,96.6558289 C118.303691,96.5589868 118.232572,96.4651711 118.173559,96.3637895 C116.615007,93.6643158 115.041322,90.9693816 113.516059,88.2532632 C113.211914,87.7145789 112.883559,87.4951711 112.27073,87.5556974 C111.884875,87.5935263 111.851586,87.6661579 112.037704,87.9808947 C112.753428,89.1989868 113.457046,90.4216184 114.159151,91.6472763 C115.065533,93.2285263 115.967375,94.8128026 116.869217,96.3955658 C116.539349,96.4515526 116.135336,96.1458947 115.882638,96.5953026 C115.067046,95.2001711 114.245401,93.8080658 113.438888,92.4099079 C112.10277,90.09175 110.777243,87.7690526 109.448691,85.4493816" id="Fill-19" fill="#FFFFFF"></path>
            <path d="M93.3654868,97.1866447 C93.5652237,96.8794737 93.5213421,96.6055921 93.3170658,96.3029605 C93.0386447,95.8898684 92.7814079,95.4540789 92.5756184,95.0031579 C92.4863421,94.8064474 92.4591053,94.4901974 92.5574605,94.3146711 C93.2565395,93.0557237 93.9934474,91.8164474 94.7197632,90.5726316 C94.89075,90.5998684 95.0783816,90.5953289 95.2266711,90.6664474 C95.3673947,90.7345395 95.46575,90.8858553 95.5822632,91.0008553 C95.0314737,91.9707895 94.5215395,92.9679605 93.91325,93.9015789 C93.5546316,94.4553947 93.5561447,94.8911842 93.9404868,95.4011184 C94.1311447,95.6553289 94.1886447,95.7007237 94.3641711,95.3905263 C95.0299605,94.2163158 95.7229868,93.05875 96.4054211,91.8966447 C96.7579868,91.9284211 97.1120658,91.9617105 97.4661447,91.9934868 C97.2300921,92.3975 96.9910132,92.8015132 96.7579868,93.2055263 C95.9560132,94.5961184 95.1555526,95.9897368 94.3535789,97.3818421 L93.3654868,97.1866447 Z" id="Fill-21" fill="#FFFFFF"></path>
            <path d="M93.3654868,97.1866447 L94.3535789,97.3818421 C94.0267368,97.9689474 93.7059474,98.5590789 93.3685132,99.1416447 C92.3789079,100.85 91.3802237,102.553816 90.3875921,104.259145 C90.0350263,104.316645 89.6824605,104.374145 89.3298947,104.430132 C89.3541053,104.289408 89.3404868,104.125987 89.4085789,104.009474 C90.722,101.732171 92.0445,99.4609211 93.3654868,97.1866447" id="Fill-23" fill="#FFFFFF"></path>
            <path d="M95.5821118,91.0011579 C95.4655987,90.8861579 95.3672434,90.7348421 95.2280329,90.66675 C95.0782303,90.5941184 94.8905987,90.6001711 94.7196118,90.5729342 C96.0602697,88.2456974 97.4024408,85.9184605 98.7446118,83.5897105 C99.0775066,83.6562895 99.4088882,83.7213553 99.7402697,83.7864211 C99.349875,84.4764211 98.9640197,85.1679342 98.5690855,85.8533947 C97.5749408,87.5693158 96.5777697,89.2852368 95.5821118,91.0011579" id="Fill-25" fill="#FFFFFF"></path>
            <path d="M111.224836,106.970572 C111.353454,106.947875 111.482072,106.90702 111.612204,106.90702 C114.343454,106.90702 117.073191,106.911559 119.804441,106.914586 C119.675822,106.93577 119.547204,106.975112 119.418586,106.975112 C116.685822,106.976625 113.956086,106.972086 111.224836,106.970572" id="Fill-27" fill="#FFFFFF"></path>
            <path d="M108.559105,86.2459079 C109.595618,88.0238684 110.632132,89.8003158 111.664105,91.5782763 C112.665816,93.3078158 113.6645,95.0403816 114.660158,96.7729474 C114.755487,96.9363684 114.829632,97.1134079 114.911342,97.2828816 C114.578447,97.3055789 114.177461,96.9968947 113.939895,97.4826184 C113.255947,96.3159737 112.568974,95.1553816 111.892592,93.9857105 C110.524697,91.6221579 109.161342,89.2540658 107.797987,86.889 C107.723842,86.7618947 107.664829,86.6272237 107.59825,86.4970921 C107.805553,85.9780789 108.202,86.1853816 108.559105,86.2459079" id="Fill-29" fill="#FFFFFF"></path>
            <path d="M97.2903158,98.8727566 C98.6370263,96.5470329 99.9807105,94.2228224 101.327421,91.8970987 C101.657289,91.9636776 101.985645,92.0317697 102.314,92.0968355 C101.334987,93.8142697 100.355974,95.5332171 99.3724211,97.2491382 C99.0380132,97.8332171 98.6869605,98.4051908 98.3419605,98.9832171 C97.9924211,98.9469013 97.6413684,98.9090724 97.2903158,98.8727566" id="Fill-31" fill="#FFFFFF"></path>
            <path d="M108.828145,91.0129605 C110.179395,93.3371711 111.529132,95.6628947 112.881895,97.9886184 C112.545974,98.0203947 112.163145,97.8721053 111.922553,98.2488816 C111.350579,97.2728947 110.774066,96.2984211 110.205118,95.3209211 C109.444,94.0135526 108.687421,92.7031579 107.930842,91.3927632 C107.896039,91.3322368 107.877882,91.2596053 107.852158,91.1915132 C108.177487,91.1309868 108.502816,91.0719737 108.828145,91.0129605" id="Fill-33" fill="#FFFFFF"></path>
            <path d="M91.6824013,104.338737 L96.2173355,96.4884737 C96.5699013,96.5172237 96.9224671,96.5474868 97.2750329,96.5762368 C96.2415461,98.3859737 95.2110855,100.198737 94.1730592,102.003934 C93.720625,102.793803 93.2530592,103.573079 92.7915461,104.358408 C92.4223355,104.350842 92.053125,104.344789 91.6824013,104.338737" id="Fill-35" fill="#FFFFFF"></path>
            <path d="M94.3496447,105.893355 C94.5236579,105.913026 94.6976711,105.947829 94.8716842,105.947829 C102.894447,105.950855 110.917211,105.950855 118.941487,105.949342 C119.101882,105.949342 119.263789,105.929671 119.424184,105.922105 C119.239579,105.955395 119.056487,106.020461 118.871882,106.020461 C110.893,106.025 102.912605,106.026513 94.9337237,106.018947 C94.7385263,106.018947 94.5448421,105.935724 94.3496447,105.893355" id="Fill-37" fill="#FFFFFF"></path>
            <path d="M110.064849,107.038513 C109.845441,107.017329 109.629059,106.981013 109.409651,106.981013 C104.18623,106.977987 98.9628092,106.9795 93.737875,106.9795 C93.910375,106.953776 94.082875,106.906868 94.2568882,106.906868 C99.3471513,106.902329 104.435901,106.902329 109.527678,106.909895 C109.70623,106.909895 109.886296,106.993118 110.064849,107.038513" id="Fill-39" fill="#FFFFFF"></path>
            <path d="M100.337211,89.329875 C101.251158,87.7395461 102.145434,86.138625 103.088132,84.5649408 C103.395303,84.0504671 103.588987,83.5934934 103.168329,83.0699408 C103.520895,83.0411908 103.871947,83.0094145 104.223,82.9791513 C104.932671,84.1927039 105.642342,85.4062566 106.348987,86.6228355 C106.444316,86.7862566 106.526026,86.9587566 106.612276,87.1282303 C106.249118,87.0465197 105.872342,86.9133618 105.654447,87.3824408 C105.486487,87.2992171 105.466816,86.7332961 105.126355,87.2235592 C104.796487,87.1600066 104.466618,87.0949408 104.135237,87.0313882 C104.207868,86.8891513 104.253263,86.7211908 104.357671,86.6061908 C104.819184,86.0947434 104.689053,85.6286908 104.324382,85.1278355 C104.123132,84.8524408 104.045961,84.8221776 103.868921,85.1414539 C103.135039,86.4609276 102.379974,87.7698092 101.629447,89.0802039 C101.565895,89.1921776 101.479645,89.2935592 101.403987,89.3994803 C101.072605,89.0045461 100.700368,89.2360592 100.337211,89.329875" id="Fill-41" fill="#FFFFFF"></path>
            <path d="M96.4051184,91.8966447 C97.7291316,89.6011842 99.0531447,87.3072368 100.377158,85.0102632 C100.73275,84.9951316 101.108013,84.7863158 101.430316,85.1176974 C100.195579,87.2739474 98.9608421,89.4317105 97.7261053,91.5879605 C97.6459079,91.7271711 97.5536053,91.8603289 97.4658421,91.9934868 C97.1117632,91.9617105 96.7576842,91.9284211 96.4051184,91.8966447" id="Fill-43" fill="#FFFFFF"></path>
            <path d="M104.134934,87.0319934 C104.466316,87.0955461 104.796184,87.1606118 105.126053,87.2241645 C104.189408,88.8477829 103.25125,90.4729145 102.314605,92.0980461 C101.984737,92.0314671 101.656382,91.963375 101.328026,91.8967961 C102.263158,90.2762039 103.199803,88.6525855 104.134934,87.0319934" id="Fill-45" fill="#FFFFFF"></path>
            <path d="M105.653993,87.3822895 C105.873401,86.9132105 106.250178,87.0463684 106.613336,87.1280789 C107.351757,88.4218289 108.088664,89.7170921 108.828599,91.0123553 C108.50327,91.0713684 108.177941,91.1318947 107.852612,91.1924211 C107.120243,89.9213684 106.386362,88.6518289 105.653993,87.3822895" id="Fill-47" fill="#FFFFFF"></path>
            <path d="M100.337211,89.329875 C100.700368,89.2360592 101.072605,89.0045461 101.403987,89.3994803 C100.086026,91.7085592 98.7695789,94.0176382 97.4516184,96.3252039 C97.4001711,96.4144803 97.3351053,96.4931645 97.2760921,96.5763882 C96.9220132,96.5476382 96.5709605,96.517375 96.2168816,96.4871118 C97.0536579,95.0254013 97.8874079,93.5606645 98.7272105,92.0989539 C99.2583289,91.1744145 99.8000395,90.2529013 100.337211,89.329875" id="Fill-49" fill="#FFFFFF"></path>
        </g>
    </g>
</svg>