<?xml version="1.0" encoding="UTF-8"?>
<svg width="212px" height="212px" viewBox="0 0 212 212" version="1.1" xmlns="http://www.w3.org/2000/svg" xmlns:xlink="http://www.w3.org/1999/xlink">
    <!-- Generator: Sketch 51.2 (57519) - http://www.bohemiancoding.com/sketch -->
    <title>Logos</title>
    <desc>Created with Sketch.</desc>
    <defs></defs>
    <g id="Logos" stroke="none" stroke-width="1" fill="none" fill-rule="evenodd">
        <g id="arrivo" transform="translate(49.000000, 79.000000)" fill="#404041">
            <path d="M104.000704,40.8708487 C102.676691,40.8708487 101.351164,40.8466382 100.025638,40.8769013 C98.3414934,40.9147303 97.5985329,41.6319671 97.5410329,43.3130855 C97.4926118,44.7399934 97.5137961,46.1669013 97.5259013,47.5938092 C97.5289276,47.9993355 97.5697829,48.4094013 97.6499803,48.8058487 C97.8512303,49.7999934 98.3596513,50.2675592 99.3749803,50.4340066 C99.6352434,50.4778882 99.9000461,50.5232829 100.163336,50.5247961 C102.691822,50.5323618 105.220309,50.5535461 107.747283,50.5202566 C109.628138,50.4945329 110.339322,49.7818355 110.387743,47.9145987 C110.424059,46.4074934 110.424059,44.8973618 110.383204,43.3902566 C110.334783,41.6228882 109.606954,40.9117039 107.854717,40.8753882 C106.570046,40.8466382 105.286888,40.8693355 104.000704,40.8708487 M104.011296,37.7613092 C105.783204,37.7613092 107.57327,37.5994013 109.323993,37.7991382 C112.388138,38.1456513 113.669783,39.4863092 113.861954,42.5595329 C114.002678,44.8111118 113.957283,47.0884145 113.792349,49.3399934 C113.603204,51.9184145 112.091559,53.3332171 109.491954,53.5889408 C108.319257,53.7039408 107.131428,53.7160461 105.949651,53.7160461 C103.60577,53.7175592 101.252809,53.8098618 98.9210329,53.6207171 C95.6208355,53.3544013 94.3134671,52.0606513 94.0743882,48.7755855 C93.9094539,46.508875 93.9699803,44.2058487 94.1455066,41.9361118 C94.3301118,39.5649934 95.8175461,38.1002566 98.2098487,37.8430197 C100.128533,37.6372303 102.074454,37.6629539 104.00827,37.5842697 C104.00827,37.6432829 104.009783,37.7022961 104.011296,37.7613092" id="Fill-1"></path>
            <path d="M31.947,45.8550395 L31.947,45.7990526 C33.5161447,45.7990526 35.0868026,45.8474737 36.6529211,45.7808947 C37.6576579,45.7385263 38.1312763,45.1589868 38.1918026,44.1466842 C38.2175263,43.7411579 38.2084474,43.3326053 38.2069342,42.9240526 C38.1963421,41.4093816 37.6637105,40.8253026 36.1596316,40.8101711 C33.4071974,40.7829342 30.6547632,40.8071447 27.9008158,40.7950395 C27.4574605,40.7935263 27.2864737,40.9372763 27.2955526,41.3972763 C27.3167368,42.7016184 27.31825,44.0074737 27.2940395,45.3133289 C27.2849605,45.7445789 27.4256842,45.8716842 27.8493684,45.8641184 C29.2142368,45.8414211 30.5821316,45.8550395 31.947,45.8550395 M23.7865395,45.7355 C23.7865395,43.3916184 23.7850263,41.0462237 23.7880526,38.7008289 C23.7895658,37.7838553 23.9030526,37.6673421 24.7943026,37.6673421 C28.7905526,37.6658289 32.7883158,37.6612895 36.7830526,37.6733947 C37.3504868,37.6749079 37.9239737,37.7203026 38.4838421,37.8171447 C40.2421316,38.1197763 41.3800263,39.1835263 41.5797632,40.9614868 C41.7310789,42.3036579 41.7204868,43.6866842 41.5948947,45.0364211 C41.4435789,46.6751711 40.4781842,47.7631316 38.8485132,48.1565526 C38.3567368,48.2760921 38.4127237,48.4077368 38.6714737,48.7239868 C39.79575,50.0964211 40.9109474,51.4764211 42.0079868,52.8670132 C42.1547632,53.0531316 42.1925921,53.3224737 42.2818684,53.5524737 C42.0579211,53.6099737 41.8324605,53.7098421 41.607,53.7158947 C40.7929211,53.7355658 39.9758158,53.7037895 39.1617368,53.7310263 C38.7274605,53.7461579 38.4414737,53.5933289 38.18575,53.2468158 C37.1673947,51.8713553 36.1172632,50.5185921 35.0989079,49.1416184 C34.8462105,48.7996447 34.5798947,48.6437895 34.1395658,48.6498421 C32.0604868,48.6725395 29.9798947,48.6740526 27.9008158,48.6498421 C27.4120658,48.6437895 27.2804211,48.7996447 27.2925263,49.2747763 C27.3212763,50.5170789 27.2879868,51.7608947 27.3091711,53.0062237 C27.3167368,53.5237237 27.1306184,53.7537237 26.5949605,53.7310263 C25.9427895,53.7037895 25.2906184,53.7249737 24.6384474,53.7234605 C23.8652237,53.7204342 23.7895658,53.6523421 23.7880526,52.8912237 C23.7850263,50.5064868 23.7865395,48.1202368 23.7865395,45.7355" id="Fill-3"></path>
            <path d="M52.8651974,45.8550395 L52.8651974,45.7854342 C54.4328289,45.7854342 56.0034868,45.8308289 57.5696053,45.7672763 C58.4351316,45.7339868 58.8905921,45.2134605 58.9874342,44.3570132 C59.0434211,43.8531316 59.0525,43.3386579 59.0373684,42.8302368 C58.9980263,41.39425 58.4608553,40.8268158 57.01125,40.8116842 C54.2391447,40.7799079 51.4655263,40.8071447 48.6919079,40.7965526 C48.2757895,40.7935263 48.1093421,40.9448421 48.1138816,41.3685263 C48.1305263,42.6940526 48.1335526,44.0195789 48.1108553,45.3435921 C48.1048026,45.7551711 48.2530921,45.8671447 48.6434868,45.8626053 C50.0507237,45.8444474 51.4579605,45.8550395 52.8651974,45.8550395 Z M44.6184868,45.7128026 C44.6184868,43.3689211 44.6169737,41.0250395 44.62,38.6811579 C44.6215132,37.7596447 44.7183553,37.6673421 45.6444079,37.6673421 C49.6179605,37.6658289 53.5930263,37.6628026 57.5680921,37.6703684 C58.0568421,37.6718816 58.5516447,37.6824737 59.0282895,37.7641842 C61.1648684,38.1349079 62.2376974,39.1472105 62.4661842,41.2837895 C62.6038816,42.5669474 62.5448684,43.8939868 62.3950658,45.1801711 C62.2119737,46.74175 61.2556579,47.7616184 59.7061842,48.1474737 C59.2567763,48.2594474 59.1947368,48.3638553 59.5034211,48.7376053 C60.6201316,50.0888553 61.7156579,51.45675 62.8036184,52.8306974 C62.9549342,53.0228684 63.0184868,53.2846447 63.1228947,53.5146447 C62.8868421,53.5827368 62.6523026,53.7053026 62.4132237,53.7143816 C61.64,53.7401053 60.8622368,53.7007632 60.0890132,53.7325395 C59.5926974,53.7537237 59.2598026,53.5948421 58.9586842,53.1862895 C57.9463816,51.8062895 56.8886842,50.4580658 55.8688158,49.0841184 C55.6388158,48.7739211 55.3951974,48.6483289 55.0048026,48.6513553 C52.9045395,48.668 50.8057895,48.6695132 48.7055263,48.6513553 C48.2621711,48.6468158 48.09875,48.7618158 48.1078289,49.2308947 C48.1396053,50.4943816 48.1048026,51.7593816 48.1259868,53.0228684 C48.1350658,53.5585263 47.9217105,53.75675 47.3996711,53.7295132 C46.8292105,53.7037895 46.2572368,53.7234605 45.6867763,53.7234605 C44.62,53.7234605 44.6184868,53.7234605 44.6184868,52.6249079 L44.6184868,45.7128026 Z" id="Fill-5"></path>
            <path d="M59.1705263,24.8230526 C63.1274342,24.8230526 67.0828289,24.817 71.0397368,24.8336447 C71.4603947,24.8351579 71.7100658,24.7231842 71.90375,24.3403553 C72.2230263,23.7108816 72.24875,23.7214737 71.5148684,23.7214737 C63.6464474,23.7214737 55.7780263,23.7275263 47.9096053,23.7093684 C47.3769737,23.7078553 47.0713158,23.8606842 46.8488816,24.3373289 C46.6158553,24.8366711 46.5840789,24.8230526 47.1257895,24.8230526 C51.1401974,24.8245658 55.1561184,24.8230526 59.1705263,24.8230526 M70.3285526,17.3995 C71.38625,19.2168026 72.4515132,21.0295658 73.4895395,22.8589737 C73.5863816,23.0299605 73.5984868,23.3446974 73.5076974,23.5156842 C73.0401316,24.3812105 72.5241447,25.2210132 72.0248026,26.0698947 C71.7040132,25.7551579 71.3393421,25.8625921 70.9761842,25.9639737 C70.8263816,25.9261447 70.6765789,25.8535132 70.5267763,25.8535132 C62.4813158,25.8489737 54.4373684,25.8489737 46.3934211,25.8535132 C46.2254605,25.8535132 46.0590132,25.9261447 45.8925658,25.967 C45.5384868,25.9352237 45.1874342,25.9064737 44.8333553,25.8762105 C45.9863816,23.8758158 47.1394079,21.8739079 48.2909211,19.8735132 C48.6419737,19.9098289 48.9915132,19.9461447 49.3425658,19.9839737 C48.9173684,20.7390395 48.4906579,21.4956184 48.0639474,22.2491711 C47.8142763,22.6925263 47.8157895,22.7016053 48.2969737,22.7016053 C53.6656579,22.7031184 59.0343421,22.7031184 64.4030263,22.7016053 C64.8675658,22.7016053 64.8736184,22.6864737 64.6421053,22.2779211 C64.0686184,21.2671316 63.4951316,20.2578553 62.9216447,19.2485789 C63.16375,18.8718026 63.5465789,19.0200921 63.8809868,18.9898289 C64.5316447,20.1035132 65.1838158,21.2156842 65.8344737,22.3308816 C66.0115132,22.632 67.0192763,22.9149605 67.1569737,22.66075 C67.2401974,22.5079211 67.0117105,22.1614079 66.8876316,21.9208158 C66.6924342,21.5425263 66.4639474,21.1823947 66.2551316,20.8131842 C65.8148026,20.0354211 65.3775,19.2576579 64.9401974,18.4829211 C65.1777632,17.9971974 65.5772368,18.3043684 65.9116447,18.2831842 C66.6409868,19.5209474 67.3990789,20.7420658 68.0830263,22.0055526 C68.3720395,22.5396974 68.6928289,22.7908816 69.3101974,22.7121974 C69.7853289,22.6531842 69.7944079,22.6970658 69.5417105,22.2567368 C69.0302632,21.3654868 68.5127632,20.4772632 68.0028289,19.5845 C67.6260526,18.9247632 67.2568421,18.2589737 66.8830921,17.5962105 C67.1357895,17.1468026 67.5382895,17.4509474 67.8696711,17.3964737 C68.7790789,18.9550263 69.7066447,20.5029868 70.5842763,22.0766711 C70.8445395,22.5427237 71.1214474,22.7696974 71.6767763,22.7137105 C72.2457237,22.6562105 72.2502632,22.7000921 71.9642763,22.2022632 C71.09875,20.6875921 70.2347368,19.1714079 69.3676974,17.6567368 C69.5810526,17.1710132 69.9865789,17.4040395 70.3285526,17.3995" id="Fill-7"></path>
            <path d="M19.794375,53.7237632 C17.6124013,53.6768553 18.2494408,54.0854079 17.1796382,52.1485658 C15.2216118,48.6032368 13.3059539,45.0336974 11.3600329,41.4792895 C11.2435197,41.2659342 11.0241118,41.1070526 10.853125,40.9239605 C10.6670066,41.1161316 10.4264145,41.2765263 10.3038487,41.5035 C8.22174342,45.3544868 6.14569079,49.2085 4.09233553,53.0731053 C3.838125,53.5512632 3.54457237,53.7646184 2.99680921,53.7343553 C2.26595395,53.6919868 1.53055921,53.7252763 0.796677632,53.7237632 C-0.112730263,53.7237632 -0.168717105,53.6344868 0.256480263,52.8536974 C1.65917763,50.2798158 3.06490132,47.7059342 4.46911184,45.1320526 C5.47233553,43.2920526 6.51490132,41.4702105 7.46819079,39.6029737 C8.17332237,38.2214605 9.15082237,37.4391579 10.766875,37.6525132 C11.0679934,37.6918553 11.3781908,37.6706711 11.6838487,37.6782368 C12.4222697,37.7009342 13.0245066,38.0050789 13.4648355,38.5952105 C13.7084539,38.9205395 13.9324013,39.2625132 14.1291118,39.6181053 C16.5577303,44.0213947 18.9802961,48.4277105 21.4028618,52.8340263 C21.8401645,53.6254079 21.7811513,53.72225 20.8959539,53.7237632 C20.5282566,53.7252763 20.1620724,53.7237632 19.794375,53.7237632" id="Fill-9"></path>
            <path d="M72.9765789,37.6656776 C74.3792763,37.257125 74.9890789,38.0364013 75.58375,39.1758092 C77.4661184,42.7892303 79.4528947,46.3466645 81.4124342,49.9192303 C81.5259211,50.1250197 81.7574342,50.2687697 81.9329605,50.4397566 C82.1054605,50.2627171 82.3324342,50.1144276 82.4459211,49.9040987 C84.5083553,46.0864013 86.5707895,42.2702171 88.5953947,38.4328487 C88.9086184,37.8396908 89.2702632,37.602125 89.93,37.6535724 C90.6608553,37.7095592 91.3977632,37.6626513 92.1316447,37.6671908 C92.8322368,37.6732434 92.9033553,37.7867303 92.5674342,38.407125 C91.2857895,40.7721908 89.9950658,43.1312039 88.7073684,45.4917303 C87.5482895,47.6207434 86.3559211,49.7331118 85.2392105,51.8833092 C84.5658553,53.1785724 83.6428289,53.9109408 82.1266447,53.7278487 C81.8451974,53.6960724 81.5561842,53.7233092 81.2701974,53.7217961 C80.3441447,53.7142303 79.6178289,53.3419934 79.1230263,52.5460724 C78.9823026,52.322125 78.8385526,52.0981776 78.7099342,51.8681776 C76.2586184,47.4270592 73.8073026,42.9859408 71.3590132,38.5433092 C70.9201974,37.7489013 70.9686184,37.6687039 71.875,37.6656776 L72.9765789,37.6656776 Z" id="Fill-11"></path>
            <path d="M61.0648487,28.0385132 C60.8862961,27.9931184 60.7062303,27.9098947 60.5276776,27.9098947 C55.4359013,27.9023289 50.3471513,27.9023289 45.2568882,27.9068684 C45.082875,27.9068684 44.910375,27.9537763 44.737875,27.9795 C44.5910987,28.2488421 44.4473487,28.5181842 44.2945197,28.7860132 C44.1734671,29.0008816 44.2566908,29.0795658 44.4760987,29.0795658 C44.622875,29.0795658 44.7696513,29.0825921 44.9164276,29.0825921 C49.7479408,29.0825921 54.5824803,29.0659474 59.4139934,29.10075 C60.1463618,29.1068026 60.6623487,28.9796974 60.9089934,28.2473289 C60.9362303,28.1686447 61.0118882,28.1066053 61.0648487,28.0385132 M70.9760329,25.9639737 C71.3391908,25.8625921 71.7038618,25.7551579 72.0246513,26.0698947 C71.7613618,26.5253553 71.5071513,26.9898947 71.2287303,27.4362763 C71.1167566,27.6133158 70.9472829,27.7555526 70.8050461,27.9144342 C68.0737961,27.9114079 65.3425461,27.9068684 62.6112961,27.9068684 C62.4826776,27.9068684 62.3540592,27.9477237 62.2254408,27.9704211 C61.9243224,28.4894342 61.6005066,28.9963421 61.3357039,29.5335132 C61.1223487,29.9662763 60.8166908,30.1009474 60.3521513,30.0994342 C56.2076118,30.0873289 52.0645855,30.0933816 47.9200461,30.0933816 C46.4659013,30.0933816 45.0117566,30.0827895 43.5576118,30.0994342 C43.1203092,30.1054868 42.8570197,29.9481184 42.6421513,29.5668026 C41.9309671,28.3002895 41.1880066,27.0519342 40.4632039,25.7945 C40.3996513,25.6825263 40.3724145,25.5508816 40.3300461,25.4298289 C40.6826118,25.3738421 41.0351776,25.3163421 41.3877434,25.2588421 C41.5541908,25.5947632 41.719125,25.9306842 41.9007039,26.2590395 C41.9143224,26.2847632 42.0913618,26.2696316 42.121625,26.2242368 C42.3198487,25.9367368 42.4968882,25.6356184 42.6830066,25.3390395 C43.0537303,25.3450921 43.4229408,25.3511447 43.7921513,25.3587105 C43.5334013,25.7990395 43.3139934,26.2696316 43.0068224,26.6751579 C42.6058355,27.2062763 42.6073487,27.6617368 43.0053092,28.1973947 C43.2368224,28.5075921 43.3049145,28.5091053 43.4849803,28.1883158 C43.9207697,27.4105526 44.3837961,26.6464079 44.8332039,25.8762105 C45.1872829,25.9064737 45.5383355,25.9352237 45.8924145,25.967 C45.7123487,26.2756842 45.5292566,26.5843684 45.3491908,26.8930526 C45.5443882,26.9354211 45.7380724,27.0186447 45.9332697,27.0186447 C53.9121513,27.0262105 61.8925461,27.0246974 69.8714276,27.0201579 C70.0560329,27.0201579 70.239125,26.9550921 70.4252434,26.9218026 C70.6083355,26.6025263 70.7929408,26.28325 70.9760329,25.9639737" id="Fill-13"></path>
            <path d="M49.7443092,4.58895395 C50.5538487,3.17263816 51.3527961,1.75026974 52.1880592,0.349085526 C52.2924671,0.175072368 52.5875329,0.0237565789 52.7963487,0.0192171053 C54.3382566,-0.00650657895 55.8847039,-0.00650657895 57.4266118,0.0192171053 C57.6369408,0.0237565789 57.9365461,0.169019737 58.0379276,0.341519737 C59.1788487,2.279875 60.2895066,4.23638816 61.4062171,6.18684868 C61.0657566,6.19744079 60.6995724,6.11573026 60.4483882,6.448625 C59.5238487,4.86283553 58.5660197,3.29369079 57.6899013,1.67763816 C57.3781908,1.101125 57.0029276,0.919546053 56.3976645,0.986125 C56.1071382,1.01941447 56.019375,1.08145395 56.1858224,1.35382237 C56.4430592,1.78204605 56.6897039,2.21783553 56.9378618,2.65059868 C57.8124671,4.18191447 58.6855592,5.71323026 59.5586513,7.24605921 C59.2015461,7.18553289 58.8050987,6.97823026 58.5993092,7.49724342 C58.5175987,7.37467763 58.4283224,7.25816447 58.3556908,7.13105921 C57.3040461,5.30921711 56.2266776,3.50099342 55.2204276,1.65645395 C54.9238487,1.11171711 54.5788487,0.940730263 54.0008224,0.981585526 C53.6225329,1.01033553 53.5710855,1.08750658 53.7617434,1.40980921 C54.2610855,2.26020395 54.7392434,3.12119079 55.2234539,3.97915132 C54.8724013,4.00941447 54.5198355,4.04119079 54.1687829,4.06994079 C53.8691776,3.68257237 53.8722039,3.68559868 53.6164803,4.119875 C53.2230592,4.78869079 52.8250987,5.45145395 52.4301645,6.11724342 C52.1078618,5.78586184 51.7325987,5.99619079 51.3770066,6.00980921 C51.8929934,5.10645395 52.3696382,4.177375 52.9400987,3.30730921 C53.2775329,2.79283553 53.2518092,2.39790132 52.9113487,1.92882237 C52.6404934,1.55809868 52.6510855,1.53994079 52.4135197,1.94546711 C51.8566776,2.89270395 51.2968092,3.83994079 50.7399671,4.78717763 C50.4085855,4.72211184 50.0772039,4.65553289 49.7443092,4.58895395" id="Fill-15"></path>
            <path d="M68.9543026,45.7087171 C68.9558158,48.0919408 68.9573289,50.4751645 68.9543026,52.8599013 C68.9527895,53.6649013 68.8892368,53.7224013 68.0842368,53.7239145 C67.4108816,53.7254276 66.7390395,53.7163487 66.0671974,53.7269408 C65.6283816,53.7345066 65.4468026,53.5377961 65.4468026,53.0989803 C65.4528553,48.170625 65.4543684,43.2407566 65.4452895,38.3108882 C65.4437763,37.8342434 65.6435132,37.6496382 66.1004868,37.6572039 C66.792,37.6677961 67.4865395,37.6829276 68.1780526,37.6496382 C68.7636447,37.6224013 68.9679211,37.8599671 68.9633816,38.4364803 C68.9437105,40.8605592 68.9543026,43.2846382 68.9543026,45.7087171" id="Fill-17"></path>
            <path d="M60.4486908,6.44938158 C60.699875,6.11497368 61.0660592,6.19819737 61.4065197,6.18609211 C61.6168487,6.54017105 61.8453355,6.88365789 62.0344803,7.24832895 C62.1691513,7.50707895 62.3492171,7.59786842 62.6321776,7.58878947 C63.1769145,7.57214474 63.7231645,7.55398684 64.2633618,7.60089474 C64.4767171,7.61753947 64.7672434,7.75221053 64.868625,7.92622368 C66.6934934,11.0478684 68.4956645,14.1831316 70.302375,17.3168816 C70.3159934,17.3410921 70.3190197,17.3713553 70.3280987,17.3985921 C69.9876382,17.4031316 69.5805987,17.1716184 69.3687566,17.6558289 C69.3036908,17.5589868 69.2325724,17.4651711 69.1735592,17.3637895 C67.6150066,14.6643158 66.0413224,11.9693816 64.5160592,9.25326316 C64.2119145,8.71457895 63.8835592,8.49517105 63.2707303,8.55569737 C62.884875,8.59352632 62.8515855,8.66615789 63.0377039,8.98089474 C63.7534276,10.1989868 64.4570461,11.4216184 65.1591513,12.6472763 C66.0655329,14.2285263 66.967375,15.8128026 67.8692171,17.3955658 C67.5393487,17.4515526 67.1353355,17.1458947 66.8826382,17.5953026 C66.0670461,16.2001711 65.2454013,14.8080658 64.4388882,13.4099079 C63.1027697,11.09175 61.7772434,8.76905263 60.4486908,6.44938158" id="Fill-19"></path>
            <path d="M44.3654868,18.1866447 C44.5652237,17.8794737 44.5213421,17.6055921 44.3170658,17.3029605 C44.0386447,16.8898684 43.7814079,16.4540789 43.5756184,16.0031579 C43.4863421,15.8064474 43.4591053,15.4901974 43.5574605,15.3146711 C44.2565395,14.0557237 44.9934474,12.8164474 45.7197632,11.5726316 C45.89075,11.5998684 46.0783816,11.5953289 46.2266711,11.6664474 C46.3673947,11.7345395 46.46575,11.8858553 46.5822632,12.0008553 C46.0314737,12.9707895 45.5215395,13.9679605 44.91325,14.9015789 C44.5546316,15.4553947 44.5561447,15.8911842 44.9404868,16.4011184 C45.1311447,16.6553289 45.1886447,16.7007237 45.3641711,16.3905263 C46.0299605,15.2163158 46.7229868,14.05875 47.4054211,12.8966447 C47.7579868,12.9284211 48.1120658,12.9617105 48.4661447,12.9934868 C48.2300921,13.3975 47.9910132,13.8015132 47.7579868,14.2055263 C46.9560132,15.5961184 46.1555526,16.9897368 45.3535789,18.3818421 L44.3654868,18.1866447 Z" id="Fill-21"></path>
            <path d="M44.3654868,18.1866447 L45.3535789,18.3818421 C45.0267368,18.9689474 44.7059474,19.5590789 44.3685132,20.1416447 C43.3789079,21.85 42.3802237,23.5538158 41.3875921,25.2591447 C41.0350263,25.3166447 40.6824605,25.3741447 40.3298947,25.4301316 C40.3541053,25.2894079 40.3404868,25.1259868 40.4085789,25.0094737 C41.722,22.7321711 43.0445,20.4609211 44.3654868,18.1866447" id="Fill-23"></path>
            <path d="M46.5821118,12.0011579 C46.4655987,11.8861579 46.3672434,11.7348421 46.2280329,11.66675 C46.0782303,11.5941184 45.8905987,11.6001711 45.7196118,11.5729342 C47.0602697,9.24569737 48.4024408,6.91846053 49.7446118,4.58971053 C50.0775066,4.65628947 50.4088882,4.72135526 50.7402697,4.78642105 C50.349875,5.47642105 49.9640197,6.16793421 49.5690855,6.85339474 C48.5749408,8.56931579 47.5777697,10.2852368 46.5821118,12.0011579" id="Fill-25"></path>
            <path d="M62.2248355,27.9705724 C62.3534539,27.947875 62.4820724,27.9070197 62.6122039,27.9070197 C65.3434539,27.9070197 68.0731908,27.9115592 70.8044408,27.9145855 C70.6758224,27.9357697 70.5472039,27.9751118 70.4185855,27.9751118 C67.6858224,27.976625 64.9560855,27.9720855 62.2248355,27.9705724" id="Fill-27"></path>
            <path d="M59.5591053,7.24590789 C60.5956184,9.02386842 61.6321316,10.8003158 62.6641053,12.5782763 C63.6658158,14.3078158 64.6645,16.0403816 65.6601579,17.7729474 C65.7554868,17.9363684 65.8296316,18.1134079 65.9113421,18.2828816 C65.5784474,18.3055789 65.1774605,17.9968947 64.9398947,18.4826184 C64.2559474,17.3159737 63.5689737,16.1553816 62.8925921,14.9857105 C61.5246974,12.6221579 60.1613421,10.2540658 58.7979868,7.889 C58.7238421,7.76189474 58.6648289,7.62722368 58.59825,7.49709211 C58.8055526,6.97807895 59.202,7.18538158 59.5591053,7.24590789" id="Fill-29"></path>
            <path d="M48.2903158,19.8727566 C49.6370263,17.5470329 50.9807105,15.2228224 52.3274211,12.8970987 C52.6572895,12.9636776 52.9856447,13.0317697 53.314,13.0968355 C52.3349868,14.8142697 51.3559737,16.5332171 50.3724211,18.2491382 C50.0380132,18.8332171 49.6869605,19.4051908 49.3419605,19.9832171 C48.9924211,19.9469013 48.6413684,19.9090724 48.2903158,19.8727566" id="Fill-31"></path>
            <path d="M59.8281447,12.0129605 C61.1793947,14.3371711 62.5291316,16.6628947 63.8818947,18.9886184 C63.5459737,19.0203947 63.1631447,18.8721053 62.9225526,19.2488816 C62.3505789,18.2728947 61.7740658,17.2984211 61.2051184,16.3209211 C60.444,15.0135526 59.6874211,13.7031579 58.9308421,12.3927632 C58.8960395,12.3322368 58.8778816,12.2596053 58.8521579,12.1915132 C59.1774868,12.1309868 59.5028158,12.0719737 59.8281447,12.0129605" id="Fill-33"></path>
            <path d="M42.6824013,25.3387368 L47.2173355,17.4884737 C47.5699013,17.5172237 47.9224671,17.5474868 48.2750329,17.5762368 C47.2415461,19.3859737 46.2110855,21.1987368 45.1730592,23.0039342 C44.720625,23.7938026 44.2530592,24.5730789 43.7915461,25.3584079 C43.4223355,25.3508421 43.053125,25.3447895 42.6824013,25.3387368" id="Fill-35"></path>
            <path d="M45.3496447,26.8933553 C45.5236579,26.9130263 45.6976711,26.9478289 45.8716842,26.9478289 C53.8944474,26.9508553 61.9172105,26.9508553 69.9414868,26.9493421 C70.1018816,26.9493421 70.2637895,26.9296711 70.4241842,26.9221053 C70.2395789,26.9553947 70.0564868,27.0204605 69.8718816,27.0204605 C61.893,27.025 53.9126053,27.0265132 45.9337237,27.0189474 C45.7385263,27.0189474 45.5448421,26.9357237 45.3496447,26.8933553" id="Fill-37"></path>
            <path d="M61.0648487,28.0385132 C60.8454408,28.0173289 60.6290592,27.9810132 60.4096513,27.9810132 C55.1862303,27.9779868 49.9628092,27.9795 44.737875,27.9795 C44.910375,27.9537763 45.082875,27.9068684 45.2568882,27.9068684 C50.3471513,27.9023289 55.4359013,27.9023289 60.5276776,27.9098947 C60.7062303,27.9098947 60.8862961,27.9931184 61.0648487,28.0385132" id="Fill-39"></path>
            <path d="M51.3372105,10.329875 C52.2511579,8.73954605 53.1454342,7.138625 54.0881316,5.56494079 C54.3953026,5.05046711 54.5889868,4.59349342 54.1683289,4.06994079 C54.5208947,4.04119079 54.8719474,4.00941447 55.223,3.97915132 C55.9326711,5.19270395 56.6423421,6.40625658 57.3489868,7.62283553 C57.4443158,7.78625658 57.5260263,7.95875658 57.6122763,8.12823026 C57.2491184,8.04651974 56.8723421,7.91336184 56.6544474,8.38244079 C56.4864868,8.29921711 56.4668158,7.73329605 56.1263553,8.22355921 C55.7964868,8.16000658 55.4666184,8.09494079 55.1352368,8.03138816 C55.2078684,7.88915132 55.2532632,7.72119079 55.3576711,7.60619079 C55.8191842,7.09474342 55.6890526,6.62869079 55.3243816,6.12783553 C55.1231316,5.85244079 55.0459605,5.82217763 54.8689211,6.14145395 C54.1350395,7.46092763 53.3799737,8.76980921 52.6294474,10.0802039 C52.5658947,10.1921776 52.4796447,10.2935592 52.4039868,10.3994803 C52.0726053,10.0045461 51.7003684,10.2360592 51.3372105,10.329875" id="Fill-41"></path>
            <path d="M47.4051184,12.8966447 C48.7291316,10.6011842 50.0531447,8.30723684 51.3771579,6.01026316 C51.73275,5.99513158 52.1080132,5.78631579 52.4303158,6.11769737 C51.1955789,8.27394737 49.9608421,10.4317105 48.7261053,12.5879605 C48.6459079,12.7271711 48.5536053,12.8603289 48.4658421,12.9934868 C48.1117632,12.9617105 47.7576842,12.9284211 47.4051184,12.8966447" id="Fill-43"></path>
            <path d="M55.1349342,8.03199342 C55.4663158,8.09554605 55.7961842,8.16061184 56.1260526,8.22416447 C55.1894079,9.84778289 54.25125,11.4729145 53.3146053,13.0980461 C52.9847368,13.0314671 52.6563816,12.963375 52.3280263,12.8967961 C53.2631579,11.2762039 54.1998026,9.65258553 55.1349342,8.03199342" id="Fill-45"></path>
            <path d="M56.6539934,8.38228947 C56.8734013,7.91321053 57.2501776,8.04636842 57.6133355,8.12807895 C58.3517566,9.42182895 59.0886645,10.7170921 59.8285987,12.0123553 C59.5032697,12.0713684 59.1779408,12.1318947 58.8526118,12.1924211 C58.1202434,10.9213684 57.3863618,9.65182895 56.6539934,8.38228947" id="Fill-47"></path>
            <path d="M51.3372105,10.329875 C51.7003684,10.2360592 52.0726053,10.0045461 52.4039868,10.3994803 C51.0860263,12.7085592 49.7695789,15.0176382 48.4516184,17.3252039 C48.4001711,17.4144803 48.3351053,17.4931645 48.2760921,17.5763882 C47.9220132,17.5476382 47.5709605,17.517375 47.2168816,17.4871118 C48.0536579,16.0254013 48.8874079,14.5606645 49.7272105,13.0989539 C50.2583289,12.1744145 50.8000395,11.2529013 51.3372105,10.329875" id="Fill-49"></path>
        </g>
    </g>
</svg>