<?xml version="1.0" encoding="UTF-8"?>
<svg width="212px" height="212px" viewBox="0 0 212 212" version="1.1" xmlns="http://www.w3.org/2000/svg" xmlns:xlink="http://www.w3.org/1999/xlink">
    <!-- Generator: Sketch 51.2 (57519) - http://www.bohemiancoding.com/sketch -->
    <title>Logos</title>
    <desc>Created with Sketch.</desc>
    <defs>
        <polygon id="path-1" points="0.426281905 0.4508 20.4405295 0.4508 20.4405295 11.7656794 0.426281905 11.7656794"></polygon>
        <polygon id="path-3" points="0 1.27464815 19.884121 1.27464815 19.884121 12.5994947 0 12.5994947"></polygon>
    </defs>
    <g id="Logos" stroke="none" stroke-width="1" fill="none" fill-rule="evenodd">
        <g id="auditboard" transform="translate(32.000000, 96.000000)">
            <g id="Group-3" transform="translate(7.095238, 0.949620)">
                <mask id="mask-2" fill="white">
                    <use xlink:href="#path-1"></use>
                </mask>
                <g id="Clip-2"></g>
                <path d="M0.426281905,2.79328 C1.96452952,1.40168 3.80219619,0.65688 5.85697714,0.48888 C9.16761524,0.22008 11.9163105,1.35968 14.1853676,3.75788 C16.0499962,5.72908 17.9983486,7.62188 19.916901,9.54268 C20.065901,9.69248 20.2702438,9.78768 20.4405295,9.90108 C19.2683962,11.35988 17.9032724,11.96468 16.1819676,11.70848 C15.0566629,11.33048 14.2293581,10.58008 13.4474629,9.71908 C12.6045486,8.79228 11.6509486,7.96348 10.7455962,7.09128 L10.7668819,7.09408 C10.7143771,7.05348 10.6632914,7.01428 10.6122057,6.97368 C8.85684381,4.93528 6.28269143,4.67068 4.19243429,5.77108 C4.06613905,5.60728 3.96822476,5.40988 3.81071048,5.28528 C3.24876762,4.84708 2.66837714,4.43268 2.09366286,4.00988 C1.53881524,3.60248 0.982548571,3.19788 0.426281905,2.79328" id="Fill-1" fill="#404041" mask="url(#mask-2)"></path>
            </g>
            <g id="Group-6" transform="translate(0.000000, 7.949620)">
                <mask id="mask-4" fill="white">
                    <use xlink:href="#path-3"></use>
                </mask>
                <g id="Clip-5"></g>
                <path d="M19.884121,10.28398 C18.0336829,11.91638 15.8426733,12.63458 13.390559,12.59818 C10.5127305,12.55618 8.16562571,11.37038 6.20166381,9.33898 C4.53002571,7.60998 2.81865429,5.91878 1.12714952,4.20798 C0.749682857,3.82438 0.380730476,3.42958 -0.000993333333,3.02918 C1.10444476,1.71178 2.44402571,1.04958 4.17952095,1.34358 C4.8393781,1.73698 5.58154,2.03938 6.14206381,2.54058 C7.15384476,3.43798 8.05494,4.45578 9.00854,5.41618 C9.13483524,5.54218 9.30654,5.62478 9.45695905,5.72558 L9.42148286,5.73818 C9.48534,5.78298 9.54919714,5.82918 9.61305429,5.87678 C10.0401876,6.28418 10.4190733,6.76718 10.9086448,7.08498 C12.5689305,8.16438 14.314359,8.14478 16.0824924,7.32858 C16.1747305,7.46298 16.2400067,7.63098 16.3620448,7.73038 C17.0162257,8.25958 17.6760829,8.78878 18.3572257,9.28578 C18.8482162,9.64418 19.3746829,9.95358 19.884121,10.28398" id="Fill-4" fill="#404041" mask="url(#mask-4)"></path>
            </g>
            <path d="M91.6748752,9.92936 C92.4468371,9.92936 93.1506848,9.95456 93.8516943,9.91956 C94.2802467,9.89996 94.5825038,9.60456 94.4959419,9.19296 C94.4420181,8.93396 94.1496943,8.55596 93.9297419,8.53076 C93.186161,8.44676 92.4283895,8.49996 91.6748752,8.49996 L91.6748752,9.92936 Z M91.6777133,11.83896 L91.6777133,13.46856 C92.5177895,13.46856 93.3309038,13.49376 94.142599,13.45876 C94.6350086,13.43916 94.9216562,13.14656 94.9131419,12.63276 C94.9060467,12.11756 94.6335895,11.84876 94.1213133,11.84176 C93.3252276,11.83056 92.5291419,11.83896 91.6777133,11.83896 Z M95.9504657,10.85196 C97.1155038,11.48336 97.6121705,12.41996 97.3851229,13.51756 C97.1438848,14.68376 96.1264276,15.60076 94.8010371,15.64556 C92.9321514,15.70856 91.0590086,15.66096 89.1589038,15.66096 L89.1589038,6.29356 L91.9430752,6.29356 L94.053199,6.29356 C95.3800086,6.29496 96.3960467,6.88016 96.8047324,7.87696 C97.2474752,8.95496 97.0090752,9.81316 95.9504657,10.85196 Z" id="Fill-7" fill="#404041"></path>
            <path d="M141.517504,13.2188 C142.201485,13.2188 142.847151,13.2538 143.485723,13.2104 C144.269037,13.1558 144.928894,12.8478 145.236828,12.068 C145.537666,11.3022 145.551856,10.5224 145.251018,9.751 C144.989913,9.0818 144.479056,8.6702 143.759599,8.6198 C143.024532,8.568 142.28237,8.6072 141.517504,8.6072 L141.517504,13.2188 Z M139.069647,15.5442 L139.069647,6.2314 C139.24277,6.2202 139.411637,6.1978 139.580504,6.1978 C140.891704,6.195 142.201485,6.1964 143.512685,6.1964 C145.60578,6.1978 147.179504,7.3584 147.768409,9.338 C148.411237,11.494 147.684685,13.8278 145.974732,14.8988 C145.492256,15.1998 144.909028,15.491 144.358437,15.5162 C142.608751,15.5932 140.850551,15.5442 139.069647,15.5442 Z" id="Fill-9" fill="#404041"></path>
            <path d="M60.7981019,13.20928 C61.5189781,13.20928 62.1845114,13.25548 62.8372733,13.19948 C63.8518924,13.11128 64.4280257,12.65208 64.6266924,11.73648 C64.8452257,10.72988 64.8494829,9.73448 63.95974,8.97708 C63.8164162,8.85528 63.6248448,8.73908 63.4460448,8.71948 C62.5719114,8.62848 61.693521,8.57108 60.7981019,8.49828 L60.7981019,13.20928 Z M58.3786257,6.23028 C60.0956733,6.23028 61.8027876,6.10288 63.48294,6.26108 C65.6356352,6.46548 66.968121,8.02508 67.2547686,10.34068 C67.5314829,12.58768 66.3167781,14.69048 64.348559,15.35548 C64.0902924,15.44228 63.8220924,15.54448 63.5567305,15.54728 C61.8396829,15.56408 60.1240543,15.55568 58.3786257,15.55568 L58.3786257,6.23028 Z" id="Fill-11" fill="#404041"></path>
            <path d="M105.793264,13.49502 C107.222245,13.50762 108.37735,12.38902 108.381607,10.99182 C108.385864,9.58762 107.250626,8.45082 105.832997,8.43962 C104.455102,8.42842 103.301416,9.55122 103.278711,10.92602 C103.253169,12.34002 104.371378,13.48242 105.793264,13.49502 M105.868473,6.11702 C108.656902,6.12262 110.925959,8.31362 110.907511,10.98342 C110.891902,13.66722 108.641292,15.83022 105.84435,15.85262 C103.054502,15.87362 100.745711,13.65882 100.749969,10.96242 C100.754226,8.25622 103.017607,6.11422 105.868473,6.11702" id="Fill-13" fill="#404041"></path>
            <path d="M129.393303,10.93834 C130.18655,10.93834 130.923036,10.96354 131.659522,10.92994 C132.325055,10.90054 132.718131,10.47774 132.777731,9.82114 C132.834493,9.17714 132.483989,8.60034 131.866703,8.54714 C131.046493,8.47714 130.214931,8.53034 129.393303,8.53034 L129.393303,10.93834 Z M126.946865,6.30294 C128.695131,6.30294 130.413598,6.24974 132.126389,6.31974 C133.558208,6.37854 134.683512,7.34454 135.028341,8.62554 C135.452636,10.20334 134.978674,11.69574 133.776741,12.55674 C133.636255,12.65754 133.490093,12.74854 133.302779,12.87454 C133.959798,13.78874 134.609722,14.69174 135.31357,15.66894 C134.453627,15.66894 133.678827,15.72214 132.915379,15.64374 C132.594674,15.61154 132.247008,15.35254 132.008608,15.10614 C131.663779,14.74634 131.354427,14.32914 131.123122,13.88814 C130.742817,13.16714 130.180874,13.00754 129.396141,13.20774 L129.396141,15.63674 L126.946865,15.63674 L126.946865,6.30294 Z" id="Fill-15" fill="#404041"></path>
            <path d="M45.4796248,6.19962 C45.9862248,6.19962 46.4360629,6.17022 46.8773867,6.20522 C47.5684629,6.25982 47.9657962,6.73722 47.9771486,7.53382 C47.9927581,8.74902 47.9814057,9.96422 47.9828248,11.18082 C47.9828248,11.35442 47.9757295,11.52942 47.98992,11.70162 C48.0750629,12.80902 48.7264057,13.39842 49.86732,13.40542 C51.0224248,13.41382 51.7191771,12.80202 51.7816152,11.67222 C51.8199295,11.01702 51.7929676,10.36042 51.7929676,9.70522 L51.7929676,6.19682 C52.2910533,6.19682 52.7366343,6.17162 53.1793771,6.20382 C53.7966629,6.24722 54.2521771,6.73722 54.2578533,7.36162 C54.2677867,8.84842 54.2919105,10.33382 54.2535962,11.81922 C54.18832,14.30702 52.0838724,15.98002 49.3947771,15.72662 C47.0391581,15.50402 45.6144343,14.05642 45.4966533,11.60502 C45.4115105,9.83682 45.4796248,8.05882 45.4796248,6.19962" id="Fill-17" fill="#404041"></path>
            <path d="M118.331969,9.42074 C117.982883,10.33774 117.683464,11.12594 117.367016,11.95754 L119.306854,11.95754 C118.987569,11.13014 118.68673,10.34474 118.331969,9.42074 M123.359654,15.57654 C122.678511,15.57654 122.073997,15.58914 121.469483,15.57514 C120.889092,15.55974 120.517302,15.23494 120.368302,14.70154 C120.259035,14.31374 120.049016,14.20874 119.654521,14.22274 C118.736397,14.25214 117.816854,14.21154 116.90015,14.24794 C116.712835,14.25494 116.434702,14.44114 116.372264,14.60634 C116.102645,15.32874 115.614492,15.63254 114.846788,15.58634 C114.345864,15.55694 113.842102,15.58074 113.273064,15.58074 C113.985426,13.84334 114.673664,12.17454 115.359064,10.50434 C115.777683,9.49074 116.194883,8.47574 116.614921,7.46354 C116.955492,6.63894 117.545816,6.18674 118.319197,6.20074 C119.177721,6.21614 119.721216,6.66134 120.040502,7.44114 C121.104788,10.04094 122.186102,12.63514 123.258902,15.23074 C123.294378,15.31754 123.311407,15.40994 123.359654,15.57654" id="Fill-19" fill="#404041"></path>
            <path d="M37.4282324,9.41528 C37.0819848,10.33228 36.7811467,11.13168 36.46328,11.97308 L38.4059562,11.97308 C38.0880895,11.13868 37.7815752,10.33788 37.4282324,9.41528 M42.4459848,15.57808 C41.7761943,15.57808 41.17168,15.59208 40.5671657,15.57388 C39.9881943,15.55988 39.6164038,15.23508 39.4674038,14.70028 C39.3567181,14.31108 39.1424419,14.20888 38.7493657,14.22288 C37.8496895,14.25228 36.9485943,14.23968 36.0489181,14.22708 C35.7438229,14.22288 35.53948,14.26768 35.4401467,14.60788 C35.2244514,15.34288 34.6994038,15.64108 33.9274419,15.58648 C33.4421276,15.55428 32.9539752,15.58088 32.4147371,15.58088 C32.4615657,15.41708 32.4871086,15.29388 32.5339371,15.17908 C33.5968038,12.59468 34.6639276,10.01308 35.7239562,7.42868 C36.0318895,6.67968 36.5668705,6.21908 37.3998514,6.20368 C38.2044514,6.18968 38.7834229,6.58728 39.0885181,7.31948 C40.1911181,9.96968 41.2809467,12.62548 42.3736133,15.27988 C42.4019943,15.34848 42.4105086,15.42548 42.4459848,15.57808" id="Fill-21" fill="#404041"></path>
            <path d="M77.1712152,6.29538 C79.6644819,6.29538 82.0867962,6.28418 84.5091105,6.30378 C85.059701,6.30798 85.4896724,6.75458 85.53792,7.31318 C85.5733962,7.73038 85.5435962,8.15458 85.5435962,8.62218 L82.6359676,8.62218 L82.6359676,15.65438 L80.1114819,15.65438 L80.1114819,8.63198 C79.5041295,8.63198 78.9606343,8.63758 78.417139,8.63058 C77.672139,8.61938 77.2081105,8.18818 77.1740533,7.46158 C77.1570248,7.09898 77.1712152,6.73358 77.1712152,6.29538" id="Fill-23" fill="#404041"></path>
            <path d="M71.0474571,6.31036 L73.5109238,6.31036 L73.5109238,15.67216 C72.8127524,15.67216 72.0819429,15.68896 71.3511333,15.65536 C71.2432857,15.64976 71.0616476,15.40196 71.0602286,15.26476 C71.0432,12.29816 71.0474571,9.33016 71.0474571,6.31036" id="Fill-25" fill="#404041"></path>
            <path d="M19.884121,18.2336 C19.3746829,17.9032 18.8482162,17.5938 18.3572257,17.2354 C17.6760829,16.7384 17.0162257,16.2092 16.3620448,15.68 C16.2400067,15.5806 16.1747305,15.4126 16.0824924,15.2782 C16.400359,15.057 16.7182257,14.8358 17.0346733,14.6146 C17.0942733,14.7056 17.1354257,14.8232 17.2163114,14.8862 C18.3629019,15.7696 19.5137495,16.6446 20.6645971,17.5224 C20.4034924,17.759 20.1452257,17.997 19.884121,18.2336" id="Fill-27" fill="#404041"></path>
            <path d="M7.52152,3.7429 C8.07778667,4.1475 8.63405333,4.5521 9.18890095,4.9595 C9.76361524,5.3823 10.3440057,5.7967 10.9059486,6.2349 C11.0634629,6.3595 11.1613771,6.5569 11.2876724,6.7207 C10.9811581,6.9391 10.6746438,7.1575 10.3667105,7.3773 C9.80476762,6.9125 9.25843429,6.4295 8.67804381,5.9871 C8.02386286,5.4859 7.34130095,5.0225 6.67009143,4.5409 C6.95390095,4.2763 7.23771048,4.0089 7.52152,3.7429" id="Fill-29" fill="#404041"></path>
            <path d="M17.8414019,8.04132 C18.7467543,8.91352 19.7003543,9.74232 20.5418495,10.66912 C21.3237448,11.53012 22.1510495,12.27912 23.2763543,12.65852 C23.1912114,12.93012 23.1060686,13.20312 23.0195067,13.47612 C22.9003067,13.41732 22.7683352,13.37812 22.6647448,13.29972 C21.6643162,12.54652 20.67524,11.78072 19.6677162,11.03732 C19.3668781,10.81332 19.0220495,10.65232 18.6985067,10.46332 C18.411859,9.65552 18.1266305,8.84912 17.8414019,8.04132" id="Fill-31" fill="#404041"></path>
            <path d="M9.45738476,13.67548 C9.30696571,13.57468 9.1338419,13.49208 9.00896571,13.36608 C8.05536571,12.40568 7.15427048,11.38788 6.14248952,10.49048 C5.58196571,9.98928 4.83980381,9.68548 4.17852762,9.29348 C4.24806095,9.02888 4.31901333,8.76148 4.38854667,8.49688 C4.56308952,8.56688 4.7589181,8.60468 4.90508,8.71108 C5.69548952,9.29068 6.46319429,9.90108 7.2564419,10.47368 C7.71479429,10.80408 8.2100419,11.08688 8.6868419,11.39208 C8.94510857,12.15368 9.20053714,12.91388 9.45738476,13.67548" id="Fill-33" fill="#404041"></path>
            <path d="M20.6643133,17.52268 C19.5134657,16.64488 18.3626181,15.76988 17.2160276,14.88648 C17.1351419,14.82348 17.0939895,14.70588 17.0343895,14.61488 C17.22738,14.41468 17.4203705,14.21728 17.613361,14.01848 C18.2136181,14.49868 18.8167133,14.97468 19.4141324,15.45768 C20.0101324,15.93928 20.6004562,16.42788 21.192199,16.91228 C21.0162371,17.11668 20.8402752,17.31968 20.6643133,17.52268" id="Fill-35" fill="#404041"></path>
            <path d="M21.192341,16.91298 C20.6005981,16.42718 20.0102743,15.93998 19.4142743,15.45838 C18.8168552,14.97398 18.21376,14.49798 17.6135029,14.01918 C17.7639219,13.79518 17.9129219,13.57258 18.06476,13.34998 C18.6224457,13.75738 19.1744552,14.17318 19.7406552,14.57078 C20.4430838,15.06498 21.1568648,15.54238 21.8649695,16.02678 C21.639341,16.32218 21.4165505,16.61758 21.192341,16.91298" id="Fill-37" fill="#404041"></path>
            <path d="M6.67065905,4.54132 C7.34186857,5.02292 8.02443048,5.48632 8.67861143,5.98612 C9.25758286,6.42992 9.80533524,6.91152 10.365859,7.37632 C10.1884781,7.56672 10.0110971,7.75572 9.83229714,7.94612 C9.16676381,7.46312 8.48278286,7.00252 7.83995429,6.49292 C7.27659238,6.04492 6.75722095,5.54372 6.21798286,5.06492 C6.3684019,4.89132 6.52024,4.71632 6.67065905,4.54132" id="Fill-39" fill="#404041"></path>
            <path d="M6.21741524,5.06492 C6.75665333,5.54372 7.27602476,6.04492 7.84080571,6.49292 C8.48363429,7.00252 9.16619619,7.46312 9.83172952,7.94612 C9.65434857,8.20932 9.47696762,8.47392 9.29958667,8.73852 C8.75892952,8.30312 8.2338819,7.84952 7.67761524,7.43652 C6.98370095,6.92272 6.26424381,6.44252 5.5575581,5.94832 C5.77609143,5.65432 5.99746286,5.36032 6.21741524,5.06492" id="Fill-41" fill="#404041"></path>
            <path d="M5.5578419,5.94818 C6.26452762,6.44378 6.98398476,6.92258 7.67789905,7.43638 C8.23416571,7.84938 8.75921333,8.30298 9.29987048,8.73838 C9.20195619,8.97218 9.10688,9.20738 9.01038476,9.44118 C7.73182286,8.50038 6.45326095,7.55818 5.17328,6.61878 C5.30099429,6.39478 5.43012762,6.17078 5.5578419,5.94818" id="Fill-43" fill="#404041"></path>
            <path d="M21.8644019,16.02706 C21.1562971,15.54126 20.4425162,15.06526 19.7400876,14.57106 C19.1738876,14.17346 18.6232971,13.75766 18.0641924,13.35026 C18.170621,13.11506 18.2770495,12.87986 18.3834781,12.64606 C18.5069352,12.69366 18.647421,12.72026 18.7495924,12.79586 C19.9061162,13.67646 21.0583829,14.56406 22.2106495,15.45026 C22.0957067,15.64206 21.9793448,15.83386 21.8644019,16.02706" id="Fill-45" fill="#404041"></path>
            <path d="M22.2107914,15.45012 C21.0585248,14.56392 19.9062581,13.67632 18.7497343,12.79572 C18.6475629,12.72012 18.5070771,12.69352 18.38362,12.64592 C18.4602486,12.37572 18.5382962,12.10552 18.6149248,11.83532 C18.7071629,11.86192 18.8192676,11.86192 18.888801,11.91512 C19.6678581,12.50732 20.4284676,13.12332 21.216039,13.70432 C21.6701343,14.04032 22.1639629,14.32452 22.6393438,14.63252 C22.49602,14.90412 22.3541152,15.17712 22.2107914,15.45012" id="Fill-47" fill="#404041"></path>
            <path d="M5.17398952,6.61808 C6.45255143,7.55888 7.73253238,8.50108 9.00967524,9.44188 C8.94439905,9.67708 8.87770381,9.91368 8.81242762,10.14748 C7.91275143,9.49648 7.00172286,8.85808 6.1148181,8.18748 C5.6919419,7.86828 5.31447524,7.49028 4.91572286,7.13888 L5.17398952,6.61808 Z" id="Fill-49" fill="#404041"></path>
            <path d="M22.63906,14.63252 C22.163679,14.32452 21.6698505,14.04032 21.2157552,13.70432 C20.4281838,13.12332 19.6675743,12.50732 18.8885171,11.91512 C18.8204029,11.86192 18.706879,11.86192 18.614641,11.83532 L18.706879,11.15912 C18.8331743,11.19552 18.9850124,11.20112 19.0829267,11.27532 C19.9641552,11.93332 20.8255171,12.62072 21.71526,13.26612 C22.0799552,13.53072 22.5028314,13.71692 22.9001648,13.93952 C22.8121838,14.17052 22.7256219,14.40152 22.63906,14.63252" id="Fill-51" fill="#404041"></path>
            <path d="M4.91614857,7.13888 C5.3134819,7.49028 5.69236762,7.86828 6.11524381,8.18748 C7.00214857,8.85808 7.9117581,9.49648 8.81285333,10.14748 L8.68797714,10.81248 C8.0905581,10.39108 7.4945581,9.96968 6.89713905,9.54828 C6.12943429,9.00368 5.36172952,8.45908 4.59260571,7.91448 C4.70187238,7.65548 4.80830095,7.39788 4.91614857,7.13888" id="Fill-53" fill="#404041"></path>
            <path d="M22.8995971,13.93938 C22.5036829,13.71678 22.0808067,13.53058 21.7146924,13.26738 C20.8249495,12.62058 19.9650067,11.93318 19.0837781,11.27518 C18.9844448,11.20098 18.8340257,11.19538 18.7063114,11.15898 C18.7034733,10.92658 18.7006352,10.69558 18.6977971,10.46458 C19.022759,10.65218 19.3675876,10.81458 19.6684257,11.03718 C20.6759495,11.78058 21.6650257,12.54638 22.6654543,13.29958 C22.7676257,13.37798 22.9010162,13.41718 23.0202162,13.47598 L22.8995971,13.93938 Z" id="Fill-55" fill="#404041"></path>
            <path d="M4.59331524,7.9142 C5.36243905,8.4602 6.13014381,9.0034 6.89784857,9.548 C7.49526762,9.9708 8.09126762,10.3922 8.68868667,10.8122 C8.68726762,11.0054 8.68726762,11.1986 8.68726762,11.3918 C8.21046762,11.088 7.71522,10.8038 7.25686762,10.4734 C6.46220095,9.9008 5.69449619,9.2904 4.90550571,8.7108 C4.75934381,8.6044 4.56351524,8.5666 4.38755333,8.4966 C4.45708667,8.302 4.52520095,8.1088 4.59331524,7.9142" id="Fill-57" fill="#404041"></path>
            <path d="M17.8622619,8.04398 C17.8097571,8.00338 17.7586714,7.96278 17.7075857,7.92358 C17.7586714,7.96278 17.8097571,8.00338 17.8622619,8.04398" id="Fill-59" fill="#404041"></path>
            <path d="M9.42148286,13.6878 C9.48534,13.7326 9.54919714,13.7788 9.61305429,13.8264 C9.54919714,13.7788 9.48534,13.7326 9.42148286,13.6878" id="Fill-61" fill="#404041"></path>
        </g>
    </g>
</svg>