<?xml version="1.0" encoding="UTF-8"?>
<svg width="212px" height="212px" viewBox="0 0 212 212" version="1.1" xmlns="http://www.w3.org/2000/svg" xmlns:xlink="http://www.w3.org/1999/xlink">
    <!-- Generator: Sketch 51.2 (57519) - http://www.bohemiancoding.com/sketch -->
    <title>Logos</title>
    <desc>Created with Sketch.</desc>
    <defs></defs>
    <g id="Logos" stroke="none" stroke-width="1" fill="none" fill-rule="evenodd">
        <g id="blue-bottle" transform="translate(64.000000, 56.000000)" fill="#404041">
            <path d="M37.8094571,5.55658193 C39.4511714,5.22681084 41.1074571,4.89460602 42.8147429,4.55023253 L42.8147429,5.15136506 C42.8147429,8.76181084 42.8074571,12.3734735 42.8208143,15.9827024 C42.8232429,16.8710157 43.0333143,17.731341 43.4886714,18.4979675 C43.9695286,19.3071843 44.6920286,19.8559916 45.5845286,20.1516904 C46.2256714,20.3622084 46.8777429,20.5362205 47.5286,20.7114494 C48.4065286,20.9475217 49.1581714,21.4147988 49.8709571,21.9587386 C51.0427429,22.8531361 51.8963857,24.0103771 52.5800286,25.3051241 C53.5490286,27.1365096 54.2387429,29.0749795 54.7171714,31.0864614 C54.8859571,31.7995458 54.9952429,32.5345337 55.0547429,33.2658711 C55.1518857,34.479088 55.1919571,35.6971723 55.2466,36.9128229 C55.2878857,37.8060036 55.3194571,38.7016181 55.3401,39.5960157 C55.3777429,41.2339193 55.3983857,42.8730398 55.4360286,44.5109434 C55.4578857,45.4832205 55.5246714,46.4542807 55.5198143,47.4265578 C55.5125286,49.0961 55.4700286,50.7656422 55.4311714,52.4339675 C55.4129571,53.2054614 55.3801714,53.9757386 55.3388857,54.7460157 C55.2842429,55.7767024 55.2271714,56.8061723 55.1494571,57.8344253 C55.0717429,58.8614614 54.9928143,59.8884976 54.8677429,60.9094494 C54.7171714,62.1275337 54.5095286,63.3371 54.3407429,64.5515337 C54.2812429,64.9786542 54.2776,65.411859 54.2278143,65.8389795 C54.0420286,67.4257747 53.6303857,68.946859 52.8556714,70.3535578 C52.7476,70.5470398 52.5800286,70.7344373 52.3954571,70.8561241 C50.9953857,71.7785096 49.4799571,72.4502205 47.8431,72.7933771 C47.0186,72.9661723 46.1613143,73.1231482 45.3222429,72.9905096 C43.8323143,72.7520036 42.3387429,72.8335337 40.8463857,72.8262325 C40.1093143,72.8213651 39.3698143,72.9114133 38.6327429,72.9065458 C37.4038857,72.8968108 36.1823143,72.7836422 34.9728857,72.556088 C33.9504571,72.362606 32.9171,72.2141482 31.9080286,71.9695578 C31.1636714,71.7894614 30.6779571,71.2929795 30.5213143,70.4947145 C30.1412429,68.5538108 29.7223143,66.6189916 29.3446714,64.6768711 C29.0678143,63.2470518 28.8286,61.8087145 28.5772429,60.3728108 C28.3938857,59.3165699 28.2008143,58.2603289 28.0417429,57.1992205 C27.8911714,56.1977386 27.7818857,55.1901723 27.6507429,54.1850398 C27.5329571,53.2882084 27.3969571,52.3938108 27.2949571,51.4945458 C27.2099571,50.7461723 27.1650286,49.9929313 27.0946,49.243341 C27.0083857,48.3416422 26.9088143,47.4411602 26.8250286,46.5394614 C26.7813143,46.0636663 26.7485286,45.5866542 26.7291,45.110859 C26.6902429,44.1544012 26.6501714,43.1979434 26.6356,42.2414855 C26.5967429,39.7201361 26.5554571,37.1987867 26.5506,34.6774373 C26.5481714,33.9412325 26.6586714,33.2062446 26.7145286,32.4712566 C26.7533857,31.9796422 26.7740286,31.4868108 26.8201714,30.9964133 C26.9476714,29.667594 27.0496714,28.336341 27.4649571,27.0525458 C27.8936,25.7346783 28.7314571,24.7745699 29.9493857,24.1637024 C30.8285286,23.7231964 31.7343857,23.3374494 32.6414571,22.9590036 C33.5873857,22.5647386 34.4288857,22.0147145 35.2108857,21.357606 C36.1046,20.6092325 36.7506,19.6941482 37.1367429,18.5977506 C37.4354571,17.7532446 37.6382429,16.8844012 37.6686,15.9900036 C37.7208143,14.4141602 37.7523857,12.8383169 37.7608857,11.2612566 C37.7657429,10.366859 37.6758857,9.47246145 37.6831714,8.57806386 C37.6904571,7.59361807 37.7633143,6.60917229 37.8094571,5.55658193" id="Fill-1"></path>
            <path d="M2.04971429,85.1092928 C2.6265,85.1092928 3.18021429,85.1384976 3.72907143,85.0995578 C4.17957143,85.0679193 4.46978571,84.7223289 4.51228571,84.280606 C4.55478571,83.8461843 4.369,83.6064614 3.842,83.4446181 C3.25428571,83.2645217 2.6605,83.3983771 2.04971429,83.3691723 L2.04971429,85.1092928 Z M2.04,88.5542446 C2.44071429,88.5542446 2.79407143,88.5664133 3.14621429,88.5493771 C3.41942857,88.5372084 3.6975,88.5177386 3.95978571,88.4471602 C4.30585714,88.3534614 4.5305,87.9713651 4.5135,87.5917024 C4.50014286,87.2643651 4.20871429,86.8481964 3.88692857,86.8275096 C3.27857143,86.7885699 2.66535714,86.8165578 2.04,86.8165578 L2.04,88.5542446 Z M5.54928571,85.9209434 C6.94328571,86.6681 6.76842857,88.4824494 5.92935714,89.4401241 C5.42907143,90.0132687 4.78792857,90.3028831 4.04114286,90.3345217 C2.70542857,90.3917145 1.3685,90.4270036 0,90.4708108 L0,81.4866783 L0.506357143,81.4866783 C1.44985714,81.4866783 2.39214286,81.480594 3.33564286,81.489112 C4.06178571,81.4964133 4.75271429,81.646088 5.39385714,82.0160157 C6.2985,82.5368349 6.9785,84.1187627 6.29607143,85.0837386 C6.07992857,85.3903892 5.79457143,85.6483651 5.54928571,85.9209434 Z" id="Fill-3"></path>
            <path d="M38.3419214,83.3297458 L38.3419214,85.1124566 C38.8895643,85.1124566 39.39835,85.1258422 39.9071357,85.108806 C40.4025643,85.0917699 40.7425643,84.7619988 40.79235,84.2886373 C40.8384929,83.8529988 40.6587786,83.5573 40.1269214,83.4599506 C39.5477071,83.3553 38.94785,83.3686855 38.3419214,83.3297458 Z M38.3249214,88.5488904 C38.9939929,88.5209024 39.6375643,88.6559747 40.2677786,88.4442398 C40.5859214,88.3359386 40.8202786,87.9222036 40.7935643,87.5632277 C40.7656357,87.2139867 40.4402071,86.8294566 40.0917071,86.8136373 C39.5112786,86.7868663 38.9284214,86.8063361 38.3249214,86.8063361 L38.3249214,88.5488904 Z M36.2691357,90.471541 L36.2691357,81.5129627 C36.4379214,81.5032277 36.5872786,81.4886253 36.7366357,81.4886253 C37.6947071,81.4861916 38.6527786,81.4788904 39.61085,81.4898422 C40.3369929,81.4983602 41.0279214,81.6443843 41.6702786,82.0130952 C42.57735,82.5351313 43.25735,84.1194928 42.5761357,85.0796012 C42.3599929,85.3874687 42.07585,85.6466614 41.8159929,85.9338422 C42.4425643,86.1979024 42.7522071,86.7686133 42.8372071,87.4391072 C42.9307071,88.1813964 42.7036357,88.8616253 42.2106357,89.4359867 C41.7152071,90.0139988 41.0716357,90.3023964 40.3236357,90.3352518 C38.9879214,90.3924446 37.6522071,90.4265169 36.2691357,90.471541 Z" id="Fill-5"></path>
            <path d="M48.6207286,83.2625747 C47.7440143,83.286912 47.0033,83.6556229 46.5977286,84.5804422 C46.3767286,85.0793578 46.2455857,85.591659 46.2844429,86.1392494 C46.3512286,87.0847554 46.8490857,88.3381289 48.1277286,88.5900205 C48.8708714,88.7360446 49.5739429,88.6715506 50.1895857,88.126394 C51.0966571,87.3220446 51.3553,85.7437675 50.7773,84.5670566 C50.3450143,83.6872614 49.6662286,83.2698759 48.6207286,83.2625747 M48.6960143,90.5576952 C47.7986571,90.5333578 46.9668714,90.3216229 46.1945857,89.8750325 C45.3275857,89.3724663 44.8163714,88.5888036 44.5067286,87.6664181 C44.1424429,86.5773217 44.1133,85.4614542 44.4678714,84.3735747 C45.0070143,82.7198518 46.1095857,81.717153 47.8860857,81.4701289 C48.9048714,81.3277554 49.8532286,81.4360566 50.7894429,81.8437072 C51.9345143,82.3438398 52.5890143,83.2723096 52.9180857,84.4064301 C53.3734429,85.9761892 53.1949429,87.4948398 52.2490143,88.8784181 C51.6309429,89.7837675 50.7287286,90.219406 49.6929429,90.4250566 C49.3638714,90.4895506 49.0275143,90.513888 48.6960143,90.5576952" id="Fill-7"></path>
            <polygon id="Fill-9" points="84.1172143 81.5228193 84.1172143 83.3481205 80.0942857 83.3481205 80.0942857 85.0030602 83.2757143 85.0030602 83.2757143 86.8855542 80.0918571 86.8855542 80.0918571 88.5417108 84.1123571 88.5417108 84.1123571 90.3889157 78.0385 90.3889157 78.0385 81.5228193"></polygon>
            <polygon id="Fill-11" points="30.1004429 90.4092373 24.0314429 90.4092373 24.0314429 81.5175867 30.1113714 81.5175867 30.1113714 83.3416711 26.0860143 83.3416711 26.0860143 84.9978277 29.2625857 84.9978277 29.2625857 86.8803217 26.0835857 86.8803217 26.0835857 88.5364783 30.1004429 88.5364783"></polygon>
            <path d="M19.8240643,81.5097988 L21.8494929,81.5097988 C21.8604214,81.6521723 21.8786357,81.7860277 21.8786357,81.9186663 C21.8810643,83.6234976 21.9199214,85.3295458 21.8689214,87.0331602 C21.82885,88.3242566 21.3334214,89.4376904 20.1312786,90.0643771 C19.4124214,90.4379554 18.6340643,90.6010157 17.79135,90.4562084 C17.2242786,90.358859 16.69485,90.221353 16.2115643,89.9147024 C15.4101357,89.4048349 15.0045643,88.6309072 14.8236357,87.732859 C14.7422786,87.3300759 14.7277071,86.9090398 14.7252786,86.4965217 C14.71435,84.8537506 14.7216357,83.2121964 14.7216357,81.5280518 L16.7774214,81.5280518 L16.7774214,82.0050639 L16.7774214,86.9333771 C16.7774214,87.4335096 16.9680643,87.8484614 17.3104929,88.2135217 C17.9212786,88.8645458 19.0590643,88.7416422 19.54235,87.9093048 C19.7269214,87.5892687 19.8325643,87.246112 19.8301357,86.8603651 C19.8167786,85.2650518 19.8240643,83.6685217 19.8240643,82.0719916 L19.8240643,81.5097988 Z" id="Fill-13"></path>
            <polygon id="Fill-15" points="56.6712 83.3553 54.3749857 83.3553 54.3749857 81.5178301 61.0086286 81.5178301 61.0086286 83.3431313 58.7342714 83.3431313 58.7342714 90.3900108 56.6712 90.3900108"></polygon>
            <polygon id="Fill-17" points="62.6348 81.5091904 69.2648 81.5091904 69.2648 83.3551783 66.9965143 83.3551783 66.9965143 90.3874554 64.9346571 90.3874554 64.9346571 83.3758651 62.6348 83.3758651"></polygon>
            <polygon id="Fill-19" points="10.3635643 88.5608157 13.5887071 88.5608157 13.5887071 90.3982855 8.34542143 90.3982855 8.34542143 81.5273217 10.3635643 81.5273217"></polygon>
            <polygon id="Fill-21" points="71.1572643 90.3932964 71.1572643 81.5162482 73.1681214 81.5162482 73.1681214 88.5339229 76.3981214 88.5339229 76.3981214 90.3932964"></polygon>
            <path d="M39.7768429,4.08538916 C39.7015571,3.92111205 39.6627,3.77873855 39.5777,3.67530482 C39.4999857,3.58038916 39.3797714,3.48060602 39.2644143,3.46356988 C38.5540571,3.35526867 37.8388429,3.27130482 37.1260571,3.17517229 C36.9293429,3.1484012 36.7277714,3.12528072 36.5395571,3.06565422 C36.0744857,2.91963012 35.7745571,2.61541325 35.7259857,2.11041325 C35.6895571,1.71249759 35.6300571,1.31214819 35.6470571,0.916666265 C35.6567714,0.685461446 35.7672714,0.439654217 35.8923429,0.237654217 C36.0502,-0.0191048193 36.3064143,-0.072646988 36.5650571,0.100148193 C36.7897,0.247389157 37.0204143,0.431136145 37.1600571,0.655039759 C37.5668429,1.30363012 38.1545571,1.71371446 38.8454857,1.95708795 C39.2729143,2.10676265 39.7428429,2.14570241 40.1982,2.19559398 C40.9449857,2.27834096 41.6942,2.36717229 42.4434143,2.3817747 C43.0226286,2.39150964 43.6030571,2.29781084 44.1822714,2.23453373 C44.4530571,2.20411205 44.6157714,2.28199157 44.6631286,2.52658193 C44.7712,3.08390723 44.4081286,3.61689518 43.9539857,3.71667831 C42.5854857,4.01602771 41.2012,4.17908795 39.7768429,4.08538916" id="Fill-23"></path>
            <path d="M36.2761786,97.9375096 C36.2348929,97.6819675 36.2203214,97.4191241 36.1474643,97.1733169 C35.9349643,96.4687506 35.50875,95.9491482 34.7668214,95.7812205 C34.0746786,95.6242446 33.4335357,95.7386301 32.89925,96.2570157 C32.3418929,96.796088 32.1670357,97.4446783 32.2666071,98.2027867 C32.4183929,99.3527265 32.9563214,99.927088 33.9459643,100.146124 C34.5263929,100.273895 35.4698929,99.8857145 35.7576786,99.4829313 C36.0818929,99.0278229 36.2798214,98.5191723 36.2761786,97.9375096 M34.1329643,100.843389 C33.34975,100.933437 32.6588214,100.609751 32.0881071,99.9757627 C31.69225,99.5352566 31.5016071,98.9949675 31.4396786,98.438859 C31.3413214,97.5736663 31.4639643,96.7461964 32.0006786,95.9941723 C32.3503929,95.5074253 32.8118214,95.2567506 33.3351786,95.0924735 C33.94475,94.9014253 34.5810357,94.9075096 35.1906071,95.0924735 C36.1693214,95.3881723 36.7388214,96.0963892 36.99625,97.0601482 C37.1856786,97.7744494 37.0994643,98.4777988 36.8651071,99.1787145 C36.5384643,100.158293 35.5925357,100.883546 34.5361071,100.843389 C34.42925,100.839739 34.3199643,100.843389 34.1329643,100.843389" id="Fill-25"></path>
            <polygon id="Fill-27" points="54.8260929 100.808465 54.8260929 95.0928386 58.5041643 95.0928386 58.5041643 95.7110072 55.5923071 95.7110072 55.5923071 97.6604289 57.85695 97.6604289 57.85695 98.3187542 55.5898786 98.3187542 55.5898786 100.066176 58.4920214 100.066176 58.4920214 100.808465"></polygon>
            <polygon id="Fill-29" points="52.5706786 97.6605506 52.5706786 98.317659 50.3096786 98.317659 50.3096786 100.066298 53.2118214 100.066298 53.2118214 100.815888 49.5568214 100.815888 49.5568214 95.1002614 53.2069643 95.1002614 53.2069643 95.709912 50.3121071 95.709912 50.3121071 97.6605506"></polygon>
            <path d="M30.0601286,96.3047169 C29.5707714,96.0990663 29.1251286,95.917753 28.6843429,95.7242711 C28.1877,95.5064518 27.7214143,95.7096687 27.3364857,95.9408735 C26.6091286,96.3789458 26.3274143,97.1261024 26.3456286,97.947488 C26.3650571,98.7603554 26.6455571,99.4843916 27.4044857,99.911512 C27.9703429,100.229114 28.5629143,100.257102 29.1530571,99.9687048 C29.4384143,99.8299819 29.7152714,99.6705723 29.9969857,99.5208976 C30.0443429,99.5464518 30.0965571,99.5574036 30.1208429,99.5890422 C30.6429857,100.271705 30.4414143,100.158536 29.8731286,100.493175 C28.9344857,101.046849 27.9205571,101.000608 26.9612714,100.582006 C26.1343429,100.221813 25.7105571,99.462488 25.5964143,98.5960783 C25.5272,98.0582229 25.5599857,97.4777771 25.6838429,96.9484398 C25.9643429,95.7680783 26.8592714,95.0330904 28.1197,94.9673795 C28.8288429,94.9308735 29.4821286,95.0525602 30.0686286,95.4894157 C30.5191286,95.8240542 30.5361286,95.8423072 30.1342,96.239006 C30.1002,96.2718614 30.0637714,96.3010663 30.0601286,96.3047169" id="Fill-31"></path>
            <polygon id="Fill-33" points="39.4589429 97.6736928 41.7029429 97.6736928 41.7029429 98.3149819 39.4334429 98.3149819 39.4334429 100.814428 38.6842286 100.814428 38.6842286 95.1024518 42.3501571 95.1024518 42.3501571 95.7072349 39.4589429 95.7072349"></polygon>
            <path d="M44.9184929,95.7146578 C44.9051357,95.8631157 44.8929929,95.9385614 44.8929929,96.0127904 C44.8917786,96.5384771 44.8929929,97.0641639 44.8929929,97.6482602 L47.1807071,97.6482602 L47.1807071,98.3224048 L44.8990643,98.3224048 L44.8990643,100.816983 L44.1717071,100.816983 L44.1717071,95.0989229 L47.8279214,95.0989229 C47.8376357,95.1999229 47.85585,95.3021398 47.8582786,95.4055735 C47.8607071,95.4944048 47.8461357,95.584453 47.8364214,95.7146578 L44.9184929,95.7146578 Z" id="Fill-35"></path>
        </g>
    </g>
</svg>