<?xml version="1.0" encoding="UTF-8"?>
<svg width="212px" height="212px" viewBox="0 0 212 212" version="1.1" xmlns="http://www.w3.org/2000/svg" xmlns:xlink="http://www.w3.org/1999/xlink">
    <!-- Generator: Sketch 51.2 (57519) - http://www.bohemiancoding.com/sketch -->
    <title>Logos-Hover</title>
    <desc>Created with Sketch.</desc>
    <defs>
        <polygon id="path-1" points="0 0.373398413 26.5623185 0.373398413 26.5623185 30.6663444 0 30.6663444"></polygon>
        <polygon id="path-3" points="0.970550732 0.768530665 20.2276471 0.768530665 20.2276471 12.2786845 0.970550732 12.2786845"></polygon>
    </defs>
    <g id="Logos-Hover" stroke="none" stroke-width="1" fill="none" fill-rule="evenodd">
        <g id="chownow">
            <rect id="Rectangle-Copy-2" fill="#D0493D" x="0" y="0" width="216" height="214"></rect>
            <g id="Group-3" transform="translate(38.000000, 90.959467)">
                <mask id="mask-2" fill="white">
                    <use xlink:href="#path-1"></use>
                </mask>
                <g id="Clip-2"></g>
                <path d="M13.3681108,22.6378667 C18.2544441,22.7272 22.6975422,18.7298667 22.6988853,13.4072 C22.7002284,8.38853333 18.6909637,4.14986667 13.3748265,4.15653333 C8.03451275,4.1632 4.10315,8.3992 4.06016961,13.3152 C4.01450294,18.7445333 8.54221863,22.7258667 13.3681108,22.6378667 M-0.000134313725,13.5245333 C0.0106107843,7.47786667 4.30059118,2.0192 10.483052,0.6752 C17.5855618,-0.866133333 24.712248,3.65253333 26.2474539,10.6658667 C26.9848363,14.0312 26.4059441,17.2032 24.7323951,20.1965333 C23.1622676,23.0018667 20.9863853,25.2912 18.4800912,27.2725333 C17.1638167,28.3112 15.7454637,29.2205333 14.3956108,30.2205333 C13.5574931,30.8378667 12.7811598,30.7898667 11.9376696,30.2258667 C8.64429706,28.0272 5.5631402,25.6032 3.21130686,22.3792 C1.76206176,20.3978667 0.680836275,18.2485333 0.255061765,15.8165333 C0.123434314,15.0605333 0.0817970588,14.2885333 -0.000134313725,13.5245333" id="Fill-1" fill="#FFFFFF" mask="url(#mask-2)"></path>
            </g>
            <path d="M128.026595,98.4098667 C128.964105,98.4098667 129.880125,98.4085333 130.797487,98.4112 C131.232664,98.4125333 131.748428,98.2845333 132.07884,98.4725333 C132.409252,98.6592 132.559683,99.1645333 132.778615,99.5378667 C134.354115,102.2112 135.925585,104.884533 137.541379,107.633867 C137.487654,104.5232 137.433928,101.489867 137.380203,98.4338667 L141.349174,98.4338667 L141.349174,113.8792 C141.253811,113.884533 141.150389,113.897867 141.048311,113.897867 C139.894556,113.900533 138.739458,113.8912 137.58436,113.905867 C137.345281,113.908533 137.231115,113.821867 137.120977,113.625867 C135.408477,110.6272 133.689262,107.632533 131.971389,104.637867 C131.932438,104.5712 131.886772,104.509867 131.835732,104.433867 C131.893487,107.588533 131.948556,110.7152 132.006311,113.8712 L128.026595,113.8712 L128.026595,98.4098667 Z" id="Fill-4" fill="#FFFFFF"></path>
            <g id="Group-8" transform="translate(153.509804, 101.626133)">
                <mask id="mask-4" fill="white">
                    <use xlink:href="#path-3"></use>
                </mask>
                <g id="Clip-7"></g>
                <path d="M10.5402696,5.88533333 C10.2219461,6.96933333 9.90093627,8.05466667 9.58261275,9.13866667 C9.3032402,10.092 9.01580882,11.0426667 8.74852451,12 C8.69076961,12.2066667 8.6074951,12.28 8.38856373,12.2786667 C7.16362255,12.268 5.93733824,12.2706667 4.71239706,12.276 C4.53644608,12.2773333 4.4397402,12.2386667 4.38198529,12.0506667 C3.24972059,8.328 2.1107402,4.608 0.973102941,0.888 C0.966387255,0.866666667 0.974446078,0.842666667 0.979818627,0.776 L2.37533824,0.776 C3.01198529,0.776 3.64863235,0.792 4.28393627,0.769333333 C4.56062255,0.758666667 4.6707598,0.853333333 4.74328922,1.112 C5.35441667,3.29466667 5.97897549,5.472 6.59816176,7.65333333 C6.63308333,7.77066667 6.66934804,7.888 6.79023039,8.01066667 C6.84932843,7.82933333 6.91111275,7.65066667 6.96483824,7.468 C7.59879902,5.34133333 8.23410294,3.21466667 8.85731863,1.084 C8.92447549,0.857333333 9.00775,0.764 9.2602598,0.769333333 C10.1319559,0.788 11.0049951,0.785333333 11.8766912,0.770666667 C12.1305441,0.766666667 12.2420245,0.838666667 12.3145539,1.08933333 C12.9485147,3.26666667 13.59725,5.43866667 14.243299,7.612 C14.28225,7.74266667 14.3279167,7.872 14.4044755,8.10266667 C14.4823775,7.89066667 14.5334167,7.77333333 14.5683382,7.64933333 C15.1942402,5.46 15.8214853,3.26933333 16.4366422,1.076 C16.5011127,0.841333333 16.5978186,0.766666667 16.8422696,0.770666667 C17.9503578,0.785333333 19.0557598,0.776 20.2283186,0.776 C19.047701,4.63466667 17.8805147,8.448 16.7146716,12.2586667 L12.4958775,12.2586667 C11.8699755,10.1266667 11.2467598,7.99866667 10.6235441,5.872 C10.5953382,5.876 10.5684755,5.88133333 10.5402696,5.88533333" id="Fill-6" fill="#FFFFFF" mask="url(#mask-4)"></path>
            </g>
            <path d="M114.010286,109.635067 C114.243992,108.853733 114.479041,108.0724 114.710061,107.291067 C115.166727,105.757733 115.623394,104.223067 116.070659,102.687067 C116.1311,102.475067 116.22109,102.391067 116.456139,102.3964 C117.327835,102.4124 118.200875,102.413733 119.072571,102.395067 C119.343884,102.389733 119.452678,102.471067 119.529237,102.733733 C120.169914,104.9324 120.828051,107.1244 121.482159,109.3204 C121.514394,109.427067 121.550659,109.5324 121.659453,109.6404 C121.72661,109.423067 121.799139,109.2084 121.860924,108.989733 C122.455933,106.899067 123.052286,104.809733 123.636551,102.717733 C123.707737,102.465733 123.819218,102.3924 124.073071,102.3964 C125.179816,102.409733 126.286561,102.401733 127.436286,102.401733 C127.158257,103.313733 126.890973,104.191067 126.623688,105.069733 C125.758708,107.895067 124.891041,110.7204 124.035463,113.551067 C123.953531,113.823067 123.836678,113.9124 123.549247,113.907067 C122.404894,113.8884 121.261884,113.887067 120.118875,113.907067 C119.80458,113.913733 119.675639,113.827067 119.586992,113.519067 C119.045708,111.6084 118.478904,109.705733 117.918816,107.8004 C117.887924,107.689733 117.847629,107.581733 117.787188,107.389733 C117.45409,108.515067 117.146512,109.555067 116.840276,110.5964 C116.548816,111.595067 116.254669,112.591067 115.975296,113.593733 C115.912169,113.819067 115.820835,113.909733 115.566982,113.905733 C114.366218,113.891067 113.162767,113.897733 111.962002,113.9004 C111.786051,113.901733 111.659796,113.893733 111.593982,113.677733 C110.469776,109.979067 109.337512,106.2804 108.205247,102.583067 C108.191816,102.5404 108.187786,102.493733 108.174355,102.4244 L111.853208,102.4244 C112.535522,104.817733 113.223208,107.2244 113.910894,109.6324 C113.943129,109.633733 113.976708,109.633733 114.010286,109.635067" id="Fill-9" fill="#FFFFFF"></path>
            <path d="M88.4211039,103.454133 C90.0718196,101.875467 92.4115647,101.7608 93.960202,103.1328 C94.8090647,103.8848 95.1824569,104.8808 95.2469275,105.970133 C95.3194569,107.194133 95.3019961,108.4248 95.311398,109.651467 C95.3208,110.926133 95.3127412,112.203467 95.3127412,113.478133 L95.3127412,113.875467 L91.5210647,113.875467 L91.5210647,113.4728 L91.5210647,106.627467 C91.5210647,105.647467 91.0926039,105.131467 90.2329961,105.063467 C89.2860843,104.9888 88.6024275,105.519467 88.4627412,106.438133 C88.4372216,106.611467 88.4264765,106.787467 88.4264765,106.963467 C88.4237902,109.115467 88.4251333,111.2688 88.4251333,113.422133 L88.4251333,113.870133 L84.6536039,113.870133 L84.6536039,97.7328 L88.4211039,97.7328 L88.4211039,103.454133 Z" id="Fill-11" fill="#FFFFFF"></path>
            <path d="M82.9213598,110.139067 C83.3511637,111.043067 83.7729088,111.929733 84.2161441,112.8604 C84.0173598,112.975067 83.8387225,113.105733 83.6399382,113.1924 C80.5560951,114.555067 77.4668794,114.601733 74.4461637,113.059067 C72.1440265,111.8844 70.9580363,109.897733 70.6504578,107.375067 C70.4691343,105.889733 70.5779284,104.429733 71.1004088,103.0204 C71.8471931,101.0164 73.2642029,99.6364 75.2466735,98.8644 C77.9947324,97.7924 80.7427912,97.8470667 83.451899,99.0430667 C83.705752,99.1550667 83.9434873,99.3070667 84.2188304,99.4577333 C83.7836539,100.385733 83.3619088,101.279067 82.9415069,102.1724 C82.385448,101.975067 81.856252,101.7564 81.308252,101.6004 C80.3841735,101.333733 79.4372618,101.2124 78.4796049,101.3764 C76.9551441,101.6404 75.8913794,102.509733 75.309801,103.925733 C74.7027029,105.4084 74.6973304,106.921733 75.3124873,108.399067 C76.0122618,110.083067 77.3271931,110.9364 79.1565461,110.9884 C80.4647618,111.025733 81.6950755,110.6884 82.9213598,110.139067" id="Fill-13" fill="#FFFFFF"></path>
            <path d="M104.995283,108.165067 C104.832764,107.5504 104.742774,106.929067 104.502352,106.371733 C104.120901,105.4864 103.384862,105.0424 102.400342,105.055733 C101.409107,105.069067 100.67844,105.527733 100.280872,106.421067 C99.7771951,107.5544 99.7704794,108.7184 100.272813,109.857067 C100.670381,110.755733 101.41045,111.219733 102.386911,111.239733 C103.356656,111.2584 104.110156,110.813067 104.498323,109.927733 C104.737401,109.383733 104.828734,108.775733 104.995283,108.165067 M102.440636,102.153067 C103.64946,102.177067 104.808587,102.397067 105.879068,102.971733 C107.536499,103.861067 108.510274,105.243733 108.773528,107.091733 C109.027381,108.879733 108.717117,110.543733 107.523068,111.969067 C106.770911,112.865067 105.809225,113.457067 104.686362,113.787733 C102.968489,114.293067 101.258675,114.2544 99.5958716,113.593067 C97.5475873,112.779733 96.332048,111.2664 96.0338716,109.085067 C95.7786755,107.215733 96.1386363,105.491733 97.4737147,104.0704 C98.4542049,103.027733 99.7060088,102.493067 101.105558,102.277067 C101.546107,102.209067 101.994715,102.193067 102.440636,102.153067" id="Fill-15" fill="#FFFFFF"></path>
            <path d="M146.235104,108.188533 C146.214957,108.8112 146.33181,109.460533 146.671624,110.056533 C147.540633,111.5832 149.759496,111.681867 150.649996,110.189867 C151.441104,108.864533 151.431702,107.445867 150.662084,106.117867 C149.834712,104.693867 147.735388,104.677867 146.799222,106.036533 C146.362702,106.6672 146.225702,107.3832 146.235104,108.188533 M155.161594,108.132533 C155.138761,111.6592 152.670075,113.7232 149.681594,114.0592 C148.173251,114.228533 146.715947,114.049867 145.356692,113.352533 C143.489731,112.3952 142.497153,110.841867 142.291653,108.7792 C142.189575,107.752533 142.292996,106.745867 142.681163,105.7832 C143.305722,104.221867 144.45679,103.185867 146.033633,102.628533 C147.754192,102.0192 149.501614,101.9992 151.234261,102.5672 C153.706976,103.3792 155.161594,105.465867 155.161594,108.132533" id="Fill-17" fill="#FFFFFF"></path>
            <path d="M56.0783588,109.571333 C55.972251,109.559333 55.8607706,109.567333 55.7627216,109.535333 C54.4786824,109.111333 53.4323784,108.379333 52.7245451,107.212667 C52.4357706,106.739333 52.2665353,106.231333 52.3484667,105.678 C52.4653196,104.875333 51.9065745,104.472667 51.3975255,104.042 C51.3505157,104.002 51.1879961,104.035333 51.1275549,104.088667 C50.8159471,104.354 50.4667314,104.602 50.2330255,104.93 C50.0664765,105.162 49.9590255,105.526 50.0060353,105.802 C50.1376627,106.620667 49.9066431,107.307333 49.3855059,107.91 C48.6575255,108.751333 47.7267314,109.279333 46.6186431,109.379333 C45.4420549,109.487333 44.7395941,108.880667 44.9518098,107.460667 C45.1076137,106.420667 45.6529275,105.559333 46.470898,104.883333 C47.067251,104.391333 47.7589667,104.219333 48.5205255,104.336667 C48.9395843,104.402 49.2713392,104.287333 49.5601137,103.975333 C51.0832314,102.328667 52.6103784,100.69 54.1482706,99.058 C54.2906431,98.9046667 54.4948,98.766 54.6962706,98.7166667 C55.1072706,98.6166667 55.4430549,98.7966667 55.6136333,99.1313333 C55.7909275,99.478 55.7210843,99.858 55.4067902,100.152667 C54.7876039,100.728667 54.1603588,101.295333 53.5371431,101.867333 C53.1570353,102.215333 52.7809569,102.57 52.3927902,102.911333 C52.2383294,103.047333 52.2302706,103.142 52.3592118,103.314 C52.7943882,103.886 53.3074667,104.215333 54.074398,104.122 C54.8023784,104.032667 55.4014176,104.403333 55.9440451,104.822 C56.8318588,105.507333 57.4443294,106.396667 57.7760843,107.468667 C57.8096627,107.579333 57.8069765,107.703333 57.821751,107.822 C57.7935451,107.838 57.7666824,107.854 57.7398196,107.87 C57.6337118,107.79 57.5222314,107.718 57.4241824,107.631333 C56.6921725,106.971333 55.962849,106.306 55.2294961,105.647333 C55.1354765,105.560667 55.0307118,105.466 54.915202,105.432667 C54.8413294,105.414 54.6694078,105.492667 54.661349,105.544667 C54.6438882,105.664667 54.6573196,105.83 54.7311922,105.915333 C55.2765059,106.544667 55.8392804,107.158 56.3939961,107.779333 C56.5672608,107.972667 56.745898,108.159333 56.8976725,108.368667 C56.9621431,108.455333 56.9634863,108.587333 56.9943784,108.699333 C56.8708098,108.683333 56.7123196,108.71 56.6317314,108.643333 C55.8795745,108.004667 55.140849,107.352667 54.396751,106.703333 C54.3000451,106.618 54.2140843,106.499333 54.1012608,106.459333 C53.9884373,106.418 53.848751,106.454 53.7198098,106.458 C53.7265255,106.584667 53.682202,106.752667 53.7480157,106.828667 C54.1173784,107.268667 54.5136039,107.687333 54.9004275,108.111333 C55.3100843,108.559333 55.718398,109.006 56.1280549,109.454 C56.1105941,109.492667 56.0958196,109.532667 56.0783588,109.571333" id="Fill-19" fill="#FFFFFF"></path>
            <path d="M50.5247549,101.352533 C50.1580784,101.6632 49.8276667,101.940533 49.469049,102.244533 C48.6927157,101.536533 47.8492255,100.792533 47.0366275,100.016533 C46.7115882,99.7058667 46.7653137,99.1845333 47.0849804,98.8805333 C47.4153922,98.5672 47.9056373,98.5378667 48.2279902,98.8725333 C48.989549,99.6658667 49.7242451,100.485867 50.5247549,101.352533" id="Fill-21" fill="#FFFFFF"></path>
        </g>
    </g>
</svg>