<?xml version="1.0" encoding="UTF-8"?>
<svg width="212px" height="212px" viewBox="0 0 212 212" version="1.1" xmlns="http://www.w3.org/2000/svg" xmlns:xlink="http://www.w3.org/1999/xlink">
    <!-- Generator: Sketch 51.2 (57519) - http://www.bohemiancoding.com/sketch -->
    <title>Logos-Hover</title>
    <desc>Created with Sketch.</desc>
    <defs>
        <polygon id="path-1" points="0.849561654 0.263414231 20.7789516 0.263414231 20.7789516 21 0.849561654 21"></polygon>
        <polygon id="path-3" points="0.7812 0.693 6.24639447 0.693 6.24639447 6.5058 0.7812 6.5058"></polygon>
    </defs>
    <g id="Logos-Hover" stroke="none" stroke-width="1" fill="none" fill-rule="evenodd">
        <g id="floqast">
            <rect id="Rectangle-Copy-2" fill="#84BD3A" x="0" y="0" width="216" height="214"></rect>
            <g id="Group-3" transform="translate(102.000000, 100.307200)">
                <mask id="mask-2" fill="white">
                    <use xlink:href="#path-1"></use>
                </mask>
                <g id="Clip-2"></g>
                <path d="M12.5547,3.7951 C10.8647,3.8041 9.3687,4.3461 8.1807,5.5341 C5.8137,7.9021 4.8527,10.8391 5.0087,14.1321 C5.0837,15.7221 6.1407,16.8251 7.6997,17.1491 C10.0507,17.6381 12.0087,16.8551 13.6807,15.2101 C14.9157,13.9951 15.6557,12.4931 16.1557,10.8671 C16.5427,9.6061 16.7717,8.3191 16.5837,6.9841 C16.3507,5.3201 15.3977,4.2601 13.7497,3.9191 C13.3597,3.8381 12.9527,3.8341 12.5547,3.7951 M16.4227,17.3831 C17.3747,18.5531 18.3367,19.7341 19.2987,20.9161 C19.2827,20.9441 19.2657,20.9721 19.2487,21.0001 C18.2867,20.7471 17.3257,20.4941 16.3637,20.2401 C15.5567,20.0271 14.7557,19.7921 13.9417,19.6121 C13.6977,19.5581 13.3897,19.5921 13.1587,19.6941 C10.3897,20.9221 7.5387,21.1691 4.6677,20.2131 C2.2547,19.4101 0.9327,17.5531 0.8587,15.0751 C0.7087,10.0731 2.3987,5.7691 6.4177,2.6251 C9.0097,0.5971 12.0417,-0.0799 15.2987,0.4221 C18.7017,0.9481 20.7367,3.1441 20.7777,6.6111 C20.8257,10.6131 19.4937,14.1551 16.6637,17.0661 C16.5997,17.1331 16.5337,17.1981 16.4737,17.2681 C16.4537,17.2891 16.4487,17.3231 16.4227,17.3831" id="Fill-1" fill="#FFFFFF" mask="url(#mask-2)"></path>
            </g>
            <path d="M59.2651,104.634 L52.5911,104.634 C52.9141,103.032 53.3941,101.586 54.9791,100.866 C55.3881,100.68 55.8671,100.581 56.3171,100.566 C57.5211,100.525 58.7281,100.534 59.9321,100.561 C60.3471,100.571 60.5151,100.429 60.6401,100.037 C61.2921,98.008 61.9871,95.993 62.6451,93.966 C62.7601,93.612 62.9121,93.46 63.2991,93.508 C63.7881,93.57 64.2851,93.576 64.7781,93.605 C65.9771,93.675 66.5801,94.53 66.2201,95.684 C65.7681,97.128 65.2921,98.565 64.8281,100.006 C64.7781,100.163 64.7381,100.324 64.6761,100.546 L68.9531,100.546 C68.9231,100.731 68.9151,100.862 68.8811,100.985 C68.5871,102.057 68.2761,103.125 67.9991,104.202 C67.9111,104.544 67.7321,104.628 67.4071,104.624 C66.2481,104.609 65.0891,104.607 63.9311,104.631 C63.7621,104.634 63.4931,104.77 63.4461,104.905 C62.8741,106.554 62.3351,108.215 61.7901,109.872 C61.7771,109.913 61.7841,109.961 61.7791,110.075 L66.3581,110.075 C66.3251,110.281 66.3141,110.412 66.2811,110.537 C65.9941,111.627 65.6911,112.713 65.4191,113.807 C65.3361,114.138 65.1781,114.252 64.8411,114.247 C63.6201,114.231 62.3991,114.259 61.1791,114.232 C60.7411,114.222 60.5301,114.344 60.3981,114.791 C59.8311,116.701 59.2131,118.595 58.6321,120.501 C58.5311,120.83 58.3941,120.973 58.0261,120.966 C56.8241,120.941 55.6211,120.957 54.3281,120.957 C55.0331,118.71 55.7181,116.527 56.4251,114.274 L51.0001,114.274 C51.3521,112.633 51.7851,111.098 53.4391,110.355 C53.8631,110.164 54.3501,110.058 54.8151,110.027 C55.6001,109.974 56.3911,110.024 57.1791,110.001 C57.3251,109.997 57.5551,109.879 57.5961,109.761 C58.1731,108.114 58.7241,106.459 59.2801,104.805 C59.2891,104.779 59.2761,104.745 59.2651,104.634" id="Fill-4" fill="#FFFFFF"></path>
            <path d="M83.9326,100.5774 C83.5776,102.1324 83.1776,103.5884 81.6516,104.3194 C81.1926,104.5394 80.6566,104.6964 80.1516,104.7074 C78.0816,104.7494 76.0106,104.7334 73.9406,104.7174 C73.5686,104.7144 73.3916,104.8194 73.2936,105.1924 C72.8936,106.7164 72.4606,108.2314 72.0426,109.7504 C72.0106,109.8674 72.0016,109.9894 71.9706,110.1794 L78.8806,110.1794 C78.6656,112.3724 77.4576,114.3624 75.1016,114.3694 C73.8346,114.3744 72.5666,114.3854 71.3006,114.3634 C70.9206,114.3564 70.7596,114.4794 70.6646,114.8484 C70.1796,116.7334 69.6576,118.6084 69.1706,120.4934 C69.0806,120.8404 68.9336,120.9704 68.5726,120.9634 C67.5066,120.9434 66.4396,120.9574 65.3736,120.9544 C65.2386,120.9544 65.1026,120.9364 64.9156,120.9224 C64.9606,120.7224 64.9916,120.5604 65.0336,120.4014 C66.7516,113.9684 68.4736,107.5374 70.1806,101.1024 C70.2906,100.6884 70.4616,100.5394 70.9056,100.5414 C75.0776,100.5594 79.2496,100.5514 83.4216,100.5534 C83.5736,100.5534 83.7246,100.5674 83.9326,100.5774" id="Fill-6" fill="#FFFFFF"></path>
            <path d="M140.5478,115.5027 C140.5478,115.6897 140.5488,115.7957 140.5478,115.9017 C140.5278,116.9527 140.8738,117.4397 141.8908,117.7087 C142.9368,117.9867 143.9858,117.9627 144.9698,117.4967 C145.3408,117.3207 145.6918,117.0117 145.9328,116.6777 C146.2838,116.1917 146.1798,115.6957 145.6448,115.4227 C145.0628,115.1237 144.4148,114.9497 143.7898,114.7407 C142.5768,114.3367 141.3188,114.0397 140.1548,113.5247 C138.5438,112.8137 138.0268,111.5257 138.4908,109.8207 C139.0288,107.8497 140.2618,106.4397 142.0968,105.5897 C144.2718,104.5827 146.5458,104.4577 148.8368,105.1067 C150.9488,105.7037 151.9338,107.4197 151.5108,109.5727 C151.4588,109.8367 151.3498,109.9407 151.0828,109.9357 C150.3108,109.9227 149.5378,109.9367 148.7658,109.9217 C148.1868,109.9107 147.7588,109.6367 147.5308,109.0997 C147.2268,108.3797 146.6648,108.0037 145.9148,107.9807 C145.2728,107.9597 144.6218,108.0097 143.9858,108.1007 C143.4938,108.1707 143.1118,108.4807 142.8618,108.9217 C142.5668,109.4447 142.6158,109.8117 143.1378,110.0967 C143.6478,110.3737 144.2048,110.5797 144.7618,110.7507 C145.7628,111.0587 146.7868,111.2907 147.7848,111.6057 C148.2668,111.7567 148.7308,111.9907 149.1708,112.2417 C150.2968,112.8797 150.7398,113.8047 150.5228,115.0747 C150.1038,117.5217 148.7498,119.2767 146.4558,120.2047 C144.0688,121.1687 141.5708,121.2797 139.0838,120.6677 C136.5578,120.0447 135.8888,118.0997 136.5288,115.7787 C136.5608,115.6677 136.7278,115.5167 136.8328,115.5147 C138.0508,115.4957 139.2678,115.5027 140.5478,115.5027" id="Fill-8" fill="#FFFFFF"></path>
            <path d="M132.6084,112.9519 C131.4304,113.2349 130.2944,113.5019 129.1604,113.7839 C128.7124,113.8949 128.2644,114.0139 127.8344,114.1759 C126.8924,114.5299 126.4084,115.2639 126.2394,116.2239 C126.0964,117.0389 126.4914,117.5979 127.3024,117.7039 C128.2924,117.8339 129.2374,117.6789 130.1164,117.1829 C131.7634,116.2559 132.2674,114.6609 132.6084,112.9519 M124.7484,109.0479 C125.1444,107.9909 125.7234,107.2439 126.4454,106.5989 C127.6764,105.5009 129.1394,104.9219 130.7634,104.7529 C132.1844,104.6059 133.6054,104.6509 134.9964,105.0129 C135.4114,105.1199 135.8254,105.2749 136.1994,105.4819 C137.3184,106.1009 137.9164,107.1089 137.6434,108.3389 C137.0384,111.0789 136.4874,113.8589 135.3204,116.4269 C134.1454,119.0109 131.9434,120.3449 129.1934,120.7529 C127.7914,120.9609 126.3654,121.1069 124.9534,120.7759 C124.5954,120.6919 124.2394,120.5649 123.9104,120.4029 C122.5294,119.7229 121.9754,118.6569 122.2324,117.0409 C122.3454,116.3299 122.5524,115.6239 122.8034,114.9469 C123.4394,113.2359 124.7624,112.2079 126.4444,111.7069 C127.7674,111.3129 129.1564,111.1399 130.5094,110.8429 C131.2304,110.6849 131.9484,110.5049 132.6474,110.2749 C132.9084,110.1889 133.1564,109.9689 133.3364,109.7499 C133.8714,109.1019 133.6534,108.4139 132.8534,108.1709 C131.8834,107.8749 130.9024,107.8359 129.9344,108.1559 C129.6214,108.2609 129.2924,108.4269 129.0654,108.6579 C128.7654,108.9649 128.4574,109.0639 128.0434,109.0559 C126.9814,109.0319 125.9184,109.0479 124.7484,109.0479" id="Fill-10" fill="#FFFFFF"></path>
            <path d="M97.8638,110.9236 C97.8648,108.6966 96.5288,107.7106 94.6558,108.2476 C93.6668,108.5306 92.9228,109.1086 92.3558,109.9396 C91.2738,111.5256 90.8488,113.3276 90.8088,115.2016 C90.7698,116.9936 92.1318,117.9726 93.8568,117.4366 C94.4118,117.2636 94.9628,116.9306 95.3948,116.5386 C97.1228,114.9726 97.5788,112.8446 97.8638,110.9236 M92.1798,120.8936 C91.0648,120.9016 90.0028,120.6816 88.9968,120.1906 C87.4208,119.4206 86.7048,118.0856 86.7038,116.4076 C86.7008,112.8636 87.7138,109.6516 90.2738,107.1056 C92.6468,104.7476 95.5638,104.1546 98.7518,104.9506 C100.6258,105.4186 101.5528,106.7956 101.8618,108.6486 C102.3888,111.8166 100.5808,117.6156 96.4968,119.8246 C95.1488,120.5546 93.6978,120.8576 92.1798,120.8936" id="Fill-12" fill="#FFFFFF"></path>
            <path d="M158.7226,105.2082 L161.0076,105.2082 C161.0516,106.6912 159.8776,107.9522 158.3886,108.0362 C158.0246,108.0562 157.8926,108.1832 157.8026,108.5202 C157.0956,111.1772 156.3686,113.8282 155.6496,116.4822 C155.4096,117.3682 155.6496,117.6802 156.5796,117.6952 C156.9326,117.7012 157.2846,117.6962 157.7206,117.6962 C157.4406,118.7172 157.1866,119.6662 156.9076,120.6072 C156.8826,120.6882 156.6886,120.7662 156.5746,120.7642 C155.2156,120.7412 153.8546,120.7412 152.4996,120.6552 C151.5396,120.5942 151.0296,119.9782 151.0506,119.0102 C151.0596,118.5832 151.1276,118.1462 151.2406,117.7332 C152.7546,112.1752 154.2856,106.6222 155.7956,101.0622 C155.9056,100.6592 156.0756,100.5112 156.4936,100.5422 C157.0156,100.5822 157.5426,100.5392 158.0686,100.5562 C159.0766,100.5892 159.7246,101.3992 159.4996,102.3852 C159.3316,103.1222 159.0986,103.8442 158.8946,104.5732 C158.8456,104.7492 158.7986,104.9262 158.7226,105.2082" id="Fill-14" fill="#FFFFFF"></path>
            <path d="M79.5381,120.9568 C79.8451,119.8198 80.1231,118.7788 80.4061,117.7388 C81.9081,112.2238 83.4161,106.7088 84.9011,101.1888 C85.0331,100.6968 85.2331,100.4938 85.7491,100.5418 C86.2401,100.5878 86.7381,100.5458 87.2321,100.5538 C88.3891,100.5708 89.0301,101.3858 88.7321,102.5118 C88.1371,104.7678 87.5161,107.0168 86.9031,109.2678 C85.8881,112.9948 84.8671,116.7198 83.8641,120.4498 C83.7621,120.8288 83.6061,120.9748 83.2031,120.9658 C82.0161,120.9398 80.8291,120.9568 79.5381,120.9568" id="Fill-16" fill="#FFFFFF"></path>
            <g id="Group-20" transform="translate(70.000000, 91.307200)">
                <mask id="mask-4" fill="white">
                    <use xlink:href="#path-3"></use>
                </mask>
                <g id="Clip-19"></g>
                <path d="M0.7812,6.505 C1.2592,5.046 1.7042,3.682 2.1502,2.319 C2.2992,1.864 2.4292,1.402 2.6112,0.96 C2.6632,0.835 2.8652,0.691 2.9972,0.693 C3.6302,0.701 4.2652,0.728 4.8932,0.8 C5.8742,0.914 6.4492,1.7 6.1802,2.654 C5.8372,3.871 5.4052,5.064 4.9952,6.262 C4.9602,6.364 4.8082,6.494 4.7082,6.495 C3.4282,6.51 2.1482,6.505 0.7812,6.505" id="Fill-18" fill="#FFFFFF" mask="url(#mask-4)"></path>
            </g>
        </g>
    </g>
</svg>