<?xml version="1.0" encoding="UTF-8"?>
<svg width="212px" height="212px" viewBox="0 0 212 212" version="1.1" xmlns="http://www.w3.org/2000/svg" xmlns:xlink="http://www.w3.org/1999/xlink">
    <!-- Generator: Sketch 51.2 (57519) - http://www.bohemiancoding.com/sketch -->
    <title>Logos-Hover</title>
    <desc>Created with Sketch.</desc>
    <defs>
        <polygon id="path-1" points="0 0.0790432759 19.9362909 0.0790432759 19.9362909 30.3781371 0 30.3781371"></polygon>
        <polygon id="path-3" points="0.258561778 0.00289655172 10.1872225 0.00289655172 10.1872225 30.3977172 0.258561778 30.3977172"></polygon>
        <polygon id="path-5" points="0.168635746 0.0388207448 10.0996364 0.0388207448 10.0996364 30.4166897 0.168635746 30.4166897"></polygon>
    </defs>
    <g id="Logos-Hover" stroke="none" stroke-width="1" fill="none" fill-rule="evenodd">
        <g id="gyft-exit">
            <rect id="Rectangle-Copy-2" fill="#DD4B4D" x="0" y="0" width="216" height="214"></rect>
            <g id="Group-3" transform="translate(74.000000, 96.583745)">
                <mask id="mask-2" fill="white">
                    <use xlink:href="#path-1"></use>
                </mask>
                <g id="Clip-2"></g>
                <path d="M9.94792727,15.3421655 C12.8119273,15.3494069 15.1304727,13.0278207 15.1246545,10.1645793 C15.1202909,7.31871724 12.7377455,4.91602759 9.94647273,4.93630345 C7.1552,4.95802759 4.87010909,7.27671724 4.83374545,10.121131 C4.79738182,13.0089931 7.07665455,15.3363724 9.94792727,15.3421655 M15.0853818,18.8918897 C12.3479273,20.3285793 9.66865455,20.6964414 6.87592727,19.7767862 C4.80756364,19.0960966 3.14647273,17.8462345 1.87956364,16.0909241 C-0.694981818,12.5238207 -0.614981818,7.49685517 2.05847273,3.99782069 C5.04465455,0.0889241379 9.21483636,-0.791627586 15.0112,1.32864828 C15.0882909,0.937613793 15.1624727,0.559613793 15.2541091,0.0816827586 C16.6548364,0.0816827586 18.0526545,0.0686482759 19.4504727,0.100510345 C19.6075636,0.103406897 19.7704727,0.34382069 19.9072,0.494441379 C19.9537455,0.54657931 19.9304727,0.663889655 19.9304727,0.750786207 C19.9101091,7.63588966 19.9872,14.5224414 19.8301091,21.4032 C19.7282909,25.8740276 15.6221091,29.8654759 11.1406545,30.3187862 C8.37265455,30.5968552 5.93192727,29.8987862 3.75592727,28.2043034 C3.57265455,28.0594759 3.39956364,27.9016138 3.22938182,27.7423034 C3.16829091,27.6843724 3.13047273,27.603269 3.07956364,27.5265103 C4.2272,26.4475448 5.36901818,25.3743724 6.56901818,24.2447172 C8.48465455,25.7567172 10.7173818,26.0869241 12.9806545,24.4836828 C14.8410182,23.1672 15.2759273,21.2366483 15.0853818,18.8918897" id="Fill-1" fill="#FFFFFF" mask="url(#mask-2)"></path>
            </g>
            <path d="M95.232,96.7006207 L99.9650909,96.7006207 C99.9810909,97.0337241 100.008727,97.3422069 100.010182,97.6506897 C100.013091,100.654414 99.9970909,103.659586 100.017455,106.66331 C100.034909,109.367241 102.027636,111.681586 104.488727,111.903172 C107.342545,112.159517 109.616,110.521517 110.212364,107.750966 C110.302545,107.329517 110.301091,106.882 110.302545,106.447517 C110.312727,103.297517 110.312727,100.147517 110.317091,96.9975172 C110.317091,96.9395862 110.338909,96.8831034 110.363636,96.7411724 L115.088,96.7411724 C115.105455,97.027931 115.137455,97.3088966 115.137455,97.5913103 C115.138909,104.036138 115.147636,110.483862 115.134545,116.930138 C115.124364,121.75 111.869091,125.750138 107.137455,126.776966 C106.551273,126.902966 105.943273,126.920345 105.278545,126.997103 L105.278545,122.198966 C109.144727,121.162 110.843636,118.886759 110.187636,115.590483 C109.969455,115.674483 109.752727,115.742552 109.550545,115.83669 C103.536,118.584069 96.9774545,115.410897 95.4487273,108.997931 C95.3090909,108.407034 95.2,107.791517 95.1956364,107.187586 C95.1709091,103.862345 95.1825455,100.537103 95.184,97.2133103 C95.184,97.0713793 95.2087273,96.9294483 95.232,96.7006207" id="Fill-4" fill="#FFFFFF"></path>
            <g id="Group-8" transform="translate(116.181818, 86.445814)">
                <mask id="mask-4" fill="white">
                    <use xlink:href="#path-3"></use>
                </mask>
                <g id="Clip-7"></g>
                <path d="M5.11970909,30.3977172 L0.3168,30.3977172 C0.299345455,30.092131 0.264436364,29.7850966 0.264436364,29.4795103 C0.261527273,23.0303379 0.251345455,16.5811655 0.267345455,10.1334414 C0.280436364,5.05868276 3.72043636,0.98757931 8.70370909,0.10557931 C10.0564364,-0.133386207 10.1713455,-0.0421448276 10.1713455,1.3004069 C10.1713455,2.20557931 10.1306182,3.1122 10.1829818,4.01447586 C10.2222545,4.66764828 9.99243636,4.93702759 9.33934545,5.0499931 C7.14298182,5.43088966 5.53861818,7.11668276 5.15170909,9.32675172 C5.04261818,9.9582 5.19534545,10.2420621 5.89934545,10.2232345 C7.27098182,10.184131 8.64698182,10.2116483 10.1509818,10.2116483 C10.1509818,11.7642 10.1698909,13.2414414 10.1204364,14.7172345 C10.1175273,14.8548207 9.70298182,15.0836483 9.47316364,15.0937862 C8.39098182,15.1343379 7.30589091,15.1068207 6.22225455,15.1169586 C5.87752727,15.1213034 5.53425455,15.1647517 5.11970909,15.1966138 L5.11970909,30.3977172 Z" id="Fill-6" fill="#FFFFFF" mask="url(#mask-4)"></path>
            </g>
            <g id="Group-11" transform="translate(127.363636, 86.445814)">
                <mask id="mask-6" fill="white">
                    <use xlink:href="#path-5"></use>
                </mask>
                <g id="Clip-10"></g>
                <path d="M0.233454545,0.042 C1.72,0.042 3.14981818,0.031862069 4.57672727,0.0477931034 C5.19636364,0.0550344828 5.02909091,0.556137931 5.03054545,0.896482759 C5.04363636,3.55117241 5.03781818,6.20586207 5.03927273,8.86055172 C5.03927273,10.2103448 5.04072727,10.2117931 6.35563636,10.2117931 L10.0952727,10.2117931 C10.0952727,11.7368276 10.1170909,13.2126207 10.0647273,14.684069 C10.0589091,14.8346897 9.62109091,15.0837931 9.37672727,15.0924828 C8.17672727,15.1373793 6.97381818,15.0866897 5.77527273,15.1431724 C5.52509091,15.1547586 5.08290909,15.471931 5.08,15.6558621 C5.04363636,17.3764138 4.94181818,19.1114483 5.13236364,20.8131724 C5.43927273,23.5591034 7.10763636,25.074 10.0385455,25.5273103 L10.0385455,30.4166897 C7.49745455,30.3297931 5.31709091,29.4796552 3.48581818,27.7938621 C1.38109091,25.856069 0.236363636,23.4186207 0.205818182,20.5886897 C0.137454545,13.9077931 0.184,7.22544828 0.185454545,0.544551724 C0.185454545,0.430137931 0.205818182,0.314275862 0.233454545,0.042" id="Fill-9" fill="#FFFFFF" mask="url(#mask-6)"></path>
            </g>
            <text id="EXIT" font-family="AvenirNext-Medium, Avenir Next" font-size="14" font-weight="400" line-spacing="27.6" letter-spacing="0.1166667" fill="#FFFFFF">
                <tspan x="91" y="183">EXIT</tspan>
            </text>
        </g>
    </g>
</svg>