<?xml version="1.0" encoding="UTF-8"?>
<svg width="212px" height="212px" viewBox="0 0 212 212" version="1.1" xmlns="http://www.w3.org/2000/svg" xmlns:xlink="http://www.w3.org/1999/xlink">
    <!-- Generator: Sketch 51.2 (57519) - http://www.bohemiancoding.com/sketch -->
    <title>Logos-Hover</title>
    <desc>Created with Sketch.</desc>
    <defs>
        <polygon id="path-1" points="0.790851064 0.315744681 6.24495198 0.315744681 6.24495198 14.8484827 0.790851064 14.8484827"></polygon>
    </defs>
    <g id="Logos-Hover" stroke="none" stroke-width="1" fill="none" fill-rule="evenodd">
        <g id="Jukin" transform="translate(-2.000000, -1.000000)">
            <rect id="Rectangle-Copy-2" fill="#EF4E37" x="0" y="0" width="216" height="214"></rect>
            <g id="Group" transform="translate(74.000000, 74.000000)">
                <path d="M34.7255106,22.0209149 C34.4484894,23.0724043 34.4544468,27.0936809 34.7493404,28.1570851 C35.1350851,28.1332553 35.5476383,28.1109149 35.933383,28.0885745 C36.1508298,26.4145319 36.0927447,22.9204894 35.8291277,22.0209149 L34.7255106,22.0209149 Z M41.5021064,26.9655957 L42.7844468,26.9655957 C42.9661489,27.3572979 43.1314681,27.711766 43.2878511,28.0498511 C43.7748723,28.1838936 44.193383,28.2941064 44.6461489,27.8234681 C44.0772128,25.9081489 43.4978511,23.9600638 42.917,22.0060213 L41.5363617,22.0060213 C40.800617,23.9675106 40.2078511,25.9334681 39.7521064,28.0707021 L41.0031702,28.0707021 C41.1878511,27.6596383 41.3338085,27.3334681 41.5021064,26.9655957 Z M21.9944468,22.0194255 L18.3395532,22.0194255 C17.9850851,23.112617 17.9955106,27.0758085 18.3678511,28.1332553 C19.5131702,28.1764468 20.694234,28.2360213 21.9691277,28.0781489 C21.9363617,27.6715532 21.9140213,27.3781489 21.884234,26.995383 C21.1038085,26.9313404 20.4023191,26.8747447 19.6844468,26.8166596 L19.6844468,25.5715532 C20.3814681,25.525383 21.0055106,25.4836809 21.723383,25.4360213 C21.6891277,25.0294255 21.6638085,24.7404894 21.6399787,24.4381489 C20.9131702,24.3934681 20.2846596,24.3547447 19.5995532,24.3130426 C19.6308298,23.9213404 19.6576383,23.6175106 19.6844468,23.2898511 C20.3874255,23.252617 21.023383,23.2198511 21.7710426,23.1796383 C21.8425319,22.8132553 21.9035957,22.4915532 21.9944468,22.0194255 Z M30.494234,23.1394255 C30.1591277,22.3977234 29.6765745,22.0566596 29.1016809,22.0179362 C28.1067872,21.9509149 27.1059362,21.9985745 26.0201915,21.9985745 C25.6404043,23.7381489 25.9084894,25.4285745 25.8459362,27.0996383 C25.8340213,27.431766 25.9799787,27.7683617 26.0618936,28.1407021 C27.1044468,28.1407021 28.0323191,28.201766 28.9482766,28.1258085 C29.9729574,28.0409149 30.4704043,27.4660213 30.4882766,26.4666596 C30.5121064,25.299 30.494234,24.1313404 30.494234,23.1394255 Z M13.8729574,28.099 C14.1067872,26.5307021 14.0531702,22.9204894 13.7910426,22.025383 L12.6501915,22.025383 C12.1616809,23.1498511 11.6984894,24.216234 11.1921064,25.3794255 C10.6589149,24.1849574 10.1718936,23.0977234 9.65657447,21.9464468 C9.22168085,21.9821915 8.8463617,22.0119787 8.35785106,22.0521915 C8.34593617,24.1224043 8.31168085,26.0764468 8.38317021,28.082617 L9.78168085,28.082617 L9.78168085,25.6936809 C10.3044468,26.365383 10.2761489,27.2321915 11.0982766,27.3349574 C11.9814681,27.3379362 12.0038085,26.5024043 12.4267872,26.0064468 C12.5057234,26.7436809 12.5757234,27.4049574 12.6516809,28.099 L13.8729574,28.099 Z M0.00104255319,64.2160213 L0.00104255319,15.9636809 C1.76444681,14.8079362 3.60529787,13.6030426 5.57423404,12.3132553 C5.63082979,12.7138936 5.70976596,13.0058085 5.7082766,13.2992128 C5.68593617,16.1438936 7.26912766,17.7136809 9.95444681,18.1247447 C11.2680638,18.3258085 12.6055106,18.2975106 13.9191277,17.9594255 C16.0414681,17.4143191 16.984234,15.7849574 16.9157234,14.1049574 C16.774234,10.6392128 16.6952979,7.17197872 16.580617,3.7077234 C16.5701915,3.34878723 16.494234,2.99134043 16.4287021,2.47751064 C17.2761489,1.91751064 18.1682766,1.32921277 19.2167872,0.639638298 C19.3046596,1.34857447 19.4163617,1.89070213 19.4312553,2.43878723 C19.483383,4.09197872 19.467,5.74665957 19.5325319,7.40134043 C19.6218936,9.65325532 19.7484894,11.9051702 19.887,14.1555957 C19.9987021,16.0024043 21.1321064,17.076234 22.7540213,17.6868723 C24.4950851,18.3421915 26.3121064,18.336234 28.1231702,18.0800638 C28.7144468,17.9981489 29.3131702,17.8328298 29.8567872,17.5900638 C31.6529574,16.7932553 32.4318936,15.4021915 32.3335957,13.4392128 C32.1712553,10.2192128 32.0431702,6.99921277 31.9061489,3.77921277 C31.889766,3.37708511 31.9031702,2.97644681 31.9031702,2.48793617 C32.7848723,1.90857447 33.6814681,1.32325532 34.7374255,0.630702128 C34.8252979,1.80878723 34.9310426,2.79921277 34.9682766,3.79261702 C35.0844468,6.89495745 35.1678511,9.99878723 35.2780638,13.1011277 C35.3212553,14.3477234 35.389766,15.5958085 35.4701915,16.8409149 C35.4925319,17.1849574 35.5938085,17.5230426 35.6831702,17.9877234 L37.0831702,17.9877234 L38.9955106,17.9877234 C39.0580638,17.442617 39.1563617,17.0196383 39.1444468,16.6011277 C39.0952979,14.9494255 39.0089149,13.3007021 38.9404043,11.649 C38.9284894,11.3764468 38.9389149,11.1024043 38.9389149,10.5468723 C40.9004043,13.1636809 42.7010426,15.569 44.489766,17.9534681 C45.8480638,17.9713404 47.0738085,18.0860213 48.2638085,17.8864468 C48.4648723,17.1745319 48.0016809,16.8587872 47.7321064,16.4983617 C46.1667872,14.3968723 44.5687021,12.316234 42.9855106,10.2281489 C42.7174255,9.87517021 42.4552979,9.51623404 42.1350851,9.08282979 C42.6712553,8.21751064 43.213383,7.33729787 43.7629574,6.46006383 C44.2991277,5.60517021 44.8635957,4.76814894 45.3699787,3.8983617 C45.8495532,3.07623404 46.454234,2.41346809 47.2882766,1.9383617 C47.9838085,1.53921277 48.6376383,1.06559574 49.4404043,0.539851064 C49.4776383,1.83857447 49.4955106,3.01814894 49.5476383,4.1977234 C49.669766,6.97240426 49.8231702,9.74708511 49.9363617,12.5232553 C49.9959362,13.9336809 49.9855106,15.3485745 50.0361489,16.759 C50.0510426,17.1358085 50.1761489,17.5081489 50.2595532,17.9221915 L53.5465745,17.9221915 C53.6121064,17.6064468 53.7208298,17.3398511 53.7118936,17.0777234 C53.6701915,15.6687872 53.5987021,14.2613404 53.5361489,12.8524043 C53.5346596,12.8107021 53.5301915,12.7719787 53.5301915,12.731766 C53.4229574,9.38665957 53.3157234,6.04155319 53.2055106,2.58325532 C54.1780638,1.93985106 55.1729574,1.27857447 56.233383,0.575595745 C56.5387021,6.35729787 56.6652979,12.0630426 56.9572128,17.8328298 C58.074234,18.0904894 59.0631702,17.986234 60.174234,17.9281489 C60.2591277,17.6421915 60.4229574,17.3502766 60.4155106,17.0628298 C60.3752979,15.4915532 60.2978511,13.9232553 60.223383,12.3534681 C60.1593404,10.9638936 60.0818936,9.57729787 59.997,7.93602128 C62.1312553,11.4151702 64.1299787,14.6724043 66.1421064,17.9504894 L68.5280638,17.9504894 C45.5725319,33.4487872 22.8418936,48.7951702 0.00104255319,64.2160213 Z" id="Fill-1" fill="#FFFFFF"></path>
                <path d="M9.22451064,11.742234 C8.49621277,11.6632979 7.9466383,11.6037234 7.32259574,11.5352128 C7.28834043,11.285 7.22876596,11.0198936 7.21834043,10.7518085 C7.14387234,8.6637234 7.07685106,6.57414894 7.00238298,4.32223404 C8.81344681,3.12925532 10.6840851,1.89904255 12.6425957,0.609255319 C12.7274894,1.66670213 12.8362128,2.64670213 12.8734468,3.62819149 C12.9911064,6.72457447 13.0968511,9.82095745 13.1757872,12.9173404 C13.2249362,14.7596809 12.6798298,15.2318085 10.8806809,14.9994681 C9.91259574,14.8743617 9.48365957,14.4215957 9.3853617,13.4192553 C9.33621277,12.9098936 9.28855319,12.4005319 9.22451064,11.742234" id="Fill-3" fill="#FFFFFF"></path>
                <g id="Group-7" transform="translate(22.340426, 0.174064)">
                    <mask id="mask-2" fill="white">
                        <use xlink:href="#path-1"></use>
                    </mask>
                    <g id="Clip-6"></g>
                    <path d="M5.85021277,0.315 C5.85021277,1.1162766 5.83382979,1.71946809 5.85319149,2.32117021 C5.95,5.57691489 6.05723404,8.83265957 6.16297872,12.0884043 C6.17191489,12.3281915 6.20170213,12.5679787 6.22702128,12.807766 C6.3506383,13.9620213 5.83531915,14.6411702 4.67361702,14.7960638 C4.23723404,14.8541489 3.78893617,14.8571277 3.34808511,14.837766 C1.75446809,14.7707447 1.17361702,14.1928723 1.12595745,12.6215957 C1.08425532,11.2111702 1.09021277,9.80223404 1.03659574,8.39478723 C0.977021277,6.82946809 0.875744681,5.26712766 0.790851064,3.65414894 C2.43510638,2.56989362 4.03914894,1.50946809 5.85021277,0.315" id="Fill-5" fill="#FFFFFF" mask="url(#mask-2)"></path>
                </g>
                <path d="M65.6166596,10.5495532 C64.1019787,8.06380851 62.661766,5.69721277 61.1604894,3.23678723 C62.5068723,2.35061702 63.8085745,1.49423404 65.2115532,0.570829787 C65.3470851,3.93231915 65.4811277,7.19848936 65.6166596,10.5495532" id="Fill-8" fill="#FFFFFF"></path>
                <path d="M38.789234,8.00721277 L38.789234,3.81465957 C40.0581702,2.99104255 41.4254043,2.10338298 42.865617,1.16806383 C42.6213617,2.13614894 40.3322128,5.95785106 38.789234,8.00721277" id="Fill-10" fill="#FFFFFF"></path>
                <path d="M27.4139362,23.3153191 L28.858617,23.3153191 C29.0790426,24.4859574 28.9747872,25.5880851 28.9345745,26.8048936 C28.3879787,26.8317021 27.9337234,26.8555319 27.4139362,26.8823404 L27.4139362,23.3153191 Z" id="Fill-12" fill="#FFFFFF"></path>
                <path d="M41.8042979,25.6570426 C41.9338723,25.0374681 42.0277021,24.5847021 42.1572766,23.9651277 C42.2838723,24.5817234 42.3777021,25.033 42.4819574,25.5438511 C42.2838723,25.576617 42.1408936,25.6004468 41.8042979,25.6570426" id="Fill-14" fill="#FFFFFF"></path>
            </g>
        </g>
    </g>
</svg>