<?xml version="1.0" encoding="UTF-8"?>
<svg width="212px" height="212px" viewBox="0 0 212 212" version="1.1" xmlns="http://www.w3.org/2000/svg" xmlns:xlink="http://www.w3.org/1999/xlink">
    <!-- Generator: Sketch 51.2 (57519) - http://www.bohemiancoding.com/sketch -->
    <title>Logos</title>
    <desc>Created with Sketch.</desc>
    <defs>
        <polygon id="path-1" points="0.592330855 0.0780703682 11.6243355 0.0780703682 11.6243355 13.4810127 0.592330855 13.4810127"></polygon>
        <polygon id="path-3" points="0.69155064 0.109506333 8.70167742 0.109506333 8.70167742 13.4611783 0.69155064 13.4611783"></polygon>
    </defs>
    <g id="Logos" stroke="none" stroke-width="1" fill="none" fill-rule="evenodd">
        <g id="miso-robotics" transform="translate(36.000000, 71.000000)">
            <path d="M69.4076466,43.2251078 C76.4947313,43.0498767 82.5418051,40.8692226 86.780475,34.9449943 C90.4008566,29.8845317 90.15783,24.0930543 85.8476817,19.6733357 C83.6836727,17.4537414 81.2784241,15.2854774 78.5908357,13.8092879 C74.0698261,11.3277318 70.8515105,8.24614194 70.6227796,2.78388666 C70.6102709,2.48298472 70.0777567,2.04048186 69.7167907,1.94844127 C68.6696319,1.68116954 68.2693528,2.21925302 68.1782179,3.27594984 C67.8011692,7.56645755 65.8569564,10.6533575 61.9220697,12.8464016 C58.7251977,14.6270331 55.7516956,17.0165486 53.1498814,19.6096153 C48.0820619,24.666538 48.9201463,30.6845768 52.7335196,35.6972492 C56.9096459,41.1878247 62.8459282,43.0852769 69.4076466,43.2251078 M68.6785667,44.9367089 C62.3795315,44.809268 55.9214569,42.642774 51.3164601,36.6034951 C46.904455,30.8173277 46.2236231,23.6045311 52.2724839,17.7971236 C55.061929,15.1173263 58.3302794,12.8605617 61.637943,10.8321286 C64.343401,9.17539794 65.8962695,7.07262436 66.3090573,4.00696456 C66.3984054,3.32905018 66.5467231,2.65821585 66.6199884,1.97676145 C66.775454,0.564292331 67.4777294,-0.141942229 68.9519717,0.0262088565 C69.386203,0.0757691765 69.8347301,0.0686891308 70.2707484,0.0208988222 C71.7950256,-0.145482252 72.3757877,0.695273177 72.5294663,2.05464195 C72.6116665,2.78211665 72.7474754,3.50605133 72.8600539,4.229986 C73.2978592,7.0478442 74.5594532,9.19840808 77.2148763,10.5967171 C80.7637795,12.4676192 84.0464257,14.7686341 86.868036,17.6785328 C92.6917398,23.6859516 92.4165479,30.4527053 87.5989028,36.743326 C83.4942549,42.1011506 77.273846,44.802188 68.6785667,44.9367089" id="Fill-1" fill="#404041"></path>
            <path d="M6.9602066,69.0165276 C7.55230447,67.1063814 8.13042954,65.1889026 8.74348663,63.2842559 C9.35305052,61.3796091 9.99754644,59.4877945 10.6280695,57.5923135 C10.7520782,57.5886472 10.8743403,57.5849809 11.0000956,57.5831477 C11.8489439,61.9222226 12.6995388,66.2631307 13.5483871,70.6022056 C13.3807134,70.6443682 13.2130396,70.6846976 13.0436193,70.7268601 C12.3537117,67.0440542 11.660311,63.3630815 10.9704034,59.6821088 L10.6018705,59.6564446 C9.37051654,63.4364076 8.13916255,67.220037 6.90780856,71 C6.80126587,70.9926674 6.69472318,70.9871679 6.5881805,70.9816685 C5.37953233,67.2310359 4.16913755,63.4822365 2.96223598,59.7352702 C2.82774767,59.7352702 2.69325937,59.7371034 2.55702446,59.7371034 C1.87235671,63.3832462 1.18594235,67.0257227 0.501274603,70.6700323 C0.333600868,70.6352024 0.165927133,70.5967062 0,70.5600431 C0.838368674,66.2301339 1.68023055,61.902058 2.52034583,57.573982 C2.64784773,57.5556504 2.77534963,57.5354857 2.90285153,57.5189873 C4.11324631,61.353945 5.32364108,65.1907358 6.53228925,69.0275266 C6.67551057,69.0238603 6.81698528,69.020194 6.9602066,69.0165276" id="Fill-3" fill="#404041"></path>
            <path d="M79.2432055,58.0538139 C79.2432055,59.8055032 79.2099337,61.2852885 79.272975,62.7615878 C79.2817308,63.0300058 79.6704853,63.5110668 79.8806229,63.5093238 C81.2517706,63.497123 82.65619,63.5319825 83.9853102,63.2478776 C85.2303754,62.9829455 85.5928627,61.8395543 85.5595909,60.6456169 C85.5263191,59.4656232 84.9571965,58.5296459 83.7804261,58.3466336 C82.344486,58.1252759 80.8735229,58.1479346 79.2432055,58.0538139 M79.248459,66.7599711 C79.248459,67.3351526 79.2799796,67.9120771 79.2414544,68.4855157 C79.1854177,69.3151715 79.4463385,69.7299994 80.360437,69.6742242 C81.3078072,69.6149631 82.2656844,69.7108267 83.2165569,69.6689953 C84.7277963,69.6010193 85.7487147,68.6545842 85.943092,67.2201163 C86.133967,65.8292227 85.3371953,64.6457431 83.8382139,64.241373 C83.2515798,64.0827624 82.6159137,64.0775335 82.0012613,64.0723045 C79.2554636,64.0461599 79.2554636,64.0548748 79.248459,66.7599711 M84.7785796,63.4378619 C85.3564579,64.1594533 86.0201424,64.7520645 86.3861321,65.4928287 C87.245945,67.237546 86.3283442,69.4127781 84.3880739,69.829349 C82.7367428,70.1814298 80.9838451,70.0873092 79.2764773,70.0960241 C79.0523306,70.097767 78.6320554,69.5365293 78.626802,69.2297658 C78.5760187,65.675841 78.5567561,62.1184302 78.6232997,58.5645054 C78.6303043,58.2228824 79.2326987,57.6564158 79.6144486,57.6023836 C80.5968418,57.4629456 81.6142579,57.5361505 82.6159137,57.5553233 C84.3635579,57.5866968 85.5700978,58.3152601 86.0236447,59.6712942 C86.5227215,61.1667662 86.1094509,62.4025351 84.843372,63.3489702 C84.7400544,63.427404 84.6857688,63.5790428 84.7785796,63.4378619" id="Fill-5" fill="#404041"></path>
            <path d="M52.1951748,61.373057 C52.1951748,62.0423237 52.2392588,62.7150581 52.1841538,63.3808571 C52.1033331,64.3448786 52.4266159,64.8043492 53.5268794,64.7211244 C54.5720379,64.6431011 55.6337279,64.7558014 56.6807232,64.6847135 C58.4881678,64.5668116 59.8694669,63.1467871 59.9025299,61.4701527 C59.935593,59.8490014 58.5102098,58.4012354 56.7101126,58.2469226 C56.3115196,58.2139794 55.909253,58.2313179 55.5088232,58.2313179 C52.204359,58.2434549 52.204359,58.2434549 52.1951748,61.373057 M57.4448462,65.1961997 C58.3632631,66.793077 59.2394329,68.3136648 60.1137659,69.8359865 C59.9649823,69.924413 59.8125251,70.0128394 59.6637415,70.1012658 C59.2302487,69.433733 58.7618561,68.7852725 58.3669368,68.1004011 C56.4896925,64.8407601 56.495203,64.8199539 52.2117063,65.3522463 C52.1106804,65.3643833 52.2135431,66.805214 52.1951748,67.5923826 C52.1768065,68.3622127 52.127212,69.1303089 52.0886384,69.8984052 C51.9508759,69.9018729 51.8131134,69.9036067 51.6753508,69.9070744 C51.6202458,69.5672395 51.5155463,69.2256708 51.5155463,68.8858359 C51.5008516,65.5343008 51.5339146,62.1827657 51.4843201,58.8312306 C51.4696254,57.832532 51.8131134,57.4562863 52.8711297,57.5273742 C53.9695564,57.6019298 55.0771672,57.5256403 56.1811044,57.5429788 C58.3485685,57.5776559 59.9172246,58.6422407 60.3764331,60.3691569 C60.8705414,62.2261119 60.045803,63.7935138 58.0307962,64.8442278 C57.9022178,64.9101142 57.7828236,64.9916052 57.4448462,65.1961997" id="Fill-7" fill="#404041"></path>
            <path d="M69.1464825,58.0861601 C65.6572173,58.1317077 62.9726007,60.882783 62.9983789,64.3844829 C63.0223158,67.8716075 65.7916323,70.5224781 69.3379778,70.4532457 C72.6099695,70.391301 75.3369361,67.5509524 75.2890622,64.2605934 C75.2411884,60.8354135 72.4608241,58.0406125 69.1464825,58.0861601 M75.8709133,64.249662 C75.8856437,67.9608808 72.9082602,70.9706665 69.1943563,70.999817 C65.4325786,71.0271456 62.3355106,67.9900313 62.3226215,64.2624153 C62.3097324,60.6240726 65.3515614,57.5669174 69.0341632,57.5195479 C72.8474973,57.4721784 75.8561829,60.4327727 75.8709133,64.249662" id="Fill-9" fill="#404041"></path>
            <path d="M43.5932967,64.2868208 C43.5932967,60.854723 40.9145336,58.1134193 37.5248539,58.0806111 C34.1351741,58.0459803 31.3299851,60.8966446 31.3483077,64.3524371 C31.3684626,67.749904 34.1003612,70.4456409 37.5230216,70.4419956 C40.9640046,70.4401729 43.5914645,67.7754215 43.5932967,64.2868208 M37.5321829,70.9997342 C33.8694965,71.0325424 30.771146,68.0233053 30.7106815,64.3761319 C30.6465524,60.625066 33.6624512,57.5520352 37.4350732,57.5192271 C41.1069208,57.4882416 44.1777875,60.4646705 44.2565746,64.1337161 C44.3353618,67.8446832 41.2791532,70.9651034 37.5321829,70.9997342" id="Fill-11" fill="#404041"></path>
            <path d="M101.454283,64.4429301 C101.51805,60.9210631 99.0655849,58.1629965 95.7996526,58.0791425 C92.690554,57.9989344 90.0019765,60.777053 89.9571668,64.1184517 C89.9106338,67.6166209 92.3958445,70.3838021 95.654883,70.4548957 C98.8639416,70.5278122 101.390515,67.906464 101.454283,64.4429301 M89.4194513,64.2497014 C89.4366858,60.423408 92.2372874,57.4739355 95.8065464,57.5195084 C99.2810158,57.5669041 102.086788,60.5892931 102.064383,64.2624618 C102.038531,68.0450053 99.2034607,71.0145298 95.6428189,70.9999465 C92.1769667,70.9835403 89.4004934,67.9739117 89.4194513,64.2497014" id="Fill-13" fill="#404041"></path>
            <g id="Group-17" transform="translate(117.419355, 57.518987)">
                <mask id="mask-2" fill="white">
                    <use xlink:href="#path-1"></use>
                </mask>
                <g id="Clip-16"></g>
                <path d="M11.6243355,11.3941519 C10.7771097,13.5043797 6.79930323,13.9034177 4.7544,13.0873671 C1.95259355,11.9729367 0.346658065,9.31627848 0.623045161,6.10959494 C0.866916129,3.28037975 3.29659355,0.623721519 6.04781935,0.179746835 C8.49917419,-0.215696203 10.7464,0.555417722 11.5322065,2.26481013 C8.09091613,0.125822785 4.93323871,-0.0143797468 2.37530323,3.26060759 C0.651948387,5.4643038 0.847045161,8.52718987 2.58485161,10.7236962 C4.52317419,13.175443 6.68910968,13.3551899 11.6243355,11.3941519" id="Fill-15" fill="#404041" mask="url(#mask-2)"></path>
            </g>
            <g id="Group-20" transform="translate(130.967742, 57.518987)">
                <mask id="mask-4" fill="white">
                    <use xlink:href="#path-3"></use>
                </mask>
                <g id="Clip-19"></g>
                <path d="M0.9072,11.627643 C1.78694194,12.0105038 2.63778065,12.5443519 3.55726452,12.7294911 C4.3828129,12.8948582 5.43055484,12.9397949 6.1115871,12.5569342 C6.86126452,12.1345291 7.70668387,11.1962506 7.77171613,10.4197443 C7.83494194,9.64323797 7.1755871,8.52341519 6.49274839,8.03270633 C5.39803871,7.24541519 4.00887742,6.88052911 2.77326452,6.27657975 C1.15287742,5.4838962 0.461006452,4.20949114 0.759070968,2.71579494 C1.02100645,1.4000481 2.45171613,0.242478481 4.00707097,0.138225316 C5.35649032,0.0483518987 6.68061935,0.0950860759 7.59649032,1.40544051 C6.96061935,1.20592152 6.32655484,0.862605063 5.68526452,0.837440506 C4.72965161,0.803288608 3.68010323,0.779921519 2.82745806,1.13402278 C1.08061935,1.86199747 0.889135484,4.07647848 2.37945806,5.25382025 C2.83649032,5.61511139 3.37842581,5.88113671 3.91313548,6.12199747 C4.54178065,6.4042 5.2155871,6.5857443 5.84784516,6.85536456 C8.22332903,7.8637443 9.14100645,9.35384557 8.50694194,11.1333392 C7.90539355,12.821162 5.56603871,13.8942506 3.52474839,13.2920987 C2.54203871,13.0009089 1.63339355,12.4490861 0.692232258,12.0176937 C0.764490323,11.8882759 0.834941935,11.7570608 0.9072,11.627643" id="Fill-18" fill="#404041" mask="url(#mask-4)"></path>
            </g>
            <path d="M20.7741935,69.0657802 C21.9255059,69.5710747 22.7578241,70.1995234 23.6286416,70.252045 C24.756121,70.3226776 26.0485975,70.1940901 27.0257464,69.6833623 C28.5143859,68.9027819 28.5473853,66.9703474 27.2072431,65.9144812 C26.4390904,65.3059544 25.4986075,64.9038922 24.609457,64.4619859 C23.9861351,64.1541003 23.294981,63.9784245 22.6734923,63.6687278 C21.4011821,63.0294126 20.6715288,62.0097681 20.7998597,60.5373508 C20.911691,59.213443 22.103336,57.9963896 23.5186436,57.6631488 C25.2052795,57.2647087 26.9304148,57.6939373 28.0212283,58.9291017 C27.1834102,58.6701156 26.5564216,58.3477413 25.9129333,58.3042751 C24.9907834,58.2408869 23.9219696,58.123166 23.1611501,58.5107396 C22.4296634,58.8820133 21.6321779,59.8328363 21.5625125,60.5934947 C21.4946804,61.3414754 22.1125025,62.4444301 22.7706572,62.9044473 C23.8523042,63.6596724 25.2181126,64.0001576 26.4464236,64.5561626 C28.221058,65.356665 29.0992086,66.6733284 28.8663795,68.1059017 C28.6280505,69.5638303 27.2035765,70.7428508 25.4051092,70.9674261 C23.8358045,71.1612129 22.0263374,70.4856758 20.7741935,69.0657802" id="Fill-21" fill="#404041"></path>
            <path d="M111.974199,57.9878152 L108.253384,57.9878152 L108.253384,70.0411143 C108.050665,70.0623443 107.847946,70.081805 107.643384,70.1012658 C107.595469,69.1724559 107.527282,68.2454151 107.505167,67.3166052 C107.481209,66.2922605 107.499638,65.2661467 107.499638,64.2418021 C107.499638,63.2156882 107.499638,62.1913436 107.501481,61.1652297 L107.501481,57.9082029 L103.870968,57.9082029 L103.880182,57.5189873 L112,57.5189873 C111.990785,57.6746736 111.983414,57.832129 111.974199,57.9878152" id="Fill-23" fill="#404041"></path>
            <path d="M114.709677,70.099457 L114.709677,57.5189873 C114.807226,57.5207962 114.901161,57.5207962 114.99871,57.5207962 L114.99871,70.1012658 C114.901161,70.1012658 114.807226,70.099457 114.709677,70.099457" id="Fill-25" fill="#404041"></path>
            <path d="M17.4575484,57.5189873 L17.4575484,70.0976492 C17.3581935,70.0976492 17.2606452,70.0994575 17.1612903,70.1012658 L17.1612903,57.5262206 C17.2606452,57.5244123 17.3581935,57.522604 17.4575484,57.5189873" id="Fill-27" fill="#404041"></path>
            <path d="M64.7650927,15.9392291 C66.3895438,13.9605552 68.4799088,13.0103647 70.9558578,13.7096622 C73.6674415,14.4783556 76.3540336,15.4125317 78.949585,16.5175285 C82.1020911,17.8609627 84.030011,20.1972926 84.078209,23.8734978 C84.0960601,25.1831237 84.4352312,26.5016465 84.7244192,27.7916992 C85.2278205,30.0408393 84.6530148,31.9785874 83.1927939,33.6796775 C81.2684442,35.9234795 78.9763617,37.5889819 76.0577051,38.3042939 C71.907322,39.322101 67.7373026,40.0071634 63.4708872,39.1672947 C57.7014084,38.0284895 53.4224972,33.421667 53.2939692,28.1885016 C53.2475563,26.2703267 53.627785,24.4856056 55.3825491,23.3290066 L55.3557725,23.2987571 C55.268302,23.5194006 55.2272445,23.7774111 55.0862207,23.9535701 C53.6492063,25.7454087 53.3689439,27.7685672 53.9294687,29.9340763 C55.2272445,34.9715096 58.6992854,37.6761717 63.5440768,38.713552 C68.0568375,39.6815363 72.469632,38.8363294 76.8235178,37.6067758 C79.4654821,36.8594349 81.4416,35.131654 83.1249597,33.0248646 C84.2977777,31.5568736 84.6690808,29.9091649 84.3013479,28.0425922 C83.9889535,26.4553825 83.7069059,24.8521585 83.5765928,23.2418169 C83.371305,20.7168724 82.212768,18.7826831 80.0385027,17.6652306 C78.0088315,16.6260709 75.7970789,15.9588023 73.7067139,15.0317437 C70.5774143,13.643825 67.6087746,13.4480929 64.8775547,15.9160971 C64.8525632,15.9392291 64.7847289,15.9143177 64.7347458,15.9107589 L64.7650927,15.9392291 Z" id="Fill-31" fill="#404041"></path>
            <path d="M55.1241914,23.3670886 C56.042668,22.5375542 56.9251596,21.6580062 57.8864756,20.8853837 C59.670308,19.4505133 61.4986934,18.0708302 63.3150838,16.6790749 C63.5635522,16.4910931 63.8582873,16.3617478 64.1290323,16.2048089 L64.101615,16.1772152 C61.6991818,19.3435878 58.1503663,21.0164536 55.0967742,23.3360457 L55.1241914,23.3670886 Z" id="Fill-33" fill="#404041"></path>
            <path d="M67.4881873,35.4393309 C68.486836,35.298257 69.8265724,35.1608004 71.1434525,34.9039737 C72.0823229,34.7213011 73.0194352,34.4500052 73.9108346,34.0918947 C77.348085,32.7046685 78.6579323,30.1870428 77.9529004,26.4540116 C77.8702657,26.0145123 77.7929056,25.5659698 77.7929056,25.1210446 C77.7893892,22.9090789 76.7133804,21.4042911 74.8514632,20.5560394 C73.2761301,19.836201 71.6128877,19.3243561 69.9936,18.7021842 C68.6099089,18.1704443 67.3739053,18.412802 66.2082291,19.3478684 C64.3146646,20.8707426 62.3876946,22.3502094 60.4870974,23.865849 C57.9148737,25.9150371 57.4559876,28.5031997 59.224721,31.3518064 C61.0743309,34.3306351 63.917315,35.2964484 67.4881873,35.4393309 M67.8556478,35.9493671 C63.5463381,35.6889231 60.4589664,34.6019309 58.6603439,31.1221092 C57.1219326,28.1505151 57.6740024,25.6437413 60.2216115,23.5927445 C62.0026522,22.1621109 63.7942421,20.7459465 65.5418773,19.2737142 C67.0046866,18.0402223 68.5483725,17.5934884 70.3610605,18.3350305 C72.0084792,19.0096529 73.7438071,19.4835164 75.3296894,20.2811262 C77.1757829,21.2125754 78.2711317,22.8041778 78.2306935,25.0667854 C78.2219026,25.4610687 78.2992627,25.8625866 78.3731064,26.2532527 C79.1713221,30.4456782 77.6768654,33.3413094 73.7191925,34.6598074 C71.5917895,35.3706026 69.3272481,35.6364725 67.8556478,35.9493671" id="Fill-35" fill="#404041"></path>
            <path d="M72.9358641,29.6328983 C71.3759917,31.6613534 69.1410559,31.5131476 67.0189244,31.3970828 C65.3162841,31.3060166 64.0842493,30.2650049 63.45325,28.5776016 C63.0055578,27.3812417 63.204728,26.3366587 64.1759028,25.5152772 C65.2545942,24.609972 66.3332856,23.7010955 67.4648541,22.870786 C69.1216677,21.6547842 73.3253916,23.3886134 73.621503,25.4813506 C73.8224357,26.9062689 74.8394372,28.6115283 72.8829871,29.6864666 C73.9528657,28.3508289 73.5263243,26.8616286 73.1896739,25.4509952 C72.7349314,23.5511041 68.8149809,22.3493873 67.3485246,23.5725314 C66.5306932,24.2546352 65.6811356,24.9010267 64.8421534,25.5563463 C63.5026019,26.6027149 63.2082531,27.9472806 64.3063328,29.2597054 C64.9214689,29.9953775 65.8644426,30.6292697 66.7739275,30.8828266 C68.973612,31.5024339 71.0375787,30.8667561 72.9358641,29.6328983" id="Fill-37" fill="#404041"></path>
        </g>
    </g>
</svg>