<?xml version="1.0" encoding="UTF-8"?>
<svg width="212px" height="212px" viewBox="0 0 212 212" version="1.1" xmlns="http://www.w3.org/2000/svg" xmlns:xlink="http://www.w3.org/1999/xlink">
    <!-- Generator: Sketch 51.2 (57519) - http://www.bohemiancoding.com/sketch -->
    <title>Logos-Hover</title>
    <desc>Created with Sketch.</desc>
    <defs>
        <polygon id="path-1" points="0.592330855 0.0780703682 11.6243355 0.0780703682 11.6243355 13.4810127 0.592330855 13.4810127"></polygon>
        <polygon id="path-3" points="0.69155064 0.109506333 8.70167742 0.109506333 8.70167742 13.4611783 0.69155064 13.4611783"></polygon>
    </defs>
    <g id="Logos-Hover" stroke="none" stroke-width="1" fill="none" fill-rule="evenodd">
        <g id="miso-robotics">
            <rect id="Rectangle-Copy-2" fill="#745F68" x="0" y="0" width="216" height="214"></rect>
            <path d="M105.407647,114.225108 C112.494731,114.049877 118.541805,111.869223 122.780475,105.944994 C126.400857,100.884532 126.15783,95.0930543 121.847682,90.6733357 C119.683673,88.4537414 117.278424,86.2854774 114.590836,84.8092879 C110.069826,82.3277318 106.851511,79.2461419 106.62278,73.7838867 C106.610271,73.4829847 106.077757,73.0404819 105.716791,72.9484413 C104.669632,72.6811695 104.269353,73.219253 104.178218,74.2759498 C103.801169,78.5664575 101.856956,81.6533575 97.9220697,83.8464016 C94.7251977,85.6270331 91.7516956,88.0165486 89.1498814,90.6096153 C84.0820619,95.666538 84.9201463,101.684577 88.7335196,106.697249 C92.9096459,112.187825 98.8459282,114.085277 105.407647,114.225108 M104.678567,115.936709 C98.3795315,115.809268 91.9214569,113.642774 87.3164601,107.603495 C82.904455,101.817328 82.2236231,94.6045311 88.2724839,88.7971236 C91.061929,86.1173263 94.3302794,83.8605617 97.637943,81.8321286 C100.343401,80.1753979 101.896269,78.0726244 102.309057,75.0069646 C102.398405,74.3290502 102.546723,73.6582159 102.619988,72.9767615 C102.775454,71.5642923 103.477729,70.8580578 104.951972,71.0262089 C105.386203,71.0757692 105.83473,71.0686891 106.270748,71.0208988 C107.795026,70.8545177 108.375788,71.6952732 108.529466,73.054642 C108.611666,73.7821167 108.747475,74.5060513 108.860054,75.229986 C109.297859,78.0478442 110.559453,80.1984081 113.214876,81.5967171 C116.76378,83.4676192 120.046426,85.7686341 122.868036,88.6785328 C128.69174,94.6859516 128.416548,101.452705 123.598903,107.743326 C119.494255,113.101151 113.273846,115.802188 104.678567,115.936709" id="Fill-1" fill="#FFFFFF"></path>
            <path d="M42.9602066,140.016528 C43.5523045,138.106381 44.1304295,136.188903 44.7434866,134.284256 C45.3530505,132.379609 45.9975464,130.487794 46.6280695,128.592313 C46.7520782,128.588647 46.8743403,128.584981 47.0000956,128.583148 C47.8489439,132.922223 48.6995388,137.263131 49.5483871,141.602206 C49.3807134,141.644368 49.2130396,141.684698 49.0436193,141.72686 C48.3537117,138.044054 47.660311,134.363081 46.9704034,130.682109 L46.6018705,130.656445 C45.3705165,134.436408 44.1391625,138.220037 42.9078086,142 C42.8012659,141.992667 42.6947232,141.987168 42.5881805,141.981668 C41.3795323,138.231036 40.1691376,134.482236 38.962236,130.73527 C38.8277477,130.73527 38.6932594,130.737103 38.5570245,130.737103 C37.8723567,134.383246 37.1859424,138.025723 36.5012746,141.670032 C36.3336009,141.635202 36.1659271,141.596706 36,141.560043 C36.8383687,137.230134 37.6802306,132.902058 38.5203458,128.573982 C38.6478477,128.55565 38.7753496,128.535486 38.9028515,128.518987 C40.1132463,132.353945 41.3236411,136.190736 42.5322893,140.027527 C42.6755106,140.02386 42.8169853,140.020194 42.9602066,140.016528" id="Fill-3" fill="#FFFFFF"></path>
            <path d="M115.243206,129.053814 C115.243206,130.805503 115.209934,132.285288 115.272975,133.761588 C115.281731,134.030006 115.670485,134.511067 115.880623,134.509324 C117.251771,134.497123 118.65619,134.531982 119.98531,134.247878 C121.230375,133.982946 121.592863,132.839554 121.559591,131.645617 C121.526319,130.465623 120.957197,129.529646 119.780426,129.346634 C118.344486,129.125276 116.873523,129.147935 115.243206,129.053814 M115.248459,137.759971 C115.248459,138.335153 115.27998,138.912077 115.241454,139.485516 C115.185418,140.315172 115.446339,140.729999 116.360437,140.674224 C117.307807,140.614963 118.265684,140.710827 119.216557,140.668995 C120.727796,140.601019 121.748715,139.654584 121.943092,138.220116 C122.133967,136.829223 121.337195,135.645743 119.838214,135.241373 C119.25158,135.082762 118.615914,135.077533 118.001261,135.072305 C115.255464,135.04616 115.255464,135.054875 115.248459,137.759971 M120.77858,134.437862 C121.356458,135.159453 122.020142,135.752065 122.386132,136.492829 C123.245945,138.237546 122.328344,140.412778 120.388074,140.829349 C118.736743,141.18143 116.983845,141.087309 115.276477,141.096024 C115.052331,141.097767 114.632055,140.536529 114.626802,140.229766 C114.576019,136.675841 114.556756,133.11843 114.6233,129.564505 C114.630304,129.222882 115.232699,128.656416 115.614449,128.602384 C116.596842,128.462946 117.614258,128.536151 118.615914,128.555323 C120.363558,128.586697 121.570098,129.31526 122.023645,130.671294 C122.522721,132.166766 122.109451,133.402535 120.843372,134.34897 C120.740054,134.427404 120.685769,134.579043 120.77858,134.437862" id="Fill-5" fill="#FFFFFF"></path>
            <path d="M88.1951748,132.373057 C88.1951748,133.042324 88.2392588,133.715058 88.1841538,134.380857 C88.1033331,135.344879 88.4266159,135.804349 89.5268794,135.721124 C90.5720379,135.643101 91.6337279,135.755801 92.6807232,135.684713 C94.4881678,135.566812 95.8694669,134.146787 95.9025299,132.470153 C95.935593,130.849001 94.5102098,129.401235 92.7101126,129.246923 C92.3115196,129.213979 91.909253,129.231318 91.5088232,129.231318 C88.204359,129.243455 88.204359,129.243455 88.1951748,132.373057 M93.4448462,136.1962 C94.3632631,137.793077 95.2394329,139.313665 96.1137659,140.835987 C95.9649823,140.924413 95.8125251,141.012839 95.6637415,141.101266 C95.2302487,140.433733 94.7618561,139.785272 94.3669368,139.100401 C92.4896925,135.84076 92.495203,135.819954 88.2117063,136.352246 C88.1106804,136.364383 88.2135431,137.805214 88.1951748,138.592383 C88.1768065,139.362213 88.127212,140.130309 88.0886384,140.898405 C87.9508759,140.901873 87.8131134,140.903607 87.6753508,140.907074 C87.6202458,140.56724 87.5155463,140.225671 87.5155463,139.885836 C87.5008516,136.534301 87.5339146,133.182766 87.4843201,129.831231 C87.4696254,128.832532 87.8131134,128.456286 88.8711297,128.527374 C89.9695564,128.60193 91.0771672,128.52564 92.1811044,128.542979 C94.3485685,128.577656 95.9172246,129.642241 96.3764331,131.369157 C96.8705414,133.226112 96.045803,134.793514 94.0307962,135.844228 C93.9022178,135.910114 93.7828236,135.991605 93.4448462,136.1962" id="Fill-7" fill="#FFFFFF"></path>
            <path d="M105.146483,129.08616 C101.657217,129.131708 98.9726007,131.882783 98.9983789,135.384483 C99.0223158,138.871608 101.791632,141.522478 105.337978,141.453246 C108.609969,141.391301 111.336936,138.550952 111.289062,135.260593 C111.241188,131.835414 108.460824,129.040612 105.146483,129.08616 M111.870913,135.249662 C111.885644,138.960881 108.90826,141.970667 105.194356,141.999817 C101.432579,142.027146 98.3355106,138.990031 98.3226215,135.262415 C98.3097324,131.624073 101.351561,128.566917 105.034163,128.519548 C108.847497,128.472178 111.856183,131.432773 111.870913,135.249662" id="Fill-9" fill="#FFFFFF"></path>
            <path d="M79.5932967,135.286821 C79.5932967,131.854723 76.9145336,129.113419 73.5248539,129.080611 C70.1351741,129.04598 67.3299851,131.896645 67.3483077,135.352437 C67.3684626,138.749904 70.1003612,141.445641 73.5230216,141.441996 C76.9640046,141.440173 79.5914645,138.775421 79.5932967,135.286821 M73.5321829,141.999734 C69.8694965,142.032542 66.771146,139.023305 66.7106815,135.376132 C66.6465524,131.625066 69.6624512,128.552035 73.4350732,128.519227 C77.1069208,128.488242 80.1777875,131.464671 80.2565746,135.133716 C80.3353618,138.844683 77.2791532,141.965103 73.5321829,141.999734" id="Fill-11" fill="#FFFFFF"></path>
            <path d="M137.454283,135.44293 C137.51805,131.921063 135.065585,129.162996 131.799653,129.079143 C128.690554,128.998934 126.001976,131.777053 125.957167,135.118452 C125.910634,138.616621 128.395845,141.383802 131.654883,141.454896 C134.863942,141.527812 137.390515,138.906464 137.454283,135.44293 M125.419451,135.249701 C125.436686,131.423408 128.237287,128.473936 131.806546,128.519508 C135.281016,128.566904 138.086788,131.589293 138.064383,135.262462 C138.038531,139.045005 135.203461,142.01453 131.642819,141.999947 C128.176967,141.98354 125.400493,138.973912 125.419451,135.249701" id="Fill-13" fill="#FFFFFF"></path>
            <g id="Group-17" transform="translate(153.419355, 128.518987)">
                <mask id="mask-2" fill="white">
                    <use xlink:href="#path-1"></use>
                </mask>
                <g id="Clip-16"></g>
                <path d="M11.6243355,11.3941519 C10.7771097,13.5043797 6.79930323,13.9034177 4.7544,13.0873671 C1.95259355,11.9729367 0.346658065,9.31627848 0.623045161,6.10959494 C0.866916129,3.28037975 3.29659355,0.623721519 6.04781935,0.179746835 C8.49917419,-0.215696203 10.7464,0.555417722 11.5322065,2.26481013 C8.09091613,0.125822785 4.93323871,-0.0143797468 2.37530323,3.26060759 C0.651948387,5.4643038 0.847045161,8.52718987 2.58485161,10.7236962 C4.52317419,13.175443 6.68910968,13.3551899 11.6243355,11.3941519" id="Fill-15" fill="#FFFFFF" mask="url(#mask-2)"></path>
            </g>
            <g id="Group-20" transform="translate(166.967742, 128.518987)">
                <mask id="mask-4" fill="white">
                    <use xlink:href="#path-3"></use>
                </mask>
                <g id="Clip-19"></g>
                <path d="M0.9072,11.627643 C1.78694194,12.0105038 2.63778065,12.5443519 3.55726452,12.7294911 C4.3828129,12.8948582 5.43055484,12.9397949 6.1115871,12.5569342 C6.86126452,12.1345291 7.70668387,11.1962506 7.77171613,10.4197443 C7.83494194,9.64323797 7.1755871,8.52341519 6.49274839,8.03270633 C5.39803871,7.24541519 4.00887742,6.88052911 2.77326452,6.27657975 C1.15287742,5.4838962 0.461006452,4.20949114 0.759070968,2.71579494 C1.02100645,1.4000481 2.45171613,0.242478481 4.00707097,0.138225316 C5.35649032,0.0483518987 6.68061935,0.0950860759 7.59649032,1.40544051 C6.96061935,1.20592152 6.32655484,0.862605063 5.68526452,0.837440506 C4.72965161,0.803288608 3.68010323,0.779921519 2.82745806,1.13402278 C1.08061935,1.86199747 0.889135484,4.07647848 2.37945806,5.25382025 C2.83649032,5.61511139 3.37842581,5.88113671 3.91313548,6.12199747 C4.54178065,6.4042 5.2155871,6.5857443 5.84784516,6.85536456 C8.22332903,7.8637443 9.14100645,9.35384557 8.50694194,11.1333392 C7.90539355,12.821162 5.56603871,13.8942506 3.52474839,13.2920987 C2.54203871,13.0009089 1.63339355,12.4490861 0.692232258,12.0176937 C0.764490323,11.8882759 0.834941935,11.7570608 0.9072,11.627643" id="Fill-18" fill="#FFFFFF" mask="url(#mask-4)"></path>
            </g>
            <path d="M56.7741935,140.06578 C57.9255059,140.571075 58.7578241,141.199523 59.6286416,141.252045 C60.756121,141.322678 62.0485975,141.19409 63.0257464,140.683362 C64.5143859,139.902782 64.5473853,137.970347 63.2072431,136.914481 C62.4390904,136.305954 61.4986075,135.903892 60.609457,135.461986 C59.9861351,135.1541 59.294981,134.978424 58.6734923,134.668728 C57.4011821,134.029413 56.6715288,133.009768 56.7998597,131.537351 C56.911691,130.213443 58.103336,128.99639 59.5186436,128.663149 C61.2052795,128.264709 62.9304148,128.693937 64.0212283,129.929102 C63.1834102,129.670116 62.5564216,129.347741 61.9129333,129.304275 C60.9907834,129.240887 59.9219696,129.123166 59.1611501,129.51074 C58.4296634,129.882013 57.6321779,130.832836 57.5625125,131.593495 C57.4946804,132.341475 58.1125025,133.44443 58.7706572,133.904447 C59.8523042,134.659672 61.2181126,135.000158 62.4464236,135.556163 C64.221058,136.356665 65.0992086,137.673328 64.8663795,139.105902 C64.6280505,140.56383 63.2035765,141.742851 61.4051092,141.967426 C59.8358045,142.161213 58.0263374,141.485676 56.7741935,140.06578" id="Fill-21" fill="#FFFFFF"></path>
            <path d="M147.974199,128.987815 L144.253384,128.987815 L144.253384,141.041114 C144.050665,141.062344 143.847946,141.081805 143.643384,141.101266 C143.595469,140.172456 143.527282,139.245415 143.505167,138.316605 C143.481209,137.292261 143.499638,136.266147 143.499638,135.241802 C143.499638,134.215688 143.499638,133.191344 143.501481,132.16523 L143.501481,128.908203 L139.870968,128.908203 L139.880182,128.518987 L148,128.518987 C147.990785,128.674674 147.983414,128.832129 147.974199,128.987815" id="Fill-23" fill="#FFFFFF"></path>
            <path d="M150.709677,141.099457 L150.709677,128.518987 C150.807226,128.520796 150.901161,128.520796 150.99871,128.520796 L150.99871,141.101266 C150.901161,141.101266 150.807226,141.099457 150.709677,141.099457" id="Fill-25" fill="#FFFFFF"></path>
            <path d="M53.4575484,128.518987 L53.4575484,141.097649 C53.3581935,141.097649 53.2606452,141.099458 53.1612903,141.101266 L53.1612903,128.526221 C53.2606452,128.524412 53.3581935,128.522604 53.4575484,128.518987" id="Fill-27" fill="#FFFFFF"></path>
            <path d="M100.765093,86.9392291 C102.389544,84.9605552 104.479909,84.0103647 106.955858,84.7096622 C109.667441,85.4783556 112.354034,86.4125317 114.949585,87.5175285 C118.102091,88.8609627 120.030011,91.1972926 120.078209,94.8734978 C120.09606,96.1831237 120.435231,97.5016465 120.724419,98.7916992 C121.227821,101.040839 120.653015,102.978587 119.192794,104.679678 C117.268444,106.923479 114.976362,108.588982 112.057705,109.304294 C107.907322,110.322101 103.737303,111.007163 99.4708872,110.167295 C93.7014084,109.02849 89.4224972,104.421667 89.2939692,99.1885016 C89.2475563,97.2703267 89.627785,95.4856056 91.3825491,94.3290066 L91.3557725,94.2987571 C91.268302,94.5194006 91.2272445,94.7774111 91.0862207,94.9535701 C89.6492063,96.7454087 89.3689439,98.7685672 89.9294687,100.934076 C91.2272445,105.97151 94.6992854,108.676172 99.5440768,109.713552 C104.056837,110.681536 108.469632,109.836329 112.823518,108.606776 C115.465482,107.859435 117.4416,106.131654 119.12496,104.024865 C120.297778,102.556874 120.669081,100.909165 120.301348,99.0425922 C119.988953,97.4553825 119.706906,95.8521585 119.576593,94.2418169 C119.371305,91.7168724 118.212768,89.7826831 116.038503,88.6652306 C114.008831,87.6260709 111.797079,86.9588023 109.706714,86.0317437 C106.577414,84.643825 103.608775,84.4480929 100.877555,86.9160971 C100.852563,86.9392291 100.784729,86.9143177 100.734746,86.9107589 L100.765093,86.9392291 Z" id="Fill-31" fill="#FFFFFF"></path>
            <path d="M91.1241914,94.3670886 C92.042668,93.5375542 92.9251596,92.6580062 93.8864756,91.8853837 C95.670308,90.4505133 97.4986934,89.0708302 99.3150838,87.6790749 C99.5635522,87.4910931 99.8582873,87.3617478 100.129032,87.2048089 L100.101615,87.1772152 C97.6991818,90.3435878 94.1503663,92.0164536 91.0967742,94.3360457 L91.1241914,94.3670886 Z" id="Fill-33" fill="#FFFFFF"></path>
            <path d="M103.488187,106.439331 C104.486836,106.298257 105.826572,106.1608 107.143453,105.903974 C108.082323,105.721301 109.019435,105.450005 109.910835,105.091895 C113.348085,103.704668 114.657932,101.187043 113.9529,97.4540116 C113.870266,97.0145123 113.792906,96.5659698 113.792906,96.1210446 C113.789389,93.9090789 112.71338,92.4042911 110.851463,91.5560394 C109.27613,90.836201 107.612888,90.3243561 105.9936,89.7021842 C104.609909,89.1704443 103.373905,89.412802 102.208229,90.3478684 C100.314665,91.8707426 98.3876946,93.3502094 96.4870974,94.865849 C93.9148737,96.9150371 93.4559876,99.5031997 95.224721,102.351806 C97.0743309,105.330635 99.917315,106.296448 103.488187,106.439331 M103.855648,106.949367 C99.5463381,106.688923 96.4589664,105.601931 94.6603439,102.122109 C93.1219326,99.1505151 93.6740024,96.6437413 96.2216115,94.5927445 C98.0026522,93.1621109 99.7942421,91.7459465 101.541877,90.2737142 C103.004687,89.0402223 104.548372,88.5934884 106.36106,89.3350305 C108.008479,90.0096529 109.743807,90.4835164 111.329689,91.2811262 C113.175783,92.2125754 114.271132,93.8041778 114.230693,96.0667854 C114.221903,96.4610687 114.299263,96.8625866 114.373106,97.2532527 C115.171322,101.445678 113.676865,104.341309 109.719193,105.659807 C107.59179,106.370603 105.327248,106.636473 103.855648,106.949367" id="Fill-35" fill="#FFFFFF"></path>
            <path d="M108.935864,100.632898 C107.375992,102.661353 105.141056,102.513148 103.018924,102.397083 C101.316284,102.306017 100.084249,101.265005 99.45325,99.5776016 C99.0055578,98.3812417 99.204728,97.3366587 100.175903,96.5152772 C101.254594,95.609972 102.333286,94.7010955 103.464854,93.870786 C105.121668,92.6547842 109.325392,94.3886134 109.621503,96.4813506 C109.822436,97.9062689 110.839437,99.6115283 108.882987,100.686467 C109.952866,99.3508289 109.526324,97.8616286 109.189674,96.4509952 C108.734931,94.5511041 104.814981,93.3493873 103.348525,94.5725314 C102.530693,95.2546352 101.681136,95.9010267 100.842153,96.5563463 C99.5026019,97.6027149 99.2082531,98.9472806 100.306333,100.259705 C100.921469,100.995377 101.864443,101.62927 102.773928,101.882827 C104.973612,102.502434 107.037579,101.866756 108.935864,100.632898" id="Fill-37" fill="#FFFFFF"></path>
        </g>
    </g>
</svg>