<?xml version="1.0" encoding="UTF-8"?>
<svg width="212px" height="212px" viewBox="0 0 212 212" version="1.1" xmlns="http://www.w3.org/2000/svg" xmlns:xlink="http://www.w3.org/1999/xlink">
    <!-- Generator: Sketch 51.2 (57519) - http://www.bohemiancoding.com/sketch -->
    <title>Logos</title>
    <desc>Created with Sketch.</desc>
    <defs>
        <polygon id="path-1" points="0 0.446740741 32.6639779 0.446740741 32.6639779 35.6290815 0 35.6290815"></polygon>
        <polygon id="path-3" points="0 36.5533963 118.842256 36.5533963 118.842256 1.37050741 0 1.37050741"></polygon>
    </defs>
    <g id="Logos" stroke="none" stroke-width="1" fill="none" fill-rule="evenodd">
        <g id="pixalate" transform="translate(47.000000, 88.000000)">
            <g id="Group-3" transform="translate(0.000000, 0.923767)">
                <mask id="mask-2" fill="white">
                    <use xlink:href="#path-1"></use>
                </mask>
                <g id="Clip-2"></g>
                <path d="M3.54495465,35.6290815 C3.33878023,35.5701556 3.13122209,35.5126 2.92504767,35.4509333 C1.19401279,34.9384148 -0.000138372093,33.3570074 -0.000138372093,31.5686741 C-0.00152209302,21.3457111 -0.000138372093,11.1241185 -0.000138372093,0.902525926 L-0.000138372093,0.446192593 L32.6639779,0.446192593 L32.6639779,0.998451852 L32.6639779,31.2781556 C32.6639779,33.5050074 31.4670593,35.0220074 29.2904663,35.5564519 C29.2365012,35.5701556 29.1880709,35.6044148 29.1368733,35.6290815 L11.7863965,35.6290815 C11.7767105,35.5304148 11.7587221,35.4303778 11.7587221,35.3317111 C11.7559547,32.4827111 11.7559547,29.6337111 11.7587221,26.7860815 C11.7587221,26.6791926 11.7836291,26.5723037 11.8030012,26.4256741 C11.9815012,26.5092667 12.1226407,26.5723037 12.2610128,26.6408222 C17.0805128,29.0471926 22.7897453,27.9796741 26.37635,23.9973778 C28.5418733,21.5910074 29.4094663,18.7516 29.2392686,15.5654889 C29.078757,12.5684889 27.8901407,10.0374148 25.7176988,7.95719259 C23.2989547,5.63852593 20.3903733,4.6546 17.044536,4.75052593 C12.4824081,4.88071111 8.31740814,7.73656296 6.63895465,11.9422296 C6.02319884,13.486637 5.82947791,15.0940815 5.82809419,16.7344148 C5.82532674,22.8339333 5.82809419,28.9320815 5.82532674,35.0302296 C5.82532674,35.2303037 5.81010581,35.4290074 5.80041977,35.6290815 L3.54495465,35.6290815 Z" id="Fill-1" fill="#404041" mask="url(#mask-2)"></path>
            </g>
            <path d="M110.613129,17.5765074 L115.530873,17.5765074 C114.988455,16.6309519 114.226024,16.1746185 113.188234,16.1472111 C112.072955,16.1198037 111.216431,16.5405074 110.613129,17.5765074 Z M118.840734,19.6279519 C118.674687,19.6800259 118.508641,19.7773222 118.342594,19.7786926 C115.872652,19.7882852 113.401327,19.7855444 110.930001,19.7855444 L110.37928,19.7855444 C110.682315,20.6762852 111.239955,21.260063 112.063269,21.5478407 C113.265722,21.9699148 114.336722,21.7177667 115.263815,20.7352111 C115.856048,21.5163222 116.438594,22.2837296 117.037745,23.0716926 C116.174303,23.8952852 115.175257,24.3762852 114.018466,24.5736185 C111.150013,25.0642111 108.314769,23.3252111 107.528815,20.5803593 C106.662606,17.5477296 108.305083,14.4356185 111.262094,13.5092481 C114.304897,12.5568407 117.534501,14.1149519 118.539083,17.0269889 C118.656699,17.3723222 118.741106,17.7286185 118.840734,18.0808037 L118.840734,19.6279519 Z" id="Fill-4" fill="#404041"></path>
            <path d="M44.7863419,21.7317444 C46.3444116,21.7290037 47.5911442,20.5011519 47.6008302,18.9581148 C47.6105163,17.3821889 46.3457953,16.1420037 44.7365279,16.1488556 C43.1867605,16.1557074 41.9289581,17.3890407 41.9068186,18.9211148 C41.8846791,20.4600407 43.1909116,21.7344852 44.7863419,21.7317444 M41.8985163,23.9298185 L41.8985163,30.4103 L39.0134581,30.4103 C39.0037721,30.2705222 38.9857837,30.1225222 38.9857837,29.9731519 C38.9830163,26.3498926 38.9760977,22.7280037 38.9871674,19.1047444 C38.994086,16.2488926 40.6711558,14.0521889 43.3112953,13.4026333 C46.446807,12.6311148 49.6376674,14.4920778 50.3668884,17.5178556 C51.1224,20.6560037 49.2668302,23.7626333 46.1797488,24.479337 C44.865214,24.7835593 43.5672837,24.6848926 42.3274698,24.1134481 C42.2112372,24.0600037 42.0922372,24.0120407 41.8985163,23.9298185" id="Fill-6" fill="#404041"></path>
            <path d="M72.3932349,16.1485815 C70.8116419,16.1485815 69.5676767,17.3832852 69.566293,18.9537296 C69.5649093,20.4871741 70.8531535,21.7602481 72.4098395,21.7616185 C73.9789791,21.7629889 75.2395488,20.5186926 75.2478512,18.9592111 C75.2547698,17.3545074 74.0301767,16.1485815 72.3932349,16.1485815 M80.5059907,24.309137 C79.4834209,24.309137 78.5328047,24.3159889 77.5821884,24.2968037 C77.4853279,24.2954333 77.3455721,24.1556556 77.301293,24.0487667 C77.1241767,23.6266926 76.9775023,23.1936556 76.8045372,22.7153963 C76.5734558,22.9264333 76.3755837,23.125137 76.1624907,23.3046556 C74.376107,24.7873963 72.3420372,25.0642111 70.2346302,24.2433593 C68.138293,23.4279889 66.9192349,21.815063 66.685386,19.5608037 C66.3782,16.6008037 68.2586767,14.0395815 71.1866302,13.379063 C74.0121884,12.7404704 76.8142233,14.2711741 77.8340256,17.0242481 C78.7223744,19.4223963 79.596886,21.8273963 80.5059907,24.309137" id="Fill-8" fill="#404041"></path>
            <path d="M91.7531512,16.1485815 C90.167407,16.1431 88.9192907,17.3641 88.9109884,18.929063 C88.902686,20.4748407 90.1729419,21.7547667 91.7227093,21.7616185 C93.3112209,21.7684704 94.5925465,20.5091 94.5911628,18.9386556 C94.5911628,17.3682111 93.3555,16.1554333 91.7531512,16.1485815 M99.8091744,24.309137 C98.8184302,24.309137 97.8830349,24.3187296 96.9448721,24.2968037 C96.8369419,24.2954333 96.6833488,24.1501741 96.6335349,24.035063 C96.4536512,23.6171 96.3097442,23.1854333 96.1340116,22.7126556 C96.0039419,22.8305074 95.9001628,22.9182111 95.8033023,23.014137 C94.0681163,24.7284704 91.3491047,25.1683593 89.1586744,24.0898778 C86.8824535,22.9716556 85.6772326,20.6146185 86.0536047,18.0163963 C86.3829302,15.7265074 88.2841628,13.8025074 90.6572442,13.3543963 C93.4080814,12.8350259 96.0565233,14.2177296 97.0680233,16.7953963 C98.0131047,19.203137 98.864093,21.6492481 99.7538256,24.0775444 C99.7731977,24.1282481 99.7801163,24.1844333 99.8091744,24.309137" id="Fill-10" fill="#404041"></path>
            <path d="M66.8799372,24.3105074 C66.0621581,24.3105074 65.3149488,24.3146185 64.5691233,24.309137 C64.0806698,24.3050259 63.5022744,24.4448037 63.1259023,24.2323963 C62.750914,24.0227296 62.5737977,23.4608778 62.3178093,23.0470259 C61.9345186,22.4248778 61.5595302,21.7972481 61.1803907,21.1723593 C61.1665535,21.149063 61.1374953,21.1367296 61.0918326,21.0997296 C60.5009837,22.0507667 59.9004488,22.9922111 59.3262047,23.9473593 C59.1684605,24.2104704 58.9982628,24.3242111 58.6772395,24.3187296 C57.5688791,24.2981741 56.4563674,24.3105074 55.2497628,24.3105074 C55.3784488,24.1145444 55.4642395,23.9788778 55.5569488,23.8486926 C56.7497163,22.1946556 57.9369488,20.5378778 59.1394023,18.892063 C59.3123674,18.6577296 59.319286,18.5028778 59.1477047,18.2616926 C58.1016116,16.7858037 57.0762744,15.2975815 56.0440186,13.8121 C55.9333209,13.6517667 55.8295419,13.4859519 55.6773326,13.2557296 C56.6251814,13.2557296 57.5079953,13.3187667 58.3755884,13.2365444 C59.1311,13.1652852 59.557286,13.4297667 59.8962977,14.0806926 C60.2699023,14.7987667 60.7528209,15.4592852 61.223286,16.1992852 C61.7947628,15.3236185 62.3524023,14.5109889 62.8616116,13.6682111 C63.0608674,13.3393222 63.2836465,13.2365444 63.6586349,13.246137 C64.6673674,13.2721741 65.6788674,13.2557296 66.7637047,13.2557296 C66.6557744,13.4229148 66.5865884,13.5407667 66.5077163,13.6503963 C65.4104256,15.1783593 64.3200535,16.709063 63.2089256,18.226063 C63.0179721,18.4878037 63.0027512,18.6549889 63.1937047,18.9276926 C64.3394256,20.5611741 65.4616233,22.2097296 66.5907395,23.8541741 C66.677914,23.9802481 66.7540186,24.1104333 66.8799372,24.3105074" id="Fill-12" fill="#404041"></path>
            <path d="M100.114977,7.46331111 L103.001419,7.46331111 L103.001419,13.242163 L105.8505,13.242163 L105.8505,15.7019778 L103.009721,15.7019778 L103.009721,16.3309778 C103.009721,17.0449407 103.008337,17.7616444 103.009721,18.4769778 C103.013872,20.1145704 104.012919,21.2204593 105.666465,21.4205333 C105.723198,21.4260148 105.778547,21.4424593 105.851884,21.4575333 L105.851884,24.3668296 C105.234744,24.2640519 104.634209,24.2229407 104.066884,24.0584963 C101.808651,23.4075704 100.119128,21.249237 100.096988,18.9196074 C100.065163,15.1839778 100.088686,11.4469778 100.088686,7.71134815 C100.088686,7.64145926 100.103907,7.5702 100.114977,7.46331111" id="Fill-14" fill="#404041"></path>
            <mask id="mask-4" fill="white">
                <use xlink:href="#path-3"></use>
            </mask>
            <g id="Clip-17"></g>
            <polygon id="Fill-16" fill="#404041" mask="url(#mask-4)" points="81.6160116 24.2872111 84.4678605 24.2872111 84.4678605 7.46317407 81.6160116 7.46317407"></polygon>
            <polygon id="Fill-18" fill="#404041" mask="url(#mask-4)" points="51.6003372 24.2858407 54.4563372 24.2858407 54.4563372 13.2749148 51.6003372 13.2749148"></polygon>
            <path d="M54.7440128,10.7822111 C54.7495477,11.7949148 54.0217105,12.5376556 53.0254314,12.5390259 C52.0291523,12.5390259 51.272257,11.7853222 51.2736407,10.7972852 C51.2750244,9.83665556 52.0222337,9.09528519 53.0046756,9.0761 C53.9580593,9.05691481 54.7398616,9.82432222 54.7440128,10.7822111" id="Fill-19" fill="#404041" mask="url(#mask-4)"></path>
            <path d="M21.27125,13.8708889 C21.2491105,13.8462222 21.2269709,13.8229259 21.2048314,13.7996296 C20.4839128,14.2436296 19.7533081,14.6766667 19.044843,15.1398519 C18.6698547,15.3837778 18.3170058,15.5838519 17.854843,15.3837778 C17.7441453,15.3358148 17.5988547,15.3495185 17.4715523,15.3604815 C16.3784128,15.455037 15.6145988,16.3635926 15.73775,17.4187778 C15.8595174,18.4725926 16.8156686,19.1892963 17.8991221,19.0385556 C18.9106221,18.896037 19.5900291,17.9148519 19.4419709,16.8569259 C19.4142965,16.660963 19.4668779,16.4088148 19.5775756,16.2443704 C20.1255291,15.4413333 20.7039244,14.6602222 21.27125,13.8708889 M17.5601105,11.5207037 C20.829843,11.517963 23.3648198,14.0284815 23.3551337,17.2598148 C23.3454477,20.4651111 20.7966337,22.9756296 17.5628779,22.966037 C14.3111337,22.9578148 11.75125,20.424 11.7554012,17.2200741 C11.760936,14.033963 14.3180523,11.5248148 17.5601105,11.5207037" id="Fill-20" fill="#404041" mask="url(#mask-4)"></path>
        </g>
    </g>
</svg>