<?xml version="1.0" encoding="UTF-8"?>
<svg width="212px" height="212px" viewBox="0 0 212 212" version="1.1" xmlns="http://www.w3.org/2000/svg" xmlns:xlink="http://www.w3.org/1999/xlink">
    <!-- Generator: Sketch 51.2 (57519) - http://www.bohemiancoding.com/sketch -->
    <title>Logos</title>
    <desc>Created with Sketch.</desc>
    <defs>
        <polygon id="path-1" points="0.000446576379 0.98505 17.8426535 0.98505 17.8426535 30.0464901 0.000446576379 30.0464901"></polygon>
        <polygon id="path-3" points="0.213228982 0.67906527 11.2211628 0.67906527 11.2211628 16.594622 0.213228982 16.594622"></polygon>
    </defs>
    <g id="Logos" stroke="none" stroke-width="1" fill="none" fill-rule="evenodd">
        <g id="ranker" transform="translate(36.000000, 90.000000)">
            <path d="M45.0143953,12.90432 C45.0143953,13.45872 45.0290465,14.01477 45.0111395,14.56752 C44.9948605,15.08232 45.2081163,15.32322 45.7274186,15.29352 C46.6748605,15.24402 47.6255581,15.25887 48.5664884,15.15657 C50.1162558,14.98827 50.7397442,14.24412 50.6843953,12.75252 C50.6355581,11.40777 49.8704419,10.70982 48.3483488,10.63062 C48.0032326,10.61247 47.6581163,10.61082 47.313,10.61082 C45.0111395,10.60587 45.0111395,10.60587 45.0143953,12.90432 M58.3274186,27.13062 C55.7911395,27.13062 53.5218372,27.15537 51.2525349,27.10092 C50.9741628,27.09597 50.6095116,26.74287 50.4467209,26.45577 C49.3283488,24.48237 48.2523023,22.48257 47.1632326,20.49102 C46.8034651,19.83267 45.9797442,19.48617 45.3627674,19.82937 C45.1641628,19.93992 45.0323023,20.34582 45.0290465,20.61972 C44.9981163,22.45782 44.9867209,24.29757 45.0225349,26.13732 C45.038814,26.89467 44.7799767,27.17187 44.023,27.15372 C42.3820698,27.10752 40.7395116,27.12072 39.0969535,27.14712 C38.4702093,27.15867 38.2178837,26.92602 38.2195116,26.28252 C38.2292791,19.77327 38.2276512,13.26402 38.2211395,6.75147 C38.2211395,6.25317 38.3269535,5.87367 38.9195116,5.88687 C43.3490465,5.98257 47.785093,5.94132 52.2032326,6.22182 C55.1204419,6.40827 56.9746279,8.57307 57.4320698,11.65032 C57.8846279,14.68962 56.623,17.12502 53.9402093,18.39222 C53.787186,18.46482 53.6390465,18.55062 53.3443953,18.70572 C54.977186,21.46617 56.5904419,24.19527 58.3274186,27.13062" id="Fill-1" fill="#404041"></path>
            <path d="M111.534419,27.12435 C109.147907,27.12435 106.964884,27.1458 104.783488,27.09465 C104.532791,27.0897 104.220233,26.7267 104.057442,26.4561 C103.251628,25.1064 102.489767,23.7303 101.708372,22.36905 C101.555349,22.10175 101.377907,21.8493 101.190698,21.5556 C100.210698,22.2057 99.505814,22.8624 99.6767442,24.12465 C99.7744186,24.87045 99.68,25.641 99.6946512,26.4 C99.7044186,26.9115 99.4993023,27.14415 98.98,27.14085 C97.3683721,27.12765 95.7551163,27.1293 94.1402326,27.1392 C93.6795349,27.1425 93.4369767,26.9511 93.4304651,26.47425 C93.4288372,26.29935 93.4190698,26.1261 93.4190698,25.94955 C93.4190698,19.701 93.4174419,13.45245 93.4206977,7.2039 C93.4206977,6.0291 93.4467442,6.006 94.5634884,6.00435 C95.9748837,6.00105 97.387907,6.0291 98.7993023,5.9928 C99.4716279,5.97795 99.7093023,6.22545 99.7027907,6.90855 C99.6783721,9.47925 99.6946512,12.0483 99.6946512,14.61735 L99.6946512,15.8301 C100.384884,15.09255 100.996977,14.5728 101.446279,13.93425 C102.789302,12.02025 104.523023,11.26455 106.846047,11.57805 C108.216744,11.7645 109.633023,11.61435 111.026512,11.61435 C111.054186,11.6886 111.08186,11.76285 111.107907,11.8371 C110.796977,12.1605 110.495814,12.49545 110.173488,12.804 C108.832093,14.08605 107.500465,15.378 106.12814,16.62375 C105.613721,17.0907 105.605581,17.44875 105.970233,18.0246 C107.677907,20.7306 109.338372,23.4663 111.013488,26.19375 C111.161628,26.433 111.290233,26.68545 111.534419,27.12435" id="Fill-3" fill="#404041"></path>
            <g id="Group-7" transform="translate(0.000000, 0.665445)">
                <mask id="mask-2" fill="white">
                    <use xlink:href="#path-1"></use>
                </mask>
                <g id="Clip-6"></g>
                <path d="M10.4676047,18.909825 L10.4676047,5.886375 C7.25574419,7.615575 5.32830233,10.168125 4.62504651,13.544025 C3.28527907,19.982325 5.84434884,24.483525 11.7959767,27.300075 C10.9445814,28.250475 10.1843488,29.186025 9.3134186,29.994525 C9.14086047,30.154575 8.49946512,29.910375 8.13318605,29.728875 C4.03574419,27.682875 1.31225581,24.462075 0.384348837,19.898175 C-1.27937209,11.724075 2.51039535,4.351875 10.8599302,1.276275 C11.2620233,1.129425 11.6966744,1.038675 12.123186,0.999075 C13.3538837,0.883575 14.119,1.464375 14.3273721,2.688675 C14.4152791,3.200175 14.4185349,3.734775 14.4185349,4.257825 C14.4185349,8.697975 14.4103953,13.138125 14.4038837,17.576625 L14.4038837,18.866925 C14.9817907,18.419775 15.4034186,18.112875 15.8055116,17.777925 C16.3492326,17.329125 16.8717907,17.207025 17.391093,17.805975 C17.9217907,18.418125 18.0162093,19.208475 17.5050465,19.700175 C16.0203953,21.124125 14.5129535,22.528275 12.963186,23.879625 C12.7645814,24.051225 12.1296977,24.006675 11.9115581,23.813625 C10.4106279,22.491975 8.94551163,21.127425 7.5145814,19.729875 C6.91388372,19.147425 6.96923256,18.353775 7.52109302,17.771325 C8.01109302,17.254875 8.59713953,17.279625 9.27760465,17.853825 C9.62434884,18.149175 9.95969767,18.461025 10.4676047,18.909825" id="Fill-5" fill="#404041" mask="url(#mask-2)"></path>
            </g>
            <path d="M19.1332791,14.14182 C18.5618837,14.58897 18.1500233,14.89752 17.7560698,15.23082 C17.2807209,15.63507 16.8102558,15.79347 16.3056047,15.29517 C15.7488605,14.74407 15.5518837,13.85472 16.0142093,13.40757 C17.5314186,11.93247 19.082814,10.49202 20.6732791,9.09942 C20.8621163,8.93607 21.497,9.02187 21.7265349,9.22482 C23.2046744,10.52832 24.6453721,11.87472 26.0583953,13.25082 C26.6883953,13.86297 26.641186,14.70282 26.0307209,15.27042 C25.4007209,15.85617 24.821186,15.61362 24.2742093,15.11037 C23.9583953,14.81997 23.6360698,14.53617 23.1623488,14.11047 L23.1623488,27.06297 C26.1739767,25.53342 28.0525814,23.15082 28.8307209,20.00592 C30.4716512,13.39602 28.0086279,8.69187 21.9121163,5.74497 C22.6283953,4.88367 23.264907,4.02072 24.0137442,3.27492 C24.2367674,3.05217 24.8521163,2.99607 25.1597907,3.14127 C29.7765349,5.32257 32.6253721,8.94927 33.3921163,14.06922 C34.0546744,18.48957 33.2260698,22.63272 30.4683953,26.22972 C28.4497907,28.86147 25.7718837,30.59397 22.7097907,31.73412 C22.3093256,31.88262 21.8730465,31.96842 21.4465349,32.00307 C20.2125814,32.10702 19.4653721,31.52292 19.2651395,30.28377 C19.1788605,29.74092 19.1821163,29.17827 19.1821163,28.62552 C19.1804884,24.12762 19.1902558,19.62807 19.1935116,15.13017 C19.1935116,14.87442 19.1642093,14.62032 19.1332791,14.14182" id="Fill-8" fill="#404041"></path>
            <path d="M67.6795814,20.13594 C66.5335349,20.47914 65.4542326,20.75799 64.4091163,21.13254 C63.8344651,21.33879 63.2630698,21.73479 63.4502791,22.47729 C63.6488837,23.26104 64.3146977,23.41779 65.0293488,23.35344 C66.6051628,23.20989 67.6763256,21.96744 67.6795814,20.13594 M73.9063256,27.12699 C72.2035349,27.12699 70.4242326,27.15669 68.6465581,27.09399 C68.3909767,27.08409 68.1549302,26.62044 67.8374884,26.28879 C66.2958605,27.33159 64.4465581,27.56754 62.5093488,27.49824 C59.9144651,27.40419 57.9202791,25.73769 57.6077209,23.31549 C57.2609767,20.62929 58.6170233,18.38364 61.194,17.69394 C62.8544651,17.24679 64.5833023,17.05044 66.2812093,16.74024 C66.4505116,16.71054 66.6393488,16.71549 66.7858605,16.63629 C67.109814,16.46139 67.4142326,16.24689 67.7251628,16.04559 C67.4288837,15.68589 67.2009767,15.17109 66.8216744,14.99289 C65.7456279,14.49129 64.7151628,14.89059 64.0184186,15.88059 C63.8914419,16.06209 63.6146977,16.22544 63.3965581,16.23699 C61.9330698,16.31949 60.4630698,16.34589 58.9979535,16.42179 C58.2084186,16.46139 58.0814419,16.12644 58.2556279,15.40869 C58.7342326,13.40889 60.0609767,12.23079 61.8923721,11.65659 C64.6484186,10.79529 67.4630698,10.76559 70.2386512,11.53944 C72.5567907,12.18459 73.7077209,13.83129 73.7191163,16.26009 C73.7321395,18.77139 73.706093,21.28269 73.7321395,23.79399 C73.741907,24.85659 73.8395814,25.91919 73.9063256,27.12699" id="Fill-10" fill="#404041"></path>
            <path d="M81.403814,13.14918 C82.5205581,11.88198 83.8456744,11.33748 85.3498605,11.20053 C89.0810233,10.86228 91.9086977,12.66903 91.9005581,16.94088 C91.8940465,20.00493 91.8826512,23.07063 91.9119535,26.13468 C91.9184651,26.89038 91.6824186,27.17913 90.9205581,27.15273 C89.5677674,27.10488 88.2133488,27.14118 86.8589302,27.13953 C85.6510233,27.13788 85.6412558,27.12963 85.638,25.93173 C85.6298605,23.42208 85.6493953,20.91078 85.6103256,18.40278 C85.5875349,16.96563 84.7507907,16.28253 83.3507907,16.45578 C82.4293953,16.56963 81.823814,17.13393 81.6854419,18.07278 C81.5991628,18.64698 81.5454419,19.23273 81.5405581,19.81188 C81.5226512,21.97338 81.5226512,24.13323 81.5389302,26.29308 C81.542186,26.86563 81.3712558,27.15438 80.7542791,27.14448 C79.2273023,27.11973 77.7003256,27.12138 76.1733488,27.14448 C75.5645116,27.15438 75.3756744,26.88873 75.3773023,26.30628 C75.3886977,21.66318 75.3952093,17.02173 75.3724186,12.38028 C75.3675349,11.66253 75.680093,11.47443 76.310093,11.48433 C77.6352093,11.50413 78.9603256,11.51238 80.2854419,11.47938 C81.0082326,11.46288 81.3793953,11.71368 81.315907,12.48918 C81.3028837,12.64758 81.3566047,12.81423 81.403814,13.14918" id="Fill-12" fill="#404041"></path>
            <path d="M119.632605,17.09697 L119.632605,17.08872 C120.147023,17.08872 120.66307,17.09532 121.177488,17.08707 C121.647953,17.07882 121.765163,16.83957 121.626791,16.39737 C121.382605,15.62187 120.851907,15.19287 120.086791,15.05757 C119.18493,14.89752 118.398651,15.27372 117.964,16.03107 C117.519581,16.80492 117.656326,17.07222 118.51586,17.09532 C118.888651,17.10522 119.259814,17.09697 119.632605,17.09697 M128.024465,23.48907 C127.116093,24.42132 126.438884,25.29252 125.597256,25.94427 C122.012605,28.73112 116.150512,28.44072 113.306558,25.25127 C110.776791,22.41822 110.418651,19.06047 111.833302,15.61197 C113.166558,12.36642 115.877023,11.04972 119.214233,10.93092 C122.126558,10.82532 124.670977,11.65692 126.54307,14.07747 C127.866558,15.78687 128.053767,17.81802 128.166093,19.86897 C128.201907,20.53062 127.741209,20.60157 127.239814,20.60157 C125.309116,20.59992 123.380047,20.60157 121.449349,20.60322 C120.412372,20.60322 119.375395,20.59167 118.338419,20.60817 C117.50493,20.62137 117.394233,20.81442 117.659581,21.63117 C117.936326,22.49082 118.514233,23.01717 119.380279,23.16402 C120.440047,23.34387 121.49493,23.17722 122.053302,22.18557 C122.601907,21.21372 123.157023,21.37212 123.948186,21.74667 C125.190279,22.33572 126.474698,22.83402 128.024465,23.48907" id="Fill-14" fill="#404041"></path>
            <g id="Group-18" transform="translate(128.604651, 10.565445)">
                <mask id="mask-4" fill="white">
                    <use xlink:href="#path-3"></use>
                </mask>
                <g id="Clip-17"></g>
                <path d="M6.26418605,2.08428 C7.57465116,1.02333 8.91767442,0.62403 10.4186047,0.68508 C11.0193023,0.70983 11.2325581,0.93588 11.2211628,1.52658 C11.1967442,2.75088 11.1951163,3.97683 11.2211628,5.20443 C11.234186,5.80338 11.0030233,6.06738 10.4088372,6.02613 C10.1223256,6.00468 9.83255814,6.01623 9.54604651,6.02613 C7.42651163,6.09708 6.42534884,7.07223 6.37813953,9.22383 C6.33255814,11.29623 6.32767442,13.37028 6.37813953,15.44103 C6.39930233,16.31718 6.13232558,16.63233 5.25,16.59108 C3.86953488,16.52673 2.48581395,16.55643 1.10372093,16.58118 C0.503023256,16.59108 0.21,16.41783 0.213255814,15.74298 C0.231162791,11.07348 0.227906977,6.40398 0.216511628,1.73448 C0.214883721,1.15698 0.395581395,0.87153 1.00767442,0.88143 C2.47604651,0.90123 3.9444186,0.92268 5.4127907,0.87318 C6.19581395,0.84678 6.17953488,1.38633 6.26418605,2.08428" id="Fill-16" fill="#404041" mask="url(#mask-4)"></path>
            </g>
        </g>
    </g>
</svg>