<?xml version="1.0" encoding="UTF-8"?>
<svg width="212px" height="212px" viewBox="0 0 212 212" version="1.1" xmlns="http://www.w3.org/2000/svg" xmlns:xlink="http://www.w3.org/1999/xlink">
    <!-- Generator: Sketch 51.2 (57519) - http://www.bohemiancoding.com/sketch -->
    <title>Logos-Hover</title>
    <desc>Created with Sketch.</desc>
    <defs>
        <polygon id="path-1" points="0.000446576379 0.98505 17.8426535 0.98505 17.8426535 30.0464901 0.000446576379 30.0464901"></polygon>
        <polygon id="path-3" points="0.213228982 0.67906527 11.2211628 0.67906527 11.2211628 16.594622 0.213228982 16.594622"></polygon>
    </defs>
    <g id="Logos-Hover" stroke="none" stroke-width="1" fill="none" fill-rule="evenodd">
        <g id="ranker">
            <rect id="Rectangle-Copy-2" fill="#1E3E66" x="0" y="0" width="216" height="214"></rect>
            <path d="M81.0143953,102.90432 C81.0143953,103.45872 81.0290465,104.01477 81.0111395,104.56752 C80.9948605,105.08232 81.2081163,105.32322 81.7274186,105.29352 C82.6748605,105.24402 83.6255581,105.25887 84.5664884,105.15657 C86.1162558,104.98827 86.7397442,104.24412 86.6843953,102.75252 C86.6355581,101.40777 85.8704419,100.70982 84.3483488,100.63062 C84.0032326,100.61247 83.6581163,100.61082 83.313,100.61082 C81.0111395,100.60587 81.0111395,100.60587 81.0143953,102.90432 M94.3274186,117.13062 C91.7911395,117.13062 89.5218372,117.15537 87.2525349,117.10092 C86.9741628,117.09597 86.6095116,116.74287 86.4467209,116.45577 C85.3283488,114.48237 84.2523023,112.48257 83.1632326,110.49102 C82.8034651,109.83267 81.9797442,109.48617 81.3627674,109.82937 C81.1641628,109.93992 81.0323023,110.34582 81.0290465,110.61972 C80.9981163,112.45782 80.9867209,114.29757 81.0225349,116.13732 C81.038814,116.89467 80.7799767,117.17187 80.023,117.15372 C78.3820698,117.10752 76.7395116,117.12072 75.0969535,117.14712 C74.4702093,117.15867 74.2178837,116.92602 74.2195116,116.28252 C74.2292791,109.77327 74.2276512,103.26402 74.2211395,96.75147 C74.2211395,96.25317 74.3269535,95.87367 74.9195116,95.88687 C79.3490465,95.98257 83.785093,95.94132 88.2032326,96.22182 C91.1204419,96.40827 92.9746279,98.57307 93.4320698,101.65032 C93.8846279,104.68962 92.623,107.12502 89.9402093,108.39222 C89.787186,108.46482 89.6390465,108.55062 89.3443953,108.70572 C90.977186,111.46617 92.5904419,114.19527 94.3274186,117.13062" id="Fill-1" fill="#FFFFFF"></path>
            <path d="M147.534419,117.12435 C145.147907,117.12435 142.964884,117.1458 140.783488,117.09465 C140.532791,117.0897 140.220233,116.7267 140.057442,116.4561 C139.251628,115.1064 138.489767,113.7303 137.708372,112.36905 C137.555349,112.10175 137.377907,111.8493 137.190698,111.5556 C136.210698,112.2057 135.505814,112.8624 135.676744,114.12465 C135.774419,114.87045 135.68,115.641 135.694651,116.4 C135.704419,116.9115 135.499302,117.14415 134.98,117.14085 C133.368372,117.12765 131.755116,117.1293 130.140233,117.1392 C129.679535,117.1425 129.436977,116.9511 129.430465,116.47425 C129.428837,116.29935 129.41907,116.1261 129.41907,115.94955 C129.41907,109.701 129.417442,103.45245 129.420698,97.2039 C129.420698,96.0291 129.446744,96.006 130.563488,96.00435 C131.974884,96.00105 133.387907,96.0291 134.799302,95.9928 C135.471628,95.97795 135.709302,96.22545 135.702791,96.90855 C135.678372,99.47925 135.694651,102.0483 135.694651,104.61735 L135.694651,105.8301 C136.384884,105.09255 136.996977,104.5728 137.446279,103.93425 C138.789302,102.02025 140.523023,101.26455 142.846047,101.57805 C144.216744,101.7645 145.633023,101.61435 147.026512,101.61435 C147.054186,101.6886 147.08186,101.76285 147.107907,101.8371 C146.796977,102.1605 146.495814,102.49545 146.173488,102.804 C144.832093,104.08605 143.500465,105.378 142.12814,106.62375 C141.613721,107.0907 141.605581,107.44875 141.970233,108.0246 C143.677907,110.7306 145.338372,113.4663 147.013488,116.19375 C147.161628,116.433 147.290233,116.68545 147.534419,117.12435" id="Fill-3" fill="#FFFFFF"></path>
            <g id="Group-7" transform="translate(36.000000, 90.665445)">
                <mask id="mask-2" fill="white">
                    <use xlink:href="#path-1"></use>
                </mask>
                <g id="Clip-6"></g>
                <path d="M10.4676047,18.909825 L10.4676047,5.886375 C7.25574419,7.615575 5.32830233,10.168125 4.62504651,13.544025 C3.28527907,19.982325 5.84434884,24.483525 11.7959767,27.300075 C10.9445814,28.250475 10.1843488,29.186025 9.3134186,29.994525 C9.14086047,30.154575 8.49946512,29.910375 8.13318605,29.728875 C4.03574419,27.682875 1.31225581,24.462075 0.384348837,19.898175 C-1.27937209,11.724075 2.51039535,4.351875 10.8599302,1.276275 C11.2620233,1.129425 11.6966744,1.038675 12.123186,0.999075 C13.3538837,0.883575 14.119,1.464375 14.3273721,2.688675 C14.4152791,3.200175 14.4185349,3.734775 14.4185349,4.257825 C14.4185349,8.697975 14.4103953,13.138125 14.4038837,17.576625 L14.4038837,18.866925 C14.9817907,18.419775 15.4034186,18.112875 15.8055116,17.777925 C16.3492326,17.329125 16.8717907,17.207025 17.391093,17.805975 C17.9217907,18.418125 18.0162093,19.208475 17.5050465,19.700175 C16.0203953,21.124125 14.5129535,22.528275 12.963186,23.879625 C12.7645814,24.051225 12.1296977,24.006675 11.9115581,23.813625 C10.4106279,22.491975 8.94551163,21.127425 7.5145814,19.729875 C6.91388372,19.147425 6.96923256,18.353775 7.52109302,17.771325 C8.01109302,17.254875 8.59713953,17.279625 9.27760465,17.853825 C9.62434884,18.149175 9.95969767,18.461025 10.4676047,18.909825" id="Fill-5" fill="#FFFFFF" mask="url(#mask-2)"></path>
            </g>
            <path d="M55.1332791,104.14182 C54.5618837,104.58897 54.1500233,104.89752 53.7560698,105.23082 C53.2807209,105.63507 52.8102558,105.79347 52.3056047,105.29517 C51.7488605,104.74407 51.5518837,103.85472 52.0142093,103.40757 C53.5314186,101.93247 55.082814,100.49202 56.6732791,99.09942 C56.8621163,98.93607 57.497,99.02187 57.7265349,99.22482 C59.2046744,100.52832 60.6453721,101.87472 62.0583953,103.25082 C62.6883953,103.86297 62.641186,104.70282 62.0307209,105.27042 C61.4007209,105.85617 60.821186,105.61362 60.2742093,105.11037 C59.9583953,104.81997 59.6360698,104.53617 59.1623488,104.11047 L59.1623488,117.06297 C62.1739767,115.53342 64.0525814,113.15082 64.8307209,110.00592 C66.4716512,103.39602 64.0086279,98.69187 57.9121163,95.74497 C58.6283953,94.88367 59.264907,94.02072 60.0137442,93.27492 C60.2367674,93.05217 60.8521163,92.99607 61.1597907,93.14127 C65.7765349,95.32257 68.6253721,98.94927 69.3921163,104.06922 C70.0546744,108.48957 69.2260698,112.63272 66.4683953,116.22972 C64.4497907,118.86147 61.7718837,120.59397 58.7097907,121.73412 C58.3093256,121.88262 57.8730465,121.96842 57.4465349,122.00307 C56.2125814,122.10702 55.4653721,121.52292 55.2651395,120.28377 C55.1788605,119.74092 55.1821163,119.17827 55.1821163,118.62552 C55.1804884,114.12762 55.1902558,109.62807 55.1935116,105.13017 C55.1935116,104.87442 55.1642093,104.62032 55.1332791,104.14182" id="Fill-8" fill="#FFFFFF"></path>
            <path d="M103.679581,110.13594 C102.533535,110.47914 101.454233,110.75799 100.409116,111.13254 C99.8344651,111.33879 99.2630698,111.73479 99.4502791,112.47729 C99.6488837,113.26104 100.314698,113.41779 101.029349,113.35344 C102.605163,113.20989 103.676326,111.96744 103.679581,110.13594 M109.906326,117.12699 C108.203535,117.12699 106.424233,117.15669 104.646558,117.09399 C104.390977,117.08409 104.15493,116.62044 103.837488,116.28879 C102.29586,117.33159 100.446558,117.56754 98.5093488,117.49824 C95.9144651,117.40419 93.9202791,115.73769 93.6077209,113.31549 C93.2609767,110.62929 94.6170233,108.38364 97.194,107.69394 C98.8544651,107.24679 100.583302,107.05044 102.281209,106.74024 C102.450512,106.71054 102.639349,106.71549 102.78586,106.63629 C103.109814,106.46139 103.414233,106.24689 103.725163,106.04559 C103.428884,105.68589 103.200977,105.17109 102.821674,104.99289 C101.745628,104.49129 100.715163,104.89059 100.018419,105.88059 C99.8914419,106.06209 99.6146977,106.22544 99.3965581,106.23699 C97.9330698,106.31949 96.4630698,106.34589 94.9979535,106.42179 C94.2084186,106.46139 94.0814419,106.12644 94.2556279,105.40869 C94.7342326,103.40889 96.0609767,102.23079 97.8923721,101.65659 C100.648419,100.79529 103.46307,100.76559 106.238651,101.53944 C108.556791,102.18459 109.707721,103.83129 109.719116,106.26009 C109.73214,108.77139 109.706093,111.28269 109.73214,113.79399 C109.741907,114.85659 109.839581,115.91919 109.906326,117.12699" id="Fill-10" fill="#FFFFFF"></path>
            <path d="M117.403814,103.14918 C118.520558,101.88198 119.845674,101.33748 121.34986,101.20053 C125.081023,100.86228 127.908698,102.66903 127.900558,106.94088 C127.894047,110.00493 127.882651,113.07063 127.911953,116.13468 C127.918465,116.89038 127.682419,117.17913 126.920558,117.15273 C125.567767,117.10488 124.213349,117.14118 122.85893,117.13953 C121.651023,117.13788 121.641256,117.12963 121.638,115.93173 C121.62986,113.42208 121.649395,110.91078 121.610326,108.40278 C121.587535,106.96563 120.750791,106.28253 119.350791,106.45578 C118.429395,106.56963 117.823814,107.13393 117.685442,108.07278 C117.599163,108.64698 117.545442,109.23273 117.540558,109.81188 C117.522651,111.97338 117.522651,114.13323 117.53893,116.29308 C117.542186,116.86563 117.371256,117.15438 116.754279,117.14448 C115.227302,117.11973 113.700326,117.12138 112.173349,117.14448 C111.564512,117.15438 111.375674,116.88873 111.377302,116.30628 C111.388698,111.66318 111.395209,107.02173 111.372419,102.38028 C111.367535,101.66253 111.680093,101.47443 112.310093,101.48433 C113.635209,101.50413 114.960326,101.51238 116.285442,101.47938 C117.008233,101.46288 117.379395,101.71368 117.315907,102.48918 C117.302884,102.64758 117.356605,102.81423 117.403814,103.14918" id="Fill-12" fill="#FFFFFF"></path>
            <path d="M155.632605,107.09697 L155.632605,107.08872 C156.147023,107.08872 156.66307,107.09532 157.177488,107.08707 C157.647953,107.07882 157.765163,106.83957 157.626791,106.39737 C157.382605,105.62187 156.851907,105.19287 156.086791,105.05757 C155.18493,104.89752 154.398651,105.27372 153.964,106.03107 C153.519581,106.80492 153.656326,107.07222 154.51586,107.09532 C154.888651,107.10522 155.259814,107.09697 155.632605,107.09697 M164.024465,113.48907 C163.116093,114.42132 162.438884,115.29252 161.597256,115.94427 C158.012605,118.73112 152.150512,118.44072 149.306558,115.25127 C146.776791,112.41822 146.418651,109.06047 147.833302,105.61197 C149.166558,102.36642 151.877023,101.04972 155.214233,100.93092 C158.126558,100.82532 160.670977,101.65692 162.54307,104.07747 C163.866558,105.78687 164.053767,107.81802 164.166093,109.86897 C164.201907,110.53062 163.741209,110.60157 163.239814,110.60157 C161.309116,110.59992 159.380047,110.60157 157.449349,110.60322 C156.412372,110.60322 155.375395,110.59167 154.338419,110.60817 C153.50493,110.62137 153.394233,110.81442 153.659581,111.63117 C153.936326,112.49082 154.514233,113.01717 155.380279,113.16402 C156.440047,113.34387 157.49493,113.17722 158.053302,112.18557 C158.601907,111.21372 159.157023,111.37212 159.948186,111.74667 C161.190279,112.33572 162.474698,112.83402 164.024465,113.48907" id="Fill-14" fill="#FFFFFF"></path>
            <g id="Group-18" transform="translate(164.604651, 100.565445)">
                <mask id="mask-4" fill="white">
                    <use xlink:href="#path-3"></use>
                </mask>
                <g id="Clip-17"></g>
                <path d="M6.26418605,2.08428 C7.57465116,1.02333 8.91767442,0.62403 10.4186047,0.68508 C11.0193023,0.70983 11.2325581,0.93588 11.2211628,1.52658 C11.1967442,2.75088 11.1951163,3.97683 11.2211628,5.20443 C11.234186,5.80338 11.0030233,6.06738 10.4088372,6.02613 C10.1223256,6.00468 9.83255814,6.01623 9.54604651,6.02613 C7.42651163,6.09708 6.42534884,7.07223 6.37813953,9.22383 C6.33255814,11.29623 6.32767442,13.37028 6.37813953,15.44103 C6.39930233,16.31718 6.13232558,16.63233 5.25,16.59108 C3.86953488,16.52673 2.48581395,16.55643 1.10372093,16.58118 C0.503023256,16.59108 0.21,16.41783 0.213255814,15.74298 C0.231162791,11.07348 0.227906977,6.40398 0.216511628,1.73448 C0.214883721,1.15698 0.395581395,0.87153 1.00767442,0.88143 C2.47604651,0.90123 3.9444186,0.92268 5.4127907,0.87318 C6.19581395,0.84678 6.17953488,1.38633 6.26418605,2.08428" id="Fill-16" fill="#FFFFFF" mask="url(#mask-4)"></path>
            </g>
        </g>
    </g>
</svg>