<?xml version="1.0" encoding="UTF-8"?>
<svg width="212px" height="212px" viewBox="0 0 212 212" version="1.1" xmlns="http://www.w3.org/2000/svg" xmlns:xlink="http://www.w3.org/1999/xlink">
    <!-- Generator: Sketch 51.2 (57519) - http://www.bohemiancoding.com/sketch -->
    <title>Logos-Hover</title>
    <desc>Created with Sketch.</desc>
    <defs>
        <polygon id="path-1" points="0 0.500793601 18.1448905 0.500793601 18.1448905 20.9488808 0 20.9488808"></polygon>
        <polygon id="path-3" points="1.09134762 1.42251427 17.8239667 1.42251427 17.8239667 22.1052632 1.09134762 22.1052632"></polygon>
        <polygon id="path-5" points="44 118.695495 166.634524 118.695495 166.634524 91.9997053 44 91.9997053"></polygon>
    </defs>
    <g id="Logos-Hover" stroke="none" stroke-width="1" fill="none" fill-rule="evenodd">
        <g id="relativity">
            <rect id="Rectangle-Copy-2" fill="#2500E0" x="0" y="0" width="216" height="214"></rect>
            <g id="Group-3" transform="translate(44.000000, 92.169179)">
                <mask id="mask-2" fill="white">
                    <use xlink:href="#path-1"></use>
                </mask>
                <g id="Clip-2"></g>
                <path d="M4.14174762,10.0517053 C5.86003333,10.0517053 7.50450952,10.0664421 9.1504619,10.0443368 C9.75422381,10.0369684 10.3727476,10.0148632 10.9558429,9.87928421 C12.290319,9.56981053 12.8557,8.67675789 12.8409381,7.06602105 C12.8247,5.53338947 12.228319,4.47970526 10.9189381,4.38981053 C8.68398571,4.23802105 6.42984286,4.34854737 4.14174762,4.34854737 L4.14174762,10.0517053 Z M18.1448905,20.9437053 C16.397081,20.9437053 14.8721762,20.9658105 13.3472714,20.9186526 C13.1037,20.9098105 12.8114143,20.6253895 12.6401762,20.3954947 C11.1359381,18.3794947 9.67303333,16.3340211 8.14517619,14.3371789 C7.9119381,14.0336 7.41741429,13.8051789 7.02327143,13.7698105 C6.0814619,13.6887579 5.12931905,13.7447579 4.0974619,13.7447579 L4.0974619,20.8877053 L-0.000442857143,20.8877053 L-0.000442857143,0.637810526 C0.0364619048,0.611284211 0.080747619,0.546442105 0.125033333,0.546442105 C3.68117619,0.549389474 7.24765238,0.412336842 10.7964143,0.599494737 C15.7357476,0.860336842 17.4938905,3.83423158 16.893081,8.69296842 C16.614081,10.9521263 15.3652238,12.5127579 13.1612714,13.2496 C13.0520333,13.2849684 12.9501762,13.3365474 12.8453667,13.3881263 C12.8247,13.3984421 12.8143667,13.4293895 12.7361286,13.5399158 C13.5952714,14.7159158 14.4780333,15.9213895 15.3607952,17.1283368 C16.2435571,18.3367579 17.1277952,19.5466526 18.1448905,20.9437053 Z" id="Fill-1" fill="#FFFFFF" mask="url(#mask-2)"></path>
            </g>
            <path d="M65.6989667,103.618379 L72.9219667,103.618379 C72.2945857,101.819011 71.1121571,100.977537 69.3023476,100.979011 C67.4984429,100.979011 66.305681,101.833747 65.6989667,103.618379 Z M65.5321571,107.016695 C65.7978714,108.425537 66.4577286,109.4188 67.7449667,109.773958 C69.7127286,110.317747 71.5432048,110.114379 72.9529667,108.295853 C73.9449667,108.805747 74.9340143,109.312695 75.9289667,109.824063 C74.0778238,113.039642 69.4794905,114.305537 65.809681,112.681537 C62.2963476,111.128274 60.6666333,106.699853 62.0601571,102.499853 C63.298681,98.7758526 67.0245857,96.8910105 71.2642048,97.8430105 C75.1746333,98.7228 77.4833952,102.412905 76.9268714,107.016695 L65.5321571,107.016695 Z" id="Fill-4" fill="#FFFFFF"></path>
            <g id="Group-8" transform="translate(148.809524, 96.590232)">
                <mask id="mask-4" fill="white">
                    <use xlink:href="#path-3"></use>
                </mask>
                <g id="Clip-7"></g>
                <path d="M1.09134762,1.44273684 C2.39777619,1.44273684 3.60825238,1.40884211 4.81282381,1.47221053 C5.04015714,1.484 5.34572857,1.84505263 5.44315714,2.11031579 C6.62558571,5.27431579 7.7740619,8.44863158 8.93287143,11.62 C9.04210952,11.9132632 9.16168095,12.2035789 9.33734762,12.6545263 C9.52925238,12.1888421 9.66210952,11.8823158 9.78168095,11.5728421 C10.9788714,8.44568421 12.1937762,5.32589474 13.3599667,2.18694737 C13.5784429,1.59747368 13.8663,1.39705263 14.4833476,1.42505263 C15.5491571,1.47515789 16.6193952,1.43978947 17.8239667,1.43978947 C17.7014429,1.78610526 17.6158238,2.04547368 17.516919,2.30042105 C15.4842048,7.48778947 13.4573952,12.6751579 11.4128714,17.8581053 C11.1589667,18.4991579 10.8593,19.1298947 10.5138714,19.7267368 C9.58239524,21.3286316 8.22725238,22.2025263 6.30672857,22.0978947 C5.44463333,22.0492632 4.57810952,22.0890526 3.64958571,22.0890526 L3.64958571,18.7555789 C4.2415381,18.7555789 4.80987143,18.7658947 5.37820476,18.7526316 C6.54587143,18.7261053 7.18210952,17.9450526 6.94591905,16.8014737 C6.86472857,16.408 6.71120476,16.0277895 6.5650619,15.6534737 C4.84677619,11.2117895 3.12258571,6.77157895 1.40282381,2.33136842 C1.30096667,2.06905263 1.21534762,1.80084211 1.09134762,1.44273684" id="Fill-6" fill="#FFFFFF" mask="url(#mask-4)"></path>
            </g>
            <path d="M93.7508667,106.156947 C93.0393429,106.310211 92.4562476,106.467895 91.8657714,106.556316 C91.2369143,106.650632 90.5962476,106.660947 89.9673905,106.747895 C89.6588667,106.792105 89.3459143,106.892316 89.0624857,107.029368 C87.9272952,107.579053 87.6984857,109.123474 88.6757238,109.911895 C89.7149619,110.753368 90.8988667,110.589789 92.0532476,110.171263 C93.0629619,109.805789 93.6682,109.068947 93.7434857,107.974 C93.7818667,107.403684 93.7508667,106.827474 93.7508667,106.156947 M93.5412476,112.092947 C91.6694381,113.566632 88.4011524,113.834842 86.1470095,112.599895 C84.5955333,111.749579 84.0641048,110.354 84.0877238,108.679895 C84.1142952,106.845158 84.7151048,105.207895 86.4983429,104.522632 C87.8697238,103.993579 89.4079143,103.893368 90.8767238,103.639895 C91.4716286,103.538211 92.1152476,103.634 92.6762,103.457158 C93.0836286,103.328947 93.7139619,102.85 93.6770571,102.608316 C93.6062,102.117579 93.2607714,101.476526 92.8400571,101.259895 C91.7343905,100.685158 90.5253905,100.820737 89.3946286,101.295263 C88.7879143,101.550211 88.2328667,101.926 87.5803905,102.285579 C86.8186762,101.669579 86.0126762,101.022632 85.0472476,100.243053 C85.7071048,99.7125263 86.2444381,99.1466316 86.8939619,98.7752632 C89.2101048,97.4577895 91.6782952,97.2721053 94.1848667,98.1091579 C96.3563429,98.8342105 97.5136762,100.517158 97.5372952,102.857368 C97.5653429,105.428947 97.5328667,108.000526 97.5535333,110.570632 C97.5609143,111.397368 97.6568667,112.221158 97.7173905,113.111263 C96.8036286,113.111263 95.783581,113.204105 94.7930571,113.067053 C94.3664381,113.008105 94.0062476,112.473158 93.5412476,112.092947" id="Fill-9" fill="#FFFFFF"></path>
            <path d="M98.6364667,97.7610737 L101.290657,97.7610737 C101.290657,96.8473895 101.337895,95.9897053 101.274419,95.1408632 C101.224229,94.4762316 101.476657,94.1608632 102.077467,93.9309684 C103.097514,93.5433895 104.085086,93.0718105 105.227657,92.5737053 L105.227657,97.7404421 L108.878276,97.7404421 L108.878276,101.0636 L105.26161,101.0636 L105.26161,105.397705 C105.26161,106.292232 105.248324,107.186758 105.267514,108.081284 C105.294086,109.339811 105.81961,109.870337 107.086181,109.868863 C107.658943,109.868863 108.231705,109.767179 108.86499,109.706758 L108.86499,112.982758 C107.185086,113.158126 105.50961,113.464653 103.819371,113.022547 C102.685657,112.724863 101.929848,111.974758 101.66561,110.862126 C101.447133,109.944021 101.330514,108.983179 101.311324,108.040021 C101.261133,105.766126 101.295086,103.490758 101.295086,101.090126 L98.6364667,101.090126 L98.6364667,97.7610737 Z" id="Fill-11" fill="#FFFFFF"></path>
            <path d="M141.105729,98.0488842 C141.105729,97.0335158 141.1323,96.1669895 141.096871,95.3034105 C141.076205,94.8053053 141.21349,94.5135158 141.706538,94.3160421 C142.800395,93.8827789 143.869157,93.3832 145.061919,92.8600421 L145.061919,98.0267789 L148.67711,98.0267789 L148.67711,101.345516 L145.072252,101.345516 L145.072252,105.944884 C145.072252,106.725937 145.063395,107.505516 145.073729,108.285095 C145.095871,109.673305 145.664205,110.221516 147.069538,110.175832 C147.584729,110.161095 148.096967,110.065305 148.671205,109.998989 L148.671205,113.425305 C147.102014,113.425305 145.547586,113.529937 144.013824,113.392884 C142.6513,113.272042 141.741967,112.370147 141.4423,111.032042 C141.234157,110.110989 141.142633,109.1472 141.12049,108.201095 C141.074729,106.264674 141.105729,104.328253 141.105729,102.391832 L141.105729,101.373516 L138.472205,101.373516 L138.472205,98.0488842 L141.105729,98.0488842 Z" id="Fill-13" fill="#FFFFFF"></path>
            <mask id="mask-6" fill="white">
                <use xlink:href="#path-5"></use>
            </mask>
            <g id="Clip-16"></g>
            <polygon id="Fill-15" fill="#FFFFFF" mask="url(#mask-6)" points="78.7716667 113.049811 82.6363333 113.049811 82.6363333 92.7262316 78.7716667 92.7262316"></polygon>
            <path d="M114.80961,113.064842 L110.977419,113.064842 L110.977419,97.7591579 C112.180514,97.7591579 113.380657,97.7444211 114.5808,97.7812632 C114.7048,97.7842105 114.923276,98.0833684 114.924752,98.244 C114.93361,103.118947 114.9218,107.993895 114.908514,112.867368 C114.908514,112.917474 114.8598,112.967579 114.80961,113.064842" id="Fill-17" fill="#FFFFFF" mask="url(#mask-6)"></path>
            <polygon id="Fill-18" fill="#FFFFFF" mask="url(#mask-6)" points="132.577333 113.365179 136.452333 113.365179 136.452333 98.0874947 132.577333 98.0874947"></polygon>
            <path d="M131.040619,99.9975368 C131.048,101.676063 129.366619,102.778379 127.810714,102.101958 C127.385571,101.919221 126.992905,101.671642 126.585476,101.450589 C124.623619,100.383642 122.670619,100.399853 120.711714,101.472695 C120.183238,101.763011 119.642952,102.065116 119.071667,102.239011 C118.160857,102.511642 117.17919,102.084274 116.65219,101.295853 C116.101571,100.470589 116.135524,99.4080632 116.740762,98.6211158 C117.32681,97.8621684 118.309952,97.5305895 119.21781,97.8282737 C119.569143,97.9446947 119.90719,98.1259579 120.226048,98.3190105 C122.524476,99.7028 124.814048,99.7160632 127.105095,98.3013263 C127.375238,98.1348 127.654238,97.9741684 127.949476,97.8651158 C129.458143,97.2992211 131.033238,98.3941684 131.040619,99.9975368" id="Fill-19" fill="#FFFFFF" mask="url(#mask-6)"></path>
            <path d="M120.851362,103.399684 C121.314886,103.656105 121.824171,103.858 122.237505,104.179263 C123.467171,105.140105 123.961695,105.150421 125.099838,104.129158 C126.049029,103.275895 127.169457,103.252316 127.957743,104.070211 C128.658933,104.793789 128.688457,105.907895 128.0286,106.669789 C127.2846,107.526 126.155314,107.564316 125.170695,106.765579 C123.88641,105.725158 123.486362,105.738421 122.101695,106.868737 C121.335552,107.492105 120.45279,107.564316 119.698457,107.061789 C118.99579,106.594632 118.675457,105.735474 118.907219,104.938211 C119.153743,104.087895 119.890362,103.535263 120.851362,103.399684" id="Fill-20" fill="#FFFFFF" mask="url(#mask-6)"></path>
            <path d="M125.937281,110.942147 C125.903329,112.222779 124.847852,113.213095 123.551757,113.180674 C122.268948,113.148253 121.247424,112.079832 121.288757,110.812463 C121.328614,109.536253 122.387043,108.547411 123.681662,108.578358 C124.970376,108.606358 125.97271,109.660042 125.937281,110.942147" id="Fill-21" fill="#FFFFFF" mask="url(#mask-6)"></path>
            <path d="M136.886186,94.3632 C136.862567,95.6364632 135.79971,96.6606737 134.522805,96.6356211 C133.250329,96.6105684 132.209614,95.5362526 132.239138,94.2747789 C132.26571,93.0059368 133.343329,91.9743579 134.6099,91.9994105 C135.886805,92.0259368 136.908329,93.0884632 136.886186,94.3632" id="Fill-22" fill="#FFFFFF" mask="url(#mask-6)"></path>
            <path d="M115.232095,94.3057263 C115.239476,95.5937263 114.217952,96.6282526 112.933667,96.6356211 C111.652333,96.6444632 110.616048,95.6173053 110.610143,94.3337263 C110.602762,93.0472 111.627238,92.0082526 112.908571,92.0008842 C114.186952,91.9920421 115.224714,93.0221474 115.232095,94.3057263" id="Fill-23" fill="#FFFFFF" mask="url(#mask-6)"></path>
        </g>
    </g>
</svg>