<?xml version="1.0" encoding="UTF-8"?>
<svg width="212px" height="212px" viewBox="0 0 212 212" version="1.1" xmlns="http://www.w3.org/2000/svg" xmlns:xlink="http://www.w3.org/1999/xlink">
    <!-- Generator: Sketch 51.2 (57519) - http://www.bohemiancoding.com/sketch -->
    <title>Logos-Hover</title>
    <desc>Created with Sketch.</desc>
    <defs>
        <polygon id="path-1" points="0.580946494 0.336970899 11.2903133 0.336970899 11.2903133 12.2778591 0.580946494 12.2778591"></polygon>
        <polygon id="path-3" points="0.604661446 0.6099 10.1238407 0.6099 10.1238407 17.09905 0.604661446 17.09905"></polygon>
    </defs>
    <g id="Logos-Hover" stroke="none" stroke-width="1" fill="none" fill-rule="evenodd">
        <g id="stackcommerce">
            <rect id="Rectangle-Copy-2" fill="#0AAFC7" x="0" y="0" width="216" height="214"></rect>
            <path d="M98.0797614,113.499106 C98.8274964,112.853106 99.5882193,112.233706 99.9667253,111.241906 C100.345231,110.242506 100.363786,109.539506 100.131858,108.388106 C100.014966,107.799106 99.8554,107.312706 99.4973036,106.822506 C98.6252554,105.633106 97.6845566,105.055506 96.3226771,105.063106 C95.684412,105.066906 95.0739783,105.027006 94.4579783,105.414606 C93.8827976,105.775606 93.3206048,106.047306 92.9921952,106.712306 C92.7083157,107.282306 92.3669181,107.783906 92.2574482,108.462206 C92.1294241,109.252606 91.8733759,110.039206 91.6006289,110.795406 C91.3742675,111.418606 91.0551349,112.047506 90.628388,112.541506 C89.6375928,113.692906 88.5558819,114.705606 87.0047494,115.119806 C85.1697373,115.610006 83.4237855,115.416206 81.9320265,114.344606 C80.5033518,113.318606 79.5849181,111.811906 79.5923398,109.896706 L79.5923398,108.984706 C79.5923398,107.206306 80.4922193,105.655906 81.9728458,104.533006 C83.3031831,103.524106 84.8134964,103.233406 86.3219542,103.514606 C87.5613759,103.748306 88.8063639,104.293606 89.6134723,105.452606 C89.6635687,106.030206 89.3258819,106.351306 88.8323398,106.623006 C88.2014964,106.206906 87.5799301,105.684406 86.871159,105.355706 C85.2977614,104.624206 82.7985084,104.975706 81.8188458,107.033406 C81.4848699,107.740206 81.1898578,108.477406 81.1675928,109.258306 C81.1249181,110.529406 81.6796892,111.836606 82.5795687,112.739106 C83.1547494,113.316706 83.9247494,113.776506 84.833906,113.727106 C84.8710145,113.725206 84.9081229,113.721406 84.9452313,113.727106 C85.9081952,113.862006 86.7412795,113.542806 87.5725084,113.060206 C88.3629181,112.598506 88.9306771,111.990506 89.4075205,111.207706 C90.0086771,110.217806 90.3166771,109.174706 90.5467494,108.032806 C90.8194964,106.683806 91.5598096,105.498206 92.6415205,104.610906 C92.9884843,104.327806 93.3985325,104.103606 93.8085807,103.930706 C94.2854241,103.729306 94.7882434,103.537406 95.2910627,103.482306 C95.9887012,103.404406 96.7234482,103.347406 97.3988217,103.491806 C98.1947976,103.662806 99.0167494,103.985806 99.6364602,104.525406 C100.553039,105.325306 101.343448,106.210706 101.738653,107.500806 C102.419593,109.735206 101.83328,111.982906 100.439858,113.489606 C99.7125325,114.276206 98.8775928,114.827206 97.8571108,115.095106 C98.0259542,114.620106 98.4527012,114.542206 98.847906,114.407306 C98.8998578,114.388306 98.9295446,114.297106 98.9852072,114.217306 C98.8701711,113.983606 98.7477133,113.736606 98.5974241,113.432606 C98.4601229,113.527606 98.3525084,113.615006 98.231906,113.670106 C98.209641,113.679606 98.1317133,113.558006 98.0797614,113.499106" id="Fill-1" fill="#FFFFFF"></path>
            <path d="M123.251154,114.757096 L123.251154,104.052496 C123.546166,103.630696 123.943227,103.267796 124.44419,103.482496 C125.06019,103.748496 125.108431,104.388796 124.993395,105.182996 C125.509202,104.671896 125.839467,104.193096 126.28848,103.947996 C126.759757,103.687696 127.242166,103.353296 127.871154,103.446396 C128.416648,103.526196 128.989973,103.408396 129.537323,103.476796 C130.093949,103.547096 130.541106,103.925196 131.025371,104.198796 C131.511492,104.476196 131.598696,105.101296 132.203564,105.315996 C132.457757,105.067096 132.758335,104.802996 133.029227,104.504696 C133.699034,103.765596 134.528407,103.444496 135.502504,103.461596 C135.983058,103.471096 136.474745,103.406496 136.947877,103.474896 C138.033299,103.628796 138.923901,104.105696 139.521347,105.122196 C139.972214,105.893596 140.194865,106.683996 140.185588,107.582696 C140.159612,109.972896 140.176311,112.366896 140.176311,114.753296 C140.116937,114.814096 140.064986,114.867296 140.013034,114.922396 C139.756986,115.184596 139.538046,115.471496 139.090889,115.251096 C138.67713,115.049696 138.461901,114.738096 138.400672,114.304896 C138.36913,114.080696 138.395106,113.846996 138.395106,113.618996 C138.395106,111.794996 138.391395,109.970996 138.395106,108.148896 C138.396961,107.191296 138.068552,106.385696 137.38019,105.728296 C136.626889,105.006296 135.756696,104.882796 134.812287,105.198196 C133.699034,105.570596 133.120142,106.351496 132.799154,107.497196 C132.635877,108.084296 132.60619,108.648596 132.60619,109.233796 C132.600624,110.943796 132.609901,112.653796 132.600624,114.363796 C132.596913,114.952796 132.18501,115.349896 131.656214,115.323296 C131.205347,115.298596 130.828696,114.882496 130.824986,114.361896 C130.815708,112.841896 130.821275,111.321896 130.821275,109.803796 C130.821275,109.269896 130.817564,108.737896 130.82313,108.207796 C130.836118,107.067796 130.413082,106.104496 129.516913,105.469896 C128.945443,105.065196 128.238528,104.913196 127.498214,105.144996 C126.303323,105.524996 125.473949,106.214696 125.147395,107.519996 C125.073178,107.816396 125.041636,108.097596 125.039781,108.378796 C125.023082,110.504896 125.030504,112.632896 125.030504,114.753296 C124.182576,115.591196 124.097227,115.591196 123.251154,114.757096" id="Fill-3" fill="#FFFFFF"></path>
            <path d="M112.799935,105.463056 C113.235959,104.984256 113.542104,104.602356 113.894634,104.271756 C114.423429,103.770156 115.020875,103.411056 115.789019,103.456656 C116.197212,103.483256 116.60726,103.485156 117.013598,103.456656 C117.637019,103.416756 118.162104,103.661856 118.737284,103.874656 C119.53326,104.167256 119.937742,104.790456 120.30326,105.404156 C120.614971,105.922856 120.817212,106.557456 120.807935,107.239556 C120.781959,109.745656 120.798658,112.251756 120.798658,114.754056 C120.0602,115.483656 120.0602,115.483656 119.017453,114.782556 L119.017453,114.079556 C119.017453,112.103556 119.015598,110.129456 119.019308,108.153456 C119.021164,107.195856 118.696465,106.390256 118.008104,105.732856 C117.252947,105.010856 116.38461,104.893056 115.438345,105.191356 C113.950296,105.660656 113.234104,107.114156 113.228537,108.314956 C113.217405,110.328956 113.228537,112.341056 113.222971,114.355056 C113.221116,114.881356 112.848176,115.297456 112.397308,115.322156 C111.864802,115.354456 111.449188,114.959256 111.447333,114.370256 C111.438055,112.700156 111.447333,111.028156 111.443622,109.356156 C111.441766,108.620856 111.410224,107.900756 111.256224,107.165456 C111.10408,106.445356 110.738561,105.936156 110.22832,105.552356 C109.172586,104.750556 107.743911,104.932956 106.749405,105.865856 C105.994248,106.576456 105.645429,107.437156 105.64914,108.480256 C105.658417,110.340356 105.647284,112.202356 105.654706,114.064356 C105.658417,114.611556 105.45432,114.993456 104.964489,115.240456 C104.650923,115.396256 104.41714,115.367756 104.1982,115.092256 C104.105429,114.976356 103.992248,114.875656 103.886489,114.769256 C103.880923,114.733156 103.871646,114.697056 103.871646,114.662856 L103.871646,104.064656 C104.166658,103.654256 104.534031,103.274256 105.049839,103.479456 C105.697381,103.739756 105.719646,104.378156 105.60832,105.255956 C106.664055,103.950656 107.756899,103.411056 109.252369,103.409156 C110.84061,103.405356 111.772031,104.294556 112.799935,105.463056" id="Fill-5" fill="#FFFFFF"></path>
            <path d="M54.2001518,109.947816 C53.9552361,109.830016 53.7474289,109.664716 53.519212,109.632416 C52.5915012,109.501316 51.671212,109.315116 50.7193807,109.379716 C50.1404892,109.419616 49.6228265,109.579216 49.1237181,109.849016 C48.2238386,110.335416 47.8100795,111.142916 47.9640795,112.111916 C48.0809711,112.854816 49.0290916,113.647116 49.8862964,113.728816 C50.060706,113.745916 50.2592361,113.747816 50.3946819,113.839016 C50.641453,114.006216 50.8381277,114.008116 51.0886096,113.848516 C51.2277663,113.761116 51.4225855,113.742116 51.5932843,113.730716 C52.7696217,113.652816 54.5192843,112.301916 54.2094289,110.833216 C54.1482,110.546316 54.2001518,110.234716 54.2001518,109.947816 M54.1073807,113.755416 C53.6639349,114.017616 53.413453,114.420416 52.9885614,114.678816 C52.216706,115.148116 51.4578386,115.433116 50.570947,115.322916 C49.9326819,115.243116 49.3092602,115.360916 48.6468747,115.134816 C47.6505133,114.796616 46.9417422,114.201916 46.4166578,113.335516 C46.2608024,113.077116 46.2366819,112.727516 46.188441,112.412116 C46.153188,112.189816 46.2125614,111.952316 46.1773084,111.730016 C45.8730193,109.875616 47.3091157,108.796416 48.6839831,108.260616 C49.1088747,108.095316 49.5486096,107.962316 50.0365855,108.011716 C50.5895012,108.066816 51.1479831,108.006016 51.7046096,108.028816 C52.2352602,108.053516 52.7733325,107.914816 53.294706,108.232116 C53.5080795,108.361316 53.8587542,108.251116 54.1444892,108.251116 C54.2279831,106.790016 53.8309229,105.959716 52.6861277,105.471416 C51.956947,105.159816 51.186947,104.787416 50.3575735,105.222516 C50.2369711,105.285216 50.0718386,105.306116 49.9401036,105.281416 C49.4187301,105.188316 48.9455976,105.416316 48.5002964,105.585416 C48.2535253,105.678516 48.0290193,105.710816 47.785959,105.746916 C47.5020795,105.788716 47.231188,105.705116 47.1384169,105.448616 C47.0308024,105.152216 46.9417422,104.787416 47.2590193,104.529016 C47.5076458,104.329516 47.7488506,104.055916 48.0345855,103.981816 C48.8825133,103.761416 49.7007542,103.381416 50.6099108,103.457416 C51.3966096,103.525816 52.1740313,103.468816 52.9737181,103.656916 C54.4450675,104.006516 55.274441,104.916616 55.7679831,106.294116 C55.9312602,106.752016 55.9906337,107.204216 55.9869229,107.686816 C55.9757904,109.850916 55.9850675,112.016916 55.9776458,114.182916 C55.9776458,114.399516 56.0036217,114.676916 55.8867301,114.817516 C55.7141759,115.028416 55.5842964,115.355216 55.2113566,115.326716 C54.9441759,115.307716 54.4951639,115.015116 54.3764169,114.697816 C54.2650916,114.401416 54.2001518,114.087916 54.1073807,113.755416" id="Fill-7" fill="#FFFFFF"></path>
            <path d="M150.606007,108.673106 C150.769284,107.761106 150.461284,106.944106 149.886104,106.233506 C149.182899,105.363306 148.275598,104.979506 147.141935,105.044106 C146.028682,105.106806 145.249405,105.538106 144.598152,106.501406 C144.138007,107.181606 144.091622,107.943506 143.664875,108.673106 L150.606007,108.673106 Z M152.68408,109.442606 C152.446586,109.701006 152.268465,109.894806 152.058802,110.122806 L143.724248,110.122806 C144.028537,111.179206 144.388489,112.121606 145.203019,112.849306 C145.820875,113.402206 146.514802,113.647306 147.303357,113.729006 C148.548345,113.860106 149.624489,113.451606 150.509525,112.587106 C150.882465,112.224206 151.292513,112.321106 151.643188,112.389506 C151.993863,112.459806 152.012417,112.893006 151.98273,113.244506 C151.973453,113.358506 151.980875,113.472506 151.980875,113.635906 C151.149646,114.156506 150.476128,114.973506 149.396272,115.161606 C149.181043,115.199606 148.937983,115.317406 148.691212,115.321206 C148.134586,115.328806 147.576104,115.317406 147.019477,115.325006 C145.785622,115.340206 144.779983,114.853806 143.874537,114.000706 C142.98208,113.160906 142.416176,112.155806 142.076634,110.993006 C142.01726,110.785906 141.97273,110.571206 141.963453,110.358406 C141.946754,109.940406 141.978296,109.520506 141.956031,109.104406 C141.887381,107.820006 142.399477,106.748406 143.0062,105.667306 C143.655598,104.510206 144.800393,104.126406 145.811598,103.524106 C145.950754,103.440506 146.162272,103.467106 146.342248,103.465206 C146.898875,103.459506 147.457357,103.434806 148.012128,103.469006 C149.60779,103.565906 150.824947,104.322106 151.637622,105.737606 C151.845429,106.100506 152.017983,106.488106 152.203525,106.864306 C152.281453,107.022006 152.396489,107.175906 152.42061,107.341206 C152.526369,108.063206 152.604296,108.789006 152.68408,109.442606 Z" id="Fill-9" fill="#FFFFFF"></path>
            <g id="Group-13" transform="translate(171.012048, 103.090746)">
                <mask id="mask-2" fill="white">
                    <use xlink:href="#path-1"></use>
                </mask>
                <g id="Clip-12"></g>
                <path d="M9.54528916,5.58787 C9.43210843,5.20597 9.32820482,4.90957 9.26140964,4.60367 C8.75859036,2.31607 6.93656627,1.58267 5.01063855,2.08427 C4.56904819,2.20017 4.2276506,2.39967 3.9363494,2.73787 C3.7656506,2.93547 3.56340964,3.10837 3.39085542,3.30597 C2.82495181,3.94437 2.5930241,4.70247 2.57261446,5.58787 L9.54528916,5.58787 Z M2.51509639,6.98627 C2.78042169,8.23457 3.10140964,9.26627 4.21466265,9.98257 C5.13309639,10.57347 6.06451807,10.70647 7.07201205,10.62857 C7.89396386,10.56397 8.54336145,10.04717 9.22615663,9.63487 C9.49890361,9.47147 9.74381928,9.26437 10.0072892,9.07247 C10.0555301,9.10287 10.1074819,9.13327 10.1594337,9.16367 C11.0092169,9.65577 11.0333373,9.99967 10.3950723,10.74257 C9.73639759,11.50827 8.80126506,11.75527 7.9830241,12.22267 C7.86984337,12.28727 7.69172289,12.23217 7.54328916,12.23217 C7.02377108,12.23217 6.49126506,12.15807 5.98659036,12.24737 C4.44844578,12.51527 2.16627711,10.96867 1.46678313,9.53227 C0.963963855,8.50627 0.522373494,7.42897 0.587313253,6.26617 C0.700493976,4.23127 1.43524096,2.43957 3.05131325,1.17987 C3.66916867,0.69727 4.43360241,0.35147 5.27596386,0.37047 C5.57283133,0.37807 5.87340964,0.40277 6.16656627,0.36667 C8.00528916,0.14627 9.27254217,1.18177 10.2967349,2.50417 C11.1854819,3.64987 11.3951446,5.07677 11.2467108,6.52837 C11.2281566,6.69367 11.0092169,6.90077 10.8366627,6.96917 C10.6436988,7.04707 10.3987831,6.98627 10.1761325,6.98627 L3.389,6.98627 L2.51509639,6.98627 Z" id="Fill-11" fill="#FFFFFF" mask="url(#mask-2)"></path>
            </g>
            <g id="Group-16" transform="translate(68.963855, 98.290746)">
                <mask id="mask-4" fill="white">
                    <use xlink:href="#path-3"></use>
                </mask>
                <g id="Clip-15"></g>
                <path d="M2.38633012,11.55675 L8.70960723,5.08155 C9.1011012,5.22975 9.42394458,5.34945 9.73565542,5.46915 L9.73565542,6.69465 C8.47025783,7.88405 7.18259518,9.09625 5.86895663,10.33125 C6.6278241,11.30785 7.33288434,12.21985 8.04351084,13.12995 C8.64281205,13.89945 9.2551012,14.66325 9.84698072,15.44035 C10.3108361,16.04455 10.1883783,16.55565 9.50558313,16.92425 C9.3831253,16.98885 9.2458241,17.02115 9.02873976,17.09905 C7.37555904,15.49545 6.16767952,13.49475 4.7204506,11.82655 L2.39004096,14.21105 L2.39004096,16.44925 C1.55139036,17.29665 1.45676386,17.29665 0.605125301,16.46255 C0.605125301,11.51305 0.60326988,6.54265 0.606980723,1.57225 C0.606980723,0.65075 0.642233735,0.62225 1.5291253,0.60895 C1.71281205,0.60705 1.89278795,0.60895 2.05792048,0.60895 C2.3677759,1.03835 2.39560723,1.49625 2.39375181,1.98265 C2.38076386,4.90485 2.38633012,7.82895 2.38633012,10.75115 L2.38633012,11.55675 Z" id="Fill-14" fill="#FFFFFF" mask="url(#mask-4)"></path>
            </g>
            <path d="M31.2647277,106.077136 L31.2647277,106.953036 C31.9308241,108.005636 33.0459325,108.100636 34.0163181,108.480636 C34.8809446,108.816936 35.7975229,108.986036 36.5693783,109.603536 C37.3839084,110.253336 37.9590892,111.568136 37.6492337,112.535236 C37.2317639,113.840536 36.5081494,114.851336 35.0998843,115.157236 C35.0386554,115.170536 34.9959807,115.305436 34.9403181,115.307336 C33.5784386,115.343436 32.2109928,115.423236 30.9103422,114.855136 C30.4001012,114.630936 29.9102699,114.368736 29.4594024,114.041936 C28.8044386,113.566936 28.889788,112.928536 29.4668241,112.476336 C29.7043181,112.292036 29.9269687,112.278736 30.1496193,112.478236 C30.8713783,113.137536 31.7712578,113.435836 32.6711373,113.663836 C33.4745349,113.869036 34.337306,113.810136 35.1035952,113.475736 C35.5934265,113.259136 35.8977157,112.761336 35.9348241,112.164736 C35.9441012,111.974736 35.9366795,111.784736 35.9366795,111.644136 C35.3355229,110.528836 34.1814506,110.479436 33.2277639,110.093736 C32.559812,109.825836 31.8083663,109.768836 31.1793783,109.385036 C30.8157157,109.164636 30.4724627,108.894836 30.1626072,108.602236 C29.3888964,107.872636 29.3610651,106.951136 29.5800048,105.980236 C29.8694506,104.693936 30.7006795,103.964336 31.8974265,103.605236 C32.0291614,103.565336 32.1534747,103.472236 32.2852096,103.468436 C33.5784386,103.428536 34.8753783,103.396236 36.0999566,103.924436 C36.4153783,104.059336 36.7252337,104.237936 36.9979807,104.450736 C37.276294,104.669236 37.3987518,105.376036 37.2169205,105.668636 C37.1297157,105.805436 36.9478843,105.927036 36.7883181,105.959336 C36.5044386,106.020136 36.2539566,105.908036 35.9849205,105.757936 C35.1091614,105.273436 34.1684627,105.035936 33.1572578,105.041636 C32.5301253,105.045436 32.0458602,105.246836 31.6339566,105.699036 C31.5337639,105.809236 31.4261494,105.913736 31.2647277,106.077136" id="Fill-17" fill="#FFFFFF"></path>
            <path d="M68.1104337,113.059256 C67.4610361,113.697656 66.9452289,114.381656 66.1937831,114.773056 C65.639012,115.061856 65.0675422,115.348756 64.4107229,115.325956 C63.9283133,115.310756 63.4421928,115.282256 62.9653494,115.331656 C61.8298313,115.447556 60.8742892,114.974456 60.0430602,114.305656 C59.4901446,113.861056 58.994747,113.310056 58.5754217,112.673556 C58.1022892,111.953456 57.8703614,111.229556 57.7312048,110.393556 C57.6421446,109.853956 57.3823855,109.280156 57.608747,108.803256 C57.8499518,108.288356 57.7033735,107.746856 57.9557108,107.235756 C58.2414458,106.658156 58.5104819,106.076756 58.924241,105.599856 C59.4029398,105.045056 59.9131807,104.518756 60.5514458,104.133056 C61.1618795,103.762556 61.7797349,103.458556 62.5070602,103.462356 C63.0636867,103.464256 63.6203133,103.466156 64.1787952,103.460456 C65.2475181,103.452856 66.1548193,103.863256 66.967494,104.552956 C67.2086988,104.761956 67.487012,104.923456 67.759759,105.111556 C67.7838795,105.594156 67.9193253,106.069156 67.4499036,106.447256 C67.1901446,106.654356 66.9804819,106.768356 66.6799036,106.553656 C66.2234699,106.223056 65.7521928,105.913356 65.2920482,105.580856 C64.407012,104.938656 63.4403373,104.988056 62.4328434,105.170456 C61.4680241,105.345256 60.8000723,105.995056 60.3009639,106.732256 C59.8166988,107.450456 59.5235422,108.305456 59.5291084,109.253556 C59.5346747,110.598756 59.8630843,111.807156 60.878,112.669756 C62.299253,113.880056 64.0656145,114.210656 65.7169398,112.996556 C65.9748434,112.806556 66.2791325,112.658356 66.4776627,112.420856 C66.7058795,112.149156 66.9563614,112.090256 67.2587952,112.133956 C67.5742169,112.177656 67.7708916,112.337256 67.8005783,112.702056 C67.8117108,112.810356 67.974988,112.907256 68.1104337,113.059256" id="Fill-19" fill="#FFFFFF"></path>
            <path d="M171.213063,113.090986 C170.461617,113.788286 169.90499,114.635686 168.927183,114.964386 C168.42993,115.131586 167.958653,115.386186 167.400171,115.331086 C166.997545,115.291186 166.58193,115.285486 166.177448,115.331086 C165.053063,115.454586 164.051135,115.053686 163.231039,114.369686 C162.240243,113.541286 161.314388,112.587486 161.01381,111.223286 C160.874653,110.594386 160.703954,109.952186 160.696533,109.315686 C160.692822,108.905286 160.956292,108.491086 160.891352,108.042686 C160.820846,107.560086 161.310677,107.284586 161.323665,106.862786 C161.340364,106.319386 161.794942,106.072386 162.00646,105.667686 C162.206846,105.281986 162.594629,104.987486 162.93046,104.691086 C163.251448,104.409886 163.581713,104.107786 163.960219,103.934886 C164.494581,103.691686 165.034508,103.414286 165.661641,103.456086 C166.179304,103.488386 166.700677,103.478886 167.220195,103.459886 C168.580219,103.402886 169.64152,104.103986 170.637882,104.909586 C171.187087,105.356086 170.947737,106.459986 170.29834,106.648086 C169.916123,106.760186 169.634099,106.446686 169.339087,106.279486 C169.003255,106.087586 168.71752,105.798786 168.400243,105.566986 C167.685906,105.046386 166.442773,104.972286 165.539183,105.175586 C164.576219,105.392186 163.89528,106.009686 163.416581,106.752586 C162.949014,107.474586 162.670701,108.329586 162.644725,109.279586 C162.611328,110.442386 162.987978,111.437986 163.639231,112.283486 C164.678267,113.634386 166.86581,114.327886 168.700822,113.132786 C169.029231,112.919986 169.365063,112.691986 169.624822,112.403186 C169.86046,112.139086 170.114653,112.116286 170.41152,112.129586 C170.782605,112.146686 170.87352,112.405086 170.942171,112.718586 C170.970002,112.840186 171.099882,112.940886 171.213063,113.090986" id="Fill-21" fill="#FFFFFF"></path>
            <path d="M39.9438337,105.281226 L38.6543157,105.281226 C38.4706289,104.952526 38.2980747,104.646626 38.1385084,104.359726 C38.4298096,103.877126 38.7619301,103.628226 39.3241229,103.671926 C39.782412,103.709926 39.9345566,103.489526 39.9419783,102.987926 C39.9531108,102.191826 39.9438337,101.393826 39.9438337,100.658526 C40.2518337,100.156926 40.6785807,99.858626 41.1665566,100.071426 C41.6192795,100.270926 41.7936892,100.738326 41.7398819,101.296926 C41.6823639,101.861226 41.7176169,102.436926 41.7287494,103.006926 C41.7380265,103.499026 41.9013036,103.677626 42.3688699,103.687126 C43.0720747,103.700426 43.7771349,103.685226 44.4821952,103.692826 C45.1093277,103.698526 45.2707494,103.829626 45.291159,104.317926 C45.3115687,104.821426 44.9497614,105.267926 44.4654964,105.281226 C43.7214723,105.304026 42.981159,105.286926 42.2371349,105.286926 L41.726894,105.286926 L41.726894,109.960926 C41.726894,110.644926 41.7398819,111.328926 41.7231831,112.012926 C41.7083398,112.622826 41.9810867,113.173826 42.4523639,113.380926 C42.8234482,113.542426 43.2297855,113.949026 43.8160988,113.578526 C44.3337614,113.251726 44.8180265,113.500626 45.1631349,113.931926 C45.352388,114.169426 45.3932072,114.425926 45.1779783,114.623526 C44.8940988,114.887626 44.5675446,115.269526 44.2391349,115.290426 C43.3448217,115.345526 42.4300988,115.451926 41.5487735,115.100426 C40.732388,114.775526 39.9475446,113.702026 39.9456892,112.812826 C39.9419783,110.342826 39.9438337,107.872826 39.9438337,105.281226" id="Fill-23" fill="#FFFFFF"></path>
            <path d="M156.290092,105.986316 C156.776212,104.713316 157.711345,104.247816 158.570405,103.693016 C159.091778,103.356716 159.687369,103.447916 160.256983,103.485916 C160.401706,103.493516 160.602092,103.750016 160.652188,103.930516 C160.720839,104.177516 160.672598,104.456816 160.667031,104.722816 C160.65961,105.078116 160.455513,105.233916 160.13267,105.290916 C159.754164,105.355516 159.344116,105.366916 159.006429,105.530316 C158.260549,105.889416 157.542501,106.349216 157.07308,107.056016 C156.713128,107.605116 156.475634,108.243516 156.227007,108.861016 C156.14908,109.054816 156.214019,109.311316 156.214019,109.539316 C156.214019,110.945316 156.19361,112.353216 156.227007,113.759216 C156.236284,114.194316 156.074863,114.542016 155.8652,114.863116 C155.69079,115.129116 155.460718,115.425516 155.058092,115.322916 C154.622067,115.210816 154.399417,114.857416 154.219441,114.485016 C154.160067,114.361516 154.210164,114.184816 154.210164,114.032816 C154.210164,110.952916 154.210164,107.874916 154.208308,104.795016 C154.208308,104.274416 154.299224,103.827916 154.848429,103.598016 C155.405055,103.364316 155.73161,103.580916 156.015489,104.133816 C156.28267,104.662016 156.141658,105.211116 156.290092,105.986316" id="Fill-25" fill="#FFFFFF"></path>
            <path d="M94.7385181,115.094916 C94.1262289,115.047416 92.9665904,114.515416 92.5101566,114.065116 C92.1409277,113.700316 91.7809759,113.320316 91.4228795,112.953616 C91.755,112.383616 92.0834096,111.815516 92.4248072,111.234116 C92.5175783,111.348116 92.6418916,111.475416 92.7309518,111.623616 C93.4471446,112.830116 93.4434337,112.832016 94.5418434,113.407716 C94.7533614,113.519816 94.9685904,113.622416 95.1838193,113.726916 C95.2561807,114.112616 95.9445422,114.289316 95.5400602,114.815616 C95.3192651,115.062616 94.8795301,114.591416 94.7385181,115.094916" id="Fill-27" fill="#FFFFFF"></path>
            <path d="M94.7385181,115.094916 C94.8795301,114.591416 95.3192651,115.062616 95.5400602,114.815616 C95.9445422,114.289316 95.2561807,114.112616 95.1838193,113.726916 L96.1783253,113.726916 C96.5123012,113.726916 96.8481325,113.757316 97.1746867,113.717416 C97.4808313,113.683216 97.7795542,113.574916 98.0801325,113.498916 C98.1320843,113.557816 98.210012,113.679416 98.2322771,113.669916 C98.3528795,113.614816 98.460494,113.527416 98.5977952,113.432416 C98.7480843,113.736416 98.8705422,113.983416 98.9855783,114.217116 C98.9299157,114.296916 98.9002289,114.388116 98.8482771,114.407116 C98.4530723,114.542016 98.0244699,114.619916 97.8574819,115.094916 C97.6700843,115.170916 97.4845422,115.305816 97.2971446,115.313416 C96.5011687,115.338116 95.7051928,115.328616 94.9073614,115.313416 C94.8498434,115.311516 94.7941807,115.170916 94.7385181,115.094916" id="Fill-29" fill="#FFFFFF"></path>
        </g>
    </g>
</svg>