<?xml version="1.0" encoding="UTF-8"?>
<svg width="212px" height="212px" viewBox="0 0 212 212" version="1.1" xmlns="http://www.w3.org/2000/svg" xmlns:xlink="http://www.w3.org/1999/xlink">
    <!-- Generator: Sketch 51.2 (57519) - http://www.bohemiancoding.com/sketch -->
    <title>Logos</title>
    <desc>Created with Sketch.</desc>
    <defs>
        <polygon id="path-1" points="1.58094649 1.3369709 12.2903133 1.3369709 12.2903133 13.2778591 1.58094649 13.2778591"></polygon>
        <polygon id="path-3" points="1.60466145 0.6099 11.1238407 0.6099 11.1238407 17.09905 1.60466145 17.09905"></polygon>
    </defs>
    <g id="Logos" stroke="none" stroke-width="1" fill="none" fill-rule="evenodd">
        <g id="stackcommerce" transform="translate(29.000000, 97.000000)">
            <path d="M69.0797614,16.499106 C69.8274964,15.853106 70.5882193,15.233706 70.9667253,14.241906 C71.3452313,13.242506 71.3637855,12.539506 71.1318578,11.388106 C71.0149663,10.799106 70.8554,10.312706 70.4973036,9.822506 C69.6252554,8.633106 68.6845566,8.055506 67.3226771,8.063106 C66.684412,8.066906 66.0739783,8.027006 65.4579783,8.414606 C64.8827976,8.775606 64.3206048,9.047306 63.9921952,9.712306 C63.7083157,10.282306 63.3669181,10.783906 63.2574482,11.462206 C63.1294241,12.252606 62.8733759,13.039206 62.6006289,13.795406 C62.3742675,14.418606 62.0551349,15.047506 61.628388,15.541506 C60.6375928,16.692906 59.5558819,17.705606 58.0047494,18.119806 C56.1697373,18.610006 54.4237855,18.416206 52.9320265,17.344606 C51.5033518,16.318606 50.5849181,14.811906 50.5923398,12.896706 L50.5923398,11.984706 C50.5923398,10.206306 51.4922193,8.655906 52.9728458,7.533006 C54.3031831,6.524106 55.8134964,6.233406 57.3219542,6.514606 C58.5613759,6.748306 59.8063639,7.293606 60.6134723,8.452606 C60.6635687,9.030206 60.3258819,9.351306 59.8323398,9.623006 C59.2014964,9.206906 58.5799301,8.684406 57.871159,8.355706 C56.2977614,7.624206 53.7985084,7.975706 52.8188458,10.033406 C52.4848699,10.740206 52.1898578,11.477406 52.1675928,12.258306 C52.1249181,13.529406 52.6796892,14.836606 53.5795687,15.739106 C54.1547494,16.316706 54.9247494,16.776506 55.833906,16.727106 C55.8710145,16.725206 55.9081229,16.721406 55.9452313,16.727106 C56.9081952,16.862006 57.7412795,16.542806 58.5725084,16.060206 C59.3629181,15.598506 59.9306771,14.990506 60.4075205,14.207706 C61.0086771,13.217806 61.3166771,12.174706 61.5467494,11.032806 C61.8194964,9.683806 62.5598096,8.498206 63.6415205,7.610906 C63.9884843,7.327806 64.3985325,7.103606 64.8085807,6.930706 C65.2854241,6.729306 65.7882434,6.537406 66.2910627,6.482306 C66.9887012,6.404406 67.7234482,6.347406 68.3988217,6.491806 C69.1947976,6.662806 70.0167494,6.985806 70.6364602,7.525406 C71.5530386,8.325306 72.3434482,9.210706 72.738653,10.500806 C73.4195928,12.735206 72.8332795,14.982906 71.4398578,16.489606 C70.7125325,17.276206 69.8775928,17.827206 68.8571108,18.095106 C69.0259542,17.620106 69.4527012,17.542206 69.847906,17.407306 C69.8998578,17.388306 69.9295446,17.297106 69.9852072,17.217306 C69.8701711,16.983606 69.7477133,16.736606 69.5974241,16.432606 C69.4601229,16.527606 69.3525084,16.615006 69.231906,16.670106 C69.209641,16.679606 69.1317133,16.558006 69.0797614,16.499106" id="Fill-1" fill="#404041"></path>
            <path d="M94.2511542,17.757096 L94.2511542,7.052496 C94.5461663,6.630696 94.9432265,6.267796 95.4441904,6.482496 C96.0601904,6.748496 96.1084313,7.388796 95.9933952,8.182996 C96.5092024,7.671896 96.8394675,7.193096 97.2884795,6.947996 C97.7597566,6.687696 98.2421663,6.353296 98.8711542,6.446396 C99.4166482,6.526196 99.9899735,6.408396 100.537323,6.476796 C101.093949,6.547096 101.541106,6.925196 102.025371,7.198796 C102.511492,7.476196 102.598696,8.101296 103.203564,8.315996 C103.457757,8.067096 103.758335,7.802996 104.029227,7.504696 C104.699034,6.765596 105.528407,6.444496 106.502504,6.461596 C106.983058,6.471096 107.474745,6.406496 107.947877,6.474896 C109.033299,6.628796 109.923901,7.105696 110.521347,8.122196 C110.972214,8.893596 111.194865,9.683996 111.185588,10.582696 C111.159612,12.972896 111.176311,15.366896 111.176311,17.753296 C111.116937,17.814096 111.064986,17.867296 111.013034,17.922396 C110.756986,18.184596 110.538046,18.471496 110.090889,18.251096 C109.67713,18.049696 109.461901,17.738096 109.400672,17.304896 C109.36913,17.080696 109.395106,16.846996 109.395106,16.618996 C109.395106,14.794996 109.391395,12.970996 109.395106,11.148896 C109.396961,10.191296 109.068552,9.385696 108.38019,8.728296 C107.626889,8.006296 106.756696,7.882796 105.812287,8.198196 C104.699034,8.570596 104.120142,9.351496 103.799154,10.497196 C103.635877,11.084296 103.60619,11.648596 103.60619,12.233796 C103.600624,13.943796 103.609901,15.653796 103.600624,17.363796 C103.596913,17.952796 103.18501,18.349896 102.656214,18.323296 C102.205347,18.298596 101.828696,17.882496 101.824986,17.361896 C101.815708,15.841896 101.821275,14.321896 101.821275,12.803796 C101.821275,12.269896 101.817564,11.737896 101.82313,11.207796 C101.836118,10.067796 101.413082,9.104496 100.516913,8.469896 C99.9454434,8.065196 99.2385277,7.913196 98.4982145,8.144996 C97.3033229,8.524996 96.4739494,9.214696 96.1473952,10.519996 C96.0731783,10.816396 96.0416361,11.097596 96.0397807,11.378796 C96.0230819,13.504896 96.0305036,15.632896 96.0305036,17.753296 C95.1825759,18.591196 95.0972265,18.591196 94.2511542,17.757096" id="Fill-3" fill="#404041"></path>
            <path d="M83.7999349,8.463056 C84.235959,7.984256 84.5421036,7.602356 84.8946337,7.271756 C85.4234289,6.770156 86.0208747,6.411056 86.7890193,6.456656 C87.197212,6.483256 87.6072602,6.485156 88.0135976,6.456656 C88.6370193,6.416756 89.1621036,6.661856 89.7372843,6.874656 C90.5332602,7.167256 90.9377422,7.790456 91.3032602,8.404156 C91.6149711,8.922856 91.817212,9.557456 91.8079349,10.239556 C91.781959,12.745656 91.7986578,15.251756 91.7986578,17.754056 C91.0602,18.483656 91.0602,18.483656 90.017453,17.782556 L90.017453,17.079556 C90.017453,15.103556 90.0155976,13.129456 90.0193084,11.153456 C90.0211639,10.195856 89.6964651,9.390256 89.0081036,8.732856 C88.252947,8.010856 87.3846096,7.893056 86.4383446,8.191356 C84.9502964,8.660656 84.2341036,10.114156 84.2285373,11.314956 C84.2174048,13.328956 84.2285373,15.341056 84.2229711,17.355056 C84.2211157,17.881356 83.8481759,18.297456 83.3973084,18.322156 C82.8648024,18.354456 82.449188,17.959256 82.4473325,17.370256 C82.4380554,15.700156 82.4473325,14.028156 82.4436217,12.356156 C82.4417663,11.620856 82.4102241,10.900756 82.2562241,10.165456 C82.1040795,9.445356 81.7385614,8.936156 81.2283205,8.552356 C80.1725855,7.750556 78.7439108,7.932956 77.7494048,8.865856 C76.9942482,9.576456 76.6454289,10.437156 76.6491398,11.480256 C76.6584169,13.340356 76.6472843,15.202356 76.654706,17.064356 C76.6584169,17.611556 76.4543205,17.993456 75.9644892,18.240456 C75.6509229,18.396256 75.4171398,18.367756 75.1982,18.092256 C75.1054289,17.976356 74.9922482,17.875656 74.8864892,17.769256 C74.8809229,17.733156 74.8716458,17.697056 74.8716458,17.662856 L74.8716458,7.064656 C75.1666578,6.654256 75.5340313,6.274256 76.0498386,6.479456 C76.6973807,6.739756 76.7196458,7.378156 76.6083205,8.255956 C77.6640554,6.950656 78.7568988,6.411056 80.2523687,6.409156 C81.8406096,6.405356 82.7720313,7.294556 83.7999349,8.463056" id="Fill-5" fill="#404041"></path>
            <path d="M25.2001518,12.947816 C24.9552361,12.830016 24.7474289,12.664716 24.519212,12.632416 C23.5915012,12.501316 22.671212,12.315116 21.7193807,12.379716 C21.1404892,12.419616 20.6228265,12.579216 20.1237181,12.849016 C19.2238386,13.335416 18.8100795,14.142916 18.9640795,15.111916 C19.0809711,15.854816 20.0290916,16.647116 20.8862964,16.728816 C21.060706,16.745916 21.2592361,16.747816 21.3946819,16.839016 C21.641453,17.006216 21.8381277,17.008116 22.0886096,16.848516 C22.2277663,16.761116 22.4225855,16.742116 22.5932843,16.730716 C23.7696217,16.652816 25.5192843,15.301916 25.2094289,13.833216 C25.1482,13.546316 25.2001518,13.234716 25.2001518,12.947816 M25.1073807,16.755416 C24.6639349,17.017616 24.413453,17.420416 23.9885614,17.678816 C23.216706,18.148116 22.4578386,18.433116 21.570947,18.322916 C20.9326819,18.243116 20.3092602,18.360916 19.6468747,18.134816 C18.6505133,17.796616 17.9417422,17.201916 17.4166578,16.335516 C17.2608024,16.077116 17.2366819,15.727516 17.188441,15.412116 C17.153188,15.189816 17.2125614,14.952316 17.1773084,14.730016 C16.8730193,12.875616 18.3091157,11.796416 19.6839831,11.260616 C20.1088747,11.095316 20.5486096,10.962316 21.0365855,11.011716 C21.5895012,11.066816 22.1479831,11.006016 22.7046096,11.028816 C23.2352602,11.053516 23.7733325,10.914816 24.294706,11.232116 C24.5080795,11.361316 24.8587542,11.251116 25.1444892,11.251116 C25.2279831,9.790016 24.8309229,8.959716 23.6861277,8.471416 C22.956947,8.159816 22.186947,7.787416 21.3575735,8.222516 C21.2369711,8.285216 21.0718386,8.306116 20.9401036,8.281416 C20.4187301,8.188316 19.9455976,8.416316 19.5002964,8.585416 C19.2535253,8.678516 19.0290193,8.710816 18.785959,8.746916 C18.5020795,8.788716 18.231188,8.705116 18.1384169,8.448616 C18.0308024,8.152216 17.9417422,7.787416 18.2590193,7.529016 C18.5076458,7.329516 18.7488506,7.055916 19.0345855,6.981816 C19.8825133,6.761416 20.7007542,6.381416 21.6099108,6.457416 C22.3966096,6.525816 23.1740313,6.468816 23.9737181,6.656916 C25.4450675,7.006516 26.274441,7.916616 26.7679831,9.294116 C26.9312602,9.752016 26.9906337,10.204216 26.9869229,10.686816 C26.9757904,12.850916 26.9850675,15.016916 26.9776458,17.182916 C26.9776458,17.399516 27.0036217,17.676916 26.8867301,17.817516 C26.7141759,18.028416 26.5842964,18.355216 26.2113566,18.326716 C25.9441759,18.307716 25.4951639,18.015116 25.3764169,17.697816 C25.2650916,17.401416 25.2001518,17.087916 25.1073807,16.755416" id="Fill-7" fill="#404041"></path>
            <path d="M121.606007,11.673106 C121.769284,10.761106 121.461284,9.944106 120.886104,9.233506 C120.182899,8.363306 119.275598,7.979506 118.141935,8.044106 C117.028682,8.106806 116.249405,8.538106 115.598152,9.501406 C115.138007,10.181606 115.091622,10.943506 114.664875,11.673106 L121.606007,11.673106 Z M123.68408,12.442606 C123.446586,12.701006 123.268465,12.894806 123.058802,13.122806 L114.724248,13.122806 C115.028537,14.179206 115.388489,15.121606 116.203019,15.849306 C116.820875,16.402206 117.514802,16.647306 118.303357,16.729006 C119.548345,16.860106 120.624489,16.451606 121.509525,15.587106 C121.882465,15.224206 122.292513,15.321106 122.643188,15.389506 C122.993863,15.459806 123.012417,15.893006 122.98273,16.244506 C122.973453,16.358506 122.980875,16.472506 122.980875,16.635906 C122.149646,17.156506 121.476128,17.973506 120.396272,18.161606 C120.181043,18.199606 119.937983,18.317406 119.691212,18.321206 C119.134586,18.328806 118.576104,18.317406 118.019477,18.325006 C116.785622,18.340206 115.779983,17.853806 114.874537,17.000706 C113.98208,16.160906 113.416176,15.155806 113.076634,13.993006 C113.01726,13.785906 112.97273,13.571206 112.963453,13.358406 C112.946754,12.940406 112.978296,12.520506 112.956031,12.104406 C112.887381,10.820006 113.399477,9.748406 114.0062,8.667306 C114.655598,7.510206 115.800393,7.126406 116.811598,6.524106 C116.950754,6.440506 117.162272,6.467106 117.342248,6.465206 C117.898875,6.459506 118.457357,6.434806 119.012128,6.469006 C120.60779,6.565906 121.824947,7.322106 122.637622,8.737606 C122.845429,9.100506 123.017983,9.488106 123.203525,9.864306 C123.281453,10.022006 123.396489,10.175906 123.42061,10.341206 C123.526369,11.063206 123.604296,11.789006 123.68408,12.442606 Z" id="Fill-9" fill="#404041"></path>
            <g id="Group-13" transform="translate(141.012048, 5.090746)">
                <mask id="mask-2" fill="white">
                    <use xlink:href="#path-1"></use>
                </mask>
                <g id="Clip-12"></g>
                <path d="M10.5452892,6.58787 C10.4321084,6.20597 10.3282048,5.90957 10.2614096,5.60367 C9.75859036,3.31607 7.93656627,2.58267 6.01063855,3.08427 C5.56904819,3.20017 5.2276506,3.39967 4.9363494,3.73787 C4.7656506,3.93547 4.56340964,4.10837 4.39085542,4.30597 C3.82495181,4.94437 3.5930241,5.70247 3.57261446,6.58787 L10.5452892,6.58787 Z M3.51509639,7.98627 C3.78042169,9.23457 4.10140964,10.26627 5.21466265,10.98257 C6.13309639,11.57347 7.06451807,11.70647 8.07201205,11.62857 C8.89396386,11.56397 9.54336145,11.04717 10.2261566,10.63487 C10.4989036,10.47147 10.7438193,10.26437 11.0072892,10.07247 C11.0555301,10.10287 11.1074819,10.13327 11.1594337,10.16367 C12.0092169,10.65577 12.0333373,10.99967 11.3950723,11.74257 C10.7363976,12.50827 9.80126506,12.75527 8.9830241,13.22267 C8.86984337,13.28727 8.69172289,13.23217 8.54328916,13.23217 C8.02377108,13.23217 7.49126506,13.15807 6.98659036,13.24737 C5.44844578,13.51527 3.16627711,11.96867 2.46678313,10.53227 C1.96396386,9.50627 1.52237349,8.42897 1.58731325,7.26617 C1.70049398,5.23127 2.43524096,3.43957 4.05131325,2.17987 C4.66916867,1.69727 5.43360241,1.35147 6.27596386,1.37047 C6.57283133,1.37807 6.87340964,1.40277 7.16656627,1.36667 C9.00528916,1.14627 10.2725422,2.18177 11.2967349,3.50417 C12.1854819,4.64987 12.3951446,6.07677 12.2467108,7.52837 C12.2281566,7.69367 12.0092169,7.90077 11.8366627,7.96917 C11.6436988,8.04707 11.3987831,7.98627 11.1761325,7.98627 L4.389,7.98627 L3.51509639,7.98627 Z" id="Fill-11" fill="#404041" mask="url(#mask-2)"></path>
            </g>
            <g id="Group-16" transform="translate(38.963855, 1.290746)">
                <mask id="mask-4" fill="white">
                    <use xlink:href="#path-3"></use>
                </mask>
                <g id="Clip-15"></g>
                <path d="M3.38633012,11.55675 L9.70960723,5.08155 C10.1011012,5.22975 10.4239446,5.34945 10.7356554,5.46915 L10.7356554,6.69465 C9.47025783,7.88405 8.18259518,9.09625 6.86895663,10.33125 C7.6278241,11.30785 8.33288434,12.21985 9.04351084,13.12995 C9.64281205,13.89945 10.2551012,14.66325 10.8469807,15.44035 C11.3108361,16.04455 11.1883783,16.55565 10.5055831,16.92425 C10.3831253,16.98885 10.2458241,17.02115 10.0287398,17.09905 C8.37555904,15.49545 7.16767952,13.49475 5.7204506,11.82655 L3.39004096,14.21105 L3.39004096,16.44925 C2.55139036,17.29665 2.45676386,17.29665 1.6051253,16.46255 C1.6051253,11.51305 1.60326988,6.54265 1.60698072,1.57225 C1.60698072,0.65075 1.64223373,0.62225 2.5291253,0.60895 C2.71281205,0.60705 2.89278795,0.60895 3.05792048,0.60895 C3.3677759,1.03835 3.39560723,1.49625 3.39375181,1.98265 C3.38076386,4.90485 3.38633012,7.82895 3.38633012,10.75115 L3.38633012,11.55675 Z" id="Fill-14" fill="#404041" mask="url(#mask-4)"></path>
            </g>
            <path d="M2.26472771,9.077136 L2.26472771,9.953036 C2.9308241,11.005636 4.04593253,11.100636 5.01631807,11.480636 C5.88094458,11.816936 6.79752289,11.986036 7.56937831,12.603536 C8.38390843,13.253336 8.95908916,14.568136 8.64923373,15.535236 C8.23176386,16.840536 7.5081494,17.851336 6.09988434,18.157236 C6.03865542,18.170536 5.99598072,18.305436 5.94031807,18.307336 C4.57843855,18.343436 3.21099277,18.423236 1.91034217,17.855136 C1.4001012,17.630936 0.91026988,17.368736 0.45940241,17.041936 C-0.195561446,16.566936 -0.110212048,15.928536 0.466824096,15.476336 C0.704318072,15.292036 0.926968675,15.278736 1.14961928,15.478236 C1.87137831,16.137536 2.77125783,16.435836 3.67113735,16.663836 C4.47453494,16.869036 5.33730602,16.810136 6.10359518,16.475736 C6.59342651,16.259136 6.89771566,15.761336 6.9348241,15.164736 C6.9441012,14.974736 6.93667952,14.784736 6.93667952,14.644136 C6.33552289,13.528836 5.1814506,13.479436 4.22776386,13.093736 C3.55981205,12.825836 2.80836627,12.768836 2.17937831,12.385036 C1.81571566,12.164636 1.47246265,11.894836 1.16260723,11.602236 C0.388896386,10.872636 0.36106506,9.951136 0.580004819,8.980236 C0.869450602,7.693936 1.70067952,6.964336 2.89742651,6.605236 C3.02916145,6.565336 3.1534747,6.472236 3.28520964,6.468436 C4.57843855,6.428536 5.87537831,6.396236 7.09995663,6.924436 C7.41537831,7.059336 7.72523373,7.237936 7.99798072,7.450736 C8.27629398,7.669236 8.39875181,8.376036 8.21692048,8.668636 C8.12971566,8.805436 7.94788434,8.927036 7.78831807,8.959336 C7.50443855,9.020136 7.25395663,8.908036 6.98492048,8.757936 C6.10916145,8.273436 5.16846265,8.035936 4.15725783,8.041636 C3.5301253,8.045436 3.04586024,8.246836 2.63395663,8.699036 C2.53376386,8.809236 2.4261494,8.913736 2.26472771,9.077136" id="Fill-17" fill="#404041"></path>
            <path d="M39.1104337,16.059256 C38.4610361,16.697656 37.9452289,17.381656 37.1937831,17.773056 C36.639012,18.061856 36.0675422,18.348756 35.4107229,18.325956 C34.9283133,18.310756 34.4421928,18.282256 33.9653494,18.331656 C32.8298313,18.447556 31.8742892,17.974456 31.0430602,17.305656 C30.4901446,16.861056 29.994747,16.310056 29.5754217,15.673556 C29.1022892,14.953456 28.8703614,14.229556 28.7312048,13.393556 C28.6421446,12.853956 28.3823855,12.280156 28.608747,11.803256 C28.8499518,11.288356 28.7033735,10.746856 28.9557108,10.235756 C29.2414458,9.658156 29.5104819,9.076756 29.924241,8.599856 C30.4029398,8.045056 30.9131807,7.518756 31.5514458,7.133056 C32.1618795,6.762556 32.7797349,6.458556 33.5070602,6.462356 C34.0636867,6.464256 34.6203133,6.466156 35.1787952,6.460456 C36.2475181,6.452856 37.1548193,6.863256 37.967494,7.552956 C38.2086988,7.761956 38.487012,7.923456 38.759759,8.111556 C38.7838795,8.594156 38.9193253,9.069156 38.4499036,9.447256 C38.1901446,9.654356 37.9804819,9.768356 37.6799036,9.553656 C37.2234699,9.223056 36.7521928,8.913356 36.2920482,8.580856 C35.407012,7.938656 34.4403373,7.988056 33.4328434,8.170456 C32.4680241,8.345256 31.8000723,8.995056 31.3009639,9.732256 C30.8166988,10.450456 30.5235422,11.305456 30.5291084,12.253556 C30.5346747,13.598756 30.8630843,14.807156 31.878,15.669756 C33.299253,16.880056 35.0656145,17.210656 36.7169398,15.996556 C36.9748434,15.806556 37.2791325,15.658356 37.4776627,15.420856 C37.7058795,15.149156 37.9563614,15.090256 38.2587952,15.133956 C38.5742169,15.177656 38.7708916,15.337256 38.8005783,15.702056 C38.8117108,15.810356 38.974988,15.907256 39.1104337,16.059256" id="Fill-19" fill="#404041"></path>
            <path d="M142.213063,16.090986 C141.461617,16.788286 140.90499,17.635686 139.927183,17.964386 C139.42993,18.131586 138.958653,18.386186 138.400171,18.331086 C137.997545,18.291186 137.58193,18.285486 137.177448,18.331086 C136.053063,18.454586 135.051135,18.053686 134.231039,17.369686 C133.240243,16.541286 132.314388,15.587486 132.01381,14.223286 C131.874653,13.594386 131.703954,12.952186 131.696533,12.315686 C131.692822,11.905286 131.956292,11.491086 131.891352,11.042686 C131.820846,10.560086 132.310677,10.284586 132.323665,9.862786 C132.340364,9.319386 132.794942,9.072386 133.00646,8.667686 C133.206846,8.281986 133.594629,7.987486 133.93046,7.691086 C134.251448,7.409886 134.581713,7.107786 134.960219,6.934886 C135.494581,6.691686 136.034508,6.414286 136.661641,6.456086 C137.179304,6.488386 137.700677,6.478886 138.220195,6.459886 C139.580219,6.402886 140.64152,7.103986 141.637882,7.909586 C142.187087,8.356086 141.947737,9.459986 141.29834,9.648086 C140.916123,9.760186 140.634099,9.446686 140.339087,9.279486 C140.003255,9.087586 139.71752,8.798786 139.400243,8.566986 C138.685906,8.046386 137.442773,7.972286 136.539183,8.175586 C135.576219,8.392186 134.89528,9.009686 134.416581,9.752586 C133.949014,10.474586 133.670701,11.329586 133.644725,12.279586 C133.611328,13.442386 133.987978,14.437986 134.639231,15.283486 C135.678267,16.634386 137.86581,17.327886 139.700822,16.132786 C140.029231,15.919986 140.365063,15.691986 140.624822,15.403186 C140.86046,15.139086 141.114653,15.116286 141.41152,15.129586 C141.782605,15.146686 141.87352,15.405086 141.942171,15.718586 C141.970002,15.840186 142.099882,15.940886 142.213063,16.090986" id="Fill-21" fill="#404041"></path>
            <path d="M10.9438337,8.281226 L9.65431566,8.281226 C9.47062892,7.952526 9.2980747,7.646626 9.13850843,7.359726 C9.42980964,6.877126 9.76193012,6.628226 10.3241229,6.671926 C10.782412,6.709926 10.9345566,6.489526 10.9419783,5.987926 C10.9531108,5.191826 10.9438337,4.393826 10.9438337,3.658526 C11.2518337,3.156926 11.6785807,2.858626 12.1665566,3.071426 C12.6192795,3.270926 12.7936892,3.738326 12.7398819,4.296926 C12.6823639,4.861226 12.7176169,5.436926 12.7287494,6.006926 C12.7380265,6.499026 12.9013036,6.677626 13.3688699,6.687126 C14.0720747,6.700426 14.7771349,6.685226 15.4821952,6.692826 C16.1093277,6.698526 16.2707494,6.829626 16.291159,7.317926 C16.3115687,7.821426 15.9497614,8.267926 15.4654964,8.281226 C14.7214723,8.304026 13.981159,8.286926 13.2371349,8.286926 L12.726894,8.286926 L12.726894,12.960926 C12.726894,13.644926 12.7398819,14.328926 12.7231831,15.012926 C12.7083398,15.622826 12.9810867,16.173826 13.4523639,16.380926 C13.8234482,16.542426 14.2297855,16.949026 14.8160988,16.578526 C15.3337614,16.251726 15.8180265,16.500626 16.1631349,16.931926 C16.352388,17.169426 16.3932072,17.425926 16.1779783,17.623526 C15.8940988,17.887626 15.5675446,18.269526 15.2391349,18.290426 C14.3448217,18.345526 13.4300988,18.451926 12.5487735,18.100426 C11.732388,17.775526 10.9475446,16.702026 10.9456892,15.812826 C10.9419783,13.342826 10.9438337,10.872826 10.9438337,8.281226" id="Fill-23" fill="#404041"></path>
            <path d="M127.290092,8.986316 C127.776212,7.713316 128.711345,7.247816 129.570405,6.693016 C130.091778,6.356716 130.687369,6.447916 131.256983,6.485916 C131.401706,6.493516 131.602092,6.750016 131.652188,6.930516 C131.720839,7.177516 131.672598,7.456816 131.667031,7.722816 C131.65961,8.078116 131.455513,8.233916 131.13267,8.290916 C130.754164,8.355516 130.344116,8.366916 130.006429,8.530316 C129.260549,8.889416 128.542501,9.349216 128.07308,10.056016 C127.713128,10.605116 127.475634,11.243516 127.227007,11.861016 C127.14908,12.054816 127.214019,12.311316 127.214019,12.539316 C127.214019,13.945316 127.19361,15.353216 127.227007,16.759216 C127.236284,17.194316 127.074863,17.542016 126.8652,17.863116 C126.69079,18.129116 126.460718,18.425516 126.058092,18.322916 C125.622067,18.210816 125.399417,17.857416 125.219441,17.485016 C125.160067,17.361516 125.210164,17.184816 125.210164,17.032816 C125.210164,13.952916 125.210164,10.874916 125.208308,7.795016 C125.208308,7.274416 125.299224,6.827916 125.848429,6.598016 C126.405055,6.364316 126.73161,6.580916 127.015489,7.133816 C127.28267,7.662016 127.141658,8.211116 127.290092,8.986316" id="Fill-25" fill="#404041"></path>
            <path d="M65.7385181,18.094916 C65.1262289,18.047416 63.9665904,17.515416 63.5101566,17.065116 C63.1409277,16.700316 62.7809759,16.320316 62.4228795,15.953616 C62.755,15.383616 63.0834096,14.815516 63.4248072,14.234116 C63.5175783,14.348116 63.6418916,14.475416 63.7309518,14.623616 C64.4471446,15.830116 64.4434337,15.832016 65.5418434,16.407716 C65.7533614,16.519816 65.9685904,16.622416 66.1838193,16.726916 C66.2561807,17.112616 66.9445422,17.289316 66.5400602,17.815616 C66.3192651,18.062616 65.8795301,17.591416 65.7385181,18.094916" id="Fill-27" fill="#404041"></path>
            <path d="M65.7385181,18.094916 C65.8795301,17.591416 66.3192651,18.062616 66.5400602,17.815616 C66.9445422,17.289316 66.2561807,17.112616 66.1838193,16.726916 L67.1783253,16.726916 C67.5123012,16.726916 67.8481325,16.757316 68.1746867,16.717416 C68.4808313,16.683216 68.7795542,16.574916 69.0801325,16.498916 C69.1320843,16.557816 69.210012,16.679416 69.2322771,16.669916 C69.3528795,16.614816 69.460494,16.527416 69.5977952,16.432416 C69.7480843,16.736416 69.8705422,16.983416 69.9855783,17.217116 C69.9299157,17.296916 69.9002289,17.388116 69.8482771,17.407116 C69.4530723,17.542016 69.0244699,17.619916 68.8574819,18.094916 C68.6700843,18.170916 68.4845422,18.305816 68.2971446,18.313416 C67.5011687,18.338116 66.7051928,18.328616 65.9073614,18.313416 C65.8498434,18.311516 65.7941807,18.170916 65.7385181,18.094916" id="Fill-29" fill="#404041"></path>
        </g>
    </g>
</svg>