<?xml version="1.0" encoding="UTF-8"?>
<svg width="212px" height="212px" viewBox="0 0 212 212" version="1.1" xmlns="http://www.w3.org/2000/svg" xmlns:xlink="http://www.w3.org/1999/xlink">
    <!-- Generator: Sketch 51.2 (57519) - http://www.bohemiancoding.com/sketch -->
    <title>Logos</title>
    <desc>Created with Sketch.</desc>
    <defs>
        <polygon id="path-1" points="0.35941931 0.748 15.1351658 0.748 15.1351658 20.9843293 0.35941931 20.9843293"></polygon>
        <polygon id="path-3" points="0 0.995570414 12.2128225 0.995570414 12.2128225 20.5672922 0 20.5672922"></polygon>
        <polygon id="path-5" points="1.31802632 1.09268974 6.26802632 1.09268974 6.26802632 6 1.31802632 6"></polygon>
    </defs>
    <g id="Logos" stroke="none" stroke-width="1" fill="none" fill-rule="evenodd">
        <g id="wolf" transform="translate(31.000000, 89.000000)">
            <path d="M43.9772368,6.969 L43.9772368,10.575 C43.9772368,10.873 43.9792105,10.865 44.2515789,10.879 C44.8594737,10.913 45.4575,10.799 46.0436842,10.667 C46.6535526,10.527 47.1410526,10.181 47.4489474,9.585 C47.8002632,8.903 47.8555263,8.165 47.9246053,7.431 C47.9778947,6.883 47.9482895,6.325 47.8476316,5.769 C47.7548684,5.261 47.6818421,4.761 47.4509211,4.281 C47.0522368,3.453 46.3594737,3.143 45.5285526,3.061 C45.1042105,3.017 44.6739474,3.051 44.2456579,3.053 C43.9811842,3.055 43.9772368,3.057 43.9772368,3.313 L43.9772368,6.969 Z M40.0160526,12.029 L40.0160526,3.553 C40.0160526,3.435 40.0121053,3.319 40.0180263,3.203 C40.0239474,3.103 40.0022368,3.051 39.8897368,3.051 C39.2285526,3.055 38.5693421,3.049 37.9101316,3.055 C37.7107895,3.057 37.7068421,3.077 37.7403947,3.331 C37.7482895,3.397 37.7640789,3.475 37.7364474,3.529 C37.5667105,3.871 37.6456579,4.239 37.6456579,4.593 C37.6397368,8.971 37.6456579,13.351 37.6377632,17.731 C37.6357895,18.447 37.4285526,19.125 37.1482895,19.781 C37.0160526,20.091 36.8423684,20.369 36.6055263,20.605 C36.2502632,20.957 35.9305263,21.355 35.4607895,21.561 C35.0088158,21.759 34.5489474,21.917 34.0653947,22.023 C33.7278947,22.097 33.3706579,22.027 33.0706579,22.133 C32.7232895,22.255 32.3956579,22.165 32.0640789,22.213 C31.7068421,21.989 31.2805263,22.213 30.9035526,22.025 C30.7357895,21.941 30.5088158,21.973 30.3035526,21.927 C29.6482895,21.773 29.0522368,21.507 28.4996053,21.125 C27.7160526,20.587 27.2265789,19.835 26.9285526,18.935 C26.8436842,18.679 26.8022368,18.419 26.7430263,18.159 C26.5969737,17.521 26.6680263,16.881 26.6561842,16.243 C26.6423684,15.591 26.6542105,14.937 26.6542105,14.287 L26.6542105,3.555 C26.6542105,3.455 26.6463158,3.353 26.6561842,3.255 C26.6660526,3.117 26.6443421,3.041 26.4765789,3.049 C26.1805263,3.063 25.8825,3.045 25.5864474,3.057 C25.4265789,3.063 25.3239474,3.043 25.3634211,2.843 C25.3673684,2.821 25.3476316,2.777 25.3259211,2.763 C25.1463158,2.649 25.4581579,2.491 25.2903947,2.377 C25.3693421,2.241 25.5015789,2.249 25.6338158,2.249 C26.8713158,2.253 28.1088158,2.251 29.3463158,2.251 L31.8686842,2.251 C32.0936842,2.253 32.0936842,2.255 32.0976316,2.501 L32.0976316,2.651 C32.0976316,3.051 32.0976316,3.051 31.7246053,3.053 C31.4265789,3.053 31.1285526,3.049 30.8325,3.055 C30.7614474,3.057 30.6903947,3.091 30.6173684,3.107 C30.8009211,3.201 30.5542105,3.301 30.6153947,3.375 C30.7851316,3.581 30.7081579,3.817 30.7081579,4.039 C30.7121053,8.587 30.7121053,13.133 30.7101316,17.679 C30.7101316,17.843 30.7259211,18.015 30.6825,18.171 C30.6390789,18.327 30.7121053,18.457 30.7219737,18.597 C30.7634211,19.219 30.9153947,19.797 31.3338158,20.297 C31.8114474,20.871 32.3917105,21.075 32.8772368,21.113 C33.0292105,21.125 33.1792105,21.195 33.3311842,21.203 C33.4772368,21.211 33.6292105,21.133 33.7673684,21.157 C33.9232895,21.183 34.0456579,21.087 34.1996053,21.099 C34.3456579,21.111 34.5055263,21.055 34.6496053,21.007 C34.7956579,20.955 34.9298684,20.879 35.0640789,20.807 C35.5456579,20.557 35.9107895,20.187 36.1555263,19.701 C36.2601316,19.495 36.3528947,19.281 36.4535526,19.075 C36.5502632,18.877 36.5028947,18.633 36.6489474,18.453 C36.5877632,18.139 36.7535526,17.853 36.7535526,17.543 C36.7496053,12.831 36.7515789,8.115 36.7515789,3.401 C36.7515789,3.351 36.7456579,3.301 36.7515789,3.251 C36.7713158,3.109 36.7318421,3.043 36.57,3.049 C36.2246053,3.061 35.8772368,3.049 35.5318421,3.055 C35.4075,3.057 35.3561842,3.027 35.3601316,2.891 C35.3640789,2.749 35.37,2.589 35.3127632,2.461 C35.2476316,2.311 35.3778947,2.279 35.4252632,2.261 C35.5101316,2.227 35.6206579,2.251 35.7173684,2.251 C39.2482895,2.251 42.7792105,2.249 46.3101316,2.255 C46.5430263,2.255 46.7759211,2.317 47.0088158,2.351 C47.2436842,2.387 47.5002632,2.261 47.7114474,2.451 C48.1002632,2.405 48.4515789,2.571 48.8167105,2.653 C49.5311842,2.815 50.1785526,3.131 50.7686842,3.567 C50.8831579,3.649 51.0114474,3.717 51.1101316,3.817 C51.6430263,4.349 52.0278947,4.955 52.2075,5.715 C52.3180263,6.177 52.3239474,6.633 52.2765789,7.079 C52.2114474,7.695 52.0496053,8.307 51.6864474,8.833 C51.2976316,9.393 50.7982895,9.823 50.22,10.183 C49.5173684,10.625 48.7239474,10.809 47.9601316,11.069 C47.6936842,11.159 47.3838158,11.105 47.1153947,11.187 C46.7976316,11.285 46.4838158,11.271 46.1621053,11.281 C46.1325,11.281 46.1009211,11.323 46.0713158,11.345 L46.1403947,11.415 C46.1640789,11.435 46.1877632,11.475 46.2134211,11.477 C46.8923684,11.517 47.4667105,11.887 48.0864474,12.103 C48.4693421,12.241 48.8088158,12.523 49.1502632,12.765 C49.3969737,12.943 49.6298684,13.149 49.8430263,13.367 C50.1292105,13.663 50.3384211,14.015 50.5594737,14.367 C50.8910526,14.893 50.9976316,15.491 51.1890789,16.059 C51.2956579,16.371 51.2917105,16.729 51.2976316,17.067 C51.3114474,17.903 51.3055263,18.739 51.3015789,19.575 C51.2996053,19.963 51.4160526,20.309 51.5838158,20.661 C51.7002632,20.909 51.8719737,20.975 52.0851316,21.005 C52.2469737,21.027 52.4147368,21.007 52.5805263,21.011 C52.7956579,21.015 52.8746053,21.089 52.8864474,21.289 C52.8923684,21.389 52.8982895,21.491 52.8825,21.589 C52.8746053,21.635 52.8193421,21.699 52.7778947,21.707 C52.4739474,21.765 52.1739474,21.853 51.8759211,21.927 C51.4555263,22.033 51.0371053,22.039 50.6265789,22.003 C49.8331579,21.927 49.0752632,21.729 48.4417105,21.177 C47.8397368,20.655 47.5121053,20.111 47.3364474,19.339 C47.2160526,18.801 47.1331579,18.267 47.1430263,17.715 C47.1528947,16.929 47.1292105,16.143 47.1528947,15.357 C47.1627632,15.043 47.0640789,14.753 47.0384211,14.447 C47.0107895,14.171 46.9357895,13.893 46.8410526,13.629 C46.7147368,13.275 46.5746053,12.923 46.2825,12.661 C45.9963158,12.405 45.7772368,12.071 45.3844737,11.949 C45.1535526,11.877 44.9364474,11.737 44.7015789,11.689 C44.4805263,11.647 44.2456579,11.687 44.0167105,11.691 C44.0028947,11.887 43.9792105,12.083 43.9792105,12.277 C43.9752632,15.101 43.9772368,17.927 43.9772368,20.753 C43.9772368,21.107 43.9792105,21.117 44.3463158,21.105 C44.5831579,21.099 44.8160526,21.145 45.0548684,21.023 C45.1634211,20.969 45.3509211,21.071 45.4989474,21.113 C45.5285526,21.121 45.5542105,21.187 45.5601316,21.229 C45.6193421,21.811 45.6193421,21.811 45.0686842,21.811 L39.2778947,21.811 C39.1772368,21.811 39.0805263,21.817 38.9818421,21.811 C38.7982895,21.799 38.6877632,21.651 38.7331579,21.477 C38.745,21.433 38.7943421,21.403 38.8259211,21.363 C38.9048684,21.261 38.6857895,21.045 38.9502632,21.009 C39.0232895,21.135 39.1555263,21.059 39.2403947,21.059 C39.4239474,21.061 39.5956579,20.941 39.795,21.097 C39.8759211,21.163 39.9963158,21.027 40.0140789,20.905 C40.0298684,20.789 40.0160526,20.671 40.0160526,20.555 L40.0160526,12.029 Z" id="Fill-1" fill="#404041"></path>
            <path d="M102.416842,8.3146 C102.649737,7.7166 102.785921,7.1406 102.955658,6.5806 C103.113553,6.0806 103.257632,5.5666 103.389868,5.0546 C103.537895,4.4886 103.743158,3.9366 103.906974,3.3686 C103.995789,3.0586 104.009605,3.0546 103.733289,3.0526 C102.890526,3.0506 102.049737,3.0506 101.210921,3.0526 C100.968158,3.0546 100.956316,3.0866 101.041184,3.3486 C101.161579,3.7326 101.299737,4.1126 101.388553,4.5046 C101.493158,4.9766 101.635263,5.4366 101.771447,5.8966 C101.891842,6.3166 101.974737,6.7466 102.087237,7.1686 C102.185921,7.5386 102.298421,7.9066 102.416842,8.3146 Z M96.0497368,3.0526 C95.655,3.0526 95.2602632,3.0506 94.8655263,3.0526 C94.6760526,3.0546 94.6168421,3.1186 94.6622368,3.2766 C94.7984211,3.7546 94.9346053,4.2346 95.0786842,4.7046 C95.3056579,5.4446 95.5168421,6.1906 95.7457895,6.9286 C95.9944737,7.7266 96.2115789,8.5366 96.4444737,9.3406 C96.6082895,9.9066 96.7701316,10.4726 96.9398684,11.0346 C97.0642105,11.4486 97.2418421,11.8526 97.3247368,12.2746 C97.4589474,12.9486 97.6819737,13.6006 97.8714474,14.2546 C98.0885526,14.9966 98.2760526,15.7486 98.5227632,16.4826 C98.5346053,16.5186 98.5642105,16.5486 98.5839474,16.5826 C98.5957895,16.5546 98.6096053,16.5266 98.6214474,16.4986 C98.7951316,16.0046 98.9510526,15.5026 99.1464474,15.0166 C99.4365789,14.2846 99.6753947,13.5346 99.9536842,12.8006 C100.016842,12.6306 100.026711,12.4726 99.9911842,12.3266 C99.9280263,12.0586 99.7898684,11.8066 99.7267105,11.5386 C99.5984211,11.0106 99.4563158,10.4846 99.3142105,9.9586 C99.1957895,9.5226 99.0734211,9.0926 98.955,8.6566 C98.8089474,8.1166 98.6707895,7.5746 98.5207895,7.0346 C98.4023684,6.6026 98.2701316,6.1726 98.1536842,5.7366 C98.0076316,5.1966 97.8832895,4.6506 97.7253947,4.1126 C97.6385526,3.8166 97.605,3.5066 97.4609211,3.2206 C97.4056579,3.1086 97.3780263,3.0426 97.2378947,3.0486 C96.8431579,3.0606 96.4484211,3.0526 96.0497368,3.0526 Z M97.8615789,2.2506 L105.430658,2.2506 C105.513553,2.2506 105.596447,2.2486 105.679342,2.2506 C105.789868,2.2546 105.924079,2.2086 105.985263,2.3446 C106.030658,2.4486 105.9675,2.5826 106.046447,2.6866 C105.912237,2.7526 106.048421,2.8606 106.006974,2.9386 C105.943816,3.0566 105.829342,3.0586 105.708947,3.0546 C105.48,3.0486 105.249079,3.0606 105.016184,3.0486 C104.881974,3.0426 104.883947,3.1106 104.850395,3.2186 C104.625395,3.9426 104.404342,4.6726 104.197105,5.3986 C103.960263,6.2346 103.709605,7.0686 103.462895,7.9026 C103.314868,8.4066 103.184605,8.9166 103.001053,9.4106 C102.943816,9.5666 102.947763,9.7826 103.005,9.9406 C103.306974,10.7566 103.425395,11.6286 103.766842,12.4306 C103.782632,12.8586 103.964211,13.2506 104.076711,13.6546 C104.185263,14.0546 104.321447,14.4546 104.435921,14.8526 C104.554342,15.2526 104.660921,15.6646 104.759605,16.0746 C104.769474,16.1126 104.797105,16.1486 104.814868,16.1886 C104.830658,16.1426 104.8425,16.1006 104.856316,16.0546 C105.057632,15.4206 105.245132,14.7766 105.420789,14.1386 C105.612237,13.4486 105.882632,12.7726 105.945789,12.0486 C106.194474,11.6106 106.277368,11.1106 106.403684,10.6386 C106.553684,10.0846 106.725395,9.5306 106.853684,8.9666 C106.958289,8.5186 107.088553,8.0666 107.244474,7.6306 C107.351053,7.3386 107.406316,7.0326 107.522763,6.7446 C107.629342,6.4706 107.635263,6.1586 107.735921,5.8806 C107.870132,5.5166 107.945132,5.1346 108.063553,4.7666 C108.227368,4.2666 108.320132,3.7426 108.515526,3.2506 C108.545132,3.1746 108.560921,3.0446 108.391184,3.0506 C108.112895,3.0586 107.830658,3.0566 107.552368,3.0466 C107.510921,3.0466 107.465526,2.9846 107.433947,2.9406 C107.418158,2.9206 107.43,2.8766 107.431974,2.8446 C107.445789,2.6486 107.459605,2.4526 107.473421,2.2606 C107.653026,2.2566 107.832632,2.2506 108.014211,2.2506 C108.655658,2.2506 109.299079,2.2486 109.9425,2.2526 C110.266184,2.2526 110.297763,2.2926 110.301711,2.6246 C110.303684,2.6766 110.305658,2.7266 110.301711,2.7746 C110.289868,2.9566 110.212895,3.0406 110.043158,3.0506 C109.960263,3.0566 109.877368,3.0466 109.794474,3.0546 C109.670132,3.0646 109.543816,3.0826 109.4175,3.0966 C109.449079,3.2346 109.336579,3.3366 109.318816,3.4546 C109.237895,3.9986 109.012895,4.5006 108.880658,5.0286 C108.783947,5.4346 108.653684,5.8346 108.529342,6.2326 C108.247105,7.1346 108.008289,8.0506 107.741842,8.9586 C107.585921,9.4966 107.412237,10.0286 107.285921,10.5746 C107.155658,11.1346 106.954342,11.6766 106.833947,12.2406 C106.800395,12.4046 106.695789,12.5526 106.658289,12.7166 C106.514211,13.3706 106.273421,14.0006 106.141184,14.6566 C106.107632,14.8206 105.993158,14.9686 105.961579,15.1306 C105.827368,15.7886 105.578684,16.4146 105.446447,17.0746 C105.408947,17.2706 105.302368,17.4486 105.256974,17.6446 C105.106974,18.2806 104.907632,18.9046 104.737895,19.5346 C104.613553,19.9926 104.471447,20.4546 104.3175,20.9106 C104.179342,21.3226 104.074737,21.7466 103.970132,22.1686 C103.930658,22.3406 103.849737,22.4186 103.678026,22.4146 C103.445132,22.4106 103.214211,22.4046 102.985263,22.4166 C102.809605,22.4246 102.718816,22.3526 102.679342,22.1846 C102.531316,21.5626 102.316184,20.9606 102.181974,20.3366 C102.105,19.9706 101.998421,19.6086 101.878026,19.2606 C101.73,18.8346 101.655,18.3886 101.501053,17.9646 C101.358947,17.5726 101.323421,17.1386 101.179342,16.7446 C101.072763,16.4526 100.98,16.1526 100.916842,15.8566 C100.853684,15.5666 100.711579,15.3006 100.683947,14.9926 C100.662237,14.7386 100.496447,14.5026 100.484605,14.2266 C100.484605,14.1806 100.399737,14.1346 100.352368,14.0906 C100.334605,14.1326 100.320789,14.1766 100.305,14.2186 C100.018816,15.0526 99.7878947,15.9026 99.4484211,16.7186 C99.2372368,17.2306 99.0931579,17.7726 98.9194737,18.3006 C98.7003947,18.9606 98.5010526,19.6246 98.2444737,20.2726 C98.0411842,20.7866 97.8813158,21.3266 97.7313158,21.8626 C97.7234211,21.8946 97.7411842,21.9366 97.7273684,21.9626 C97.6622368,22.1026 97.6188158,22.2806 97.5102632,22.3626 C97.4115789,22.4386 97.2319737,22.4086 97.0898684,22.4126 C96.8589474,22.4186 96.6260526,22.4126 96.3951316,22.4126 C96.3457895,22.2006 96.3319737,21.9686 96.2372368,21.7786 C96.0457895,21.4006 95.9826316,20.9806 95.8661842,20.5846 C95.7457895,20.1846 95.5464474,19.7946 95.5523684,19.3586 C95.3115789,18.9346 95.2523684,18.4466 95.1161842,17.9906 C94.9168421,17.3366 94.6859211,16.6906 94.5576316,16.0166 C94.5240789,15.8366 94.4175,15.6726 94.3661842,15.4966 C94.1786842,14.8406 94.0602632,14.1646 93.7740789,13.5366 C93.8234211,13.2206 93.6221053,12.9646 93.5648684,12.6726 C93.5076316,12.3866 93.3457895,12.1226 93.2905263,11.8386 C93.1425,11.0706 92.8918421,10.3326 92.6668421,9.5906 C92.4477632,8.8646 92.3076316,8.1106 91.9898684,7.4186 C92.0431579,7.1006 91.8260526,6.8486 91.7846053,6.5486 C91.7471053,6.2586 91.5576316,5.9946 91.5181579,5.7146 C91.4589474,5.3206 91.2892105,4.9706 91.1944737,4.5926 C91.1056579,4.2306 91.0010526,3.8726 90.8984211,3.5146 C90.8589474,3.3646 90.8530263,3.1666 90.7543421,3.0826 C90.6675,3.0086 90.4740789,3.0586 90.3280263,3.0526 C90.1661842,3.0466 89.9471053,3.1006 89.8582895,3.0166 C89.7714474,2.9346 89.8128947,2.7066 89.8109211,2.5446 C89.8089474,2.2546 89.8128947,2.2506 90.0951316,2.2506 L97.8615789,2.2506 Z" id="Fill-3" fill="#404041"></path>
            <g id="Group-7" transform="translate(108.552632, 1.251200)">
                <mask id="mask-2" fill="white">
                    <use xlink:href="#path-1"></use>
                </mask>
                <g id="Clip-6"></g>
                <path d="M5.01631579,10.8876 C5.01631579,11.9556 4.99855263,13.0256 5.02223684,14.0956 C5.04592105,15.1696 4.90973684,16.2476 5.11697368,17.3136 C5.18802632,17.6836 5.20578947,18.0776 5.34789474,18.4196 C5.53539474,18.8656 5.74855263,19.3076 6.13144737,19.6496 C6.42552632,19.9156 6.75118421,20.0776 7.11631579,20.1496 C7.28407895,20.1796 7.45776316,20.1836 7.61763158,20.2596 C7.84855263,20.0596 8.11894737,20.1976 8.36960526,20.1596 C8.41894737,20.1536 8.47815789,20.1776 8.51565789,20.1556 C9.00315789,19.8956 9.48276316,19.6376 9.77486842,19.1156 C10.2169737,18.3316 10.4419737,17.4776 10.4498684,16.5956 C10.4794737,13.1856 10.4676316,9.7776 10.4557895,6.3676 C10.4538158,5.8316 10.5268421,5.2916 10.3768421,4.7516 C10.2959211,4.4656 10.3275,4.1476 10.2781579,3.8416 C10.1775,3.2436 9.98605263,2.6976 9.66828947,2.1876 C9.4275,1.7976 9.03078947,1.6216 8.63210526,1.5136 C8.23342105,1.4076 7.79131579,1.5996 7.38868421,1.4016 C7.12223684,1.5396 6.80842105,1.5016 6.53802632,1.6176 C6.13539474,1.7916 5.87881579,2.1316 5.61039474,2.4616 C5.59855263,2.7856 5.36368421,3.0276 5.31039474,3.3416 C5.25907895,3.6496 5.15644737,3.9556 5.13078947,4.2616 C5.08342105,4.7616 4.99855263,5.2616 5.00644737,5.7716 C5.03407895,7.4776 5.01631579,9.1816 5.01631579,10.8876 M15.1275,10.9536 C15.09,11.5236 15.0781579,12.0976 15.0071053,12.6656 C14.9439474,13.1636 14.8314474,13.6556 14.715,14.1436 C14.5985526,14.6276 14.5057895,15.1256 14.3103947,15.5776 C13.9117105,16.5076 13.4617105,17.4116 12.8380263,18.2196 C12.5360526,18.6116 12.1886842,18.9536 11.8452632,19.3016 C11.3143421,19.8356 10.0275,20.5596 9.32684211,20.7576 C8.77815789,20.9116 7.62552632,21.0536 7.13802632,20.9476 C6.80447368,20.8756 6.45710526,20.8716 6.13539474,20.7436 C5.80973684,20.6096 5.47618421,20.4996 5.16039474,20.3476 C4.85644737,20.2036 4.53868421,20.0616 4.28013158,19.8476 C3.57947368,19.2776 2.92223684,18.6676 2.41302632,17.8936 C2.09526316,17.4096 1.80315789,16.9176 1.54855263,16.3996 C1.24065789,15.7696 1.01171053,15.1196 0.849868421,14.4336 C0.733421053,13.9436 0.638684211,13.4516 0.54,12.9576 C0.474868421,12.6296 0.541973684,12.2976 0.451184211,11.9976 C0.320921053,11.5736 0.393947368,11.1516 0.364342105,10.7316 C0.324868421,10.1736 0.538026316,9.6296 0.463026316,9.0696 C0.680131579,8.3816 0.609078947,7.6256 0.954473684,6.9696 C0.982105263,6.4076 1.28605263,5.9396 1.47947368,5.4356 C1.67684211,4.9276 1.96105263,4.4656 2.24723684,4.0056 C2.35381579,3.8316 2.46828947,3.6596 2.59855263,3.5036 C2.87289474,3.1796 3.13342105,2.8396 3.44328947,2.5556 C3.83802632,2.1956 4.26039474,1.8716 4.72421053,1.5876 C5.33802632,1.2076 6.01697368,1.0316 6.68013158,0.8076 C6.84394737,0.7516 7.05907895,0.8476 7.21697368,0.7856 C7.46960526,0.6876 7.69263158,0.8116 7.93144737,0.8016 C8.19394737,0.7896 8.46631579,0.7576 8.72092105,0.8076 C9.10776316,0.8876 9.49460526,1.0076 9.86368421,1.1536 C10.3492105,1.3456 10.8209211,1.5816 11.2353947,1.9056 C11.7130263,2.2776 12.2222368,2.6116 12.5538158,3.1556 C12.6860526,3.3676 12.8853947,3.5436 13.0393421,3.7536 C13.2978947,4.1076 13.515,4.4896 13.7321053,4.8676 C13.7913158,4.9736 13.8248684,5.0956 13.8742105,5.2096 C14.0123684,5.5176 14.1722368,5.8196 14.2886842,6.1376 C14.4485526,6.5736 14.5906579,7.0136 14.715,7.4616 C14.8472368,7.9456 14.8373684,8.4636 15.0130263,8.9396 C15.0189474,8.9536 15.015,8.9736 15.0130263,8.9896 C14.9360526,9.6496 15.1807895,10.2936 15.1275,10.9536" id="Fill-5" fill="#404041" mask="url(#mask-2)"></path>
            </g>
            <path d="M60.1079605,21.8108 C58.1776974,21.8108 56.2494079,21.8128 54.3171711,21.8108 C54.0783553,21.8108 54.0783553,21.8088 54.0744079,21.5788 C54.0724342,21.5128 54.0763816,21.4428 54.0724342,21.3768 C54.0605921,21.1208 54.04875,21.0888 54.3980921,21.1048 C54.6625658,21.1208 54.9270395,21.1148 55.1915132,21.1068 C55.3730921,21.1028 55.5073026,20.9888 55.4500658,20.8488 C55.3573026,20.6228 55.4678289,20.4308 55.4678289,20.2228 C55.4599342,14.8248 55.4619079,9.4268 55.4579605,4.0268 C55.4579605,3.8868 55.5191447,3.7288 55.3750658,3.6068 C55.3573026,3.5948 55.4046711,3.4988 55.4224342,3.4408 C55.4994079,3.1888 55.4244079,3.0628 55.1796711,3.0548 C54.8974342,3.0468 54.6191447,3.0588 54.3369079,3.0508 C54.1651974,3.0468 54.0882237,2.9588 54.0744079,2.7788 C54.0329605,2.2508 54.0329605,2.2508 54.5698026,2.2508 L65.3579605,2.2508 L65.4566447,2.2508 C65.8533553,2.2528 65.8533553,2.2528 65.8533553,2.6288 C65.8553289,3.2648 65.7803289,3.9108 65.8730921,4.5308 C65.9954605,5.3568 65.9125658,6.1788 65.9520395,7.0008 C65.9658553,7.2888 65.9836184,7.2728 65.6915132,7.2648 C65.5494079,7.2608 65.3698026,7.2828 65.2770395,7.2068 C65.1901974,7.1368 65.2099342,6.9428 65.1586184,6.8148 C64.9000658,6.1708 64.6711184,5.5148 64.3533553,4.8968 C64.0434868,4.2948 63.5796711,3.8248 63.0270395,3.4648 C62.7763816,3.3028 62.4605921,3.2228 62.1645395,3.1588 C61.2961184,2.9708 60.4099342,3.0748 59.5336184,3.0568 C59.4961184,3.0568 59.4349342,3.1228 59.4250658,3.1688 C59.4073026,3.2488 59.4191447,3.3348 59.4191447,3.4188 L59.4191447,10.8888 C59.4191447,10.9908 59.4073026,11.0928 59.4250658,11.1888 C59.4329605,11.2268 59.5513816,11.2788 59.5553289,11.2728 C59.6836184,11.1128 59.8592763,11.1948 60.0132237,11.1788 C60.7573026,11.0948 61.3573026,10.7848 61.69875,10.0708 C61.8408553,9.7728 61.9355921,9.4688 62.0105921,9.1448 C62.1053289,8.7348 62.0796711,8.3348 62.0895395,7.9288 C62.0915132,7.7908 62.1369079,7.7588 62.2592763,7.7668 C62.4546711,7.7768 62.6520395,7.7748 62.8494079,7.7808 C62.86125,7.9768 62.8829605,8.1728 62.8829605,8.3668 C62.8849342,10.7068 62.8849342,13.0468 62.8849342,15.3868 C62.8849342,15.5048 62.9165132,15.6348 62.8750658,15.7348 C62.8415132,15.8148 62.7566447,15.9708 62.6165132,15.8648 C62.52375,15.7928 62.4645395,15.7608 62.3698026,15.8528 C62.3559868,15.8628 62.2059868,15.7828 62.2079605,15.7508 C62.2217763,15.5188 62.1171711,15.3128 62.0974342,15.0948 C62.0540132,14.6028 61.9316447,14.1328 61.7994079,13.6628 C61.6217763,13.0288 61.2369079,12.5668 60.6980921,12.2328 C60.5599342,12.1448 60.3823026,12.1068 60.2165132,12.0868 C60.0132237,12.0608 59.8059868,12.1108 59.6105921,11.9888 C59.5454605,11.9468 59.4053289,11.9448 59.4171711,12.1128 C59.4250658,12.1968 59.4191447,12.2808 59.4191447,12.3648 L59.4191447,20.7388 C59.4191447,20.8048 59.4171711,20.8728 59.4191447,20.9388 C59.4250658,21.1228 59.4329605,21.1268 59.6105921,21.0668 C59.6836184,21.0428 59.7724342,20.9928 59.8316447,21.0148 C60.2224342,21.1608 60.5994079,21.1528 60.9921711,21.0168 C61.1263816,20.9708 61.2882237,21.0148 61.4342763,21.0088 C62.1803289,20.9808 62.86125,20.7308 63.4869079,20.3428 C64.0395395,20.0008 64.4184868,19.4948 64.7125658,18.9128 C64.9671711,18.4108 65.1448026,17.8928 65.2770395,17.3428 C65.3776974,16.9328 65.4151974,16.5088 65.5474342,16.1028 C65.6066447,15.9248 65.5513816,15.7048 65.5632237,15.5068 C65.5651974,15.4648 65.6323026,15.3988 65.6717763,15.3968 C65.8849342,15.3888 66.0961184,15.3988 66.31125,15.4028 C66.3230921,15.5988 66.3448026,15.7908 66.3467763,15.9868 C66.3526974,16.3708 66.3586184,16.7568 66.3467763,17.1408 C66.3369079,17.4308 66.4198026,17.7308 66.2500658,18.0008 C66.1750658,18.1188 66.4059868,18.1908 66.2816447,18.3368 C66.2224342,18.4048 66.2520395,18.5568 66.2500658,18.6708 C66.2480921,18.9888 66.2303289,19.3068 66.2540132,19.6228 C66.3132237,20.3168 66.1375658,20.9988 66.1533553,21.6868 C66.1553289,21.8088 66.08625,21.8128 65.9954605,21.8128 C65.2059868,21.8108 64.4145395,21.8108 63.6211184,21.8108 L60.1079605,21.8108 Z" id="Fill-8" fill="#404041"></path>
            <path d="M138.613816,12.0822 C138.613816,9.4062 138.611842,6.7322 138.619737,4.0582 C138.619737,3.8862 138.572368,3.7122 138.667105,3.5302 C138.718421,3.4342 138.519079,3.2562 138.694737,3.1242 C138.651316,3.1002 138.607895,3.0562 138.564474,3.0562 C138.167763,3.0502 137.771053,3.0502 137.376316,3.0542 C137.277632,3.0542 137.222368,3.0382 137.228289,2.9222 C137.238158,2.7082 137.244079,2.4942 137.25,2.2802 C137.443421,2.2702 137.636842,2.2522 137.832237,2.2522 C141.493421,2.2502 145.152632,2.2502 148.815789,2.2502 C148.932237,2.2502 149.046711,2.2562 149.163158,2.2482 C149.263816,2.2422 149.303289,2.2742 149.307237,2.3842 C149.336842,3.1382 149.374342,3.8942 149.403947,4.6482 C149.413816,4.9502 149.417763,5.2522 149.401974,5.5502 C149.384211,5.8962 149.551974,6.2102 149.510526,6.5642 C149.475,6.8942 149.504605,7.2302 149.504605,7.5662 C149.502632,7.8662 149.502632,7.8662 149.228289,7.8682 C148.843421,7.8722 148.841447,7.8742 148.713158,7.4522 C148.604605,7.0942 148.468421,6.7462 148.409211,6.3742 C148.381579,6.2102 148.280921,6.0602 148.215789,5.9042 C147.998684,5.3722 147.789474,4.8422 147.422368,4.3762 C147.199342,4.0962 146.930921,3.8682 146.6625,3.6742 C146.325,3.4282 145.896711,3.2902 145.492105,3.1642 C145.209868,3.0762 144.898026,3.0642 144.596053,3.0562 C144.001974,3.0402 143.409868,3.0542 142.815789,3.0502 C142.713158,3.0502 142.661842,3.0782 142.673684,3.1882 C142.677632,3.2382 142.673684,3.2902 142.673684,3.3382 L142.673684,10.9102 C142.673684,11.1402 142.675658,11.1562 142.932237,11.1762 C143.749342,11.2362 144.491447,11.0042 145.002632,10.1722 C145.059868,10.0822 145.336184,9.2162 145.346053,9.1122 C145.379605,8.7082 145.415132,8.3042 145.442763,7.9002 C145.448684,7.7902 145.488158,7.7562 145.590789,7.7662 C145.640132,7.7722 145.689474,7.7682 145.738816,7.7682 C146.236184,7.7642 146.236184,7.7642 146.236184,8.2442 L146.236184,15.4142 C146.236184,15.5322 146.232237,15.6482 146.238158,15.7662 C146.244079,15.8822 146.180921,15.9002 146.086184,15.8942 C146.003289,15.8882 145.920395,15.8922 145.839474,15.8922 C145.563158,15.8902 145.460526,15.7942 145.446711,15.5022 C145.411184,14.8342 145.249342,14.1962 145.053947,13.5602 C144.913816,13.1162 144.625658,12.6722 144.193421,12.3842 C143.907237,12.1942 143.585526,12.0742 143.230263,12.0802 C143.180921,12.0822 143.127632,12.0922 143.082237,12.0782 C142.963816,12.0442 142.827632,11.8922 142.740789,11.9922 C142.661842,12.0802 142.675658,12.2642 142.675658,12.4062 C142.673684,15.1302 142.673684,17.8562 142.673684,20.5782 C142.673684,20.6802 142.671711,20.7802 142.675658,20.8782 C142.679605,21.0142 142.758553,21.1142 142.878947,21.1042 C143.315132,21.0722 143.757237,21.1982 144.185526,21.0342 C144.305921,20.9862 144.440132,21.0802 144.451974,21.2142 C144.463816,21.3302 144.455921,21.4502 144.453947,21.5642 C144.451974,21.8062 144.451974,21.8102 144.223026,21.8102 C142.458553,21.8122 140.694079,21.8102 138.929605,21.8102 C138.416447,21.8102 137.907237,21.8082 137.396053,21.8142 C137.271711,21.8142 137.216447,21.7882 137.226316,21.6502 C137.238158,21.5002 137.226316,21.3502 137.230263,21.2002 C137.232237,21.0082 137.230263,21.0402 137.439474,21.0642 C137.778947,21.1042 138.122368,21.1022 138.463816,21.1062 C138.530921,21.1062 138.728289,20.7002 138.675,20.6302 C138.558553,20.4742 138.617763,20.3102 138.617763,20.1542 C138.613816,17.4622 138.613816,14.7722 138.613816,12.0822" id="Fill-10" fill="#404041"></path>
            <path d="M72.4876974,12.0822 L72.4876974,20.6102 C72.4876974,20.7262 72.4916447,20.8442 72.4857237,20.9602 C72.4798026,21.0602 72.5054605,21.1242 72.6159868,21.1102 C72.9001974,21.0722 73.1784868,21.1282 73.4725658,21.0302 C73.7567763,20.9342 74.0942763,20.9942 74.4080921,21.0142 C74.5896711,21.0282 74.7436184,20.9502 74.9113816,20.9102 C75.0771711,20.8742 75.2488816,20.9542 75.4225658,20.8182 C75.5449342,20.7242 75.7798026,20.7822 75.9061184,20.6902 C76.3955921,20.3382 77.0232237,20.1322 77.2383553,19.4742 C77.5442763,19.1802 77.6133553,18.7622 77.7791447,18.3962 C77.8916447,18.1442 77.9370395,17.8642 78.0219079,17.5962 C78.1501974,17.1802 78.2034868,16.7422 78.3179605,16.3162 C78.4008553,16.0102 78.4028289,15.6802 78.4225658,15.3582 C78.4304605,15.2342 78.4521711,15.1762 78.5883553,15.1882 C78.7008553,15.2002 78.8173026,15.1902 78.93375,15.1922 C79.2317763,15.1942 79.2791447,15.2062 79.2080921,15.4802 C79.0758553,15.9842 79.1330921,16.4902 79.12125,16.9962 C79.1094079,17.5142 79.1192763,18.0342 79.1192763,18.5502 C79.1192763,18.6862 79.1232237,18.8182 79.1173026,18.9522 C79.0876974,19.8582 79.0521711,20.7642 79.0245395,21.6702 C79.0205921,21.7742 78.9909868,21.8202 78.8844079,21.8122 C78.7857237,21.8062 78.6870395,21.8102 78.5883553,21.8102 L67.5495395,21.8102 C67.4508553,21.8102 67.3501974,21.8162 67.2534868,21.8082 C67.2140132,21.8042 67.1488816,21.7702 67.1469079,21.7442 C67.1311184,21.6062 67.1705921,21.4582 67.0600658,21.3422 C67.1646711,21.2762 67.1173026,21.2182 67.0482237,21.1642 C67.1015132,21.1202 67.1765132,21.0262 67.2080921,21.0382 C67.5219079,21.1542 67.8159868,21.1242 68.1317763,21.0202 C68.4100658,20.9302 68.4219079,20.9682 68.4278289,20.7642 C68.4298026,20.6982 68.4278289,20.6302 68.4278289,20.5642 L68.4278289,3.5122 C68.4278289,3.0522 68.4278289,3.0522 67.9600658,3.0522 C67.7469079,3.0522 67.5317763,3.0582 67.3186184,3.0502 C67.1153289,3.0442 67.1113816,3.0322 67.1409868,2.7842 C67.1429605,2.7682 67.1409868,2.7502 67.1409868,2.7322 C67.1508553,2.5942 67.0265132,2.4482 67.1429605,2.3162 C67.27125,2.1742 67.4488816,2.2542 67.6008553,2.2542 C69.5982237,2.2482 71.5936184,2.2502 73.5909868,2.2502 C73.7054605,2.2502 73.8219079,2.2562 73.9363816,2.2482 C74.0449342,2.2422 74.0844079,2.2902 74.0725658,2.3942 C74.0686184,2.4282 74.0725658,2.4602 74.0705921,2.4942 C74.0607237,2.6742 74.0508553,2.8542 74.0390132,3.0342 C73.8771711,3.0402 73.7153289,3.0502 73.5534868,3.0522 C73.27125,3.0542 72.9929605,3.0502 72.7107237,3.0522 C72.4896711,3.0542 72.4896711,3.0562 72.4876974,3.3062 C72.4857237,3.3882 72.4876974,3.4722 72.4876974,3.5562 L72.4876974,12.0822 Z" id="Fill-12" fill="#404041"></path>
            <path d="M130.073487,21.8108 L124.482039,21.8108 C124.399145,21.8108 124.31625,21.8068 124.233355,21.8128 C124.116908,21.8208 124.043882,21.7988 124.059671,21.6548 C124.071513,21.5388 124.071513,21.4208 124.059671,21.3028 C124.045855,21.1568 124.089276,21.0948 124.247171,21.1048 C124.426776,21.1188 124.610329,21.1208 124.789934,21.1048 C124.959671,21.0908 125.125461,21.0208 125.293224,21.0168 C125.435329,21.0108 125.457039,20.9528 125.449145,20.8368 C125.443224,20.7348 125.447171,20.6348 125.447171,20.5328 L125.447171,3.5328 C125.447171,3.4168 125.443224,3.2988 125.449145,3.1828 C125.455066,3.0668 125.397829,3.0488 125.299145,3.0508 C125.070197,3.0568 124.839276,3.0568 124.606382,3.0508 C124.430724,3.0468 124.255066,3.0288 124.077434,3.0188 C124.071513,2.7848 124.063618,2.5528 124.067566,2.3208 C124.067566,2.2968 124.130724,2.2648 124.170197,2.2528 C124.217566,2.2408 124.268882,2.2508 124.318224,2.2508 L130.752434,2.2508 C130.987303,2.2508 130.993224,2.2548 130.99125,2.4888 C130.989276,2.6688 131.040592,2.9168 130.947829,3.0108 C130.855066,3.1028 130.608355,3.0488 130.432697,3.0508 C130.134671,3.0548 129.838618,3.0508 129.540592,3.0548 C129.499145,3.0548 129.400461,3.0168 129.441908,3.1348 C129.445855,3.1488 129.461645,3.1588 129.473487,3.1708 C129.485329,3.1828 129.501118,3.1928 129.507039,3.2068 C129.510987,3.2228 129.507039,3.2408 129.507039,3.2588 C129.507039,3.2728 129.510987,3.2908 129.503092,3.3048 C129.497171,3.3208 129.481382,3.3308 129.469539,3.3428 C129.457697,3.3528 129.445855,3.3628 129.435987,3.3768 C129.428092,3.3868 129.414276,3.4048 129.418224,3.4128 C129.424145,3.4268 129.439934,3.4348 129.451776,3.4468 C129.461645,3.4588 129.477434,3.4708 129.485329,3.4848 C129.49125,3.4928 129.495197,3.5108 129.49125,3.5188 C129.483355,3.5328 129.469539,3.5428 129.457697,3.5548 C129.445855,3.5668 129.432039,3.5768 129.424145,3.5908 C129.420197,3.6008 129.424145,3.6148 129.430066,3.6248 C129.437961,3.6388 129.45375,3.6488 129.463618,3.6608 C129.475461,3.6728 129.489276,3.6828 129.497171,3.6968 C129.505066,3.7088 129.505066,3.7268 129.507039,3.7428 C129.509013,3.7608 129.507039,3.7748 129.507039,3.7928 L129.507039,3.8448 L129.507039,3.8928 L129.507039,3.9428 L129.507039,3.9948 L129.507039,4.0428 L129.507039,4.0948 L129.507039,4.1448 L129.507039,19.9928 C129.507039,20.0088 129.509013,20.0248 129.507039,20.0408 C129.479408,20.2128 129.534671,20.3808 129.430066,20.5648 C129.366908,20.6768 129.471513,20.8928 129.514934,21.0588 C129.520855,21.0868 129.597829,21.1108 129.637303,21.1048 C129.921513,21.0748 130.205724,21.1648 130.493882,21.0228 C130.655724,20.9428 130.884671,20.9928 131.082039,21.0128 C131.599145,21.0628 132.096513,20.9228 132.578092,20.7868 C132.931382,20.6868 133.282697,20.4908 133.590592,20.2408 C134.271513,19.6868 134.581382,18.9208 134.857697,18.1188 C135.047171,17.5668 135.143882,17.0008 135.262303,16.4328 C135.34125,16.0568 135.329408,15.6728 135.449803,15.3088 C135.463618,15.2628 135.518882,15.2008 135.558355,15.1948 C135.688618,15.1828 135.822829,15.2008 135.953092,15.1868 C136.109013,15.1748 136.144539,15.2328 136.142566,15.3828 C136.136645,16.3368 136.217566,17.2968 136.118882,18.2388 C136.004408,19.3168 136.085329,20.3868 136.041908,21.4588 C136.030066,21.8088 136.037961,21.8108 135.666908,21.8108 L130.815592,21.8108 L130.073487,21.8108 Z" id="Fill-14" fill="#404041"></path>
            <g id="Group-18" transform="translate(0.000000, 1.251200)">
                <mask id="mask-4" fill="white">
                    <use xlink:href="#path-3"></use>
                </mask>
                <g id="Clip-17"></g>
                <path d="M1.41,10.8506 L1.41,2.2746 C1.41,2.1746 1.40407895,2.0726 1.41197368,1.9746 C1.41986842,1.8526 1.39223684,1.7946 1.25407895,1.7986 C0.940263158,1.8086 0.626447368,1.8066 0.312631579,1.8006 C0.0994736842,1.7966 0.0343421053,1.7226 0.0244736842,1.5046 C0.0205263158,1.4206 0.0264473684,1.3366 0.0244736842,1.2546 C0.0205263158,1.0926 0.117236842,1.0246 0.255394737,1.0006 C0.318552632,0.9906 0.385657895,0.9986 0.454736842,0.9986 L6.68960526,0.9986 C6.96197368,0.9986 6.96,0.9566 6.95407895,1.2626 C6.95210526,1.4286 6.94815789,1.5946 6.94618421,1.7606 C6.76855263,1.7746 6.59289474,1.7966 6.41723684,1.8006 C6.16855263,1.8086 5.92184211,1.8066 5.67513158,1.8006 C5.57052632,1.7986 5.48960526,1.8106 5.41460526,1.8986 C5.32184211,2.0106 5.38697368,2.0746 5.46,2.1426 C5.31789474,2.2106 5.47184211,2.3286 5.40671053,2.4366 C5.34157895,2.5486 5.37118421,2.7226 5.37118421,2.8686 C5.36921053,8.1366 5.36723684,13.4006 5.37513158,18.6666 C5.37513158,18.9206 5.33763158,19.1666 5.45013158,19.4366 C5.57052632,19.7246 5.52118421,19.7046 5.78763158,19.7726 C5.97710526,19.8226 6.13302632,19.7506 6.30276316,19.7566 C6.50210526,19.7626 6.69947368,19.7566 6.89684211,19.7566 C7.09618421,19.7566 7.29552632,19.7806 7.49092105,19.7526 C7.86197368,19.7006 8.235,19.6466 8.59223684,19.5406 C8.86460526,19.4566 9.16065789,19.3366 9.36197368,19.1446 C9.72118421,18.8046 10.0942105,18.4846 10.335,18.0086 C10.6981579,17.2946 10.9468421,16.5566 11.1165789,15.7766 C11.1955263,15.4046 11.31,15.0426 11.3159211,14.6546 C11.3178947,14.5366 11.4185526,14.4406 11.4146053,14.2966 C11.4067105,13.9406 11.4225,13.9386 11.7797368,13.9406 C11.9080263,13.9406 12.0382895,13.9526 12.1665789,13.9566 C12.1784211,14.1366 12.2553947,14.3546 12.1803947,14.4826 C12.0836842,14.6486 12.1053947,14.8006 12.1053947,14.9566 C12.0994737,16.2266 12.0955263,17.4966 12.1053947,18.7666 C12.1073684,19.0446 12.0442105,19.3086 12.0106579,19.5786 C11.9711842,19.8906 11.9909211,20.2106 11.9869737,20.5246 C11.6475,20.5366 11.3040789,20.5586 10.9626316,20.5586 C7.51460526,20.5606 4.06657895,20.5586 0.618552632,20.5586 C0.486315789,20.5586 0.350131579,20.5806 0.223815789,20.5546 C0.117236842,20.5306 -0.0702631579,20.4926 0.119210526,20.3086 C0.135,20.2946 0.109342105,20.2286 0.125131579,20.2166 C0.257368421,20.1046 -0.24,19.9066 0.156710526,19.8766 C0.286973684,19.8666 0.393552632,19.7506 0.579078947,19.8366 C0.784342105,19.9306 1.06460526,19.8626 1.31131579,19.8526 C1.34684211,19.8506 1.40013158,19.7746 1.40605263,19.7266 C1.41986842,19.6126 1.41,19.4926 1.41,19.3766 L1.41,10.8506 Z" id="Fill-16" fill="#404041" mask="url(#mask-4)"></path>
            </g>
            <path d="M18.3868421,15.09 C18.9157895,15.09 19.4427632,15.088 19.9717105,15.092 C20.1276316,15.092 20.0723684,15.072 20.0427632,14.946 C19.9342105,14.442 19.7684211,13.954 19.65,13.454 C19.5217105,12.924 19.3598684,12.402 19.2414474,11.872 C19.1684211,11.55 19.0815789,11.232 19.0085526,10.912 C18.9375,10.594 18.8210526,10.29 18.7361842,9.974 C18.6592105,9.688 18.6019737,9.394 18.5348684,9.106 C18.5230263,9.06 18.5052632,9.018 18.4894737,8.974 C18.4421053,9.02 18.3611842,9.06 18.3532895,9.112 C18.3039474,9.518 18.1164474,9.89 18.0493421,10.286 C17.9072368,11.122 17.5756579,11.904 17.4236842,12.736 C17.3565789,13.098 17.2421053,13.464 17.1335526,13.818 C17.0190789,14.192 16.9184211,14.564 16.8296053,14.946 C16.8,15.072 16.7467105,15.092 16.9026316,15.092 C17.3980263,15.088 17.8914474,15.09 18.3868421,15.09 M23.5460526,21.81 C22.5394737,21.81 21.5348684,21.804 20.5282895,21.816 C20.3427632,21.818 20.2934211,21.768 20.3151316,21.592 C20.3289474,21.476 20.3210526,21.36 20.3171053,21.242 C20.3111842,21.13 20.3625,21.106 20.4631579,21.108 C20.7769737,21.114 21.0888158,21.114 21.4026316,21.108 C21.6572368,21.104 21.6848684,21.036 21.6118421,20.762 C21.4697368,20.218 21.3513158,19.67 21.2072368,19.128 C21.0592105,18.57 20.8578947,18.028 20.7453947,17.466 C20.6526316,17.004 20.4355263,16.574 20.4177632,16.098 C20.4118421,15.964 20.3171053,15.994 20.2421053,15.994 C19.6993421,15.992 19.1546053,15.992 18.6098684,15.992 C17.9486842,15.992 17.2894737,15.994 16.6302632,15.992 C16.5177632,15.99 16.4684211,16.006 16.4506579,16.146 C16.4092105,16.44 16.3578947,16.74 16.2513158,17.014 C16.1190789,17.352 16.0657895,17.706 15.9690789,18.048 C15.8447368,18.498 15.7125,18.948 15.6118421,19.404 C15.5427632,19.724 15.4480263,20.038 15.3690789,20.356 C15.3276316,20.524 15.3473684,20.73 15.2526316,20.856 C15.0907895,21.072 15.2822368,21.108 15.3710526,21.1 C15.7875,21.066 16.2177632,21.228 16.6164474,21.006 C16.7190789,20.948 16.7861842,21.212 16.8868421,21.024 C16.9085526,21.054 16.9480263,21.086 16.9480263,21.118 C16.9519737,21.334 16.9480263,21.55 16.9460526,21.768 C16.7368421,21.782 16.5296053,21.808 16.3203947,21.808 C15.2486842,21.814 14.175,21.806 13.1032895,21.816 C12.9197368,21.818 12.8703947,21.77 12.8901316,21.594 C12.9059211,21.462 12.8921053,21.326 12.8940789,21.194 C12.8980263,21.014 12.8960526,21.048 13.1092105,21.068 C13.4269737,21.098 13.7526316,21.098 14.0684211,21.054 C14.1572368,21.042 14.2046053,21.128 14.2401316,21.09 C14.3013158,21.024 14.3486842,20.936 14.3763158,20.848 C14.4493421,20.594 14.5282895,20.338 14.5717105,20.078 C14.6447368,19.646 14.8085526,19.238 14.9111842,18.814 C15.0197368,18.38 15.1519737,17.948 15.2684211,17.512 C15.4085526,16.984 15.5309211,16.452 15.6828947,15.93 C15.8486842,15.364 16.0223684,14.798 16.1625,14.224 C16.2907895,13.714 16.4467105,13.208 16.5888158,12.7 C16.7092105,12.266 16.8315789,11.83 16.95,11.396 C17.1,10.858 17.2559211,10.318 17.3921053,9.776 C17.5302632,9.216 17.7197368,8.674 17.8460526,8.11 C17.9565789,7.61 18.1105263,7.118 18.2546053,6.626 C18.3769737,6.194 18.4835526,5.756 18.6236842,5.328 C18.7815789,4.842 18.8881579,4.336 19.0282895,3.842 C19.1684211,3.366 19.3085526,2.886 19.4171053,2.402 C19.4486842,2.266 19.4901316,2.246 19.6006579,2.248 C19.8809211,2.254 20.1611842,2.254 20.4414474,2.248 C20.5578947,2.246 20.5717105,2.302 20.6309211,2.396 C20.8006579,2.674 20.8085526,2.992 20.9013158,3.288 C21.0671053,3.806 21.1618421,4.348 21.3098684,4.874 C21.4519737,5.368 21.5546053,5.874 21.7164474,6.358 C21.9296053,6.992 22.0440789,7.652 22.2513158,8.288 C22.3815789,8.684 22.4921053,9.092 22.5947368,9.5 C22.7368421,10.072 22.9085526,10.638 23.0506579,11.212 C23.1631579,11.664 23.2796053,12.122 23.4019737,12.572 C23.5263158,13.038 23.6447368,13.504 23.7809211,13.966 C23.9506579,14.548 24.1203947,15.13 24.2743421,15.714 C24.4263158,16.288 24.5664474,16.86 24.7401316,17.426 C24.9157895,17.99 25.0184211,18.578 25.1723684,19.152 C25.3263158,19.736 25.4901316,20.32 25.6677632,20.898 C25.7171053,21.054 25.8730263,21.114 26.0388158,21.11 C26.2381579,21.106 26.4355263,21.104 26.6328947,21.114 C26.6743421,21.118 26.7414474,21.178 26.7453947,21.218 C26.7611842,21.352 26.7414474,21.486 26.7532895,21.62 C26.7671053,21.772 26.7177632,21.816 26.5657895,21.814 C25.5592105,21.808 24.5526316,21.81 23.5460526,21.81" id="Fill-19" fill="#404041"></path>
            <path d="M88.3253289,18.1994 C87.8950658,18.1994 87.4648026,18.1854 87.0384868,18.2054 C86.8075658,18.2174 86.7029605,18.1394 86.6082237,17.9254 C86.4463816,17.5554 86.4305921,17.5754 86.0950658,17.7974 C85.7358553,18.0374 85.3411184,18.1934 84.91875,18.3154 C84.5003289,18.4354 84.0759868,18.4474 83.6753289,18.3834 C83.00625,18.2754 82.3865132,18.0094 81.9878289,17.3914 C81.8101974,17.1154 81.6700658,16.8294 81.5457237,16.5234 C81.4648026,16.3254 81.6167763,16.0794 81.3957237,15.9354 C81.4273026,15.7314 81.3167763,15.5034 81.4944079,15.3254 C81.4628289,14.9434 81.6424342,14.6274 81.7865132,14.2934 C81.8851974,14.0634 82.0470395,13.8974 82.2029605,13.7154 C82.3430921,13.5514 82.4240132,13.3574 82.6490132,13.2474 C82.8858553,13.1354 83.0713816,12.9074 83.2786184,12.7334 C83.2963816,12.7174 83.3259868,12.7134 83.3496711,12.7054 C83.3575658,12.7354 83.3832237,12.7734 83.3733553,12.7934 C83.1740132,13.1434 83.1740132,13.5254 83.1759868,13.9134 C83.1759868,14.2234 83.2411184,14.5074 83.3200658,14.8054 C83.3970395,15.0914 83.4819079,15.3854 83.5983553,15.6434 C83.8115132,16.1114 84.0898026,16.5574 84.4509868,16.9414 C84.6503289,17.1534 84.9148026,17.2514 85.1536184,17.2734 C85.4082237,17.2974 85.7003289,17.2014 85.9411184,17.0534 C86.0615132,16.9794 86.1128289,16.7294 86.0101974,16.6174 C85.8384868,16.4234 85.7615132,16.1874 85.6490132,15.9654 C85.29375,15.2614 84.8950658,14.5794 84.5536184,13.8674 C84.3345395,13.4094 84.0641447,12.9734 83.8430921,12.5094 C83.7384868,12.2854 83.6220395,12.0594 83.4700658,11.8674 C83.1621711,11.4754 83.0398026,11.0034 82.9174342,10.5454 C82.8404605,10.2654 82.8345395,9.9414 82.89375,9.6574 C82.9944079,9.1754 83.1700658,8.7094 83.5944079,8.4014 C83.7069079,8.3194 83.8194079,8.2054 83.9457237,8.1754 C84.3108553,8.0954 84.6621711,7.8734 85.0470395,7.9794 C85.2128289,8.0234 85.2917763,7.7554 85.4871711,7.9234 C85.5819079,8.0094 85.7990132,7.9414 85.9569079,7.9714 C86.3713816,8.0474 86.7424342,8.2314 87.0858553,8.4734 C87.2180921,8.5674 87.3246711,8.7014 87.4371711,8.8254 C87.5733553,8.9754 87.7095395,9.4874 87.6779605,9.6794 C87.6601974,9.7734 87.6286184,9.8694 87.6345395,9.9614 C87.6621711,10.3174 87.5259868,10.6154 87.3325658,10.8874 C87.1055921,11.2054 86.8332237,11.4834 86.4898026,11.6754 C86.4621711,11.6914 86.3990132,11.6614 86.3615132,11.6394 C86.34375,11.6294 86.3358553,11.5714 86.3476974,11.5494 C86.6536184,11.0554 86.5371711,10.5034 86.5332237,9.9774 C86.53125,9.7374 86.4523026,9.4754 86.3338816,9.2634 C86.2194079,9.0554 86.0161184,8.8934 85.8424342,8.7194 C85.8049342,8.6814 85.7279605,8.6754 85.6667763,8.6714 C85.5345395,8.6654 85.4003289,8.6894 85.2720395,8.6654 C85.0391447,8.6214 84.8733553,8.7394 84.7845395,8.9134 C84.6976974,9.0794 84.6167763,9.2514 84.7134868,9.4914 C84.9345395,10.0394 85.18125,10.5714 85.4930921,11.0714 C85.5740132,11.2014 85.6391447,11.3414 85.70625,11.4834 C86.0832237,12.2794 86.5648026,13.0214 86.9536184,13.8154 C87.1154605,14.1454 87.3404605,14.4554 87.5338816,14.7754 C87.5930921,14.8734 87.6444079,14.9754 87.6996711,15.0734 C87.7766447,14.9734 87.8792763,14.8814 87.9246711,14.7674 C88.1042763,14.3034 88.3450658,13.8514 88.3233553,13.3294 C88.3194079,13.2114 88.3707237,13.1214 88.4121711,13.0154 C88.4516447,12.9154 88.4792763,12.7574 88.3490132,12.6534 C88.2286184,12.5554 88.1378289,12.5874 88.0055921,12.6454 C87.7411184,12.7574 87.5398026,12.6074 87.5338816,12.3354 C87.5279605,11.8814 87.5279605,11.8814 87.95625,11.8814 C88.4476974,11.8794 88.9430921,11.8794 89.4384868,11.8814 C89.8134868,11.8814 89.8134868,11.8834 89.8115132,12.2854 C89.8115132,12.3194 89.8075658,12.3514 89.8115132,12.3854 C89.83125,12.5274 89.7917763,12.5934 89.6299342,12.5854 C89.4345395,12.5754 89.2411184,12.5974 89.0457237,12.6054 C89.0358553,12.8034 89.0417763,12.9994 89.0180921,13.1954 C88.9095395,14.0234 88.6944079,14.8174 88.2424342,15.5274 C88.1930921,15.6054 88.1615132,15.6994 88.1003289,15.7654 C88.0154605,15.8554 88.0273026,15.9074 88.0904605,16.0134 C88.3490132,16.4554 88.5819079,16.9094 88.8325658,17.3554 C88.8898026,17.4554 88.9825658,17.5174 89.11875,17.5014 C89.2825658,17.4854 89.4483553,17.4954 89.6121711,17.4974 C89.7878289,17.4994 89.8470395,17.5994 89.8529605,17.8114 C89.8569079,17.9074 89.86875,17.9994 89.8549342,18.0954 C89.8509868,18.1294 89.8569079,18.1634 89.8569079,18.1994 L89.7088816,18.1994 L88.3253289,18.1994 Z" id="Fill-21" fill="#404041"></path>
            <path d="M108.619342,31.4924 L108.619342,29.1244 C108.619342,28.9424 108.625263,28.7584 108.617368,28.5744 C108.613421,28.4684 108.648947,28.4304 108.753553,28.4304 C109.554868,28.4404 109.515395,28.3304 109.511447,29.1584 C109.505526,30.3104 109.509474,31.4624 109.509474,32.6164 C109.509474,32.7164 109.513421,32.8164 109.509474,32.9164 C109.505526,33.0504 109.428553,33.1324 109.304211,33.1424 C109.140395,33.1564 108.974605,33.1484 108.810789,33.1444 C108.783158,33.1444 108.741711,33.1264 108.729868,33.1064 C108.534474,32.7724 108.254211,32.5024 108.041053,32.1884 C107.871316,31.9384 107.673947,31.7104 107.496316,31.4704 C107.123289,30.9724 106.803553,30.4304 106.353553,29.9924 C106.32,29.9604 106.323947,29.8924 106.245,29.8504 L106.245,30.1864 C106.245,31.1044 106.243026,32.0244 106.246974,32.9424 C106.246974,33.0724 106.245,33.1664 106.071316,33.1504 C105.875921,33.1304 105.680526,33.1344 105.485132,33.1284 C105.473289,32.9344 105.453553,32.7384 105.453553,32.5404 C105.451579,31.2384 105.453553,29.9364 105.449605,28.6324 C105.449605,28.4944 105.461447,28.4064 105.629211,28.4304 C105.710132,28.4424 105.793026,28.4384 105.875921,28.4324 C106.138421,28.4084 106.323947,28.4784 106.452237,28.7524 C106.558816,28.9784 106.758158,29.1584 106.914079,29.3624 C107.368026,29.9544 107.82,30.5504 108.277895,31.1424 C108.364737,31.2524 108.473289,31.3444 108.619342,31.4924" id="Fill-23" fill="#404041"></path>
            <path d="M43.4818421,29.881 C43.4818421,30.957 43.4778947,31.941 43.4857895,32.925 C43.4877632,33.091 43.4680263,33.175 43.2746053,33.151 C43.0969737,33.129 42.9134211,33.143 42.7338158,33.141 C42.7180263,32.945 42.6923684,32.753 42.6923684,32.557 C42.6884211,31.255 42.6943421,29.949 42.6864474,28.645 C42.6844737,28.461 42.7298684,28.403 42.9035526,28.429 C42.9844737,28.441 43.0713158,28.443 43.1502632,28.429 C43.3456579,28.397 43.4384211,28.487 43.5568421,28.645 C43.9910526,29.221 44.4667105,29.767 44.9107895,30.337 C45.2186842,30.731 45.5028947,31.143 45.8581579,31.629 L45.8581579,31.189 C45.8581579,30.437 45.8561842,29.685 45.8601316,28.933 C45.8601316,28.771 45.8818421,28.609 45.8936842,28.447 C46.1364474,28.449 46.3792105,28.439 46.62,28.461 C46.6673684,28.465 46.7246053,28.579 46.7423684,28.651 C46.7660526,28.729 46.7482895,28.817 46.7482895,28.901 L46.7482895,30.805 L46.7482895,31.559 C46.7482895,31.825 46.7384211,32.093 46.7502632,32.359 C46.7601316,32.563 46.6456579,32.753 46.7068421,32.963 C46.7206579,33.007 46.6476316,33.125 46.6081579,33.131 C46.4127632,33.151 46.2153947,33.149 46.0180263,33.143 C45.9825,33.141 45.9410526,33.087 45.9094737,33.049 C45.7930263,32.899 45.6686842,32.753 45.5621053,32.593 C45.2147368,32.083 44.8022368,31.621 44.4627632,31.101 C44.1923684,30.685 43.845,30.325 43.4818421,29.881" id="Fill-25" fill="#404041"></path>
            <path d="M81.8917105,30.8108 C81.8917105,30.9608 81.8897368,31.1108 81.8917105,31.2628 C81.8956579,31.6108 81.9015789,31.9608 81.9075,32.3088 C82.2627632,32.3208 82.6259211,32.3028 82.9792105,32.3528 C83.3403947,32.4048 83.5752632,32.1708 83.8318421,32.0168 C84.0469737,31.8868 84.1673684,31.6428 84.2680263,31.4028 C84.4298684,31.0128 84.3943421,30.6188 84.2660526,30.2328 C84.0430263,29.5648 83.4746053,29.2228 82.8884211,29.2348 C82.6239474,29.2388 82.3575,29.2528 82.0969737,29.2288 C81.8976316,29.2108 81.8838158,29.2968 81.8877632,29.4568 C81.8976316,29.9088 81.8917105,30.3588 81.8917105,30.8108 M81.0015789,30.7788 C81.0015789,30.0448 81.0015789,29.3128 80.9996053,28.5788 C80.9976316,28.4768 81.0232895,28.4308 81.1318421,28.4308 C81.8226316,28.4348 82.5213158,28.3608 83.2022368,28.4508 C83.9561842,28.5508 84.6035526,28.8848 84.9746053,29.6628 C85.2015789,30.1348 85.3180263,30.6028 85.245,31.0948 C85.1778947,31.5408 85.0239474,31.9628 84.6686842,32.3048 C84.3430263,32.6188 84.0055263,32.8888 83.5693421,33.0008 C83.3285526,33.0608 83.0838158,33.1308 82.8371053,33.1408 C82.2785526,33.1608 81.72,33.1428 81.1594737,33.1508 C81.0272368,33.1508 80.9976316,33.1028 80.9976316,32.9788 C81.0035526,32.2468 81.0015789,31.5128 81.0015789,30.7788" id="Fill-27" fill="#404041"></path>
            <path d="M60.0886184,30.7248 L60.0886184,30.7388 C60.2188816,30.7388 60.3511184,30.7328 60.4813816,30.7408 C60.7241447,30.7548 60.9392763,30.7108 61.1484868,30.5568 C61.3616447,30.3988 61.5116447,30.1808 61.4780921,29.9608 C61.4445395,29.7288 61.4070395,29.4308 61.0774342,29.3268 C60.8425658,29.2528 60.6254605,29.1208 60.3688816,29.1328 C60.2701974,29.1388 60.1517763,29.1708 60.0767763,29.1268 C59.9583553,29.0548 59.9129605,29.3128 59.7965132,29.1688 C59.74125,29.1008 59.6859868,29.2628 59.5754605,29.1708 C59.5024342,29.1068 59.3228289,29.3048 59.3208553,29.4408 C59.3188816,29.6068 59.3169079,29.7728 59.3208553,29.9388 C59.32875,30.2008 59.3445395,30.4628 59.3563816,30.7248 L60.0886184,30.7248 Z M62.4905921,33.1308 C62.4175658,33.1388 62.3701974,33.1468 62.3228289,33.1468 C62.0603289,33.1428 61.76625,33.2128 61.5471711,33.1108 C61.3675658,33.0288 61.2866447,32.7368 61.1504605,32.5468 C60.9471711,32.2628 60.7320395,31.9868 60.5228289,31.7068 C60.4280921,31.5808 60.3096711,31.5228 60.1438816,31.5368 C59.9169079,31.5568 59.6879605,31.5488 59.4590132,31.5528 C59.4451974,31.7808 59.4274342,32.0108 59.4215132,32.2388 C59.4155921,32.4728 59.4017763,32.7088 59.4254605,32.9388 C59.4471711,33.1448 59.3563816,33.1608 59.1984868,33.1488 C58.9873026,33.1348 58.7741447,33.1368 58.5629605,33.1308 C58.5511184,32.9188 58.5313816,32.7048 58.5313816,32.4928 C58.5274342,31.2068 58.5313816,29.9208 58.5274342,28.6348 C58.5254605,28.5008 58.5353289,28.4268 58.7050658,28.4288 C59.3958553,28.4368 60.0905921,28.3948 60.7813816,28.4448 C61.2807237,28.4808 61.7701974,28.6248 62.10375,29.0828 C62.1807237,29.1868 62.1708553,29.2888 62.2024342,29.3928 C62.3248026,29.7768 62.3682237,30.4208 62.1807237,30.6588 C61.9655921,30.9268 61.7879605,31.2748 61.39125,31.3408 C61.2866447,31.3568 61.3103289,31.3868 61.3596711,31.4548 C61.5057237,31.6588 61.6359868,31.8728 61.7820395,32.0788 C61.9044079,32.2468 62.0465132,32.3988 62.1629605,32.5708 C62.2754605,32.7388 62.3682237,32.9208 62.4905921,33.1308 Z" id="Fill-29" fill="#404041"></path>
            <g id="Group-33" transform="translate(65.131579, 27.251200)">
                <mask id="mask-6" fill="white">
                    <use xlink:href="#path-5"></use>
                </mask>
                <g id="Clip-32"></g>
                <path d="M3.84236842,5.208 C3.98447368,5.192 4.14039474,5.208 4.26868421,5.154 C4.92394737,4.87 5.41539474,4.316 5.37394737,3.542 C5.33644737,2.81 4.90223684,2.046 4.15026316,1.984 C3.80486842,1.742 3.47328947,1.896 3.17921053,2.062 C2.46868421,2.468 2.24565789,2.992 2.29894737,3.75 C2.35618421,4.59 3.05486842,5.25 3.84236842,5.208 M3.78118421,6 C2.82,5.986 2.09960526,5.546 1.62,4.714 C1.49960526,4.502 1.40486842,4.26 1.41671053,4 C1.42065789,3.854 1.42263158,3.71 1.31802632,3.59 C1.49960526,3.27 1.40881579,2.892 1.58052632,2.552 C1.97131579,1.782 2.4075,1.446 3.13776316,1.212 C3.38052632,1.132 3.66276316,1.084 3.92328947,1.094 C4.22723684,1.104 4.545,1.17 4.82328947,1.294 C5.08973684,1.412 5.32855263,1.614 5.54565789,1.816 C5.75092105,2.006 5.95421053,2.218 5.97,2.534 C6.26605263,2.818 6.09828947,3.24 6.26802632,3.56 C6.17723684,3.908 6.16539474,4.272 6.00947368,4.602 C5.84960526,4.94 5.64039474,5.256 5.34039474,5.466 C4.83315789,5.822 4.40881579,6.018 3.78118421,6" id="Fill-31" fill="#404041" mask="url(#mask-6)"></path>
            </g>
            <path d="M73.8736184,29.9748 C73.8736184,30.1768 73.8815132,30.3748 73.8696711,30.5768 C73.86375,30.7108 73.9130921,30.7448 74.0374342,30.7428 C74.4005921,30.7348 74.76375,30.7408 75.1269079,30.7388 C75.2078289,30.7388 75.6499342,30.5888 75.6933553,30.5508 C75.9065132,30.3588 76.0426974,29.9908 75.9242763,29.7688 C75.7861184,29.5108 75.6598026,29.1908 75.2670395,29.2348 C75.2176974,29.2388 75.1545395,29.2548 75.1209868,29.2308 C74.8190132,29.0328 74.4874342,29.1648 74.1676974,29.1408 C74.0019079,29.1288 73.8755921,29.3048 73.8736184,29.4728 C73.8716447,29.6408 73.8736184,29.8068 73.8736184,29.9748 Z M73.0821711,30.7968 C73.0821711,30.0808 73.0900658,29.3608 73.07625,28.6428 C73.0723026,28.4528 73.1295395,28.4268 73.2973026,28.4288 C73.9229605,28.4368 74.5525658,28.4068 75.17625,28.4388 C75.6834868,28.4688 76.1788816,28.5728 76.5124342,29.0408 C76.6367763,29.2148 76.7334868,29.3748 76.75125,29.5988 C76.7709868,29.8228 76.7926974,30.0368 76.7551974,30.2668 C76.7196711,30.4848 76.6683553,30.6688 76.5144079,30.8228 C76.3486184,30.9848 76.2163816,31.2248 76.0190132,31.3008 C75.7269079,31.4108 75.88875,31.5388 75.9578289,31.6428 C76.1532237,31.9468 76.3723026,32.2388 76.5854605,32.5328 C76.6979605,32.6868 76.8223026,32.8328 76.9288816,32.9928 C76.9466447,33.0188 76.8953289,33.1388 76.8755921,33.1408 C76.5953289,33.1508 76.3130921,33.1508 76.0348026,33.1408 C76.0051974,33.1388 75.9834868,33.0448 75.9519079,33.0008 C75.6163816,32.5428 75.2413816,32.1108 74.9591447,31.6128 C74.9354605,31.5748 74.8565132,31.5448 74.8051974,31.5448 C74.5071711,31.5408 74.2130921,31.5448 73.9150658,31.5468 C73.9032237,31.8428 73.8874342,32.1368 73.8736184,32.4328 C73.8696711,32.5308 73.8736184,32.6308 73.8736184,32.7328 C73.8716447,33.1468 73.8716447,33.1468 73.4630921,33.1468 C73.0821711,33.1468 73.0821711,33.1468 73.0821711,32.7528 L73.0821711,30.7968 Z" id="Fill-34" fill="#404041"></path>
            <path d="M103.669539,31.5354 C103.669539,31.8034 103.665592,32.0714 103.671513,32.3374 C103.673487,32.4414 103.659671,32.5254 103.570855,32.5974 C103.304408,32.8154 102.582039,33.1074 102.212961,33.1514 C102.074803,33.1654 101.926776,33.2694 101.812303,33.2374 C101.423487,33.1274 101.020855,33.1434 100.637961,32.9634 C100.262961,32.7894 99.9708553,32.5294 99.7636184,32.2234 C99.4123026,31.7014 99.22875,30.9614 99.37875,30.2934 C99.5326974,29.6094 99.9234868,29.1514 100.383355,28.7054 C100.521513,28.5734 100.716908,28.5574 100.888618,28.4914 C101.743224,28.1654 102.660987,28.3114 103.39125,28.8274 C103.511645,28.9114 103.476118,29.0014 103.464276,29.0774 C103.450461,29.1454 103.357697,29.1974 103.300461,29.2574 C102.994539,29.5774 103.000461,29.5674 102.609671,29.3234 C102.457697,29.2294 102.270197,29.1814 102.092566,29.1394 C101.984013,29.1134 101.861645,29.1514 101.747171,29.1314 C101.320855,29.0574 101.010987,29.3094 100.742566,29.5634 C100.46625,29.8214 100.286645,30.1654 100.304408,30.5774 C100.306382,30.6614 100.318224,30.7454 100.302434,30.8274 C100.213618,31.2434 100.487961,31.5514 100.614276,31.8994 C100.647829,31.9854 100.738618,32.0674 100.821513,32.1094 C101.196513,32.3034 101.581382,32.5274 102.017566,32.4334 C102.311645,32.3714 102.627434,32.3214 102.870197,32.1034 C102.957039,32.0274 102.959013,31.9914 102.889934,31.8814 C102.830724,31.7854 102.868224,31.6194 102.884013,31.4894 C102.909671,31.2814 102.895855,31.2454 102.728092,31.2434 C102.465592,31.2374 102.201118,31.2434 101.936645,31.2414 C101.693882,31.2394 101.689934,31.2394 101.691908,31.0114 C101.691908,30.8294 101.70375,30.6494 101.709671,30.4694 C101.873487,30.4934 102.037303,30.5314 102.201118,30.5354 C102.645197,30.5454 103.09125,30.5414 103.537303,30.5374 C103.643882,30.5354 103.673487,30.5794 103.671513,30.6834 C103.665592,30.9674 103.669539,31.2494 103.669539,31.5354" id="Fill-36" fill="#404041"></path>
            <path d="M86.8413158,30.8048 C86.8413158,30.0708 86.8432895,29.3368 86.8393421,28.6008 C86.8373684,28.4808 86.8610526,28.4288 86.9972368,28.4288 C88.0511842,28.4328 89.1051316,28.4328 90.1610526,28.4308 C90.2597368,28.4308 90.3130263,28.4508 90.3071053,28.5648 C90.3011842,28.6968 90.3110526,28.8328 90.3051316,28.9648 C90.2952632,29.1648 90.2834211,29.1548 90.0307895,29.1388 C89.7525,29.1208 89.4702632,29.1168 89.1919737,29.1388 C88.9255263,29.1608 88.6393421,29.0408 88.3867105,29.2228 C88.3196053,29.0768 88.2051316,29.2548 88.1005263,29.1768 C88.0215789,29.1188 87.8636842,29.1628 87.7432895,29.1808 C87.7097368,29.1848 87.6584211,29.2788 87.6682895,29.3148 C87.7709211,29.6328 87.7768421,29.9448 87.6663158,30.2628 C87.6623684,30.2728 87.7334211,30.3348 87.7709211,30.3348 C88.215,30.3408 88.6590789,30.3388 89.1031579,30.3388 L89.5985526,30.3388 C90.0090789,30.3388 90.0090789,30.3388 90.0071053,30.7528 C90.0071053,31.1388 90.0071053,31.1408 89.6202632,31.1408 C89.0281579,31.1408 88.4360526,31.1388 87.8439474,31.1408 C87.7807895,31.1428 87.6880263,31.1368 87.6643421,31.1728 C87.6288158,31.2228 87.7610526,31.2968 87.6544737,31.3908 C87.6228947,31.4208 87.7492105,31.6548 87.7235526,31.6728 C87.5932895,31.7608 87.7452632,31.8628 87.69,31.9308 C87.5972368,32.0428 87.8676316,32.1928 87.6446053,32.2808 C87.6959211,32.3028 87.7432895,32.3428 87.7926316,32.3428 C88.5505263,32.3468 89.3084211,32.3448 90.0663158,32.3448 C90.3011842,32.3468 90.3071053,32.3468 90.3051316,32.5828 C90.3031579,32.7628 90.3544737,33.0088 90.2617105,33.1028 C90.1709211,33.1968 89.9242105,33.1448 89.7485526,33.1448 C88.8426316,33.1488 87.9367105,33.1428 87.0307895,33.1508 C86.8827632,33.1508 86.8353947,33.1128 86.8373684,32.9588 C86.8452632,32.2408 86.8413158,31.5228 86.8413158,30.8048" id="Fill-38" fill="#404041"></path>
            <path d="M55.1621053,33.1466 L53.8772368,33.1466 C53.7963158,33.1466 53.7094737,33.1606 53.6305263,33.1426 C53.5594737,33.1266 53.4825,33.0886 53.4272368,33.0386 C53.3581579,32.9746 53.5397368,32.8526 53.3838158,32.7926 C53.5693421,32.6326 53.4746053,32.4186 53.4765789,32.2326 C53.4864474,31.3306 53.4884211,30.4286 53.4765789,29.5246 C53.4726316,29.2226 53.4173684,28.9186 53.3798684,28.6146 C53.3601316,28.4506 53.4351316,28.4286 53.5752632,28.4306 C54.5976316,28.4346 55.62,28.4386 56.6423684,28.4266 C56.8417105,28.4226 56.8496053,28.4966 56.8496053,28.6566 C56.8496053,29.1326 56.8555263,29.1346 56.3996053,29.1346 C55.7403947,29.1346 55.0792105,29.1346 54.42,29.1326 C54.3232895,29.1306 54.2601316,29.1486 54.2719737,29.2646 C54.2759211,29.2966 54.2719737,29.3306 54.2719737,29.3626 C54.2798684,29.6786 54.2857895,29.9946 54.2936842,30.3086 C54.6015789,30.3186 54.9094737,30.3326 55.2193421,30.3366 C55.6002632,30.3426 55.9772368,30.3346 56.3561842,30.3406 C56.6048684,30.3446 56.6877632,30.4566 56.6088158,30.7166 C56.5890789,30.7826 56.5969737,30.8026 56.6127632,30.8626 C56.6759211,31.0966 56.7035526,31.1486 56.4114474,31.1426 C55.7522368,31.1326 55.0930263,31.1446 54.4338158,31.1366 C54.2996053,31.1366 54.2660526,31.1826 54.27,31.3086 C54.2818421,31.6406 54.2798684,31.9726 54.2838158,32.3046 C54.6094737,32.3186 54.9331579,32.3386 55.2568421,32.3426 C55.7522368,32.3506 56.2476316,32.3566 56.7410526,32.3386 C56.9384211,32.3306 56.9601316,32.4066 56.9463158,32.5686 C56.9325,32.7486 57.0015789,32.9926 56.9107895,33.0946 C56.8239474,33.1886 56.5772368,33.1426 56.3996053,33.1446 C55.9871053,33.1506 55.5746053,33.1466 55.1621053,33.1466" id="Fill-40" fill="#404041"></path>
            <path d="M93.4099342,28.4318 C93.9171711,28.3898 94.3928289,28.5758 94.84875,28.8318 C95.1053289,28.9778 95.1132237,29.0038 94.9336184,29.2098 C94.81125,29.3498 94.6928289,29.4938 94.5744079,29.6358 C94.4303289,29.5438 94.2921711,29.4358 94.1401974,29.3638 C93.8599342,29.2318 93.5717763,29.1018 93.2461184,29.1338 C92.9855921,29.1598 92.6994079,29.3898 92.6263816,29.6458 C92.6165132,29.6758 92.63625,29.7178 92.6480921,29.7518 C92.7783553,30.1318 93.0882237,30.2678 93.4375658,30.3358 C93.8007237,30.4058 94.1619079,30.4918 94.4974342,30.6438 C94.6651974,30.7238 94.81125,30.8598 94.9494079,30.9858 C95.0954605,31.1198 95.1645395,31.2938 95.1586184,31.4998 C95.1467763,31.8518 95.2020395,32.2058 94.9671711,32.5258 C94.8704605,32.6558 94.7855921,32.7638 94.6454605,32.8518 C94.0198026,33.2338 93.2579605,33.2338 92.5967763,33.0078 C92.2573026,32.8918 91.9178289,32.7778 91.6711184,32.4818 C91.6000658,32.3938 91.6158553,32.3638 91.6809868,32.2998 C91.7105921,32.2718 91.6948026,32.1998 91.7224342,32.1678 C91.8191447,32.0558 91.9119079,31.9198 92.0382237,31.8558 C92.2020395,31.7718 92.2829605,31.9798 92.3855921,32.0558 C92.7467763,32.3118 93.1355921,32.4418 93.5658553,32.4378 C93.7276974,32.4358 93.9132237,32.3878 94.0474342,32.2998 C94.1717763,32.2178 94.24875,32.0558 94.3316447,31.9238 C94.3948026,31.8178 94.3809868,31.7218 94.2941447,31.6158 C94.0198026,31.2858 93.6290132,31.2118 93.2500658,31.1458 C92.7329605,31.0578 92.2829605,30.8658 91.9573026,30.4458 C91.8546711,30.3158 91.7480921,30.1598 91.7915132,29.9658 C91.8369079,29.7458 91.7263816,29.5218 91.8645395,29.2938 C91.9770395,29.1058 92.0283553,28.8418 92.2276974,28.7558 C92.5375658,28.6258 92.8040132,28.3558 93.1849342,28.4298 C93.2480921,28.4438 93.3151974,28.4318 93.4099342,28.4318" id="Fill-42" fill="#404041"></path>
            <path d="M50.5111184,31.219 C50.5111184,31.703 50.5111184,32.185 50.5091447,32.671 C50.5091447,32.819 50.5525658,33.045 50.4815132,33.095 C50.3690132,33.175 50.1736184,33.137 50.01375,33.147 C49.9486184,33.151 49.8815132,33.147 49.8144079,33.147 C49.7117763,33.145 49.7729605,33.115 49.7019079,32.965 C49.6288816,32.807 49.7394079,32.711 49.7176974,32.591 C49.6900658,32.453 49.6249342,32.319 49.6249342,32.181 C49.6150658,31.347 49.6190132,30.513 49.6190132,29.677 C49.6190132,29.645 49.6170395,29.611 49.6209868,29.579 C49.6446711,29.241 49.6446711,29.239 49.3703289,29.235 C49.1709868,29.233 48.9755921,29.239 48.77625,29.233 C48.6005921,29.229 48.4229605,29.211 48.2492763,29.199 C48.2433553,28.967 48.2354605,28.737 48.2394079,28.505 C48.2394079,28.481 48.3005921,28.449 48.3380921,28.433 C48.3676974,28.423 48.4051974,28.431 48.4367763,28.431 C49.5578289,28.431 50.6769079,28.433 51.7959868,28.429 C51.9321711,28.429 52.0150658,28.439 51.9973026,28.611 C51.9795395,28.807 51.9834868,29.007 51.9755921,29.203 C51.7841447,29.213 51.5907237,29.225 51.3973026,29.235 C51.1051974,29.249 50.8130921,29.261 50.5229605,29.271 C50.5190132,29.553 50.5130921,29.837 50.5111184,30.117 C50.5091447,30.485 50.5111184,30.851 50.5111184,31.219" id="Fill-44" fill="#404041"></path>
            <path d="M63.9742105,30.7366 C63.9742105,30.0206 63.9742105,29.3006 63.9722368,28.5846 C63.9722368,28.4866 63.9840789,28.4266 64.0985526,28.4306 C64.3432895,28.4426 64.59,28.4446 64.8347368,28.4506 C64.8426316,28.6806 64.8623684,28.9106 64.8623684,29.1386 C64.8663158,30.4086 64.8623684,31.6766 64.8663158,32.9446 C64.8663158,33.0826 64.8564474,33.1646 64.6886842,33.1506 C64.4617105,33.1306 64.2327632,33.1346 64.0057895,33.1266 C63.9939474,32.8986 63.9761842,32.6706 63.9742105,32.4406 C63.9702632,31.8726 63.9742105,31.3046 63.9742105,30.7366" id="Fill-46" fill="#404041"></path>
            <path d="M97.7313158,30.84 C97.7313158,31.542 97.7273684,32.242 97.7332895,32.944 C97.7332895,33.076 97.7273684,33.164 97.5556579,33.15 C97.3286842,33.132 97.0997368,33.134 96.8707895,33.13 C96.8609211,32.9 96.8411842,32.67 96.8411842,32.442 C96.8372368,31.172 96.8411842,29.904 96.8372368,28.634 C96.8372368,28.502 96.8431579,28.414 97.0148684,28.428 C97.2418421,28.448 97.4688158,28.444 97.6977632,28.45 C97.7076316,28.678 97.7273684,28.908 97.7293421,29.136 C97.7332895,29.706 97.7313158,30.272 97.7313158,30.84" id="Fill-48" fill="#404041"></path>
            <path d="M39.9181579,30.7366 C39.9181579,30.0206 39.9201316,29.3006 39.9161842,28.5846 C39.9161842,28.4886 39.9280263,28.4266 40.0444737,28.4306 C40.2872368,28.4426 40.5339474,28.4446 40.7786842,28.4506 C40.7885526,28.6806 40.8063158,28.9086 40.8082895,29.1386 C40.8102632,30.4066 40.8063158,31.6766 40.8122368,32.9446 C40.8122368,33.0806 40.8023684,33.1646 40.6326316,33.1506 C40.4056579,33.1306 40.1786842,33.1346 39.9497368,33.1286 C39.9398684,32.8986 39.9221053,32.6706 39.9201316,32.4406 C39.9161842,31.8726 39.9181579,31.3046 39.9181579,30.7366" id="Fill-50" fill="#404041"></path>
        </g>
    </g>
</svg>