<?xml version="1.0" encoding="UTF-8"?>
<svg width="212px" height="212px" viewBox="0 0 212 212" version="1.1" xmlns="http://www.w3.org/2000/svg" xmlns:xlink="http://www.w3.org/1999/xlink">
    <!-- Generator: Sketch 51.2 (57519) - http://www.bohemiancoding.com/sketch -->
    <title>Logos-Hover</title>
    <desc>Created with Sketch.</desc>
    <defs>
        <polygon id="path-1" points="0.426281905 0.4508 20.4405295 0.4508 20.4405295 11.7656794 0.426281905 11.7656794"></polygon>
        <polygon id="path-3" points="0 0.274648149 19.884121 0.274648149 19.884121 11.5994947 0 11.5994947"></polygon>
    </defs>
    <g id="Logos-Hover" stroke="none" stroke-width="1" fill="none" fill-rule="evenodd">
        <g id="auditboard">
            <rect id="Rectangle-Copy-2" fill="#3256F3" x="0" y="0" width="216" height="214"></rect>
            <g id="Group-3" transform="translate(39.095238, 96.949620)">
                <mask id="mask-2" fill="white">
                    <use xlink:href="#path-1"></use>
                </mask>
                <g id="Clip-2"></g>
                <path d="M0.426281905,2.79328 C1.96452952,1.40168 3.80219619,0.65688 5.85697714,0.48888 C9.16761524,0.22008 11.9163105,1.35968 14.1853676,3.75788 C16.0499962,5.72908 17.9983486,7.62188 19.916901,9.54268 C20.065901,9.69248 20.2702438,9.78768 20.4405295,9.90108 C19.2683962,11.35988 17.9032724,11.96468 16.1819676,11.70848 C15.0566629,11.33048 14.2293581,10.58008 13.4474629,9.71908 C12.6045486,8.79228 11.6509486,7.96348 10.7455962,7.09128 L10.7668819,7.09408 C10.7143771,7.05348 10.6632914,7.01428 10.6122057,6.97368 C8.85684381,4.93528 6.28269143,4.67068 4.19243429,5.77108 C4.06613905,5.60728 3.96822476,5.40988 3.81071048,5.28528 C3.24876762,4.84708 2.66837714,4.43268 2.09366286,4.00988 C1.53881524,3.60248 0.982548571,3.19788 0.426281905,2.79328" id="Fill-1" fill="#FFFFFF" mask="url(#mask-2)"></path>
            </g>
            <g id="Group-6" transform="translate(32.000000, 104.949620)">
                <mask id="mask-4" fill="white">
                    <use xlink:href="#path-3"></use>
                </mask>
                <g id="Clip-5"></g>
                <path d="M19.884121,9.28398 C18.0336829,10.91638 15.8426733,11.63458 13.390559,11.59818 C10.5127305,11.55618 8.16562571,10.37038 6.20166381,8.33898 C4.53002571,6.60998 2.81865429,4.91878 1.12714952,3.20798 C0.749682857,2.82438 0.380730476,2.42958 -0.000993333333,2.02918 C1.10444476,0.71178 2.44402571,0.04958 4.17952095,0.34358 C4.8393781,0.73698 5.58154,1.03938 6.14206381,1.54058 C7.15384476,2.43798 8.05494,3.45578 9.00854,4.41618 C9.13483524,4.54218 9.30654,4.62478 9.45695905,4.72558 L9.42148286,4.73818 C9.48534,4.78298 9.54919714,4.82918 9.61305429,4.87678 C10.0401876,5.28418 10.4190733,5.76718 10.9086448,6.08498 C12.5689305,7.16438 14.314359,7.14478 16.0824924,6.32858 C16.1747305,6.46298 16.2400067,6.63098 16.3620448,6.73038 C17.0162257,7.25958 17.6760829,7.78878 18.3572257,8.28578 C18.8482162,8.64418 19.3746829,8.95358 19.884121,9.28398" id="Fill-4" fill="#FFFFFF" mask="url(#mask-4)"></path>
            </g>
            <path d="M123.674875,105.92936 C124.446837,105.92936 125.150685,105.95456 125.851694,105.91956 C126.280247,105.89996 126.582504,105.60456 126.495942,105.19296 C126.442018,104.93396 126.149694,104.55596 125.929742,104.53076 C125.186161,104.44676 124.42839,104.49996 123.674875,104.49996 L123.674875,105.92936 Z M123.677713,107.83896 L123.677713,109.46856 C124.51779,109.46856 125.330904,109.49376 126.142599,109.45876 C126.635009,109.43916 126.921656,109.14656 126.913142,108.63276 C126.906047,108.11756 126.63359,107.84876 126.121313,107.84176 C125.325228,107.83056 124.529142,107.83896 123.677713,107.83896 Z M127.950466,106.85196 C129.115504,107.48336 129.61217,108.41996 129.385123,109.51756 C129.143885,110.68376 128.126428,111.60076 126.801037,111.64556 C124.932151,111.70856 123.059009,111.66096 121.158904,111.66096 L121.158904,102.29356 L123.943075,102.29356 L126.053199,102.29356 C127.380009,102.29496 128.396047,102.88016 128.804732,103.87696 C129.247475,104.95496 129.009075,105.81316 127.950466,106.85196 Z" id="Fill-7" fill="#FFFFFF"></path>
            <path d="M173.517504,109.2188 C174.201485,109.2188 174.847151,109.2538 175.485723,109.2104 C176.269037,109.1558 176.928894,108.8478 177.236828,108.068 C177.537666,107.3022 177.551856,106.5224 177.251018,105.751 C176.989913,105.0818 176.479056,104.6702 175.759599,104.6198 C175.024532,104.568 174.28237,104.6072 173.517504,104.6072 L173.517504,109.2188 Z M171.069647,111.5442 L171.069647,102.2314 C171.24277,102.2202 171.411637,102.1978 171.580504,102.1978 C172.891704,102.195 174.201485,102.1964 175.512685,102.1964 C177.60578,102.1978 179.179504,103.3584 179.768409,105.338 C180.411237,107.494 179.684685,109.8278 177.974732,110.8988 C177.492256,111.1998 176.909028,111.491 176.358437,111.5162 C174.608751,111.5932 172.850551,111.5442 171.069647,111.5442 Z" id="Fill-9" fill="#FFFFFF"></path>
            <path d="M92.7981019,109.20928 C93.5189781,109.20928 94.1845114,109.25548 94.8372733,109.19948 C95.8518924,109.11128 96.4280257,108.65208 96.6266924,107.73648 C96.8452257,106.72988 96.8494829,105.73448 95.95974,104.97708 C95.8164162,104.85528 95.6248448,104.73908 95.4460448,104.71948 C94.5719114,104.62848 93.693521,104.57108 92.7981019,104.49828 L92.7981019,109.20928 Z M90.3786257,102.23028 C92.0956733,102.23028 93.8027876,102.10288 95.48294,102.26108 C97.6356352,102.46548 98.968121,104.02508 99.2547686,106.34068 C99.5314829,108.58768 98.3167781,110.69048 96.348559,111.35548 C96.0902924,111.44228 95.8220924,111.54448 95.5567305,111.54728 C93.8396829,111.56408 92.1240543,111.55568 90.3786257,111.55568 L90.3786257,102.23028 Z" id="Fill-11" fill="#FFFFFF"></path>
            <path d="M137.793264,109.49502 C139.222245,109.50762 140.37735,108.38902 140.381607,106.99182 C140.385864,105.58762 139.250626,104.45082 137.832997,104.43962 C136.455102,104.42842 135.301416,105.55122 135.278711,106.92602 C135.253169,108.34002 136.371378,109.48242 137.793264,109.49502 M137.868473,102.11702 C140.656902,102.12262 142.925959,104.31362 142.907511,106.98342 C142.891902,109.66722 140.641292,111.83022 137.84435,111.85262 C135.054502,111.87362 132.745711,109.65882 132.749969,106.96242 C132.754226,104.25622 135.017607,102.11422 137.868473,102.11702" id="Fill-13" fill="#FFFFFF"></path>
            <path d="M161.393303,106.93834 C162.18655,106.93834 162.923036,106.96354 163.659522,106.92994 C164.325055,106.90054 164.718131,106.47774 164.777731,105.82114 C164.834493,105.17714 164.483989,104.60034 163.866703,104.54714 C163.046493,104.47714 162.214931,104.53034 161.393303,104.53034 L161.393303,106.93834 Z M158.946865,102.30294 C160.695131,102.30294 162.413598,102.24974 164.126389,102.31974 C165.558208,102.37854 166.683512,103.34454 167.028341,104.62554 C167.452636,106.20334 166.978674,107.69574 165.776741,108.55674 C165.636255,108.65754 165.490093,108.74854 165.302779,108.87454 C165.959798,109.78874 166.609722,110.69174 167.31357,111.66894 C166.453627,111.66894 165.678827,111.72214 164.915379,111.64374 C164.594674,111.61154 164.247008,111.35254 164.008608,111.10614 C163.663779,110.74634 163.354427,110.32914 163.123122,109.88814 C162.742817,109.16714 162.180874,109.00754 161.396141,109.20774 L161.396141,111.63674 L158.946865,111.63674 L158.946865,102.30294 Z" id="Fill-15" fill="#FFFFFF"></path>
            <path d="M77.4796248,102.19962 C77.9862248,102.19962 78.4360629,102.17022 78.8773867,102.20522 C79.5684629,102.25982 79.9657962,102.73722 79.9771486,103.53382 C79.9927581,104.74902 79.9814057,105.96422 79.9828248,107.18082 C79.9828248,107.35442 79.9757295,107.52942 79.98992,107.70162 C80.0750629,108.80902 80.7264057,109.39842 81.86732,109.40542 C83.0224248,109.41382 83.7191771,108.80202 83.7816152,107.67222 C83.8199295,107.01702 83.7929676,106.36042 83.7929676,105.70522 L83.7929676,102.19682 C84.2910533,102.19682 84.7366343,102.17162 85.1793771,102.20382 C85.7966629,102.24722 86.2521771,102.73722 86.2578533,103.36162 C86.2677867,104.84842 86.2919105,106.33382 86.2535962,107.81922 C86.18832,110.30702 84.0838724,111.98002 81.3947771,111.72662 C79.0391581,111.50402 77.6144343,110.05642 77.4966533,107.60502 C77.4115105,105.83682 77.4796248,104.05882 77.4796248,102.19962" id="Fill-17" fill="#FFFFFF"></path>
            <path d="M150.331969,105.42074 C149.982883,106.33774 149.683464,107.12594 149.367016,107.95754 L151.306854,107.95754 C150.987569,107.13014 150.68673,106.34474 150.331969,105.42074 M155.359654,111.57654 C154.678511,111.57654 154.073997,111.58914 153.469483,111.57514 C152.889092,111.55974 152.517302,111.23494 152.368302,110.70154 C152.259035,110.31374 152.049016,110.20874 151.654521,110.22274 C150.736397,110.25214 149.816854,110.21154 148.90015,110.24794 C148.712835,110.25494 148.434702,110.44114 148.372264,110.60634 C148.102645,111.32874 147.614492,111.63254 146.846788,111.58634 C146.345864,111.55694 145.842102,111.58074 145.273064,111.58074 C145.985426,109.84334 146.673664,108.17454 147.359064,106.50434 C147.777683,105.49074 148.194883,104.47574 148.614921,103.46354 C148.955492,102.63894 149.545816,102.18674 150.319197,102.20074 C151.177721,102.21614 151.721216,102.66134 152.040502,103.44114 C153.104788,106.04094 154.186102,108.63514 155.258902,111.23074 C155.294378,111.31754 155.311407,111.40994 155.359654,111.57654" id="Fill-19" fill="#FFFFFF"></path>
            <path d="M69.4282324,105.41528 C69.0819848,106.33228 68.7811467,107.13168 68.46328,107.97308 L70.4059562,107.97308 C70.0880895,107.13868 69.7815752,106.33788 69.4282324,105.41528 M74.4459848,111.57808 C73.7761943,111.57808 73.17168,111.59208 72.5671657,111.57388 C71.9881943,111.55988 71.6164038,111.23508 71.4674038,110.70028 C71.3567181,110.31108 71.1424419,110.20888 70.7493657,110.22288 C69.8496895,110.25228 68.9485943,110.23968 68.0489181,110.22708 C67.7438229,110.22288 67.53948,110.26768 67.4401467,110.60788 C67.2244514,111.34288 66.6994038,111.64108 65.9274419,111.58648 C65.4421276,111.55428 64.9539752,111.58088 64.4147371,111.58088 C64.4615657,111.41708 64.4871086,111.29388 64.5339371,111.17908 C65.5968038,108.59468 66.6639276,106.01308 67.7239562,103.42868 C68.0318895,102.67968 68.5668705,102.21908 69.3998514,102.20368 C70.2044514,102.18968 70.7834229,102.58728 71.0885181,103.31948 C72.1911181,105.96968 73.2809467,108.62548 74.3736133,111.27988 C74.4019943,111.34848 74.4105086,111.42548 74.4459848,111.57808" id="Fill-21" fill="#FFFFFF"></path>
            <path d="M109.171215,102.29538 C111.664482,102.29538 114.086796,102.28418 116.50911,102.30378 C117.059701,102.30798 117.489672,102.75458 117.53792,103.31318 C117.573396,103.73038 117.543596,104.15458 117.543596,104.62218 L114.635968,104.62218 L114.635968,111.65438 L112.111482,111.65438 L112.111482,104.63198 C111.50413,104.63198 110.960634,104.63758 110.417139,104.63058 C109.672139,104.61938 109.20811,104.18818 109.174053,103.46158 C109.157025,103.09898 109.171215,102.73358 109.171215,102.29538" id="Fill-23" fill="#FFFFFF"></path>
            <path d="M103.047457,102.31036 L105.510924,102.31036 L105.510924,111.67216 C104.812752,111.67216 104.081943,111.68896 103.351133,111.65536 C103.243286,111.64976 103.061648,111.40196 103.060229,111.26476 C103.0432,108.29816 103.047457,105.33016 103.047457,102.31036" id="Fill-25" fill="#FFFFFF"></path>
            <path d="M51.884121,114.2336 C51.3746829,113.9032 50.8482162,113.5938 50.3572257,113.2354 C49.6760829,112.7384 49.0162257,112.2092 48.3620448,111.68 C48.2400067,111.5806 48.1747305,111.4126 48.0824924,111.2782 C48.400359,111.057 48.7182257,110.8358 49.0346733,110.6146 C49.0942733,110.7056 49.1354257,110.8232 49.2163114,110.8862 C50.3629019,111.7696 51.5137495,112.6446 52.6645971,113.5224 C52.4034924,113.759 52.1452257,113.997 51.884121,114.2336" id="Fill-27" fill="#FFFFFF"></path>
            <path d="M39.52152,99.7429 C40.0777867,100.1475 40.6340533,100.5521 41.188901,100.9595 C41.7636152,101.3823 42.3440057,101.7967 42.9059486,102.2349 C43.0634629,102.3595 43.1613771,102.5569 43.2876724,102.7207 C42.9811581,102.9391 42.6746438,103.1575 42.3667105,103.3773 C41.8047676,102.9125 41.2584343,102.4295 40.6780438,101.9871 C40.0238629,101.4859 39.341301,101.0225 38.6700914,100.5409 C38.953901,100.2763 39.2377105,100.0089 39.52152,99.7429" id="Fill-29" fill="#FFFFFF"></path>
            <path d="M49.8414019,104.04132 C50.7467543,104.91352 51.7003543,105.74232 52.5418495,106.66912 C53.3237448,107.53012 54.1510495,108.27912 55.2763543,108.65852 C55.1912114,108.93012 55.1060686,109.20312 55.0195067,109.47612 C54.9003067,109.41732 54.7683352,109.37812 54.6647448,109.29972 C53.6643162,108.54652 52.67524,107.78072 51.6677162,107.03732 C51.3668781,106.81332 51.0220495,106.65232 50.6985067,106.46332 C50.411859,105.65552 50.1266305,104.84912 49.8414019,104.04132" id="Fill-31" fill="#FFFFFF"></path>
            <path d="M41.4573848,109.67548 C41.3069657,109.57468 41.1338419,109.49208 41.0089657,109.36608 C40.0553657,108.40568 39.1542705,107.38788 38.1424895,106.49048 C37.5819657,105.98928 36.8398038,105.68548 36.1785276,105.29348 C36.248061,105.02888 36.3190133,104.76148 36.3885467,104.49688 C36.5630895,104.56688 36.7589181,104.60468 36.90508,104.71108 C37.6954895,105.29068 38.4631943,105.90108 39.2564419,106.47368 C39.7147943,106.80408 40.2100419,107.08688 40.6868419,107.39208 C40.9451086,108.15368 41.2005371,108.91388 41.4573848,109.67548" id="Fill-33" fill="#FFFFFF"></path>
            <path d="M52.6643133,113.52268 C51.5134657,112.64488 50.3626181,111.76988 49.2160276,110.88648 C49.1351419,110.82348 49.0939895,110.70588 49.0343895,110.61488 C49.22738,110.41468 49.4203705,110.21728 49.613361,110.01848 C50.2136181,110.49868 50.8167133,110.97468 51.4141324,111.45768 C52.0101324,111.93928 52.6004562,112.42788 53.192199,112.91228 C53.0162371,113.11668 52.8402752,113.31968 52.6643133,113.52268" id="Fill-35" fill="#FFFFFF"></path>
            <path d="M53.192341,112.91298 C52.6005981,112.42718 52.0102743,111.93998 51.4142743,111.45838 C50.8168552,110.97398 50.21376,110.49798 49.6135029,110.01918 C49.7639219,109.79518 49.9129219,109.57258 50.06476,109.34998 C50.6224457,109.75738 51.1744552,110.17318 51.7406552,110.57078 C52.4430838,111.06498 53.1568648,111.54238 53.8649695,112.02678 C53.639341,112.32218 53.4165505,112.61758 53.192341,112.91298" id="Fill-37" fill="#FFFFFF"></path>
            <path d="M38.670659,100.54132 C39.3418686,101.02292 40.0244305,101.48632 40.6786114,101.98612 C41.2575829,102.42992 41.8053352,102.91152 42.365859,103.37632 C42.1884781,103.56672 42.0110971,103.75572 41.8322971,103.94612 C41.1667638,103.46312 40.4827829,103.00252 39.8399543,102.49292 C39.2765924,102.04492 38.757221,101.54372 38.2179829,101.06492 C38.3684019,100.89132 38.52024,100.71632 38.670659,100.54132" id="Fill-39" fill="#FFFFFF"></path>
            <path d="M38.2174152,101.06492 C38.7566533,101.54372 39.2760248,102.04492 39.8408057,102.49292 C40.4836343,103.00252 41.1661962,103.46312 41.8317295,103.94612 C41.6543486,104.20932 41.4769676,104.47392 41.2995867,104.73852 C40.7589295,104.30312 40.2338819,103.84952 39.6776152,103.43652 C38.983701,102.92272 38.2642438,102.44252 37.5575581,101.94832 C37.7760914,101.65432 37.9974629,101.36032 38.2174152,101.06492" id="Fill-41" fill="#FFFFFF"></path>
            <path d="M37.5578419,101.94818 C38.2645276,102.44378 38.9839848,102.92258 39.677899,103.43638 C40.2341657,103.84938 40.7592133,104.30298 41.2998705,104.73838 C41.2019562,104.97218 41.10688,105.20738 41.0103848,105.44118 C39.7318229,104.50038 38.453261,103.55818 37.17328,102.61878 C37.3009943,102.39478 37.4301276,102.17078 37.5578419,101.94818" id="Fill-43" fill="#FFFFFF"></path>
            <path d="M53.8644019,112.02706 C53.1562971,111.54126 52.4425162,111.06526 51.7400876,110.57106 C51.1738876,110.17346 50.6232971,109.75766 50.0641924,109.35026 C50.170621,109.11506 50.2770495,108.87986 50.3834781,108.64606 C50.5069352,108.69366 50.647421,108.72026 50.7495924,108.79586 C51.9061162,109.67646 53.0583829,110.56406 54.2106495,111.45026 C54.0957067,111.64206 53.9793448,111.83386 53.8644019,112.02706" id="Fill-45" fill="#FFFFFF"></path>
            <path d="M54.2107914,111.45012 C53.0585248,110.56392 51.9062581,109.67632 50.7497343,108.79572 C50.6475629,108.72012 50.5070771,108.69352 50.38362,108.64592 C50.4602486,108.37572 50.5382962,108.10552 50.6149248,107.83532 C50.7071629,107.86192 50.8192676,107.86192 50.888801,107.91512 C51.6678581,108.50732 52.4284676,109.12332 53.216039,109.70432 C53.6701343,110.04032 54.1639629,110.32452 54.6393438,110.63252 C54.49602,110.90412 54.3541152,111.17712 54.2107914,111.45012" id="Fill-47" fill="#FFFFFF"></path>
            <path d="M37.1739895,102.61808 C38.4525514,103.55888 39.7325324,104.50108 41.0096752,105.44188 C40.944399,105.67708 40.8777038,105.91368 40.8124276,106.14748 C39.9127514,105.49648 39.0017229,104.85808 38.1148181,104.18748 C37.6919419,103.86828 37.3144752,103.49028 36.9157229,103.13888 L37.1739895,102.61808 Z" id="Fill-49" fill="#FFFFFF"></path>
            <path d="M54.63906,110.63252 C54.163679,110.32452 53.6698505,110.04032 53.2157552,109.70432 C52.4281838,109.12332 51.6675743,108.50732 50.8885171,107.91512 C50.8204029,107.86192 50.706879,107.86192 50.614641,107.83532 L50.706879,107.15912 C50.8331743,107.19552 50.9850124,107.20112 51.0829267,107.27532 C51.9641552,107.93332 52.8255171,108.62072 53.71526,109.26612 C54.0799552,109.53072 54.5028314,109.71692 54.9001648,109.93952 C54.8121838,110.17052 54.7256219,110.40152 54.63906,110.63252" id="Fill-51" fill="#FFFFFF"></path>
            <path d="M36.9161486,103.13888 C37.3134819,103.49028 37.6923676,103.86828 38.1152438,104.18748 C39.0021486,104.85808 39.9117581,105.49648 40.8128533,106.14748 L40.6879771,106.81248 C40.0905581,106.39108 39.4945581,105.96968 38.897139,105.54828 C38.1294343,105.00368 37.3617295,104.45908 36.5926057,103.91448 C36.7018724,103.65548 36.808301,103.39788 36.9161486,103.13888" id="Fill-53" fill="#FFFFFF"></path>
            <path d="M54.8995971,109.93938 C54.5036829,109.71678 54.0808067,109.53058 53.7146924,109.26738 C52.8249495,108.62058 51.9650067,107.93318 51.0837781,107.27518 C50.9844448,107.20098 50.8340257,107.19538 50.7063114,107.15898 C50.7034733,106.92658 50.7006352,106.69558 50.6977971,106.46458 C51.022759,106.65218 51.3675876,106.81458 51.6684257,107.03718 C52.6759495,107.78058 53.6650257,108.54638 54.6654543,109.29958 C54.7676257,109.37798 54.9010162,109.41718 55.0202162,109.47598 L54.8995971,109.93938 Z" id="Fill-55" fill="#FFFFFF"></path>
            <path d="M36.5933152,103.9142 C37.362439,104.4602 38.1301438,105.0034 38.8978486,105.548 C39.4952676,105.9708 40.0912676,106.3922 40.6886867,106.8122 C40.6872676,107.0054 40.6872676,107.1986 40.6872676,107.3918 C40.2104676,107.088 39.71522,106.8038 39.2568676,106.4734 C38.462201,105.9008 37.6944962,105.2904 36.9055057,104.7108 C36.7593438,104.6044 36.5635152,104.5666 36.3875533,104.4966 C36.4570867,104.302 36.525201,104.1088 36.5933152,103.9142" id="Fill-57" fill="#FFFFFF"></path>
            <path d="M49.8622619,104.04398 C49.8097571,104.00338 49.7586714,103.96278 49.7075857,103.92358 C49.7586714,103.96278 49.8097571,104.00338 49.8622619,104.04398" id="Fill-59" fill="#FFFFFF"></path>
            <path d="M41.4214829,109.6878 C41.48534,109.7326 41.5491971,109.7788 41.6130543,109.8264 C41.5491971,109.7788 41.48534,109.7326 41.4214829,109.6878" id="Fill-61" fill="#FFFFFF"></path>
        </g>
    </g>
</svg>