<?xml version="1.0" encoding="UTF-8"?>
<svg width="212px" height="212px" viewBox="0 0 212 212" version="1.1" xmlns="http://www.w3.org/2000/svg" xmlns:xlink="http://www.w3.org/1999/xlink">
    <!-- Generator: Sketch 51.2 (57519) - http://www.bohemiancoding.com/sketch -->
    <title>Logos</title>
    <desc>Created with Sketch.</desc>
    <defs>
        <polygon id="path-1" points="0.211776923 0.2442 42.1712308 0.2442 42.1712308 35.52 0.211776923 35.52"></polygon>
    </defs>
    <g id="Logos" stroke="none" stroke-width="1" fill="none" fill-rule="evenodd">
        <g id="bridg" transform="translate(68.000000, 88.000000)">
            <g id="Group">
                <g id="Group-3" transform="translate(33.615385, 0.236096)">
                    <mask id="mask-2" fill="white">
                        <use xlink:href="#path-1"></use>
                    </mask>
                    <g id="Clip-2"></g>
                    <path d="M28.2703923,16.841068 C28.3098538,17.415308 28.3332385,17.989548 28.3975462,18.562308 C28.4881615,19.374828 28.6752385,20.165148 29.0537769,20.896268 C29.5492385,21.858268 30.3004692,22.472468 31.3673923,22.673748 C31.9578538,22.786228 32.5541615,22.830628 33.1490077,22.775868 C34.0010846,22.695948 34.7596231,22.385148 35.3880846,21.776868 C36.0019308,21.181908 36.3863154,20.453748 36.6113923,19.633828 C37.0235462,18.137548 37.1083154,16.619068 36.8963923,15.084308 C36.7327,13.881068 36.3190846,12.775508 35.6058538,11.791308 C35.1206231,11.125308 34.4804692,10.702028 33.6810077,10.521468 C33.0554692,10.382348 32.4284692,10.389748 31.8000077,10.490388 C30.6293154,10.676868 29.7304692,11.254068 29.2072385,12.364068 C28.5393154,13.780428 28.2791615,15.279668 28.2703923,16.841068 M24.0626231,11.043908 C24.1064692,10.952148 24.1517769,10.863348 24.1927,10.770108 C24.6793923,9.670468 25.2947,8.659628 26.1891615,7.845628 C27.2648538,6.867348 28.5466231,6.321228 29.9526231,6.079988 C32.5643923,5.637468 35.0957769,5.903868 37.5131615,7.041988 C38.3637769,7.441588 39.1910077,7.891508 39.8867,8.542708 C40.8571615,9.446988 41.4300846,10.585108 41.7677,11.859388 C42.0117769,12.771068 42.1462385,13.703468 42.1506231,14.647708 C42.1652385,18.593388 42.1769308,22.537588 42.1696231,26.483268 C42.1667,27.658388 42.0190846,28.821668 41.6756231,29.952388 C41.1275462,31.749108 40.0357769,33.066308 38.3857,33.951348 C36.2533154,35.095388 33.9952385,35.617828 31.5924692,35.505348 C30.2025462,35.440228 28.8550077,35.167908 27.6053923,34.509308 C25.9041615,33.616868 24.7846231,32.201988 24.0801615,30.428948 C23.8857769,29.943508 23.7381615,29.438828 23.5598538,28.910468 C23.6753154,28.904548 23.7425462,28.898628 23.8083154,28.898628 C25.5168538,28.898628 27.2253923,28.900108 28.9339308,28.895668 C29.0873923,28.895668 29.1663154,28.945988 29.2481615,29.071788 C30.3618538,30.784148 32.7368538,31.456068 34.4278538,30.516268 C35.7096231,29.805868 36.4550077,28.681068 36.7794692,27.249908 C36.9884692,26.330828 37.0118538,25.398428 36.9913923,24.463068 C36.9899308,24.445308 36.9782385,24.427548 36.9621615,24.386108 C36.9037,24.464548 36.8554692,24.528188 36.8101615,24.593308 C35.7637,26.091068 34.3416231,26.959828 32.5439308,27.153708 C29.5770077,27.473388 27.2020077,26.360428 25.3473154,24.033868 C24.6793923,23.196188 24.1532385,22.275628 23.8083154,21.252948 C23.7922385,21.202628 23.7673923,21.155268 23.7220846,21.051668 C23.6723923,21.232228 23.6358538,21.360988 23.5993154,21.489748 C23.1769308,23.000828 22.4344692,24.297308 21.1147,25.186788 C20.3430077,25.706268 19.5128538,26.111788 18.6447,26.440348 C16.9376231,27.091548 15.1662385,27.349068 13.3524692,27.229188 C11.7608538,27.122628 10.2101615,26.794068 8.83193077,25.937148 C7.61008462,25.176428 6.64546923,24.125628 5.8197,22.944588 C5.73931538,22.829148 5.66039231,22.715188 5.58000769,22.601228 C5.57416154,22.593828 5.55516154,22.595308 5.51862308,22.586428 L5.51862308,26.850308 L0.211776923,26.850308 L0.211776923,7.043468 C0.5187,7.170748 0.813930769,7.284708 1.10331538,7.414948 C2.84546923,8.194908 4.15062308,9.466228 5.13277692,11.101628 C5.76562308,12.153908 6.2567,13.277228 6.76823846,14.391668 C7.82931538,16.706388 9.1447,18.856828 10.8868538,20.715708 C11.5357769,21.406868 12.2519308,22.022548 13.1171615,22.423628 C15.0361615,23.320508 17.1963154,22.521308 18.1083154,20.586948 C18.4927,19.772948 18.7060846,18.907148 18.7674692,18.014708 C18.8259308,17.188868 18.8478538,16.357108 18.8098538,15.531268 C18.7572385,14.382788 18.4912385,13.277228 17.8671615,12.295988 C17.2021615,11.249628 16.2273154,10.681308 15.0171615,10.533308 C13.9063923,10.398628 12.8687,10.596948 11.9932385,11.351748 C11.2653923,11.979268 10.7991615,12.785868 10.5156231,13.703468 C10.2116231,14.678788 10.1341615,15.685188 10.1429308,16.700468 C10.1429308,16.762628 10.1458538,16.826268 10.1458538,16.889908 C10.1458538,16.901748 10.1370846,16.915068 10.1210077,16.959468 C10.0683923,16.875108 10.0201615,16.809988 9.98654615,16.740428 C9.51446923,15.739948 9.0307,14.743908 8.57908462,13.734548 C7.99593077,12.429188 7.41423846,11.123828 6.66154615,9.904308 C6.62500769,9.845108 6.62646923,9.722268 6.66446923,9.663068 C7.83954615,7.768668 9.4107,6.405588 11.6468538,6.011908 C13.2165462,5.733668 14.7672385,5.837268 16.2200077,6.563948 C17.2167769,7.062708 17.9987,7.826388 18.6432385,8.738068 C18.6900077,8.807628 18.7397,8.875708 18.7893923,8.943788 C18.7967,8.954148 18.8098538,8.960068 18.8493154,8.983748 L18.8493154,0.254708 C18.9472385,0.250268 19.0217769,0.244348 19.0963154,0.244348 C19.8870077,0.244348 20.6791615,0.242868 21.4713154,0.244348 C22.8334692,0.247308 24.0202385,1.453508 24.0202385,2.837308 C24.0187769,5.487988 24.0187769,8.140148 24.0187769,10.792308 C24.0173154,10.872228 24.0187769,10.952148 24.0187769,11.033548 C24.0333923,11.036508 24.0480077,11.040948 24.0626231,11.043908" id="Fill-1" fill="#404041" mask="url(#mask-2)"></path>
                </g>
                <path d="M5.17121538,10.814544 C5.24283077,10.818984 5.2896,10.823424 5.33783077,10.823424 C7.43513846,10.823424 9.53098462,10.838224 11.6268308,10.813064 C12.1617538,10.807144 12.7054462,10.722784 13.2286769,10.598464 C14.0296,10.409024 14.6609846,9.962064 14.9664462,9.146584 C15.1637538,8.625624 15.1886,8.083944 15.1432923,7.528944 C15.0599846,6.484064 14.4344462,5.692264 13.4376769,5.406624 C12.6893692,5.190544 11.9176769,5.171304 11.1503692,5.166864 C9.24013846,5.153544 7.33283077,5.162424 5.4226,5.162424 C5.34221538,5.163904 5.26183077,5.169824 5.17121538,5.172784 L5.17121538,10.814544 Z M0.000292307692,27.098984 L0.000292307692,26.788184 L0.000292307692,3.305024 C0.000292307692,1.802824 1.11983077,0.618824 2.59890769,0.565544 C3.18206154,0.546304 3.76667692,0.556664 4.34983077,0.556664 L12.3298308,0.556664 C13.6890615,0.556664 15.0292923,0.685424 16.3329846,1.110184 C18.7796,1.906424 20.2060615,3.587704 20.5685231,6.162904 C20.7161385,7.200384 20.6693692,8.239344 20.3975231,9.257584 C19.9956,10.765704 19.0558308,11.831304 17.7375231,12.587584 C17.6542154,12.634944 17.5723692,12.683784 17.4729846,12.741504 C17.9114462,12.978304 18.3294462,13.204744 18.7722923,13.444504 C17.9582154,15.263424 17.2873692,17.128224 15.9544462,18.665944 C15.8959846,18.306304 15.8667538,17.985144 15.7922154,17.675824 C15.5393692,16.642784 14.9065231,15.966424 13.8936769,15.660064 C13.2359846,15.463224 12.5607538,15.375904 11.8811385,15.371464 C9.70052308,15.359624 7.51844615,15.367024 5.33783077,15.367024 C5.2896,15.367024 5.24283077,15.372944 5.17413846,15.377384 C5.16975385,15.449904 5.16098462,15.517984 5.16098462,15.584584 C5.16098462,17.757224 5.16390769,19.931344 5.1566,22.103984 C5.15513846,22.296384 5.21506154,22.336344 5.39336923,22.336344 C7.49798462,22.330424 9.6026,22.349664 11.7072154,22.327464 C13.3543692,22.311184 14.9138308,21.958944 16.2745231,20.946624 C17.3341385,20.154824 18.1423692,19.133624 18.7489077,17.968864 C19.3656769,16.783384 19.9152154,15.562384 20.4720615,14.347304 C21.0493692,13.084864 21.6252154,11.823904 22.4173692,10.676904 C23.8306769,8.627104 25.7949846,7.454944 28.1743692,6.939904 C29.2836769,6.700144 30.4046769,6.667584 31.5300615,6.772664 C31.6645231,6.784504 31.7434462,6.814104 31.7434462,6.981344 C31.7376,8.670024 31.7405231,10.357224 31.7390615,12.044424 C31.7390615,12.091784 31.7273692,12.139144 31.7215231,12.180584 C31.3181385,12.139144 30.9279077,12.078464 30.5347538,12.065144 C28.6727538,12.001504 26.8677538,12.886544 26.3401385,15.087304 C26.2290615,15.552024 26.1749846,16.043384 26.1720615,16.522904 C26.1574462,19.956504 26.1647538,23.388624 26.1647538,26.820744 L26.1647538,27.084184 L20.8491385,27.084184 L20.8491385,23.310184 C20.7819077,23.367904 20.7424462,23.393064 20.7146769,23.425624 C19.0470615,25.444344 16.9205231,26.610584 14.3467538,26.930264 C13.6057538,27.022024 12.8559846,27.088624 12.1091385,27.091584 C8.17175385,27.107864 4.23144615,27.098984 0.294061538,27.098984 L0.000292307692,27.098984 Z" id="Fill-4" fill="#404041"></path>
            </g>
            <path d="M36.5075546,0.00294667021 C37.2659973,0.00294667021 38.0230659,0.0071408204 38.7787606,0.00015057009 C38.9353954,-0.00264553003 38.995851,0.0323057215 38.994477,0.205663929 C38.9903551,1.40099673 38.993103,2.59632954 38.999973,3.79306039 C39.001347,3.95104005 38.9505093,4.00136985 38.7993704,3.9999718 C37.2577533,3.99018545 35.7175102,3.9831952 34.1772671,3.97900105 C34.0384941,3.977603 34.0000224,3.92867124 34.0013964,3.79026429 C34.0055184,2.58933929 34.0068923,1.38561818 34.0000224,0.183295128 C33.9986484,0.0239174211 34.060478,-0.00124747997 34.195129,0.00015057009 C34.9673115,0.00574277034 35.7367461,0.00294667021 36.5075546,0.00294667021" id="Fill-6" fill="#404041"></path>
        </g>
    </g>
</svg>