<?xml version="1.0" encoding="UTF-8"?>
<svg width="212px" height="212px" viewBox="0 0 212 212" version="1.1" xmlns="http://www.w3.org/2000/svg" xmlns:xlink="http://www.w3.org/1999/xlink">
    <!-- Generator: Sketch 51.2 (57519) - http://www.bohemiancoding.com/sketch -->
    <title>Logos</title>
    <desc>Created with Sketch.</desc>
    <defs>
        <polygon id="path-1" points="0 0.775042888 20.054278 0.775042888 20.054278 23.4375 0 23.4375"></polygon>
    </defs>
    <g id="Logos" stroke="none" stroke-width="1" fill="none" fill-rule="evenodd">
        <g id="clutter" transform="translate(56.000000, 94.000000)">
            <path d="M49.6821875,19.7801562 C49.6571875,19.4910937 49.6103125,19.2051562 49.6103125,18.9160937 C49.6040625,16.6082812 49.5915625,14.2989062 49.6165625,11.9926562 C49.6228125,11.4223437 49.4446875,11.2379687 48.868125,11.2442187 C47.343125,11.2645312 47.343125,11.2395312 47.343125,9.70046875 C47.343125,7.92703125 47.343125,7.92859375 49.093125,7.91140625 C49.280625,7.90984375 49.4665625,7.89890625 49.6540625,7.89109375 C49.7103125,7.63484375 49.8103125,7.37859375 49.815,7.11921875 C49.8321875,6.04109375 49.8196875,4.96140625 49.8196875,3.88171875 C51.09,3.68328125 52.361875,3.48484375 53.63375,3.28796875 C54.0821875,3.21921875 54.0884375,3.52390625 54.0884375,3.83328125 C54.0884375,4.97703125 54.1071875,6.12234375 54.0821875,7.26453125 C54.074375,7.74578125 54.23375,7.92546875 54.7275,7.92078125 C56.6196875,7.89890625 58.5134375,7.90046875 60.405625,7.91921875 C60.886875,7.92546875 61.0759375,7.77234375 61.0603125,7.27703125 C61.0321875,6.36296875 61.080625,5.44578125 61.043125,4.53171875 C61.018125,3.98953125 61.2384375,3.81296875 61.7478125,3.75671875 C62.780625,3.64265625 63.8103125,3.49421875 64.8321875,3.30828125 C65.4103125,3.20359375 65.5696875,3.39578125 65.549375,3.94734375 C65.5165625,4.86140625 65.5353125,5.77859375 65.5415625,6.69421875 C65.5525,8.03953125 65.3946875,7.90515625 66.7290625,7.91140625 C68.0196875,7.91765625 69.3103125,7.90828125 70.599375,7.91453125 C71.355625,7.91921875 71.4103125,8.01765625 71.0821875,8.71609375 C70.765,9.39421875 70.4259375,10.0629687 70.1290625,10.7504687 C69.9665625,11.1254687 69.74,11.2770312 69.32125,11.2660937 C68.2821875,11.2379687 67.2415625,11.2723437 66.2025,11.2504687 C65.743125,11.2410937 65.5275,11.3535937 65.5321875,11.8723437 C65.5540625,14.3692187 65.53375,16.8660937 65.5478125,19.3614062 C65.5540625,20.4645312 66.08375,20.9395312 67.1728125,20.7739062 C67.8040625,20.6770312 68.4196875,20.4629687 69.0259375,20.2504687 C69.34625,20.1379687 69.518125,20.1739062 69.665,20.4879687 C70.1040625,21.4301562 70.561875,22.3614062 71.011875,23.2957812 C70.9696875,23.3629687 70.9478125,23.4395312 70.9009375,23.4598437 C68.9009375,24.3692187 66.830625,24.9332812 64.611875,24.5957812 C62.886875,24.3332812 61.79625,23.3035937 61.368125,21.6348437 C61.1775,20.8973437 61.080625,20.1176562 61.068125,19.3567187 C61.0321875,16.9020312 61.04,14.4473437 61.0634375,11.9926562 C61.068125,11.4285937 60.9071875,11.2348437 60.3259375,11.2457812 C58.4759375,11.2785937 56.6228125,11.2723437 54.7728125,11.2489062 C54.2696875,11.2426562 54.0775,11.3879687 54.080625,11.9160937 C54.1040625,14.3489062 54.0790625,16.7832812 54.09625,19.2176562 C54.105625,20.4910937 54.6696875,20.9817187 55.9134375,20.7489062 C56.58375,20.6254687 57.2353125,20.3864062 57.8775,20.1489062 C58.25875,20.0082812 58.4790625,20.0348437 58.65875,20.4348437 C59.024375,21.2504687 59.4446875,22.0410937 59.8040625,22.8614062 C59.8665625,23.0020312 59.7884375,23.3504687 59.6853125,23.3942187 C57.8196875,24.1926562 55.9009375,24.7973437 53.8321875,24.6801562 C51.1603125,24.5270312 49.7696875,22.7426562 49.699375,20.0020312 C49.74,19.7379687 49.8165625,19.4754687 49.8165625,19.2129687 C49.8259375,16.8239062 49.8228125,14.4379687 49.82125,12.0504687 C49.82125,11.8864062 49.8025,11.7239062 49.793125,11.5598437 C49.7571875,11.5629687 49.718125,11.5660937 49.6821875,11.5676562 L49.6821875,19.7801562 Z" id="Fill-1" fill="#404041"></path>
            <g id="Group-5" transform="translate(0.000000, 1.304844)">
                <mask id="mask-2" fill="white">
                    <use xlink:href="#path-1"></use>
                </mask>
                <g id="Clip-4"></g>
                <path d="M18.1910937,16.133125 C18.8239062,17.1096875 19.4520312,18.0378125 20.0270312,18.9971875 C20.1067187,19.13 19.9989062,19.4753125 19.8676562,19.6190625 C17.3051562,22.445625 14.0926562,23.73625 10.3098437,23.38 C4.16765625,22.79875 -0.27296875,17.5971875 0.01296875,11.455 C0.27703125,5.7971875 4.77390625,1.23 10.4410937,0.8128125 C12.9957812,0.626875 15.3723437,1.1159375 17.5129687,2.53625 C18.0535937,2.8940625 18.5410937,3.3940625 18.9160937,3.9253125 C19.6504687,4.958125 19.5832812,6.2675 18.8582812,7.2565625 C18.1067187,8.2815625 16.7535937,8.7128125 15.4489062,8.3425 C14.2739062,8.0096875 13.4301562,7.0534375 13.3739062,5.814375 C13.3457812,5.17375 13.0879687,5.020625 12.5239062,4.976875 C8.56765625,4.6815625 5.19265625,7.4425 4.78015625,11.3378125 C4.38640625,15.06125 7.14890625,18.51125 10.9785937,19.033125 C13.2754687,19.3471875 15.2223437,18.4878125 16.9910937,17.1175 C17.3832812,16.8159375 17.7582812,16.4909375 18.1910937,16.133125" id="Fill-3" fill="#404041" mask="url(#mask-2)"></path>
            </g>
            <path d="M40.8245313,8.0034375 C42.1714063,7.976875 43.5182813,7.9409375 44.8635938,7.939375 C44.9776563,7.939375 45.1292188,8.1440625 45.1964063,8.2846875 C45.2526563,8.405 45.2167188,8.570625 45.2167188,8.7159375 C45.2167188,13.6675 45.2073438,18.6175 45.2276563,23.5690625 C45.2307813,24.176875 45.0901563,24.4253125 44.4339063,24.3909375 C43.3964063,24.33625 42.3542188,24.36125 41.3135938,24.383125 C40.8870313,24.3925 40.7026563,24.2471875 40.7276563,23.81125 C40.7479688,23.4065625 40.7307813,23.001875 40.7307813,22.4721875 C40.4182813,22.6471875 40.2432813,22.7425 40.0714063,22.8440625 C38.3729688,23.8565625 36.5917188,24.639375 34.5745313,24.6909375 C32.7135938,24.7378125 30.9901563,24.358125 30.0823438,22.5253125 C29.7073438,21.770625 29.4839063,20.86125 29.4698438,20.014375 C29.4042188,16.1878125 29.4448438,12.36125 29.4276563,8.533125 C29.4245313,8.0221875 29.6417188,7.89875 30.1026563,7.9065625 C31.1620313,7.9284375 32.2245313,7.93625 33.2854688,7.905 C33.8042188,7.889375 33.9651563,8.0721875 33.9620313,8.5846875 C33.9464063,11.8721875 33.9510938,15.158125 33.9589063,18.445625 C33.9604688,18.8784375 33.9854688,19.32375 34.0854688,19.7425 C34.3042188,20.6565625 34.8823438,21.1128125 35.8229688,21.1534375 C37.6667188,21.233125 39.1479688,20.3628125 40.5182813,19.2721875 C40.6901563,19.133125 40.7198438,18.745625 40.7214063,18.4721875 C40.7339063,15.24875 40.7276563,12.02375 40.7339063,8.8003125 C40.7339063,8.5346875 40.7917188,8.270625 40.8245313,8.005 L40.8245313,18.8175 C40.9526563,15.370625 40.9542188,11.9253125 40.9479688,8.48 C40.9464063,8.320625 40.8667188,8.1628125 40.8245313,8.0034375" id="Fill-6" fill="#404041"></path>
            <path d="M75.9746875,14.7310938 C78.085625,14.7310938 80.1590625,14.7295313 82.2325,14.7342188 C82.654375,14.7357813 82.67625,14.4732813 82.67625,14.1529688 C82.6715625,11.7904688 80.8746875,10.4014063 78.5075,10.9357813 C76.9684375,11.2857813 75.7309375,13.0920313 75.9746875,14.7310938 M84.8059375,19.2217188 C85.316875,20.0545313 85.77,20.8217188 86.25125,21.5732813 C86.4871875,21.9389063 86.2278125,22.1029688 86.0153125,22.2920313 C84.5215625,23.6185938 82.7653125,24.4185938 80.791875,24.5904688 C79.4809375,24.7029688 78.1153125,24.7295313 76.8325,24.4904688 C74.1325,23.9842188 72.3715625,22.2842188 71.545,19.6639063 C70.8590625,17.4857813 70.835625,15.2779688 71.4746875,13.0857813 C72.373125,10.0123438 74.4809375,8.29515625 77.6028125,7.78109375 C78.9715625,7.55609375 80.33875,7.61078125 81.691875,7.92015625 C84.604375,8.58421875 86.5184375,10.7467188 86.7684375,13.7310938 C86.8434375,14.6154688 86.7653125,15.5139063 86.75125,16.4045313 C86.745,16.9654688 86.4871875,17.1717188 85.895,17.1670313 C82.7965625,17.1373438 79.698125,17.1529688 76.5996875,17.1545313 C75.745,17.1545313 75.70125,17.2107813 75.8778125,18.0435938 C75.8903125,18.1045313 75.9028125,18.1654688 75.916875,18.2264063 C76.479375,20.6404688 77.910625,21.6295313 80.373125,21.3404688 C81.885625,21.1639063 83.22625,20.6201563 84.3528125,19.5826563 C84.473125,19.4732813 84.6059375,19.3810938 84.8059375,19.2217188" id="Fill-8" fill="#404041"></path>
            <path d="M26.8596875,1.5628125 L26.8596875,2.3721875 L26.8596875,23.470625 C26.8596875,24.3753125 26.858125,24.376875 25.9253125,24.376875 C25.0096875,24.3784375 24.0940625,24.3784375 23.18,24.376875 C22.34875,24.3753125 22.345625,24.37375 22.345625,23.558125 C22.3440625,18.9596875 22.3440625,14.36125 22.3440625,9.7628125 C22.3440625,7.495625 22.36125,5.226875 22.3346875,2.9596875 C22.3284375,2.405 22.508125,2.1909375 23.0565625,2.1253125 C24.289375,1.9784375 25.5175,1.7659375 26.8596875,1.5628125" id="Fill-10" fill="#404041"></path>
            <path d="M89.5275,8.6275 C90.8946875,8.3978125 92.261875,8.165 93.72125,7.918125 L93.72125,10.930625 L93.8759375,10.99 C93.9790625,10.836875 94.08375,10.68375 94.18375,10.530625 C95.386875,8.699375 97.09,7.799375 99.2728125,7.765 C99.7165625,7.75875 99.911875,7.89 99.899375,8.368125 C99.87125,9.386875 99.874375,10.40875 99.8978125,11.4275 C99.9071875,11.8540625 99.7540625,11.993125 99.3275,12.0290625 C95.9571875,12.30875 93.755625,14.730625 93.755625,18.1228125 C93.7540625,19.9540625 93.75875,21.7853125 93.749375,23.618125 C93.749375,23.85875 93.6821875,24.099375 93.64625,24.343125 L93.64625,17.436875 C93.605625,17.4384375 93.5665625,17.4384375 93.5275,17.4384375 L93.5275,24.3540625 L89.4009375,24.3540625 C89.4025,19.4603125 89.4009375,14.565 89.4103125,9.6696875 C89.4103125,9.3228125 89.486875,8.9759375 89.5275,8.6275" id="Fill-12" fill="#404041"></path>
            <path d="M89.5275,8.6275 C89.486875,8.9759375 89.4103125,9.3228125 89.4103125,9.6696875 C89.4009375,14.565 89.4025,19.4603125 89.4009375,24.3540625 C89.3478125,24.14625 89.24625,23.936875 89.24625,23.7259375 C89.236875,18.911875 89.2353125,14.09625 89.2525,9.2821875 C89.2525,9.0634375 89.4321875,8.84625 89.5275,8.6275" id="Fill-14" fill="#404041"></path>
            <path d="M49.6821875,19.7801562 L49.6821875,11.5676562 C49.718125,11.5660937 49.7571875,11.5629687 49.793125,11.5598437 C49.8025,11.7239062 49.82125,11.8864062 49.82125,12.0504687 C49.8228125,14.4379687 49.8259375,16.8239062 49.8165625,19.2129687 C49.8165625,19.4754687 49.74,19.7379687 49.699375,20.0020312 C49.6946875,19.9270312 49.6884375,19.8535937 49.6821875,19.7801562" id="Fill-16" fill="#404041"></path>
            <path d="M93.526875,24.3548437 L93.526875,17.4376562 C93.5659375,17.4376562 93.6065625,17.4376562 93.645625,17.4360937 L93.645625,24.3423437 L93.5878125,24.3579687 L93.526875,24.3548437 Z" id="Fill-18" fill="#404041"></path>
            <path d="M49.8195312,3.88203125 C49.8195312,4.96015625 49.8320312,6.04140625 49.8148437,7.11953125 C49.8101562,7.37734375 49.7101562,7.63359375 49.6554687,7.88984375 C49.6539062,6.73515625 49.6460937,5.57890625 49.6585937,4.42265625 C49.6601562,4.24140625 49.7632812,4.06171875 49.8195312,3.88203125" id="Fill-20" fill="#404041"></path>
            <path d="M40.8245313,8.0034375 C40.8667188,8.1628125 40.9464063,8.320625 40.9479688,8.48 C40.9542188,11.9253125 40.9526563,15.370625 40.8245313,18.8175 L40.8245313,8.005 L40.8245313,8.0034375 Z" id="Fill-22" fill="#404041"></path>
        </g>
    </g>
</svg>