<?xml version="1.0" encoding="UTF-8"?>
<svg width="212px" height="212px" viewBox="0 0 212 212" version="1.1" xmlns="http://www.w3.org/2000/svg" xmlns:xlink="http://www.w3.org/1999/xlink">
    <!-- Generator: Sketch 51.2 (57519) - http://www.bohemiancoding.com/sketch -->
    <title>Logos</title>
    <desc>Created with Sketch.</desc>
    <defs>
        <polygon id="path-1" points="0.672818966 0.0689 16.4987931 0.0689 16.4987931 23.0153444 0.672818966 23.0153444"></polygon>
        <polygon id="path-3" points="0.842818966 1.41844444 16.4945431 1.41844444 16.4945431 24.5555556 0.842818966 24.5555556"></polygon>
    </defs>
    <g id="Logos" stroke="none" stroke-width="1" fill="none" fill-rule="evenodd">
        <g id="figs" transform="translate(64.000000, 93.000000)">
            <polygon id="Fill-1" fill="#404041" points="21.0902586 1.87835556 21.0902586 24.1488 23.4834483 24.1488 23.4834483 14.1113556 31.9043103 14.1113556 31.9043103 11.9475778 23.4834483 11.9475778 23.4834483 4.04068889 34.85 4.04068889 34.85 1.87835556"></polygon>
            <polygon id="Fill-2" fill="#404041" points="40.0994828 24.1482222 42.4912069 24.1482222 42.4912069 1.87777778 40.0994828 1.87777778"></polygon>
            <g id="Group-11" transform="translate(0.000000, 0.026000)">
                <g id="Group-5" transform="translate(67.413793, 1.444444)">
                    <mask id="mask-2" fill="white">
                        <use xlink:href="#path-1"></use>
                    </mask>
                    <g id="Clip-4"></g>
                    <path d="M9.05557759,9.89401111 C5.93842241,8.98545556 3.55402586,8.11878889 3.54669828,5.96367778 C3.54669828,4.82834444 4.04790517,3.87501111 5.00342241,3.20623333 C5.9120431,2.57067778 7.20316379,2.22256667 8.64523276,2.22256667 C11.1219569,2.22256667 13.7862672,3.24378889 13.8316983,6.10523333 L13.8360948,6.26123333 L16.14575,6.26123333 L16.1442845,6.10234444 C16.100319,2.43778889 13.1575603,0.0689 8.64523276,0.0689 C4.12850862,0.0689 1.20773276,2.43778889 1.20773276,6.10234444 C1.20773276,9.67012222 4.26919828,10.9007889 8.27152586,12.1401222 L8.37557759,12.1747889 C11.4810086,13.1440111 14.1614397,13.9789 14.1614397,16.5225667 C14.1629052,17.8456778 13.7247155,18.8914556 12.8600603,19.6237889 C11.9133362,20.4240111 10.4800603,20.8313444 8.60126724,20.8313444 C4.55497414,20.8313444 3.04549138,18.5491222 2.98540517,16.5933444 L2.98247414,16.4416778 L0.672818966,16.4402333 L0.678681034,16.6020111 C0.740232759,19.6916778 3.27264655,23.0153444 8.66868103,23.0153444 C13.6455776,23.0153444 16.4989397,20.6464556 16.4989397,16.5196778 C16.4989397,12.5416778 12.9216121,10.9845667 9.05557759,9.89401111" id="Fill-3" fill="#404041" mask="url(#mask-2)"></path>
                </g>
                <g id="Group-8" transform="translate(46.896552, 0.000000)">
                    <mask id="mask-4" fill="white">
                        <use xlink:href="#path-3"></use>
                    </mask>
                    <g id="Clip-7"></g>
                    <path d="M9.91583621,14.8451333 L14.0984224,14.8451333 L14.0984224,17.9362444 C14.0984224,17.9665778 14.0984224,17.9882444 14.0954914,18.0128 L14.0793707,18.1168 C13.7100603,20.6676889 11.977819,22.1800222 9.21092241,22.3721333 L9.17428448,22.3750222 C9.13031897,22.3764667 9.08635345,22.3764667 9.03359483,22.3793556 C8.92514655,22.3865778 8.81523276,22.3909111 8.70531897,22.3909111 C5.2320431,22.3591333 3.23893966,20.4033556 3.23893966,17.0219111 L3.23893966,8.96046667 C3.23893966,5.57757778 5.2320431,3.6218 8.70531897,3.59435556 C8.80497414,3.59435556 8.90316379,3.5958 9.02187069,3.60302222 C9.06730172,3.60302222 9.11859483,3.60735556 9.16402586,3.60735556 L9.2094569,3.61168889 C11.9016121,3.79657778 13.6265259,5.23668889 14.0529914,7.66768889 L14.0764397,7.79913333 L16.4901466,7.79913333 L16.4652328,7.62146667 C15.9552328,3.67813333 13.1473017,1.41757778 8.76247414,1.41757778 L8.71411207,1.41757778 L8.6994569,1.57791111 L8.67747414,1.41757778 L8.64083621,1.41757778 C3.75773276,1.41757778 0.842818966,4.23713333 0.842818966,8.96046667 L0.842818966,17.0219111 C0.842818966,21.7380222 3.75773276,24.5561333 8.64083621,24.5561333 L8.69212931,24.5546889 L8.76247414,24.5561333 C13.2396293,24.5561333 16.0534224,22.2219111 16.4945431,18.1370222 L16.4945431,12.7608 L9.91583621,12.7608 L9.91583621,14.8451333 Z" id="Fill-6" fill="#404041" mask="url(#mask-4)"></path>
                </g>
                <path d="M4.42146552,24.0182222 C5.36818966,24.3764444 6.46,24.5555556 7.67491379,24.5555556 L7.8625,24.5555556 C9.09939655,24.5555556 10.2117241,24.3663333 11.1760345,24.0008889 C13.8506034,23.0128889 15.5374138,20.7061111 15.5374138,17.0675556 L15.5374138,8.90211111 C15.5374138,5.24477778 13.8242241,2.92788889 11.1144828,1.95577778 C10.1677586,1.599 9.08034483,1.41844444 7.8625,1.41844444 L7.67491379,1.41844444 C6.43655172,1.41844444 5.32275862,1.60622222 4.36284483,1.976 C1.68681034,2.964 0,5.26933333 0,8.90211111 L0,17.0675556 C0,20.7335556 1.71318966,23.0461111 4.42146552,24.0182222 Z M6.38232759,11.6191111 L6.38232759,8.45866667 L9.15362069,8.45866667 L9.15362069,11.6234444 C12.3191379,11.6682222 12.3631034,14.3534444 12.3631034,14.3534444 L9.15362069,14.3534444 L9.15362069,17.5167778 L6.38232759,17.5167778 L6.38232759,14.3534444 C3.46448276,14.17 3.16991379,11.6191111 3.16991379,11.6191111 L6.38232759,11.6191111 Z" id="Fill-9" fill="#404041"></path>
            </g>
            <text id="EXIT" opacity="0.200000003" font-family="AvenirNext-Medium, Avenir Next" font-size="14" font-weight="400" line-spacing="27.6" letter-spacing="0.1166667" fill="#0745AF">
                <tspan x="27" y="90">EXIT</tspan>
            </text>
        </g>
    </g>
</svg>