<?xml version="1.0" encoding="UTF-8"?>
<svg width="212px" height="212px" viewBox="0 0 212 212" version="1.1" xmlns="http://www.w3.org/2000/svg" xmlns:xlink="http://www.w3.org/1999/xlink">
    <!-- Generator: Sketch 51.2 (57519) - http://www.bohemiancoding.com/sketch -->
    <title>Logos</title>
    <desc>Created with Sketch.</desc>
    <defs>
        <polygon id="path-1" points="0.000342939896 1.19963158 21.0003711 1.19963158 21.0003711 21.3396421 0.000342939896 21.3396421"></polygon>
        <polygon id="path-3" points="1.11984561 1.16520749 12.7560714 1.16520749 12.7560714 13.3157895 1.11984561 13.3157895"></polygon>
        <polygon id="path-5" points="1.05464963 1.12105795 12.6489971 1.12105795 12.6489971 13.3157895 1.05464963 13.3157895"></polygon>
    </defs>
    <g id="Logos" stroke="none" stroke-width="1" fill="none" fill-rule="evenodd">
        <g id="hellotech" transform="translate(47.000000, 95.000000)">
            <g id="Group-3" transform="translate(0.000000, 0.010895)">
                <mask id="mask-2" fill="white">
                    <use xlink:href="#path-1"></use>
                </mask>
                <g id="Clip-2"></g>
                <path d="M10.8151571,1.19951053 C13.6845143,3.64477368 16.5550857,6.08761579 19.4232286,8.53287895 C19.7085857,8.77498421 19.9915143,9.02314211 20.2793,9.26282632 C20.7516571,9.65503684 21.1790857,10.0617737 20.9240857,10.7638789 C20.6703,11.4635632 20.0886571,11.5192474 19.4681571,11.5047211 C19.2556571,11.4998789 19.0431571,11.5047211 18.7590143,11.5047211 L18.7590143,12.2044053 L18.7590143,20.3657737 C18.7590143,21.2337211 18.6606571,21.3366158 17.8215857,21.3378263 C15.5059429,21.3402474 13.1927286,21.3402474 10.8795143,21.3378263 C10.0440857,21.3366158 9.93601429,21.2240368 9.93358571,20.3669842 C9.93115714,19.6237211 9.93237143,18.8780368 9.93237143,18.1505105 C7.33137143,17.6711421 6.66958571,16.8237737 6.95251429,14.3579316 L14.0293714,14.3579316 C14.5248,16.4339842 13.6213714,17.6275632 11.1320857,18.1456684 L11.1320857,20.1478789 L17.5738714,20.1478789 L17.5738714,10.3668263 L19.4013714,10.3668263 C19.4268714,10.3196158 19.4511571,10.2724053 19.4766571,10.2264053 C16.4955857,7.67703684 13.5145143,5.12766842 10.5067286,2.5553 C7.50258571,5.12282632 4.53244286,7.6613 1.44694286,10.2990368 L3.40922857,10.2990368 C3.42258571,10.5605105 3.43958571,10.7481421 3.43958571,10.9357737 C3.4408,14.1097737 3.43958571,17.2837737 3.43837143,20.4577737 C3.43837143,20.5764053 3.4833,20.7410368 3.42258571,20.8039842 C3.24165714,20.9976684 3.02915714,21.2651947 2.80815714,21.2869842 C2.64908571,21.3015105 2.40137143,20.9964579 2.29694286,20.7834053 C2.21072857,20.6066684 2.27508571,20.3573 2.27508571,20.1406158 C2.27508571,17.4992474 2.2763,14.8566684 2.2763,12.2153 L2.2763,11.5047211 C1.99822857,11.5047211 1.78694286,11.5047211 1.57687143,11.5035105 C0.6273,11.4998789 0.260585714,11.3146684 0.0553714286,10.6803526 C-0.166842857,9.99398421 0.327371429,9.63082632 0.762085714,9.25798421 C2.57622857,7.70366842 4.3928,6.15177368 6.2118,4.60351053 C7.54751429,3.46561579 8.88565714,2.33377368 10.2225857,1.19951053 L10.8151571,1.19951053 Z" id="Fill-1" fill="#404041" mask="url(#mask-2)"></path>
            </g>
            <path d="M118.594793,21.4454421 L116.460079,21.4454421 C116.44915,21.1984947 116.430936,20.9697053 116.430936,20.7421263 C116.428507,18.8694421 116.430936,16.9955474 116.427293,15.1216526 C116.427293,14.8468632 116.422436,14.5696526 116.395721,14.2960737 C116.252436,12.8083368 115.52265,11.9198105 114.29865,11.7309684 C112.75165,11.4900737 111.426864,12.1304421 110.903507,13.4850211 C110.667936,14.0963368 110.548936,14.7827053 110.529507,15.4388105 C110.479721,17.2134421 110.512507,18.9892842 110.512507,20.7639158 L110.512507,21.4369684 L108.414221,21.4369684 L108.414221,3.14107368 L110.488221,3.14107368 L110.488221,11.6002316 C111.134221,10.7298632 111.929579,10.1476 112.926507,9.87644211 C115.142579,9.27723158 118.015579,9.92607368 118.508579,13.1291263 C118.517079,13.1823895 118.56565,13.2296 118.594793,13.2804421 L118.594793,21.4454421 Z" id="Fill-4" fill="#404041"></path>
            <g id="Group-8" transform="translate(81.357143, 8.484579)">
                <mask id="mask-4" fill="white">
                    <use xlink:href="#path-3"></use>
                </mask>
                <g id="Clip-7"></g>
                <path d="M10.387,6.28759474 C10.421,4.15948947 8.976,2.80491053 6.86435714,2.90296316 C5.0065,2.9877 3.35385714,4.64006842 3.51657143,6.28759474 L10.387,6.28759474 Z M6.25721429,13.3159105 C6.03135714,13.2565947 5.80792857,13.1900158 5.57842857,13.1379632 C3.2045,12.5932263 1.65628571,10.8900158 1.21671429,8.33338421 C0.649642857,5.02380526 2.62285714,2.01080526 5.81157143,1.31959474 C9.36821429,0.5497 12.3480714,2.72743684 12.6637857,6.33238421 C12.7099286,6.85896316 12.7232857,7.38675263 12.7560714,8.01501579 L8.092,8.01501579 L3.49592857,8.01501579 C3.43885714,9.31027895 4.20021429,10.4505947 5.50435714,11.0231737 C7.48971429,11.8923316 9.16542857,11.4153842 10.5497143,9.71096316 C11.1082857,10.1358579 11.6328571,10.5365421 12.1792857,10.9529632 C11.1969286,12.2082789 9.94742857,12.9176474 8.42957143,13.1863842 C8.25714286,13.2178579 8.08835714,13.2723316 7.91957143,13.3159105 L6.25721429,13.3159105 Z" id="Fill-6" fill="#404041" mask="url(#mask-4)"></path>
            </g>
            <g id="Group-11" transform="translate(38.857143, 8.484579)">
                <mask id="mask-6" fill="white">
                    <use xlink:href="#path-5"></use>
                </mask>
                <g id="Clip-10"></g>
                <path d="M10.3301714,6.28287368 C10.2828143,5.05903158 9.94888571,4.01192632 8.86938571,3.39455789 C7.5616,2.64645263 6.2101,2.69850526 4.94967143,3.51924211 C3.98188571,4.14871579 3.42817143,5.05903158 3.37231429,6.28287368 L10.3301714,6.28287368 Z M6.14452857,13.3160316 C5.91988571,13.2542947 5.69767143,13.1840842 5.4706,13.1308211 C2.60852857,12.4505053 0.895171429,9.99918947 1.06638571,6.8264 C1.30681429,2.34261053 6.30602857,-0.354442105 10.0606,1.97824211 C11.8626,3.09797895 12.4940286,4.84718947 12.6361,6.84455789 C12.6628143,7.19561053 12.6397429,7.55029474 12.6397429,7.98608421 L3.4901,7.98608421 C3.25088571,8.98718947 3.93331429,10.1831895 5.05531429,10.8405053 C6.8646,11.9021368 8.41767143,11.5995053 10.5123143,9.74861053 C11.0174571,10.1311368 11.5323143,10.5197158 12.0884571,10.9421895 C11.1388857,12.2059789 9.88574286,12.8984 8.37881429,13.1816632 C8.18574286,13.2179789 7.99631429,13.2700316 7.80567143,13.3160316 L6.14452857,13.3160316 Z" id="Fill-9" fill="#404041" mask="url(#mask-6)"></path>
            </g>
            <path d="M72.9321857,15.7568158 C72.9406857,13.5125 71.6146857,11.8976579 69.6099,11.7136579 C67.3343286,11.5054474 65.7096143,12.7268684 65.3271143,14.9324474 C64.9895429,16.8910789 65.8674714,18.7383421 67.4679,19.4416579 C70.1964,20.6400789 72.9200429,18.8037105 72.9321857,15.7568158 Z M68.3846857,21.7997632 C68.0616857,21.7174474 67.7374714,21.6387632 67.4156857,21.5516053 C64.3787571,20.7272368 62.5464,17.8122895 63.0649,14.6261842 C63.5421143,11.6882368 66.3993286,9.47660526 69.4423286,9.69086842 C72.6407571,9.91844737 75.0584,12.2777632 75.2369,15.3476579 C75.4214714,18.4926053 73.3341143,21.0903947 70.1441857,21.6896053 C70.0288286,21.7113947 69.9219714,21.7634474 69.8102571,21.7997632 L68.3846857,21.7997632 Z" id="Fill-12" fill="#404041"></path>
            <path d="M101.265236,21.8000053 C100.808664,21.6801632 100.344807,21.5845316 99.89795,21.4380579 C97.6733786,20.7117421 96.15795,18.7930579 96.0668786,16.4640053 C96.0316643,15.5706368 96.0838786,14.6324789 96.3206643,13.7778474 C96.8998786,11.6872684 98.3363786,10.3532684 100.455307,9.88963684 C102.679879,9.40300526 104.730807,9.79158421 106.47695,11.4960053 C105.929307,11.9959526 105.409593,12.4692684 104.868021,12.9631632 C104.728379,12.8517947 104.604521,12.7610053 104.48795,12.6617421 C102.231807,10.7418474 99.17545,11.7175316 98.4602357,14.5876895 C97.95995,16.5923211 98.73345,18.5509526 100.350879,19.3753211 C101.846879,20.1379526 103.364736,19.8619526 104.877736,18.5364263 C105.345236,19.0509 105.81395,19.5653737 106.314236,20.1137421 C105.590521,20.9744263 104.542593,21.4235316 103.378093,21.6620053 C103.186236,21.7007421 102.998021,21.7540053 102.808593,21.8000053 L101.265236,21.8000053 Z" id="Fill-14" fill="#404041"></path>
            <polygon id="Fill-16" fill="#404041" points="38.1756857 21.4383 35.9098286 21.4383 35.9098286 13.6364579 26.9241143 13.6364579 26.9241143 21.4249842 24.6291143 21.4249842 24.6291143 4.3263 26.9034714 4.3263 26.9034714 11.3824579 35.8976857 11.3824579 35.8976857 4.31298421 38.1756857 4.31298421"></polygon>
            <polygon id="Fill-18" fill="#404041" points="79.9048571 6.40368421 79.9048571 21.4214737 77.5989286 21.4214737 77.5989286 6.43757895 72.0775714 6.43757895 72.0775714 4.30826316 85.4322857 4.30826316 85.4322857 6.40368421"></polygon>
            <polygon id="Fill-20" fill="#404041" points="58.8333571 21.4323684 60.928 21.4323684 60.928 3.12557895 58.8333571 3.12557895"></polygon>
            <polygon id="Fill-22" fill="#404041" points="53.4467857 21.4190526 55.5001429 21.4190526 55.5001429 3.12194737 53.4467857 3.12194737"></polygon>
            <path d="M9.32219286,12.8948895 L7.67562143,12.8948895 C7.67562143,11.7993632 7.64162143,10.7062579 7.69262143,9.61920526 C7.71205,9.19915263 8.04597857,8.90741579 8.50740714,8.91346842 C8.96762143,8.91952105 9.28819286,9.21852105 9.30640714,9.63857368 C9.35376429,10.7123105 9.32219286,11.7896789 9.32219286,12.8948895" id="Fill-23" fill="#404041"></path>
            <path d="M13.15715,12.8996105 L11.50815,12.8996105 C11.50815,11.7895579 11.4765786,10.6952421 11.5239357,9.60455789 C11.54215,9.17482105 11.8845786,8.89276842 12.34115,8.91697895 C12.8535786,8.94361053 13.1340786,9.28618947 13.14865,9.7704 C13.1765786,10.7908737 13.15715,11.8113474 13.15715,12.8996105" id="Fill-24" fill="#404041"></path>
        </g>
    </g>
</svg>