<?xml version="1.0" encoding="UTF-8"?>
<svg width="212px" height="212px" viewBox="0 0 212 212" version="1.1" xmlns="http://www.w3.org/2000/svg" xmlns:xlink="http://www.w3.org/1999/xlink">
    <!-- Generator: Sketch 51.2 (57519) - http://www.bohemiancoding.com/sketch -->
    <title>Logos-Hover</title>
    <desc>Created with Sketch.</desc>
    <defs>
        <polygon id="path-1" points="0.000342939896 0.199631579 21.0003711 0.199631579 21.0003711 20.3396421 0.000342939896 20.3396421"></polygon>
        <polygon id="path-3" points="0.119845612 0.165207487 11.7560714 0.165207487 11.7560714 12.3157895 0.119845612 12.3157895"></polygon>
        <polygon id="path-5" points="0.0546496265 0.121057953 11.6489971 0.121057953 11.6489971 12.3157895 0.0546496265 12.3157895"></polygon>
    </defs>
    <g id="Logos-Hover" stroke="none" stroke-width="1" fill="none" fill-rule="evenodd">
        <g id="hellotech">
            <rect id="Rectangle-Copy-2" fill="#00C9BC" x="0" y="0" width="216" height="214"></rect>
            <g id="Group-3" transform="translate(47.000000, 96.010895)">
                <mask id="mask-2" fill="white">
                    <use xlink:href="#path-1"></use>
                </mask>
                <g id="Clip-2"></g>
                <path d="M10.8151571,0.199510526 C13.6845143,2.64477368 16.5550857,5.08761579 19.4232286,7.53287895 C19.7085857,7.77498421 19.9915143,8.02314211 20.2793,8.26282632 C20.7516571,8.65503684 21.1790857,9.06177368 20.9240857,9.76387895 C20.6703,10.4635632 20.0886571,10.5192474 19.4681571,10.5047211 C19.2556571,10.4998789 19.0431571,10.5047211 18.7590143,10.5047211 L18.7590143,11.2044053 L18.7590143,19.3657737 C18.7590143,20.2337211 18.6606571,20.3366158 17.8215857,20.3378263 C15.5059429,20.3402474 13.1927286,20.3402474 10.8795143,20.3378263 C10.0440857,20.3366158 9.93601429,20.2240368 9.93358571,19.3669842 C9.93115714,18.6237211 9.93237143,17.8780368 9.93237143,17.1505105 C7.33137143,16.6711421 6.66958571,15.8237737 6.95251429,13.3579316 L14.0293714,13.3579316 C14.5248,15.4339842 13.6213714,16.6275632 11.1320857,17.1456684 L11.1320857,19.1478789 L17.5738714,19.1478789 L17.5738714,9.36682632 L19.4013714,9.36682632 C19.4268714,9.31961579 19.4511571,9.27240526 19.4766571,9.22640526 C16.4955857,6.67703684 13.5145143,4.12766842 10.5067286,1.5553 C7.50258571,4.12282632 4.53244286,6.6613 1.44694286,9.29903684 L3.40922857,9.29903684 C3.42258571,9.56051053 3.43958571,9.74814211 3.43958571,9.93577368 C3.4408,13.1097737 3.43958571,16.2837737 3.43837143,19.4577737 C3.43837143,19.5764053 3.4833,19.7410368 3.42258571,19.8039842 C3.24165714,19.9976684 3.02915714,20.2651947 2.80815714,20.2869842 C2.64908571,20.3015105 2.40137143,19.9964579 2.29694286,19.7834053 C2.21072857,19.6066684 2.27508571,19.3573 2.27508571,19.1406158 C2.27508571,16.4992474 2.2763,13.8566684 2.2763,11.2153 L2.2763,10.5047211 C1.99822857,10.5047211 1.78694286,10.5047211 1.57687143,10.5035105 C0.6273,10.4998789 0.260585714,10.3146684 0.0553714286,9.68035263 C-0.166842857,8.99398421 0.327371429,8.63082632 0.762085714,8.25798421 C2.57622857,6.70366842 4.3928,5.15177368 6.2118,3.60351053 C7.54751429,2.46561579 8.88565714,1.33377368 10.2225857,0.199510526 L10.8151571,0.199510526 Z" id="Fill-1" fill="#FFFFFF" mask="url(#mask-2)"></path>
            </g>
            <path d="M165.594793,116.445442 L163.460079,116.445442 C163.44915,116.198495 163.430936,115.969705 163.430936,115.742126 C163.428507,113.869442 163.430936,111.995547 163.427293,110.121653 C163.427293,109.846863 163.422436,109.569653 163.395721,109.296074 C163.252436,107.808337 162.52265,106.919811 161.29865,106.730968 C159.75165,106.490074 158.426864,107.130442 157.903507,108.485021 C157.667936,109.096337 157.548936,109.782705 157.529507,110.438811 C157.479721,112.213442 157.512507,113.989284 157.512507,115.763916 L157.512507,116.436968 L155.414221,116.436968 L155.414221,98.1410737 L157.488221,98.1410737 L157.488221,106.600232 C158.134221,105.729863 158.929579,105.1476 159.926507,104.876442 C162.142579,104.277232 165.015579,104.926074 165.508579,108.129126 C165.517079,108.182389 165.56565,108.2296 165.594793,108.280442 L165.594793,116.445442 Z" id="Fill-4" fill="#FFFFFF"></path>
            <g id="Group-8" transform="translate(129.357143, 104.484579)">
                <mask id="mask-4" fill="white">
                    <use xlink:href="#path-3"></use>
                </mask>
                <g id="Clip-7"></g>
                <path d="M9.387,5.28759474 C9.421,3.15948947 7.976,1.80491053 5.86435714,1.90296316 C4.0065,1.9877 2.35385714,3.64006842 2.51657143,5.28759474 L9.387,5.28759474 Z M5.25721429,12.3159105 C5.03135714,12.2565947 4.80792857,12.1900158 4.57842857,12.1379632 C2.2045,11.5932263 0.656285714,9.89001579 0.216714286,7.33338421 C-0.350357143,4.02380526 1.62285714,1.01080526 4.81157143,0.319594737 C8.36821429,-0.4503 11.3480714,1.72743684 11.6637857,5.33238421 C11.7099286,5.85896316 11.7232857,6.38675263 11.7560714,7.01501579 L7.092,7.01501579 L2.49592857,7.01501579 C2.43885714,8.31027895 3.20021429,9.45059474 4.50435714,10.0231737 C6.48971429,10.8923316 8.16542857,10.4153842 9.54971429,8.71096316 C10.1082857,9.13585789 10.6328571,9.53654211 11.1792857,9.95296316 C10.1969286,11.2082789 8.94742857,11.9176474 7.42957143,12.1863842 C7.25714286,12.2178579 7.08835714,12.2723316 6.91957143,12.3159105 L5.25721429,12.3159105 Z" id="Fill-6" fill="#FFFFFF" mask="url(#mask-4)"></path>
            </g>
            <g id="Group-11" transform="translate(86.857143, 104.484579)">
                <mask id="mask-6" fill="white">
                    <use xlink:href="#path-5"></use>
                </mask>
                <g id="Clip-10"></g>
                <path d="M9.33017143,5.28287368 C9.28281429,4.05903158 8.94888571,3.01192632 7.86938571,2.39455789 C6.5616,1.64645263 5.2101,1.69850526 3.94967143,2.51924211 C2.98188571,3.14871579 2.42817143,4.05903158 2.37231429,5.28287368 L9.33017143,5.28287368 Z M5.14452857,12.3160316 C4.91988571,12.2542947 4.69767143,12.1840842 4.4706,12.1308211 C1.60852857,11.4505053 -0.104828571,8.99918947 0.0663857143,5.8264 C0.306814286,1.34261053 5.30602857,-1.35444211 9.0606,0.978242105 C10.8626,2.09797895 11.4940286,3.84718947 11.6361,5.84455789 C11.6628143,6.19561053 11.6397429,6.55029474 11.6397429,6.98608421 L2.4901,6.98608421 C2.25088571,7.98718947 2.93331429,9.18318947 4.05531429,9.84050526 C5.8646,10.9021368 7.41767143,10.5995053 9.51231429,8.74861053 C10.0174571,9.13113684 10.5323143,9.51971579 11.0884571,9.94218947 C10.1388857,11.2059789 8.88574286,11.8984 7.37881429,12.1816632 C7.18574286,12.2179789 6.99631429,12.2700316 6.80567143,12.3160316 L5.14452857,12.3160316 Z" id="Fill-9" fill="#FFFFFF" mask="url(#mask-6)"></path>
            </g>
            <path d="M119.932186,110.756816 C119.940686,108.5125 118.614686,106.897658 116.6099,106.713658 C114.334329,106.505447 112.709614,107.726868 112.327114,109.932447 C111.989543,111.891079 112.867471,113.738342 114.4679,114.441658 C117.1964,115.640079 119.920043,113.803711 119.932186,110.756816 Z M115.384686,116.799763 C115.061686,116.717447 114.737471,116.638763 114.415686,116.551605 C111.378757,115.727237 109.5464,112.812289 110.0649,109.626184 C110.542114,106.688237 113.399329,104.476605 116.442329,104.690868 C119.640757,104.918447 122.0584,107.277763 122.2369,110.347658 C122.421471,113.492605 120.334114,116.090395 117.144186,116.689605 C117.028829,116.711395 116.921971,116.763447 116.810257,116.799763 L115.384686,116.799763 Z" id="Fill-12" fill="#FFFFFF"></path>
            <path d="M148.265236,116.800005 C147.808664,116.680163 147.344807,116.584532 146.89795,116.438058 C144.673379,115.711742 143.15795,113.793058 143.066879,111.464005 C143.031664,110.570637 143.083879,109.632479 143.320664,108.777847 C143.899879,106.687268 145.336379,105.353268 147.455307,104.889637 C149.679879,104.403005 151.730807,104.791584 153.47695,106.496005 C152.929307,106.995953 152.409593,107.469268 151.868021,107.963163 C151.728379,107.851795 151.604521,107.761005 151.48795,107.661742 C149.231807,105.741847 146.17545,106.717532 145.460236,109.587689 C144.95995,111.592321 145.73345,113.550953 147.350879,114.375321 C148.846879,115.137953 150.364736,114.861953 151.877736,113.536426 C152.345236,114.0509 152.81395,114.565374 153.314236,115.113742 C152.590521,115.974426 151.542593,116.423532 150.378093,116.662005 C150.186236,116.700742 149.998021,116.754005 149.808593,116.800005 L148.265236,116.800005 Z" id="Fill-14" fill="#FFFFFF"></path>
            <polygon id="Fill-16" fill="#FFFFFF" points="85.1756857 116.4383 82.9098286 116.4383 82.9098286 108.636458 73.9241143 108.636458 73.9241143 116.424984 71.6291143 116.424984 71.6291143 99.3263 73.9034714 99.3263 73.9034714 106.382458 82.8976857 106.382458 82.8976857 99.3129842 85.1756857 99.3129842"></polygon>
            <polygon id="Fill-18" fill="#FFFFFF" points="126.904857 101.403684 126.904857 116.421474 124.598929 116.421474 124.598929 101.437579 119.077571 101.437579 119.077571 99.3082632 132.432286 99.3082632 132.432286 101.403684"></polygon>
            <polygon id="Fill-20" fill="#FFFFFF" points="105.833357 116.432368 107.928 116.432368 107.928 98.1255789 105.833357 98.1255789"></polygon>
            <polygon id="Fill-22" fill="#FFFFFF" points="100.446786 116.419053 102.500143 116.419053 102.500143 98.1219474 100.446786 98.1219474"></polygon>
            <path d="M56.3221929,107.894889 L54.6756214,107.894889 C54.6756214,106.799363 54.6416214,105.706258 54.6926214,104.619205 C54.71205,104.199153 55.0459786,103.907416 55.5074071,103.913468 C55.9676214,103.919521 56.2881929,104.218521 56.3064071,104.638574 C56.3537643,105.712311 56.3221929,106.789679 56.3221929,107.894889" id="Fill-23" fill="#FFFFFF"></path>
            <path d="M60.15715,107.899611 L58.50815,107.899611 C58.50815,106.789558 58.4765786,105.695242 58.5239357,104.604558 C58.54215,104.174821 58.8845786,103.892768 59.34115,103.916979 C59.8535786,103.943611 60.1340786,104.286189 60.14865,104.7704 C60.1765786,105.790874 60.15715,106.811347 60.15715,107.899611" id="Fill-24" fill="#FFFFFF"></path>
        </g>
    </g>
</svg>