<?xml version="1.0" encoding="UTF-8"?>
<svg width="212px" height="212px" viewBox="0 0 212 212" version="1.1" xmlns="http://www.w3.org/2000/svg" xmlns:xlink="http://www.w3.org/1999/xlink">
    <!-- Generator: Sketch 51.2 (57519) - http://www.bohemiancoding.com/sketch -->
    <title>Logos-Hover</title>
    <desc>Created with Sketch.</desc>
    <defs></defs>
    <g id="Logos-Hover" stroke="none" stroke-width="1" fill="none" fill-rule="evenodd">
        <g id="honeybook">
            <rect id="Rectangle-Copy-2" fill="#7492FD" x="0" y="0" width="216" height="214"></rect>
            <path d="M104.046202,117.551347 C103.990472,117.528546 103.934743,117.509252 103.877271,117.486451 C103.086608,118.598461 102.524088,119.812201 102.356899,121.190812 C102.302911,121.645088 102.592008,122.044991 102.921161,122.052006 C103.35829,122.064284 103.485423,121.731032 103.532445,121.38901 C103.717049,120.112128 103.877271,118.829983 104.046202,117.551347 M92.10614,105.217506 C93.5359519,105.336775 95.3332308,103.647713 95.5213181,102.523425 C95.6397435,101.825349 95.092897,101.157091 94.4415576,101.25005 C94.1681343,101.288638 93.8738125,101.407907 93.6578604,101.579795 C92.5032132,102.497115 92.1897344,103.777506 92.10614,105.217506 M157.241824,99.2365053 C157.290588,99.2680765 157.341092,99.2996478 157.388114,99.3312191 C157.513506,99.1821325 157.649347,99.0418158 157.762547,98.8857134 C158.91197,97.272071 160.097965,95.68123 161.188175,94.0272465 C161.658393,93.3116311 161.961423,92.4749926 162.280126,91.6681713 C162.422933,91.3068558 162.466472,90.8841516 162.457764,90.4895108 C162.445573,89.8826409 162.008444,89.5686822 161.416318,89.6809356 C160.932167,89.7738954 160.557734,90.0580368 160.296502,90.4614474 C160.005663,90.910461 159.728756,91.3699983 159.498872,91.8505831 C158.44001,94.0553098 157.811311,96.4021072 157.27143,98.7787219 C157.238341,98.9260545 157.250532,99.0839108 157.241824,99.2365053 M148.584583,104.08971 C148.441776,103.421452 148.382563,102.719868 148.133521,102.091951 C147.746898,101.10798 146.809944,100.937846 146.041921,101.656969 C145.754565,101.928833 145.496816,102.248053 145.296538,102.590075 C144.462336,104.010782 144.255091,105.570052 144.462336,107.178432 C144.516324,107.597629 144.720085,108.044888 144.977834,108.385156 C145.564736,109.160406 146.587026,109.141113 147.196568,108.38691 C147.403812,108.130832 147.5919,107.846691 147.736448,107.548518 C148.264138,106.468079 148.467899,105.310466 148.584583,104.08971 M137.532711,104.086202 C137.375972,103.400404 137.30631,102.676019 137.039853,102.030562 C136.66542,101.118503 135.751106,100.953631 135.030105,101.618382 C134.693986,101.928833 134.397922,102.311196 134.169779,102.711098 C133.391307,104.077433 133.218894,105.577068 133.382599,107.117044 C133.41743,107.46082 133.551529,107.816874 133.722201,108.122063 C134.303879,109.169176 135.503806,109.239335 136.223066,108.290443 C136.343233,108.130832 136.458175,107.964206 136.55396,107.78881 C137.173952,106.643475 137.388162,105.399918 137.532711,104.086202 M74.3214389,104.049369 C74.2639677,103.607372 74.236103,103.161866 74.1455424,102.726884 C74.0097016,102.074411 73.7745924,101.437724 73.0448833,101.269344 C72.2838262,101.09044 71.78226,101.569271 71.3799622,102.134046 C70.3698636,103.561769 70.0407108,105.175411 70.2026749,106.897799 C70.2409889,107.288932 70.3524481,107.697604 70.5300861,108.046642 C71.0804157,109.135851 72.3325896,109.256874 73.0570741,108.290443 C73.3479128,107.902818 73.5777973,107.455558 73.7502107,107.003037 C74.1141945,106.059407 74.2813832,105.070174 74.3214389,104.049369 M110.542181,110.088251 C111.029814,111.377411 111.590593,112.613952 112.377773,113.736486 C113.335626,115.101066 114.601732,116.051712 116.177834,116.542821 C117.045125,116.811176 117.93854,117.018144 118.830213,117.176 C120.585695,117.486451 122.335952,117.451371 124.023513,116.816438 C127.025944,115.688642 128.720472,113.394464 129.490237,110.353099 C129.68529,109.584865 129.777592,108.760504 129.751469,107.967714 C129.697481,106.418968 129.026984,105.194705 127.513578,104.624668 C126.20045,104.130051 124.831592,104.026568 123.445319,104.259844 C122.078203,104.489613 120.909623,105.192951 119.714921,105.836654 C119.168074,106.133073 118.626452,106.443524 118.07264,106.725911 C117.59023,106.971465 117.123495,106.913585 116.703782,106.562793 C115.944466,105.933121 116.008904,104.96669 116.850072,104.445764 C117.851463,103.826616 118.891168,103.261842 119.854244,102.584813 C121.789106,101.230757 123.110942,99.4276868 123.565486,97.0580879 C123.741382,96.1425212 123.711776,95.2322164 123.258973,94.3780383 C122.69297,93.3133851 121.601018,92.8503398 120.496876,93.3239088 C119.962221,93.5519235 119.413633,93.9027154 119.040941,94.3429591 C118.337355,95.1690739 117.649443,96.0460535 117.146135,97.0054692 C116.176092,98.8646659 115.301835,100.776481 114.455442,102.695313 C113.39658,105.089467 112.372549,107.494145 110.813862,109.619944 C110.711111,109.76026 110.636224,109.923379 110.542181,110.088251 M54.05503,100.160842 C55.8662413,99.9959696 57.5346455,99.8451291 59.2378807,99.6907807 C59.3702384,99.3312191 59.4869222,99.0225222 59.5983814,98.7120715 C60.4900546,96.1811083 61.3747616,93.6501452 62.2838503,91.126198 C62.4266574,90.7315571 62.6130031,90.3246386 62.8812017,90.0124339 C63.1459172,89.705491 63.509901,89.4178417 63.8843341,89.2915566 C65.0337566,88.9039317 65.9202052,89.5967455 65.8331277,90.8069774 C65.7930721,91.3331651 65.6258834,91.8593529 65.45347,92.3627392 C64.7376933,94.432411 63.9940517,96.4933131 63.2643426,98.561231 C63.1772651,98.8067853 63.1110862,99.0628633 63.0031102,99.4241789 C63.7066961,99.3733141 64.3162383,99.3171874 64.9257806,99.2873701 C65.3228538,99.2680765 65.7286348,99.2382592 66.1170003,99.3031557 C66.6429481,99.3890997 66.797946,99.634654 66.8171031,100.195921 C66.8414848,100.892243 66.7213179,101.17463 66.1971115,101.297407 C65.3768418,101.490343 64.5391566,101.616628 63.7084376,101.751683 C63.2068714,101.834119 62.7000806,101.877968 62.1166616,101.948126 C61.9668884,102.602353 61.778801,103.244302 61.6777912,103.900283 C61.4792546,105.177165 61.2667856,106.461063 61.1710004,107.748469 C61.0351595,109.593634 62.4910947,110.084743 63.8286045,109.313001 C65.1783052,108.532489 66.2389087,107.422233 67.2681643,106.403183 C67.3360848,105.550758 67.3482756,104.787786 67.4632179,104.038846 C68.1058495,99.9117796 71.7404629,97.8894646 75.6937797,99.1593311 C76.6742719,99.4732898 77.558979,99.9924617 78.3426761,100.676506 C78.4750339,100.792267 78.6195825,100.893997 78.8546916,101.076408 C78.9452522,100.699307 79.0096895,100.385349 79.0932839,100.076652 C79.3144606,99.2505369 79.8264761,98.7699521 80.5422529,98.7033017 C81.3207254,98.6313893 81.8083592,98.990951 81.8623472,99.7714628 C81.8989197,100.327468 81.8571225,100.890489 81.7996514,101.442986 C81.7160571,102.223498 81.5767331,102.993486 81.4792064,103.772244 C81.4478585,104.016044 81.4739817,104.268614 81.4739817,104.517676 C81.5401606,104.535216 81.6063395,104.552756 81.6725183,104.572049 C81.7909437,104.379114 81.9285261,104.196702 82.0225697,103.994997 C82.6338535,102.700575 83.2381711,101.404399 83.8390056,100.106469 C84.1716415,99.3908537 84.6906232,98.9207926 85.4725788,98.7576744 C86.4617788,98.5542151 87.3221042,99.1312677 87.3203626,100.150318 C87.3186211,101.148321 87.1514323,102.149831 87.0260408,103.144326 C86.8919415,104.186178 86.6951464,105.221014 86.5854288,106.26462 C86.5366654,106.724157 86.592395,107.206496 86.6794725,107.660771 C86.8118302,108.3378 87.2785654,108.602647 87.9159725,108.364109 C88.3652922,108.195729 88.7797809,107.932635 89.0741027,107.781794 C89.1263492,106.678554 89.0723612,105.706861 89.2360668,104.775508 C89.5025238,103.24781 90.00409,101.7815 90.9706499,100.530927 C92.090466,99.0856648 93.5167949,98.4156524 95.3576125,98.8050313 C97.3586526,99.2312434 98.3913913,101.158845 97.6059526,103.07943 C96.8135477,105.015801 95.3506463,106.257604 93.4575822,107.025838 C93.1510695,107.148615 92.8375907,107.257361 92.5293365,107.371368 C92.7470301,108.081721 93.2224731,108.49741 93.9156097,108.513195 C94.3544801,108.523719 94.8072829,108.481624 95.2304794,108.371125 C96.4269237,108.057166 97.496235,107.46959 98.4558286,106.764498 C98.6735223,105.461306 98.8145878,104.19144 99.1123927,102.960161 C99.3718835,101.877968 99.7637321,100.823838 100.178221,99.7907564 C100.517823,98.9418401 101.184836,98.4349459 102.132239,98.4086365 C103.043069,98.3840811 103.440143,98.8786976 103.23464,99.7767247 C102.896779,101.25882 102.532795,102.735654 102.208867,104.219503 C102.04342,104.98423 101.902355,105.755972 101.81876,106.534729 C101.768255,107.01356 101.783929,107.523962 101.886681,107.995777 C102.09915,108.967471 102.962958,109.213025 103.610814,108.453561 C104.035752,107.955436 104.411927,107.352074 104.598273,106.731173 C104.972706,105.492878 105.206074,104.214241 105.488205,102.947883 C105.67455,102.11826 105.83129,101.283376 106.026343,100.455507 C106.271902,99.4083933 107.285483,98.5963102 108.351312,98.5717547 C109.094953,98.5524612 109.415398,98.9190386 109.277816,99.6557015 C108.626476,103.149588 107.971654,106.645229 107.318573,110.139116 C107.295933,110.263647 107.276776,110.388178 107.36037,110.563574 C107.635535,110.165425 107.919407,109.772538 108.18064,109.36562 C109.758483,106.917093 110.982792,104.280892 112.18272,101.632414 C113.307761,99.1488073 114.343983,96.6195981 115.792952,94.2991101 C116.423392,93.2905836 117.135686,92.3487075 118.058707,91.5874892 C119.671382,90.265004 121.466919,89.9931403 123.375657,90.7666363 C125.214733,91.510315 126.015846,93.0520451 126.297977,94.9393052 C126.620163,97.0879053 125.866073,98.945348 124.767155,100.708077 C124.629573,100.93083 124.483282,101.148321 124.24469,101.518406 C126.733364,101.346518 128.826706,102.032316 130.630951,103.649467 C130.709321,103.42496 130.768534,103.282889 130.810331,103.135557 C131.813463,99.6837649 134.993532,98.1034476 138.514945,99.0593554 C139.89251,99.4329487 141.073281,100.183643 142.074672,101.214971 C142.194838,101.339502 142.330679,101.448248 142.485677,101.586811 C142.614552,101.420184 142.726011,101.28513 142.830504,101.144813 C143.939871,99.6504396 145.428895,98.8857134 147.274938,98.8050313 C149.8176,98.6927779 151.830831,99.764447 153.506201,101.607858 C153.666423,101.785008 153.81968,101.96742 154.08962,102.277871 C154.227202,101.460526 154.342145,100.790513 154.455345,100.122255 C154.918597,97.3825704 155.552521,94.6814732 156.498183,92.071582 C156.867391,91.0507777 157.398564,90.0720685 157.985466,89.1582557 C158.359899,88.5741873 158.908487,88.0532614 159.48494,87.6586206 C162.069399,85.8906298 164.787957,87.9795952 164.986494,90.4105826 C165.089245,91.6453699 164.718295,92.755626 164.155775,93.8185253 C162.701581,96.5564556 160.817225,98.9383322 158.345966,100.823838 C158.224058,100.915044 158.116082,101.020282 158.049903,101.202694 C158.194452,101.130781 158.345966,101.069393 158.48529,100.986957 C159.117473,100.611609 159.727015,100.190659 160.383579,99.8661766 C160.93565,99.5943129 161.527777,99.3277111 162.128611,99.2452751 C163.985103,98.9927049 165.547273,100.292389 165.731877,102.177895 C165.796314,102.825106 165.582104,103.412682 165.239018,103.956409 C164.71307,104.78954 163.964204,105.385886 163.166575,105.922598 C162.539617,106.343548 161.884794,106.722403 161.254354,107.11529 C161.050592,107.609906 161.169018,108.072952 161.32924,108.511441 C161.512103,109.021844 161.982321,109.277922 162.581414,109.127081 C163.136968,108.990272 163.690781,108.785059 164.188864,108.50618 C164.787957,108.171173 165.320871,107.718652 165.895582,107.338043 C166.137658,107.176679 166.416306,107.073195 166.647932,106.959188 C167.07287,107.378384 167.029331,107.813366 166.943995,108.185205 C166.842985,108.630711 166.667089,109.092002 166.407598,109.462087 C165.519408,110.726692 162.795625,112.01059 160.764978,111.419506 C159.455333,111.037143 158.63158,110.051418 158.483549,108.59037 C158.387764,107.641478 158.556694,106.715387 158.781354,105.801575 C158.882364,105.384132 159.187135,105.133316 159.545894,104.915825 C160.383579,104.410685 161.214298,103.889759 162.032826,103.351294 C162.307991,103.170636 162.548325,102.928589 162.786917,102.695313 C163.013318,102.476068 163.088205,102.205958 162.95933,101.902523 C162.68939,101.592072 162.356754,101.62189 162.038051,101.755191 C161.526035,101.969174 161.005312,102.181403 160.528128,102.460282 C159.026912,103.328492 157.546595,104.226519 156.165547,105.05088 C155.874708,106.34881 155.655273,107.494145 155.352243,108.611417 C155.155448,109.342818 154.873317,110.05668 154.559838,110.745985 C154.241135,111.449323 153.504459,111.675584 152.816547,111.363379 C152.175657,111.070468 151.930099,110.449566 152.243578,109.737459 C152.870535,108.318506 153.29199,106.839918 153.598503,105.32099 C153.659457,105.017555 153.708221,104.708858 153.765692,104.375606 C152.710313,103.270611 151.705439,102.123522 150.195516,101.33424 C150.282593,101.62189 150.315683,101.765714 150.367929,101.900769 C151.430274,104.731659 151.090672,107.37663 149.185417,109.719919 C148.088241,111.070468 146.613149,111.680846 144.845476,111.314268 C143.723919,111.082746 142.928031,110.39344 142.38815,109.411223 C141.583555,107.950175 141.412883,106.362841 141.580072,104.726398 C141.621869,104.303693 141.695014,103.886251 141.75771,103.437238 C141.062831,102.598845 140.21818,101.942864 139.145386,101.300915 C139.222014,101.600842 139.242912,101.746421 139.293417,101.877968 C140.381886,104.707104 140.030093,107.352074 138.13877,109.698872 C137.013729,111.096777 135.493357,111.729957 133.682146,111.280943 C133.177096,111.156412 132.712103,110.868763 132.189638,110.642502 C132.140875,110.826668 132.076437,111.035389 132.025932,111.249372 C131.012351,115.737753 127.464815,119.050982 122.938528,119.780629 C119.899525,120.266476 117.006811,119.775367 114.227299,118.521287 C111.992891,117.514514 110.334936,115.885086 109.21512,113.697899 C109.054897,113.38394 108.892933,113.069981 108.737935,112.7683 C108.187606,113.294488 107.553682,113.725962 107.174024,114.320554 C106.886669,114.771322 106.884927,115.429057 106.82049,116.000847 C106.665492,117.377705 106.585381,118.765087 106.400776,120.140191 C106.291059,120.952274 106.116904,121.778389 105.827807,122.544869 C105.373262,123.758609 104.488555,124.584724 103.208517,124.914468 C102.336,125.138975 101.567977,124.91973 100.946244,124.277781 C99.9936166,123.299071 99.6923286,122.083578 99.814237,120.755831 C99.9413701,119.39125 100.48125,118.168741 101.186578,117.009374 C101.994657,115.683381 103.022171,114.536291 104.135021,113.46813 C104.492038,113.126108 104.694058,112.764793 104.71844,112.250882 C104.755012,111.472125 104.878662,110.700383 104.845573,109.833927 C104.683609,109.951442 104.51642,110.063695 104.357939,110.188226 C103.718791,110.686351 103.048294,111.140626 102.238474,111.270419 C101.069894,111.461601 100.091143,111.079238 99.3318279,110.153147 C99.1942455,109.986521 99.0671124,109.807617 98.9068899,109.598896 C98.6752638,109.742721 98.4732441,109.872514 98.2677413,109.997045 C97.1897223,110.647764 96.0577153,111.140626 94.8055414,111.338824 C93.1423618,111.600164 91.6707527,111.261649 90.463859,110.016338 C90.4029048,109.953196 90.3315013,109.900577 90.2130759,109.79534 C89.9727421,109.914609 89.721959,110.04791 89.4659513,110.160163 C88.5916936,110.547788 87.7365929,110.986278 86.8344704,111.294975 C85.6954971,111.684354 84.9361817,111.275681 84.5443331,110.125084 C84.1315859,108.91836 84.0880472,107.666033 84.2169218,106.40669 C84.3074824,105.524449 84.4154584,104.640454 84.3980429,103.69507 C84.3039993,103.842402 84.1977648,103.982719 84.119395,104.138821 C83.076207,106.215509 82.0434683,108.299212 80.9933141,110.372392 C80.8452824,110.663549 80.6554536,110.972246 80.406412,111.166936 C79.7498479,111.6826 78.7014353,111.442307 78.3635747,110.665303 C78.1545888,110.188226 78.0204895,109.62696 78.0361635,109.111296 C78.0849268,107.615168 78.2207677,106.120795 78.3322268,104.628176 C78.3653163,104.205472 78.4314951,103.784521 78.4872247,103.309199 C77.8289191,102.528687 77.0190987,101.913047 76.1396163,101.392121 C76.0925945,101.428954 76.0490557,101.464033 76.0020339,101.499113 C76.0786621,101.695556 76.1570318,101.890246 76.2319184,102.088443 C77.1897705,104.580819 76.7805064,108.158896 74.50256,110.20752 C73.3931931,111.207277 72.1096713,111.636997 70.6223882,111.312514 C69.7063333,111.114317 69.0062305,110.598653 68.4559009,109.85322 C68.3009031,109.642745 68.1546129,109.421746 67.9752333,109.165668 C67.5868679,109.490151 67.238558,109.793586 66.8780573,110.081235 C65.4691439,111.196753 63.9766362,112.164938 62.1828405,112.51573 C59.5356856,113.031394 57.5137469,111.428276 57.4963314,108.699115 C57.4911067,107.573073 57.7418898,106.438262 57.9299772,105.315728 C58.065818,104.501891 58.293961,103.702085 58.471599,102.895264 C58.5081715,102.730392 58.5029469,102.554996 58.5238455,102.297164 C56.7265666,102.488346 54.9937251,102.674265 53.2330188,102.861939 C53.1128519,103.203961 53.0031343,103.51792 52.8951582,103.831878 C52.1027533,106.113779 51.315573,108.393926 50.5144604,110.672319 C50.3873273,111.028373 50.2253632,111.377411 50.0320512,111.703647 C49.5148111,112.577119 48.4367921,112.868276 47.5346696,112.403477 C47.0261372,112.143891 46.7579386,111.712417 46.8084435,111.152904 C46.8484992,110.689859 46.9529921,110.223306 47.1010238,109.781308 C47.7175323,107.937897 48.363647,106.103256 48.9940879,104.261598 C49.1072886,103.926592 49.1961076,103.582816 49.3110498,103.188175 C48.8808872,103.111001 48.487297,103.07943 48.116347,102.963669 C47.6548365,102.819844 47.1933259,102.642694 46.7701295,102.409417 C46.5315372,102.277871 46.3208097,102.03407 46.1797443,101.792024 C45.7704802,101.079916 46.0822175,100.485324 46.8902964,100.42569 C47.7976435,100.362547 48.7102153,100.339746 49.6210456,100.304666 C49.863121,100.295897 50.1034548,100.302912 50.3908104,100.302912 C50.7182216,99.4522422 51.0613069,98.6524369 51.3295054,97.828076 C51.737028,96.5757492 52.161966,95.3199144 52.4423554,94.0377702 C52.5834209,93.3852974 52.5137589,92.6503885 52.3831427,91.98213 C52.1985385,91.0420079 51.366078,90.5842246 50.4517646,90.8543343 C50.0320512,90.9788654 49.6523935,91.2279276 49.2483541,91.4120933 C48.893078,91.5717036 48.5325773,91.7172822 48.0414604,91.9277573 C47.9909555,91.5629338 47.9108442,91.3366731 47.9404506,91.1279519 C48.274828,88.8653446 50.0773315,87.5954781 52.3099977,87.9901189 C54.8996814,88.4479023 55.9533187,90.3790113 55.7704561,92.8275384 C55.6067504,95.0287572 54.9310293,97.1247384 54.3197455,99.2294894 C54.2466005,99.4820595 54.1751969,99.7363836 54.05503,100.160842" fill="#FFFFFF"></path>
        </g>
    </g>
</svg>