<?xml version="1.0" encoding="UTF-8"?>
<svg width="212px" height="212px" viewBox="0 0 212 212" version="1.1" xmlns="http://www.w3.org/2000/svg" xmlns:xlink="http://www.w3.org/1999/xlink">
    <!-- Generator: Sketch 51.2 (57519) - http://www.bohemiancoding.com/sketch -->
    <title>Logos</title>
    <desc>Created with Sketch.</desc>
    <defs>
        <polygon id="path-1" points="0 0.376153846 16.9653296 0.376153846 16.9653296 21.1762492 0 21.1762492"></polygon>
    </defs>
    <g id="Logos" stroke="none" stroke-width="1" fill="none" fill-rule="evenodd">
        <g id="mindbody" transform="translate(38.000000, 95.000000)">
            <path d="M103.827572,13.0171154 C103.649431,12.3998077 103.921431,11.7651923 103.668586,11.0825 C103.323797,10.1536538 102.783628,9.43634615 102.11129,8.76711538 C101.011797,7.67096154 98.8511211,7.00365385 96.9816,7.86903846 C96.0200225,8.31519231 95.3285296,8.99403846 94.6830085,9.73057692 C94.1926423,10.2882692 94.0164169,11.0363462 93.8229521,11.7940385 C93.5873465,12.7248077 93.6007549,13.5151923 93.8536,14.4190385 C94.0968676,15.2959615 94.4416563,16.0882692 95.0220507,16.7575 C96.2920225,18.2228846 97.9834028,18.7036538 99.8050366,18.4190385 C100.914107,18.2459615 102.015515,17.6651923 102.6936,16.7209615 C103.461713,15.6517308 104.199177,14.4901923 103.827572,13.0171154 M98.5752901,20.8709615 C97.3148958,21.0825 96.0679099,20.6805769 94.8554028,20.0825 C94.0911211,19.7036538 93.5337127,19.0825 92.9686423,18.4767308 C92.4208113,17.8863462 91.7733746,17.3382692 91.7293183,16.4325 C90.7083606,14.9632692 90.8194592,13.2690385 90.9631211,11.6459615 C91.0837972,10.2767308 91.6048113,8.96903846 92.4801915,7.83634615 C93.1908394,6.91326923 94.0892056,6.21134615 95.0354592,5.59403846 C95.617769,5.21326923 96.313093,4.89403846 97.0524732,4.97288462 C97.517938,5.02480769 97.8742197,4.7075 98.2841352,4.70173077 C100.714896,4.66519231 102.957938,5.24019231 104.687628,7.05942308 C105.656868,8.07865385 106.204699,9.34019231 106.559065,10.7344231 C106.817656,11.7478846 106.886614,12.7536538 106.758276,13.7286538 C106.453713,16.0728846 105.538107,18.0978846 103.523008,19.5613462 C102.038501,20.6401923 100.446727,20.9901923 98.5752901,20.8709615" id="Fill-1" fill="#404041"></path>
            <path d="M111.130389,18.1384615 C113.026727,18.2269231 114.628079,18.075 115.890389,17.6442308 C117.106727,17.2307692 118.056811,16.4807692 118.618051,15.3 C119.068192,14.3557692 119.250163,13.3557692 119.165882,12.3 C119.075854,11.1673077 118.671685,10.1788462 117.970614,9.29615385 C117.009037,8.08269231 115.581994,7.89807692 114.220079,7.68846154 C113.225938,7.53653846 112.187741,7.65961538 111.130389,7.65961538 L111.130389,18.1384615 Z M108.441037,20.6192308 L108.441037,5.22884615 L109.4256,5.22884615 C111.258727,5.22884615 113.095685,5.18653846 114.928811,5.24230769 C116.719797,5.29615385 118.315403,5.87115385 119.637093,7.17115385 C120.608248,8.12692308 121.292079,9.2 121.656023,10.5211538 C121.734558,10.8057692 121.843741,11.0807692 121.847572,11.3788462 C121.857149,12.1865385 121.859065,12.9961538 121.849487,13.8057692 C121.830332,15.3673077 121.15991,16.6615385 120.188755,17.8326923 C119.202276,19.0211538 117.95529,19.8115385 116.470783,20.2038462 C115.735234,20.3980769 115.015008,20.6480769 114.22391,20.6307692 C112.308417,20.5923077 110.392924,20.6192308 108.441037,20.6192308 Z" id="Fill-3" fill="#404041"></path>
            <path d="M81.8032338,11.4396154 L85.2185577,11.4396154 C85.6667831,11.0703846 86.1628958,10.6607692 86.6053746,10.2953846 C86.657093,9.505 86.6819944,8.81269231 86.3372056,8.36653846 C84.8412056,7.26846154 83.2992338,7.79730769 81.8032338,7.63769231 L81.8032338,11.4396154 Z M87.1187268,16.9338462 C87.2125859,16.5819231 87.5094873,16.1011538 87.3830648,15.7915385 C87.1991775,15.3415385 87.2566423,14.7876923 86.7911775,14.4165385 C86.3678535,14.0723077 85.8430085,13.9473077 85.4062761,13.9069231 C84.1343887,13.7992308 82.845262,13.8703846 81.5676282,13.8703846 L81.5676282,18.2280769 C83.1421634,18.0492308 84.6898817,18.4684615 86.3180507,17.8146154 C86.5038535,17.6126923 86.8007549,17.2838462 87.1187268,16.9338462 Z M79.1138817,20.6357692 L79.1138817,5.23 C81.3645859,5.23 83.5980507,5.17807692 85.8238535,5.25692308 C86.6015437,5.28576923 87.4022197,5.56269231 87.9826141,6.19153846 C88.4519099,6.70307692 88.9097127,7.22423077 89.3081352,7.66461538 L89.3081352,10.2242308 C88.6951775,11.1953846 87.9653746,11.9453846 87.1532056,12.4242308 C87.329431,12.4876923 87.4941634,12.5242308 87.6397408,12.6011538 C89.0437972,13.3223077 89.6950648,14.0973077 90.0724169,15.5876923 C90.2850366,16.4223077 89.9766423,17.2280769 89.6529239,17.9434615 C89.0074028,19.3723077 87.7948958,20.0857692 86.2529239,20.3626923 C83.9198535,20.78 81.5752901,20.5376923 79.1138817,20.6357692 Z" id="Fill-5" fill="#404041"></path>
            <path d="M42.2008,20.5911538 L40.3504338,20.5911538 L40.3504338,7.96807692 C39.9251944,8.87961538 39.5191099,9.51615385 39.3275606,10.2142308 C38.9942648,11.4296154 38.3640676,12.5142308 37.9349972,13.6853846 C37.4388845,15.0507692 36.7876169,16.3546154 36.3087437,17.7353846 C35.9697014,18.7103846 35.4295324,19.6180769 34.9717296,20.5776923 L34.0158986,20.5776923 C33.9373634,20.4219231 33.8243493,20.2430769 33.7515606,20.0507692 C33.0983775,18.3411538 32.3340958,16.6776923 31.6770817,14.9738462 C31.0028282,13.2296154 30.1351099,11.5661538 29.5891944,9.76615385 C29.3976451,9.14115385 28.9915606,8.57961538 28.6793352,7.97576923 C28.6793352,7.97576923 28.6410254,7.96807692 28.6180394,7.98153846 C28.5835606,8.00461538 28.5337577,8.04692308 28.5337577,8.07769231 C28.5299268,12.2180769 28.5299268,16.3546154 28.5299268,20.5546154 L26.9534761,20.5546154 L26.9534761,5.28538462 L29.3152789,5.28538462 C30.3209127,7.12192308 31.0679549,9.19884615 31.9414197,11.2180769 C32.7938141,13.1892308 33.6423775,15.1642308 34.5349972,17.2315385 C36.2742648,13.1507692 37.9522366,9.21423077 39.6397859,5.25461538 L42.2008,5.25461538 L42.2008,20.5911538 Z" id="Fill-7" fill="#404041"></path>
            <g id="Group-11" transform="translate(0.000000, 0.806923)">
                <mask id="mask-2" fill="white">
                    <use xlink:href="#path-1"></use>
                </mask>
                <g id="Clip-10"></g>
                <path d="M5.6715831,21.1626923 C4.69851268,21.2915385 4.16792113,20.4684615 3.41704789,20.1126923 C2.79068169,19.0088462 1.79079437,18.1761538 1.30042817,16.9492308 C0.827301408,15.7626923 0.237329577,14.6415385 0.29096338,13.3203846 C0.312033803,12.7992308 -0.0423323944,12.3723077 0.00363943662,11.8126923 C0.137723944,10.2761538 0.398230986,8.75115385 0.884766197,7.31269231 C1.12611831,6.59730769 1.47665352,5.69346154 2.40566761,5.41269231 C2.72747042,5.31269231 3.0607662,5.24923077 3.48025915,5.14538462 C4.30009014,3.79730769 5.49918873,2.71653846 7.01625915,1.99153846 C7.18865352,2.47038462 7.49704789,2.26653846 7.79586479,2.15692308 C7.97975211,2.09153846 8.1732169,2.04730769 8.36093521,1.99153846 C8.65975211,1.90115385 8.96048451,1.82615385 9.24780845,1.71461538 C9.33209014,1.68 9.37614648,1.54346154 9.43744225,1.45307692 C9.98910423,1.44923077 10.466062,0.993461538 11.0522028,1.18192308 C11.3184563,1.16269231 11.5866254,1.14153846 11.8567099,1.12038462 C11.7417803,0.918461538 11.6651606,0.778076923 11.5885408,0.641538462 C11.7322028,0.558846154 11.8739493,0.476153846 12.0425127,0.376153846 C12.8891606,0.501153846 13.5385127,1.13384615 14.3315268,1.46653846 C14.5920338,1.57615385 14.9100056,1.81269231 14.9904563,2.06076923 C15.3141746,3.05692308 16.2259493,3.05115385 16.9653296,3.34153846 L16.9653296,4.06846154 C16.6569352,4.00884615 16.4251606,3.96461538 16.0363155,3.88961538 C16.6933296,4.56269231 16.6933296,4.56269231 16.5017803,4.75307692 C16.2489352,4.56461538 15.9865127,4.36846154 15.6953577,4.15115385 L14.5479775,4.15115385 C13.7434704,3.93 12.9332169,3.72038462 12.1344563,3.48 C11.538738,3.30115385 11.006231,3.25115385 10.3971042,3.55692308 C9.81096338,3.84730769 9.08882254,3.78769231 8.48927324,4.14153846 C7.95293521,4.45692308 7.39169577,4.75692308 6.80555493,4.93961538 C6.35541408,5.08192308 6.15620282,5.70307692 5.54899155,5.52807692 C5.44172394,5.49730769 5.1812169,5.78384615 5.08352676,5.97230769 C4.61806197,6.86076923 3.99169577,7.67038462 4.03575211,8.78384615 C4.06448451,9.55307692 3.84420282,10.3261538 3.79823099,11.1030769 C3.74651268,12.0088462 3.77332958,12.8973077 4.27518873,13.7396154 C4.4188507,13.98 4.54335775,14.3665385 4.57592113,14.6819231 C4.64487887,15.3492308 4.59507606,16.0280769 4.59507606,16.7146154 C4.81344225,16.9319231 5.0452169,17.1434615 5.25783662,17.3742308 C5.49344225,17.6319231 5.70989296,17.9088462 5.9435831,18.1665385 C6.11406197,18.3607692 6.29986479,18.5453846 6.47992113,18.7319231 C6.30369577,18.8723077 6.12747042,19.0107692 5.90335775,19.1896154 C6.10831549,19.355 6.31135775,19.5184615 6.47800563,19.6530769 C6.37648451,20.0319231 6.33817465,20.3723077 6.19451268,20.6607692 C6.09490704,20.8646154 5.85163944,20.9973077 5.6715831,21.1626923" id="Fill-9" fill="#404041" mask="url(#mask-2)"></path>
            </g>
            <path d="M59.6946141,17.8755769 L59.6946141,5.26788462 L61.5507268,5.26788462 L61.5507268,20.5832692 L59.3517408,20.5832692 C56.4919099,16.3621154 53.6416563,12.1525 50.7990648,7.95826923 C50.7243606,7.97365385 50.6860507,7.97173077 50.6630648,7.98903846 C50.6305014,8.01403846 50.5864451,8.05634615 50.5864451,8.08903846 C50.5826141,12.2255769 50.5826141,16.3582692 50.5826141,20.5563462 L49.0061634,20.5563462 L49.0061634,5.28903846 L51.1400225,5.28903846 C51.8717408,6.30057692 52.773938,7.39865385 53.5094873,8.59865385 C54.7028394,10.5505769 56.0130366,12.4198077 57.3194028,14.2948077 C58.089431,15.4025 58.8134873,16.5448077 59.6946141,17.8755769" id="Fill-12" fill="#404041"></path>
            <path d="M65.9329915,18.9986538 C66.8524282,18.9986538 67.6588507,19.0351923 68.4633577,18.9890385 C69.2793577,18.9448077 70.1068507,18.8909615 70.8998648,18.7101923 C71.7886535,18.5044231 72.6870197,18.2332692 73.3785127,17.5736538 C74.3324282,16.6621154 75.0162592,15.6063462 75.0564845,14.2294231 C75.7518085,13.0909615 75.0584,11.9505769 75.0239211,10.8140385 C75.0085972,10.3101923 74.7289352,9.74480769 74.4071324,9.34096154 C73.9110197,8.71980769 73.3536113,8.06788462 72.6774423,7.69673077 C71.8920901,7.26403846 70.9649915,6.96980769 70.0742873,6.88326923 C68.7123718,6.7525 67.3293859,6.85057692 65.9329915,6.85057692 L65.9329915,18.9986538 Z M64.053893,20.6601923 L64.053893,5.22942308 C65.8812732,5.22942308 67.7009915,5.24096154 69.5226254,5.22557692 C70.6029634,5.21596154 71.6392451,5.26788462 72.6716958,5.73326923 C73.2271887,5.98134615 73.6715831,6.34865385 74.1696113,6.65057692 C74.6235831,6.92942308 75.0181746,7.24096154 75.3725408,7.72173077 C75.9835831,8.55442308 76.5065127,9.38519231 76.8206535,10.3698077 C77.3014423,11.8698077 77.2439775,12.5236538 76.9834704,14.2794231 C76.8723718,15.0159615 76.6808225,15.6736538 76.406907,16.3428846 C75.7901183,17.8525 74.6408225,18.8871154 73.3363718,19.7428846 C72.7981183,20.0948077 72.1104563,20.2255769 71.4476958,20.3659615 C69.0322592,20.8813462 66.5957521,20.4640385 64.053893,20.6601923 Z" id="Fill-14" fill="#404041"></path>
            <path d="M131.877285,5.26096154 L135.060834,5.26096154 C133.175989,8.20903846 131.329454,11.0975 129.387144,14.1359615 L129.387144,20.5705769 L126.990862,20.5705769 C126.981285,20.1032692 126.965961,19.5801923 126.96213,19.0590385 C126.956383,18.1148077 126.960214,17.1686538 126.960214,16.2263462 C126.960214,14.1378846 126.933397,13.9359615 125.85689,12.3686538 C124.567763,10.4878846 123.385904,8.53403846 122.121679,6.63788462 C121.843932,6.21865385 121.596834,5.77826923 121.303763,5.29365385 L124.523707,5.29365385 C125.805172,7.09365385 126.877848,9.20134615 128.18613,11.2840385 C129.442693,9.23211538 130.651369,7.25903846 131.877285,5.26096154" id="Fill-16" fill="#404041"></path>
            <path d="M46.1532282,20.5930769 L44.707031,20.5930769 L44.707031,5.28538462 C45.2529465,5.15269231 45.8601577,5.27192308 46.5497352,5.20846154 L46.5497352,6.58538462 C46.5497352,10.8507692 46.5516507,15.1161538 46.5478197,19.3834615 C46.5478197,19.8142308 46.6819042,20.2969231 46.1532282,20.5930769" id="Fill-18" fill="#404041"></path>
            <path d="M5.6715831,21.9696154 C5.85163944,21.8042308 6.09490704,21.6715385 6.19451268,21.4676923 C6.33817465,21.1792308 6.37648451,20.8388462 6.47800563,20.46 C6.31135775,20.3253846 6.10831549,20.1619231 5.90335775,19.9965385 C6.12747042,19.8176923 6.30369577,19.6792308 6.47992113,19.5388462 C6.9224,19.4176923 7.10245634,19.7830769 7.2499493,19.9176923 C7.72882254,19.9811538 8.13682254,20.16 8.43755493,20.0484615 C8.85704789,19.8946154 9.19609014,20.5734615 9.56961127,20.0811538 C9.84161127,20.5984615 10.3932732,20.1869231 10.7629634,20.4484615 C11.0981746,20.685 11.4946817,20.8388462 11.8624563,21.0292308 C12.3815549,21.8888462 12.3815549,21.8888462 12.3968789,22.9023077 C11.6919775,23.6926923 10.8989634,24.2523077 9.75924507,23.5888462 C7.82842817,23.4523077 6.98561127,22.7715385 5.6715831,21.9696154" id="Fill-20" fill="#404041"></path>
            <path d="M14.5475944,4.95865385 L15.6968901,4.95865385 C15.9861296,5.17403846 16.2504676,5.37211538 16.5033127,5.55865385 C16.6929465,5.37019231 16.6929465,5.37019231 16.0359324,4.69519231 C16.4247775,4.77019231 16.6584676,4.81634615 16.966862,4.87596154 L16.966862,4.14903846 C17.4533972,4.57211538 17.9380169,4.99326923 18.4571155,5.44519231 C18.6390873,5.4375 18.9206648,4.87403846 19.1198761,5.49903846 C19.2099042,5.58942308 19.2961014,5.67980769 19.3861296,5.77019231 C20.1925521,6.44519231 20.6312,7.39519231 21.1694535,8.2625 C21.3092845,8.4875 21.299707,8.85288462 21.2556507,9.13942308 C21.1962704,9.52403846 21.3973972,9.78942308 21.5391437,10.0894231 C21.2652282,10.0528846 21.0238761,10.1009615 20.8668056,10.3605769 C20.7097352,10.6163462 20.4683831,10.6663462 20.1944676,10.6278846 C19.6792,10.5682692 20.0680451,10.1048077 19.7404958,9.76442308 C19.4972282,9.62980769 19.0968901,9.40673077 18.6275944,9.15096154 C17.9437634,7.89519231 17.0760451,6.6625 15.9114254,5.67596154 C15.6375099,5.44711538 15.2314254,5.38365385 14.8962141,5.22596154 C14.7659606,5.1625 14.6625239,5.04903846 14.5475944,4.95865385" id="Fill-22" fill="#404041"></path>
            <path d="M20.1950423,10.6282692 C20.4689577,10.6667308 20.7103099,10.6167308 20.8673803,10.3590385 C21.0244507,10.1013462 21.2658028,10.0532692 21.5397183,10.0898077 L21.5397183,10.7975 C21.6852958,10.8475 21.8404507,10.9013462 22.0377465,10.9686538 C22.1660845,12.2032692 22.2982535,13.4590385 22.4170141,14.5955769 C21.9189859,15.4840385 21.4439437,16.2071154 21.2351549,17.0975 C21.1163944,17.5975 20.6547606,18.0263462 20.3157183,18.4609615 C20.0954366,18.7417308 19.8157746,18.9744231 19.4978028,19.2936538 C19.2047324,19.1609615 18.8810141,19.0148077 18.496,18.8417308 C18.9020845,18.1378846 19.2794366,17.4878846 19.6567887,16.8378846 C19.7966197,16.9205769 19.9383662,17.0032692 20.0820282,17.0878846 C20.1988732,16.8475 20.3138028,16.6109615 20.392338,16.4494231 C20.3003944,16.2551923 20.2467606,16.1417308 20.1950423,16.0301923 C20.0303099,15.7032692 19.8655775,15.3782692 19.72,15.0898077 C19.9613521,14.5051923 20.2161127,13.9436538 20.2007887,13.2878846 C20.1778028,12.4013462 20.1950423,11.5148077 20.1950423,10.6282692" id="Fill-24" fill="#404041"></path>
            <path d="M11.5883493,1.44865385 C11.664969,1.58519231 11.7415887,1.72557692 11.8565183,1.9275 C11.5864338,1.94865385 11.3182648,1.96980769 11.0520113,1.98903846 L10.7819268,1.71980769 C10.5118423,1.34865385 10.2455887,1.34865385 9.97550423,1.71980769 L9.4372507,1.71980769 L9.4372507,2.26019231 C9.37595493,2.35057692 9.33189859,2.48711538 9.2476169,2.52173077 C8.96029296,2.63326923 8.65956056,2.70826923 8.36074366,2.79865385 L8.09257465,2.52942308 C8.00254648,2.35057692 7.91251831,2.16980769 7.82249014,1.98903846 L8.60209577,1.91019231 C8.5963493,1.84673077 8.59060282,1.78326923 8.58485634,1.71980769 L7.82249014,1.71980769 C8.09640563,1.36596154 8.43927887,1.15826923 8.89899718,1.17942308 C8.96795493,1.26788462 9.03499718,1.35826923 9.10203944,1.44865385 C9.21505352,1.35826923 9.32423662,1.26788462 9.4372507,1.17942308 C9.55026479,1.08903846 9.69009577,0.9025 9.77246197,0.925576923 C10.3394479,1.08134615 10.9026028,1.22942308 11.4964056,1.23326923 C11.528969,1.23326923 11.5577014,1.37365385 11.5883493,1.44865385" id="Fill-26" fill="#404041"></path>
            <path d="M20.1950423,16.0294231 C20.2467606,16.1428846 20.3003944,16.2544231 20.392338,16.4505769 C20.3138028,16.6121154 20.1988732,16.8486538 20.0820282,17.0890385 C19.9383662,17.0044231 19.7966197,16.9217308 19.6567887,16.8390385 C19.6127324,16.4198077 19.7698028,16.1351923 20.1950423,16.0294231" id="Fill-28" fill="#404041"></path>
            <path d="M8.09219155,2.52846154 L8.36227606,2.79961538 C8.17264225,2.85346154 7.97917746,2.89769231 7.79720563,2.965 C7.49647324,3.07269231 7.18807887,3.27846154 7.01568451,2.79961538 C7.21106479,2.73807692 7.40452958,2.67076923 7.60182535,2.62076923 C7.76272676,2.57846154 7.92937465,2.55923077 8.09219155,2.52846154" id="Fill-30" fill="#404041"></path>
            <path d="M7.82287324,1.71903846 L8.58332394,1.71903846 C8.58907042,1.7825 8.59673239,1.84596154 8.60247887,1.91134615 L7.82287324,1.99019231 L7.82287324,1.71903846 Z" id="Fill-32" fill="#404041"></path>
            <path d="M9.4372507,1.18019231 C9.32423662,1.26865385 9.21505352,1.35903846 9.10203944,1.44942308 C9.03499718,1.35903846 8.96795493,1.26865385 8.89899718,1.18019231 L9.4372507,1.18019231 Z" id="Fill-34" fill="#404041"></path>
            <path d="M19.3868958,5.77 C19.2968676,5.67961538 19.2087549,5.58923077 19.1187268,5.49884615 C19.2087549,5.58923077 19.2968676,5.67961538 19.3868958,5.77" id="Fill-36" fill="#404041"></path>
            <path d="M10.7821183,1.71903846 L11.0522028,1.99019231 C10.466062,1.79980769 9.98910423,2.25557692 9.43744225,2.25942308 L9.43744225,1.71903846 L9.97569577,1.71903846 L10.7821183,1.71903846 Z" id="Fill-38" fill="#404041"></path>
            <path d="M10.7821183,1.71903846 L9.97569577,1.71903846 C10.2457803,1.34980769 10.5101183,1.34980769 10.7821183,1.71903846" id="Fill-40" fill="#404041"></path>
            <text id="EXIT" opacity="0.200000003" font-family="AvenirNext-Medium, Avenir Next" font-size="14" font-weight="400" line-spacing="27.6" letter-spacing="0.1166667" fill="#0745AF">
                <tspan x="53" y="88">EXIT</tspan>
            </text>
        </g>
    </g>
</svg>