<?xml version="1.0" encoding="UTF-8"?>
<svg width="212px" height="212px" viewBox="0 0 212 212" version="1.1" xmlns="http://www.w3.org/2000/svg" xmlns:xlink="http://www.w3.org/1999/xlink">
    <!-- Generator: Sketch 51.2 (57519) - http://www.bohemiancoding.com/sketch -->
    <title>Logos-Hover</title>
    <desc>Created with Sketch.</desc>
    <defs>
        <polygon id="path-1" points="0 0.376153846 16.9653296 0.376153846 16.9653296 21.1762492 0 21.1762492"></polygon>
    </defs>
    <g id="Logos-Hover" stroke="none" stroke-width="1" fill="none" fill-rule="evenodd">
        <g id="mindbody-exit">
            <rect id="Rectangle-Copy-2" fill="#B82C6D" x="0" y="0" width="216" height="214"></rect>
            <path d="M141.827572,108.017115 C141.649431,107.399808 141.921431,106.765192 141.668586,106.0825 C141.323797,105.153654 140.783628,104.436346 140.11129,103.767115 C139.011797,102.670962 136.851121,102.003654 134.9816,102.869038 C134.020023,103.315192 133.32853,103.994038 132.683008,104.730577 C132.192642,105.288269 132.016417,106.036346 131.822952,106.794038 C131.587346,107.724808 131.600755,108.515192 131.8536,109.419038 C132.096868,110.295962 132.441656,111.088269 133.022051,111.7575 C134.292023,113.222885 135.983403,113.703654 137.805037,113.419038 C138.914107,113.245962 140.015515,112.665192 140.6936,111.720962 C141.461713,110.651731 142.199177,109.490192 141.827572,108.017115 M136.57529,115.870962 C135.314896,116.0825 134.06791,115.680577 132.855403,115.0825 C132.091121,114.703654 131.533713,114.0825 130.968642,113.476731 C130.420811,112.886346 129.773375,112.338269 129.729318,111.4325 C128.708361,109.963269 128.819459,108.269038 128.963121,106.645962 C129.083797,105.276731 129.604811,103.969038 130.480192,102.836346 C131.190839,101.913269 132.089206,101.211346 133.035459,100.594038 C133.617769,100.213269 134.313093,99.8940385 135.052473,99.9728846 C135.517938,100.024808 135.87422,99.7075 136.284135,99.7017308 C138.714896,99.6651923 140.957938,100.240192 142.687628,102.059423 C143.656868,103.078654 144.204699,104.340192 144.559065,105.734423 C144.817656,106.747885 144.886614,107.753654 144.758276,108.728654 C144.453713,111.072885 143.538107,113.097885 141.523008,114.561346 C140.038501,115.640192 138.446727,115.990192 136.57529,115.870962" id="Fill-1" fill="#FFFFFF"></path>
            <path d="M149.130389,113.138462 C151.026727,113.226923 152.628079,113.075 153.890389,112.644231 C155.106727,112.230769 156.056811,111.480769 156.618051,110.3 C157.068192,109.355769 157.250163,108.355769 157.165882,107.3 C157.075854,106.167308 156.671685,105.178846 155.970614,104.296154 C155.009037,103.082692 153.581994,102.898077 152.220079,102.688462 C151.225938,102.536538 150.187741,102.659615 149.130389,102.659615 L149.130389,113.138462 Z M146.441037,115.619231 L146.441037,100.228846 L147.4256,100.228846 C149.258727,100.228846 151.095685,100.186538 152.928811,100.242308 C154.719797,100.296154 156.315403,100.871154 157.637093,102.171154 C158.608248,103.126923 159.292079,104.2 159.656023,105.521154 C159.734558,105.805769 159.843741,106.080769 159.847572,106.378846 C159.857149,107.186538 159.859065,107.996154 159.849487,108.805769 C159.830332,110.367308 159.15991,111.661538 158.188755,112.832692 C157.202276,114.021154 155.95529,114.811538 154.470783,115.203846 C153.735234,115.398077 153.015008,115.648077 152.22391,115.630769 C150.308417,115.592308 148.392924,115.619231 146.441037,115.619231 Z" id="Fill-3" fill="#FFFFFF"></path>
            <path d="M119.803234,106.439615 L123.218558,106.439615 C123.666783,106.070385 124.162896,105.660769 124.605375,105.295385 C124.657093,104.505 124.681994,103.812692 124.337206,103.366538 C122.841206,102.268462 121.299234,102.797308 119.803234,102.637692 L119.803234,106.439615 Z M125.118727,111.933846 C125.212586,111.581923 125.509487,111.101154 125.383065,110.791538 C125.199177,110.341538 125.256642,109.787692 124.791177,109.416538 C124.367854,109.072308 123.843008,108.947308 123.406276,108.906923 C122.134389,108.799231 120.845262,108.870385 119.567628,108.870385 L119.567628,113.228077 C121.142163,113.049231 122.689882,113.468462 124.318051,112.814615 C124.503854,112.612692 124.800755,112.283846 125.118727,111.933846 Z M117.113882,115.635769 L117.113882,100.23 C119.364586,100.23 121.598051,100.178077 123.823854,100.256923 C124.601544,100.285769 125.40222,100.562692 125.982614,101.191538 C126.45191,101.703077 126.909713,102.224231 127.308135,102.664615 L127.308135,105.224231 C126.695177,106.195385 125.965375,106.945385 125.153206,107.424231 C125.329431,107.487692 125.494163,107.524231 125.639741,107.601154 C127.043797,108.322308 127.695065,109.097308 128.072417,110.587692 C128.285037,111.422308 127.976642,112.228077 127.652924,112.943462 C127.007403,114.372308 125.794896,115.085769 124.252924,115.362692 C121.919854,115.78 119.57529,115.537692 117.113882,115.635769 Z" id="Fill-5" fill="#FFFFFF"></path>
            <path d="M80.2008,115.591154 L78.3504338,115.591154 L78.3504338,102.968077 C77.9251944,103.879615 77.5191099,104.516154 77.3275606,105.214231 C76.9942648,106.429615 76.3640676,107.514231 75.9349972,108.685385 C75.4388845,110.050769 74.7876169,111.354615 74.3087437,112.735385 C73.9697014,113.710385 73.4295324,114.618077 72.9717296,115.577692 L72.0158986,115.577692 C71.9373634,115.421923 71.8243493,115.243077 71.7515606,115.050769 C71.0983775,113.341154 70.3340958,111.677692 69.6770817,109.973846 C69.0028282,108.229615 68.1351099,106.566154 67.5891944,104.766154 C67.3976451,104.141154 66.9915606,103.579615 66.6793352,102.975769 C66.6793352,102.975769 66.6410254,102.968077 66.6180394,102.981538 C66.5835606,103.004615 66.5337577,103.046923 66.5337577,103.077692 C66.5299268,107.218077 66.5299268,111.354615 66.5299268,115.554615 L64.9534761,115.554615 L64.9534761,100.285385 L67.3152789,100.285385 C68.3209127,102.121923 69.0679549,104.198846 69.9414197,106.218077 C70.7938141,108.189231 71.6423775,110.164231 72.5349972,112.231538 C74.2742648,108.150769 75.9522366,104.214231 77.6397859,100.254615 L80.2008,100.254615 L80.2008,115.591154 Z" id="Fill-7" fill="#FFFFFF"></path>
            <g id="Group-11" transform="translate(38.000000, 95.806923)">
                <mask id="mask-2" fill="white">
                    <use xlink:href="#path-1"></use>
                </mask>
                <g id="Clip-10"></g>
                <path d="M5.6715831,21.1626923 C4.69851268,21.2915385 4.16792113,20.4684615 3.41704789,20.1126923 C2.79068169,19.0088462 1.79079437,18.1761538 1.30042817,16.9492308 C0.827301408,15.7626923 0.237329577,14.6415385 0.29096338,13.3203846 C0.312033803,12.7992308 -0.0423323944,12.3723077 0.00363943662,11.8126923 C0.137723944,10.2761538 0.398230986,8.75115385 0.884766197,7.31269231 C1.12611831,6.59730769 1.47665352,5.69346154 2.40566761,5.41269231 C2.72747042,5.31269231 3.0607662,5.24923077 3.48025915,5.14538462 C4.30009014,3.79730769 5.49918873,2.71653846 7.01625915,1.99153846 C7.18865352,2.47038462 7.49704789,2.26653846 7.79586479,2.15692308 C7.97975211,2.09153846 8.1732169,2.04730769 8.36093521,1.99153846 C8.65975211,1.90115385 8.96048451,1.82615385 9.24780845,1.71461538 C9.33209014,1.68 9.37614648,1.54346154 9.43744225,1.45307692 C9.98910423,1.44923077 10.466062,0.993461538 11.0522028,1.18192308 C11.3184563,1.16269231 11.5866254,1.14153846 11.8567099,1.12038462 C11.7417803,0.918461538 11.6651606,0.778076923 11.5885408,0.641538462 C11.7322028,0.558846154 11.8739493,0.476153846 12.0425127,0.376153846 C12.8891606,0.501153846 13.5385127,1.13384615 14.3315268,1.46653846 C14.5920338,1.57615385 14.9100056,1.81269231 14.9904563,2.06076923 C15.3141746,3.05692308 16.2259493,3.05115385 16.9653296,3.34153846 L16.9653296,4.06846154 C16.6569352,4.00884615 16.4251606,3.96461538 16.0363155,3.88961538 C16.6933296,4.56269231 16.6933296,4.56269231 16.5017803,4.75307692 C16.2489352,4.56461538 15.9865127,4.36846154 15.6953577,4.15115385 L14.5479775,4.15115385 C13.7434704,3.93 12.9332169,3.72038462 12.1344563,3.48 C11.538738,3.30115385 11.006231,3.25115385 10.3971042,3.55692308 C9.81096338,3.84730769 9.08882254,3.78769231 8.48927324,4.14153846 C7.95293521,4.45692308 7.39169577,4.75692308 6.80555493,4.93961538 C6.35541408,5.08192308 6.15620282,5.70307692 5.54899155,5.52807692 C5.44172394,5.49730769 5.1812169,5.78384615 5.08352676,5.97230769 C4.61806197,6.86076923 3.99169577,7.67038462 4.03575211,8.78384615 C4.06448451,9.55307692 3.84420282,10.3261538 3.79823099,11.1030769 C3.74651268,12.0088462 3.77332958,12.8973077 4.27518873,13.7396154 C4.4188507,13.98 4.54335775,14.3665385 4.57592113,14.6819231 C4.64487887,15.3492308 4.59507606,16.0280769 4.59507606,16.7146154 C4.81344225,16.9319231 5.0452169,17.1434615 5.25783662,17.3742308 C5.49344225,17.6319231 5.70989296,17.9088462 5.9435831,18.1665385 C6.11406197,18.3607692 6.29986479,18.5453846 6.47992113,18.7319231 C6.30369577,18.8723077 6.12747042,19.0107692 5.90335775,19.1896154 C6.10831549,19.355 6.31135775,19.5184615 6.47800563,19.6530769 C6.37648451,20.0319231 6.33817465,20.3723077 6.19451268,20.6607692 C6.09490704,20.8646154 5.85163944,20.9973077 5.6715831,21.1626923" id="Fill-9" fill="#FFFFFF" mask="url(#mask-2)"></path>
            </g>
            <path d="M97.6946141,112.875577 L97.6946141,100.267885 L99.5507268,100.267885 L99.5507268,115.583269 L97.3517408,115.583269 C94.4919099,111.362115 91.6416563,107.1525 88.7990648,102.958269 C88.7243606,102.973654 88.6860507,102.971731 88.6630648,102.989038 C88.6305014,103.014038 88.5864451,103.056346 88.5864451,103.089038 C88.5826141,107.225577 88.5826141,111.358269 88.5826141,115.556346 L87.0061634,115.556346 L87.0061634,100.289038 L89.1400225,100.289038 C89.8717408,101.300577 90.773938,102.398654 91.5094873,103.598654 C92.7028394,105.550577 94.0130366,107.419808 95.3194028,109.294808 C96.089431,110.4025 96.8134873,111.544808 97.6946141,112.875577" id="Fill-12" fill="#FFFFFF"></path>
            <path d="M103.932992,113.998654 C104.852428,113.998654 105.658851,114.035192 106.463358,113.989038 C107.279358,113.944808 108.106851,113.890962 108.899865,113.710192 C109.788654,113.504423 110.68702,113.233269 111.378513,112.573654 C112.332428,111.662115 113.016259,110.606346 113.056485,109.229423 C113.751808,108.090962 113.0584,106.950577 113.023921,105.814038 C113.008597,105.310192 112.728935,104.744808 112.407132,104.340962 C111.91102,103.719808 111.353611,103.067885 110.677442,102.696731 C109.89209,102.264038 108.964992,101.969808 108.074287,101.883269 C106.712372,101.7525 105.329386,101.850577 103.932992,101.850577 L103.932992,113.998654 Z M102.053893,115.660192 L102.053893,100.229423 C103.881273,100.229423 105.700992,100.240962 107.522625,100.225577 C108.602963,100.215962 109.639245,100.267885 110.671696,100.733269 C111.227189,100.981346 111.671583,101.348654 112.169611,101.650577 C112.623583,101.929423 113.018175,102.240962 113.372541,102.721731 C113.983583,103.554423 114.506513,104.385192 114.820654,105.369808 C115.301442,106.869808 115.243977,107.523654 114.98347,109.279423 C114.872372,110.015962 114.680823,110.673654 114.406907,111.342885 C113.790118,112.8525 112.640823,113.887115 111.336372,114.742885 C110.798118,115.094808 110.110456,115.225577 109.447696,115.365962 C107.032259,115.881346 104.595752,115.464038 102.053893,115.660192 Z" id="Fill-14" fill="#FFFFFF"></path>
            <path d="M169.877285,100.260962 L173.060834,100.260962 C171.175989,103.209038 169.329454,106.0975 167.387144,109.135962 L167.387144,115.570577 L164.990862,115.570577 C164.981285,115.103269 164.965961,114.580192 164.96213,114.059038 C164.956383,113.114808 164.960214,112.168654 164.960214,111.226346 C164.960214,109.137885 164.933397,108.935962 163.85689,107.368654 C162.567763,105.487885 161.385904,103.534038 160.121679,101.637885 C159.843932,101.218654 159.596834,100.778269 159.303763,100.293654 L162.523707,100.293654 C163.805172,102.093654 164.877848,104.201346 166.18613,106.284038 C167.442693,104.232115 168.651369,102.259038 169.877285,100.260962" id="Fill-16" fill="#FFFFFF"></path>
            <path d="M84.1532282,115.593077 L82.707031,115.593077 L82.707031,100.285385 C83.2529465,100.152692 83.8601577,100.271923 84.5497352,100.208462 L84.5497352,101.585385 C84.5497352,105.850769 84.5516507,110.116154 84.5478197,114.383462 C84.5478197,114.814231 84.6819042,115.296923 84.1532282,115.593077" id="Fill-18" fill="#FFFFFF"></path>
            <path d="M43.6715831,116.969615 C43.8516394,116.804231 44.094907,116.671538 44.1945127,116.467692 C44.3381746,116.179231 44.3764845,115.838846 44.4780056,115.46 C44.3113577,115.325385 44.1083155,115.161923 43.9033577,114.996538 C44.1274704,114.817692 44.3036958,114.679231 44.4799211,114.538846 C44.9224,114.417692 45.1024563,114.783077 45.2499493,114.917692 C45.7288225,114.981154 46.1368225,115.16 46.4375549,115.048462 C46.8570479,114.894615 47.1960901,115.573462 47.5696113,115.081154 C47.8416113,115.598462 48.3932732,115.186923 48.7629634,115.448462 C49.0981746,115.685 49.4946817,115.838846 49.8624563,116.029231 C50.3815549,116.888846 50.3815549,116.888846 50.3968789,117.902308 C49.6919775,118.692692 48.8989634,119.252308 47.7592451,118.588846 C45.8284282,118.452308 44.9856113,117.771538 43.6715831,116.969615" id="Fill-20" fill="#FFFFFF"></path>
            <path d="M52.5475944,99.9586538 L53.6968901,99.9586538 C53.9861296,100.174038 54.2504676,100.372115 54.5033127,100.558654 C54.6929465,100.370192 54.6929465,100.370192 54.0359324,99.6951923 C54.4247775,99.7701923 54.6584676,99.8163462 54.966862,99.8759615 L54.966862,99.1490385 C55.4533972,99.5721154 55.9380169,99.9932692 56.4571155,100.445192 C56.6390873,100.4375 56.9206648,99.8740385 57.1198761,100.499038 C57.2099042,100.589423 57.2961014,100.679808 57.3861296,100.770192 C58.1925521,101.445192 58.6312,102.395192 59.1694535,103.2625 C59.3092845,103.4875 59.299707,103.852885 59.2556507,104.139423 C59.1962704,104.524038 59.3973972,104.789423 59.5391437,105.089423 C59.2652282,105.052885 59.0238761,105.100962 58.8668056,105.360577 C58.7097352,105.616346 58.4683831,105.666346 58.1944676,105.627885 C57.6792,105.568269 58.0680451,105.104808 57.7404958,104.764423 C57.4972282,104.629808 57.0968901,104.406731 56.6275944,104.150962 C55.9437634,102.895192 55.0760451,101.6625 53.9114254,100.675962 C53.6375099,100.447115 53.2314254,100.383654 52.8962141,100.225962 C52.7659606,100.1625 52.6625239,100.049038 52.5475944,99.9586538" id="Fill-22" fill="#FFFFFF"></path>
            <path d="M58.1950423,105.628269 C58.4689577,105.666731 58.7103099,105.616731 58.8673803,105.359038 C59.0244507,105.101346 59.2658028,105.053269 59.5397183,105.089808 L59.5397183,105.7975 C59.6852958,105.8475 59.8404507,105.901346 60.0377465,105.968654 C60.1660845,107.203269 60.2982535,108.459038 60.4170141,109.595577 C59.9189859,110.484038 59.4439437,111.207115 59.2351549,112.0975 C59.1163944,112.5975 58.6547606,113.026346 58.3157183,113.460962 C58.0954366,113.741731 57.8157746,113.974423 57.4978028,114.293654 C57.2047324,114.160962 56.8810141,114.014808 56.496,113.841731 C56.9020845,113.137885 57.2794366,112.487885 57.6567887,111.837885 C57.7966197,111.920577 57.9383662,112.003269 58.0820282,112.087885 C58.1988732,111.8475 58.3138028,111.610962 58.392338,111.449423 C58.3003944,111.255192 58.2467606,111.141731 58.1950423,111.030192 C58.0303099,110.703269 57.8655775,110.378269 57.72,110.089808 C57.9613521,109.505192 58.2161127,108.943654 58.2007887,108.287885 C58.1778028,107.401346 58.1950423,106.514808 58.1950423,105.628269" id="Fill-24" fill="#FFFFFF"></path>
            <path d="M49.5883493,96.4486538 C49.664969,96.5851923 49.7415887,96.7255769 49.8565183,96.9275 C49.5864338,96.9486538 49.3182648,96.9698077 49.0520113,96.9890385 L48.7819268,96.7198077 C48.5118423,96.3486538 48.2455887,96.3486538 47.9755042,96.7198077 L47.4372507,96.7198077 L47.4372507,97.2601923 C47.3759549,97.3505769 47.3318986,97.4871154 47.2476169,97.5217308 C46.960293,97.6332692 46.6595606,97.7082692 46.3607437,97.7986538 L46.0925746,97.5294231 C46.0025465,97.3505769 45.9125183,97.1698077 45.8224901,96.9890385 L46.6020958,96.9101923 C46.5963493,96.8467308 46.5906028,96.7832692 46.5848563,96.7198077 L45.8224901,96.7198077 C46.0964056,96.3659615 46.4392789,96.1582692 46.8989972,96.1794231 C46.9679549,96.2678846 47.0349972,96.3582692 47.1020394,96.4486538 C47.2150535,96.3582692 47.3242366,96.2678846 47.4372507,96.1794231 C47.5502648,96.0890385 47.6900958,95.9025 47.772462,95.9255769 C48.3394479,96.0813462 48.9026028,96.2294231 49.4964056,96.2332692 C49.528969,96.2332692 49.5577014,96.3736538 49.5883493,96.4486538" id="Fill-26" fill="#FFFFFF"></path>
            <path d="M58.1950423,111.029423 C58.2467606,111.142885 58.3003944,111.254423 58.392338,111.450577 C58.3138028,111.612115 58.1988732,111.848654 58.0820282,112.089038 C57.9383662,112.004423 57.7966197,111.921731 57.6567887,111.839038 C57.6127324,111.419808 57.7698028,111.135192 58.1950423,111.029423" id="Fill-28" fill="#FFFFFF"></path>
            <path d="M46.0921915,97.5284615 L46.3622761,97.7996154 C46.1726423,97.8534615 45.9791775,97.8976923 45.7972056,97.965 C45.4964732,98.0726923 45.1880789,98.2784615 45.0156845,97.7996154 C45.2110648,97.7380769 45.4045296,97.6707692 45.6018254,97.6207692 C45.7627268,97.5784615 45.9293746,97.5592308 46.0921915,97.5284615" id="Fill-30" fill="#FFFFFF"></path>
            <path d="M45.8228732,96.7190385 L46.5833239,96.7190385 C46.5890704,96.7825 46.5967324,96.8459615 46.6024789,96.9113462 L45.8228732,96.9901923 L45.8228732,96.7190385 Z" id="Fill-32" fill="#FFFFFF"></path>
            <path d="M47.4372507,96.1801923 C47.3242366,96.2686538 47.2150535,96.3590385 47.1020394,96.4494231 C47.0349972,96.3590385 46.9679549,96.2686538 46.8989972,96.1801923 L47.4372507,96.1801923 Z" id="Fill-34" fill="#FFFFFF"></path>
            <path d="M57.3868958,100.77 C57.2968676,100.679615 57.2087549,100.589231 57.1187268,100.498846 C57.2087549,100.589231 57.2968676,100.679615 57.3868958,100.77" id="Fill-36" fill="#FFFFFF"></path>
            <path d="M48.7821183,96.7190385 L49.0522028,96.9901923 C48.466062,96.7998077 47.9891042,97.2555769 47.4374423,97.2594231 L47.4374423,96.7190385 L47.9756958,96.7190385 L48.7821183,96.7190385 Z" id="Fill-38" fill="#FFFFFF"></path>
            <path d="M48.7821183,96.7190385 L47.9756958,96.7190385 C48.2457803,96.3498077 48.5101183,96.3498077 48.7821183,96.7190385" id="Fill-40" fill="#FFFFFF"></path>
            <text id="EXIT" font-family="AvenirNext-Medium, Avenir Next" font-size="14" font-weight="400" line-spacing="27.6" letter-spacing="0.1166667" fill="#FFFFFF">
                <tspan x="91" y="183">EXIT</tspan>
            </text>
        </g>
    </g>
</svg>