<?xml version="1.0" encoding="UTF-8"?>
<svg width="212px" height="212px" viewBox="0 0 212 212" version="1.1" xmlns="http://www.w3.org/2000/svg" xmlns:xlink="http://www.w3.org/1999/xlink">
    <!-- Generator: Sketch 51.2 (57519) - http://www.bohemiancoding.com/sketch -->
    <title>Logos</title>
    <desc>Created with Sketch.</desc>
    <defs>
        <polygon id="path-1" points="0.464725243 1.23433333 14.3612883 1.23433333 14.3612883 21.4276211 0.464725243 21.4276211"></polygon>
    </defs>
    <g id="Logos" stroke="none" stroke-width="1" fill="none" fill-rule="evenodd">
        <g id="surfair" transform="translate(40.000000, 95.000000)">
            <path d="M48.9786058,10.4342056 C50.1575282,10.4342056 51.3106252,10.4725389 52.457266,10.4175944 C53.0654505,10.3894833 53.3262854,10.0419278 53.3469456,9.43626111 C53.3688971,8.76415 53.3559845,8.09203889 53.3534019,7.41992778 C53.3508194,6.86409444 53.0615767,6.47181667 52.5153728,6.45009444 C51.3493631,6.40281667 50.1794796,6.43476111 48.9786058,6.43476111 L48.9786058,10.4342056 Z M52.1331592,1.29298333 C52.8962951,1.38115 53.6710524,1.41692778 54.422567,1.56770556 C57.2297709,2.12992778 58.6023825,3.55337222 58.8567612,6.40665 C58.9988,7.98853889 58.9277806,9.60237222 58.8076932,11.1919278 C58.6966447,12.6703167 57.9193049,13.8228722 56.5040816,14.5550389 C57.5577515,16.8563167 58.5959262,19.1243722 59.6663825,21.4639833 C57.8043825,21.4639833 56.0288971,21.4729278 54.2547029,21.4460944 C54.1281592,21.4448167 53.9590039,21.21865 53.8879845,21.0614833 C53.0899845,19.3492611 52.2958583,17.6319278 51.5301398,15.9043722 C51.3726058,15.5542611 51.1918291,15.4073167 50.7967029,15.4290389 C50.2130524,15.4648167 49.6255282,15.4379833 48.974732,15.4379833 L48.974732,21.4269278 L43.4223049,21.4269278 C43.4106835,21.2442056 43.3874408,21.0538167 43.3874408,20.86215 C43.3861495,14.5384278 43.3861495,8.21470556 43.388732,1.88970556 C43.388732,1.69037222 43.4119748,1.49231667 43.4261786,1.29298333 L52.1331592,1.29298333 Z" id="Fill-1" fill="#404041"></path>
            <path d="M13.8875243,1.2926 C13.915932,1.3961 13.9688738,1.4996 13.9688738,1.6031 C13.9740388,3.18243333 13.9727476,4.76176667 13.9727476,6.40626667 C13.7338641,6.42032222 13.5246796,6.44076667 13.3142039,6.44332222 C11.2029903,6.4676 9.09048544,6.46248889 6.98056311,6.52382222 C6.13866019,6.54682222 5.73191262,7.04898889 5.99274757,7.71471111 C6.11670874,8.0316 6.50021359,8.35232222 6.83723301,8.46221111 C7.63394175,8.7216 8.48359223,8.81998889 9.29192233,9.04998889 C10.3094369,9.3426 11.3398641,9.63265556 12.3083107,10.0504889 C14.1251165,10.8312111 15.2175243,12.2112111 15.4654466,14.1917667 C15.6952913,16.0330444 15.506767,17.7938222 14.3020194,19.3079889 C13.1256796,20.7838222 11.4844854,21.3843778 9.65864078,21.4354889 C6.83206796,21.5147111 4.00291262,21.5019333 1.17504854,21.5070444 C1.02138835,21.5083222 0.736019417,21.3179333 0.733436893,21.2131556 C0.705029126,19.6172111 0.714067961,18.0199889 0.714067961,16.3716556 C0.951660194,16.3601556 1.14534951,16.3435444 1.33903883,16.3435444 C3.46962136,16.3409889 5.60020388,16.3499333 7.72949515,16.3346 C8.14786408,16.3333222 8.57268932,16.2732667 8.97943689,16.1787111 C9.39909709,16.0816 9.69350485,15.8324333 9.71545631,15.3481556 C9.73482524,14.8779333 9.50756311,14.5508222 9.08790291,14.4319889 C8.26278641,14.1994333 7.41442718,14.0422667 6.58156311,13.8288778 C5.42975728,13.5324333 4.25987379,13.2832667 3.14034951,12.8922667 C1.31837864,12.2559333 0.237592233,10.9832667 0.0994271845,9.01676667 C0.0903883495,8.87748889 0.0335728155,8.73948889 0,8.60148889 L0,6.31043333 C0.0296990291,6.24398889 0.0723106796,6.18137778 0.0865145631,6.1111 C0.624970874,3.4086 1.91623301,2.08993333 4.6072233,1.55837778 C5.33807767,1.41398889 6.0908835,1.37821111 6.83335922,1.2926 L13.8875243,1.2926 Z" id="Fill-3" fill="#404041"></path>
            <path d="M80.0180942,1.2926 C79.9767738,1.50471111 79.9574049,1.72321111 79.888968,1.9251 C79.4525214,3.23354444 78.9889583,4.53304444 78.5667155,5.8466 C78.4362981,6.25421111 78.2593951,6.41137778 77.8009971,6.40243333 C75.9648223,6.37176667 74.1286476,6.38965556 72.2937641,6.38965556 L71.6752495,6.38965556 L71.6752495,10.3162667 L77.0946767,10.3162667 C76.5058612,12.0463778 75.9467447,13.6896 75.3772981,15.3596556 L71.6584631,15.3596556 L71.6584631,21.4367667 L66.0750456,21.4367667 L66.0750456,20.7978778 C66.0750456,14.5124889 66.0750456,8.2271 66.0776282,1.94171111 C66.0776282,1.72576667 66.1124922,1.50982222 66.1305699,1.2926 L80.0180942,1.2926 Z" id="Fill-5" fill="#404041"></path>
            <path d="M21.0828243,1.40747222 L26.6171738,1.40747222 L26.6171738,2.11663889 C26.6171738,6.24130556 26.6171738,10.36725 26.618465,14.4906389 C26.618465,14.7283056 26.6171738,14.9634167 26.6352515,15.1998056 C26.6985233,16.0495278 27.0277951,16.5005833 27.8813194,16.6079167 C28.578601,16.6960833 29.3107466,16.6718056 30.0054456,16.5631944 C30.7285524,16.4494722 31.0462029,15.9805278 31.0913971,15.2521944 C31.1068922,15.0158056 31.1017272,14.7806944 31.1017272,14.5430278 C31.1030184,10.4004722 31.1030184,6.25663889 31.1030184,2.11408333 L31.1030184,1.42152778 L36.6877272,1.42152778 L36.6877272,2.05786111 C36.6877272,6.36525 36.6890184,10.6726389 36.6877272,14.97875 C36.6877272,18.5641944 34.8902903,20.8373611 31.3354456,21.5056389 C29.2332709,21.9004722 27.0949408,21.8966389 25.0353777,21.1414722 C22.6465427,20.2674722 21.0944456,18.2370833 21.0699117,15.7633056 C21.0234262,11.0751389 21.051834,6.38569444 21.051834,1.69880556 C21.0505427,1.61191667 21.0686204,1.52502778 21.0828243,1.40747222" id="Fill-7" fill="#404041"></path>
            <g id="Group-11" transform="translate(117.504854, 0.044083)">
                <mask id="mask-2" fill="white">
                    <use xlink:href="#path-1"></use>
                </mask>
                <g id="Clip-10"></g>
                <path d="M3.08082233,11.6405556 C5.25530777,11.5805 7.40009417,11.5932778 9.5306767,11.4335556 C10.7380068,11.3428333 11.290667,10.6962778 11.3771816,9.49133333 C11.4649874,8.24677778 11.4675699,6.98433333 11.3836379,5.7385 C11.2984146,4.48116667 10.7263854,3.85888889 9.45449223,3.76305556 C7.72161845,3.63016667 5.97324951,3.67105556 4.23262816,3.63911111 C3.85299709,3.63144444 3.47336602,3.63783333 3.08082233,3.63783333 L3.08082233,11.6405556 Z M0.464725243,1.23305556 C3.7057932,1.311 6.90554078,1.27011111 10.0846282,1.50138889 C12.5186573,1.679 13.8576961,3.174 13.9919874,5.58516667 C14.0810845,7.17216667 14.034599,8.78344444 13.8706087,10.3653333 C13.7169485,11.8565 12.7614146,12.8518889 11.3410262,13.3898333 C11.1899485,13.4460556 11.0427447,13.5125 10.837434,13.5968333 C12.0086087,16.1983889 13.1681621,18.7718333 14.3612883,21.4206667 C13.5671621,21.4206667 12.856968,21.4449444 12.1506476,21.4027778 C12.0060262,21.3938333 11.822667,21.1625556 11.7464825,20.9951667 C10.7573757,18.7897222 9.77472524,16.5817222 8.8179,14.3622222 C8.65390971,13.9814444 8.45247282,13.8626111 8.04443398,13.869 C6.41098738,13.8932778 4.77624951,13.8792222 3.07565728,13.8792222 L3.07565728,21.3785 L0.464725243,21.3785 L0.464725243,1.23305556 Z" id="Fill-9" fill="#404041" mask="url(#mask-2)"></path>
            </g>
            <path d="M95.5270563,13.1170278 C94.4643476,9.81397222 93.4300466,6.59908333 92.3957456,3.38675 C92.358299,3.39441667 92.3208524,3.40080556 92.2834058,3.40719444 C91.2439398,6.62975 90.2018913,9.85102778 89.1482214,13.1170278 L95.5270563,13.1170278 Z M100.911619,21.4660278 C100.15494,21.4660278 99.402134,21.4494167 98.6519107,21.4736944 C98.3226388,21.4851944 98.2671146,21.29225 98.1870563,21.0609722 C97.5904932,19.3449167 96.9719786,17.6365278 96.3947845,15.9140833 C96.2630757,15.5269167 96.0952117,15.3799722 95.6665126,15.3825278 C93.4455417,15.4068056 91.2219883,15.4106389 88.9997262,15.3799722 C88.5335806,15.3748611 88.3747553,15.5460833 88.2430466,15.9460278 C87.6839301,17.6544167 87.0834932,19.3500278 86.5153379,21.0545833 C86.4133282,21.3548611 86.2790369,21.48775 85.9381437,21.4749722 C85.2240757,21.4468611 84.5100078,21.4660278 83.7429981,21.4660278 C83.8036874,21.2449722 83.8398427,21.0711944 83.8966583,20.9038056 C86.0608136,14.5609167 88.230134,8.21930556 90.3839592,1.87258333 C90.5143767,1.48541667 90.683532,1.32441667 91.1135223,1.34230556 C91.9760854,1.37680556 92.8412311,1.33336111 93.7037942,1.36786111 C93.8845709,1.37552778 94.166066,1.53652778 94.2177165,1.68986111 C96.4683864,8.23336111 98.6983961,14.7845278 100.929697,21.3344167 C100.934862,21.3484722 100.925823,21.3689167 100.911619,21.4660278 Z" id="Fill-12" fill="#404041"></path>
            <polygon id="Fill-14" fill="#404041" points="107.346495 21.4353611 109.87866 21.4353611 109.87866 1.38958333 107.346495 1.38958333"></polygon>
        </g>
    </g>
</svg>