<?xml version="1.0" encoding="UTF-8"?>
<svg width="212px" height="212px" viewBox="0 0 212 212" version="1.1" xmlns="http://www.w3.org/2000/svg" xmlns:xlink="http://www.w3.org/1999/xlink">
    <!-- Generator: Sketch 51.2 (57519) - http://www.bohemiancoding.com/sketch -->
    <title>Logos-Hover</title>
    <desc>Created with Sketch.</desc>
    <defs>
        <polygon id="path-1" points="0.35941931 0.748 15.1351658 0.748 15.1351658 20.9843293 0.35941931 20.9843293"></polygon>
        <polygon id="path-3" points="0 0.995570414 12.2128225 0.995570414 12.2128225 20.5672922 0 20.5672922"></polygon>
        <polygon id="path-5" points="0.318026316 0.0926897371 5.26802632 0.0926897371 5.26802632 5 0.318026316 5"></polygon>
    </defs>
    <g id="Logos-Hover" stroke="none" stroke-width="1" fill="none" fill-rule="evenodd">
        <g id="wolf">
            <rect id="Rectangle-Copy-2" fill="#6CC0C1" x="0" y="0" width="216" height="214"></rect>
            <path d="M74.9772368,95.969 L74.9772368,99.575 C74.9772368,99.873 74.9792105,99.865 75.2515789,99.879 C75.8594737,99.913 76.4575,99.799 77.0436842,99.667 C77.6535526,99.527 78.1410526,99.181 78.4489474,98.585 C78.8002632,97.903 78.8555263,97.165 78.9246053,96.431 C78.9778947,95.883 78.9482895,95.325 78.8476316,94.769 C78.7548684,94.261 78.6818421,93.761 78.4509211,93.281 C78.0522368,92.453 77.3594737,92.143 76.5285526,92.061 C76.1042105,92.017 75.6739474,92.051 75.2456579,92.053 C74.9811842,92.055 74.9772368,92.057 74.9772368,92.313 L74.9772368,95.969 Z M71.0160526,101.029 L71.0160526,92.553 C71.0160526,92.435 71.0121053,92.319 71.0180263,92.203 C71.0239474,92.103 71.0022368,92.051 70.8897368,92.051 C70.2285526,92.055 69.5693421,92.049 68.9101316,92.055 C68.7107895,92.057 68.7068421,92.077 68.7403947,92.331 C68.7482895,92.397 68.7640789,92.475 68.7364474,92.529 C68.5667105,92.871 68.6456579,93.239 68.6456579,93.593 C68.6397368,97.971 68.6456579,102.351 68.6377632,106.731 C68.6357895,107.447 68.4285526,108.125 68.1482895,108.781 C68.0160526,109.091 67.8423684,109.369 67.6055263,109.605 C67.2502632,109.957 66.9305263,110.355 66.4607895,110.561 C66.0088158,110.759 65.5489474,110.917 65.0653947,111.023 C64.7278947,111.097 64.3706579,111.027 64.0706579,111.133 C63.7232895,111.255 63.3956579,111.165 63.0640789,111.213 C62.7068421,110.989 62.2805263,111.213 61.9035526,111.025 C61.7357895,110.941 61.5088158,110.973 61.3035526,110.927 C60.6482895,110.773 60.0522368,110.507 59.4996053,110.125 C58.7160526,109.587 58.2265789,108.835 57.9285526,107.935 C57.8436842,107.679 57.8022368,107.419 57.7430263,107.159 C57.5969737,106.521 57.6680263,105.881 57.6561842,105.243 C57.6423684,104.591 57.6542105,103.937 57.6542105,103.287 L57.6542105,92.555 C57.6542105,92.455 57.6463158,92.353 57.6561842,92.255 C57.6660526,92.117 57.6443421,92.041 57.4765789,92.049 C57.1805263,92.063 56.8825,92.045 56.5864474,92.057 C56.4265789,92.063 56.3239474,92.043 56.3634211,91.843 C56.3673684,91.821 56.3476316,91.777 56.3259211,91.763 C56.1463158,91.649 56.4581579,91.491 56.2903947,91.377 C56.3693421,91.241 56.5015789,91.249 56.6338158,91.249 C57.8713158,91.253 59.1088158,91.251 60.3463158,91.251 L62.8686842,91.251 C63.0936842,91.253 63.0936842,91.255 63.0976316,91.501 L63.0976316,91.651 C63.0976316,92.051 63.0976316,92.051 62.7246053,92.053 C62.4265789,92.053 62.1285526,92.049 61.8325,92.055 C61.7614474,92.057 61.6903947,92.091 61.6173684,92.107 C61.8009211,92.201 61.5542105,92.301 61.6153947,92.375 C61.7851316,92.581 61.7081579,92.817 61.7081579,93.039 C61.7121053,97.587 61.7121053,102.133 61.7101316,106.679 C61.7101316,106.843 61.7259211,107.015 61.6825,107.171 C61.6390789,107.327 61.7121053,107.457 61.7219737,107.597 C61.7634211,108.219 61.9153947,108.797 62.3338158,109.297 C62.8114474,109.871 63.3917105,110.075 63.8772368,110.113 C64.0292105,110.125 64.1792105,110.195 64.3311842,110.203 C64.4772368,110.211 64.6292105,110.133 64.7673684,110.157 C64.9232895,110.183 65.0456579,110.087 65.1996053,110.099 C65.3456579,110.111 65.5055263,110.055 65.6496053,110.007 C65.7956579,109.955 65.9298684,109.879 66.0640789,109.807 C66.5456579,109.557 66.9107895,109.187 67.1555263,108.701 C67.2601316,108.495 67.3528947,108.281 67.4535526,108.075 C67.5502632,107.877 67.5028947,107.633 67.6489474,107.453 C67.5877632,107.139 67.7535526,106.853 67.7535526,106.543 C67.7496053,101.831 67.7515789,97.115 67.7515789,92.401 C67.7515789,92.351 67.7456579,92.301 67.7515789,92.251 C67.7713158,92.109 67.7318421,92.043 67.57,92.049 C67.2246053,92.061 66.8772368,92.049 66.5318421,92.055 C66.4075,92.057 66.3561842,92.027 66.3601316,91.891 C66.3640789,91.749 66.37,91.589 66.3127632,91.461 C66.2476316,91.311 66.3778947,91.279 66.4252632,91.261 C66.5101316,91.227 66.6206579,91.251 66.7173684,91.251 C70.2482895,91.251 73.7792105,91.249 77.3101316,91.255 C77.5430263,91.255 77.7759211,91.317 78.0088158,91.351 C78.2436842,91.387 78.5002632,91.261 78.7114474,91.451 C79.1002632,91.405 79.4515789,91.571 79.8167105,91.653 C80.5311842,91.815 81.1785526,92.131 81.7686842,92.567 C81.8831579,92.649 82.0114474,92.717 82.1101316,92.817 C82.6430263,93.349 83.0278947,93.955 83.2075,94.715 C83.3180263,95.177 83.3239474,95.633 83.2765789,96.079 C83.2114474,96.695 83.0496053,97.307 82.6864474,97.833 C82.2976316,98.393 81.7982895,98.823 81.22,99.183 C80.5173684,99.625 79.7239474,99.809 78.9601316,100.069 C78.6936842,100.159 78.3838158,100.105 78.1153947,100.187 C77.7976316,100.285 77.4838158,100.271 77.1621053,100.281 C77.1325,100.281 77.1009211,100.323 77.0713158,100.345 L77.1403947,100.415 C77.1640789,100.435 77.1877632,100.475 77.2134211,100.477 C77.8923684,100.517 78.4667105,100.887 79.0864474,101.103 C79.4693421,101.241 79.8088158,101.523 80.1502632,101.765 C80.3969737,101.943 80.6298684,102.149 80.8430263,102.367 C81.1292105,102.663 81.3384211,103.015 81.5594737,103.367 C81.8910526,103.893 81.9976316,104.491 82.1890789,105.059 C82.2956579,105.371 82.2917105,105.729 82.2976316,106.067 C82.3114474,106.903 82.3055263,107.739 82.3015789,108.575 C82.2996053,108.963 82.4160526,109.309 82.5838158,109.661 C82.7002632,109.909 82.8719737,109.975 83.0851316,110.005 C83.2469737,110.027 83.4147368,110.007 83.5805263,110.011 C83.7956579,110.015 83.8746053,110.089 83.8864474,110.289 C83.8923684,110.389 83.8982895,110.491 83.8825,110.589 C83.8746053,110.635 83.8193421,110.699 83.7778947,110.707 C83.4739474,110.765 83.1739474,110.853 82.8759211,110.927 C82.4555263,111.033 82.0371053,111.039 81.6265789,111.003 C80.8331579,110.927 80.0752632,110.729 79.4417105,110.177 C78.8397368,109.655 78.5121053,109.111 78.3364474,108.339 C78.2160526,107.801 78.1331579,107.267 78.1430263,106.715 C78.1528947,105.929 78.1292105,105.143 78.1528947,104.357 C78.1627632,104.043 78.0640789,103.753 78.0384211,103.447 C78.0107895,103.171 77.9357895,102.893 77.8410526,102.629 C77.7147368,102.275 77.5746053,101.923 77.2825,101.661 C76.9963158,101.405 76.7772368,101.071 76.3844737,100.949 C76.1535526,100.877 75.9364474,100.737 75.7015789,100.689 C75.4805263,100.647 75.2456579,100.687 75.0167105,100.691 C75.0028947,100.887 74.9792105,101.083 74.9792105,101.277 C74.9752632,104.101 74.9772368,106.927 74.9772368,109.753 C74.9772368,110.107 74.9792105,110.117 75.3463158,110.105 C75.5831579,110.099 75.8160526,110.145 76.0548684,110.023 C76.1634211,109.969 76.3509211,110.071 76.4989474,110.113 C76.5285526,110.121 76.5542105,110.187 76.5601316,110.229 C76.6193421,110.811 76.6193421,110.811 76.0686842,110.811 L70.2778947,110.811 C70.1772368,110.811 70.0805263,110.817 69.9818421,110.811 C69.7982895,110.799 69.6877632,110.651 69.7331579,110.477 C69.745,110.433 69.7943421,110.403 69.8259211,110.363 C69.9048684,110.261 69.6857895,110.045 69.9502632,110.009 C70.0232895,110.135 70.1555263,110.059 70.2403947,110.059 C70.4239474,110.061 70.5956579,109.941 70.795,110.097 C70.8759211,110.163 70.9963158,110.027 71.0140789,109.905 C71.0298684,109.789 71.0160526,109.671 71.0160526,109.555 L71.0160526,101.029 Z" id="Fill-1" fill="#FFFFFF"></path>
            <path d="M133.416842,97.3146 C133.649737,96.7166 133.785921,96.1406 133.955658,95.5806 C134.113553,95.0806 134.257632,94.5666 134.389868,94.0546 C134.537895,93.4886 134.743158,92.9366 134.906974,92.3686 C134.995789,92.0586 135.009605,92.0546 134.733289,92.0526 C133.890526,92.0506 133.049737,92.0506 132.210921,92.0526 C131.968158,92.0546 131.956316,92.0866 132.041184,92.3486 C132.161579,92.7326 132.299737,93.1126 132.388553,93.5046 C132.493158,93.9766 132.635263,94.4366 132.771447,94.8966 C132.891842,95.3166 132.974737,95.7466 133.087237,96.1686 C133.185921,96.5386 133.298421,96.9066 133.416842,97.3146 Z M127.049737,92.0526 C126.655,92.0526 126.260263,92.0506 125.865526,92.0526 C125.676053,92.0546 125.616842,92.1186 125.662237,92.2766 C125.798421,92.7546 125.934605,93.2346 126.078684,93.7046 C126.305658,94.4446 126.516842,95.1906 126.745789,95.9286 C126.994474,96.7266 127.211579,97.5366 127.444474,98.3406 C127.608289,98.9066 127.770132,99.4726 127.939868,100.0346 C128.064211,100.4486 128.241842,100.8526 128.324737,101.2746 C128.458947,101.9486 128.681974,102.6006 128.871447,103.2546 C129.088553,103.9966 129.276053,104.7486 129.522763,105.4826 C129.534605,105.5186 129.564211,105.5486 129.583947,105.5826 C129.595789,105.5546 129.609605,105.5266 129.621447,105.4986 C129.795132,105.0046 129.951053,104.5026 130.146447,104.0166 C130.436579,103.2846 130.675395,102.5346 130.953684,101.8006 C131.016842,101.6306 131.026711,101.4726 130.991184,101.3266 C130.928026,101.0586 130.789868,100.8066 130.726711,100.5386 C130.598421,100.0106 130.456316,99.4846 130.314211,98.9586 C130.195789,98.5226 130.073421,98.0926 129.955,97.6566 C129.808947,97.1166 129.670789,96.5746 129.520789,96.0346 C129.402368,95.6026 129.270132,95.1726 129.153684,94.7366 C129.007632,94.1966 128.883289,93.6506 128.725395,93.1126 C128.638553,92.8166 128.605,92.5066 128.460921,92.2206 C128.405658,92.1086 128.378026,92.0426 128.237895,92.0486 C127.843158,92.0606 127.448421,92.0526 127.049737,92.0526 Z M128.861579,91.2506 L136.430658,91.2506 C136.513553,91.2506 136.596447,91.2486 136.679342,91.2506 C136.789868,91.2546 136.924079,91.2086 136.985263,91.3446 C137.030658,91.4486 136.9675,91.5826 137.046447,91.6866 C136.912237,91.7526 137.048421,91.8606 137.006974,91.9386 C136.943816,92.0566 136.829342,92.0586 136.708947,92.0546 C136.48,92.0486 136.249079,92.0606 136.016184,92.0486 C135.881974,92.0426 135.883947,92.1106 135.850395,92.2186 C135.625395,92.9426 135.404342,93.6726 135.197105,94.3986 C134.960263,95.2346 134.709605,96.0686 134.462895,96.9026 C134.314868,97.4066 134.184605,97.9166 134.001053,98.4106 C133.943816,98.5666 133.947763,98.7826 134.005,98.9406 C134.306974,99.7566 134.425395,100.6286 134.766842,101.4306 C134.782632,101.8586 134.964211,102.2506 135.076711,102.6546 C135.185263,103.0546 135.321447,103.4546 135.435921,103.8526 C135.554342,104.2526 135.660921,104.6646 135.759605,105.0746 C135.769474,105.1126 135.797105,105.1486 135.814868,105.1886 C135.830658,105.1426 135.8425,105.1006 135.856316,105.0546 C136.057632,104.4206 136.245132,103.7766 136.420789,103.1386 C136.612237,102.4486 136.882632,101.7726 136.945789,101.0486 C137.194474,100.6106 137.277368,100.1106 137.403684,99.6386 C137.553684,99.0846 137.725395,98.5306 137.853684,97.9666 C137.958289,97.5186 138.088553,97.0666 138.244474,96.6306 C138.351053,96.3386 138.406316,96.0326 138.522763,95.7446 C138.629342,95.4706 138.635263,95.1586 138.735921,94.8806 C138.870132,94.5166 138.945132,94.1346 139.063553,93.7666 C139.227368,93.2666 139.320132,92.7426 139.515526,92.2506 C139.545132,92.1746 139.560921,92.0446 139.391184,92.0506 C139.112895,92.0586 138.830658,92.0566 138.552368,92.0466 C138.510921,92.0466 138.465526,91.9846 138.433947,91.9406 C138.418158,91.9206 138.43,91.8766 138.431974,91.8446 C138.445789,91.6486 138.459605,91.4526 138.473421,91.2606 C138.653026,91.2566 138.832632,91.2506 139.014211,91.2506 C139.655658,91.2506 140.299079,91.2486 140.9425,91.2526 C141.266184,91.2526 141.297763,91.2926 141.301711,91.6246 C141.303684,91.6766 141.305658,91.7266 141.301711,91.7746 C141.289868,91.9566 141.212895,92.0406 141.043158,92.0506 C140.960263,92.0566 140.877368,92.0466 140.794474,92.0546 C140.670132,92.0646 140.543816,92.0826 140.4175,92.0966 C140.449079,92.2346 140.336579,92.3366 140.318816,92.4546 C140.237895,92.9986 140.012895,93.5006 139.880658,94.0286 C139.783947,94.4346 139.653684,94.8346 139.529342,95.2326 C139.247105,96.1346 139.008289,97.0506 138.741842,97.9586 C138.585921,98.4966 138.412237,99.0286 138.285921,99.5746 C138.155658,100.1346 137.954342,100.6766 137.833947,101.2406 C137.800395,101.4046 137.695789,101.5526 137.658289,101.7166 C137.514211,102.3706 137.273421,103.0006 137.141184,103.6566 C137.107632,103.8206 136.993158,103.9686 136.961579,104.1306 C136.827368,104.7886 136.578684,105.4146 136.446447,106.0746 C136.408947,106.2706 136.302368,106.4486 136.256974,106.6446 C136.106974,107.2806 135.907632,107.9046 135.737895,108.5346 C135.613553,108.9926 135.471447,109.4546 135.3175,109.9106 C135.179342,110.3226 135.074737,110.7466 134.970132,111.1686 C134.930658,111.3406 134.849737,111.4186 134.678026,111.4146 C134.445132,111.4106 134.214211,111.4046 133.985263,111.4166 C133.809605,111.4246 133.718816,111.3526 133.679342,111.1846 C133.531316,110.5626 133.316184,109.9606 133.181974,109.3366 C133.105,108.9706 132.998421,108.6086 132.878026,108.2606 C132.73,107.8346 132.655,107.3886 132.501053,106.9646 C132.358947,106.5726 132.323421,106.1386 132.179342,105.7446 C132.072763,105.4526 131.98,105.1526 131.916842,104.8566 C131.853684,104.5666 131.711579,104.3006 131.683947,103.9926 C131.662237,103.7386 131.496447,103.5026 131.484605,103.2266 C131.484605,103.1806 131.399737,103.1346 131.352368,103.0906 C131.334605,103.1326 131.320789,103.1766 131.305,103.2186 C131.018816,104.0526 130.787895,104.9026 130.448421,105.7186 C130.237237,106.2306 130.093158,106.7726 129.919474,107.3006 C129.700395,107.9606 129.501053,108.6246 129.244474,109.2726 C129.041184,109.7866 128.881316,110.3266 128.731316,110.8626 C128.723421,110.8946 128.741184,110.9366 128.727368,110.9626 C128.662237,111.1026 128.618816,111.2806 128.510263,111.3626 C128.411579,111.4386 128.231974,111.4086 128.089868,111.4126 C127.858947,111.4186 127.626053,111.4126 127.395132,111.4126 C127.345789,111.2006 127.331974,110.9686 127.237237,110.7786 C127.045789,110.4006 126.982632,109.9806 126.866184,109.5846 C126.745789,109.1846 126.546447,108.7946 126.552368,108.3586 C126.311579,107.9346 126.252368,107.4466 126.116184,106.9906 C125.916842,106.3366 125.685921,105.6906 125.557632,105.0166 C125.524079,104.8366 125.4175,104.6726 125.366184,104.4966 C125.178684,103.8406 125.060263,103.1646 124.774079,102.5366 C124.823421,102.2206 124.622105,101.9646 124.564868,101.6726 C124.507632,101.3866 124.345789,101.1226 124.290526,100.8386 C124.1425,100.0706 123.891842,99.3326 123.666842,98.5906 C123.447763,97.8646 123.307632,97.1106 122.989868,96.4186 C123.043158,96.1006 122.826053,95.8486 122.784605,95.5486 C122.747105,95.2586 122.557632,94.9946 122.518158,94.7146 C122.458947,94.3206 122.289211,93.9706 122.194474,93.5926 C122.105658,93.2306 122.001053,92.8726 121.898421,92.5146 C121.858947,92.3646 121.853026,92.1666 121.754342,92.0826 C121.6675,92.0086 121.474079,92.0586 121.328026,92.0526 C121.166184,92.0466 120.947105,92.1006 120.858289,92.0166 C120.771447,91.9346 120.812895,91.7066 120.810921,91.5446 C120.808947,91.2546 120.812895,91.2506 121.095132,91.2506 L128.861579,91.2506 Z" id="Fill-3" fill="#FFFFFF"></path>
            <g id="Group-7" transform="translate(139.552632, 90.251200)">
                <mask id="mask-2" fill="white">
                    <use xlink:href="#path-1"></use>
                </mask>
                <g id="Clip-6"></g>
                <path d="M5.01631579,10.8876 C5.01631579,11.9556 4.99855263,13.0256 5.02223684,14.0956 C5.04592105,15.1696 4.90973684,16.2476 5.11697368,17.3136 C5.18802632,17.6836 5.20578947,18.0776 5.34789474,18.4196 C5.53539474,18.8656 5.74855263,19.3076 6.13144737,19.6496 C6.42552632,19.9156 6.75118421,20.0776 7.11631579,20.1496 C7.28407895,20.1796 7.45776316,20.1836 7.61763158,20.2596 C7.84855263,20.0596 8.11894737,20.1976 8.36960526,20.1596 C8.41894737,20.1536 8.47815789,20.1776 8.51565789,20.1556 C9.00315789,19.8956 9.48276316,19.6376 9.77486842,19.1156 C10.2169737,18.3316 10.4419737,17.4776 10.4498684,16.5956 C10.4794737,13.1856 10.4676316,9.7776 10.4557895,6.3676 C10.4538158,5.8316 10.5268421,5.2916 10.3768421,4.7516 C10.2959211,4.4656 10.3275,4.1476 10.2781579,3.8416 C10.1775,3.2436 9.98605263,2.6976 9.66828947,2.1876 C9.4275,1.7976 9.03078947,1.6216 8.63210526,1.5136 C8.23342105,1.4076 7.79131579,1.5996 7.38868421,1.4016 C7.12223684,1.5396 6.80842105,1.5016 6.53802632,1.6176 C6.13539474,1.7916 5.87881579,2.1316 5.61039474,2.4616 C5.59855263,2.7856 5.36368421,3.0276 5.31039474,3.3416 C5.25907895,3.6496 5.15644737,3.9556 5.13078947,4.2616 C5.08342105,4.7616 4.99855263,5.2616 5.00644737,5.7716 C5.03407895,7.4776 5.01631579,9.1816 5.01631579,10.8876 M15.1275,10.9536 C15.09,11.5236 15.0781579,12.0976 15.0071053,12.6656 C14.9439474,13.1636 14.8314474,13.6556 14.715,14.1436 C14.5985526,14.6276 14.5057895,15.1256 14.3103947,15.5776 C13.9117105,16.5076 13.4617105,17.4116 12.8380263,18.2196 C12.5360526,18.6116 12.1886842,18.9536 11.8452632,19.3016 C11.3143421,19.8356 10.0275,20.5596 9.32684211,20.7576 C8.77815789,20.9116 7.62552632,21.0536 7.13802632,20.9476 C6.80447368,20.8756 6.45710526,20.8716 6.13539474,20.7436 C5.80973684,20.6096 5.47618421,20.4996 5.16039474,20.3476 C4.85644737,20.2036 4.53868421,20.0616 4.28013158,19.8476 C3.57947368,19.2776 2.92223684,18.6676 2.41302632,17.8936 C2.09526316,17.4096 1.80315789,16.9176 1.54855263,16.3996 C1.24065789,15.7696 1.01171053,15.1196 0.849868421,14.4336 C0.733421053,13.9436 0.638684211,13.4516 0.54,12.9576 C0.474868421,12.6296 0.541973684,12.2976 0.451184211,11.9976 C0.320921053,11.5736 0.393947368,11.1516 0.364342105,10.7316 C0.324868421,10.1736 0.538026316,9.6296 0.463026316,9.0696 C0.680131579,8.3816 0.609078947,7.6256 0.954473684,6.9696 C0.982105263,6.4076 1.28605263,5.9396 1.47947368,5.4356 C1.67684211,4.9276 1.96105263,4.4656 2.24723684,4.0056 C2.35381579,3.8316 2.46828947,3.6596 2.59855263,3.5036 C2.87289474,3.1796 3.13342105,2.8396 3.44328947,2.5556 C3.83802632,2.1956 4.26039474,1.8716 4.72421053,1.5876 C5.33802632,1.2076 6.01697368,1.0316 6.68013158,0.8076 C6.84394737,0.7516 7.05907895,0.8476 7.21697368,0.7856 C7.46960526,0.6876 7.69263158,0.8116 7.93144737,0.8016 C8.19394737,0.7896 8.46631579,0.7576 8.72092105,0.8076 C9.10776316,0.8876 9.49460526,1.0076 9.86368421,1.1536 C10.3492105,1.3456 10.8209211,1.5816 11.2353947,1.9056 C11.7130263,2.2776 12.2222368,2.6116 12.5538158,3.1556 C12.6860526,3.3676 12.8853947,3.5436 13.0393421,3.7536 C13.2978947,4.1076 13.515,4.4896 13.7321053,4.8676 C13.7913158,4.9736 13.8248684,5.0956 13.8742105,5.2096 C14.0123684,5.5176 14.1722368,5.8196 14.2886842,6.1376 C14.4485526,6.5736 14.5906579,7.0136 14.715,7.4616 C14.8472368,7.9456 14.8373684,8.4636 15.0130263,8.9396 C15.0189474,8.9536 15.015,8.9736 15.0130263,8.9896 C14.9360526,9.6496 15.1807895,10.2936 15.1275,10.9536" id="Fill-5" fill="#FFFFFF" mask="url(#mask-2)"></path>
            </g>
            <path d="M91.1079605,110.8108 C89.1776974,110.8108 87.2494079,110.8128 85.3171711,110.8108 C85.0783553,110.8108 85.0783553,110.8088 85.0744079,110.5788 C85.0724342,110.5128 85.0763816,110.4428 85.0724342,110.3768 C85.0605921,110.1208 85.04875,110.0888 85.3980921,110.1048 C85.6625658,110.1208 85.9270395,110.1148 86.1915132,110.1068 C86.3730921,110.1028 86.5073026,109.9888 86.4500658,109.8488 C86.3573026,109.6228 86.4678289,109.4308 86.4678289,109.2228 C86.4599342,103.8248 86.4619079,98.4268 86.4579605,93.0268 C86.4579605,92.8868 86.5191447,92.7288 86.3750658,92.6068 C86.3573026,92.5948 86.4046711,92.4988 86.4224342,92.4408 C86.4994079,92.1888 86.4244079,92.0628 86.1796711,92.0548 C85.8974342,92.0468 85.6191447,92.0588 85.3369079,92.0508 C85.1651974,92.0468 85.0882237,91.9588 85.0744079,91.7788 C85.0329605,91.2508 85.0329605,91.2508 85.5698026,91.2508 L96.3579605,91.2508 L96.4566447,91.2508 C96.8533553,91.2528 96.8533553,91.2528 96.8533553,91.6288 C96.8553289,92.2648 96.7803289,92.9108 96.8730921,93.5308 C96.9954605,94.3568 96.9125658,95.1788 96.9520395,96.0008 C96.9658553,96.2888 96.9836184,96.2728 96.6915132,96.2648 C96.5494079,96.2608 96.3698026,96.2828 96.2770395,96.2068 C96.1901974,96.1368 96.2099342,95.9428 96.1586184,95.8148 C95.9000658,95.1708 95.6711184,94.5148 95.3533553,93.8968 C95.0434868,93.2948 94.5796711,92.8248 94.0270395,92.4648 C93.7763816,92.3028 93.4605921,92.2228 93.1645395,92.1588 C92.2961184,91.9708 91.4099342,92.0748 90.5336184,92.0568 C90.4961184,92.0568 90.4349342,92.1228 90.4250658,92.1688 C90.4073026,92.2488 90.4191447,92.3348 90.4191447,92.4188 L90.4191447,99.8888 C90.4191447,99.9908 90.4073026,100.0928 90.4250658,100.1888 C90.4329605,100.2268 90.5513816,100.2788 90.5553289,100.2728 C90.6836184,100.1128 90.8592763,100.1948 91.0132237,100.1788 C91.7573026,100.0948 92.3573026,99.7848 92.69875,99.0708 C92.8408553,98.7728 92.9355921,98.4688 93.0105921,98.1448 C93.1053289,97.7348 93.0796711,97.3348 93.0895395,96.9288 C93.0915132,96.7908 93.1369079,96.7588 93.2592763,96.7668 C93.4546711,96.7768 93.6520395,96.7748 93.8494079,96.7808 C93.86125,96.9768 93.8829605,97.1728 93.8829605,97.3668 C93.8849342,99.7068 93.8849342,102.0468 93.8849342,104.3868 C93.8849342,104.5048 93.9165132,104.6348 93.8750658,104.7348 C93.8415132,104.8148 93.7566447,104.9708 93.6165132,104.8648 C93.52375,104.7928 93.4645395,104.7608 93.3698026,104.8528 C93.3559868,104.8628 93.2059868,104.7828 93.2079605,104.7508 C93.2217763,104.5188 93.1171711,104.3128 93.0974342,104.0948 C93.0540132,103.6028 92.9316447,103.1328 92.7994079,102.6628 C92.6217763,102.0288 92.2369079,101.5668 91.6980921,101.2328 C91.5599342,101.1448 91.3823026,101.1068 91.2165132,101.0868 C91.0132237,101.0608 90.8059868,101.1108 90.6105921,100.9888 C90.5454605,100.9468 90.4053289,100.9448 90.4171711,101.1128 C90.4250658,101.1968 90.4191447,101.2808 90.4191447,101.3648 L90.4191447,109.7388 C90.4191447,109.8048 90.4171711,109.8728 90.4191447,109.9388 C90.4250658,110.1228 90.4329605,110.1268 90.6105921,110.0668 C90.6836184,110.0428 90.7724342,109.9928 90.8316447,110.0148 C91.2224342,110.1608 91.5994079,110.1528 91.9921711,110.0168 C92.1263816,109.9708 92.2882237,110.0148 92.4342763,110.0088 C93.1803289,109.9808 93.86125,109.7308 94.4869079,109.3428 C95.0395395,109.0008 95.4184868,108.4948 95.7125658,107.9128 C95.9671711,107.4108 96.1448026,106.8928 96.2770395,106.3428 C96.3776974,105.9328 96.4151974,105.5088 96.5474342,105.1028 C96.6066447,104.9248 96.5513816,104.7048 96.5632237,104.5068 C96.5651974,104.4648 96.6323026,104.3988 96.6717763,104.3968 C96.8849342,104.3888 97.0961184,104.3988 97.31125,104.4028 C97.3230921,104.5988 97.3448026,104.7908 97.3467763,104.9868 C97.3526974,105.3708 97.3586184,105.7568 97.3467763,106.1408 C97.3369079,106.4308 97.4198026,106.7308 97.2500658,107.0008 C97.1750658,107.1188 97.4059868,107.1908 97.2816447,107.3368 C97.2224342,107.4048 97.2520395,107.5568 97.2500658,107.6708 C97.2480921,107.9888 97.2303289,108.3068 97.2540132,108.6228 C97.3132237,109.3168 97.1375658,109.9988 97.1533553,110.6868 C97.1553289,110.8088 97.08625,110.8128 96.9954605,110.8128 C96.2059868,110.8108 95.4145395,110.8108 94.6211184,110.8108 L91.1079605,110.8108 Z" id="Fill-8" fill="#FFFFFF"></path>
            <path d="M169.613816,101.0822 C169.613816,98.4062 169.611842,95.7322 169.619737,93.0582 C169.619737,92.8862 169.572368,92.7122 169.667105,92.5302 C169.718421,92.4342 169.519079,92.2562 169.694737,92.1242 C169.651316,92.1002 169.607895,92.0562 169.564474,92.0562 C169.167763,92.0502 168.771053,92.0502 168.376316,92.0542 C168.277632,92.0542 168.222368,92.0382 168.228289,91.9222 C168.238158,91.7082 168.244079,91.4942 168.25,91.2802 C168.443421,91.2702 168.636842,91.2522 168.832237,91.2522 C172.493421,91.2502 176.152632,91.2502 179.815789,91.2502 C179.932237,91.2502 180.046711,91.2562 180.163158,91.2482 C180.263816,91.2422 180.303289,91.2742 180.307237,91.3842 C180.336842,92.1382 180.374342,92.8942 180.403947,93.6482 C180.413816,93.9502 180.417763,94.2522 180.401974,94.5502 C180.384211,94.8962 180.551974,95.2102 180.510526,95.5642 C180.475,95.8942 180.504605,96.2302 180.504605,96.5662 C180.502632,96.8662 180.502632,96.8662 180.228289,96.8682 C179.843421,96.8722 179.841447,96.8742 179.713158,96.4522 C179.604605,96.0942 179.468421,95.7462 179.409211,95.3742 C179.381579,95.2102 179.280921,95.0602 179.215789,94.9042 C178.998684,94.3722 178.789474,93.8422 178.422368,93.3762 C178.199342,93.0962 177.930921,92.8682 177.6625,92.6742 C177.325,92.4282 176.896711,92.2902 176.492105,92.1642 C176.209868,92.0762 175.898026,92.0642 175.596053,92.0562 C175.001974,92.0402 174.409868,92.0542 173.815789,92.0502 C173.713158,92.0502 173.661842,92.0782 173.673684,92.1882 C173.677632,92.2382 173.673684,92.2902 173.673684,92.3382 L173.673684,99.9102 C173.673684,100.1402 173.675658,100.1562 173.932237,100.1762 C174.749342,100.2362 175.491447,100.0042 176.002632,99.1722 C176.059868,99.0822 176.336184,98.2162 176.346053,98.1122 C176.379605,97.7082 176.415132,97.3042 176.442763,96.9002 C176.448684,96.7902 176.488158,96.7562 176.590789,96.7662 C176.640132,96.7722 176.689474,96.7682 176.738816,96.7682 C177.236184,96.7642 177.236184,96.7642 177.236184,97.2442 L177.236184,104.4142 C177.236184,104.5322 177.232237,104.6482 177.238158,104.7662 C177.244079,104.8822 177.180921,104.9002 177.086184,104.8942 C177.003289,104.8882 176.920395,104.8922 176.839474,104.8922 C176.563158,104.8902 176.460526,104.7942 176.446711,104.5022 C176.411184,103.8342 176.249342,103.1962 176.053947,102.5602 C175.913816,102.1162 175.625658,101.6722 175.193421,101.3842 C174.907237,101.1942 174.585526,101.0742 174.230263,101.0802 C174.180921,101.0822 174.127632,101.0922 174.082237,101.0782 C173.963816,101.0442 173.827632,100.8922 173.740789,100.9922 C173.661842,101.0802 173.675658,101.2642 173.675658,101.4062 C173.673684,104.1302 173.673684,106.8562 173.673684,109.5782 C173.673684,109.6802 173.671711,109.7802 173.675658,109.8782 C173.679605,110.0142 173.758553,110.1142 173.878947,110.1042 C174.315132,110.0722 174.757237,110.1982 175.185526,110.0342 C175.305921,109.9862 175.440132,110.0802 175.451974,110.2142 C175.463816,110.3302 175.455921,110.4502 175.453947,110.5642 C175.451974,110.8062 175.451974,110.8102 175.223026,110.8102 C173.458553,110.8122 171.694079,110.8102 169.929605,110.8102 C169.416447,110.8102 168.907237,110.8082 168.396053,110.8142 C168.271711,110.8142 168.216447,110.7882 168.226316,110.6502 C168.238158,110.5002 168.226316,110.3502 168.230263,110.2002 C168.232237,110.0082 168.230263,110.0402 168.439474,110.0642 C168.778947,110.1042 169.122368,110.1022 169.463816,110.1062 C169.530921,110.1062 169.728289,109.7002 169.675,109.6302 C169.558553,109.4742 169.617763,109.3102 169.617763,109.1542 C169.613816,106.4622 169.613816,103.7722 169.613816,101.0822" id="Fill-10" fill="#FFFFFF"></path>
            <path d="M103.487697,101.0822 L103.487697,109.6102 C103.487697,109.7262 103.491645,109.8442 103.485724,109.9602 C103.479803,110.0602 103.505461,110.1242 103.615987,110.1102 C103.900197,110.0722 104.178487,110.1282 104.472566,110.0302 C104.756776,109.9342 105.094276,109.9942 105.408092,110.0142 C105.589671,110.0282 105.743618,109.9502 105.911382,109.9102 C106.077171,109.8742 106.248882,109.9542 106.422566,109.8182 C106.544934,109.7242 106.779803,109.7822 106.906118,109.6902 C107.395592,109.3382 108.023224,109.1322 108.238355,108.4742 C108.544276,108.1802 108.613355,107.7622 108.779145,107.3962 C108.891645,107.1442 108.937039,106.8642 109.021908,106.5962 C109.150197,106.1802 109.203487,105.7422 109.317961,105.3162 C109.400855,105.0102 109.402829,104.6802 109.422566,104.3582 C109.430461,104.2342 109.452171,104.1762 109.588355,104.1882 C109.700855,104.2002 109.817303,104.1902 109.93375,104.1922 C110.231776,104.1942 110.279145,104.2062 110.208092,104.4802 C110.075855,104.9842 110.133092,105.4902 110.12125,105.9962 C110.109408,106.5142 110.119276,107.0342 110.119276,107.5502 C110.119276,107.6862 110.123224,107.8182 110.117303,107.9522 C110.087697,108.8582 110.052171,109.7642 110.024539,110.6702 C110.020592,110.7742 109.990987,110.8202 109.884408,110.8122 C109.785724,110.8062 109.687039,110.8102 109.588355,110.8102 L98.5495395,110.8102 C98.4508553,110.8102 98.3501974,110.8162 98.2534868,110.8082 C98.2140132,110.8042 98.1488816,110.7702 98.1469079,110.7442 C98.1311184,110.6062 98.1705921,110.4582 98.0600658,110.3422 C98.1646711,110.2762 98.1173026,110.2182 98.0482237,110.1642 C98.1015132,110.1202 98.1765132,110.0262 98.2080921,110.0382 C98.5219079,110.1542 98.8159868,110.1242 99.1317763,110.0202 C99.4100658,109.9302 99.4219079,109.9682 99.4278289,109.7642 C99.4298026,109.6982 99.4278289,109.6302 99.4278289,109.5642 L99.4278289,92.5122 C99.4278289,92.0522 99.4278289,92.0522 98.9600658,92.0522 C98.7469079,92.0522 98.5317763,92.0582 98.3186184,92.0502 C98.1153289,92.0442 98.1113816,92.0322 98.1409868,91.7842 C98.1429605,91.7682 98.1409868,91.7502 98.1409868,91.7322 C98.1508553,91.5942 98.0265132,91.4482 98.1429605,91.3162 C98.27125,91.1742 98.4488816,91.2542 98.6008553,91.2542 C100.598224,91.2482 102.593618,91.2502 104.590987,91.2502 C104.705461,91.2502 104.821908,91.2562 104.936382,91.2482 C105.044934,91.2422 105.084408,91.2902 105.072566,91.3942 C105.068618,91.4282 105.072566,91.4602 105.070592,91.4942 C105.060724,91.6742 105.050855,91.8542 105.039013,92.0342 C104.877171,92.0402 104.715329,92.0502 104.553487,92.0522 C104.27125,92.0542 103.992961,92.0502 103.710724,92.0522 C103.489671,92.0542 103.489671,92.0562 103.487697,92.3062 C103.485724,92.3882 103.487697,92.4722 103.487697,92.5562 L103.487697,101.0822 Z" id="Fill-12" fill="#FFFFFF"></path>
            <path d="M161.073487,110.8108 L155.482039,110.8108 C155.399145,110.8108 155.31625,110.8068 155.233355,110.8128 C155.116908,110.8208 155.043882,110.7988 155.059671,110.6548 C155.071513,110.5388 155.071513,110.4208 155.059671,110.3028 C155.045855,110.1568 155.089276,110.0948 155.247171,110.1048 C155.426776,110.1188 155.610329,110.1208 155.789934,110.1048 C155.959671,110.0908 156.125461,110.0208 156.293224,110.0168 C156.435329,110.0108 156.457039,109.9528 156.449145,109.8368 C156.443224,109.7348 156.447171,109.6348 156.447171,109.5328 L156.447171,92.5328 C156.447171,92.4168 156.443224,92.2988 156.449145,92.1828 C156.455066,92.0668 156.397829,92.0488 156.299145,92.0508 C156.070197,92.0568 155.839276,92.0568 155.606382,92.0508 C155.430724,92.0468 155.255066,92.0288 155.077434,92.0188 C155.071513,91.7848 155.063618,91.5528 155.067566,91.3208 C155.067566,91.2968 155.130724,91.2648 155.170197,91.2528 C155.217566,91.2408 155.268882,91.2508 155.318224,91.2508 L161.752434,91.2508 C161.987303,91.2508 161.993224,91.2548 161.99125,91.4888 C161.989276,91.6688 162.040592,91.9168 161.947829,92.0108 C161.855066,92.1028 161.608355,92.0488 161.432697,92.0508 C161.134671,92.0548 160.838618,92.0508 160.540592,92.0548 C160.499145,92.0548 160.400461,92.0168 160.441908,92.1348 C160.445855,92.1488 160.461645,92.1588 160.473487,92.1708 C160.485329,92.1828 160.501118,92.1928 160.507039,92.2068 C160.510987,92.2228 160.507039,92.2408 160.507039,92.2588 C160.507039,92.2728 160.510987,92.2908 160.503092,92.3048 C160.497171,92.3208 160.481382,92.3308 160.469539,92.3428 C160.457697,92.3528 160.445855,92.3628 160.435987,92.3768 C160.428092,92.3868 160.414276,92.4048 160.418224,92.4128 C160.424145,92.4268 160.439934,92.4348 160.451776,92.4468 C160.461645,92.4588 160.477434,92.4708 160.485329,92.4848 C160.49125,92.4928 160.495197,92.5108 160.49125,92.5188 C160.483355,92.5328 160.469539,92.5428 160.457697,92.5548 C160.445855,92.5668 160.432039,92.5768 160.424145,92.5908 C160.420197,92.6008 160.424145,92.6148 160.430066,92.6248 C160.437961,92.6388 160.45375,92.6488 160.463618,92.6608 C160.475461,92.6728 160.489276,92.6828 160.497171,92.6968 C160.505066,92.7088 160.505066,92.7268 160.507039,92.7428 C160.509013,92.7608 160.507039,92.7748 160.507039,92.7928 L160.507039,92.8448 L160.507039,92.8928 L160.507039,92.9428 L160.507039,92.9948 L160.507039,93.0428 L160.507039,93.0948 L160.507039,93.1448 L160.507039,108.9928 C160.507039,109.0088 160.509013,109.0248 160.507039,109.0408 C160.479408,109.2128 160.534671,109.3808 160.430066,109.5648 C160.366908,109.6768 160.471513,109.8928 160.514934,110.0588 C160.520855,110.0868 160.597829,110.1108 160.637303,110.1048 C160.921513,110.0748 161.205724,110.1648 161.493882,110.0228 C161.655724,109.9428 161.884671,109.9928 162.082039,110.0128 C162.599145,110.0628 163.096513,109.9228 163.578092,109.7868 C163.931382,109.6868 164.282697,109.4908 164.590592,109.2408 C165.271513,108.6868 165.581382,107.9208 165.857697,107.1188 C166.047171,106.5668 166.143882,106.0008 166.262303,105.4328 C166.34125,105.0568 166.329408,104.6728 166.449803,104.3088 C166.463618,104.2628 166.518882,104.2008 166.558355,104.1948 C166.688618,104.1828 166.822829,104.2008 166.953092,104.1868 C167.109013,104.1748 167.144539,104.2328 167.142566,104.3828 C167.136645,105.3368 167.217566,106.2968 167.118882,107.2388 C167.004408,108.3168 167.085329,109.3868 167.041908,110.4588 C167.030066,110.8088 167.037961,110.8108 166.666908,110.8108 L161.815592,110.8108 L161.073487,110.8108 Z" id="Fill-14" fill="#FFFFFF"></path>
            <g id="Group-18" transform="translate(31.000000, 90.251200)">
                <mask id="mask-4" fill="white">
                    <use xlink:href="#path-3"></use>
                </mask>
                <g id="Clip-17"></g>
                <path d="M1.41,10.8506 L1.41,2.2746 C1.41,2.1746 1.40407895,2.0726 1.41197368,1.9746 C1.41986842,1.8526 1.39223684,1.7946 1.25407895,1.7986 C0.940263158,1.8086 0.626447368,1.8066 0.312631579,1.8006 C0.0994736842,1.7966 0.0343421053,1.7226 0.0244736842,1.5046 C0.0205263158,1.4206 0.0264473684,1.3366 0.0244736842,1.2546 C0.0205263158,1.0926 0.117236842,1.0246 0.255394737,1.0006 C0.318552632,0.9906 0.385657895,0.9986 0.454736842,0.9986 L6.68960526,0.9986 C6.96197368,0.9986 6.96,0.9566 6.95407895,1.2626 C6.95210526,1.4286 6.94815789,1.5946 6.94618421,1.7606 C6.76855263,1.7746 6.59289474,1.7966 6.41723684,1.8006 C6.16855263,1.8086 5.92184211,1.8066 5.67513158,1.8006 C5.57052632,1.7986 5.48960526,1.8106 5.41460526,1.8986 C5.32184211,2.0106 5.38697368,2.0746 5.46,2.1426 C5.31789474,2.2106 5.47184211,2.3286 5.40671053,2.4366 C5.34157895,2.5486 5.37118421,2.7226 5.37118421,2.8686 C5.36921053,8.1366 5.36723684,13.4006 5.37513158,18.6666 C5.37513158,18.9206 5.33763158,19.1666 5.45013158,19.4366 C5.57052632,19.7246 5.52118421,19.7046 5.78763158,19.7726 C5.97710526,19.8226 6.13302632,19.7506 6.30276316,19.7566 C6.50210526,19.7626 6.69947368,19.7566 6.89684211,19.7566 C7.09618421,19.7566 7.29552632,19.7806 7.49092105,19.7526 C7.86197368,19.7006 8.235,19.6466 8.59223684,19.5406 C8.86460526,19.4566 9.16065789,19.3366 9.36197368,19.1446 C9.72118421,18.8046 10.0942105,18.4846 10.335,18.0086 C10.6981579,17.2946 10.9468421,16.5566 11.1165789,15.7766 C11.1955263,15.4046 11.31,15.0426 11.3159211,14.6546 C11.3178947,14.5366 11.4185526,14.4406 11.4146053,14.2966 C11.4067105,13.9406 11.4225,13.9386 11.7797368,13.9406 C11.9080263,13.9406 12.0382895,13.9526 12.1665789,13.9566 C12.1784211,14.1366 12.2553947,14.3546 12.1803947,14.4826 C12.0836842,14.6486 12.1053947,14.8006 12.1053947,14.9566 C12.0994737,16.2266 12.0955263,17.4966 12.1053947,18.7666 C12.1073684,19.0446 12.0442105,19.3086 12.0106579,19.5786 C11.9711842,19.8906 11.9909211,20.2106 11.9869737,20.5246 C11.6475,20.5366 11.3040789,20.5586 10.9626316,20.5586 C7.51460526,20.5606 4.06657895,20.5586 0.618552632,20.5586 C0.486315789,20.5586 0.350131579,20.5806 0.223815789,20.5546 C0.117236842,20.5306 -0.0702631579,20.4926 0.119210526,20.3086 C0.135,20.2946 0.109342105,20.2286 0.125131579,20.2166 C0.257368421,20.1046 -0.24,19.9066 0.156710526,19.8766 C0.286973684,19.8666 0.393552632,19.7506 0.579078947,19.8366 C0.784342105,19.9306 1.06460526,19.8626 1.31131579,19.8526 C1.34684211,19.8506 1.40013158,19.7746 1.40605263,19.7266 C1.41986842,19.6126 1.41,19.4926 1.41,19.3766 L1.41,10.8506 Z" id="Fill-16" fill="#FFFFFF" mask="url(#mask-4)"></path>
            </g>
            <path d="M49.3868421,104.09 C49.9157895,104.09 50.4427632,104.088 50.9717105,104.092 C51.1276316,104.092 51.0723684,104.072 51.0427632,103.946 C50.9342105,103.442 50.7684211,102.954 50.65,102.454 C50.5217105,101.924 50.3598684,101.402 50.2414474,100.872 C50.1684211,100.55 50.0815789,100.232 50.0085526,99.912 C49.9375,99.594 49.8210526,99.29 49.7361842,98.974 C49.6592105,98.688 49.6019737,98.394 49.5348684,98.106 C49.5230263,98.06 49.5052632,98.018 49.4894737,97.974 C49.4421053,98.02 49.3611842,98.06 49.3532895,98.112 C49.3039474,98.518 49.1164474,98.89 49.0493421,99.286 C48.9072368,100.122 48.5756579,100.904 48.4236842,101.736 C48.3565789,102.098 48.2421053,102.464 48.1335526,102.818 C48.0190789,103.192 47.9184211,103.564 47.8296053,103.946 C47.8,104.072 47.7467105,104.092 47.9026316,104.092 C48.3980263,104.088 48.8914474,104.09 49.3868421,104.09 M54.5460526,110.81 C53.5394737,110.81 52.5348684,110.804 51.5282895,110.816 C51.3427632,110.818 51.2934211,110.768 51.3151316,110.592 C51.3289474,110.476 51.3210526,110.36 51.3171053,110.242 C51.3111842,110.13 51.3625,110.106 51.4631579,110.108 C51.7769737,110.114 52.0888158,110.114 52.4026316,110.108 C52.6572368,110.104 52.6848684,110.036 52.6118421,109.762 C52.4697368,109.218 52.3513158,108.67 52.2072368,108.128 C52.0592105,107.57 51.8578947,107.028 51.7453947,106.466 C51.6526316,106.004 51.4355263,105.574 51.4177632,105.098 C51.4118421,104.964 51.3171053,104.994 51.2421053,104.994 C50.6993421,104.992 50.1546053,104.992 49.6098684,104.992 C48.9486842,104.992 48.2894737,104.994 47.6302632,104.992 C47.5177632,104.99 47.4684211,105.006 47.4506579,105.146 C47.4092105,105.44 47.3578947,105.74 47.2513158,106.014 C47.1190789,106.352 47.0657895,106.706 46.9690789,107.048 C46.8447368,107.498 46.7125,107.948 46.6118421,108.404 C46.5427632,108.724 46.4480263,109.038 46.3690789,109.356 C46.3276316,109.524 46.3473684,109.73 46.2526316,109.856 C46.0907895,110.072 46.2822368,110.108 46.3710526,110.1 C46.7875,110.066 47.2177632,110.228 47.6164474,110.006 C47.7190789,109.948 47.7861842,110.212 47.8868421,110.024 C47.9085526,110.054 47.9480263,110.086 47.9480263,110.118 C47.9519737,110.334 47.9480263,110.55 47.9460526,110.768 C47.7368421,110.782 47.5296053,110.808 47.3203947,110.808 C46.2486842,110.814 45.175,110.806 44.1032895,110.816 C43.9197368,110.818 43.8703947,110.77 43.8901316,110.594 C43.9059211,110.462 43.8921053,110.326 43.8940789,110.194 C43.8980263,110.014 43.8960526,110.048 44.1092105,110.068 C44.4269737,110.098 44.7526316,110.098 45.0684211,110.054 C45.1572368,110.042 45.2046053,110.128 45.2401316,110.09 C45.3013158,110.024 45.3486842,109.936 45.3763158,109.848 C45.4493421,109.594 45.5282895,109.338 45.5717105,109.078 C45.6447368,108.646 45.8085526,108.238 45.9111842,107.814 C46.0197368,107.38 46.1519737,106.948 46.2684211,106.512 C46.4085526,105.984 46.5309211,105.452 46.6828947,104.93 C46.8486842,104.364 47.0223684,103.798 47.1625,103.224 C47.2907895,102.714 47.4467105,102.208 47.5888158,101.7 C47.7092105,101.266 47.8315789,100.83 47.95,100.396 C48.1,99.858 48.2559211,99.318 48.3921053,98.776 C48.5302632,98.216 48.7197368,97.674 48.8460526,97.11 C48.9565789,96.61 49.1105263,96.118 49.2546053,95.626 C49.3769737,95.194 49.4835526,94.756 49.6236842,94.328 C49.7815789,93.842 49.8881579,93.336 50.0282895,92.842 C50.1684211,92.366 50.3085526,91.886 50.4171053,91.402 C50.4486842,91.266 50.4901316,91.246 50.6006579,91.248 C50.8809211,91.254 51.1611842,91.254 51.4414474,91.248 C51.5578947,91.246 51.5717105,91.302 51.6309211,91.396 C51.8006579,91.674 51.8085526,91.992 51.9013158,92.288 C52.0671053,92.806 52.1618421,93.348 52.3098684,93.874 C52.4519737,94.368 52.5546053,94.874 52.7164474,95.358 C52.9296053,95.992 53.0440789,96.652 53.2513158,97.288 C53.3815789,97.684 53.4921053,98.092 53.5947368,98.5 C53.7368421,99.072 53.9085526,99.638 54.0506579,100.212 C54.1631579,100.664 54.2796053,101.122 54.4019737,101.572 C54.5263158,102.038 54.6447368,102.504 54.7809211,102.966 C54.9506579,103.548 55.1203947,104.13 55.2743421,104.714 C55.4263158,105.288 55.5664474,105.86 55.7401316,106.426 C55.9157895,106.99 56.0184211,107.578 56.1723684,108.152 C56.3263158,108.736 56.4901316,109.32 56.6677632,109.898 C56.7171053,110.054 56.8730263,110.114 57.0388158,110.11 C57.2381579,110.106 57.4355263,110.104 57.6328947,110.114 C57.6743421,110.118 57.7414474,110.178 57.7453947,110.218 C57.7611842,110.352 57.7414474,110.486 57.7532895,110.62 C57.7671053,110.772 57.7177632,110.816 57.5657895,110.814 C56.5592105,110.808 55.5526316,110.81 54.5460526,110.81" id="Fill-19" fill="#FFFFFF"></path>
            <path d="M119.325329,107.1994 C118.895066,107.1994 118.464803,107.1854 118.038487,107.2054 C117.807566,107.2174 117.702961,107.1394 117.608224,106.9254 C117.446382,106.5554 117.430592,106.5754 117.095066,106.7974 C116.735855,107.0374 116.341118,107.1934 115.91875,107.3154 C115.500329,107.4354 115.075987,107.4474 114.675329,107.3834 C114.00625,107.2754 113.386513,107.0094 112.987829,106.3914 C112.810197,106.1154 112.670066,105.8294 112.545724,105.5234 C112.464803,105.3254 112.616776,105.0794 112.395724,104.9354 C112.427303,104.7314 112.316776,104.5034 112.494408,104.3254 C112.462829,103.9434 112.642434,103.6274 112.786513,103.2934 C112.885197,103.0634 113.047039,102.8974 113.202961,102.7154 C113.343092,102.5514 113.424013,102.3574 113.649013,102.2474 C113.885855,102.1354 114.071382,101.9074 114.278618,101.7334 C114.296382,101.7174 114.325987,101.7134 114.349671,101.7054 C114.357566,101.7354 114.383224,101.7734 114.373355,101.7934 C114.174013,102.1434 114.174013,102.5254 114.175987,102.9134 C114.175987,103.2234 114.241118,103.5074 114.320066,103.8054 C114.397039,104.0914 114.481908,104.3854 114.598355,104.6434 C114.811513,105.1114 115.089803,105.5574 115.450987,105.9414 C115.650329,106.1534 115.914803,106.2514 116.153618,106.2734 C116.408224,106.2974 116.700329,106.2014 116.941118,106.0534 C117.061513,105.9794 117.112829,105.7294 117.010197,105.6174 C116.838487,105.4234 116.761513,105.1874 116.649013,104.9654 C116.29375,104.2614 115.895066,103.5794 115.553618,102.8674 C115.334539,102.4094 115.064145,101.9734 114.843092,101.5094 C114.738487,101.2854 114.622039,101.0594 114.470066,100.8674 C114.162171,100.4754 114.039803,100.0034 113.917434,99.5454 C113.840461,99.2654 113.834539,98.9414 113.89375,98.6574 C113.994408,98.1754 114.170066,97.7094 114.594408,97.4014 C114.706908,97.3194 114.819408,97.2054 114.945724,97.1754 C115.310855,97.0954 115.662171,96.8734 116.047039,96.9794 C116.212829,97.0234 116.291776,96.7554 116.487171,96.9234 C116.581908,97.0094 116.799013,96.9414 116.956908,96.9714 C117.371382,97.0474 117.742434,97.2314 118.085855,97.4734 C118.218092,97.5674 118.324671,97.7014 118.437171,97.8254 C118.573355,97.9754 118.709539,98.4874 118.677961,98.6794 C118.660197,98.7734 118.628618,98.8694 118.634539,98.9614 C118.662171,99.3174 118.525987,99.6154 118.332566,99.8874 C118.105592,100.2054 117.833224,100.4834 117.489803,100.6754 C117.462171,100.6914 117.399013,100.6614 117.361513,100.6394 C117.34375,100.6294 117.335855,100.5714 117.347697,100.5494 C117.653618,100.0554 117.537171,99.5034 117.533224,98.9774 C117.53125,98.7374 117.452303,98.4754 117.333882,98.2634 C117.219408,98.0554 117.016118,97.8934 116.842434,97.7194 C116.804934,97.6814 116.727961,97.6754 116.666776,97.6714 C116.534539,97.6654 116.400329,97.6894 116.272039,97.6654 C116.039145,97.6214 115.873355,97.7394 115.784539,97.9134 C115.697697,98.0794 115.616776,98.2514 115.713487,98.4914 C115.934539,99.0394 116.18125,99.5714 116.493092,100.0714 C116.574013,100.2014 116.639145,100.3414 116.70625,100.4834 C117.083224,101.2794 117.564803,102.0214 117.953618,102.8154 C118.115461,103.1454 118.340461,103.4554 118.533882,103.7754 C118.593092,103.8734 118.644408,103.9754 118.699671,104.0734 C118.776645,103.9734 118.879276,103.8814 118.924671,103.7674 C119.104276,103.3034 119.345066,102.8514 119.323355,102.3294 C119.319408,102.2114 119.370724,102.1214 119.412171,102.0154 C119.451645,101.9154 119.479276,101.7574 119.349013,101.6534 C119.228618,101.5554 119.137829,101.5874 119.005592,101.6454 C118.741118,101.7574 118.539803,101.6074 118.533882,101.3354 C118.527961,100.8814 118.527961,100.8814 118.95625,100.8814 C119.447697,100.8794 119.943092,100.8794 120.438487,100.8814 C120.813487,100.8814 120.813487,100.8834 120.811513,101.2854 C120.811513,101.3194 120.807566,101.3514 120.811513,101.3854 C120.83125,101.5274 120.791776,101.5934 120.629934,101.5854 C120.434539,101.5754 120.241118,101.5974 120.045724,101.6054 C120.035855,101.8034 120.041776,101.9994 120.018092,102.1954 C119.909539,103.0234 119.694408,103.8174 119.242434,104.5274 C119.193092,104.6054 119.161513,104.6994 119.100329,104.7654 C119.015461,104.8554 119.027303,104.9074 119.090461,105.0134 C119.349013,105.4554 119.581908,105.9094 119.832566,106.3554 C119.889803,106.4554 119.982566,106.5174 120.11875,106.5014 C120.282566,106.4854 120.448355,106.4954 120.612171,106.4974 C120.787829,106.4994 120.847039,106.5994 120.852961,106.8114 C120.856908,106.9074 120.86875,106.9994 120.854934,107.0954 C120.850987,107.1294 120.856908,107.1634 120.856908,107.1994 L120.708882,107.1994 L119.325329,107.1994 Z" id="Fill-21" fill="#FFFFFF"></path>
            <path d="M139.619342,120.4924 L139.619342,118.1244 C139.619342,117.9424 139.625263,117.7584 139.617368,117.5744 C139.613421,117.4684 139.648947,117.4304 139.753553,117.4304 C140.554868,117.4404 140.515395,117.3304 140.511447,118.1584 C140.505526,119.3104 140.509474,120.4624 140.509474,121.6164 C140.509474,121.7164 140.513421,121.8164 140.509474,121.9164 C140.505526,122.0504 140.428553,122.1324 140.304211,122.1424 C140.140395,122.1564 139.974605,122.1484 139.810789,122.1444 C139.783158,122.1444 139.741711,122.1264 139.729868,122.1064 C139.534474,121.7724 139.254211,121.5024 139.041053,121.1884 C138.871316,120.9384 138.673947,120.7104 138.496316,120.4704 C138.123289,119.9724 137.803553,119.4304 137.353553,118.9924 C137.32,118.9604 137.323947,118.8924 137.245,118.8504 L137.245,119.1864 C137.245,120.1044 137.243026,121.0244 137.246974,121.9424 C137.246974,122.0724 137.245,122.1664 137.071316,122.1504 C136.875921,122.1304 136.680526,122.1344 136.485132,122.1284 C136.473289,121.9344 136.453553,121.7384 136.453553,121.5404 C136.451579,120.2384 136.453553,118.9364 136.449605,117.6324 C136.449605,117.4944 136.461447,117.4064 136.629211,117.4304 C136.710132,117.4424 136.793026,117.4384 136.875921,117.4324 C137.138421,117.4084 137.323947,117.4784 137.452237,117.7524 C137.558816,117.9784 137.758158,118.1584 137.914079,118.3624 C138.368026,118.9544 138.82,119.5504 139.277895,120.1424 C139.364737,120.2524 139.473289,120.3444 139.619342,120.4924" id="Fill-23" fill="#FFFFFF"></path>
            <path d="M74.4818421,118.881 C74.4818421,119.957 74.4778947,120.941 74.4857895,121.925 C74.4877632,122.091 74.4680263,122.175 74.2746053,122.151 C74.0969737,122.129 73.9134211,122.143 73.7338158,122.141 C73.7180263,121.945 73.6923684,121.753 73.6923684,121.557 C73.6884211,120.255 73.6943421,118.949 73.6864474,117.645 C73.6844737,117.461 73.7298684,117.403 73.9035526,117.429 C73.9844737,117.441 74.0713158,117.443 74.1502632,117.429 C74.3456579,117.397 74.4384211,117.487 74.5568421,117.645 C74.9910526,118.221 75.4667105,118.767 75.9107895,119.337 C76.2186842,119.731 76.5028947,120.143 76.8581579,120.629 L76.8581579,120.189 C76.8581579,119.437 76.8561842,118.685 76.8601316,117.933 C76.8601316,117.771 76.8818421,117.609 76.8936842,117.447 C77.1364474,117.449 77.3792105,117.439 77.62,117.461 C77.6673684,117.465 77.7246053,117.579 77.7423684,117.651 C77.7660526,117.729 77.7482895,117.817 77.7482895,117.901 L77.7482895,119.805 L77.7482895,120.559 C77.7482895,120.825 77.7384211,121.093 77.7502632,121.359 C77.7601316,121.563 77.6456579,121.753 77.7068421,121.963 C77.7206579,122.007 77.6476316,122.125 77.6081579,122.131 C77.4127632,122.151 77.2153947,122.149 77.0180263,122.143 C76.9825,122.141 76.9410526,122.087 76.9094737,122.049 C76.7930263,121.899 76.6686842,121.753 76.5621053,121.593 C76.2147368,121.083 75.8022368,120.621 75.4627632,120.101 C75.1923684,119.685 74.845,119.325 74.4818421,118.881" id="Fill-25" fill="#FFFFFF"></path>
            <path d="M112.891711,119.8108 C112.891711,119.9608 112.889737,120.1108 112.891711,120.2628 C112.895658,120.6108 112.901579,120.9608 112.9075,121.3088 C113.262763,121.3208 113.625921,121.3028 113.979211,121.3528 C114.340395,121.4048 114.575263,121.1708 114.831842,121.0168 C115.046974,120.8868 115.167368,120.6428 115.268026,120.4028 C115.429868,120.0128 115.394342,119.6188 115.266053,119.2328 C115.043026,118.5648 114.474605,118.2228 113.888421,118.2348 C113.623947,118.2388 113.3575,118.2528 113.096974,118.2288 C112.897632,118.2108 112.883816,118.2968 112.887763,118.4568 C112.897632,118.9088 112.891711,119.3588 112.891711,119.8108 M112.001579,119.7788 C112.001579,119.0448 112.001579,118.3128 111.999605,117.5788 C111.997632,117.4768 112.023289,117.4308 112.131842,117.4308 C112.822632,117.4348 113.521316,117.3608 114.202237,117.4508 C114.956184,117.5508 115.603553,117.8848 115.974605,118.6628 C116.201579,119.1348 116.318026,119.6028 116.245,120.0948 C116.177895,120.5408 116.023947,120.9628 115.668684,121.3048 C115.343026,121.6188 115.005526,121.8888 114.569342,122.0008 C114.328553,122.0608 114.083816,122.1308 113.837105,122.1408 C113.278553,122.1608 112.72,122.1428 112.159474,122.1508 C112.027237,122.1508 111.997632,122.1028 111.997632,121.9788 C112.003553,121.2468 112.001579,120.5128 112.001579,119.7788" id="Fill-27" fill="#FFFFFF"></path>
            <path d="M91.0886184,119.7248 L91.0886184,119.7388 C91.2188816,119.7388 91.3511184,119.7328 91.4813816,119.7408 C91.7241447,119.7548 91.9392763,119.7108 92.1484868,119.5568 C92.3616447,119.3988 92.5116447,119.1808 92.4780921,118.9608 C92.4445395,118.7288 92.4070395,118.4308 92.0774342,118.3268 C91.8425658,118.2528 91.6254605,118.1208 91.3688816,118.1328 C91.2701974,118.1388 91.1517763,118.1708 91.0767763,118.1268 C90.9583553,118.0548 90.9129605,118.3128 90.7965132,118.1688 C90.74125,118.1008 90.6859868,118.2628 90.5754605,118.1708 C90.5024342,118.1068 90.3228289,118.3048 90.3208553,118.4408 C90.3188816,118.6068 90.3169079,118.7728 90.3208553,118.9388 C90.32875,119.2008 90.3445395,119.4628 90.3563816,119.7248 L91.0886184,119.7248 Z M93.4905921,122.1308 C93.4175658,122.1388 93.3701974,122.1468 93.3228289,122.1468 C93.0603289,122.1428 92.76625,122.2128 92.5471711,122.1108 C92.3675658,122.0288 92.2866447,121.7368 92.1504605,121.5468 C91.9471711,121.2628 91.7320395,120.9868 91.5228289,120.7068 C91.4280921,120.5808 91.3096711,120.5228 91.1438816,120.5368 C90.9169079,120.5568 90.6879605,120.5488 90.4590132,120.5528 C90.4451974,120.7808 90.4274342,121.0108 90.4215132,121.2388 C90.4155921,121.4728 90.4017763,121.7088 90.4254605,121.9388 C90.4471711,122.1448 90.3563816,122.1608 90.1984868,122.1488 C89.9873026,122.1348 89.7741447,122.1368 89.5629605,122.1308 C89.5511184,121.9188 89.5313816,121.7048 89.5313816,121.4928 C89.5274342,120.2068 89.5313816,118.9208 89.5274342,117.6348 C89.5254605,117.5008 89.5353289,117.4268 89.7050658,117.4288 C90.3958553,117.4368 91.0905921,117.3948 91.7813816,117.4448 C92.2807237,117.4808 92.7701974,117.6248 93.10375,118.0828 C93.1807237,118.1868 93.1708553,118.2888 93.2024342,118.3928 C93.3248026,118.7768 93.3682237,119.4208 93.1807237,119.6588 C92.9655921,119.9268 92.7879605,120.2748 92.39125,120.3408 C92.2866447,120.3568 92.3103289,120.3868 92.3596711,120.4548 C92.5057237,120.6588 92.6359868,120.8728 92.7820395,121.0788 C92.9044079,121.2468 93.0465132,121.3988 93.1629605,121.5708 C93.2754605,121.7388 93.3682237,121.9208 93.4905921,122.1308 Z" id="Fill-29" fill="#FFFFFF"></path>
            <g id="Group-33" transform="translate(97.131579, 117.251200)">
                <mask id="mask-6" fill="white">
                    <use xlink:href="#path-5"></use>
                </mask>
                <g id="Clip-32"></g>
                <path d="M2.84236842,4.208 C2.98447368,4.192 3.14039474,4.208 3.26868421,4.154 C3.92394737,3.87 4.41539474,3.316 4.37394737,2.542 C4.33644737,1.81 3.90223684,1.046 3.15026316,0.984 C2.80486842,0.742 2.47328947,0.896 2.17921053,1.062 C1.46868421,1.468 1.24565789,1.992 1.29894737,2.75 C1.35618421,3.59 2.05486842,4.25 2.84236842,4.208 M2.78118421,5 C1.82,4.986 1.09960526,4.546 0.62,3.714 C0.499605263,3.502 0.404868421,3.26 0.416710526,3 C0.420657895,2.854 0.422631579,2.71 0.318026316,2.59 C0.499605263,2.27 0.408815789,1.892 0.580526316,1.552 C0.971315789,0.782 1.4075,0.446 2.13776316,0.212 C2.38052632,0.132 2.66276316,0.084 2.92328947,0.094 C3.22723684,0.104 3.545,0.17 3.82328947,0.294 C4.08973684,0.412 4.32855263,0.614 4.54565789,0.816 C4.75092105,1.006 4.95421053,1.218 4.97,1.534 C5.26605263,1.818 5.09828947,2.24 5.26802632,2.56 C5.17723684,2.908 5.16539474,3.272 5.00947368,3.602 C4.84960526,3.94 4.64039474,4.256 4.34039474,4.466 C3.83315789,4.822 3.40881579,5.018 2.78118421,5" id="Fill-31" fill="#FFFFFF" mask="url(#mask-6)"></path>
            </g>
            <path d="M104.873618,118.9748 C104.873618,119.1768 104.881513,119.3748 104.869671,119.5768 C104.86375,119.7108 104.913092,119.7448 105.037434,119.7428 C105.400592,119.7348 105.76375,119.7408 106.126908,119.7388 C106.207829,119.7388 106.649934,119.5888 106.693355,119.5508 C106.906513,119.3588 107.042697,118.9908 106.924276,118.7688 C106.786118,118.5108 106.659803,118.1908 106.267039,118.2348 C106.217697,118.2388 106.154539,118.2548 106.120987,118.2308 C105.819013,118.0328 105.487434,118.1648 105.167697,118.1408 C105.001908,118.1288 104.875592,118.3048 104.873618,118.4728 C104.871645,118.6408 104.873618,118.8068 104.873618,118.9748 Z M104.082171,119.7968 C104.082171,119.0808 104.090066,118.3608 104.07625,117.6428 C104.072303,117.4528 104.129539,117.4268 104.297303,117.4288 C104.922961,117.4368 105.552566,117.4068 106.17625,117.4388 C106.683487,117.4688 107.178882,117.5728 107.512434,118.0408 C107.636776,118.2148 107.733487,118.3748 107.75125,118.5988 C107.770987,118.8228 107.792697,119.0368 107.755197,119.2668 C107.719671,119.4848 107.668355,119.6688 107.514408,119.8228 C107.348618,119.9848 107.216382,120.2248 107.019013,120.3008 C106.726908,120.4108 106.88875,120.5388 106.957829,120.6428 C107.153224,120.9468 107.372303,121.2388 107.585461,121.5328 C107.697961,121.6868 107.822303,121.8328 107.928882,121.9928 C107.946645,122.0188 107.895329,122.1388 107.875592,122.1408 C107.595329,122.1508 107.313092,122.1508 107.034803,122.1408 C107.005197,122.1388 106.983487,122.0448 106.951908,122.0008 C106.616382,121.5428 106.241382,121.1108 105.959145,120.6128 C105.935461,120.5748 105.856513,120.5448 105.805197,120.5448 C105.507171,120.5408 105.213092,120.5448 104.915066,120.5468 C104.903224,120.8428 104.887434,121.1368 104.873618,121.4328 C104.869671,121.5308 104.873618,121.6308 104.873618,121.7328 C104.871645,122.1468 104.871645,122.1468 104.463092,122.1468 C104.082171,122.1468 104.082171,122.1468 104.082171,121.7528 L104.082171,119.7968 Z" id="Fill-34" fill="#FFFFFF"></path>
            <path d="M134.669539,120.5354 C134.669539,120.8034 134.665592,121.0714 134.671513,121.3374 C134.673487,121.4414 134.659671,121.5254 134.570855,121.5974 C134.304408,121.8154 133.582039,122.1074 133.212961,122.1514 C133.074803,122.1654 132.926776,122.2694 132.812303,122.2374 C132.423487,122.1274 132.020855,122.1434 131.637961,121.9634 C131.262961,121.7894 130.970855,121.5294 130.763618,121.2234 C130.412303,120.7014 130.22875,119.9614 130.37875,119.2934 C130.532697,118.6094 130.923487,118.1514 131.383355,117.7054 C131.521513,117.5734 131.716908,117.5574 131.888618,117.4914 C132.743224,117.1654 133.660987,117.3114 134.39125,117.8274 C134.511645,117.9114 134.476118,118.0014 134.464276,118.0774 C134.450461,118.1454 134.357697,118.1974 134.300461,118.2574 C133.994539,118.5774 134.000461,118.5674 133.609671,118.3234 C133.457697,118.2294 133.270197,118.1814 133.092566,118.1394 C132.984013,118.1134 132.861645,118.1514 132.747171,118.1314 C132.320855,118.0574 132.010987,118.3094 131.742566,118.5634 C131.46625,118.8214 131.286645,119.1654 131.304408,119.5774 C131.306382,119.6614 131.318224,119.7454 131.302434,119.8274 C131.213618,120.2434 131.487961,120.5514 131.614276,120.8994 C131.647829,120.9854 131.738618,121.0674 131.821513,121.1094 C132.196513,121.3034 132.581382,121.5274 133.017566,121.4334 C133.311645,121.3714 133.627434,121.3214 133.870197,121.1034 C133.957039,121.0274 133.959013,120.9914 133.889934,120.8814 C133.830724,120.7854 133.868224,120.6194 133.884013,120.4894 C133.909671,120.2814 133.895855,120.2454 133.728092,120.2434 C133.465592,120.2374 133.201118,120.2434 132.936645,120.2414 C132.693882,120.2394 132.689934,120.2394 132.691908,120.0114 C132.691908,119.8294 132.70375,119.6494 132.709671,119.4694 C132.873487,119.4934 133.037303,119.5314 133.201118,119.5354 C133.645197,119.5454 134.09125,119.5414 134.537303,119.5374 C134.643882,119.5354 134.673487,119.5794 134.671513,119.6834 C134.665592,119.9674 134.669539,120.2494 134.669539,120.5354" id="Fill-36" fill="#FFFFFF"></path>
            <path d="M117.841316,119.8048 C117.841316,119.0708 117.843289,118.3368 117.839342,117.6008 C117.837368,117.4808 117.861053,117.4288 117.997237,117.4288 C119.051184,117.4328 120.105132,117.4328 121.161053,117.4308 C121.259737,117.4308 121.313026,117.4508 121.307105,117.5648 C121.301184,117.6968 121.311053,117.8328 121.305132,117.9648 C121.295263,118.1648 121.283421,118.1548 121.030789,118.1388 C120.7525,118.1208 120.470263,118.1168 120.191974,118.1388 C119.925526,118.1608 119.639342,118.0408 119.386711,118.2228 C119.319605,118.0768 119.205132,118.2548 119.100526,118.1768 C119.021579,118.1188 118.863684,118.1628 118.743289,118.1808 C118.709737,118.1848 118.658421,118.2788 118.668289,118.3148 C118.770921,118.6328 118.776842,118.9448 118.666316,119.2628 C118.662368,119.2728 118.733421,119.3348 118.770921,119.3348 C119.215,119.3408 119.659079,119.3388 120.103158,119.3388 L120.598553,119.3388 C121.009079,119.3388 121.009079,119.3388 121.007105,119.7528 C121.007105,120.1388 121.007105,120.1408 120.620263,120.1408 C120.028158,120.1408 119.436053,120.1388 118.843947,120.1408 C118.780789,120.1428 118.688026,120.1368 118.664342,120.1728 C118.628816,120.2228 118.761053,120.2968 118.654474,120.3908 C118.622895,120.4208 118.749211,120.6548 118.723553,120.6728 C118.593289,120.7608 118.745263,120.8628 118.69,120.9308 C118.597237,121.0428 118.867632,121.1928 118.644605,121.2808 C118.695921,121.3028 118.743289,121.3428 118.792632,121.3428 C119.550526,121.3468 120.308421,121.3448 121.066316,121.3448 C121.301184,121.3468 121.307105,121.3468 121.305132,121.5828 C121.303158,121.7628 121.354474,122.0088 121.261711,122.1028 C121.170921,122.1968 120.924211,122.1448 120.748553,122.1448 C119.842632,122.1488 118.936711,122.1428 118.030789,122.1508 C117.882763,122.1508 117.835395,122.1128 117.837368,121.9588 C117.845263,121.2408 117.841316,120.5228 117.841316,119.8048" id="Fill-38" fill="#FFFFFF"></path>
            <path d="M86.1621053,122.1466 L84.8772368,122.1466 C84.7963158,122.1466 84.7094737,122.1606 84.6305263,122.1426 C84.5594737,122.1266 84.4825,122.0886 84.4272368,122.0386 C84.3581579,121.9746 84.5397368,121.8526 84.3838158,121.7926 C84.5693421,121.6326 84.4746053,121.4186 84.4765789,121.2326 C84.4864474,120.3306 84.4884211,119.4286 84.4765789,118.5246 C84.4726316,118.2226 84.4173684,117.9186 84.3798684,117.6146 C84.3601316,117.4506 84.4351316,117.4286 84.5752632,117.4306 C85.5976316,117.4346 86.62,117.4386 87.6423684,117.4266 C87.8417105,117.4226 87.8496053,117.4966 87.8496053,117.6566 C87.8496053,118.1326 87.8555263,118.1346 87.3996053,118.1346 C86.7403947,118.1346 86.0792105,118.1346 85.42,118.1326 C85.3232895,118.1306 85.2601316,118.1486 85.2719737,118.2646 C85.2759211,118.2966 85.2719737,118.3306 85.2719737,118.3626 C85.2798684,118.6786 85.2857895,118.9946 85.2936842,119.3086 C85.6015789,119.3186 85.9094737,119.3326 86.2193421,119.3366 C86.6002632,119.3426 86.9772368,119.3346 87.3561842,119.3406 C87.6048684,119.3446 87.6877632,119.4566 87.6088158,119.7166 C87.5890789,119.7826 87.5969737,119.8026 87.6127632,119.8626 C87.6759211,120.0966 87.7035526,120.1486 87.4114474,120.1426 C86.7522368,120.1326 86.0930263,120.1446 85.4338158,120.1366 C85.2996053,120.1366 85.2660526,120.1826 85.27,120.3086 C85.2818421,120.6406 85.2798684,120.9726 85.2838158,121.3046 C85.6094737,121.3186 85.9331579,121.3386 86.2568421,121.3426 C86.7522368,121.3506 87.2476316,121.3566 87.7410526,121.3386 C87.9384211,121.3306 87.9601316,121.4066 87.9463158,121.5686 C87.9325,121.7486 88.0015789,121.9926 87.9107895,122.0946 C87.8239474,122.1886 87.5772368,122.1426 87.3996053,122.1446 C86.9871053,122.1506 86.5746053,122.1466 86.1621053,122.1466" id="Fill-40" fill="#FFFFFF"></path>
            <path d="M124.409934,117.4318 C124.917171,117.3898 125.392829,117.5758 125.84875,117.8318 C126.105329,117.9778 126.113224,118.0038 125.933618,118.2098 C125.81125,118.3498 125.692829,118.4938 125.574408,118.6358 C125.430329,118.5438 125.292171,118.4358 125.140197,118.3638 C124.859934,118.2318 124.571776,118.1018 124.246118,118.1338 C123.985592,118.1598 123.699408,118.3898 123.626382,118.6458 C123.616513,118.6758 123.63625,118.7178 123.648092,118.7518 C123.778355,119.1318 124.088224,119.2678 124.437566,119.3358 C124.800724,119.4058 125.161908,119.4918 125.497434,119.6438 C125.665197,119.7238 125.81125,119.8598 125.949408,119.9858 C126.095461,120.1198 126.164539,120.2938 126.158618,120.4998 C126.146776,120.8518 126.202039,121.2058 125.967171,121.5258 C125.870461,121.6558 125.785592,121.7638 125.645461,121.8518 C125.019803,122.2338 124.257961,122.2338 123.596776,122.0078 C123.257303,121.8918 122.917829,121.7778 122.671118,121.4818 C122.600066,121.3938 122.615855,121.3638 122.680987,121.2998 C122.710592,121.2718 122.694803,121.1998 122.722434,121.1678 C122.819145,121.0558 122.911908,120.9198 123.038224,120.8558 C123.202039,120.7718 123.282961,120.9798 123.385592,121.0558 C123.746776,121.3118 124.135592,121.4418 124.565855,121.4378 C124.727697,121.4358 124.913224,121.3878 125.047434,121.2998 C125.171776,121.2178 125.24875,121.0558 125.331645,120.9238 C125.394803,120.8178 125.380987,120.7218 125.294145,120.6158 C125.019803,120.2858 124.629013,120.2118 124.250066,120.1458 C123.732961,120.0578 123.282961,119.8658 122.957303,119.4458 C122.854671,119.3158 122.748092,119.1598 122.791513,118.9658 C122.836908,118.7458 122.726382,118.5218 122.864539,118.2938 C122.977039,118.1058 123.028355,117.8418 123.227697,117.7558 C123.537566,117.6258 123.804013,117.3558 124.184934,117.4298 C124.248092,117.4438 124.315197,117.4318 124.409934,117.4318" id="Fill-42" fill="#FFFFFF"></path>
            <path d="M81.5111184,120.219 C81.5111184,120.703 81.5111184,121.185 81.5091447,121.671 C81.5091447,121.819 81.5525658,122.045 81.4815132,122.095 C81.3690132,122.175 81.1736184,122.137 81.01375,122.147 C80.9486184,122.151 80.8815132,122.147 80.8144079,122.147 C80.7117763,122.145 80.7729605,122.115 80.7019079,121.965 C80.6288816,121.807 80.7394079,121.711 80.7176974,121.591 C80.6900658,121.453 80.6249342,121.319 80.6249342,121.181 C80.6150658,120.347 80.6190132,119.513 80.6190132,118.677 C80.6190132,118.645 80.6170395,118.611 80.6209868,118.579 C80.6446711,118.241 80.6446711,118.239 80.3703289,118.235 C80.1709868,118.233 79.9755921,118.239 79.77625,118.233 C79.6005921,118.229 79.4229605,118.211 79.2492763,118.199 C79.2433553,117.967 79.2354605,117.737 79.2394079,117.505 C79.2394079,117.481 79.3005921,117.449 79.3380921,117.433 C79.3676974,117.423 79.4051974,117.431 79.4367763,117.431 C80.5578289,117.431 81.6769079,117.433 82.7959868,117.429 C82.9321711,117.429 83.0150658,117.439 82.9973026,117.611 C82.9795395,117.807 82.9834868,118.007 82.9755921,118.203 C82.7841447,118.213 82.5907237,118.225 82.3973026,118.235 C82.1051974,118.249 81.8130921,118.261 81.5229605,118.271 C81.5190132,118.553 81.5130921,118.837 81.5111184,119.117 C81.5091447,119.485 81.5111184,119.851 81.5111184,120.219" id="Fill-44" fill="#FFFFFF"></path>
            <path d="M94.9742105,119.7366 C94.9742105,119.0206 94.9742105,118.3006 94.9722368,117.5846 C94.9722368,117.4866 94.9840789,117.4266 95.0985526,117.4306 C95.3432895,117.4426 95.59,117.4446 95.8347368,117.4506 C95.8426316,117.6806 95.8623684,117.9106 95.8623684,118.1386 C95.8663158,119.4086 95.8623684,120.6766 95.8663158,121.9446 C95.8663158,122.0826 95.8564474,122.1646 95.6886842,122.1506 C95.4617105,122.1306 95.2327632,122.1346 95.0057895,122.1266 C94.9939474,121.8986 94.9761842,121.6706 94.9742105,121.4406 C94.9702632,120.8726 94.9742105,120.3046 94.9742105,119.7366" id="Fill-46" fill="#FFFFFF"></path>
            <path d="M128.731316,119.84 C128.731316,120.542 128.727368,121.242 128.733289,121.944 C128.733289,122.076 128.727368,122.164 128.555658,122.15 C128.328684,122.132 128.099737,122.134 127.870789,122.13 C127.860921,121.9 127.841184,121.67 127.841184,121.442 C127.837237,120.172 127.841184,118.904 127.837237,117.634 C127.837237,117.502 127.843158,117.414 128.014868,117.428 C128.241842,117.448 128.468816,117.444 128.697763,117.45 C128.707632,117.678 128.727368,117.908 128.729342,118.136 C128.733289,118.706 128.731316,119.272 128.731316,119.84" id="Fill-48" fill="#FFFFFF"></path>
            <path d="M70.9181579,119.7366 C70.9181579,119.0206 70.9201316,118.3006 70.9161842,117.5846 C70.9161842,117.4886 70.9280263,117.4266 71.0444737,117.4306 C71.2872368,117.4426 71.5339474,117.4446 71.7786842,117.4506 C71.7885526,117.6806 71.8063158,117.9086 71.8082895,118.1386 C71.8102632,119.4066 71.8063158,120.6766 71.8122368,121.9446 C71.8122368,122.0806 71.8023684,122.1646 71.6326316,122.1506 C71.4056579,122.1306 71.1786842,122.1346 70.9497368,122.1286 C70.9398684,121.8986 70.9221053,121.6706 70.9201316,121.4406 C70.9161842,120.8726 70.9181579,120.3046 70.9181579,119.7366" id="Fill-50" fill="#FFFFFF"></path>
        </g>
    </g>
</svg>