<?xml version="1.0" encoding="UTF-8"?>
<svg width="212px" height="212px" viewBox="0 0 212 212" version="1.1" xmlns="http://www.w3.org/2000/svg" xmlns:xlink="http://www.w3.org/1999/xlink">
    <!-- Generator: Sketch 51.2 (57519) - http://www.bohemiancoding.com/sketch -->
    <title>Logos-Hover</title>
    <desc>Created with Sketch.</desc>
    <defs></defs>
    <g id="Logos-Hover" stroke="none" stroke-width="1" fill="none" fill-rule="evenodd">
        <g id="blue-bottle">
            <rect id="Rectangle-Copy-2" fill="#02A1DE" x="0" y="0" width="216" height="214"></rect>
            <path d="M101.809457,61.5565819 C103.451171,61.2268108 105.107457,60.894606 106.814743,60.5502325 L106.814743,61.1513651 C106.814743,64.7618108 106.807457,68.3734735 106.820814,71.9827024 C106.823243,72.8710157 107.033314,73.731341 107.488671,74.4979675 C107.969529,75.3071843 108.692029,75.8559916 109.584529,76.1516904 C110.225671,76.3622084 110.877743,76.5362205 111.5286,76.7114494 C112.406529,76.9475217 113.158171,77.4147988 113.870957,77.9587386 C115.042743,78.8531361 115.896386,80.0103771 116.580029,81.3051241 C117.549029,83.1365096 118.238743,85.0749795 118.717171,87.0864614 C118.885957,87.7995458 118.995243,88.5345337 119.054743,89.2658711 C119.151886,90.479088 119.191957,91.6971723 119.2466,92.9128229 C119.287886,93.8060036 119.319457,94.7016181 119.3401,95.5960157 C119.377743,97.2339193 119.398386,98.8730398 119.436029,100.510943 C119.457886,101.48322 119.524671,102.454281 119.519814,103.426558 C119.512529,105.0961 119.470029,106.765642 119.431171,108.433967 C119.412957,109.205461 119.380171,109.975739 119.338886,110.746016 C119.284243,111.776702 119.227171,112.806172 119.149457,113.834425 C119.071743,114.861461 118.992814,115.888498 118.867743,116.909449 C118.717171,118.127534 118.509529,119.3371 118.340743,120.551534 C118.281243,120.978654 118.2776,121.411859 118.227814,121.83898 C118.042029,123.425775 117.630386,124.946859 116.855671,126.353558 C116.7476,126.54704 116.580029,126.734437 116.395457,126.856124 C114.995386,127.77851 113.479957,128.45022 111.8431,128.793377 C111.0186,128.966172 110.161314,129.123148 109.322243,128.99051 C107.832314,128.752004 106.338743,128.833534 104.846386,128.826233 C104.109314,128.821365 103.369814,128.911413 102.632743,128.906546 C101.403886,128.896811 100.182314,128.783642 98.9728857,128.556088 C97.9504571,128.362606 96.9171,128.214148 95.9080286,127.969558 C95.1636714,127.789461 94.6779571,127.29298 94.5213143,126.494714 C94.1412429,124.553811 93.7223143,122.618992 93.3446714,120.676871 C93.0678143,119.247052 92.8286,117.808714 92.5772429,116.372811 C92.3938857,115.31657 92.2008143,114.260329 92.0417429,113.19922 C91.8911714,112.197739 91.7818857,111.190172 91.6507429,110.18504 C91.5329571,109.288208 91.3969571,108.393811 91.2949571,107.494546 C91.2099571,106.746172 91.1650286,105.992931 91.0946,105.243341 C91.0083857,104.341642 90.9088143,103.44116 90.8250286,102.539461 C90.7813143,102.063666 90.7485286,101.586654 90.7291,101.110859 C90.6902429,100.154401 90.6501714,99.1979434 90.6356,98.2414855 C90.5967429,95.7201361 90.5554571,93.1987867 90.5506,90.6774373 C90.5481714,89.9412325 90.6586714,89.2062446 90.7145286,88.4712566 C90.7533857,87.9796422 90.7740286,87.4868108 90.8201714,86.9964133 C90.9476714,85.667594 91.0496714,84.336341 91.4649571,83.0525458 C91.8936,81.7346783 92.7314571,80.7745699 93.9493857,80.1637024 C94.8285286,79.7231964 95.7343857,79.3374494 96.6414571,78.9590036 C97.5873857,78.5647386 98.4288857,78.0147145 99.2108857,77.357606 C100.1046,76.6092325 100.7506,75.6941482 101.136743,74.5977506 C101.435457,73.7532446 101.638243,72.8844012 101.6686,71.9900036 C101.720814,70.4141602 101.752386,68.8383169 101.760886,67.2612566 C101.765743,66.366859 101.675886,65.4724614 101.683171,64.5780639 C101.690457,63.5936181 101.763314,62.6091723 101.809457,61.5565819" id="Fill-1" fill="#FFFFFF"></path>
            <path d="M66.0497143,141.109293 C66.6265,141.109293 67.1802143,141.138498 67.7290714,141.099558 C68.1795714,141.067919 68.4697857,140.722329 68.5122857,140.280606 C68.5547857,139.846184 68.369,139.606461 67.842,139.444618 C67.2542857,139.264522 66.6605,139.398377 66.0497143,139.369172 L66.0497143,141.109293 Z M66.04,144.554245 C66.4407143,144.554245 66.7940714,144.566413 67.1462143,144.549377 C67.4194286,144.537208 67.6975,144.517739 67.9597857,144.44716 C68.3058571,144.353461 68.5305,143.971365 68.5135,143.591702 C68.5001429,143.264365 68.2087143,142.848196 67.8869286,142.82751 C67.2785714,142.78857 66.6653571,142.816558 66.04,142.816558 L66.04,144.554245 Z M69.5492857,141.920943 C70.9432857,142.6681 70.7684286,144.482449 69.9293571,145.440124 C69.4290714,146.013269 68.7879286,146.302883 68.0411429,146.334522 C66.7054286,146.391714 65.3685,146.427004 64,146.470811 L64,137.486678 L64.5063571,137.486678 C65.4498571,137.486678 66.3921429,137.480594 67.3356429,137.489112 C68.0617857,137.496413 68.7527143,137.646088 69.3938571,138.016016 C70.2985,138.536835 70.9785,140.118763 70.2960714,141.083739 C70.0799286,141.390389 69.7945714,141.648365 69.5492857,141.920943 Z" id="Fill-3" fill="#FFFFFF"></path>
            <path d="M102.341921,139.329746 L102.341921,141.112457 C102.889564,141.112457 103.39835,141.125842 103.907136,141.108806 C104.402564,141.09177 104.742564,140.761999 104.79235,140.288637 C104.838493,139.852999 104.658779,139.5573 104.126921,139.459951 C103.547707,139.3553 102.94785,139.368686 102.341921,139.329746 Z M102.324921,144.54889 C102.993993,144.520902 103.637564,144.655975 104.267779,144.44424 C104.585921,144.335939 104.820279,143.922204 104.793564,143.563228 C104.765636,143.213987 104.440207,142.829457 104.091707,142.813637 C103.511279,142.786866 102.928421,142.806336 102.324921,142.806336 L102.324921,144.54889 Z M100.269136,146.471541 L100.269136,137.512963 C100.437921,137.503228 100.587279,137.488625 100.736636,137.488625 C101.694707,137.486192 102.652779,137.47889 103.61085,137.489842 C104.336993,137.49836 105.027921,137.644384 105.670279,138.013095 C106.57735,138.535131 107.25735,140.119493 106.576136,141.079601 C106.359993,141.387469 106.07585,141.646661 105.815993,141.933842 C106.442564,142.197902 106.752207,142.768613 106.837207,143.439107 C106.930707,144.181396 106.703636,144.861625 106.210636,145.435987 C105.715207,146.013999 105.071636,146.302396 104.323636,146.335252 C102.987921,146.392445 101.652207,146.426517 100.269136,146.471541 Z" id="Fill-5" fill="#FFFFFF"></path>
            <path d="M112.620729,139.262575 C111.744014,139.286912 111.0033,139.655623 110.597729,140.580442 C110.376729,141.079358 110.245586,141.591659 110.284443,142.139249 C110.351229,143.084755 110.849086,144.338129 112.127729,144.59002 C112.870871,144.736045 113.573943,144.671551 114.189586,144.126394 C115.096657,143.322045 115.3553,141.743767 114.7773,140.567057 C114.345014,139.687261 113.666229,139.269876 112.620729,139.262575 M112.696014,146.557695 C111.798657,146.533358 110.966871,146.321623 110.194586,145.875033 C109.327586,145.372466 108.816371,144.588804 108.506729,143.666418 C108.142443,142.577322 108.1133,141.461454 108.467871,140.373575 C109.007014,138.719852 110.109586,137.717153 111.886086,137.470129 C112.904871,137.327755 113.853229,137.436057 114.789443,137.843707 C115.934514,138.34384 116.589014,139.27231 116.918086,140.40643 C117.373443,141.976189 117.194943,143.49484 116.249014,144.878418 C115.630943,145.783767 114.728729,146.219406 113.692943,146.425057 C113.363871,146.489551 113.027514,146.513888 112.696014,146.557695" id="Fill-7" fill="#FFFFFF"></path>
            <polygon id="Fill-9" fill="#FFFFFF" points="148.117214 137.522819 148.117214 139.34812 144.094286 139.34812 144.094286 141.00306 147.275714 141.00306 147.275714 142.885554 144.091857 142.885554 144.091857 144.541711 148.112357 144.541711 148.112357 146.388916 142.0385 146.388916 142.0385 137.522819"></polygon>
            <polygon id="Fill-11" fill="#FFFFFF" points="94.1004429 146.409237 88.0314429 146.409237 88.0314429 137.517587 94.1113714 137.517587 94.1113714 139.341671 90.0860143 139.341671 90.0860143 140.997828 93.2625857 140.997828 93.2625857 142.880322 90.0835857 142.880322 90.0835857 144.536478 94.1004429 144.536478"></polygon>
            <path d="M83.8240643,137.509799 L85.8494929,137.509799 C85.8604214,137.652172 85.8786357,137.786028 85.8786357,137.918666 C85.8810643,139.623498 85.9199214,141.329546 85.8689214,143.03316 C85.82885,144.324257 85.3334214,145.43769 84.1312786,146.064377 C83.4124214,146.437955 82.6340643,146.601016 81.79135,146.456208 C81.2242786,146.358859 80.69485,146.221353 80.2115643,145.914702 C79.4101357,145.404835 79.0045643,144.630907 78.8236357,143.732859 C78.7422786,143.330076 78.7277071,142.90904 78.7252786,142.496522 C78.71435,140.853751 78.7216357,139.212196 78.7216357,137.528052 L80.7774214,137.528052 L80.7774214,138.005064 L80.7774214,142.933377 C80.7774214,143.43351 80.9680643,143.848461 81.3104929,144.213522 C81.9212786,144.864546 83.0590643,144.741642 83.54235,143.909305 C83.7269214,143.589269 83.8325643,143.246112 83.8301357,142.860365 C83.8167786,141.265052 83.8240643,139.668522 83.8240643,138.071992 L83.8240643,137.509799 Z" id="Fill-13" fill="#FFFFFF"></path>
            <polygon id="Fill-15" fill="#FFFFFF" points="120.6712 139.3553 118.374986 139.3553 118.374986 137.51783 125.008629 137.51783 125.008629 139.343131 122.734271 139.343131 122.734271 146.390011 120.6712 146.390011"></polygon>
            <polygon id="Fill-17" fill="#FFFFFF" points="126.6348 137.50919 133.2648 137.50919 133.2648 139.355178 130.996514 139.355178 130.996514 146.387455 128.934657 146.387455 128.934657 139.375865 126.6348 139.375865"></polygon>
            <polygon id="Fill-19" fill="#FFFFFF" points="74.3635643 144.560816 77.5887071 144.560816 77.5887071 146.398286 72.3454214 146.398286 72.3454214 137.527322 74.3635643 137.527322"></polygon>
            <polygon id="Fill-21" fill="#FFFFFF" points="135.157264 146.393296 135.157264 137.516248 137.168121 137.516248 137.168121 144.533923 140.398121 144.533923 140.398121 146.393296"></polygon>
            <path d="M103.776843,60.0853892 C103.701557,59.921112 103.6627,59.7787386 103.5777,59.6753048 C103.499986,59.5803892 103.379771,59.480606 103.264414,59.4635699 C102.554057,59.3552687 101.838843,59.2713048 101.126057,59.1751723 C100.929343,59.1484012 100.727771,59.1252807 100.539557,59.0656542 C100.074486,58.9196301 99.7745571,58.6154133 99.7259857,58.1104133 C99.6895571,57.7124976 99.6300571,57.3121482 99.6470571,56.9166663 C99.6567714,56.6854614 99.7672714,56.4396542 99.8923429,56.2376542 C100.0502,55.9808952 100.306414,55.927353 100.565057,56.1001482 C100.7897,56.2473892 101.020414,56.4311361 101.160057,56.6550398 C101.566843,57.3036301 102.154557,57.7137145 102.845486,57.957088 C103.272914,58.1067627 103.742843,58.1457024 104.1982,58.195594 C104.944986,58.278341 105.6942,58.3671723 106.443414,58.3817747 C107.022629,58.3915096 107.603057,58.2978108 108.182271,58.2345337 C108.453057,58.204112 108.615771,58.2819916 108.663129,58.5265819 C108.7712,59.0839072 108.408129,59.6168952 107.953986,59.7166783 C106.585486,60.0160277 105.2012,60.179088 103.776843,60.0853892" id="Fill-23" fill="#FFFFFF"></path>
            <path d="M100.276179,153.93751 C100.234893,153.681967 100.220321,153.419124 100.147464,153.173317 C99.9349643,152.468751 99.50875,151.949148 98.7668214,151.78122 C98.0746786,151.624245 97.4335357,151.73863 96.89925,152.257016 C96.3418929,152.796088 96.1670357,153.444678 96.2666071,154.202787 C96.4183929,155.352727 96.9563214,155.927088 97.9459643,156.146124 C98.5263929,156.273895 99.4698929,155.885714 99.7576786,155.482931 C100.081893,155.027823 100.279821,154.519172 100.276179,153.93751 M98.1329643,156.843389 C97.34975,156.933437 96.6588214,156.609751 96.0881071,155.975763 C95.69225,155.535257 95.5016071,154.994967 95.4396786,154.438859 C95.3413214,153.573666 95.4639643,152.746196 96.0006786,151.994172 C96.3503929,151.507425 96.8118214,151.256751 97.3351786,151.092473 C97.94475,150.901425 98.5810357,150.90751 99.1906071,151.092473 C100.169321,151.388172 100.738821,152.096389 100.99625,153.060148 C101.185679,153.774449 101.099464,154.477799 100.865107,155.178714 C100.538464,156.158293 99.5925357,156.883546 98.5361071,156.843389 C98.42925,156.839739 98.3199643,156.843389 98.1329643,156.843389" id="Fill-25" fill="#FFFFFF"></path>
            <polygon id="Fill-27" fill="#FFFFFF" points="118.826093 156.808465 118.826093 151.092839 122.504164 151.092839 122.504164 151.711007 119.592307 151.711007 119.592307 153.660429 121.85695 153.660429 121.85695 154.318754 119.589879 154.318754 119.589879 156.066176 122.492021 156.066176 122.492021 156.808465"></polygon>
            <polygon id="Fill-29" fill="#FFFFFF" points="116.570679 153.660551 116.570679 154.317659 114.309679 154.317659 114.309679 156.066298 117.211821 156.066298 117.211821 156.815888 113.556821 156.815888 113.556821 151.100261 117.206964 151.100261 117.206964 151.709912 114.312107 151.709912 114.312107 153.660551"></polygon>
            <path d="M94.0601286,152.304717 C93.5707714,152.099066 93.1251286,151.917753 92.6843429,151.724271 C92.1877,151.506452 91.7214143,151.709669 91.3364857,151.940873 C90.6091286,152.378946 90.3274143,153.126102 90.3456286,153.947488 C90.3650571,154.760355 90.6455571,155.484392 91.4044857,155.911512 C91.9703429,156.229114 92.5629143,156.257102 93.1530571,155.968705 C93.4384143,155.829982 93.7152714,155.670572 93.9969857,155.520898 C94.0443429,155.546452 94.0965571,155.557404 94.1208429,155.589042 C94.6429857,156.271705 94.4414143,156.158536 93.8731286,156.493175 C92.9344857,157.046849 91.9205571,157.000608 90.9612714,156.582006 C90.1343429,156.221813 89.7105571,155.462488 89.5964143,154.596078 C89.5272,154.058223 89.5599857,153.477777 89.6838429,152.94844 C89.9643429,151.768078 90.8592714,151.03309 92.1197,150.96738 C92.8288429,150.930873 93.4821286,151.05256 94.0686286,151.489416 C94.5191286,151.824054 94.5361286,151.842307 94.1342,152.239006 C94.1002,152.271861 94.0637714,152.301066 94.0601286,152.304717" id="Fill-31" fill="#FFFFFF"></path>
            <polygon id="Fill-33" fill="#FFFFFF" points="103.458943 153.673693 105.702943 153.673693 105.702943 154.314982 103.433443 154.314982 103.433443 156.814428 102.684229 156.814428 102.684229 151.102452 106.350157 151.102452 106.350157 151.707235 103.458943 151.707235"></polygon>
            <path d="M108.918493,151.714658 C108.905136,151.863116 108.892993,151.938561 108.892993,152.01279 C108.891779,152.538477 108.892993,153.064164 108.892993,153.64826 L111.180707,153.64826 L111.180707,154.322405 L108.899064,154.322405 L108.899064,156.816983 L108.171707,156.816983 L108.171707,151.098923 L111.827921,151.098923 C111.837636,151.199923 111.85585,151.30214 111.858279,151.405573 C111.860707,151.494405 111.846136,151.584453 111.836421,151.714658 L108.918493,151.714658 Z" id="Fill-35" fill="#FFFFFF"></path>
        </g>
    </g>
</svg>