<?xml version="1.0" encoding="UTF-8"?>
<svg width="212px" height="212px" viewBox="0 0 212 212" version="1.1" xmlns="http://www.w3.org/2000/svg" xmlns:xlink="http://www.w3.org/1999/xlink">
    <!-- Generator: Sketch 51.2 (57519) - http://www.bohemiancoding.com/sketch -->
    <title>Logos</title>
    <desc>Created with Sketch.</desc>
    <defs>
        <polygon id="path-1" points="1.46340521 0.724448276 100.090631 0.724448276 100.090631 45.3793103 1.46340521 45.3793103"></polygon>
        <polygon id="path-3" points="0.0606014655 0.361469197 21.0166049 0.361469197 21.0166049 7.47145974 0.0606014655 7.47145974"></polygon>
        <polygon id="path-5" points="0 1.32203864 15.7423292 1.32203864 15.7423292 12.3684552 0 12.3684552"></polygon>
    </defs>
    <g id="Logos" stroke="none" stroke-width="1" fill="none" fill-rule="evenodd">
        <g id="bougs" transform="translate(41.000000, 83.000000)">
            <g id="Group-3" transform="translate(6.469136, 0.896890)">
                <mask id="mask-2" fill="white">
                    <use xlink:href="#path-1"></use>
                </mask>
                <g id="Clip-2"></g>
                <path d="M84.4353222,29.1082345 C84.6714457,29.8326828 86.0412852,30.0466138 87.0553222,29.7338207 C88.3992852,29.3173034 89.5427049,28.1228552 89.4958037,27.1909586 C87.8202975,27.826269 86.1367049,28.4648207 84.4353222,29.1082345 Z M70.1110383,34.646131 C70.0770753,34.6396483 70.0447296,34.6315448 70.0107667,34.6250621 C69.9266679,34.8049586 69.8441864,34.9816138 69.7649395,35.1615103 C68.810742,37.3380966 67.8241988,39.5017172 67.1999272,41.8047172 C67.0576062,42.3249586 66.9896802,42.866269 66.9136679,43.4027172 C66.8732358,43.7009241 67.039816,43.8435448 67.3406309,43.8435448 C67.7530383,43.8435448 68.1460383,43.7317172 68.3934827,43.4124414 C68.7686926,42.9278552 69.1778654,42.4335448 69.4059025,41.8744069 C70.3536309,39.5406138 70.4652235,37.1112 70.1110383,34.646131 Z M36.4925568,25.0159931 C36.539458,24.9576483 36.5588654,24.9414414 36.5701864,24.9187517 C37.9885444,22.1100966 38.5287173,19.1393724 38.1292481,16.0163034 C38.0726432,15.5803379 37.8543099,15.1492345 37.6359765,14.7586483 C37.3529519,14.2448897 36.8677667,14.1038897 36.2984827,14.2189586 C34.9965691,14.483131 34.3205444,15.3923379 33.9809148,16.5738207 C33.3614951,18.7260966 33.7512605,20.7843724 34.7086926,22.7583724 C35.132421,23.6286828 35.7065568,24.3936483 36.4925568,25.0159931 Z M9.89147037,11.4897172 C9.92705062,11.517269 9.9593963,11.5448207 9.99335926,11.5723724 C10.8505198,11.0975103 11.7222358,10.6437172 12.5648407,10.1429241 C14.3357667,9.08947586 16.0872852,8.00523448 17.5800383,6.5612 C18.233421,5.92751034 18.8754827,5.26951034 19.2037914,4.39271724 C19.5725321,3.40409655 19.1746802,2.78175172 18.1347667,2.68288966 C17.9730383,2.66992414 17.8080753,2.66830345 17.6447296,2.68126897 C16.114779,2.81416552 14.7918407,3.48837241 13.5368284,4.31168276 C12.4936802,4.99723448 11.5281617,5.80433793 10.9249148,6.90964828 C10.1534704,8.32613103 10.0095321,9.91116552 9.89147037,11.4897172 Z M32.381421,15.8898897 C32.3555444,15.9060966 32.2908531,15.9385103 32.2423346,15.987131 C31.9900383,16.2383379 31.7215691,16.4733379 31.5000012,16.7472345 C29.5479395,19.1345103 28.3705568,21.8686138 27.9177173,24.912269 C27.7333469,26.1520966 27.7446679,27.3886828 28.2492605,28.5717862 C28.8169272,29.9023724 30.1495691,30.4825793 31.5000012,29.9817862 C32.729137,29.5263724 33.7787543,28.7873379 34.6876679,27.8522 C35.0515568,27.4778207 35.3523716,27.0450966 35.6499519,26.6755793 C32.4639025,23.6384069 31.3123963,20.0988207 32.381421,15.8898897 Z M64.9001494,26.7776828 C65.0101247,27.3011655 65.1168654,28.0126483 65.3206432,28.6965793 C65.4661988,29.189269 65.8284704,29.3416138 66.333063,29.288131 C66.9848284,29.2200621 67.5379395,28.9267172 68.0457667,28.5377517 C69.3670877,27.5296828 70.3293716,26.2153034 71.1655074,24.8036828 C72.3396556,22.8150966 73.3536926,20.7535793 73.863137,18.4797517 C74.2092358,16.9336138 73.5995198,15.5414414 72.3008407,14.8769586 C72.1326432,14.7910621 71.9159272,14.7521655 71.7267049,14.7635103 C70.5105074,14.8461655 69.5870383,15.4976828 68.8188284,16.3744759 C66.2619025,19.2884759 65.273742,22.8102345 64.9001494,26.7776828 Z M19.5644457,18.3954759 C19.3428778,18.3419931 19.224816,18.3095793 19.1035198,18.2868897 C18.0862481,18.1053724 17.1482235,18.4084414 16.2376926,18.802269 C13.5837296,19.9448552 11.4796432,21.7875793 9.69254444,24.0208897 C8.85155679,25.0759586 8.14803827,26.2136828 7.8229642,27.5458897 C7.6612358,28.2087517 7.63374198,28.8716138 8.10113704,29.424269 C8.85317407,30.3188897 9.82354444,30.7240621 10.9960753,30.5846828 C12.3966432,30.4193724 13.5416802,29.7127517 14.565421,28.7986828 C16.8296185,26.7728207 18.244742,24.2218552 19.0161864,21.3094759 C19.2652481,20.3629931 19.3816926,19.3808552 19.5644457,18.3954759 Z M18.7169889,0.723475862 C19.0161864,0.822337931 19.3331741,0.882303448 19.6097296,1.02492414 C20.4895321,1.47709655 20.7806432,2.31337241 20.9164951,3.21447586 C21.1057173,4.48671724 20.5057049,5.50288966 19.7795444,6.45261379 C18.9175321,7.58061379 17.8258654,8.46875172 16.6775938,9.28557931 C15.8155815,9.89657931 14.9293099,10.4784069 13.9686432,11.1315448 C14.5557173,11.0910276 15.0473716,11.0440276 15.5390259,11.0213379 C17.0819148,10.9484069 18.6053963,11.0407862 20.0399272,11.6744759 C22.0857914,12.5820621 23.2308284,14.1687172 23.496063,16.3923034 C23.5429642,16.7828897 23.4378407,17.251269 23.6238284,17.5429931 C23.7968778,17.8136483 24.2691247,17.8865793 24.5990506,18.0664759 C24.8303222,18.1928897 25.0502728,18.3436138 25.2637543,18.5008207 C25.4772358,18.6596483 25.6745444,18.8363034 25.8621494,18.9935103 C26.2939642,18.3760276 26.6821123,17.7228897 27.164063,17.1459241 C28.3802605,15.6921655 29.8487543,14.6063034 31.7733222,14.3064759 C32.2924704,14.2270621 32.8277914,14.2740621 33.3534086,14.2384069 C33.4714704,14.2303034 33.6024704,14.1508897 33.6962728,14.0714759 C34.750742,13.1557862 35.9669395,12.6906483 37.3626556,12.8478552 C38.9718531,13.0277517 40.1265938,14.154131 40.5681123,15.9174414 C41.0015444,17.6386138 40.8705444,19.3614069 40.5341494,21.0793379 C40.2495074,22.5379586 39.7724086,23.9382345 39.1837173,25.2996138 C39.1449025,25.387131 39.1125568,25.4795103 39.0300753,25.6885793 C39.5071741,25.5022 39.9098778,25.3936138 40.2656802,25.2007517 C41.7309395,24.4130966 42.969779,23.3385793 44.0711494,22.1003724 C44.1746556,21.9836828 44.2409642,21.8199931 44.2943346,21.6676483 C45.1337049,19.230131 45.9552852,16.7845103 46.8172975,14.3534759 C46.9838778,13.8867172 47.2458778,13.4264414 47.5628654,13.0472 C48.3682728,12.0780276 49.7801617,12.2044414 50.339742,13.2514069 C50.5742481,13.6889931 50.5289642,14.1200966 50.3526802,14.5657862 C49.1979395,17.486269 48.1774333,20.452131 47.3914333,23.4941655 C47.0663593,24.7566828 46.7817173,26.0337862 46.8690506,27.3530276 C46.9402111,28.4162 47.2523469,28.6106828 48.255063,28.2800621 C50.2281494,27.6285448 51.5510877,26.2169241 52.6362852,24.5346483 C53.9640753,22.4698897 54.7791864,20.1830966 55.4503593,17.8412 C55.7996926,16.6256828 56.1102111,15.3988207 56.440137,14.1768207 C56.5840753,13.6436138 56.8962111,13.2481655 57.4169765,13.0439586 C57.8520259,12.8737862 58.2870753,12.8624414 58.6703716,13.1784759 C59.0504333,13.491269 59.1038037,13.919131 58.9776556,14.3550966 C58.7172728,15.2545793 58.4213099,16.1443379 58.1463716,17.0389586 C57.2924457,19.8330276 56.4045568,22.6206138 55.8854086,25.5038207 C55.7236802,26.3968207 55.6314951,27.3125103 55.6088531,28.2184759 C55.5781247,29.4048207 56.047137,29.6884414 57.1533593,29.2508552 C58.0541864,28.8926828 58.7787296,28.2735793 59.441816,27.591269 C60.119458,26.8943724 60.7566679,26.1553379 61.3890259,25.4146828 C61.5345815,25.2428897 61.6251494,25.0014069 61.6769025,24.776131 C62.6052235,20.6368897 64.5071494,17.0697517 67.8128778,14.3437517 C68.7881,13.5398897 69.8910877,12.9629241 71.1768284,12.786269 C72.3105444,12.6290621 73.2809148,12.9434759 73.9989889,13.8137862 C74.5051988,14.4280276 74.8884951,15.1476138 75.326779,15.8218207 C75.4723346,15.4604069 75.6470012,15.0244414 75.8232852,14.5852345 C76.1079272,13.8786138 76.471816,13.637131 76.9893469,13.820269 C77.5036432,14.0034069 77.8287173,14.7829586 77.6152358,15.3599241 C77.1057914,16.7358897 76.5850259,18.1086138 76.0707296,19.4829586 C74.7397049,23.0355103 73.4086802,26.5880621 72.0776556,30.1438552 C72.0339889,30.2605448 71.9967914,30.3788552 71.9498901,30.5149931 C73.5089519,31.0773724 74.9952358,30.9088207 76.4346185,30.1681655 C77.542458,29.5993034 78.4675444,28.7905793 79.2519272,27.8359931 C79.5349519,27.4924069 79.7080012,27.0515793 79.8972235,26.6415448 C81.6843222,22.7664759 83.2708778,18.8119931 84.650421,14.7748552 C84.7959765,14.3502345 84.9641741,13.9158897 85.208384,13.5415103 C85.732384,12.7327862 86.558816,12.5107517 87.378779,13.0277517 C87.9335074,13.3778207 88.4510383,13.8445793 88.8569765,14.3599586 C90.1766802,16.0406138 91.0209025,17.9789586 91.7373593,19.9756483 C92.2371,21.3743034 92.6090753,22.8037517 92.8160877,24.2769586 C92.8209395,24.3126138 92.8419642,24.3450276 92.8743099,24.4195793 C93.1363099,24.3401655 93.4015444,24.2704759 93.6586926,24.1780966 C95.5590012,23.5038897 97.1989272,22.4002 98.7175568,21.0987862 C98.8744333,20.9658897 99.0701247,20.8459586 99.2674333,20.7989586 C99.749384,20.6838897 99.8933222,20.781131 100.090631,21.2608552 L100.090631,21.4148207 C99.8755321,22.1587172 99.2318531,22.5217517 98.6835938,22.9479931 C97.3331617,23.9965793 95.7789519,24.682131 94.2328284,25.3725448 C93.8382111,25.5492 93.3400877,25.622131 93.0813222,25.9138552 C92.8419642,26.181269 92.8823963,26.6869241 92.7659519,27.0775103 C92.0591988,29.4826138 90.3772235,30.8893724 88.056421,31.5976138 C86.8450753,31.967131 85.6224086,31.9930621 84.4078284,31.5457517 C83.2773469,31.1292345 82.6142605,30.3205103 82.3474086,29.1617172 C82.2374333,28.677131 82.3118284,28.4469931 82.7533469,28.2184759 C83.2789642,27.9478207 83.8256062,27.7112 84.3803346,27.4988897 C85.840742,26.9397517 87.3205568,26.4259931 88.7744951,25.8457862 C89.6575321,25.4940966 89.6591494,25.4503379 89.5491741,24.4989931 C89.1869025,21.4050966 88.1550753,18.5235103 86.7528901,15.7618552 C86.7367173,15.7310621 86.7076062,15.7083724 86.6445321,15.6370621 C86.5119148,15.9709241 86.3906185,16.2707517 86.2709395,16.5738207 C84.9560877,19.8605793 83.6751988,23.1635448 82.315063,26.4340966 C81.6503593,28.0320966 80.8562728,29.5798552 79.8179765,30.980131 C79.6885938,31.1535448 79.5252481,31.3026483 79.410421,31.4809241 C79.0481494,32.0416828 77.969421,31.915269 77.7575568,31.2459241 C77.7478531,31.2135103 77.7155074,31.1875793 77.6686062,31.1308552 C75.9090012,32.2086138 74.016779,32.6915793 71.8949025,32.2880276 C71.9531247,32.4403724 71.9919395,32.5376138 72.029137,32.6364759 C73.1838778,35.5666828 73.5607049,38.5649586 72.6809025,41.6329241 C72.2102728,43.2730621 71.2188778,44.5193724 69.5579272,45.1060621 C68.5002235,45.4804414 67.4134086,45.4350621 66.3411494,45.1822345 C65.5131,44.9877517 65.086137,44.375131 65.0214457,43.4480966 C64.9373469,42.2455448 65.2381617,41.1094414 65.6004333,39.9863034 C66.3589395,37.6444069 67.4279642,35.4337862 68.4824333,33.2183034 C69.2377049,31.6316483 70.001063,30.0482345 70.7029642,28.4178207 C70.6188654,28.5264069 70.5347667,28.6333724 70.4522852,28.7419586 C69.7552358,29.6689931 68.9821741,30.5182345 67.9875444,31.1357172 C65.2446309,32.8406828 62.1475321,31.4387862 61.605742,28.2508897 C61.5572235,27.967269 61.5232605,27.6836483 61.4763593,27.3465448 C61.0057296,27.7987172 60.580384,28.2233379 60.1388654,28.630131 C59.0455815,29.6333379 57.9053963,30.5782 56.5355568,31.1908207 C56.2282728,31.3285793 55.8951123,31.4323034 55.5619519,31.4955103 C54.7678654,31.6462345 54.2228407,31.4274414 53.9155568,30.6835448 C53.6390012,30.0158207 53.4708037,29.2897517 53.3462728,28.5750276 C53.2460012,27.9850966 53.2767296,27.3724759 53.2476185,26.7015103 C52.7414086,27.1066828 52.2756309,27.5053724 51.7839765,27.8684069 C50.4416309,28.8635103 49.1057543,29.8634759 47.7391494,30.8180621 C46.945063,31.3723379 46.0474704,31.5684414 45.0673963,31.3998897 C43.6490383,31.1600276 42.9018531,30.3950621 42.9665444,28.9429241 C43.0247667,27.6723034 43.2608901,26.4097862 43.4177667,25.1424069 C43.4274704,25.0727172 43.4371741,25.0046483 43.4549642,24.8912 C43.0102111,25.2120966 42.6123593,25.523269 42.1918654,25.7955448 C41.0161,26.5588897 39.791816,27.1974414 38.362137,27.3384414 C38.2149642,27.3530276 38.0580877,27.4988897 37.9513469,27.6204414 C36.7335321,29.0077517 35.3507543,30.1730276 33.6315815,30.8877517 C32.1016309,31.5230621 30.5215444,31.685131 28.9155815,31.2702345 C26.7079889,30.7013724 25.4788531,29.142269 24.8788407,27.0369931 C24.2852975,24.9479241 24.4906926,22.8702 25.1667173,20.8329931 C25.284779,20.4715793 25.2411123,20.2479241 24.9241247,20.0437172 C24.4583469,19.7438897 24.0103593,19.418131 23.5138531,19.0761655 C23.4718037,19.2139241 23.4378407,19.2884759 23.4216679,19.3695103 C22.5580383,23.4017862 20.6916926,26.9008552 17.743384,29.7792 C16.1632975,31.3220966 14.2613716,32.2523724 12.0084951,32.2799241 C10.2036062,32.3026138 8.61058148,31.6527172 7.23912469,30.5133724 C6.31403827,29.7467862 6.1603963,28.6657862 6.30433457,27.5280621 C6.48870494,26.1083379 7.11297654,24.8685103 7.93455679,23.7291655 C10.1259765,20.687131 12.8996185,18.3825103 16.4608778,17.1086483 C17.4458037,16.7569586 18.4711617,16.6208207 19.5515074,16.6629586 C19.543421,16.5365448 19.5498901,16.4393034 19.5288654,16.3453034 C19.0598531,14.2692 17.3681741,12.8721655 15.2382111,12.7327862 C13.2942358,12.6079931 11.5685938,13.2497862 9.86559383,14.0779586 C9.1733963,14.4150621 8.85317407,14.8607517 8.68497654,15.611131 C7.55449506,20.7017172 6.37064321,25.7777172 5.20781605,30.8602 C5.02668025,31.6413724 4.67411235,32.2539931 3.8023963,32.4014759 C2.74469259,32.578131 1.72256914,31.4420276 1.9878037,30.4031655 C3.17812469,25.7436828 4.41211235,21.0955448 5.5248037,16.4182345 C6.1199642,13.9223724 6.50164321,11.376269 6.97874198,8.85123448 C6.99006296,8.79288966 6.98844568,8.73292414 6.99976667,8.56923448 C6.44342099,8.98413103 5.92912469,9.32771724 5.46172963,9.72478621 C4.58354444,10.4703034 3.73285309,11.2466138 2.86922346,12.0083379 C2.72851975,12.1347517 2.58781605,12.2627862 2.43579136,12.3778552 C2.1188037,12.6160966 1.82284074,12.6193379 1.61744568,12.3989241 C1.40719877,12.1736483 1.40719877,11.7538897 1.64817407,11.4962 C2.08807531,11.0245793 2.53444568,10.5578207 2.99698889,10.1056483 C5.65256914,7.50444138 8.50869259,5.14471724 11.6704827,3.18044138 C13.3281988,2.15130345 15.0473716,1.24047586 16.9864951,0.846648276 C17.1838037,0.804510345 17.3811123,0.763993103 17.578421,0.723475862 L18.7169889,0.723475862 Z" id="Fill-1" fill="#404041" mask="url(#mask-2)"></path>
            </g>
            <g id="Group-6" transform="translate(109.975309, 25.207234)">
                <mask id="mask-4" fill="white">
                    <use xlink:href="#path-3"></use>
                </mask>
                <g id="Clip-5"></g>
                <path d="M8.60767037,4.9798931 C8.99905309,4.06906552 9.19474444,3.20199655 9.06536173,2.29441034 C9.03625062,2.07561724 8.83894198,1.88275517 8.71764568,1.67692759 C8.49284321,1.81306552 8.25348519,1.92975517 8.04647284,2.09020345 C7.95913951,2.15827241 7.91709012,2.30899655 7.89283086,2.42892759 C7.69875679,3.36892759 7.92355926,4.1971 8.60767037,4.9798931 M7.05184321,2.49699655 C6.45991728,3.26520345 6.09117654,4.03178966 5.9650284,4.89237586 C5.90680617,5.2943069 5.91327531,5.72378966 5.98281852,6.1241 C6.05236173,6.53737586 6.43565802,6.78047931 6.78984321,6.69458276 C7.38662099,6.54872069 7.83299136,6.18082414 8.20496667,5.68813448 C7.30575679,4.82106552 6.95804074,3.78382414 7.05184321,2.49699655 M9.66699136,5.18734138 C10.5063617,4.67682414 11.1823864,4.19061724 11.3974852,3.25223793 C11.5511272,2.57641034 11.8001889,1.92003103 12.0104358,1.25716897 C12.1446704,0.843893103 12.5942753,0.642927586 12.9840407,0.822824138 C13.2331025,0.936272414 13.3398432,1.13399655 13.2605963,1.40951379 C13.2056086,1.59751379 13.1473864,1.78551379 13.0972506,1.94920345 C13.5387691,1.65261724 13.959263,1.32847931 14.4201889,1.07727241 C14.7921642,0.873065517 15.2369173,0.851996552 15.5393494,1.20206552 C15.7301889,1.42247931 15.7981148,1.7531 15.935584,2.06427241 C15.9921889,2.0043069 16.0795222,1.90868621 16.1700901,1.8163069 C16.4709049,1.50027241 16.8024481,1.22637586 17.2633741,1.19072069 C17.9652753,1.13723793 18.4795716,1.63154828 18.3647444,2.33654828 C18.2466827,3.0691 18.0299667,3.78706552 17.8358926,4.50503103 C17.6822506,5.06578966 17.496263,5.61844483 17.3329173,6.17434138 C17.297337,6.29265172 17.2957198,6.41906552 17.2649914,6.64596207 C17.4574481,6.52278966 17.5949173,6.4693069 17.6871025,6.37206552 C18.555584,5.45475517 19.4175963,4.52934138 20.2812259,3.60392759 C20.3507691,3.53099655 20.4041395,3.40944483 20.4850037,3.38837586 C20.640263,3.34785862 20.8116951,3.36568621 20.9750407,3.35758276 C20.9798926,3.53261724 21.0639914,3.7741 20.9798926,3.87134138 C20.1437568,4.85185862 19.2930654,5.82427241 18.4116457,6.76427241 C18.1706704,7.02196207 17.821337,7.19375517 17.496263,7.35420345 C17.1954481,7.5033069 16.8622877,7.53734138 16.5695593,7.29423793 C16.2687444,7.04141034 16.2137568,6.70916897 16.3075593,6.36072069 C16.4773741,5.71244483 16.6811519,5.0738931 16.8622877,4.42723793 C17.035337,3.80651379 17.1986827,3.18416897 17.3555593,2.55858276 C17.3862877,2.44351379 17.3717321,2.31547931 17.3782012,2.1598931 C16.9706457,2.21661724 16.7636333,2.49375517 16.6002877,2.75468621 C16.1151025,3.53747931 15.6477074,4.33485862 15.212658,5.14844483 C14.939337,5.65896207 14.7371765,6.20837586 14.5042877,6.74158276 C14.3506457,7.09651379 13.8072383,7.27641034 13.487016,7.06734138 C13.2153123,6.8923069 13.3074975,6.64920345 13.4013,6.42392759 C13.7166704,5.66544483 14.0579173,4.91668621 14.3538802,4.14847931 C14.557658,3.62013448 14.722621,3.07396207 14.864942,2.52292759 C14.9166951,2.32358276 14.8520037,2.09182414 14.8358309,1.75958276 C14.5770654,1.9103069 14.4056333,1.97837586 14.273016,2.09668621 C13.3624852,2.90216897 12.5878062,3.80813448 12.2142136,4.99934138 C12.0363123,5.56496207 11.8616457,6.13544483 11.6691889,6.69782414 C11.6158185,6.8453069 11.5252506,6.99927241 11.4104235,7.10461724 C11.185621,7.31044483 10.9074481,7.33475517 10.6357444,7.19051379 C10.3559543,7.04303103 10.3058185,6.78534138 10.3737444,6.50496207 C10.4562259,6.16299655 10.5581148,5.82751379 10.6438309,5.52120345 C10.1909914,5.68003103 9.73168272,5.83075517 9.28369506,6.00578966 C9.17533704,6.04792759 9.09609012,6.16947931 9.00713951,6.25861724 C8.3828679,6.88906552 7.67611481,7.34772069 6.75426296,7.35906552 C5.65936173,7.37203103 4.90247284,6.76427241 4.66796667,5.68975517 C4.64370741,5.56820345 4.6145963,5.4498931 4.59033704,5.33806552 C4.05339877,5.74485862 3.55204074,6.17758276 2.99892963,6.52441034 C2.58813951,6.7821 2.12721358,6.99765172 1.65820123,7.11272069 C0.914250617,7.29423793 0.408040741,6.94578966 0.197793827,6.20675517 C0.00371975309,5.51958276 0.0198925926,4.82592759 0.218818519,4.14361724 C0.613435802,2.78385862 1.39134938,1.68178966 2.53476914,0.853617241 C2.82426296,0.642927586 3.17197901,0.475996552 3.51807778,0.39172069 C4.16337407,0.232893103 4.5741642,0.72072069 4.37685556,1.35765172 C4.25394198,1.7531 4.01296667,2.06103103 3.61996667,2.19878966 C3.50837407,2.23768621 3.34341111,2.12585862 3.20270741,2.08372069 C3.25607778,1.95892759 3.28842346,1.82116897 3.36605309,1.71420345 C3.49705309,1.53592759 3.69274444,1.39816897 3.79301605,1.20854828 C3.91754691,0.980031034 3.75905309,0.848755172 3.54395432,0.920065517 C3.3240037,0.992996552 3.09596667,1.11454828 2.93423827,1.27823793 C1.95578148,2.26685862 1.41722593,3.47751379 1.26358395,4.85185862 C1.21183086,5.31699655 1.22962099,5.84047931 1.67760864,6.1241 C2.13044815,6.41096207 2.57520123,6.12085862 2.93747284,5.86641034 C3.47117654,5.48878966 3.96444815,5.04796207 4.4528679,4.61037586 C4.57092963,4.50503103 4.63238642,4.31216897 4.67120123,4.14523793 C4.83778148,3.46941034 5.10948519,2.85192759 5.58820123,2.33816897 C6.06044815,1.8308931 6.6200284,1.49865172 7.33810247,1.46299655 C7.50144815,1.4548931 7.67934938,1.38196207 7.82167037,1.29282414 C8.88260864,0.62347931 9.9855963,1.14372069 10.1343864,2.39165172 C10.2249543,3.13554828 10.1085099,3.85675517 9.88209012,4.56337586 C9.82710247,4.74165172 9.76241111,4.91506552 9.66699136,5.18734138" id="Fill-4" fill="#404041" mask="url(#mask-4)"></path>
            </g>
            <g id="Group-9" transform="translate(0.000000, 17.103786)">
                <mask id="mask-6" fill="white">
                    <use xlink:href="#path-5"></use>
                </mask>
                <g id="Clip-8"></g>
                <path d="M11.3116074,8.43504138 C12.2609531,7.96504138 13.1633975,6.94724828 13.1164963,6.37514483 C12.2528667,6.85973103 11.782237,7.64576552 11.3116074,8.43504138 M6.04573086,7.22924828 C6.37565679,6.93914483 6.64897778,6.65552414 6.96434815,6.43511034 C7.72285432,5.90352414 8.40858272,6.22117931 8.39887901,7.14983448 C8.39402716,7.76893793 8.21450864,8.39290345 8.05924938,9.00066207 C7.92986667,9.5128 7.71961975,10.0054897 7.55627407,10.5095241 C7.50937284,10.6472828 7.5029037,10.7996276 7.46085432,11.037869 C7.67271852,10.9211793 7.82797778,10.8660759 7.94118765,10.7655931 C8.65117531,10.1383862 9.33852099,9.50307586 9.76871852,8.61817931 C10.2830148,7.55986897 10.9913852,6.62797241 11.969842,5.95214483 C12.2819778,5.73821379 12.6668914,5.56642069 13.0372494,5.5178 C13.7100395,5.43028276 14.1272988,5.97483448 13.9558667,6.63931724 C13.7860519,7.29245517 13.3493852,7.78028276 12.8722864,8.21138621 C12.3385827,8.69273103 11.7579778,9.12707586 11.183842,9.5598 C10.8086321,9.84342069 10.5547185,10.6537655 10.8037802,11.0540759 C10.9040519,11.2177655 11.1514963,11.3636276 11.3455704,11.3798345 C12.0312988,11.4446621 12.6410148,11.1756276 13.1795704,10.7785586 C13.9299901,10.2259034 14.5574963,9.55655862 14.948879,8.68462759 C15.0523852,8.45286897 15.176916,8.0865931 15.5391877,8.28269655 C15.8869037,8.46907586 15.7187062,8.77052414 15.5472741,8.99742069 C15.0329778,9.68297241 14.5639654,10.4155241 13.9623358,11.0168 C13.137521,11.8401103 12.0523235,12.1285931 10.8992,12.1140069 C9.93044691,12.1010414 9.48407654,11.7120759 9.16708889,10.6553862 C8.88082963,10.9001103 8.62529877,11.1594207 8.32771852,11.3603862 C7.98485432,11.5905241 7.62096543,11.7995931 7.2409037,11.9616621 C6.91097778,12.1010414 6.59722469,11.9535586 6.52768148,11.606731 C6.44843457,11.2080414 6.39829877,10.7672138 6.48724938,10.379869 C6.65221235,9.64407586 6.9384716,8.93583448 7.1503358,8.20652414 C7.2409037,7.88886897 7.27486667,7.55338621 7.33308889,7.2260069 C7.28780494,7.20007586 7.2409037,7.17576552 7.19561975,7.15145517 C7.00154568,7.3345931 6.80100247,7.51124828 6.61824938,7.70411034 C5.6592,8.70731724 5.1352,9.9520069 4.68559506,11.2372138 C4.60311358,11.4738345 4.50769383,11.7104552 4.40742222,11.9422138 C4.27642222,12.2469034 4.01927407,12.3668345 3.70875556,12.3684552 C3.33516296,12.3684552 3.13785432,12.1042828 3.22357037,11.7363862 C3.26561975,11.554869 3.32384198,11.3733517 3.39338519,11.1253862 C3.2607679,11.2323517 3.17181728,11.3036621 3.08286667,11.3733517 C2.51681728,11.8239034 1.90224938,12.1545241 1.15182963,12.1448 C0.545348148,12.1350759 0.115150617,11.8628 0.0666320988,11.2566621 C0.0148790123,10.5873172 0.0391382716,9.88555862 0.189545679,9.23242069 C0.440224691,8.13845517 0.82028642,7.07366207 1.14536049,5.99590345 C1.18417531,5.86624828 1.22622469,5.7365931 1.28444691,5.54697241 C0.978780247,5.54697241 0.720014815,5.54211034 0.459632099,5.5485931 C0.199249383,5.55507586 -0.0498123457,5.45783448 0.00840987654,5.18555862 C0.0488419753,5.00242069 0.275261728,4.80145517 0.464483951,4.72204138 C0.658558025,4.64262759 0.914088889,4.67990345 1.13889136,4.70745517 C1.44132346,4.74635172 1.55453333,4.6085931 1.63378025,4.33955862 C1.84887901,3.59890345 2.08823704,2.86311034 2.32274321,2.12893793 C2.4844716,1.62814483 2.80145926,1.44824828 3.23650864,1.60221379 C3.60524938,1.73186897 3.71522469,2.03169655 3.56158272,2.5098 C3.33839753,3.20831724 3.11197778,3.90521379 2.88717531,4.60373103 C2.88070617,4.6248 2.89202716,4.65397241 2.8984963,4.70097241 C3.18637284,4.70097241 3.47424938,4.71069655 3.76374321,4.69935172 C4.03382963,4.6880069 4.21981728,4.7820069 4.22628642,5.07211034 C4.23113827,5.35411034 4.07264444,5.52590345 3.79123704,5.54535172 C3.47424938,5.56642069 3.15726173,5.55507586 2.84350864,5.58424828 C2.74485432,5.5955931 2.5960642,5.67986897 2.57018765,5.76252414 C2.08500247,7.29245517 1.60952099,8.82562759 1.14697778,10.3620414 C1.08228642,10.5775931 1.06611358,10.8142138 1.06611358,11.0394897 C1.0644963,11.3328345 1.22784198,11.5402828 1.51571852,11.3863172 C1.97826173,11.1432138 2.47961975,10.901731 2.8273358,10.5305931 C3.80417531,9.48848966 4.3492,8.19355862 4.76645926,6.83704138 C5.27752099,5.18069655 5.80799012,3.53245517 6.33522469,1.88097241 C6.49048395,1.3980069 6.77512593,1.23431724 7.18429877,1.3655931 C7.57568148,1.4920069 7.73417531,1.81128276 7.59994074,2.23914483 C7.11313827,3.78204138 6.62471852,5.32493793 6.13791605,6.86945517 C6.10395309,6.9748 6.0829284,7.08176552 6.04573086,7.22924828" id="Fill-7" fill="#404041" mask="url(#mask-6)"></path>
            </g>
            <path d="M106.958751,30.5923 C106.944195,31.0590586 106.733948,31.3005414 106.347417,31.2973 C105.941479,31.2908172 105.61964,30.9407483 105.63743,30.524231 C105.65522,30.0866448 105.925306,29.7965414 106.303751,29.8111276 C106.68543,29.8224724 106.970072,30.1644379 106.958751,30.5923" id="Fill-10" fill="#404041"></path>
        </g>
    </g>
</svg>