<?xml version="1.0" encoding="UTF-8"?>
<svg width="212px" height="212px" viewBox="0 0 212 212" version="1.1" xmlns="http://www.w3.org/2000/svg" xmlns:xlink="http://www.w3.org/1999/xlink">
    <!-- Generator: Sketch 51.2 (57519) - http://www.bohemiancoding.com/sketch -->
    <title>Logos</title>
    <desc>Created with Sketch.</desc>
    <defs>
        <polygon id="path-1" points="0 0.373398413 26.5623185 0.373398413 26.5623185 30.6663444 0 30.6663444"></polygon>
        <polygon id="path-3" points="0.970550732 0.768530665 20.2276471 0.768530665 20.2276471 12.2786845 0.970550732 12.2786845"></polygon>
    </defs>
    <g id="Logos" stroke="none" stroke-width="1" fill="none" fill-rule="evenodd">
        <g id="chownow" transform="translate(38.000000, 90.000000)">
            <g id="Group-3" transform="translate(0.000000, 0.959467)">
                <mask id="mask-2" fill="white">
                    <use xlink:href="#path-1"></use>
                </mask>
                <g id="Clip-2"></g>
                <path d="M13.3681108,22.6378667 C18.2544441,22.7272 22.6975422,18.7298667 22.6988853,13.4072 C22.7002284,8.38853333 18.6909637,4.14986667 13.3748265,4.15653333 C8.03451275,4.1632 4.10315,8.3992 4.06016961,13.3152 C4.01450294,18.7445333 8.54221863,22.7258667 13.3681108,22.6378667 M-0.000134313725,13.5245333 C0.0106107843,7.47786667 4.30059118,2.0192 10.483052,0.6752 C17.5855618,-0.866133333 24.712248,3.65253333 26.2474539,10.6658667 C26.9848363,14.0312 26.4059441,17.2032 24.7323951,20.1965333 C23.1622676,23.0018667 20.9863853,25.2912 18.4800912,27.2725333 C17.1638167,28.3112 15.7454637,29.2205333 14.3956108,30.2205333 C13.5574931,30.8378667 12.7811598,30.7898667 11.9376696,30.2258667 C8.64429706,28.0272 5.5631402,25.6032 3.21130686,22.3792 C1.76206176,20.3978667 0.680836275,18.2485333 0.255061765,15.8165333 C0.123434314,15.0605333 0.0817970588,14.2885333 -0.000134313725,13.5245333" id="Fill-1" fill="#404041" mask="url(#mask-2)"></path>
            </g>
            <path d="M90.0265951,8.40986667 C90.9641049,8.40986667 91.8801245,8.40853333 92.7974873,8.4112 C93.2326637,8.41253333 93.7484284,8.28453333 94.0788402,8.47253333 C94.409252,8.6592 94.5596833,9.16453333 94.7786147,9.53786667 C96.3541147,12.2112 97.9255853,14.8845333 99.5413794,17.6338667 C99.4876539,14.5232 99.4339284,11.4898667 99.3802029,8.43386667 L103.349174,8.43386667 L103.349174,23.8792 C103.253811,23.8845333 103.150389,23.8978667 103.048311,23.8978667 C101.894556,23.9005333 100.739458,23.8912 99.5843598,23.9058667 C99.3452814,23.9085333 99.2311147,23.8218667 99.1209775,23.6258667 C97.4084775,20.6272 95.6892618,17.6325333 93.9713892,14.6378667 C93.9324382,14.5712 93.8867716,14.5098667 93.8357324,14.4338667 C93.8934873,17.5885333 93.9485559,20.7152 94.0063108,23.8712 L90.0265951,23.8712 L90.0265951,8.40986667 Z" id="Fill-4" fill="#404041"></path>
            <g id="Group-8" transform="translate(115.509804, 11.626133)">
                <mask id="mask-4" fill="white">
                    <use xlink:href="#path-3"></use>
                </mask>
                <g id="Clip-7"></g>
                <path d="M10.5402696,5.88533333 C10.2219461,6.96933333 9.90093627,8.05466667 9.58261275,9.13866667 C9.3032402,10.092 9.01580882,11.0426667 8.74852451,12 C8.69076961,12.2066667 8.6074951,12.28 8.38856373,12.2786667 C7.16362255,12.268 5.93733824,12.2706667 4.71239706,12.276 C4.53644608,12.2773333 4.4397402,12.2386667 4.38198529,12.0506667 C3.24972059,8.328 2.1107402,4.608 0.973102941,0.888 C0.966387255,0.866666667 0.974446078,0.842666667 0.979818627,0.776 L2.37533824,0.776 C3.01198529,0.776 3.64863235,0.792 4.28393627,0.769333333 C4.56062255,0.758666667 4.6707598,0.853333333 4.74328922,1.112 C5.35441667,3.29466667 5.97897549,5.472 6.59816176,7.65333333 C6.63308333,7.77066667 6.66934804,7.888 6.79023039,8.01066667 C6.84932843,7.82933333 6.91111275,7.65066667 6.96483824,7.468 C7.59879902,5.34133333 8.23410294,3.21466667 8.85731863,1.084 C8.92447549,0.857333333 9.00775,0.764 9.2602598,0.769333333 C10.1319559,0.788 11.0049951,0.785333333 11.8766912,0.770666667 C12.1305441,0.766666667 12.2420245,0.838666667 12.3145539,1.08933333 C12.9485147,3.26666667 13.59725,5.43866667 14.243299,7.612 C14.28225,7.74266667 14.3279167,7.872 14.4044755,8.10266667 C14.4823775,7.89066667 14.5334167,7.77333333 14.5683382,7.64933333 C15.1942402,5.46 15.8214853,3.26933333 16.4366422,1.076 C16.5011127,0.841333333 16.5978186,0.766666667 16.8422696,0.770666667 C17.9503578,0.785333333 19.0557598,0.776 20.2283186,0.776 C19.047701,4.63466667 17.8805147,8.448 16.7146716,12.2586667 L12.4958775,12.2586667 C11.8699755,10.1266667 11.2467598,7.99866667 10.6235441,5.872 C10.5953382,5.876 10.5684755,5.88133333 10.5402696,5.88533333" id="Fill-6" fill="#404041" mask="url(#mask-4)"></path>
            </g>
            <path d="M76.0102863,19.6350667 C76.2439922,18.8537333 76.4790412,18.0724 76.7100608,17.2910667 C77.1667275,15.7577333 77.6233941,14.2230667 78.0706588,12.6870667 C78.1311,12.4750667 78.2210902,12.3910667 78.4561392,12.3964 C79.3278353,12.4124 80.2008745,12.4137333 81.0725706,12.3950667 C81.3438843,12.3897333 81.4526784,12.4710667 81.5292373,12.7337333 C82.1699137,14.9324 82.828051,17.1244 83.4821588,19.3204 C83.5143941,19.4270667 83.5506588,19.5324 83.6594529,19.6404 C83.7266098,19.4230667 83.7991392,19.2084 83.8609235,18.9897333 C84.4559333,16.8990667 85.0522863,14.8097333 85.636551,12.7177333 C85.7077373,12.4657333 85.8192176,12.3924 86.0730706,12.3964 C87.1798157,12.4097333 88.2865608,12.4017333 89.4362863,12.4017333 C89.1582569,13.3137333 88.8909725,14.1910667 88.6236882,15.0697333 C87.7587078,17.8950667 86.8910412,20.7204 86.0354627,23.5510667 C85.9535314,23.8230667 85.8366784,23.9124 85.5492471,23.9070667 C84.4048941,23.8884 83.2618843,23.8870667 82.1188745,23.9070667 C81.8045804,23.9137333 81.6756392,23.8270667 81.5869922,23.5190667 C81.0457078,21.6084 80.4789039,19.7057333 79.9188157,17.8004 C79.8879235,17.6897333 79.8476294,17.5817333 79.7871882,17.3897333 C79.4540902,18.5150667 79.1465118,19.5550667 78.8402765,20.5964 C78.5488157,21.5950667 78.2546686,22.5910667 77.9752961,23.5937333 C77.9121686,23.8190667 77.8208353,23.9097333 77.5669824,23.9057333 C76.3662176,23.8910667 75.1627667,23.8977333 73.962002,23.9004 C73.786051,23.9017333 73.6597961,23.8937333 73.5939824,23.6777333 C72.4697765,19.9790667 71.3375118,16.2804 70.2052471,12.5830667 C70.1918157,12.5404 70.1877863,12.4937333 70.1743549,12.4244 L73.8532078,12.4244 C74.5355216,14.8177333 75.2232078,17.2244 75.9108941,19.6324 C75.9431294,19.6337333 75.9767078,19.6337333 76.0102863,19.6350667" id="Fill-9" fill="#404041"></path>
            <path d="M50.4211039,13.4541333 C52.0718196,11.8754667 54.4115647,11.7608 55.960202,13.1328 C56.8090647,13.8848 57.1824569,14.8808 57.2469275,15.9701333 C57.3194569,17.1941333 57.3019961,18.4248 57.311398,19.6514667 C57.3208,20.9261333 57.3127412,22.2034667 57.3127412,23.4781333 L57.3127412,23.8754667 L53.5210647,23.8754667 L53.5210647,23.4728 L53.5210647,16.6274667 C53.5210647,15.6474667 53.0926039,15.1314667 52.2329961,15.0634667 C51.2860843,14.9888 50.6024275,15.5194667 50.4627412,16.4381333 C50.4372216,16.6114667 50.4264765,16.7874667 50.4264765,16.9634667 C50.4237902,19.1154667 50.4251333,21.2688 50.4251333,23.4221333 L50.4251333,23.8701333 L46.6536039,23.8701333 L46.6536039,7.7328 L50.4211039,7.7328 L50.4211039,13.4541333 Z" id="Fill-11" fill="#404041"></path>
            <path d="M44.9213598,20.1390667 C45.3511637,21.0430667 45.7729088,21.9297333 46.2161441,22.8604 C46.0173598,22.9750667 45.8387225,23.1057333 45.6399382,23.1924 C42.5560951,24.5550667 39.4668794,24.6017333 36.4461637,23.0590667 C34.1440265,21.8844 32.9580363,19.8977333 32.6504578,17.3750667 C32.4691343,15.8897333 32.5779284,14.4297333 33.1004088,13.0204 C33.8471931,11.0164 35.2642029,9.6364 37.2466735,8.8644 C39.9947324,7.7924 42.7427912,7.84706667 45.451899,9.04306667 C45.705752,9.15506667 45.9434873,9.30706667 46.2188304,9.45773333 C45.7836539,10.3857333 45.3619088,11.2790667 44.9415069,12.1724 C44.385448,11.9750667 43.856252,11.7564 43.308252,11.6004 C42.3841735,11.3337333 41.4372618,11.2124 40.4796049,11.3764 C38.9551441,11.6404 37.8913794,12.5097333 37.309801,13.9257333 C36.7027029,15.4084 36.6973304,16.9217333 37.3124873,18.3990667 C38.0122618,20.0830667 39.3271931,20.9364 41.1565461,20.9884 C42.4647618,21.0257333 43.6950755,20.6884 44.9213598,20.1390667" id="Fill-13" fill="#404041"></path>
            <path d="M66.9952833,18.1650667 C66.8327637,17.5504 66.7427735,16.9290667 66.502352,16.3717333 C66.120901,15.4864 65.3848618,15.0424 64.4003422,15.0557333 C63.4091069,15.0690667 62.6784402,15.5277333 62.2808716,16.4210667 C61.7771951,17.5544 61.7704794,18.7184 62.2728127,19.8570667 C62.6703814,20.7557333 63.41045,21.2197333 64.3869108,21.2397333 C65.3566559,21.2584 66.1101559,20.8130667 66.4983225,19.9277333 C66.737401,19.3837333 66.8287343,18.7757333 66.9952833,18.1650667 M64.4406363,12.1530667 C65.6494598,12.1770667 66.8085873,12.3970667 67.8790676,12.9717333 C69.536499,13.8610667 70.5102735,15.2437333 70.7735284,17.0917333 C71.0273814,18.8797333 70.7171167,20.5437333 69.5230676,21.9690667 C68.7709108,22.8650667 67.8092245,23.4570667 66.6863618,23.7877333 C64.9684892,24.2930667 63.2586755,24.2544 61.5958716,23.5930667 C59.5475873,22.7797333 58.332048,21.2664 58.0338716,19.0850667 C57.7786755,17.2157333 58.1386363,15.4917333 59.4737147,14.0704 C60.4542049,13.0277333 61.7060088,12.4930667 63.1055578,12.2770667 C63.5461069,12.2090667 63.9947147,12.1930667 64.4406363,12.1530667" id="Fill-15" fill="#404041"></path>
            <path d="M108.235104,18.1885333 C108.214957,18.8112 108.33181,19.4605333 108.671624,20.0565333 C109.540633,21.5832 111.759496,21.6818667 112.649996,20.1898667 C113.441104,18.8645333 113.431702,17.4458667 112.662084,16.1178667 C111.834712,14.6938667 109.735388,14.6778667 108.799222,16.0365333 C108.362702,16.6672 108.225702,17.3832 108.235104,18.1885333 M117.161594,18.1325333 C117.138761,21.6592 114.670075,23.7232 111.681594,24.0592 C110.173251,24.2285333 108.715947,24.0498667 107.356692,23.3525333 C105.489731,22.3952 104.497153,20.8418667 104.291653,18.7792 C104.189575,17.7525333 104.292996,16.7458667 104.681163,15.7832 C105.305722,14.2218667 106.45679,13.1858667 108.033633,12.6285333 C109.754192,12.0192 111.501614,11.9992 113.234261,12.5672 C115.706976,13.3792 117.161594,15.4658667 117.161594,18.1325333" id="Fill-17" fill="#404041"></path>
            <path d="M18.0783588,19.5713333 C17.972251,19.5593333 17.8607706,19.5673333 17.7627216,19.5353333 C16.4786824,19.1113333 15.4323784,18.3793333 14.7245451,17.2126667 C14.4357706,16.7393333 14.2665353,16.2313333 14.3484667,15.678 C14.4653196,14.8753333 13.9065745,14.4726667 13.3975255,14.042 C13.3505157,14.002 13.1879961,14.0353333 13.1275549,14.0886667 C12.8159471,14.354 12.4667314,14.602 12.2330255,14.93 C12.0664765,15.162 11.9590255,15.526 12.0060353,15.802 C12.1376627,16.6206667 11.9066431,17.3073333 11.3855059,17.91 C10.6575255,18.7513333 9.72673137,19.2793333 8.61864314,19.3793333 C7.4420549,19.4873333 6.73959412,18.8806667 6.9518098,17.4606667 C7.10761373,16.4206667 7.65292745,15.5593333 8.47089804,14.8833333 C9.06725098,14.3913333 9.75896667,14.2193333 10.5205255,14.3366667 C10.9395843,14.402 11.2713392,14.2873333 11.5601137,13.9753333 C13.0832314,12.3286667 14.6103784,10.69 16.1482706,9.058 C16.2906431,8.90466667 16.4948,8.766 16.6962706,8.71666667 C17.1072706,8.61666667 17.4430549,8.79666667 17.6136333,9.13133333 C17.7909275,9.478 17.7210843,9.858 17.4067902,10.1526667 C16.7876039,10.7286667 16.1603588,11.2953333 15.5371431,11.8673333 C15.1570353,12.2153333 14.7809569,12.57 14.3927902,12.9113333 C14.2383294,13.0473333 14.2302706,13.142 14.3592118,13.314 C14.7943882,13.886 15.3074667,14.2153333 16.074398,14.122 C16.8023784,14.0326667 17.4014176,14.4033333 17.9440451,14.822 C18.8318588,15.5073333 19.4443294,16.3966667 19.7760843,17.4686667 C19.8096627,17.5793333 19.8069765,17.7033333 19.821751,17.822 C19.7935451,17.838 19.7666824,17.854 19.7398196,17.87 C19.6337118,17.79 19.5222314,17.718 19.4241824,17.6313333 C18.6921725,16.9713333 17.962849,16.306 17.2294961,15.6473333 C17.1354765,15.5606667 17.0307118,15.466 16.915202,15.4326667 C16.8413294,15.414 16.6694078,15.4926667 16.661349,15.5446667 C16.6438882,15.6646667 16.6573196,15.83 16.7311922,15.9153333 C17.2765059,16.5446667 17.8392804,17.158 18.3939961,17.7793333 C18.5672608,17.9726667 18.745898,18.1593333 18.8976725,18.3686667 C18.9621431,18.4553333 18.9634863,18.5873333 18.9943784,18.6993333 C18.8708098,18.6833333 18.7123196,18.71 18.6317314,18.6433333 C17.8795745,18.0046667 17.140849,17.3526667 16.396751,16.7033333 C16.3000451,16.618 16.2140843,16.4993333 16.1012608,16.4593333 C15.9884373,16.418 15.848751,16.454 15.7198098,16.458 C15.7265255,16.5846667 15.682202,16.7526667 15.7480157,16.8286667 C16.1173784,17.2686667 16.5136039,17.6873333 16.9004275,18.1113333 C17.3100843,18.5593333 17.718398,19.006 18.1280549,19.454 C18.1105941,19.4926667 18.0958196,19.5326667 18.0783588,19.5713333" id="Fill-19" fill="#404041"></path>
            <path d="M12.5247549,11.3525333 C12.1580784,11.6632 11.8276667,11.9405333 11.469049,12.2445333 C10.6927157,11.5365333 9.84922549,10.7925333 9.03662745,10.0165333 C8.71158824,9.70586667 8.76531373,9.18453333 9.08498039,8.88053333 C9.41539216,8.5672 9.90563725,8.53786667 10.2279902,8.87253333 C10.989549,9.66586667 11.7242451,10.4858667 12.5247549,11.3525333" id="Fill-21" fill="#404041"></path>
        </g>
    </g>
</svg>