<?xml version="1.0" encoding="UTF-8"?>
<svg width="212px" height="212px" viewBox="0 0 212 212" version="1.1" xmlns="http://www.w3.org/2000/svg" xmlns:xlink="http://www.w3.org/1999/xlink">
    <!-- Generator: Sketch 51.2 (57519) - http://www.bohemiancoding.com/sketch -->
    <title>Logos-Hover</title>
    <desc>Created with Sketch.</desc>
    <defs>
        <polygon id="path-1" points="0 0.775042888 20.054278 0.775042888 20.054278 23.4375 0 23.4375"></polygon>
    </defs>
    <g id="Logos-Hover" stroke="none" stroke-width="1" fill="none" fill-rule="evenodd">
        <g id="clutter">
            <rect id="Rectangle-Copy-2" fill="#1EABA1" x="0" y="0" width="216" height="214"></rect>
            <path d="M105.682187,113.780156 C105.657187,113.491094 105.610312,113.205156 105.610312,112.916094 C105.604062,110.608281 105.591562,108.298906 105.616562,105.992656 C105.622812,105.422344 105.444687,105.237969 104.868125,105.244219 C103.343125,105.264531 103.343125,105.239531 103.343125,103.700469 C103.343125,101.927031 103.343125,101.928594 105.093125,101.911406 C105.280625,101.909844 105.466562,101.898906 105.654062,101.891094 C105.710312,101.634844 105.810312,101.378594 105.815,101.119219 C105.832187,100.041094 105.819687,98.9614062 105.819687,97.8817187 C107.09,97.6832812 108.361875,97.4848437 109.63375,97.2879687 C110.082187,97.2192187 110.088437,97.5239062 110.088437,97.8332812 C110.088437,98.9770312 110.107187,100.122344 110.082187,101.264531 C110.074375,101.745781 110.23375,101.925469 110.7275,101.920781 C112.619687,101.898906 114.513437,101.900469 116.405625,101.919219 C116.886875,101.925469 117.075937,101.772344 117.060312,101.277031 C117.032187,100.362969 117.080625,99.4457812 117.043125,98.5317187 C117.018125,97.9895312 117.238437,97.8129687 117.747812,97.7567187 C118.780625,97.6426562 119.810312,97.4942187 120.832187,97.3082812 C121.410312,97.2035937 121.569687,97.3957812 121.549375,97.9473437 C121.516562,98.8614062 121.535312,99.7785937 121.541562,100.694219 C121.5525,102.039531 121.394687,101.905156 122.729062,101.911406 C124.019687,101.917656 125.310312,101.908281 126.599375,101.914531 C127.355625,101.919219 127.410312,102.017656 127.082187,102.716094 C126.765,103.394219 126.425937,104.062969 126.129062,104.750469 C125.966562,105.125469 125.74,105.277031 125.32125,105.266094 C124.282187,105.237969 123.241562,105.272344 122.2025,105.250469 C121.743125,105.241094 121.5275,105.353594 121.532187,105.872344 C121.554062,108.369219 121.53375,110.866094 121.547812,113.361406 C121.554062,114.464531 122.08375,114.939531 123.172812,114.773906 C123.804062,114.677031 124.419687,114.462969 125.025937,114.250469 C125.34625,114.137969 125.518125,114.173906 125.665,114.487969 C126.104062,115.430156 126.561875,116.361406 127.011875,117.295781 C126.969687,117.362969 126.947812,117.439531 126.900937,117.459844 C124.900937,118.369219 122.830625,118.933281 120.611875,118.595781 C118.886875,118.333281 117.79625,117.303594 117.368125,115.634844 C117.1775,114.897344 117.080625,114.117656 117.068125,113.356719 C117.032187,110.902031 117.04,108.447344 117.063437,105.992656 C117.068125,105.428594 116.907187,105.234844 116.325937,105.245781 C114.475937,105.278594 112.622812,105.272344 110.772812,105.248906 C110.269687,105.242656 110.0775,105.387969 110.080625,105.916094 C110.104062,108.348906 110.079062,110.783281 110.09625,113.217656 C110.105625,114.491094 110.669687,114.981719 111.913437,114.748906 C112.58375,114.625469 113.235312,114.386406 113.8775,114.148906 C114.25875,114.008281 114.479062,114.034844 114.65875,114.434844 C115.024375,115.250469 115.444687,116.041094 115.804062,116.861406 C115.866562,117.002031 115.788437,117.350469 115.685312,117.394219 C113.819687,118.192656 111.900937,118.797344 109.832187,118.680156 C107.160312,118.527031 105.769687,116.742656 105.699375,114.002031 C105.74,113.737969 105.816562,113.475469 105.816562,113.212969 C105.825937,110.823906 105.822812,108.437969 105.82125,106.050469 C105.82125,105.886406 105.8025,105.723906 105.793125,105.559844 C105.757187,105.562969 105.718125,105.566094 105.682187,105.567656 L105.682187,113.780156 Z" id="Fill-1" fill="#FFFFFF"></path>
            <g id="Group-5" transform="translate(56.000000, 95.304844)">
                <mask id="mask-2" fill="white">
                    <use xlink:href="#path-1"></use>
                </mask>
                <g id="Clip-4"></g>
                <path d="M18.1910937,16.133125 C18.8239062,17.1096875 19.4520312,18.0378125 20.0270312,18.9971875 C20.1067187,19.13 19.9989062,19.4753125 19.8676562,19.6190625 C17.3051562,22.445625 14.0926562,23.73625 10.3098437,23.38 C4.16765625,22.79875 -0.27296875,17.5971875 0.01296875,11.455 C0.27703125,5.7971875 4.77390625,1.23 10.4410937,0.8128125 C12.9957812,0.626875 15.3723437,1.1159375 17.5129687,2.53625 C18.0535937,2.8940625 18.5410937,3.3940625 18.9160937,3.9253125 C19.6504687,4.958125 19.5832812,6.2675 18.8582812,7.2565625 C18.1067187,8.2815625 16.7535937,8.7128125 15.4489062,8.3425 C14.2739062,8.0096875 13.4301562,7.0534375 13.3739062,5.814375 C13.3457812,5.17375 13.0879687,5.020625 12.5239062,4.976875 C8.56765625,4.6815625 5.19265625,7.4425 4.78015625,11.3378125 C4.38640625,15.06125 7.14890625,18.51125 10.9785937,19.033125 C13.2754687,19.3471875 15.2223437,18.4878125 16.9910937,17.1175 C17.3832812,16.8159375 17.7582812,16.4909375 18.1910937,16.133125" id="Fill-3" fill="#FFFFFF" mask="url(#mask-2)"></path>
            </g>
            <path d="M96.8245312,102.003438 C98.1714062,101.976875 99.5182812,101.940938 100.863594,101.939375 C100.977656,101.939375 101.129219,102.144063 101.196406,102.284688 C101.252656,102.405 101.216719,102.570625 101.216719,102.715938 C101.216719,107.6675 101.207344,112.6175 101.227656,117.569063 C101.230781,118.176875 101.090156,118.425313 100.433906,118.390938 C99.3964062,118.33625 98.3542187,118.36125 97.3135937,118.383125 C96.8870312,118.3925 96.7026562,118.247188 96.7276562,117.81125 C96.7479687,117.406563 96.7307812,117.001875 96.7307812,116.472188 C96.4182812,116.647188 96.2432812,116.7425 96.0714062,116.844063 C94.3729687,117.856563 92.5917187,118.639375 90.5745312,118.690938 C88.7135937,118.737813 86.9901562,118.358125 86.0823437,116.525313 C85.7073437,115.770625 85.4839062,114.86125 85.4698437,114.014375 C85.4042187,110.187813 85.4448437,106.36125 85.4276562,102.533125 C85.4245312,102.022188 85.6417187,101.89875 86.1026562,101.906563 C87.1620312,101.928438 88.2245312,101.93625 89.2854687,101.905 C89.8042187,101.889375 89.9651562,102.072188 89.9620312,102.584688 C89.9464062,105.872188 89.9510937,109.158125 89.9589062,112.445625 C89.9604687,112.878438 89.9854687,113.32375 90.0854687,113.7425 C90.3042187,114.656563 90.8823437,115.112813 91.8229687,115.153438 C93.6667187,115.233125 95.1479687,114.362813 96.5182812,113.272188 C96.6901562,113.133125 96.7198437,112.745625 96.7214062,112.472188 C96.7339062,109.24875 96.7276562,106.02375 96.7339062,102.800313 C96.7339062,102.534688 96.7917187,102.270625 96.8245312,102.005 L96.8245312,112.8175 C96.9526562,109.370625 96.9542187,105.925313 96.9479687,102.48 C96.9464062,102.320625 96.8667187,102.162813 96.8245312,102.003438" id="Fill-6" fill="#FFFFFF"></path>
            <path d="M131.974688,108.731094 C134.085625,108.731094 136.159063,108.729531 138.2325,108.734219 C138.654375,108.735781 138.67625,108.473281 138.67625,108.152969 C138.671563,105.790469 136.874688,104.401406 134.5075,104.935781 C132.968438,105.285781 131.730938,107.092031 131.974688,108.731094 M140.805938,113.221719 C141.316875,114.054531 141.77,114.821719 142.25125,115.573281 C142.487188,115.938906 142.227813,116.102969 142.015313,116.292031 C140.521563,117.618594 138.765313,118.418594 136.791875,118.590469 C135.480938,118.702969 134.115313,118.729531 132.8325,118.490469 C130.1325,117.984219 128.371563,116.284219 127.545,113.663906 C126.859063,111.485781 126.835625,109.277969 127.474688,107.085781 C128.373125,104.012344 130.480938,102.295156 133.602813,101.781094 C134.971563,101.556094 136.33875,101.610781 137.691875,101.920156 C140.604375,102.584219 142.518438,104.746719 142.768438,107.731094 C142.843438,108.615469 142.765313,109.513906 142.75125,110.404531 C142.745,110.965469 142.487188,111.171719 141.895,111.167031 C138.796563,111.137344 135.698125,111.152969 132.599688,111.154531 C131.745,111.154531 131.70125,111.210781 131.877813,112.043594 C131.890313,112.104531 131.902813,112.165469 131.916875,112.226406 C132.479375,114.640469 133.910625,115.629531 136.373125,115.340469 C137.885625,115.163906 139.22625,114.620156 140.352813,113.582656 C140.473125,113.473281 140.605938,113.381094 140.805938,113.221719" id="Fill-8" fill="#FFFFFF"></path>
            <path d="M82.8596875,95.5628125 L82.8596875,96.3721875 L82.8596875,117.470625 C82.8596875,118.375312 82.858125,118.376875 81.9253125,118.376875 C81.0096875,118.378437 80.0940625,118.378437 79.18,118.376875 C78.34875,118.375312 78.345625,118.37375 78.345625,117.558125 C78.3440625,112.959687 78.3440625,108.36125 78.3440625,103.762812 C78.3440625,101.495625 78.36125,99.226875 78.3346875,96.9596875 C78.3284375,96.405 78.508125,96.1909375 79.0565625,96.1253125 C80.289375,95.9784375 81.5175,95.7659375 82.8596875,95.5628125" id="Fill-10" fill="#FFFFFF"></path>
            <path d="M145.5275,102.6275 C146.894688,102.397812 148.261875,102.165 149.72125,101.918125 L149.72125,104.930625 L149.875938,104.99 C149.979063,104.836875 150.08375,104.68375 150.18375,104.530625 C151.386875,102.699375 153.09,101.799375 155.272813,101.765 C155.716563,101.75875 155.911875,101.89 155.899375,102.368125 C155.87125,103.386875 155.874375,104.40875 155.897813,105.4275 C155.907188,105.854062 155.754063,105.993125 155.3275,106.029062 C151.957188,106.30875 149.755625,108.730625 149.755625,112.122812 C149.754063,113.954062 149.75875,115.785312 149.749375,117.618125 C149.749375,117.85875 149.682188,118.099375 149.64625,118.343125 L149.64625,111.436875 C149.605625,111.438437 149.566563,111.438437 149.5275,111.438437 L149.5275,118.354062 L145.400938,118.354062 C145.4025,113.460312 145.400938,108.565 145.410313,103.669687 C145.410313,103.322812 145.486875,102.975937 145.5275,102.6275" id="Fill-12" fill="#FFFFFF"></path>
            <path d="M145.5275,102.6275 C145.486875,102.975938 145.410312,103.322813 145.410312,103.669688 C145.400937,108.565 145.4025,113.460313 145.400937,118.354063 C145.347812,118.14625 145.24625,117.936875 145.24625,117.725938 C145.236875,112.911875 145.235312,108.09625 145.2525,103.282188 C145.2525,103.063438 145.432187,102.84625 145.5275,102.6275" id="Fill-14" fill="#FFFFFF"></path>
            <path d="M105.682188,113.780156 L105.682188,105.567656 C105.718125,105.566094 105.757188,105.562969 105.793125,105.559844 C105.8025,105.723906 105.82125,105.886406 105.82125,106.050469 C105.822813,108.437969 105.825938,110.823906 105.816563,113.212969 C105.816563,113.475469 105.74,113.737969 105.699375,114.002031 C105.694688,113.927031 105.688438,113.853594 105.682188,113.780156" id="Fill-16" fill="#FFFFFF"></path>
            <path d="M149.526875,118.354844 L149.526875,111.437656 C149.565938,111.437656 149.606563,111.437656 149.645625,111.436094 L149.645625,118.342344 L149.587813,118.357969 L149.526875,118.354844 Z" id="Fill-18" fill="#FFFFFF"></path>
            <path d="M105.819531,97.8820313 C105.819531,98.9601563 105.832031,100.041406 105.814844,101.119531 C105.810156,101.377344 105.710156,101.633594 105.655469,101.889844 C105.653906,100.735156 105.646094,99.5789063 105.658594,98.4226563 C105.660156,98.2414063 105.763281,98.0617188 105.819531,97.8820313" id="Fill-20" fill="#FFFFFF"></path>
            <path d="M96.8245313,102.003437 C96.8667188,102.162812 96.9464063,102.320625 96.9479688,102.48 C96.9542188,105.925312 96.9526563,109.370625 96.8245313,112.8175 L96.8245313,102.005 L96.8245313,102.003437 Z" id="Fill-22" fill="#FFFFFF"></path>
        </g>
    </g>
</svg>