<?xml version="1.0" encoding="UTF-8"?>
<svg width="212px" height="212px" viewBox="0 0 212 212" version="1.1" xmlns="http://www.w3.org/2000/svg" xmlns:xlink="http://www.w3.org/1999/xlink">
    <!-- Generator: Sketch 51.2 (57519) - http://www.bohemiancoding.com/sketch -->
    <title>Logos-Hover</title>
    <desc>Created with Sketch.</desc>
    <defs>
        <polygon id="path-1" points="0.672818966 0.0689 16.4987931 0.0689 16.4987931 23.0153444 0.672818966 23.0153444"></polygon>
        <polygon id="path-3" points="0.842818966 0.418444444 16.4945431 0.418444444 16.4945431 23.5555556 0.842818966 23.5555556"></polygon>
    </defs>
    <g id="Logos-Hover" stroke="none" stroke-width="1" fill="none" fill-rule="evenodd">
        <g id="figs" transform="translate(-2.000000, -1.000000)">
            <rect id="Rectangle-Copy-2" fill="#65666B" x="0" y="0" width="216" height="214"></rect>
            <polygon id="Fill-1" fill="#FFFFFF" points="87.0902586 95.8783556 87.0902586 118.1488 89.4834483 118.1488 89.4834483 108.111356 97.9043103 108.111356 97.9043103 105.947578 89.4834483 105.947578 89.4834483 98.0406889 100.85 98.0406889 100.85 95.8783556"></polygon>
            <polygon id="Fill-2" fill="#FFFFFF" points="106.099483 118.148222 108.491207 118.148222 108.491207 95.8777778 106.099483 95.8777778"></polygon>
            <g id="Group-11" transform="translate(66.000000, 95.026000)">
                <g id="Group-5" transform="translate(67.413793, 0.444444)">
                    <mask id="mask-2" fill="white">
                        <use xlink:href="#path-1"></use>
                    </mask>
                    <g id="Clip-4"></g>
                    <path d="M9.05557759,9.89401111 C5.93842241,8.98545556 3.55402586,8.11878889 3.54669828,5.96367778 C3.54669828,4.82834444 4.04790517,3.87501111 5.00342241,3.20623333 C5.9120431,2.57067778 7.20316379,2.22256667 8.64523276,2.22256667 C11.1219569,2.22256667 13.7862672,3.24378889 13.8316983,6.10523333 L13.8360948,6.26123333 L16.14575,6.26123333 L16.1442845,6.10234444 C16.100319,2.43778889 13.1575603,0.0689 8.64523276,0.0689 C4.12850862,0.0689 1.20773276,2.43778889 1.20773276,6.10234444 C1.20773276,9.67012222 4.26919828,10.9007889 8.27152586,12.1401222 L8.37557759,12.1747889 C11.4810086,13.1440111 14.1614397,13.9789 14.1614397,16.5225667 C14.1629052,17.8456778 13.7247155,18.8914556 12.8600603,19.6237889 C11.9133362,20.4240111 10.4800603,20.8313444 8.60126724,20.8313444 C4.55497414,20.8313444 3.04549138,18.5491222 2.98540517,16.5933444 L2.98247414,16.4416778 L0.672818966,16.4402333 L0.678681034,16.6020111 C0.740232759,19.6916778 3.27264655,23.0153444 8.66868103,23.0153444 C13.6455776,23.0153444 16.4989397,20.6464556 16.4989397,16.5196778 C16.4989397,12.5416778 12.9216121,10.9845667 9.05557759,9.89401111" id="Fill-3" fill="#FFFFFF" mask="url(#mask-2)"></path>
                </g>
                <g id="Group-8" transform="translate(46.896552, 0.000000)">
                    <mask id="mask-4" fill="white">
                        <use xlink:href="#path-3"></use>
                    </mask>
                    <g id="Clip-7"></g>
                    <path d="M9.91583621,13.8451333 L14.0984224,13.8451333 L14.0984224,16.9362444 C14.0984224,16.9665778 14.0984224,16.9882444 14.0954914,17.0128 L14.0793707,17.1168 C13.7100603,19.6676889 11.977819,21.1800222 9.21092241,21.3721333 L9.17428448,21.3750222 C9.13031897,21.3764667 9.08635345,21.3764667 9.03359483,21.3793556 C8.92514655,21.3865778 8.81523276,21.3909111 8.70531897,21.3909111 C5.2320431,21.3591333 3.23893966,19.4033556 3.23893966,16.0219111 L3.23893966,7.96046667 C3.23893966,4.57757778 5.2320431,2.6218 8.70531897,2.59435556 C8.80497414,2.59435556 8.90316379,2.5958 9.02187069,2.60302222 C9.06730172,2.60302222 9.11859483,2.60735556 9.16402586,2.60735556 L9.2094569,2.61168889 C11.9016121,2.79657778 13.6265259,4.23668889 14.0529914,6.66768889 L14.0764397,6.79913333 L16.4901466,6.79913333 L16.4652328,6.62146667 C15.9552328,2.67813333 13.1473017,0.417577778 8.76247414,0.417577778 L8.71411207,0.417577778 L8.6994569,0.577911111 L8.67747414,0.417577778 L8.64083621,0.417577778 C3.75773276,0.417577778 0.842818966,3.23713333 0.842818966,7.96046667 L0.842818966,16.0219111 C0.842818966,20.7380222 3.75773276,23.5561333 8.64083621,23.5561333 L8.69212931,23.5546889 L8.76247414,23.5561333 C13.2396293,23.5561333 16.0534224,21.2219111 16.4945431,17.1370222 L16.4945431,11.7608 L9.91583621,11.7608 L9.91583621,13.8451333 Z" id="Fill-6" fill="#FFFFFF" mask="url(#mask-4)"></path>
                </g>
                <path d="M4.42146552,23.0182222 C5.36818966,23.3764444 6.46,23.5555556 7.67491379,23.5555556 L7.8625,23.5555556 C9.09939655,23.5555556 10.2117241,23.3663333 11.1760345,23.0008889 C13.8506034,22.0128889 15.5374138,19.7061111 15.5374138,16.0675556 L15.5374138,7.90211111 C15.5374138,4.24477778 13.8242241,1.92788889 11.1144828,0.955777778 C10.1677586,0.599 9.08034483,0.418444444 7.8625,0.418444444 L7.67491379,0.418444444 C6.43655172,0.418444444 5.32275862,0.606222222 4.36284483,0.976 C1.68681034,1.964 0,4.26933333 0,7.90211111 L0,16.0675556 C0,19.7335556 1.71318966,22.0461111 4.42146552,23.0182222 Z M6.38232759,10.6191111 L6.38232759,7.45866667 L9.15362069,7.45866667 L9.15362069,10.6234444 C12.3191379,10.6682222 12.3631034,13.3534444 12.3631034,13.3534444 L9.15362069,13.3534444 L9.15362069,16.5167778 L6.38232759,16.5167778 L6.38232759,13.3534444 C3.46448276,13.17 3.16991379,10.6191111 3.16991379,10.6191111 L6.38232759,10.6191111 Z" id="Fill-9" fill="#FFFFFF"></path>
            </g>
            <text id="EXIT" font-family="AvenirNext-Medium, Avenir Next" font-size="14" font-weight="400" line-spacing="27.6" letter-spacing="0.1166667" fill="#FFFFFF">
                <tspan x="93" y="184">EXIT</tspan>
            </text>
        </g>
    </g>
</svg>