<?xml version="1.0" encoding="UTF-8"?>
<svg width="212px" height="212px" viewBox="0 0 212 212" version="1.1" xmlns="http://www.w3.org/2000/svg" xmlns:xlink="http://www.w3.org/1999/xlink">
    <!-- Generator: Sketch 51.2 (57519) - http://www.bohemiancoding.com/sketch -->
    <title>Logos</title>
    <desc>Created with Sketch.</desc>
    <defs>
        <polygon id="path-1" points="0.849561654 0.263414231 20.7789516 0.263414231 20.7789516 21 0.849561654 21"></polygon>
        <polygon id="path-3" points="0.7812 0.693 6.24639447 0.693 6.24639447 6.5058 0.7812 6.5058"></polygon>
    </defs>
    <g id="Logos" stroke="none" stroke-width="1" fill="none" fill-rule="evenodd">
        <g id="floqast" transform="translate(51.000000, 91.000000)">
            <g id="Group-3" transform="translate(51.000000, 9.307200)">
                <mask id="mask-2" fill="white">
                    <use xlink:href="#path-1"></use>
                </mask>
                <g id="Clip-2"></g>
                <path d="M12.5547,3.7951 C10.8647,3.8041 9.3687,4.3461 8.1807,5.5341 C5.8137,7.9021 4.8527,10.8391 5.0087,14.1321 C5.0837,15.7221 6.1407,16.8251 7.6997,17.1491 C10.0507,17.6381 12.0087,16.8551 13.6807,15.2101 C14.9157,13.9951 15.6557,12.4931 16.1557,10.8671 C16.5427,9.6061 16.7717,8.3191 16.5837,6.9841 C16.3507,5.3201 15.3977,4.2601 13.7497,3.9191 C13.3597,3.8381 12.9527,3.8341 12.5547,3.7951 M16.4227,17.3831 C17.3747,18.5531 18.3367,19.7341 19.2987,20.9161 C19.2827,20.9441 19.2657,20.9721 19.2487,21.0001 C18.2867,20.7471 17.3257,20.4941 16.3637,20.2401 C15.5567,20.0271 14.7557,19.7921 13.9417,19.6121 C13.6977,19.5581 13.3897,19.5921 13.1587,19.6941 C10.3897,20.9221 7.5387,21.1691 4.6677,20.2131 C2.2547,19.4101 0.9327,17.5531 0.8587,15.0751 C0.7087,10.0731 2.3987,5.7691 6.4177,2.6251 C9.0097,0.5971 12.0417,-0.0799 15.2987,0.4221 C18.7017,0.9481 20.7367,3.1441 20.7777,6.6111 C20.8257,10.6131 19.4937,14.1551 16.6637,17.0661 C16.5997,17.1331 16.5337,17.1981 16.4737,17.2681 C16.4537,17.2891 16.4487,17.3231 16.4227,17.3831" id="Fill-1" fill="#404041" mask="url(#mask-2)"></path>
            </g>
            <path d="M8.2651,13.634 L1.5911,13.634 C1.9141,12.032 2.3941,10.586 3.9791,9.866 C4.3881,9.68 4.8671,9.581 5.3171,9.566 C6.5211,9.525 7.7281,9.534 8.9321,9.561 C9.3471,9.571 9.5151,9.429 9.6401,9.037 C10.2921,7.008 10.9871,4.993 11.6451,2.966 C11.7601,2.612 11.9121,2.46 12.2991,2.508 C12.7881,2.57 13.2851,2.576 13.7781,2.605 C14.9771,2.675 15.5801,3.53 15.2201,4.684 C14.7681,6.128 14.2921,7.565 13.8281,9.006 C13.7781,9.163 13.7381,9.324 13.6761,9.546 L17.9531,9.546 C17.9231,9.731 17.9151,9.862 17.8811,9.985 C17.5871,11.057 17.2761,12.125 16.9991,13.202 C16.9111,13.544 16.7321,13.628 16.4071,13.624 C15.2481,13.609 14.0891,13.607 12.9311,13.631 C12.7621,13.634 12.4931,13.77 12.4461,13.905 C11.8741,15.554 11.3351,17.215 10.7901,18.872 C10.7771,18.913 10.7841,18.961 10.7791,19.075 L15.3581,19.075 C15.3251,19.281 15.3141,19.412 15.2811,19.537 C14.9941,20.627 14.6911,21.713 14.4191,22.807 C14.3361,23.138 14.1781,23.252 13.8411,23.247 C12.6201,23.231 11.3991,23.259 10.1791,23.232 C9.7411,23.222 9.5301,23.344 9.3981,23.791 C8.8311,25.701 8.2131,27.595 7.6321,29.501 C7.5311,29.83 7.3941,29.973 7.0261,29.966 C5.8241,29.941 4.6211,29.957 3.3281,29.957 C4.0331,27.71 4.7181,25.527 5.4251,23.274 L0.0001,23.274 C0.3521,21.633 0.7851,20.098 2.4391,19.355 C2.8631,19.164 3.3501,19.058 3.8151,19.027 C4.6001,18.974 5.3911,19.024 6.1791,19.001 C6.3251,18.997 6.5551,18.879 6.5961,18.761 C7.1731,17.114 7.7241,15.459 8.2801,13.805 C8.2891,13.779 8.2761,13.745 8.2651,13.634" id="Fill-4" fill="#404041"></path>
            <path d="M32.9326,9.5774 C32.5776,11.1324 32.1776,12.5884 30.6516,13.3194 C30.1926,13.5394 29.6566,13.6964 29.1516,13.7074 C27.0816,13.7494 25.0106,13.7334 22.9406,13.7174 C22.5686,13.7144 22.3916,13.8194 22.2936,14.1924 C21.8936,15.7164 21.4606,17.2314 21.0426,18.7504 C21.0106,18.8674 21.0016,18.9894 20.9706,19.1794 L27.8806,19.1794 C27.6656,21.3724 26.4576,23.3624 24.1016,23.3694 C22.8346,23.3744 21.5666,23.3854 20.3006,23.3634 C19.9206,23.3564 19.7596,23.4794 19.6646,23.8484 C19.1796,25.7334 18.6576,27.6084 18.1706,29.4934 C18.0806,29.8404 17.9336,29.9704 17.5726,29.9634 C16.5066,29.9434 15.4396,29.9574 14.3736,29.9544 C14.2386,29.9544 14.1026,29.9364 13.9156,29.9224 C13.9606,29.7224 13.9916,29.5604 14.0336,29.4014 C15.7516,22.9684 17.4736,16.5374 19.1806,10.1024 C19.2906,9.6884 19.4616,9.5394 19.9056,9.5414 C24.0776,9.5594 28.2496,9.5514 32.4216,9.5534 C32.5736,9.5534 32.7246,9.5674 32.9326,9.5774" id="Fill-6" fill="#404041"></path>
            <path d="M89.5478,24.5027 C89.5478,24.6897 89.5488,24.7957 89.5478,24.9017 C89.5278,25.9527 89.8738,26.4397 90.8908,26.7087 C91.9368,26.9867 92.9858,26.9627 93.9698,26.4967 C94.3408,26.3207 94.6918,26.0117 94.9328,25.6777 C95.2838,25.1917 95.1798,24.6957 94.6448,24.4227 C94.0628,24.1237 93.4148,23.9497 92.7898,23.7407 C91.5768,23.3367 90.3188,23.0397 89.1548,22.5247 C87.5438,21.8137 87.0268,20.5257 87.4908,18.8207 C88.0288,16.8497 89.2618,15.4397 91.0968,14.5897 C93.2718,13.5827 95.5458,13.4577 97.8368,14.1067 C99.9488,14.7037 100.9338,16.4197 100.5108,18.5727 C100.4588,18.8367 100.3498,18.9407 100.0828,18.9357 C99.3108,18.9227 98.5378,18.9367 97.7658,18.9217 C97.1868,18.9107 96.7588,18.6367 96.5308,18.0997 C96.2268,17.3797 95.6648,17.0037 94.9148,16.9807 C94.2728,16.9597 93.6218,17.0097 92.9858,17.1007 C92.4938,17.1707 92.1118,17.4807 91.8618,17.9217 C91.5668,18.4447 91.6158,18.8117 92.1378,19.0967 C92.6478,19.3737 93.2048,19.5797 93.7618,19.7507 C94.7628,20.0587 95.7868,20.2907 96.7848,20.6057 C97.2668,20.7567 97.7308,20.9907 98.1708,21.2417 C99.2968,21.8797 99.7398,22.8047 99.5228,24.0747 C99.1038,26.5217 97.7498,28.2767 95.4558,29.2047 C93.0688,30.1687 90.5708,30.2797 88.0838,29.6677 C85.5578,29.0447 84.8888,27.0997 85.5288,24.7787 C85.5608,24.6677 85.7278,24.5167 85.8328,24.5147 C87.0508,24.4957 88.2678,24.5027 89.5478,24.5027" id="Fill-8" fill="#404041"></path>
            <path d="M81.6084,21.9519 C80.4304,22.2349 79.2944,22.5019 78.1604,22.7839 C77.7124,22.8949 77.2644,23.0139 76.8344,23.1759 C75.8924,23.5299 75.4084,24.2639 75.2394,25.2239 C75.0964,26.0389 75.4914,26.5979 76.3024,26.7039 C77.2924,26.8339 78.2374,26.6789 79.1164,26.1829 C80.7634,25.2559 81.2674,23.6609 81.6084,21.9519 M73.7484,18.0479 C74.1444,16.9909 74.7234,16.2439 75.4454,15.5989 C76.6764,14.5009 78.1394,13.9219 79.7634,13.7529 C81.1844,13.6059 82.6054,13.6509 83.9964,14.0129 C84.4114,14.1199 84.8254,14.2749 85.1994,14.4819 C86.3184,15.1009 86.9164,16.1089 86.6434,17.3389 C86.0384,20.0789 85.4874,22.8589 84.3204,25.4269 C83.1454,28.0109 80.9434,29.3449 78.1934,29.7529 C76.7914,29.9609 75.3654,30.1069 73.9534,29.7759 C73.5954,29.6919 73.2394,29.5649 72.9104,29.4029 C71.5294,28.7229 70.9754,27.6569 71.2324,26.0409 C71.3454,25.3299 71.5524,24.6239 71.8034,23.9469 C72.4394,22.2359 73.7624,21.2079 75.4444,20.7069 C76.7674,20.3129 78.1564,20.1399 79.5094,19.8429 C80.2304,19.6849 80.9484,19.5049 81.6474,19.2749 C81.9084,19.1889 82.1564,18.9689 82.3364,18.7499 C82.8714,18.1019 82.6534,17.4139 81.8534,17.1709 C80.8834,16.8749 79.9024,16.8359 78.9344,17.1559 C78.6214,17.2609 78.2924,17.4269 78.0654,17.6579 C77.7654,17.9649 77.4574,18.0639 77.0434,18.0559 C75.9814,18.0319 74.9184,18.0479 73.7484,18.0479" id="Fill-10" fill="#404041"></path>
            <path d="M46.8638,19.9236 C46.8648,17.6966 45.5288,16.7106 43.6558,17.2476 C42.6668,17.5306 41.9228,18.1086 41.3558,18.9396 C40.2738,20.5256 39.8488,22.3276 39.8088,24.2016 C39.7698,25.9936 41.1318,26.9726 42.8568,26.4366 C43.4118,26.2636 43.9628,25.9306 44.3948,25.5386 C46.1228,23.9726 46.5788,21.8446 46.8638,19.9236 M41.1798,29.8936 C40.0648,29.9016 39.0028,29.6816 37.9968,29.1906 C36.4208,28.4206 35.7048,27.0856 35.7038,25.4076 C35.7008,21.8636 36.7138,18.6516 39.2738,16.1056 C41.6468,13.7476 44.5638,13.1546 47.7518,13.9506 C49.6258,14.4186 50.5528,15.7956 50.8618,17.6486 C51.3888,20.8166 49.5808,26.6156 45.4968,28.8246 C44.1488,29.5546 42.6978,29.8576 41.1798,29.8936" id="Fill-12" fill="#404041"></path>
            <path d="M107.7226,14.2082 L110.0076,14.2082 C110.0516,15.6912 108.8776,16.9522 107.3886,17.0362 C107.0246,17.0562 106.8926,17.1832 106.8026,17.5202 C106.0956,20.1772 105.3686,22.8282 104.6496,25.4822 C104.4096,26.3682 104.6496,26.6802 105.5796,26.6952 C105.9326,26.7012 106.2846,26.6962 106.7206,26.6962 C106.4406,27.7172 106.1866,28.6662 105.9076,29.6072 C105.8826,29.6882 105.6886,29.7662 105.5746,29.7642 C104.2156,29.7412 102.8546,29.7412 101.4996,29.6552 C100.5396,29.5942 100.0296,28.9782 100.0506,28.0102 C100.0596,27.5832 100.1276,27.1462 100.2406,26.7332 C101.7546,21.1752 103.2856,15.6222 104.7956,10.0622 C104.9056,9.6592 105.0756,9.5112 105.4936,9.5422 C106.0156,9.5822 106.5426,9.5392 107.0686,9.5562 C108.0766,9.5892 108.7246,10.3992 108.4996,11.3852 C108.3316,12.1222 108.0986,12.8442 107.8946,13.5732 C107.8456,13.7492 107.7986,13.9262 107.7226,14.2082" id="Fill-14" fill="#404041"></path>
            <path d="M28.5381,29.9568 C28.8451,28.8198 29.1231,27.7788 29.4061,26.7388 C30.9081,21.2238 32.4161,15.7088 33.9011,10.1888 C34.0331,9.6968 34.2331,9.4938 34.7491,9.5418 C35.2401,9.5878 35.7381,9.5458 36.2321,9.5538 C37.3891,9.5708 38.0301,10.3858 37.7321,11.5118 C37.1371,13.7678 36.5161,16.0168 35.9031,18.2678 C34.8881,21.9948 33.8671,25.7198 32.8641,29.4498 C32.7621,29.8288 32.6061,29.9748 32.2031,29.9658 C31.0161,29.9398 29.8291,29.9568 28.5381,29.9568" id="Fill-16" fill="#404041"></path>
            <g id="Group-20" transform="translate(19.000000, 0.307200)">
                <mask id="mask-4" fill="white">
                    <use xlink:href="#path-3"></use>
                </mask>
                <g id="Clip-19"></g>
                <path d="M0.7812,6.505 C1.2592,5.046 1.7042,3.682 2.1502,2.319 C2.2992,1.864 2.4292,1.402 2.6112,0.96 C2.6632,0.835 2.8652,0.691 2.9972,0.693 C3.6302,0.701 4.2652,0.728 4.8932,0.8 C5.8742,0.914 6.4492,1.7 6.1802,2.654 C5.8372,3.871 5.4052,5.064 4.9952,6.262 C4.9602,6.364 4.8082,6.494 4.7082,6.495 C3.4282,6.51 2.1482,6.505 0.7812,6.505" id="Fill-18" fill="#404041" mask="url(#mask-4)"></path>
            </g>
        </g>
    </g>
</svg>