<?xml version="1.0" encoding="UTF-8"?>
<svg width="212px" height="212px" viewBox="0 0 212 212" version="1.1" xmlns="http://www.w3.org/2000/svg" xmlns:xlink="http://www.w3.org/1999/xlink">
    <!-- Generator: Sketch 51.2 (57519) - http://www.bohemiancoding.com/sketch -->
    <title>Logos</title>
    <desc>Created with Sketch.</desc>
    <defs>
        <polygon id="path-1" points="0 0.0790432759 19.9362909 0.0790432759 19.9362909 30.3781371 0 30.3781371"></polygon>
        <polygon id="path-3" points="0.258561778 0.00289655172 10.1872225 0.00289655172 10.1872225 30.3977172 0.258561778 30.3977172"></polygon>
        <polygon id="path-5" points="1.16863575 0.0388207448 11.0996364 0.0388207448 11.0996364 30.4166897 1.16863575 30.4166897"></polygon>
    </defs>
    <g id="Logos" stroke="none" stroke-width="1" fill="none" fill-rule="evenodd">
        <g id="gyft-exit" transform="translate(74.000000, 86.000000)">
            <g id="Group-3" transform="translate(0.000000, 10.583745)">
                <mask id="mask-2" fill="white">
                    <use xlink:href="#path-1"></use>
                </mask>
                <g id="Clip-2"></g>
                <path d="M9.94792727,15.3421655 C12.8119273,15.3494069 15.1304727,13.0278207 15.1246545,10.1645793 C15.1202909,7.31871724 12.7377455,4.91602759 9.94647273,4.93630345 C7.1552,4.95802759 4.87010909,7.27671724 4.83374545,10.121131 C4.79738182,13.0089931 7.07665455,15.3363724 9.94792727,15.3421655 M15.0853818,18.8918897 C12.3479273,20.3285793 9.66865455,20.6964414 6.87592727,19.7767862 C4.80756364,19.0960966 3.14647273,17.8462345 1.87956364,16.0909241 C-0.694981818,12.5238207 -0.614981818,7.49685517 2.05847273,3.99782069 C5.04465455,0.0889241379 9.21483636,-0.791627586 15.0112,1.32864828 C15.0882909,0.937613793 15.1624727,0.559613793 15.2541091,0.0816827586 C16.6548364,0.0816827586 18.0526545,0.0686482759 19.4504727,0.100510345 C19.6075636,0.103406897 19.7704727,0.34382069 19.9072,0.494441379 C19.9537455,0.54657931 19.9304727,0.663889655 19.9304727,0.750786207 C19.9101091,7.63588966 19.9872,14.5224414 19.8301091,21.4032 C19.7282909,25.8740276 15.6221091,29.8654759 11.1406545,30.3187862 C8.37265455,30.5968552 5.93192727,29.8987862 3.75592727,28.2043034 C3.57265455,28.0594759 3.39956364,27.9016138 3.22938182,27.7423034 C3.16829091,27.6843724 3.13047273,27.603269 3.07956364,27.5265103 C4.2272,26.4475448 5.36901818,25.3743724 6.56901818,24.2447172 C8.48465455,25.7567172 10.7173818,26.0869241 12.9806545,24.4836828 C14.8410182,23.1672 15.2759273,21.2366483 15.0853818,18.8918897" id="Fill-1" fill="#404041" mask="url(#mask-2)"></path>
            </g>
            <path d="M21.232,10.7006207 L25.9650909,10.7006207 C25.9810909,11.0337241 26.0087273,11.3422069 26.0101818,11.6506897 C26.0130909,14.6544138 25.9970909,17.6595862 26.0174545,20.6633103 C26.0349091,23.3672414 28.0276364,25.6815862 30.4887273,25.9031724 C33.3425455,26.1595172 35.616,24.5215172 36.2123636,21.7509655 C36.3025455,21.3295172 36.3010909,20.882 36.3025455,20.4475172 C36.3127273,17.2975172 36.3127273,14.1475172 36.3170909,10.9975172 C36.3170909,10.9395862 36.3389091,10.8831034 36.3636364,10.7411724 L41.088,10.7411724 C41.1054545,11.027931 41.1374545,11.3088966 41.1374545,11.5913103 C41.1389091,18.0361379 41.1476364,24.4838621 41.1345455,30.9301379 C41.1243636,35.75 37.8690909,39.7501379 33.1374545,40.7769655 C32.5512727,40.9029655 31.9432727,40.9203448 31.2785455,40.9971034 L31.2785455,36.1989655 C35.1447273,35.162 36.8436364,32.8867586 36.1876364,29.5904828 C35.9694545,29.6744828 35.7527273,29.7425517 35.5505455,29.8366897 C29.536,32.584069 22.9774545,29.4108966 21.4487273,22.997931 C21.3090909,22.4070345 21.2,21.7915172 21.1956364,21.1875862 C21.1709091,17.8623448 21.1825455,14.5371034 21.184,11.2133103 C21.184,11.0713793 21.2087273,10.9294483 21.232,10.7006207" id="Fill-4" fill="#404041"></path>
            <g id="Group-8" transform="translate(42.181818, 0.445814)">
                <mask id="mask-4" fill="white">
                    <use xlink:href="#path-3"></use>
                </mask>
                <g id="Clip-7"></g>
                <path d="M5.11970909,30.3977172 L0.3168,30.3977172 C0.299345455,30.092131 0.264436364,29.7850966 0.264436364,29.4795103 C0.261527273,23.0303379 0.251345455,16.5811655 0.267345455,10.1334414 C0.280436364,5.05868276 3.72043636,0.98757931 8.70370909,0.10557931 C10.0564364,-0.133386207 10.1713455,-0.0421448276 10.1713455,1.3004069 C10.1713455,2.20557931 10.1306182,3.1122 10.1829818,4.01447586 C10.2222545,4.66764828 9.99243636,4.93702759 9.33934545,5.0499931 C7.14298182,5.43088966 5.53861818,7.11668276 5.15170909,9.32675172 C5.04261818,9.9582 5.19534545,10.2420621 5.89934545,10.2232345 C7.27098182,10.184131 8.64698182,10.2116483 10.1509818,10.2116483 C10.1509818,11.7642 10.1698909,13.2414414 10.1204364,14.7172345 C10.1175273,14.8548207 9.70298182,15.0836483 9.47316364,15.0937862 C8.39098182,15.1343379 7.30589091,15.1068207 6.22225455,15.1169586 C5.87752727,15.1213034 5.53425455,15.1647517 5.11970909,15.1966138 L5.11970909,30.3977172 Z" id="Fill-6" fill="#404041" mask="url(#mask-4)"></path>
            </g>
            <g id="Group-11" transform="translate(52.363636, 0.445814)">
                <mask id="mask-6" fill="white">
                    <use xlink:href="#path-5"></use>
                </mask>
                <g id="Clip-10"></g>
                <path d="M1.23345455,0.042 C2.72,0.042 4.14981818,0.031862069 5.57672727,0.0477931034 C6.19636364,0.0550344828 6.02909091,0.556137931 6.03054545,0.896482759 C6.04363636,3.55117241 6.03781818,6.20586207 6.03927273,8.86055172 C6.03927273,10.2103448 6.04072727,10.2117931 7.35563636,10.2117931 L11.0952727,10.2117931 C11.0952727,11.7368276 11.1170909,13.2126207 11.0647273,14.684069 C11.0589091,14.8346897 10.6210909,15.0837931 10.3767273,15.0924828 C9.17672727,15.1373793 7.97381818,15.0866897 6.77527273,15.1431724 C6.52509091,15.1547586 6.08290909,15.471931 6.08,15.6558621 C6.04363636,17.3764138 5.94181818,19.1114483 6.13236364,20.8131724 C6.43927273,23.5591034 8.10763636,25.074 11.0385455,25.5273103 L11.0385455,30.4166897 C8.49745455,30.3297931 6.31709091,29.4796552 4.48581818,27.7938621 C2.38109091,25.856069 1.23636364,23.4186207 1.20581818,20.5886897 C1.13745455,13.9077931 1.184,7.22544828 1.18545455,0.544551724 C1.18545455,0.430137931 1.20581818,0.314275862 1.23345455,0.042" id="Fill-9" fill="#404041" mask="url(#mask-6)"></path>
            </g>
            <text id="EXIT" opacity="0.200000003" font-family="AvenirNext-Medium, Avenir Next" font-size="14" font-weight="400" line-spacing="27.6" letter-spacing="0.1166667" fill="#0745AF">
                <tspan x="17" y="97">EXIT</tspan>
            </text>
        </g>
    </g>
</svg>