<?xml version="1.0" encoding="UTF-8"?>
<svg width="212px" height="212px" viewBox="0 0 212 212" version="1.1" xmlns="http://www.w3.org/2000/svg" xmlns:xlink="http://www.w3.org/1999/xlink">
    <!-- Generator: Sketch 51.2 (57519) - http://www.bohemiancoding.com/sketch -->
    <title>Logos-Hover</title>
    <desc>Created with Sketch.</desc>
    <defs>
        <polygon id="path-1" points="0.000420948169 0.52441584 13.6573348 0.52441584 13.6573348 20.7777778 0.000420948169 20.7777778"></polygon>
    </defs>
    <g id="Logos-Hover" stroke="none" stroke-width="1" fill="none" fill-rule="evenodd">
        <g id="joany" transform="translate(-2.000000, -1.000000)">
            <rect id="Rectangle-Copy-2" fill="#FF5A5F" x="0" y="0" width="216" height="214"></rect>
            <path d="M124.932843,102.548422 L124.932843,104.194756 C124.932843,107.829644 124.94153,111.464533 124.921675,115.100644 C124.919193,115.583422 124.833566,116.083311 124.687133,116.545311 C124.513398,117.090422 124.144831,117.5182 123.490843,117.498644 C123.055265,117.486422 122.364048,116.793422 122.258566,116.303311 C122.216373,116.111422 122.231265,115.906089 122.231265,115.708089 C122.228783,110.179978 122.228783,104.653089 122.227542,99.1237556 C122.227542,98.9746444 122.228783,98.8255333 122.233747,98.6764222 C122.253602,97.9809778 122.747506,97.5996444 123.278639,97.3209778 C123.858169,97.0166444 124.239145,97.4835333 124.549386,97.8575333 C125.183518,98.6226444 125.774217,99.4256444 126.368639,100.222533 C128.542807,103.131422 130.705807,106.046422 132.886181,108.950422 C133.685361,110.012533 134.519289,111.0502 135.553012,112.375089 L135.553012,110.542978 C135.553012,106.807867 135.553012,103.073978 135.554253,99.3388667 C135.554253,98.9905333 135.52447,98.6373111 135.572867,98.2950889 C135.662217,97.6619778 136.216928,97.2146444 136.822518,97.2342 C137.36606,97.2537556 137.873614,97.6729778 137.972892,98.2339778 C138.023771,98.5248667 138.002675,98.8292 138.003916,99.1274222 C138.005157,104.606644 138.001434,110.083422 138.01012,115.5602 C138.011361,116.322867 138.07341,117.124644 137.182398,117.454644 C136.260361,117.798089 135.765217,117.073311 135.324675,116.500089 C133.870265,114.606867 132.477904,112.6672 131.053277,110.750756 C129.066494,108.0802 127.073506,105.416978 124.932843,102.548422" id="Fill-1" fill="#FFFFFF"></path>
            <path d="M108.285189,102.314489 C107.688286,103.733489 107.160876,104.796822 106.791069,105.910267 C106.415057,107.045711 105.541418,108.034489 105.603466,109.440044 C107.25643,109.440044 108.81384,109.443711 110.371249,109.433933 C110.558635,109.432711 110.74602,109.354489 111.030201,109.290933 C110.387382,106.936933 109.204743,104.866489 108.285189,102.314489 M115.914635,116.8846 C114.305105,117.193822 114.101587,116.690267 113.70696,115.546267 C113.353286,114.5196 112.875514,113.534489 112.500743,112.513933 C112.310876,111.995711 111.967129,111.855156 111.463298,111.8576 C109.34249,111.864933 107.221683,111.866156 105.100876,111.855156 C104.527551,111.851489 104.187527,112.029933 103.992695,112.620267 C103.634057,113.697044 103.1749,114.740822 102.751731,115.796822 C102.677273,115.9826 102.594129,116.163489 102.494852,116.337044 C102.159792,116.916378 101.390394,117.228044 100.85678,117.008044 C100.268563,116.767267 99.8999964,116.047378 100.113442,115.3996 C100.376527,114.602711 100.694213,113.820489 101.018105,113.044378 C102.519671,109.433933 104.03737,105.830822 105.542659,102.2216 C106.056418,100.9896 106.577623,99.7588222 107.03802,98.5072667 C107.253948,97.9181556 107.653539,97.7898222 108.202045,97.7861556 C108.78902,97.7824889 109.233286,97.8692667 109.49637,98.5341556 C110.788213,101.799933 112.127213,105.047378 113.468695,108.294822 C114.300141,110.3066 115.18743,112.296378 116.005225,114.314267 C116.329117,115.117267 116.852804,115.966711 115.914635,116.8846" id="Fill-3" fill="#FFFFFF"></path>
            <path d="M76.3183325,107.322667 C76.0155373,103.335778 79.0980916,99.3843333 82.6596578,98.0618889 C83.7268867,97.6658889 84.8747783,97.4507778 86.0040554,97.2613333 C86.8590795,97.1171111 87.5763566,97.705 87.6346819,98.4285556 C87.7078988,99.3464444 87.2388145,99.8365556 86.1765494,99.8976667 C83.1548024,100.068778 80.9247904,101.474333 79.5808265,104.131444 C77.4078988,108.426333 80.0176458,113.536444 84.4913205,114.587556 C87.6557783,115.330667 90.2804169,114.483667 92.3515855,112.100333 C93.3344289,110.967333 93.9573928,109.596 94.0144771,108.035222 C94.0293687,107.605 94.1274048,107.140556 94.3247181,106.761667 C94.7578145,105.928111 95.9677542,105.904889 96.3909229,106.731111 C96.6056096,107.147889 96.7445976,107.694222 96.6763446,108.147667 C96.2581398,110.986889 95.1127301,113.481444 92.7561398,115.278111 C92.0115614,115.847667 91.1466096,116.308444 90.2717301,116.661667 C86.7920675,118.064778 83.5320554,117.635778 80.4668747,115.467556 C78.4068747,114.010667 77.1224771,112.073444 76.5330193,109.687667 C76.3443928,108.927444 76.3841036,108.112222 76.3183325,107.322667" id="Fill-5" fill="#FFFFFF"></path>
            <path d="M151.601405,105.401089 C152.911863,103.617867 153.955513,102.175644 155.021501,100.750533 C155.794622,99.7177556 156.587598,98.6972 157.391742,97.6864222 C157.739212,97.2500889 158.179754,97.1009778 158.724537,97.4004222 C159.230851,97.6803111 159.621754,98.2437556 159.493935,98.7167556 C159.405827,99.0443111 159.232092,99.3645333 159.033537,99.6432 C158.256694,100.737089 157.455031,101.8102 156.662055,102.893089 C155.635778,104.2962 154.645489,105.727422 153.569573,107.091422 C153.033477,107.768533 152.874634,108.473756 152.887043,109.297533 C152.918067,111.386311 152.898212,113.476311 152.894489,115.565089 C152.894489,115.913422 152.916827,116.269089 152.849814,116.606422 C152.757983,117.074533 152.183417,117.5182 151.77514,117.510867 C151.216706,117.501089 150.537899,116.987756 150.467164,116.478089 C150.420007,116.135867 150.437381,115.782644 150.437381,115.435533 C150.434899,113.296644 150.420007,111.157756 150.444827,109.020089 C150.453513,108.297756 150.293429,107.729422 149.795802,107.131756 C147.982754,104.954978 146.262778,102.703644 144.509296,100.477978 C144.264827,100.166311 144.019116,99.8509778 143.801947,99.5197556 C143.317971,98.7839778 143.353959,98.2865333 143.897501,97.8135333 C144.439802,97.3429778 145.226573,97.3857556 145.785007,97.9846444 C146.259055,98.4930889 146.667333,99.0614222 147.097947,99.6077556 C148.2992,101.129422 149.497971,102.652311 150.693019,104.177644 C150.939971,104.491756 151.169549,104.816867 151.601405,105.401089" id="Fill-7" fill="#FFFFFF"></path>
            <g id="Group-11" transform="translate(57.000000, 96.778556)">
                <mask id="mask-2" fill="white">
                    <use xlink:href="#path-1"></use>
                </mask>
                <g id="Clip-10"></g>
                <path d="M13.6419157,8.5008 C13.6419157,10.5406889 13.6530843,12.5818 13.6381928,14.6216889 C13.6195783,17.3350222 11.1810843,20.8232444 7.37380723,20.7780222 C5.76924096,20.7572444 4.28380723,20.4614667 2.86290361,19.7916889 C0.927,18.8774667 0.214686747,17.1859111 0.00620481928,15.2193556 C-0.0248192771,14.9431333 0.0732168675,14.6253556 0.198554217,14.3674667 C0.645301205,13.4520222 1.65916867,13.3603556 2.23993976,14.1865778 C2.43725301,14.4652444 2.6506988,14.8172444 2.64325301,15.1313556 C2.62215663,16.0651333 3.03663855,16.8534667 3.73157831,17.2983556 C4.41286747,17.7359111 5.30512048,17.8960222 6.12912048,18.0536889 C6.71237349,18.1673556 7.33781928,18.0952444 7.94340964,18.0720222 C9.10122892,18.0292444 10.0058916,17.4511333 10.4588434,16.4623556 C10.882012,15.5334667 11.2294819,14.5508 11.2170723,13.4666889 C11.1761205,9.68513333 11.2034217,5.90235556 11.1959759,2.1208 C11.1947349,1.50113333 11.2059036,0.952355556 11.9343494,0.6578 C12.7608313,0.324133333 13.4756265,0.622355556 13.6233012,1.48646667 C13.6803855,1.82502222 13.6481205,2.18068889 13.6493614,2.52902222 C13.6506024,4.5188 13.6493614,6.5098 13.6493614,8.5008 L13.6419157,8.5008 Z" id="Fill-9" fill="#FFFFFF" mask="url(#mask-2)"></path>
            </g>
            <path d="M89.6223337,108.447111 C88.4024663,107.188222 87.2533337,106.067444 86.181141,104.879444 C85.0704783,103.649889 85.7033699,101.963222 87.070912,101.519556 C87.6690566,101.325222 88.2572735,101.294667 88.7697916,101.765222 C88.9869602,101.964444 89.2314301,102.136778 89.5305024,102.375111 C89.9747675,102.116 90.3818036,101.845889 90.8186229,101.633222 C91.7679602,101.168778 92.7309482,101.418111 93.3638398,102.259 C93.8813217,102.944667 93.8428518,104.053222 93.2149241,104.725444 C92.1055024,105.912222 90.9600928,107.064778 89.6223337,108.447111" id="Fill-12" fill="#FFFFFF"></path>
        </g>
    </g>
</svg>