<?xml version="1.0" encoding="UTF-8"?>
<svg width="212px" height="212px" viewBox="0 0 212 212" version="1.1" xmlns="http://www.w3.org/2000/svg" xmlns:xlink="http://www.w3.org/1999/xlink">
    <!-- Generator: Sketch 51.2 (57519) - http://www.bohemiancoding.com/sketch -->
    <title>Logos</title>
    <desc>Created with Sketch.</desc>
    <defs>
        <polygon id="path-1" points="0.000420948169 0.52441584 13.6573348 0.52441584 13.6573348 20.7777778 0.000420948169 20.7777778"></polygon>
    </defs>
    <g id="Logos" stroke="none" stroke-width="1" fill="none" fill-rule="evenodd">
        <g id="joany" transform="translate(55.000000, 95.000000)">
            <path d="M67.9328434,6.54842222 L67.9328434,8.19475556 C67.9328434,11.8296444 67.9415301,15.4645333 67.9216747,19.1006444 C67.9191928,19.5834222 67.8335663,20.0833111 67.6871325,20.5453111 C67.5133976,21.0904222 67.1448313,21.5182 66.4908434,21.4986444 C66.0552651,21.4864222 65.3640482,20.7934222 65.2585663,20.3033111 C65.2163735,20.1114222 65.2312651,19.9060889 65.2312651,19.7080889 C65.2287831,14.1799778 65.2287831,8.65308889 65.2275422,3.12375556 C65.2275422,2.97464444 65.2287831,2.82553333 65.233747,2.67642222 C65.2536024,1.98097778 65.747506,1.59964444 66.2786386,1.32097778 C66.8581687,1.01664444 67.2391446,1.48353333 67.5493855,1.85753333 C68.1835181,2.62264444 68.7742169,3.42564444 69.3686386,4.22253333 C71.5428072,7.13142222 73.7058072,10.0464222 75.8861807,12.9504222 C76.6853614,14.0125333 77.5192892,15.0502 78.553012,16.3750889 L78.553012,14.5429778 C78.553012,10.8078667 78.553012,7.07397778 78.554253,3.33886667 C78.554253,2.99053333 78.5244699,2.63731111 78.5728675,2.29508889 C78.6622169,1.66197778 79.2169277,1.21464444 79.8225181,1.2342 C80.3660602,1.25375556 80.8736145,1.67297778 80.9728916,2.23397778 C81.0237711,2.52486667 81.0026747,2.8292 81.0039157,3.12742222 C81.0051566,8.60664444 81.0014337,14.0834222 81.0101205,19.5602 C81.0113614,20.3228667 81.0734096,21.1246444 80.1823976,21.4546444 C79.2603614,21.7980889 78.7652169,21.0733111 78.3246747,20.5000889 C76.8702651,18.6068667 75.4779036,16.6672 74.0532771,14.7507556 C72.066494,12.0802 70.073506,9.41697778 67.9328434,6.54842222" id="Fill-1" fill="#404041"></path>
            <path d="M51.2851892,6.31448889 C50.6882855,7.73348889 50.1608759,8.79682222 49.7910687,9.91026667 C49.4150566,11.0457111 48.5414181,12.0344889 48.6034663,13.4400444 C50.2564301,13.4400444 51.8138398,13.4437111 53.3712494,13.4339333 C53.5586349,13.4327111 53.7460205,13.3544889 54.0302012,13.2909333 C53.3873819,10.9369333 52.2047434,8.86648889 51.2851892,6.31448889 M58.9146349,20.8846 C57.3051048,21.1938222 57.1015867,20.6902667 56.7069602,19.5462667 C56.3532855,18.5196 55.8755145,17.5344889 55.5007434,16.5139333 C55.3108759,15.9957111 54.9671289,15.8551556 54.4632976,15.8576 C52.3424904,15.8649333 50.2216831,15.8661556 48.1008759,15.8551556 C47.5275506,15.8514889 47.1875265,16.0299333 46.9926952,16.6202667 C46.6340566,17.6970444 46.1749,18.7408222 45.7517313,19.7968222 C45.6772735,19.9826 45.5941289,20.1634889 45.4948518,20.3370444 C45.1597916,20.9163778 44.390394,21.2280444 43.8567795,21.0080444 C43.2685627,20.7672667 42.8999964,20.0473778 43.1134422,19.3996 C43.3765265,18.6027111 43.6942133,17.8204889 44.0181048,17.0443778 C45.5196711,13.4339333 47.0373699,9.83082222 48.542659,6.2216 C49.0564181,4.9896 49.5776229,3.75882222 50.0380205,2.50726667 C50.2539482,1.91815556 50.6535386,1.78982222 51.2020446,1.78615556 C51.7890205,1.78248889 52.2332855,1.86926667 52.4963699,2.53415556 C53.7882133,5.79993333 55.1272133,9.04737778 56.4686952,12.2948222 C57.300141,14.3066 58.1874301,16.2963778 59.0052253,18.3142667 C59.3291169,19.1172667 59.8528036,19.9667111 58.9146349,20.8846" id="Fill-3" fill="#404041"></path>
            <path d="M19.3183325,11.3226667 C19.0155373,7.33577778 22.0980916,3.38433333 25.6596578,2.06188889 C26.7268867,1.66588889 27.8747783,1.45077778 29.0040554,1.26133333 C29.8590795,1.11711111 30.5763566,1.705 30.6346819,2.42855556 C30.7078988,3.34644444 30.2388145,3.83655556 29.1765494,3.89766667 C26.1548024,4.06877778 23.9247904,5.47433333 22.5808265,8.13144444 C20.4078988,12.4263333 23.0176458,17.5364444 27.4913205,18.5875556 C30.6557783,19.3306667 33.2804169,18.4836667 35.3515855,16.1003333 C36.3344289,14.9673333 36.9573928,13.596 37.0144771,12.0352222 C37.0293687,11.605 37.1274048,11.1405556 37.3247181,10.7616667 C37.7578145,9.92811111 38.9677542,9.90488889 39.3909229,10.7311111 C39.6056096,11.1478889 39.7445976,11.6942222 39.6763446,12.1476667 C39.2581398,14.9868889 38.1127301,17.4814444 35.7561398,19.2781111 C35.0115614,19.8476667 34.1466096,20.3084444 33.2717301,20.6616667 C29.7920675,22.0647778 26.5320554,21.6357778 23.4668747,19.4675556 C21.4068747,18.0106667 20.1224771,16.0734444 19.5330193,13.6876667 C19.3443928,12.9274444 19.3841036,12.1122222 19.3183325,11.3226667" id="Fill-5" fill="#404041"></path>
            <path d="M94.6014048,9.40108889 C95.9118627,7.61786667 96.9555133,6.17564444 98.0215012,4.75053333 C98.7946217,3.71775556 99.5875976,2.6972 100.391742,1.68642222 C100.739212,1.25008889 101.179754,1.10097778 101.724537,1.40042222 C102.230851,1.68031111 102.621754,2.24375556 102.493935,2.71675556 C102.405827,3.04431111 102.232092,3.36453333 102.033537,3.6432 C101.256694,4.73708889 100.455031,5.8102 99.6620554,6.89308889 C98.6357783,8.2962 97.6454892,9.72742222 96.5695735,11.0914222 C96.0334771,11.7685333 95.8746337,12.4737556 95.8870434,13.2975333 C95.9180675,15.3863111 95.898212,17.4763111 95.8944892,19.5650889 C95.8944892,19.9134222 95.9168265,20.2690889 95.8498145,20.6064222 C95.7579831,21.0745333 95.1834169,21.5182 94.7751398,21.5108667 C94.216706,21.5010889 93.5378988,20.9877556 93.4671639,20.4780889 C93.4200072,20.1358667 93.4373807,19.7826444 93.4373807,19.4355333 C93.4348988,17.2966444 93.4200072,15.1577556 93.4448265,13.0200889 C93.4535133,12.2977556 93.2934289,11.7294222 92.7958024,11.1317556 C90.9827542,8.95497778 89.2627783,6.70364444 87.5092964,4.47797778 C87.2648265,4.16631111 87.0191157,3.85097778 86.801947,3.51975556 C86.3179711,2.78397778 86.353959,2.28653333 86.8975012,1.81353333 C87.4398024,1.34297778 88.2265735,1.38575556 88.7850072,1.98464444 C89.2590554,2.49308889 89.6673325,3.06142222 90.097947,3.60775556 C91.2992,5.12942222 92.4979711,6.65231111 93.6930193,8.17764444 C93.9399711,8.49175556 94.1695494,8.81686667 94.6014048,9.40108889" id="Fill-7" fill="#404041"></path>
            <g id="Group-11" transform="translate(0.000000, 0.778556)">
                <mask id="mask-2" fill="white">
                    <use xlink:href="#path-1"></use>
                </mask>
                <g id="Clip-10"></g>
                <path d="M13.6419157,8.5008 C13.6419157,10.5406889 13.6530843,12.5818 13.6381928,14.6216889 C13.6195783,17.3350222 11.1810843,20.8232444 7.37380723,20.7780222 C5.76924096,20.7572444 4.28380723,20.4614667 2.86290361,19.7916889 C0.927,18.8774667 0.214686747,17.1859111 0.00620481928,15.2193556 C-0.0248192771,14.9431333 0.0732168675,14.6253556 0.198554217,14.3674667 C0.645301205,13.4520222 1.65916867,13.3603556 2.23993976,14.1865778 C2.43725301,14.4652444 2.6506988,14.8172444 2.64325301,15.1313556 C2.62215663,16.0651333 3.03663855,16.8534667 3.73157831,17.2983556 C4.41286747,17.7359111 5.30512048,17.8960222 6.12912048,18.0536889 C6.71237349,18.1673556 7.33781928,18.0952444 7.94340964,18.0720222 C9.10122892,18.0292444 10.0058916,17.4511333 10.4588434,16.4623556 C10.882012,15.5334667 11.2294819,14.5508 11.2170723,13.4666889 C11.1761205,9.68513333 11.2034217,5.90235556 11.1959759,2.1208 C11.1947349,1.50113333 11.2059036,0.952355556 11.9343494,0.6578 C12.7608313,0.324133333 13.4756265,0.622355556 13.6233012,1.48646667 C13.6803855,1.82502222 13.6481205,2.18068889 13.6493614,2.52902222 C13.6506024,4.5188 13.6493614,6.5098 13.6493614,8.5008 L13.6419157,8.5008 Z" id="Fill-9" fill="#404041" mask="url(#mask-2)"></path>
            </g>
            <path d="M32.6223337,12.4471111 C31.4024663,11.1882222 30.2533337,10.0674444 29.181141,8.87944444 C28.0704783,7.64988889 28.7033699,5.96322222 30.070912,5.51955556 C30.6690566,5.32522222 31.2572735,5.29466667 31.7697916,5.76522222 C31.9869602,5.96444444 32.2314301,6.13677778 32.5305024,6.37511111 C32.9747675,6.116 33.3818036,5.84588889 33.8186229,5.63322222 C34.7679602,5.16877778 35.7309482,5.41811111 36.3638398,6.259 C36.8813217,6.94466667 36.8428518,8.05322222 36.2149241,8.72544444 C35.1055024,9.91222222 33.9600928,11.0647778 32.6223337,12.4471111" id="Fill-12" fill="#404041"></path>
        </g>
    </g>
</svg>