<?xml version="1.0" encoding="UTF-8"?>
<svg width="212px" height="212px" viewBox="0 0 212 212" version="1.1" xmlns="http://www.w3.org/2000/svg" xmlns:xlink="http://www.w3.org/1999/xlink">
    <!-- Generator: Sketch 51.2 (57519) - http://www.bohemiancoding.com/sketch -->
    <title>Logos</title>
    <desc>Created with Sketch.</desc>
    <defs>
        <polygon id="path-1" points="0.790851064 0.318 6.24495198 0.318 6.24495198 14.9545433 0.790851064 14.9545433"></polygon>
    </defs>
    <g id="Logos" stroke="none" stroke-width="1" fill="none" fill-rule="evenodd">
        <g id="jukin" transform="translate(71.000000, 73.000000)">
            <path d="M34.7255106,23.18535 C34.4484894,24.24435 34.4544468,28.29435 34.7493404,29.36535 C35.1350851,29.34135 35.5476383,29.31885 35.933383,29.29635 C36.1508298,27.61035 36.0927447,24.09135 35.8291277,23.18535 L34.7255106,23.18535 Z M41.5021064,28.16535 L42.7844468,28.16535 C42.9661489,28.55985 43.1314681,28.91685 43.2878511,29.25735 C43.7748723,29.39235 44.193383,29.50335 44.6461489,29.02935 C44.0772128,27.10035 43.4978511,25.13835 42.917,23.17035 L41.5363617,23.17035 C40.800617,25.14585 40.2078511,27.12585 39.7521064,29.27835 L41.0031702,29.27835 C41.1878511,28.86435 41.3338085,28.53585 41.5021064,28.16535 Z M21.9944468,23.18385 L18.3395532,23.18385 C17.9850851,24.28485 17.9955106,28.27635 18.3678511,29.34135 C19.5131702,29.38485 20.694234,29.44485 21.9691277,29.28585 C21.9363617,28.87635 21.9140213,28.58085 21.884234,28.19535 C21.1038085,28.13085 20.4023191,28.07385 19.6844468,28.01535 L19.6844468,26.76135 C20.3814681,26.71485 21.0055106,26.67285 21.723383,26.62485 C21.6891277,26.21535 21.6638085,25.92435 21.6399787,25.61985 C20.9131702,25.57485 20.2846596,25.53585 19.5995532,25.49385 C19.6308298,25.09935 19.6576383,24.79335 19.6844468,24.46335 C20.3874255,24.42585 21.023383,24.39285 21.7710426,24.35235 C21.8425319,23.98335 21.9035957,23.65935 21.9944468,23.18385 Z M30.494234,24.31185 C30.1591277,23.56485 29.6765745,23.22135 29.1016809,23.18235 C28.1067872,23.11485 27.1059362,23.16285 26.0201915,23.16285 C25.6404043,24.91485 25.9084894,26.61735 25.8459362,28.30035 C25.8340213,28.63485 25.9799787,28.97385 26.0618936,29.34885 C27.1044468,29.34885 28.0323191,29.41035 28.9482766,29.33385 C29.9729574,29.24835 30.4704043,28.66935 30.4882766,27.66285 C30.5121064,26.48685 30.494234,25.31085 30.494234,24.31185 Z M13.8729574,29.30685 C14.1067872,27.72735 14.0531702,24.09135 13.7910426,23.18985 L12.6501915,23.18985 C12.1616809,24.32235 11.6984894,25.39635 11.1921064,26.56785 C10.6589149,25.36485 10.1718936,24.26985 9.65657447,23.11035 C9.22168085,23.14635 8.8463617,23.17635 8.35785106,23.21685 C8.34593617,25.30185 8.31168085,27.26985 8.38317021,29.29035 L9.78168085,29.29035 L9.78168085,26.88435 C10.3044468,27.56085 10.2761489,28.43385 11.0982766,28.53735 C11.9814681,28.54035 12.0038085,27.69885 12.4267872,27.19935 C12.5057234,27.94185 12.5757234,28.60785 12.6516809,29.30685 L13.8729574,29.30685 Z M0.00104255319,65.68185 L0.00104255319,17.08485 C1.76444681,15.92085 3.60529787,14.70735 5.57423404,13.40835 C5.63082979,13.81185 5.70976596,14.10585 5.7082766,14.40135 C5.68593617,17.26635 7.26912766,18.84735 9.95444681,19.26135 C11.2680638,19.46385 12.6055106,19.43535 13.9191277,19.09485 C16.0414681,18.54585 16.984234,16.90485 16.9157234,15.21285 C16.774234,11.72235 16.6952979,8.23035 16.580617,4.74135 C16.5701915,4.37985 16.494234,4.01985 16.4287021,3.50235 C17.2761489,2.93835 18.1682766,2.34585 19.2167872,1.65135 C19.3046596,2.36535 19.4163617,2.91135 19.4312553,3.46335 C19.483383,5.12835 19.467,6.79485 19.5325319,8.46135 C19.6218936,10.72935 19.7484894,12.99735 19.887,15.26385 C19.9987021,17.12385 21.1321064,18.20535 22.7540213,18.82035 C24.4950851,19.48035 26.3121064,19.47435 28.1231702,19.21635 C28.7144468,19.13385 29.3131702,18.96735 29.8567872,18.72285 C31.6529574,17.92035 32.4318936,16.51935 32.3335957,14.54235 C32.1712553,11.29935 32.0431702,8.05635 31.9061489,4.81335 C31.889766,4.40835 31.9031702,4.00485 31.9031702,3.51285 C32.7848723,2.92935 33.6814681,2.33985 34.7374255,1.64235 C34.8252979,2.82885 34.9310426,3.82635 34.9682766,4.82685 C35.0844468,7.95135 35.1678511,11.07735 35.2780638,14.20185 C35.3212553,15.45735 35.389766,16.71435 35.4701915,17.96835 C35.4925319,18.31485 35.5938085,18.65535 35.6831702,19.12335 L37.0831702,19.12335 L38.9955106,19.12335 C39.0580638,18.57435 39.1563617,18.14835 39.1444468,17.72685 C39.0952979,16.06335 39.0089149,14.40285 38.9404043,12.73935 C38.9284894,12.46485 38.9389149,12.18885 38.9389149,11.62935 C40.9004043,14.26485 42.7010426,16.68735 44.489766,19.08885 C45.8480638,19.10685 47.0738085,19.22235 48.2638085,19.02135 C48.4648723,18.30435 48.0016809,17.98635 47.7321064,17.62335 C46.1667872,15.50685 44.5687021,13.41135 42.9855106,11.30835 C42.7174255,10.95285 42.4552979,10.59135 42.1350851,10.15485 C42.6712553,9.28335 43.213383,8.39685 43.7629574,7.51335 C44.2991277,6.65235 44.8635957,5.80935 45.3699787,4.93335 C45.8495532,4.10535 46.454234,3.43785 47.2882766,2.95935 C47.9838085,2.55735 48.6376383,2.08035 49.4404043,1.55085 C49.4776383,2.85885 49.4955106,4.04685 49.5476383,5.23485 C49.669766,8.02935 49.8231702,10.82385 49.9363617,13.61985 C49.9959362,15.04035 49.9855106,16.46535 50.0361489,17.88585 C50.0510426,18.26535 50.1761489,18.64035 50.2595532,19.05735 L53.5465745,19.05735 C53.6121064,18.73935 53.7208298,18.47085 53.7118936,18.20685 C53.6701915,16.78785 53.5987021,15.37035 53.5361489,13.95135 C53.5346596,13.90935 53.5301915,13.87035 53.5301915,13.82985 C53.4229574,10.46085 53.3157234,7.09185 53.2055106,3.60885 C54.1780638,2.96085 55.1729574,2.29485 56.233383,1.58685 C56.5387021,7.40985 56.6652979,13.15635 56.9572128,18.96735 C58.074234,19.22685 59.0631702,19.12185 60.174234,19.06335 C60.2591277,18.77535 60.4229574,18.48135 60.4155106,18.19185 C60.3752979,16.60935 60.2978511,15.02985 60.223383,13.44885 C60.1593404,12.04935 60.0818936,10.65285 59.997,8.99985 C62.1312553,12.50385 64.1299787,15.78435 66.1421064,19.08585 L68.5280638,19.08585 C45.5725319,34.69485 22.8418936,50.15085 0.00104255319,65.68185 Z" id="Fill-1" fill="#404041"></path>
            <path d="M9.22451064,12.83325 C8.49621277,12.75375 7.9466383,12.69375 7.32259574,12.62475 C7.28834043,12.37275 7.22876596,12.10575 7.21834043,11.83575 C7.14387234,9.73275 7.07685106,7.62825 7.00238298,5.36025 C8.81344681,4.15875 10.6840851,2.91975 12.6425957,1.62075 C12.7274894,2.68575 12.8362128,3.67275 12.8734468,4.66125 C12.9911064,7.77975 13.0968511,10.89825 13.1757872,14.01675 C13.2249362,15.87225 12.6798298,16.34775 10.8806809,16.11375 C9.91259574,15.98775 9.48365957,15.53175 9.3853617,14.52225 C9.33621277,14.00925 9.28855319,13.49625 9.22451064,12.83325" id="Fill-3" fill="#404041"></path>
            <g id="Group-7" transform="translate(22.340426, 1.182450)">
                <mask id="mask-2" fill="white">
                    <use xlink:href="#path-1"></use>
                </mask>
                <g id="Clip-6"></g>
                <path d="M5.85021277,0.31725 C5.85021277,1.12425 5.83382979,1.73175 5.85319149,2.33775 C5.95,5.61675 6.05723404,8.89575 6.16297872,12.17475 C6.17191489,12.41625 6.20170213,12.65775 6.22702128,12.89925 C6.3506383,14.06175 5.83531915,14.74575 4.67361702,14.90175 C4.23723404,14.96025 3.78893617,14.96325 3.34808511,14.94375 C1.75446809,14.87625 1.17361702,14.29425 1.12595745,12.71175 C1.08425532,11.29125 1.09021277,9.87225 1.03659574,8.45475 C0.977021277,6.87825 0.875744681,5.30475 0.790851064,3.68025 C2.43510638,2.58825 4.03914894,1.52025 5.85021277,0.31725" id="Fill-5" fill="#404041" mask="url(#mask-2)"></path>
            </g>
            <path d="M65.6166596,11.63205 C64.1019787,9.12855 62.661766,6.74505 61.1604894,4.26705 C62.5068723,3.37455 63.8085745,2.51205 65.2115532,1.58205 C65.3470851,4.96755 65.4811277,8.25705 65.6166596,11.63205" id="Fill-8" fill="#404041"></path>
            <path d="M38.789234,9.07155 L38.789234,4.84905 C40.0581702,4.01955 41.4254043,3.12555 42.865617,2.18355 C42.6213617,3.15855 40.3322128,7.00755 38.789234,9.07155" id="Fill-10" fill="#404041"></path>
            <path d="M27.4139362,24.489 L28.858617,24.489 C29.0790426,25.668 28.9747872,26.778 28.9345745,28.0035 C28.3879787,28.0305 27.9337234,28.0545 27.4139362,28.0815 L27.4139362,24.489 Z" id="Fill-12" fill="#404041"></path>
            <path d="M41.8042979,26.84745 C41.9338723,26.22345 42.0277021,25.76745 42.1572766,25.14345 C42.2838723,25.76445 42.3777021,26.21895 42.4819574,26.73345 C42.2838723,26.76645 42.1408936,26.79045 41.8042979,26.84745" id="Fill-14" fill="#404041"></path>
        </g>
    </g>
</svg>