<?xml version="1.0" encoding="UTF-8"?>
<svg width="212px" height="212px" viewBox="0 0 212 212" version="1.1" xmlns="http://www.w3.org/2000/svg" xmlns:xlink="http://www.w3.org/1999/xlink">
    <!-- Generator: Sketch 51.2 (57519) - http://www.bohemiancoding.com/sketch -->
    <title>Logos</title>
    <desc>Created with Sketch.</desc>
    <defs>
        <polygon id="path-1" points="0 0.653075908 27.1826065 0.653075908 27.1826065 27.55 0 27.55"></polygon>
    </defs>
    <g id="Logos" stroke="none" stroke-width="1" fill="none" fill-rule="evenodd">
        <g id="phunware" transform="translate(34.000000, 92.000000)">
            <g id="Group">
                <g id="Group-3" transform="translate(0.000000, 0.796920)">
                    <mask id="mask-2" fill="white">
                        <use xlink:href="#path-1"></use>
                    </mask>
                    <g id="Clip-2"></g>
                    <path d="M13.43512,26.15713 C20.17182,26.20063 25.73692,20.78343 25.77027,14.14678 C25.80072,7.65078 20.26462,2.14223 13.64102,2.07988 C7.06092,2.01898 1.48277,7.47533 1.42912,14.02643 C1.37547,20.60073 6.83037,26.11363 13.43512,26.15713 M13.57722,27.55058 C6.07492,27.54623 -0.02088,21.52148 -0.00058,14.12648 C0.02117,6.74163 6.15612,0.65743 13.58737,0.65308 C20.98672,0.64728 27.19997,6.80833 27.18257,14.13373 C27.16807,21.55048 21.07952,27.55348 13.57722,27.55058" id="Fill-1" fill="#404041" mask="url(#mask-2)"></path>
                </g>
                <path d="M124.01183,14.555535 C125.29653,14.555535 126.45653,14.572935 127.61363,14.551185 C128.63443,14.532335 129.30578,14.066885 129.30868,12.970685 C129.31158,11.964385 128.66053,11.469935 127.75138,11.414835 C126.54208,11.342335 125.32408,11.397435 124.01183,11.397435 L124.01183,14.555535 Z M123.90888,16.188235 C123.90888,17.029235 123.97993,17.907935 123.87408,18.764885 C123.82913,19.121585 123.40863,19.431885 123.15778,19.763935 C122.93303,19.471035 122.51688,19.179585 122.51108,18.880885 C122.46178,16.227385 122.44003,13.570985 122.53718,10.920385 C122.54878,10.594135 123.27958,10.066335 123.71458,10.025735 C125.00073,9.906835 126.30718,9.941635 127.60348,9.993835 C129.27388,10.059085 130.41068,10.945035 130.74563,12.338485 C131.08203,13.737735 130.59773,14.701985 129.06798,15.673485 C128.92443,15.766285 128.78523,15.866335 128.46478,16.083835 C129.21733,16.866835 129.97278,17.575885 130.62383,18.371935 C130.86598,18.669185 130.86018,19.169435 130.96748,19.576885 C130.51363,19.479735 129.95248,19.518885 129.63058,19.259335 C128.90268,18.669185 128.21538,17.990585 127.65278,17.243835 C126.70303,15.982335 125.53143,15.718435 123.90888,16.188235 Z" id="Fill-4" fill="#404041"></path>
                <path d="M79.056175,12.90152 C79.056175,14.58932 79.060525,16.27712 79.053275,17.96492 C79.051825,18.37527 79.077925,18.80592 78.964825,19.19017 C78.898125,19.41782 78.537075,19.75857 78.393525,19.72232 C78.112225,19.64837 77.835275,19.38447 77.659825,19.12782 C77.545275,18.96252 77.603275,18.67107 77.603275,18.43472 C77.600375,16.07412 77.581525,13.71497 77.620675,11.35582 C77.627925,10.92952 77.878775,10.50902 78.017975,10.08562 C78.473275,10.26832 79.035875,10.33647 79.365025,10.65112 C81.155775,12.36357 82.887075,14.13837 84.644475,15.88562 C85.008425,16.24667 85.398475,16.58162 86.084325,17.21382 C86.084325,15.24472 86.081425,13.62942 86.087225,12.01557 C86.088675,11.54287 86.033575,11.04697 86.166975,10.61342 C86.245275,10.36257 86.630975,10.11607 86.915175,10.05807 C87.064525,10.02907 87.424125,10.38142 87.469075,10.60327 C87.569125,11.11802 87.550275,11.65742 87.551725,12.18667 C87.558975,14.19347 87.592325,16.20027 87.529975,18.20417 C87.514025,18.72617 87.186325,19.23657 87.002175,19.75422 C86.561375,19.51207 86.033575,19.35547 85.689925,19.01617 C83.601925,16.94267 81.554525,14.82857 79.492625,12.72897 C79.347625,12.78697 79.202625,12.84352 79.056175,12.90152" id="Fill-6" fill="#404041"></path>
                <path d="M98.26302,15.63303 C97.02762,16.99168 96.02277,18.14153 94.96282,19.23773 C94.70472,19.50308 94.26392,19.59008 93.90867,19.75828 C93.72307,19.36388 93.38522,18.97238 93.37652,18.57363 C93.32722,16.09703 93.32722,13.61753 93.38087,11.13948 C93.38957,10.76393 93.76657,10.39418 93.97537,10.02153 C94.24507,10.39853 94.73372,10.76538 94.75112,11.15253 C94.83232,13.07233 94.78882,14.99793 94.78882,16.92208 C94.91062,16.98588 95.03242,17.04968 95.15567,17.11348 C95.86472,16.35513 96.58537,15.60838 97.27557,14.83553 C97.97592,14.05543 98.63422,14.01193 99.34472,14.82393 C100.02622,15.60258 100.74397,16.35078 101.44432,17.11203 C101.57337,17.03953 101.70242,16.96703 101.83292,16.89308 C101.83292,15.32708 101.83002,13.75963 101.83437,12.19218 C101.83437,11.72093 101.78217,11.23373 101.88802,10.78278 C101.95617,10.50003 102.27082,10.27383 102.47382,10.02298 C102.73917,10.28398 103.14952,10.50583 103.23362,10.81613 C103.36557,11.31348 103.28727,11.86738 103.28727,12.39953 C103.29017,14.40488 103.31337,16.41168 103.26842,18.41703 C103.25827,18.84623 102.99727,19.26963 102.85082,19.69448 C102.40132,19.50598 101.84307,19.42478 101.51682,19.10723 C100.46847,18.08353 99.50277,16.97283 98.26302,15.63303" id="Fill-8" fill="#404041"></path>
                <path d="M137.371985,11.378005 L137.371985,14.077905 C138.734985,14.077905 140.022585,14.012655 141.295685,14.112705 C141.765485,14.147505 142.207735,14.566555 142.660135,14.810155 C142.185985,15.040705 141.724885,15.432205 141.234785,15.471355 C140.012435,15.568505 138.779935,15.503255 137.419835,15.503255 L137.419835,18.388755 C139.255535,18.388755 141.011485,18.351055 142.763085,18.416305 C143.203885,18.432255 143.970935,18.733855 144.008635,18.989055 C144.136235,19.854705 143.364835,19.790905 142.789185,19.796705 C140.901285,19.811205 139.011935,19.780755 137.124035,19.809755 C136.117735,19.825705 135.782785,19.354455 135.797285,18.400355 C135.832085,16.039755 135.832085,13.679155 135.797285,11.318555 C135.782785,10.320955 136.213435,9.951205 137.182035,9.968605 C139.069935,10.003405 140.960735,9.939605 142.844285,10.012105 C143.261885,10.026605 143.662085,10.442755 144.068085,10.674755 C143.673685,10.909655 143.285085,11.330155 142.880535,11.347555 C141.120235,11.421505 139.355585,11.378005 137.371985,11.378005" id="Fill-10" fill="#404041"></path>
                <path d="M49.049295,15.436265 C49.049295,16.520865 49.123245,17.570665 49.013045,18.600165 C48.968095,19.013415 48.518595,19.383165 48.253245,19.771765 C48.002395,19.370115 47.547095,18.971365 47.535495,18.562465 C47.465895,16.151115 47.458645,13.735415 47.536945,11.324065 C47.552895,10.876015 48.047345,10.445365 48.319945,10.006015 C48.563545,10.477265 48.939095,10.926765 49.018845,11.422665 C49.139195,12.159265 49.050745,12.929215 49.050745,13.796315 L55.651145,13.796315 C55.651145,12.794365 55.578645,11.860565 55.687395,10.948515 C55.726545,10.613565 56.191995,10.327915 56.461695,10.019065 C56.661795,10.335165 57.027195,10.649815 57.032995,10.970265 C57.080845,13.559965 57.086645,16.151115 57.028645,18.739365 C57.021395,19.085915 56.586395,19.420865 56.350045,19.760165 C56.115145,19.413615 55.710595,19.083015 55.677245,18.719065 C55.587345,17.675065 55.645345,16.616565 55.645345,15.436265 L49.049295,15.436265 Z" id="Fill-12" fill="#404041"></path>
                <path d="M113.2218,15.35695 L115.7796,15.35695 L115.7796,12.52075 C114.7994,13.60825 114.0338,14.45795 113.2218,15.35695 M115.8492,16.88525 C114.4572,16.88525 113.216,16.791 112.00235,16.92585 C111.4296,16.98965 110.8525,17.42465 110.3682,17.8031 C109.6751,18.3483 109.0922,19.0327 108.39765,19.57355 C108.199,19.7287 107.6567,19.7171 107.4914,19.55615 C107.31885,19.38795 107.32755,18.92105 107.416,18.6354 C107.4943,18.3831 107.7843,18.1888 107.996,17.98435 C110.49725,15.5672 112.9869,13.13265 115.52585,10.75175 C115.89995,10.40085 116.50895,10.29935 117.00775,10.0804 C117.1571,10.5647 117.42245,11.04465 117.4326,11.53185 C117.48045,13.7721 117.46015,16.01525 117.45,18.25695 C117.4471,18.8906 117.5631,19.7432 116.65685,19.6968 C116.3857,19.68375 116.116,18.73835 115.92895,18.19025 C115.82165,17.8727 115.87965,17.50005 115.8492,16.88525" id="Fill-14" fill="#404041"></path>
                <path d="M62.30041,13.152225 C62.30041,12.385175 62.23081,11.609425 62.33231,10.855425 C62.37436,10.550925 62.78616,10.295725 63.02831,10.018775 C63.26176,10.301525 63.67936,10.574125 63.69676,10.868475 C63.77506,12.221325 63.68081,13.584325 63.75766,14.937175 C63.86206,16.813475 65.17286,18.204025 66.93026,18.430225 C68.57601,18.640475 70.35371,17.550075 70.75826,15.946375 C70.95691,15.160475 70.90906,14.309325 70.93806,13.485725 C70.96851,12.601225 70.89311,11.708025 70.99606,10.835125 C71.03086,10.534975 71.47021,10.282675 71.72396,10.008625 C71.95451,10.243525 72.39241,10.485675 72.38371,10.708975 C72.30541,12.756375 72.44606,14.874825 71.93856,16.822175 C71.36146,19.049375 68.91966,20.178925 66.54601,19.835275 C64.28546,19.511925 62.48166,17.592125 62.30331,15.275025 C62.24821,14.571775 62.29461,13.859825 62.29461,13.152225 L62.30041,13.152225 Z" id="Fill-16" fill="#404041"></path>
                <path d="M36.14096,14.865545 C37.39666,14.865545 38.56246,14.906145 39.72246,14.852495 C40.72586,14.806095 41.38126,14.275395 41.45086,13.212545 C41.51611,12.219295 40.85201,11.482695 39.70071,11.405845 C38.54506,11.330445 37.37926,11.389895 36.14096,11.389895 L36.14096,14.865545 Z M36.04091,16.280745 C36.04091,17.295745 36.11631,18.010595 36.00901,18.697895 C35.94956,19.076345 35.57836,19.406945 35.34926,19.759295 C35.09116,19.434495 34.61846,19.116945 34.60976,18.787795 C34.55031,16.198095 34.53726,13.605495 34.63296,11.018695 C34.64601,10.661995 35.32316,10.066045 35.73061,10.031245 C37.13421,9.910895 38.55811,9.910895 39.96461,10.010945 C41.72926,10.138545 42.92841,11.491395 42.91826,13.154545 C42.90811,14.827845 41.71621,16.127045 39.92546,16.261895 C38.70891,16.353245 37.48076,16.280745 36.04091,16.280745 Z" id="Fill-18" fill="#404041"></path>
            </g>
            <path d="M10.627195,12.67358 C12.206245,12.67358 13.733095,12.78958 15.223695,12.60833 C15.728295,12.54743 16.476495,11.75283 16.501145,11.26563 C16.522895,10.78133 15.818195,9.87943 15.354195,9.82433 C13.814295,9.64018 12.241045,9.75473 10.627195,9.75473 L10.627195,12.67358 Z M13.474995,18.11253 C12.345445,19.22178 11.194145,20.34988 9.736895,21.77813 C9.500545,20.90233 9.298995,20.49488 9.296095,20.08453 C9.269995,16.72198 9.306245,13.35943 9.267095,9.99543 C9.255495,8.96013 9.574495,8.46713 10.680845,8.51063 C12.154045,8.56863 13.631595,8.47728 15.104795,8.54543 C16.780995,8.62518 17.820645,9.69528 17.820645,11.20473 C17.820645,12.71418 16.778095,13.78718 15.107695,13.86258 C13.701195,13.92783 12.290345,13.87708 10.727245,13.87708 L10.727245,19.01443 C11.356545,18.39673 11.859695,17.89938 12.364295,17.40638 C13.543145,16.25508 13.646095,16.24493 14.764045,17.36288 C15.259945,17.85878 15.718145,18.39238 16.327145,19.05503 C17.008645,17.60358 16.012495,15.99408 17.127545,14.79348 C17.904745,15.78528 18.083095,18.71428 17.546595,21.31268 C15.692045,20.87478 15.042445,18.93903 13.474995,18.11253 Z" id="Fill-20" fill="#404041"></path>
            <text id="EXIT" opacity="0.200000003" font-family="AvenirNext-Medium, Avenir Next" font-size="14" font-weight="400" line-spacing="27.6" letter-spacing="0.1166667" fill="#0745AF">
                <tspan x="57" y="91">EXIT</tspan>
            </text>
        </g>
    </g>
</svg>