<?xml version="1.0" encoding="UTF-8"?>
<svg width="212px" height="212px" viewBox="0 0 212 212" version="1.1" xmlns="http://www.w3.org/2000/svg" xmlns:xlink="http://www.w3.org/1999/xlink">
    <!-- Generator: Sketch 51.2 (57519) - http://www.bohemiancoding.com/sketch -->
    <title>Logos-Hover</title>
    <desc>Created with Sketch.</desc>
    <defs>
        <polygon id="path-1" points="0 0.446740741 32.6639779 0.446740741 32.6639779 35.6290815 0 35.6290815"></polygon>
        <polygon id="path-3" points="47 124.553396 165.842256 124.553396 165.842256 89.3705074 47 89.3705074"></polygon>
    </defs>
    <g id="Logos-Hover" stroke="none" stroke-width="1" fill="none" fill-rule="evenodd">
        <g id="pixalate">
            <rect id="Rectangle-Copy-2" fill="#9F1D21" x="0" y="0" width="216" height="214"></rect>
            <g id="Group-3" transform="translate(47.000000, 88.923767)">
                <mask id="mask-2" fill="white">
                    <use xlink:href="#path-1"></use>
                </mask>
                <g id="Clip-2"></g>
                <path d="M3.54495465,35.6290815 C3.33878023,35.5701556 3.13122209,35.5126 2.92504767,35.4509333 C1.19401279,34.9384148 -0.000138372093,33.3570074 -0.000138372093,31.5686741 C-0.00152209302,21.3457111 -0.000138372093,11.1241185 -0.000138372093,0.902525926 L-0.000138372093,0.446192593 L32.6639779,0.446192593 L32.6639779,0.998451852 L32.6639779,31.2781556 C32.6639779,33.5050074 31.4670593,35.0220074 29.2904663,35.5564519 C29.2365012,35.5701556 29.1880709,35.6044148 29.1368733,35.6290815 L11.7863965,35.6290815 C11.7767105,35.5304148 11.7587221,35.4303778 11.7587221,35.3317111 C11.7559547,32.4827111 11.7559547,29.6337111 11.7587221,26.7860815 C11.7587221,26.6791926 11.7836291,26.5723037 11.8030012,26.4256741 C11.9815012,26.5092667 12.1226407,26.5723037 12.2610128,26.6408222 C17.0805128,29.0471926 22.7897453,27.9796741 26.37635,23.9973778 C28.5418733,21.5910074 29.4094663,18.7516 29.2392686,15.5654889 C29.078757,12.5684889 27.8901407,10.0374148 25.7176988,7.95719259 C23.2989547,5.63852593 20.3903733,4.6546 17.044536,4.75052593 C12.4824081,4.88071111 8.31740814,7.73656296 6.63895465,11.9422296 C6.02319884,13.486637 5.82947791,15.0940815 5.82809419,16.7344148 C5.82532674,22.8339333 5.82809419,28.9320815 5.82532674,35.0302296 C5.82532674,35.2303037 5.81010581,35.4290074 5.80041977,35.6290815 L3.54495465,35.6290815 Z" id="Fill-1" fill="#FFFFFF" mask="url(#mask-2)"></path>
            </g>
            <path d="M157.613129,105.576507 L162.530873,105.576507 C161.988455,104.630952 161.226024,104.174619 160.188234,104.147211 C159.072955,104.119804 158.216431,104.540507 157.613129,105.576507 Z M165.840734,107.627952 C165.674687,107.680026 165.508641,107.777322 165.342594,107.778693 C162.872652,107.788285 160.401327,107.785544 157.930001,107.785544 L157.37928,107.785544 C157.682315,108.676285 158.239955,109.260063 159.063269,109.547841 C160.265722,109.969915 161.336722,109.717767 162.263815,108.735211 C162.856048,109.516322 163.438594,110.28373 164.037745,111.071693 C163.174303,111.895285 162.175257,112.376285 161.018466,112.573619 C158.150013,113.064211 155.314769,111.325211 154.528815,108.580359 C153.662606,105.54773 155.305083,102.435619 158.262094,101.509248 C161.304897,100.556841 164.534501,102.114952 165.539083,105.026989 C165.656699,105.372322 165.741106,105.728619 165.840734,106.080804 L165.840734,107.627952 Z" id="Fill-4" fill="#FFFFFF"></path>
            <path d="M91.7863419,109.731744 C93.3444116,109.729004 94.5911442,108.501152 94.6008302,106.958115 C94.6105163,105.382189 93.3457953,104.142004 91.7365279,104.148856 C90.1867605,104.155707 88.9289581,105.389041 88.9068186,106.921115 C88.8846791,108.460041 90.1909116,109.734485 91.7863419,109.731744 M88.8985163,111.929819 L88.8985163,118.4103 L86.0134581,118.4103 C86.0037721,118.270522 85.9857837,118.122522 85.9857837,117.973152 C85.9830163,114.349893 85.9760977,110.728004 85.9871674,107.104744 C85.994086,104.248893 87.6711558,102.052189 90.3112953,101.402633 C93.446807,100.631115 96.6376674,102.492078 97.3668884,105.517856 C98.1224,108.656004 96.2668302,111.762633 93.1797488,112.479337 C91.865214,112.783559 90.5672837,112.684893 89.3274698,112.113448 C89.2112372,112.060004 89.0922372,112.012041 88.8985163,111.929819" id="Fill-6" fill="#FFFFFF"></path>
            <path d="M119.393235,104.148581 C117.811642,104.148581 116.567677,105.383285 116.566293,106.95373 C116.564909,108.487174 117.853153,109.760248 119.40984,109.761619 C120.978979,109.762989 122.239549,108.518693 122.247851,106.959211 C122.25477,105.354507 121.030177,104.148581 119.393235,104.148581 M127.505991,112.309137 C126.483421,112.309137 125.532805,112.315989 124.582188,112.296804 C124.485328,112.295433 124.345572,112.155656 124.301293,112.048767 C124.124177,111.626693 123.977502,111.193656 123.804537,110.715396 C123.573456,110.926433 123.375584,111.125137 123.162491,111.304656 C121.376107,112.787396 119.342037,113.064211 117.23463,112.243359 C115.138293,111.427989 113.919235,109.815063 113.685386,107.560804 C113.3782,104.600804 115.258677,102.039581 118.18663,101.379063 C121.012188,100.74047 123.814223,102.271174 124.834026,105.024248 C125.722374,107.422396 126.596886,109.827396 127.505991,112.309137" id="Fill-8" fill="#FFFFFF"></path>
            <path d="M138.753151,104.148581 C137.167407,104.1431 135.919291,105.3641 135.910988,106.929063 C135.902686,108.474841 137.172942,109.754767 138.722709,109.761619 C140.311221,109.76847 141.592547,108.5091 141.591163,106.938656 C141.591163,105.368211 140.3555,104.155433 138.753151,104.148581 M146.809174,112.309137 C145.81843,112.309137 144.883035,112.31873 143.944872,112.296804 C143.836942,112.295433 143.683349,112.150174 143.633535,112.035063 C143.453651,111.6171 143.309744,111.185433 143.134012,110.712656 C143.003942,110.830507 142.900163,110.918211 142.803302,111.014137 C141.068116,112.72847 138.349105,113.168359 136.158674,112.089878 C133.882453,110.971656 132.677233,108.614619 133.053605,106.016396 C133.38293,103.726507 135.284163,101.802507 137.657244,101.354396 C140.408081,100.835026 143.056523,102.21773 144.068023,104.795396 C145.013105,107.203137 145.864093,109.649248 146.753826,112.077544 C146.773198,112.128248 146.780116,112.184433 146.809174,112.309137" id="Fill-10" fill="#FFFFFF"></path>
            <path d="M113.879937,112.310507 C113.062158,112.310507 112.314949,112.314619 111.569123,112.309137 C111.08067,112.305026 110.502274,112.444804 110.125902,112.232396 C109.750914,112.02273 109.573798,111.460878 109.317809,111.047026 C108.934519,110.424878 108.55953,109.797248 108.180391,109.172359 C108.166553,109.149063 108.137495,109.13673 108.091833,109.09973 C107.500984,110.050767 106.900449,110.992211 106.326205,111.947359 C106.16846,112.21047 105.998263,112.324211 105.67724,112.31873 C104.568879,112.298174 103.456367,112.310507 102.249763,112.310507 C102.378449,112.114544 102.46424,111.978878 102.556949,111.848693 C103.749716,110.194656 104.936949,108.537878 106.139402,106.892063 C106.312367,106.65773 106.319286,106.502878 106.147705,106.261693 C105.101612,104.785804 104.076274,103.297581 103.044019,101.8121 C102.933321,101.651767 102.829542,101.485952 102.677333,101.25573 C103.625181,101.25573 104.507995,101.318767 105.375588,101.236544 C106.1311,101.165285 106.557286,101.429767 106.896298,102.080693 C107.269902,102.798767 107.752821,103.459285 108.223286,104.199285 C108.794763,103.323619 109.352402,102.510989 109.861612,101.668211 C110.060867,101.339322 110.283647,101.236544 110.658635,101.246137 C111.667367,101.272174 112.678867,101.25573 113.763705,101.25573 C113.655774,101.422915 113.586588,101.540767 113.507716,101.650396 C112.410426,103.178359 111.320053,104.709063 110.208926,106.226063 C110.017972,106.487804 110.002751,106.654989 110.193705,106.927693 C111.339426,108.561174 112.461623,110.20973 113.59074,111.854174 C113.677914,111.980248 113.754019,112.110433 113.879937,112.310507" id="Fill-12" fill="#FFFFFF"></path>
            <path d="M147.114977,95.4633111 L150.001419,95.4633111 L150.001419,101.242163 L152.8505,101.242163 L152.8505,103.701978 L150.009721,103.701978 L150.009721,104.330978 C150.009721,105.044941 150.008337,105.761644 150.009721,106.476978 C150.013872,108.11457 151.012919,109.220459 152.666465,109.420533 C152.723198,109.426015 152.778547,109.442459 152.851884,109.457533 L152.851884,112.36683 C152.234744,112.264052 151.634209,112.222941 151.066884,112.058496 C148.808651,111.40757 147.119128,109.249237 147.096988,106.919607 C147.065163,103.183978 147.088686,99.4469778 147.088686,95.7113481 C147.088686,95.6414593 147.103907,95.5702 147.114977,95.4633111" id="Fill-14" fill="#FFFFFF"></path>
            <mask id="mask-4" fill="white">
                <use xlink:href="#path-3"></use>
            </mask>
            <g id="Clip-17"></g>
            <polygon id="Fill-16" fill="#FFFFFF" mask="url(#mask-4)" points="128.616012 112.287211 131.46786 112.287211 131.46786 95.4631741 128.616012 95.4631741"></polygon>
            <polygon id="Fill-18" fill="#FFFFFF" mask="url(#mask-4)" points="98.6003372 112.285841 101.456337 112.285841 101.456337 101.274915 98.6003372 101.274915"></polygon>
            <path d="M101.744013,98.7822111 C101.749548,99.7949148 101.02171,100.537656 100.025431,100.539026 C99.0291523,100.539026 98.272257,99.7853222 98.2736407,98.7972852 C98.2750244,97.8366556 99.0222337,97.0952852 100.004676,97.0761 C100.958059,97.0569148 101.739862,97.8243222 101.744013,98.7822111" id="Fill-19" fill="#FFFFFF" mask="url(#mask-4)"></path>
            <path d="M68.27125,101.870889 C68.2491105,101.846222 68.2269709,101.822926 68.2048314,101.79963 C67.4839128,102.24363 66.7533081,102.676667 66.044843,103.139852 C65.6698547,103.383778 65.3170058,103.583852 64.854843,103.383778 C64.7441453,103.335815 64.5988547,103.349519 64.4715523,103.360481 C63.3784128,103.455037 62.6145988,104.363593 62.73775,105.418778 C62.8595174,106.472593 63.8156686,107.189296 64.8991221,107.038556 C65.9106221,106.896037 66.5900291,105.914852 66.4419709,104.856926 C66.4142965,104.660963 66.4668779,104.408815 66.5775756,104.24437 C67.1255291,103.441333 67.7039244,102.660222 68.27125,101.870889 M64.5601105,99.5207037 C67.829843,99.517963 70.3648198,102.028481 70.3551337,105.259815 C70.3454477,108.465111 67.7966337,110.97563 64.5628779,110.966037 C61.3111337,110.957815 58.75125,108.424 58.7554012,105.220074 C58.760936,102.033963 61.3180523,99.5248148 64.5601105,99.5207037" id="Fill-20" fill="#FFFFFF" mask="url(#mask-4)"></path>
        </g>
    </g>
</svg>