<?xml version="1.0" encoding="UTF-8"?>
<svg width="212px" height="212px" viewBox="0 0 212 212" version="1.1" xmlns="http://www.w3.org/2000/svg" xmlns:xlink="http://www.w3.org/1999/xlink">
    <!-- Generator: Sketch 51.2 (57519) - http://www.bohemiancoding.com/sketch -->
    <title>Logos</title>
    <desc>Created with Sketch.</desc>
    <defs>
        <polygon id="path-1" points="0 0.500793601 18.1448905 0.500793601 18.1448905 20.9488808 0 20.9488808"></polygon>
        <polygon id="path-3" points="1.09134762 1.42251427 17.8239667 1.42251427 17.8239667 22.1052632 1.09134762 22.1052632"></polygon>
        <polygon id="path-5" points="0 26.6954947 122.634524 26.6954947 122.634524 -0.000294736842 0 -0.000294736842"></polygon>
    </defs>
    <g id="Logos" stroke="none" stroke-width="1" fill="none" fill-rule="evenodd">
        <g id="relativity" transform="translate(44.000000, 92.000000)">
            <g id="Group-3" transform="translate(0.000000, 0.169179)">
                <mask id="mask-2" fill="white">
                    <use xlink:href="#path-1"></use>
                </mask>
                <g id="Clip-2"></g>
                <path d="M4.14174762,10.0517053 C5.86003333,10.0517053 7.50450952,10.0664421 9.1504619,10.0443368 C9.75422381,10.0369684 10.3727476,10.0148632 10.9558429,9.87928421 C12.290319,9.56981053 12.8557,8.67675789 12.8409381,7.06602105 C12.8247,5.53338947 12.228319,4.47970526 10.9189381,4.38981053 C8.68398571,4.23802105 6.42984286,4.34854737 4.14174762,4.34854737 L4.14174762,10.0517053 Z M18.1448905,20.9437053 C16.397081,20.9437053 14.8721762,20.9658105 13.3472714,20.9186526 C13.1037,20.9098105 12.8114143,20.6253895 12.6401762,20.3954947 C11.1359381,18.3794947 9.67303333,16.3340211 8.14517619,14.3371789 C7.9119381,14.0336 7.41741429,13.8051789 7.02327143,13.7698105 C6.0814619,13.6887579 5.12931905,13.7447579 4.0974619,13.7447579 L4.0974619,20.8877053 L-0.000442857143,20.8877053 L-0.000442857143,0.637810526 C0.0364619048,0.611284211 0.080747619,0.546442105 0.125033333,0.546442105 C3.68117619,0.549389474 7.24765238,0.412336842 10.7964143,0.599494737 C15.7357476,0.860336842 17.4938905,3.83423158 16.893081,8.69296842 C16.614081,10.9521263 15.3652238,12.5127579 13.1612714,13.2496 C13.0520333,13.2849684 12.9501762,13.3365474 12.8453667,13.3881263 C12.8247,13.3984421 12.8143667,13.4293895 12.7361286,13.5399158 C13.5952714,14.7159158 14.4780333,15.9213895 15.3607952,17.1283368 C16.2435571,18.3367579 17.1277952,19.5466526 18.1448905,20.9437053 Z" id="Fill-1" fill="#404041" mask="url(#mask-2)"></path>
            </g>
            <path d="M21.6989667,11.6183789 L28.9219667,11.6183789 C28.2945857,9.81901053 27.1121571,8.97753684 25.3023476,8.97901053 C23.4984429,8.97901053 22.305681,9.83374737 21.6989667,11.6183789 Z M21.5321571,15.0166947 C21.7978714,16.4255368 22.4577286,17.4188 23.7449667,17.7739579 C25.7127286,18.3177474 27.5432048,18.1143789 28.9529667,16.2958526 C29.9449667,16.8057474 30.9340143,17.3126947 31.9289667,17.8240632 C30.0778238,21.0396421 25.4794905,22.3055368 21.809681,20.6815368 C18.2963476,19.1282737 16.6666333,14.6998526 18.0601571,10.4998526 C19.298681,6.77585263 23.0245857,4.89101053 27.2642048,5.84301053 C31.1746333,6.7228 33.4833952,10.4129053 32.9268714,15.0166947 L21.5321571,15.0166947 Z" id="Fill-4" fill="#404041"></path>
            <g id="Group-8" transform="translate(104.809524, 4.590232)">
                <mask id="mask-4" fill="white">
                    <use xlink:href="#path-3"></use>
                </mask>
                <g id="Clip-7"></g>
                <path d="M1.09134762,1.44273684 C2.39777619,1.44273684 3.60825238,1.40884211 4.81282381,1.47221053 C5.04015714,1.484 5.34572857,1.84505263 5.44315714,2.11031579 C6.62558571,5.27431579 7.7740619,8.44863158 8.93287143,11.62 C9.04210952,11.9132632 9.16168095,12.2035789 9.33734762,12.6545263 C9.52925238,12.1888421 9.66210952,11.8823158 9.78168095,11.5728421 C10.9788714,8.44568421 12.1937762,5.32589474 13.3599667,2.18694737 C13.5784429,1.59747368 13.8663,1.39705263 14.4833476,1.42505263 C15.5491571,1.47515789 16.6193952,1.43978947 17.8239667,1.43978947 C17.7014429,1.78610526 17.6158238,2.04547368 17.516919,2.30042105 C15.4842048,7.48778947 13.4573952,12.6751579 11.4128714,17.8581053 C11.1589667,18.4991579 10.8593,19.1298947 10.5138714,19.7267368 C9.58239524,21.3286316 8.22725238,22.2025263 6.30672857,22.0978947 C5.44463333,22.0492632 4.57810952,22.0890526 3.64958571,22.0890526 L3.64958571,18.7555789 C4.2415381,18.7555789 4.80987143,18.7658947 5.37820476,18.7526316 C6.54587143,18.7261053 7.18210952,17.9450526 6.94591905,16.8014737 C6.86472857,16.408 6.71120476,16.0277895 6.5650619,15.6534737 C4.84677619,11.2117895 3.12258571,6.77157895 1.40282381,2.33136842 C1.30096667,2.06905263 1.21534762,1.80084211 1.09134762,1.44273684" id="Fill-6" fill="#404041" mask="url(#mask-4)"></path>
            </g>
            <path d="M49.7508667,14.1569474 C49.0393429,14.3102105 48.4562476,14.4678947 47.8657714,14.5563158 C47.2369143,14.6506316 46.5962476,14.6609474 45.9673905,14.7478947 C45.6588667,14.7921053 45.3459143,14.8923158 45.0624857,15.0293684 C43.9272952,15.5790526 43.6984857,17.1234737 44.6757238,17.9118947 C45.7149619,18.7533684 46.8988667,18.5897895 48.0532476,18.1712632 C49.0629619,17.8057895 49.6682,17.0689474 49.7434857,15.974 C49.7818667,15.4036842 49.7508667,14.8274737 49.7508667,14.1569474 M49.5412476,20.0929474 C47.6694381,21.5666316 44.4011524,21.8348421 42.1470095,20.5998947 C40.5955333,19.7495789 40.0641048,18.354 40.0877238,16.6798947 C40.1142952,14.8451579 40.7151048,13.2078947 42.4983429,12.5226316 C43.8697238,11.9935789 45.4079143,11.8933684 46.8767238,11.6398947 C47.4716286,11.5382105 48.1152476,11.634 48.6762,11.4571579 C49.0836286,11.3289474 49.7139619,10.85 49.6770571,10.6083158 C49.6062,10.1175789 49.2607714,9.47652632 48.8400571,9.25989474 C47.7343905,8.68515789 46.5253905,8.82073684 45.3946286,9.29526316 C44.7879143,9.55021053 44.2328667,9.926 43.5803905,10.2855789 C42.8186762,9.66957895 42.0126762,9.02263158 41.0472476,8.24305263 C41.7071048,7.71252632 42.2444381,7.14663158 42.8939619,6.77526316 C45.2101048,5.45778947 47.6782952,5.27210526 50.1848667,6.10915789 C52.3563429,6.83421053 53.5136762,8.51715789 53.5372952,10.8573684 C53.5653429,13.4289474 53.5328667,16.0005263 53.5535333,18.5706316 C53.5609143,19.3973684 53.6568667,20.2211579 53.7173905,21.1112632 C52.8036286,21.1112632 51.783581,21.2041053 50.7930571,21.0670526 C50.3664381,21.0081053 50.0062476,20.4731579 49.5412476,20.0929474" id="Fill-9" fill="#404041"></path>
            <path d="M54.6364667,5.76107368 L57.2906571,5.76107368 C57.2906571,4.84738947 57.3378952,3.98970526 57.274419,3.14086316 C57.2242286,2.47623158 57.4766571,2.16086316 58.0774667,1.93096842 C59.0975143,1.54338947 60.0850857,1.07181053 61.2276571,0.573705263 L61.2276571,5.74044211 L64.8782762,5.74044211 L64.8782762,9.0636 L61.2616095,9.0636 L61.2616095,13.3977053 C61.2616095,14.2922316 61.2483238,15.1867579 61.2675143,16.0812842 C61.2940857,17.3398105 61.8196095,17.8703368 63.086181,17.8688632 C63.6589429,17.8688632 64.2317048,17.7671789 64.8649905,17.7067579 L64.8649905,20.9827579 C63.1850857,21.1581263 61.5096095,21.4646526 59.8193714,21.0225474 C58.6856571,20.7248632 57.9298476,19.9747579 57.6656095,18.8621263 C57.4471333,17.9440211 57.3305143,16.9831789 57.3113238,16.0400211 C57.2611333,13.7661263 57.2950857,11.4907579 57.2950857,9.09012632 L54.6364667,9.09012632 L54.6364667,5.76107368 Z" id="Fill-11" fill="#404041"></path>
            <path d="M97.1057286,6.04888421 C97.1057286,5.03351579 97.1323,4.16698947 97.0968714,3.30341053 C97.0762048,2.80530526 97.2134905,2.51351579 97.7065381,2.31604211 C98.8003952,1.88277895 99.8691571,1.3832 101.061919,0.860042105 L101.061919,6.02677895 L104.67711,6.02677895 L104.67711,9.34551579 L101.072252,9.34551579 L101.072252,13.9448842 C101.072252,14.7259368 101.063395,15.5055158 101.073729,16.2850947 C101.095871,17.6733053 101.664205,18.2215158 103.069538,18.1758316 C103.584729,18.1610947 104.096967,18.0653053 104.671205,17.9989895 L104.671205,21.4253053 C103.102014,21.4253053 101.547586,21.5299368 100.013824,21.3928842 C98.6513,21.2720421 97.7419667,20.3701474 97.4423,19.0320421 C97.2341571,18.1109895 97.1426333,17.1472 97.1204905,16.2010947 C97.0747286,14.2646737 97.1057286,12.3282526 97.1057286,10.3918316 L97.1057286,9.37351579 L94.4722048,9.37351579 L94.4722048,6.04888421 L97.1057286,6.04888421 Z" id="Fill-13" fill="#404041"></path>
            <mask id="mask-6" fill="white">
                <use xlink:href="#path-5"></use>
            </mask>
            <g id="Clip-16"></g>
            <polygon id="Fill-15" fill="#404041" mask="url(#mask-6)" points="34.7716667 21.0498105 38.6363333 21.0498105 38.6363333 0.726231579 34.7716667 0.726231579"></polygon>
            <path d="M70.8096095,21.0648421 L66.977419,21.0648421 L66.977419,5.75915789 C68.1805143,5.75915789 69.3806571,5.74442105 70.5808,5.78126316 C70.7048,5.78421053 70.9232762,6.08336842 70.9247524,6.244 C70.9336095,11.1189474 70.9218,15.9938947 70.9085143,20.8673684 C70.9085143,20.9174737 70.8598,20.9675789 70.8096095,21.0648421" id="Fill-17" fill="#404041" mask="url(#mask-6)"></path>
            <polygon id="Fill-18" fill="#404041" mask="url(#mask-6)" points="88.5773333 21.3651789 92.4523333 21.3651789 92.4523333 6.08749474 88.5773333 6.08749474"></polygon>
            <path d="M87.040619,7.99753684 C87.048,9.67606316 85.366619,10.7783789 83.8107143,10.1019579 C83.3855714,9.91922105 82.9929048,9.67164211 82.5854762,9.45058947 C80.623619,8.38364211 78.670619,8.39985263 76.7117143,9.47269474 C76.1832381,9.76301053 75.6429524,10.0651158 75.0716667,10.2390105 C74.1608571,10.5116421 73.1791905,10.0842737 72.6521905,9.29585263 C72.1015714,8.47058947 72.1355238,7.40806316 72.7407619,6.62111579 C73.3268095,5.86216842 74.3099524,5.53058947 75.2178095,5.82827368 C75.5691429,5.94469474 75.9071905,6.12595789 76.2260476,6.31901053 C78.5244762,7.7028 80.8140476,7.71606316 83.1050952,6.30132632 C83.3752381,6.1348 83.6542381,5.97416842 83.9494762,5.86511579 C85.4581429,5.29922105 87.0332381,6.39416842 87.040619,7.99753684" id="Fill-19" fill="#404041" mask="url(#mask-6)"></path>
            <path d="M76.8513619,11.3996842 C77.3148857,11.6561053 77.8241714,11.858 78.2375048,12.1792632 C79.4671714,13.1401053 79.9616952,13.1504211 81.0998381,12.1291579 C82.0490286,11.2758947 83.1694571,11.2523158 83.9577429,12.0702105 C84.6589333,12.7937895 84.6884571,13.9078947 84.0286,14.6697895 C83.2846,15.526 82.1553143,15.5643158 81.1706952,14.7655789 C79.8864095,13.7251579 79.4863619,13.7384211 78.1016952,14.8687368 C77.3355524,15.4921053 76.4527905,15.5643158 75.6984571,15.0617895 C74.9957905,14.5946316 74.6754571,13.7354737 74.907219,12.9382105 C75.1537429,12.0878947 75.8903619,11.5352632 76.8513619,11.3996842" id="Fill-20" fill="#404041" mask="url(#mask-6)"></path>
            <path d="M81.937281,18.9421474 C81.9033286,20.2227789 80.8478524,21.2130947 79.5517571,21.1806737 C78.2689476,21.1482526 77.2474238,20.0798316 77.2887571,18.8124632 C77.3286143,17.5362526 78.3870429,16.5474105 79.6816619,16.5783579 C80.9703762,16.6063579 81.9727095,17.6600421 81.937281,18.9421474" id="Fill-21" fill="#404041" mask="url(#mask-6)"></path>
            <path d="M92.8861857,2.3632 C92.8625667,3.63646316 91.7997095,4.66067368 90.5228048,4.63562105 C89.2503286,4.61056842 88.2096143,3.53625263 88.2391381,2.27477895 C88.2657095,1.00593684 89.3433286,-0.0256421053 90.6099,-0.000589473684 C91.8868048,0.0259368421 92.9083286,1.08846316 92.8861857,2.3632" id="Fill-22" fill="#404041" mask="url(#mask-6)"></path>
            <path d="M71.2320952,2.30572632 C71.2394762,3.59372632 70.2179524,4.62825263 68.9336667,4.63562105 C67.6523333,4.64446316 66.6160476,3.61730526 66.6101429,2.33372632 C66.6027619,1.0472 67.6272381,0.00825263158 68.9085714,0.000884210526 C70.1869524,-0.00795789474 71.2247143,1.02214737 71.2320952,2.30572632" id="Fill-23" fill="#404041" mask="url(#mask-6)"></path>
        </g>
    </g>
</svg>