<?xml version="1.0" encoding="UTF-8"?>
<svg width="212px" height="212px" viewBox="0 0 212 212" version="1.1" xmlns="http://www.w3.org/2000/svg" xmlns:xlink="http://www.w3.org/1999/xlink">
    <!-- Generator: Sketch 51.2 (57519) - http://www.bohemiancoding.com/sketch -->
    <title>Logos-Hover</title>
    <desc>Created with Sketch.</desc>
    <defs>
        <polygon id="path-1" points="0.464725243 0.234333333 14.3612883 0.234333333 14.3612883 20.4276211 0.464725243 20.4276211"></polygon>
    </defs>
    <g id="Logos-Hover" stroke="none" stroke-width="1" fill="none" fill-rule="evenodd">
        <g id="surfair" transform="translate(-2.000000, -1.000000)">
            <rect id="Rectangle-Copy-2" fill="#0A253E" x="0" y="0" width="216" height="214"></rect>
            <path d="M90.9786058,106.434206 C92.1575282,106.434206 93.3106252,106.472539 94.457266,106.417594 C95.0654505,106.389483 95.3262854,106.041928 95.3469456,105.436261 C95.3688971,104.76415 95.3559845,104.092039 95.3534019,103.419928 C95.3508194,102.864094 95.0615767,102.471817 94.5153728,102.450094 C93.3493631,102.402817 92.1794796,102.434761 90.9786058,102.434761 L90.9786058,106.434206 Z M94.1331592,97.2929833 C94.8962951,97.38115 95.6710524,97.4169278 96.422567,97.5677056 C99.2297709,98.1299278 100.602383,99.5533722 100.856761,102.40665 C100.9988,103.988539 100.927781,105.602372 100.807693,107.191928 C100.696645,108.670317 99.9193049,109.822872 98.5040816,110.555039 C99.5577515,112.856317 100.595926,115.124372 101.666383,117.463983 C99.8043825,117.463983 98.0288971,117.472928 96.2547029,117.446094 C96.1281592,117.444817 95.9590039,117.21865 95.8879845,117.061483 C95.0899845,115.349261 94.2958583,113.631928 93.5301398,111.904372 C93.3726058,111.554261 93.1918291,111.407317 92.7967029,111.429039 C92.2130524,111.464817 91.6255282,111.437983 90.974732,111.437983 L90.974732,117.426928 L85.4223049,117.426928 C85.4106835,117.244206 85.3874408,117.053817 85.3874408,116.86215 C85.3861495,110.538428 85.3861495,104.214706 85.388732,97.8897056 C85.388732,97.6903722 85.4119748,97.4923167 85.4261786,97.2929833 L94.1331592,97.2929833 Z" id="Fill-1" fill="#FFFFFF"></path>
            <path d="M55.8875243,97.2926 C55.915932,97.3961 55.9688738,97.4996 55.9688738,97.6031 C55.9740388,99.1824333 55.9727476,100.761767 55.9727476,102.406267 C55.7338641,102.420322 55.5246796,102.440767 55.3142039,102.443322 C53.2029903,102.4676 51.0904854,102.462489 48.9805631,102.523822 C48.1386602,102.546822 47.7319126,103.048989 47.9927476,103.714711 C48.1167087,104.0316 48.5002136,104.352322 48.837233,104.462211 C49.6339417,104.7216 50.4835922,104.819989 51.2919223,105.049989 C52.3094369,105.3426 53.3398641,105.632656 54.3083107,106.050489 C56.1251165,106.831211 57.2175243,108.211211 57.4654466,110.191767 C57.6952913,112.033044 57.506767,113.793822 56.3020194,115.307989 C55.1256796,116.783822 53.4844854,117.384378 51.6586408,117.435489 C48.832068,117.514711 46.0029126,117.501933 43.1750485,117.507044 C43.0213883,117.508322 42.7360194,117.317933 42.7334369,117.213156 C42.7050291,115.617211 42.714068,114.019989 42.714068,112.371656 C42.9516602,112.360156 43.1453495,112.343544 43.3390388,112.343544 C45.4696214,112.340989 47.6002039,112.349933 49.7294951,112.3346 C50.1478641,112.333322 50.5726893,112.273267 50.9794369,112.178711 C51.3990971,112.0816 51.6935049,111.832433 51.7154563,111.348156 C51.7348252,110.877933 51.5075631,110.550822 51.0879029,110.431989 C50.2627864,110.199433 49.4144272,110.042267 48.5815631,109.828878 C47.4297573,109.532433 46.2598738,109.283267 45.1403495,108.892267 C43.3183786,108.255933 42.2375922,106.983267 42.0994272,105.016767 C42.0903883,104.877489 42.0335728,104.739489 42,104.601489 L42,102.310433 C42.029699,102.243989 42.0723107,102.181378 42.0865146,102.1111 C42.6249709,99.4086 43.916233,98.0899333 46.6072233,97.5583778 C47.3380777,97.4139889 48.0908835,97.3782111 48.8333592,97.2926 L55.8875243,97.2926 Z" id="Fill-3" fill="#FFFFFF"></path>
            <path d="M122.018094,97.2926 C121.976774,97.5047111 121.957405,97.7232111 121.888968,97.9251 C121.452521,99.2335444 120.988958,100.533044 120.566716,101.8466 C120.436298,102.254211 120.259395,102.411378 119.800997,102.402433 C117.964822,102.371767 116.128648,102.389656 114.293764,102.389656 L113.67525,102.389656 L113.67525,106.316267 L119.094677,106.316267 C118.505861,108.046378 117.946745,109.6896 117.377298,111.359656 L113.658463,111.359656 L113.658463,117.436767 L108.075046,117.436767 L108.075046,116.797878 C108.075046,110.512489 108.075046,104.2271 108.077628,97.9417111 C108.077628,97.7257667 108.112492,97.5098222 108.13057,97.2926 L122.018094,97.2926 Z" id="Fill-5" fill="#FFFFFF"></path>
            <path d="M63.0828243,97.4074722 L68.6171738,97.4074722 L68.6171738,98.1166389 C68.6171738,102.241306 68.6171738,106.36725 68.618465,110.490639 C68.618465,110.728306 68.6171738,110.963417 68.6352515,111.199806 C68.6985233,112.049528 69.0277951,112.500583 69.8813194,112.607917 C70.578601,112.696083 71.3107466,112.671806 72.0054456,112.563194 C72.7285524,112.449472 73.0462029,111.980528 73.0913971,111.252194 C73.1068922,111.015806 73.1017272,110.780694 73.1017272,110.543028 C73.1030184,106.400472 73.1030184,102.256639 73.1030184,98.1140833 L73.1030184,97.4215278 L78.6877272,97.4215278 L78.6877272,98.0578611 C78.6877272,102.36525 78.6890184,106.672639 78.6877272,110.97875 C78.6877272,114.564194 76.8902903,116.837361 73.3354456,117.505639 C71.2332709,117.900472 69.0949408,117.896639 67.0353777,117.141472 C64.6465427,116.267472 63.0944456,114.237083 63.0699117,111.763306 C63.0234262,107.075139 63.051834,102.385694 63.051834,97.6988056 C63.0505427,97.6119167 63.0686204,97.5250278 63.0828243,97.4074722" id="Fill-7" fill="#FFFFFF"></path>
            <g id="Group-11" transform="translate(159.504854, 97.044083)">
                <mask id="mask-2" fill="white">
                    <use xlink:href="#path-1"></use>
                </mask>
                <g id="Clip-10"></g>
                <path d="M3.08082233,10.6405556 C5.25530777,10.5805 7.40009417,10.5932778 9.5306767,10.4335556 C10.7380068,10.3428333 11.290667,9.69627778 11.3771816,8.49133333 C11.4649874,7.24677778 11.4675699,5.98433333 11.3836379,4.7385 C11.2984146,3.48116667 10.7263854,2.85888889 9.45449223,2.76305556 C7.72161845,2.63016667 5.97324951,2.67105556 4.23262816,2.63911111 C3.85299709,2.63144444 3.47336602,2.63783333 3.08082233,2.63783333 L3.08082233,10.6405556 Z M0.464725243,0.233055556 C3.7057932,0.311 6.90554078,0.270111111 10.0846282,0.501388889 C12.5186573,0.679 13.8576961,2.174 13.9919874,4.58516667 C14.0810845,6.17216667 14.034599,7.78344444 13.8706087,9.36533333 C13.7169485,10.8565 12.7614146,11.8518889 11.3410262,12.3898333 C11.1899485,12.4460556 11.0427447,12.5125 10.837434,12.5968333 C12.0086087,15.1983889 13.1681621,17.7718333 14.3612883,20.4206667 C13.5671621,20.4206667 12.856968,20.4449444 12.1506476,20.4027778 C12.0060262,20.3938333 11.822667,20.1625556 11.7464825,19.9951667 C10.7573757,17.7897222 9.77472524,15.5817222 8.8179,13.3622222 C8.65390971,12.9814444 8.45247282,12.8626111 8.04443398,12.869 C6.41098738,12.8932778 4.77624951,12.8792222 3.07565728,12.8792222 L3.07565728,20.3785 L0.464725243,20.3785 L0.464725243,0.233055556 Z" id="Fill-9" fill="#FFFFFF" mask="url(#mask-2)"></path>
            </g>
            <path d="M137.527056,109.117028 C136.464348,105.813972 135.430047,102.599083 134.395746,99.38675 C134.358299,99.3944167 134.320852,99.4008056 134.283406,99.4071944 C133.24394,102.62975 132.201891,105.851028 131.148221,109.117028 L137.527056,109.117028 Z M142.911619,117.466028 C142.15494,117.466028 141.402134,117.449417 140.651911,117.473694 C140.322639,117.485194 140.267115,117.29225 140.187056,117.060972 C139.590493,115.344917 138.971979,113.636528 138.394784,111.914083 C138.263076,111.526917 138.095212,111.379972 137.666513,111.382528 C135.445542,111.406806 133.221988,111.410639 130.999726,111.379972 C130.533581,111.374861 130.374755,111.546083 130.243047,111.946028 C129.68393,113.654417 129.083493,115.350028 128.515338,117.054583 C128.413328,117.354861 128.279037,117.48775 127.938144,117.474972 C127.224076,117.446861 126.510008,117.466028 125.742998,117.466028 C125.803687,117.244972 125.839843,117.071194 125.896658,116.903806 C128.060814,110.560917 130.230134,104.219306 132.383959,97.8725833 C132.514377,97.4854167 132.683532,97.3244167 133.113522,97.3423056 C133.976085,97.3768056 134.841231,97.3333611 135.703794,97.3678611 C135.884571,97.3755278 136.166066,97.5365278 136.217717,97.6898611 C138.468386,104.233361 140.698396,110.784528 142.929697,117.334417 C142.934862,117.348472 142.925823,117.368917 142.911619,117.466028 Z" id="Fill-12" fill="#FFFFFF"></path>
            <polygon id="Fill-14" fill="#FFFFFF" points="149.346495 117.435361 151.87866 117.435361 151.87866 97.3895833 149.346495 97.3895833"></polygon>
        </g>
    </g>
</svg>