<?xml version="1.0" encoding="UTF-8"?>
<svg width="212px" height="212px" viewBox="0 0 212 212" version="1.1" xmlns="http://www.w3.org/2000/svg" xmlns:xlink="http://www.w3.org/1999/xlink">
    <!-- Generator: Sketch 51.2 (57519) - http://www.bohemiancoding.com/sketch -->
    <title>Logos</title>
    <desc>Created with Sketch.</desc>
    <defs>
        <polygon id="path-1" points="0 1.33669048 46.1069002 1.33669048 46.1069002 28.0587613 0 28.0587613"></polygon>
        <polygon id="path-3" points="1.09753316 0.723374074 18.7356393 0.723374074 18.7356393 19.1904762 1.09753316 19.1904762"></polygon>
    </defs>
    <g id="Logos" stroke="none" stroke-width="1" fill="none" fill-rule="evenodd">
        <g id="winc" transform="translate(61.000000, 91.000000)">
            <g id="Group-3" transform="translate(0.000000, 0.139943)">
                <mask id="mask-2" fill="white">
                    <use xlink:href="#path-1"></use>
                </mask>
                <g id="Clip-2"></g>
                <path d="M42.8672951,1.33669048 C43.0605738,1.4105 43.252377,1.49021429 43.4486066,1.55516667 C45.4138525,2.20616667 46.4481148,4.00269048 46.0054918,5.99997619 C45.592377,7.87178571 43.7643443,9.15311905 41.7990984,8.88002381 C40.9241803,8.75897619 40.0595902,8.5242619 39.202377,8.2925 C37.9984426,7.9662619 37.0143443,8.27183333 36.2751639,9.25940476 C35.9107377,9.74802381 35.5831967,10.2794524 35.3264754,10.8315476 C32.7843443,16.283119 30.2628689,21.7435476 27.7354918,27.2025 C27.6735246,27.3368333 27.6469672,27.5080714 27.5451639,27.6010714 C27.3430328,27.7855952 27.102541,28.0424524 26.8709016,28.0527857 C26.677623,28.0616429 26.3869672,27.7974048 26.2866393,27.5833571 C25.8041803,26.5706905 25.3718852,25.5344048 24.9218852,24.5055 C23.599918,21.4778333 22.282377,18.4486905 20.9559836,15.4225 C20.8586066,15.2010714 20.7169672,15.0003095 20.5089344,14.6371667 C20.2492623,15.057881 20.0456557,15.3398333 19.8936885,15.646881 C17.962377,19.5366429 16.039918,23.4308333 14.1159836,27.3235476 C14.0879508,27.3796429 14.0731967,27.4519762 14.0289344,27.4918333 C13.789918,27.6999762 13.537623,28.0645952 13.300082,28.0586905 C13.0581148,28.0498333 12.7290984,27.7176905 12.6051639,27.4490238 C11.4381148,24.932119 10.3109016,22.3989762 9.1645082,19.8717381 C7.69647541,16.6300238 6.27122951,13.3676429 4.72795082,10.1628333 C4.09942623,8.85788095 3.25106557,7.64592857 2.4145082,6.45611905 C2.10467213,6.01621429 1.55286885,5.73130952 1.0807377,5.4242619 C0.747295082,5.2072619 0.360737705,5.07145238 -0.000737704918,4.90021429 L-0.000737704918,4.51788095 C0.381393443,4.42635714 0.76204918,4.26102381 1.14565574,4.25659524 C2.81877049,4.22559524 4.49336066,4.24183333 6.16795082,4.24330952 C8.16122951,4.2462619 10.1530328,4.24035714 12.1463115,4.26988095 C12.4089344,4.27283333 12.670082,4.46916667 12.9327049,4.57545238 C12.7984426,4.81607143 12.7246721,5.14821429 12.5210656,5.2855 C11.3259836,6.08411905 11.442541,6.56683333 11.9161475,7.7197381 C12.6892623,9.60188095 13.4948361,11.4677857 14.3122131,13.3307381 C14.927459,14.7257381 15.5618852,16.1133571 16.2331967,17.4832619 C16.3984426,17.8183571 16.7348361,18.0693095 16.9930328,18.360119 C17.242377,18.0855476 17.5640164,17.847881 17.7292623,17.5290238 C18.3872951,16.2713095 19.027623,15.0032619 19.6045082,13.7071667 C19.7535246,13.3735476 19.780082,12.8716429 19.639918,12.5439286 C18.7871311,10.5363095 17.9136885,8.53607143 16.9428689,6.58602381 C16.695,6.09002381 16.0886066,5.75492857 15.6061475,5.39916667 C15.2756557,5.15411905 14.5910656,5.20578571 14.7061475,4.63892857 C14.747459,4.43816667 15.4438525,4.2625 15.8422131,4.25807143 C19.3595902,4.23002381 22.879918,4.23002381 26.3987705,4.25807143 C26.7986066,4.26102381 27.4581148,4.39240476 27.5466393,4.63302381 C27.7443443,5.16297619 27.0966393,5.2707381 26.7513934,5.51135714 C26.717459,5.53645238 26.6731967,5.54678571 26.6377869,5.56745238 C25.932541,5.9837381 25.6861475,6.53730952 25.8853279,7.33445238 C25.997459,7.78616667 26.1154918,8.24230952 26.292541,8.67040476 C27.5554918,11.7467857 28.8331967,14.8172619 30.112377,17.8877381 C30.1861475,18.0619286 30.3248361,18.2095476 30.5018852,18.4708333 C30.6877869,18.1327857 30.817623,17.9202143 30.922377,17.6973095 C31.5184426,16.4336905 32.0997541,15.1612143 32.7002459,13.8990714 C34.0753279,11.0116429 35.4017213,8.09911905 36.8564754,5.25154762 C37.7904098,3.42402381 39.1212295,1.92716667 41.2133607,1.33669048 L42.8672951,1.33669048 Z" id="Fill-1" fill="#404041" mask="url(#mask-2)"></path>
            </g>
            <g id="Group-6" transform="translate(70.819672, 10.473276)">
                <mask id="mask-4" fill="white">
                    <use xlink:href="#path-3"></use>
                </mask>
                <g id="Clip-5"></g>
                <path d="M8.5597377,19.1907714 C8.01531148,19.0372476 7.45908197,18.9147238 6.92793443,18.7242952 C3.70711475,17.5625333 1.83039344,15.2567238 1.24760656,11.9072476 C0.461213115,7.38862857 2.82334426,3.0604381 6.97367213,1.46910476 C9.76662295,0.398866667 12.5802295,0.509580952 15.3436721,1.61524762 C15.8836721,1.83077143 16.4030164,2.16734286 16.8412131,2.55262857 C17.9699016,3.54462857 18.0156393,5.29391429 16.9931803,6.21653333 C15.9943279,7.11553333 14.0408852,6.9192 13.2780984,5.70872381 C12.8694098,5.06067619 12.6525246,4.22810476 12.5625246,3.45310476 C12.4105574,2.14667619 11.9472787,1.59753333 10.2667869,1.9444381 C9.25170492,2.15405714 8.53908197,2.87000952 8.08908197,3.76605714 C6.81580328,6.28886667 6.71990164,8.87367619 8.02416393,11.4009143 C9.29154098,13.8587714 11.9974426,14.7828667 14.8730164,13.762819 C15.7980984,13.436581 16.6420328,12.8667714 17.506623,12.3840571 C17.9035082,12.1626286 18.2723607,11.9190571 18.7356393,12.1906762 L18.7356393,12.9538667 C18.6500656,13.1206762 18.5585902,13.2845333 18.4759672,13.452819 C17.2794098,15.8427714 15.6667869,17.8090571 13.0508852,18.737581 C12.538918,18.9176762 12.0077705,19.0402 11.4854754,19.1907714 L8.5597377,19.1907714 Z" id="Fill-4" fill="#404041" mask="url(#mask-4)"></path>
            </g>
            <path d="M58.957082,13.8367762 C59.9485574,13.1562524 60.8190492,12.4801571 61.7633115,11.9310143 C62.8329836,11.3095381 64.0442951,11.1368238 65.2674098,11.2460619 C67.7092131,11.4645381 69.256918,13.0662048 69.3174098,15.5624429 C69.3911803,18.5915857 69.3454426,21.623681 69.3601967,24.6557762 C69.364623,25.3968238 69.4118361,26.1378714 69.4251148,26.8803952 C69.436918,27.5653476 69.7305246,28.0303476 70.3605246,28.3314905 C70.5862623,28.4392524 70.7249508,28.722681 70.9034754,28.9263952 C70.6541311,29.0385857 70.4062623,29.2467286 70.1554426,29.249681 C67.5926557,29.2747762 65.026918,29.2762524 62.4641311,29.249681 C62.1941311,29.2467286 61.9285574,29.0282524 61.6600328,28.9101571 C61.812,28.6843 61.9654426,28.4584429 62.114459,28.2325857 C62.2811803,27.9757286 62.5408525,27.7351095 62.589541,27.4590619 C62.6942951,26.878919 62.719377,26.2795857 62.719377,25.6876333 C62.7223279,22.7219667 62.7075738,19.7533476 62.6928197,16.7847286 C62.6913443,16.4894905 62.6647869,16.1927762 62.6234754,15.8975381 C62.467082,14.7239667 61.7854426,14.2530619 60.6228197,14.5069667 C59.6534754,14.7195381 58.9747869,15.4295857 58.9733115,16.4142048 C58.9688852,19.7828714 58.9983934,23.1544905 59.0367541,26.5246333 C59.047082,27.3321095 59.3377377,28.0037762 60.1403607,28.3802048 C60.307082,28.4584429 60.3897049,28.7241571 60.5106885,28.9027762 C60.3085574,29.0238238 60.109377,29.2467286 59.9087213,29.249681 C57.0685574,29.2718238 54.2283934,29.2718238 51.3897049,29.249681 C51.1801967,29.2482048 50.9721639,29.0430143 50.7641311,28.9323 C50.8954426,28.7403952 50.9854426,28.4613952 51.166918,28.3713476 C51.8308525,28.0377286 52.1333115,27.5107286 52.1716721,26.7992048 C52.3501967,23.4334905 52.4947869,20.0692524 52.0433115,16.7123952 C51.9060984,15.6834905 51.3498689,14.9660619 50.3451148,14.6058714 C50.1562623,14.5394429 50.0160984,14.338681 49.8523279,14.199919 C50.0249508,14.0626333 50.1783934,13.858919 50.374623,13.7983952 C52.2764262,13.2182524 54.1885574,12.6661571 56.0933115,12.0963476 C56.6406885,11.9324905 57.1733115,11.7228714 57.7192131,11.5545857 C58.4200328,11.3375857 58.8847869,11.6549667 58.9452787,12.3871571 C58.9674098,12.6381095 58.9556066,12.8949667 58.957082,13.1488714 C58.9585574,13.3762048 58.957082,13.6035381 58.957082,13.8367762" id="Fill-7" fill="#404041"></path>
            <path d="M47.3180164,19.4604714 C47.3180164,21.6865667 47.3062131,23.9141381 47.3283443,26.1402333 C47.3312951,26.5786619 47.3681803,27.0584238 47.5511311,27.4422333 C47.7208033,27.7950429 48.1176885,28.0327095 48.3980164,28.3368048 C48.5573607,28.5080429 48.6842459,28.7117571 48.8244098,28.9007095 C48.6030984,29.0217571 48.3832623,29.2431857 48.1575246,29.2490905 C46.9093279,29.2830429 45.6567049,29.2668048 44.4055574,29.2668048 C42.8799836,29.2668048 41.3529344,29.2800905 39.8273607,29.2505667 C39.5750656,29.2461381 39.3257213,29.0424238 39.0749016,28.9302333 C39.2430984,28.7176619 39.371459,28.4298048 39.5927705,28.3043286 C40.0988361,28.0164714 40.393918,27.610519 40.4499836,27.0480905 C40.5208033,26.3321381 40.6019508,25.6117571 40.5945738,24.8943286 C40.5724426,22.3729952 40.5473607,19.8501857 40.4544098,17.3303286 C40.4042459,16.0120905 39.871623,14.9448048 38.4699836,14.5344238 C38.3519508,14.5004714 38.1630984,14.2997095 38.1808033,14.2672333 C38.259,14.1166619 38.374082,13.9247571 38.5201475,13.8760429 C39.3227705,13.6059 40.1386721,13.3770905 40.9486721,13.1276143 C42.5657213,12.6286619 44.1857213,12.1356143 45.7998197,11.6189476 C46.8060492,11.2986143 47.2619508,11.5997571 47.2649016,12.652281 C47.2693279,14.9211857 47.266377,17.1915667 47.266377,19.4604714 L47.3180164,19.4604714 Z" id="Fill-9" fill="#404041"></path>
        </g>
    </g>
</svg>