<?xml version="1.0" encoding="UTF-8"?>
<svg width="212px" height="212px" viewBox="0 0 212 212" version="1.1" xmlns="http://www.w3.org/2000/svg" xmlns:xlink="http://www.w3.org/1999/xlink">
    <!-- Generator: Sketch 51.2 (57519) - http://www.bohemiancoding.com/sketch -->
    <title>Logos-Hover</title>
    <desc>Created with Sketch.</desc>
    <defs>
        <polygon id="path-1" points="0 0.336690476 46.1069002 0.336690476 46.1069002 27.0587613 0 27.0587613"></polygon>
        <polygon id="path-3" points="0.0975331592 0.723374074 17.7356393 0.723374074 17.7356393 19.1904762 0.0975331592 19.1904762"></polygon>
    </defs>
    <g id="Logos-Hover" stroke="none" stroke-width="1" fill="none" fill-rule="evenodd">
        <g id="winc" transform="translate(-2.000000, -1.000000)">
            <rect id="Rectangle-Copy-2" fill="#FF5556" x="0" y="0" width="216" height="214"></rect>
            <g id="Group-3" transform="translate(63.000000, 93.139943)">
                <mask id="mask-2" fill="white">
                    <use xlink:href="#path-1"></use>
                </mask>
                <g id="Clip-2"></g>
                <path d="M42.8672951,0.336690476 C43.0605738,0.4105 43.252377,0.490214286 43.4486066,0.555166667 C45.4138525,1.20616667 46.4481148,3.00269048 46.0054918,4.99997619 C45.592377,6.87178571 43.7643443,8.15311905 41.7990984,7.88002381 C40.9241803,7.75897619 40.0595902,7.5242619 39.202377,7.2925 C37.9984426,6.9662619 37.0143443,7.27183333 36.2751639,8.25940476 C35.9107377,8.74802381 35.5831967,9.27945238 35.3264754,9.83154762 C32.7843443,15.283119 30.2628689,20.7435476 27.7354918,26.2025 C27.6735246,26.3368333 27.6469672,26.5080714 27.5451639,26.6010714 C27.3430328,26.7855952 27.102541,27.0424524 26.8709016,27.0527857 C26.677623,27.0616429 26.3869672,26.7974048 26.2866393,26.5833571 C25.8041803,25.5706905 25.3718852,24.5344048 24.9218852,23.5055 C23.599918,20.4778333 22.282377,17.4486905 20.9559836,14.4225 C20.8586066,14.2010714 20.7169672,14.0003095 20.5089344,13.6371667 C20.2492623,14.057881 20.0456557,14.3398333 19.8936885,14.646881 C17.962377,18.5366429 16.039918,22.4308333 14.1159836,26.3235476 C14.0879508,26.3796429 14.0731967,26.4519762 14.0289344,26.4918333 C13.789918,26.6999762 13.537623,27.0645952 13.300082,27.0586905 C13.0581148,27.0498333 12.7290984,26.7176905 12.6051639,26.4490238 C11.4381148,23.932119 10.3109016,21.3989762 9.1645082,18.8717381 C7.69647541,15.6300238 6.27122951,12.3676429 4.72795082,9.16283333 C4.09942623,7.85788095 3.25106557,6.64592857 2.4145082,5.45611905 C2.10467213,5.01621429 1.55286885,4.73130952 1.0807377,4.4242619 C0.747295082,4.2072619 0.360737705,4.07145238 -0.000737704919,3.90021429 L-0.000737704919,3.51788095 C0.381393443,3.42635714 0.76204918,3.26102381 1.14565574,3.25659524 C2.81877049,3.22559524 4.49336066,3.24183333 6.16795082,3.24330952 C8.16122951,3.2462619 10.1530328,3.24035714 12.1463115,3.26988095 C12.4089344,3.27283333 12.670082,3.46916667 12.9327049,3.57545238 C12.7984426,3.81607143 12.7246721,4.14821429 12.5210656,4.2855 C11.3259836,5.08411905 11.442541,5.56683333 11.9161475,6.7197381 C12.6892623,8.60188095 13.4948361,10.4677857 14.3122131,12.3307381 C14.927459,13.7257381 15.5618852,15.1133571 16.2331967,16.4832619 C16.3984426,16.8183571 16.7348361,17.0693095 16.9930328,17.360119 C17.242377,17.0855476 17.5640164,16.847881 17.7292623,16.5290238 C18.3872951,15.2713095 19.027623,14.0032619 19.6045082,12.7071667 C19.7535246,12.3735476 19.780082,11.8716429 19.639918,11.5439286 C18.7871311,9.53630952 17.9136885,7.53607143 16.9428689,5.58602381 C16.695,5.09002381 16.0886066,4.75492857 15.6061475,4.39916667 C15.2756557,4.15411905 14.5910656,4.20578571 14.7061475,3.63892857 C14.747459,3.43816667 15.4438525,3.2625 15.8422131,3.25807143 C19.3595902,3.23002381 22.879918,3.23002381 26.3987705,3.25807143 C26.7986066,3.26102381 27.4581148,3.39240476 27.5466393,3.63302381 C27.7443443,4.16297619 27.0966393,4.2707381 26.7513934,4.51135714 C26.717459,4.53645238 26.6731967,4.54678571 26.6377869,4.56745238 C25.932541,4.9837381 25.6861475,5.53730952 25.8853279,6.33445238 C25.997459,6.78616667 26.1154918,7.24230952 26.292541,7.67040476 C27.5554918,10.7467857 28.8331967,13.8172619 30.112377,16.8877381 C30.1861475,17.0619286 30.3248361,17.2095476 30.5018852,17.4708333 C30.6877869,17.1327857 30.817623,16.9202143 30.922377,16.6973095 C31.5184426,15.4336905 32.0997541,14.1612143 32.7002459,12.8990714 C34.0753279,10.0116429 35.4017213,7.09911905 36.8564754,4.25154762 C37.7904098,2.42402381 39.1212295,0.927166667 41.2133607,0.336690476 L42.8672951,0.336690476 Z" id="Fill-1" fill="#FFFFFF" mask="url(#mask-2)"></path>
            </g>
            <g id="Group-6" transform="translate(134.819672, 102.473276)">
                <mask id="mask-4" fill="white">
                    <use xlink:href="#path-3"></use>
                </mask>
                <g id="Clip-5"></g>
                <path d="M7.5597377,19.1907714 C7.01531148,19.0372476 6.45908197,18.9147238 5.92793443,18.7242952 C2.70711475,17.5625333 0.830393443,15.2567238 0.247606557,11.9072476 C-0.538786885,7.38862857 1.82334426,3.0604381 5.97367213,1.46910476 C8.76662295,0.398866667 11.5802295,0.509580952 14.3436721,1.61524762 C14.8836721,1.83077143 15.4030164,2.16734286 15.8412131,2.55262857 C16.9699016,3.54462857 17.0156393,5.29391429 15.9931803,6.21653333 C14.9943279,7.11553333 13.0408852,6.9192 12.2780984,5.70872381 C11.8694098,5.06067619 11.6525246,4.22810476 11.5625246,3.45310476 C11.4105574,2.14667619 10.9472787,1.59753333 9.26678689,1.9444381 C8.25170492,2.15405714 7.53908197,2.87000952 7.08908197,3.76605714 C5.81580328,6.28886667 5.71990164,8.87367619 7.02416393,11.4009143 C8.29154098,13.8587714 10.9974426,14.7828667 13.8730164,13.762819 C14.7980984,13.436581 15.6420328,12.8667714 16.506623,12.3840571 C16.9035082,12.1626286 17.2723607,11.9190571 17.7356393,12.1906762 L17.7356393,12.9538667 C17.6500656,13.1206762 17.5585902,13.2845333 17.4759672,13.452819 C16.2794098,15.8427714 14.6667869,17.8090571 12.0508852,18.737581 C11.538918,18.9176762 11.0077705,19.0402 10.4854754,19.1907714 L7.5597377,19.1907714 Z" id="Fill-4" fill="#FFFFFF" mask="url(#mask-4)"></path>
            </g>
            <path d="M121.957082,105.836776 C122.948557,105.156252 123.819049,104.480157 124.763311,103.931014 C125.832984,103.309538 127.044295,103.136824 128.26741,103.246062 C130.709213,103.464538 132.256918,105.066205 132.31741,107.562443 C132.39118,110.591586 132.345443,113.623681 132.360197,116.655776 C132.364623,117.396824 132.411836,118.137871 132.425115,118.880395 C132.436918,119.565348 132.730525,120.030348 133.360525,120.33149 C133.586262,120.439252 133.724951,120.722681 133.903475,120.926395 C133.654131,121.038586 133.406262,121.246729 133.155443,121.249681 C130.592656,121.274776 128.026918,121.276252 125.464131,121.249681 C125.194131,121.246729 124.928557,121.028252 124.660033,120.910157 C124.812,120.6843 124.965443,120.458443 125.114459,120.232586 C125.28118,119.975729 125.540852,119.73511 125.589541,119.459062 C125.694295,118.878919 125.719377,118.279586 125.719377,117.687633 C125.722328,114.721967 125.707574,111.753348 125.69282,108.784729 C125.691344,108.48949 125.664787,108.192776 125.623475,107.897538 C125.467082,106.723967 124.785443,106.253062 123.62282,106.506967 C122.653475,106.719538 121.974787,107.429586 121.973311,108.414205 C121.968885,111.782871 121.998393,115.15449 122.036754,118.524633 C122.047082,119.33211 122.337738,120.003776 123.140361,120.380205 C123.307082,120.458443 123.389705,120.724157 123.510689,120.902776 C123.308557,121.023824 123.109377,121.246729 122.908721,121.249681 C120.068557,121.271824 117.228393,121.271824 114.389705,121.249681 C114.180197,121.248205 113.972164,121.043014 113.764131,120.9323 C113.895443,120.740395 113.985443,120.461395 114.166918,120.371348 C114.830852,120.037729 115.133311,119.510729 115.171672,118.799205 C115.350197,115.43349 115.494787,112.069252 115.043311,108.712395 C114.906098,107.68349 114.349869,106.966062 113.345115,106.605871 C113.156262,106.539443 113.016098,106.338681 112.852328,106.199919 C113.024951,106.062633 113.178393,105.858919 113.374623,105.798395 C115.276426,105.218252 117.188557,104.666157 119.093311,104.096348 C119.640689,103.93249 120.173311,103.722871 120.719213,103.554586 C121.420033,103.337586 121.884787,103.654967 121.945279,104.387157 C121.96741,104.63811 121.955607,104.894967 121.957082,105.148871 C121.958557,105.376205 121.957082,105.603538 121.957082,105.836776" id="Fill-7" fill="#FFFFFF"></path>
            <path d="M110.318016,111.460471 C110.318016,113.686567 110.306213,115.914138 110.328344,118.140233 C110.331295,118.578662 110.36818,119.058424 110.551131,119.442233 C110.720803,119.795043 111.117689,120.03271 111.398016,120.336805 C111.557361,120.508043 111.684246,120.711757 111.82441,120.90071 C111.603098,121.021757 111.383262,121.243186 111.157525,121.24909 C109.909328,121.283043 108.656705,121.266805 107.405557,121.266805 C105.879984,121.266805 104.352934,121.28009 102.827361,121.250567 C102.575066,121.246138 102.325721,121.042424 102.074902,120.930233 C102.243098,120.717662 102.371459,120.429805 102.59277,120.304329 C103.098836,120.016471 103.393918,119.610519 103.449984,119.04809 C103.520803,118.332138 103.601951,117.611757 103.594574,116.894329 C103.572443,114.372995 103.547361,111.850186 103.45441,109.330329 C103.404246,108.01209 102.871623,106.944805 101.469984,106.534424 C101.351951,106.500471 101.163098,106.29971 101.180803,106.267233 C101.259,106.116662 101.374082,105.924757 101.520148,105.876043 C102.32277,105.6059 103.138672,105.37709 103.948672,105.127614 C105.565721,104.628662 107.185721,104.135614 108.79982,103.618948 C109.806049,103.298614 110.261951,103.599757 110.264902,104.652281 C110.269328,106.921186 110.266377,109.191567 110.266377,111.460471 L110.318016,111.460471 Z" id="Fill-9" fill="#FFFFFF"></path>
        </g>
    </g>
</svg>